<?xml version="1.0" encoding="UTF-8"?>
<svg id="Layer_2" data-name="Layer 2" xmlns="http://www.w3.org/2000/svg" xmlns:xlink="http://www.w3.org/1999/xlink" viewBox="0 0 828.8 533.73">
  <defs>
    <style>
      .cls-1, .cls-2, .cls-3, .cls-4 {
        fill: none;
      }

      .cls-5 {
        stroke: #fff;
        stroke-width: .97px;
      }

      .cls-6 {
        font-family: TimesNewRomanPSMT, 'Times New Roman';
        font-size: 14px;
      }

      .cls-6, .cls-7 {
        isolation: isolate;
      }

      .cls-8, .cls-9, .cls-10, .cls-11, .cls-12, .cls-13, .cls-14, .cls-15 {
        stroke: #e5ecf6;
        stroke-width: .24px;
      }

      .cls-8, .cls-16 {
        fill: #399;
      }

      .cls-9, .cls-17 {
        fill: #f4e1a1;
      }

      .cls-10, .cls-18 {
        fill: #cb7729;
      }

      .cls-19, .cls-13 {
        fill: #f4a988;
      }

      .cls-20, .cls-14 {
        fill: #c04e3f;
      }

      .cls-21, .cls-11 {
        fill: #b5dba5;
      }

      .cls-2 {
        stroke-width: .9px;
      }

      .cls-2, .cls-4 {
        stroke: #000;
      }

      .cls-12, .cls-22 {
        fill: #ffc3c2;
      }

      .cls-3 {
        stroke: #675e5d;
        stroke-linecap: square;
        stroke-miterlimit: 10;
      }

      .cls-23 {
        fill: #f7a7a1;
      }

      .cls-24, .cls-15 {
        fill: #005f56;
      }

      .cls-25 {
        letter-spacing: -.06em;
      }

      .cls-26 {
        letter-spacing: -.04em;
      }

      .cls-27 {
        clip-path: url(#clippath);
      }
    </style>
    <clipPath id="clippath">
      <rect class="cls-1" x="80.2" y="16.97" width="261.29" height="174.19"/>
    </clipPath>
  </defs>
  <g id="Layer_1-2" data-name="Layer 1">
    <path class="cls-18" d="M27,288.43l2.3-1.2c2.3-1.2,6.9-3.5,13.8-4.1,6.9-.6,16.1.6,25.2,2.3,9.2,1.8,18.4,4.1,25.3,4.7s11.5-.6,18.4-1.8,16.1-2.3,22.9-2.3,11.5,1.2,16.1,1.2,9.2-1.2,13.8-.7c4.6.4,9.2,2.5,13.8,3.5s9.2,1,13.8,1.6,9.2,1.8,13.8,2.1c4.6.4,9.2,0,13.8-1.9s9.2-5.4,13.8-6.3,9.2.9,16.1.9,16.1-1.8,27.6-2.6c11.5-.9,25.3-.9,34.4-1.5s13.8-1.8,18.4-1.8,9.2,1.2,13.8,1.5c4.6.3,9.2-.3,16.1-.6s16.1-.3,23,.7,11.5,3.1,16.1,3.5,9.2-.7,13.8-1.9c4.6-1.2,9.2-2.3,13.8-4,4.6-1.6,9.2-3.7,13.8-3.3,4.6.4,9.2,3.3,13.8,4,4.6.7,9.2-.8,13.8-1.3,4.6-.6,9.2-.2,13.8.2,4.6.4,9.2.8,13.8,1.2,4.6.4,9.2.9,13.8,1.3s9.2.6,13.8-.6,9.2-3.7,13.8-8.2,9.2-11,13.8-12.2,9.2,2.8,13.8,4.5,9.2,1,13.8-.4,9.2-3.6,13.8-3.5c4.6,0,9.2,2.5,13.8-.2s9.2-10.6,13.8-12,9.2,3.5,13.8,3.2c4.6-.4,9.2-6,13.8-13.5s9.2-16.8,13.8-14.3,9.2,16.8,13.8,18.2,9.2-9.9,13.8-12,9.2,5.3,13.8,4.4,9.2-9.8,13.8-15.8,9.2-9.2,13.8-2.5,9.2,23,13.8,24.6,9.2-11.6,13.8-18.5,9.2-7.4,13.8-8.8c4.6-1.3,9.2-3.5,13.8-3.4,4.6,0,9.2,2.2,13.8,1.7s9.2-3.6,11.5-5.1l2.3-1.6v7l-2.3,3.9c-2.3,3.9-6.9,11.7-11.5,14.5s-9.2.7-13.8,5.3-9.2,16.1-13.8,19.8c-4.6,3.7-9.2-.4-13.8,1.8s-9.2,10.7-13.8,12.6-9.2-2.8-13.8-8.2c-4.6-5.5-9.2-11.7-13.8-15-4.6-3.3-9.2-3.7-13.8-2.8s-9.2,2.9-13.8,6.1c-4.6,3.2-9.2,7.6-13.8,3.8-4.6-3.8-9.2-15.7-13.8-12.4s-9.2,22-13.8,29.5-9.2,3.8-13.8.7c-4.6-3.1-9.2-5.8-13.8-5.5s-9.2,3.4-13.8,5-9.2,1.5-13.8,1.4-9.2-.2-13.8,0c-4.6.3-9.2.9-13.8,1.6s-9.2,1.3-13.8,3.6-9.2,6.5-13.8,7.5-9.2-1.1-13.8-1.1-9.2,2.1-13.8,1.7-9.2-3.2-13.8-3.6-9.2,1.5-13.8,3.4c-4.6,1.9-9.2,3.9-13.8,3.3s-9.2-3.8-13.8-5.7c-4.6-1.9-9.2-2.5-13.8-1.7s-9.2,2.9-13.8,4.5c-4.6,1.6-9.2,2.8-13.8,4-4.6,1.2-9.2,2.3-13.8.7s-9.2-6-16.1-8.2-16.1-2.2-23-1.9-11.5.9-16.1.6-9.2-1.5-13.8-1.5-9.2,1.2-18.4,1.8-23,.6-34.4,1.5c-11.5.9-20.7,2.6-27.6,2.6s-11.5-1.8-16.1-.9-9.2,4.4-13.8,6.3-9.2,2.3-13.8,1.9-9.2-1.6-13.8-2.1c-4.6-.6-9.2-.6-13.8-1.6s-9.2-3.1-13.8-3.5-9.2.7-13.8.7-9.2-1.2-16.1-1.2-16.1,1.2-22.9,2.3-11.5,2.3-18.4,2.9-16.1.6-25.3,1.2-18.4,1.8-25.2,1.2c-6.9-.6-11.5-2.9-13.8-4.1l-2.3-1.2v.1Z"/>
    <path class="cls-21" d="M27,288.43l2.3,1.2c2.3,1.2,6.9,3.5,13.8,4.1,6.9.6,16.1-.6,25.2-1.2,9.2-.6,18.4-.6,25.3-1.2s11.5-1.8,18.4-2.9,16.1-2.3,22.9-2.3,11.5,1.2,16.1,1.2,9.2-1.2,13.8-.7c4.6.4,9.2,2.5,13.8,3.5s9.2,1,13.8,1.6,9.2,1.8,13.8,2.1c4.6.4,9.2,0,13.8-1.9s9.2-5.4,13.8-6.3,9.2.9,16.1.9,16.1-1.8,27.6-2.6c11.5-.9,25.3-.9,34.4-1.5s13.8-1.8,18.4-1.8,9.2,1.2,13.8,1.5c4.6.3,9.2-.3,16.1-.6s16.1-.3,23,1.9c6.9,2.2,11.5,6.6,16.1,8.2s9.2.4,13.8-.7c4.6-1.2,9.2-2.3,13.8-4,4.6-1.6,9.2-3.7,13.8-4.5s9.2-.2,13.8,1.7c4.6,1.9,9.2,5,13.8,6.8s9.2,2.2,13.8,1.4,9.2-2.7,13.8-3.4c4.6-.7,9.2-.2,13.8.1s9.2.6,13.8.6,9.2-.2,13.8-2.4c4.6-2.2,9.2-6.3,13.8-8.7s9.2-3,13.8-2.5,9.2,2.2,13.8,3.1,9.2,1,13.8,1.1,9.2.1,13.8-1.4c4.6-1.6,9.2-4.7,13.8-6.2s9.2-1.1,13.8.8c4.6,2,9.2,5.6,13.8,1.6s9.2-15.6,13.8-17.8,9.2,5.1,13.8,6.6c4.6,1.4,9.2-2.9,13.8-1.5s9.2,8.8,13.8,7.9c4.6-.8,9.2-9.8,13.8-11.2s9.2,4.8,13.8,10.3,9.2,10.1,13.8,9.4,9.2-6.9,13.8-9.1,9.2-.4,13.8-4.1,9.2-12.8,13.8-16.3,9.2-1.3,13.8-6.5c4.6-5.1,9.2-17.6,11.5-23.8l2.3-6.2v21l-2.3,40.1c-2.3,40.1-6.9,120.2-11.5,159.1-4.6,39-9.2,36.8-13.8,36.8s-9.2,2.1-13.8,2.3c-4.6.2-9.2-1.6-13.8-12.2s-9.2-30.1-13.8-23.5-9.2,39.2-13.8,54.8c-4.6,15.5-9.2,14-13.8-3.3s-9.2-50.3-13.8-53-9.2,25-13.8,30.6-9.2-11.1-13.8-13.7-9.2,8.8-13.8,6.3-9.2-18.8-13.8-30-9.2-17.2-13.8-19.1c-4.6-2-9.2,0-13.8-6.7s-9.2-22.2-13.8-31.2-9.2-11.3-13.8-14.9-9.2-8.4-13.8-9.3-9.2,2.1-13.8,5.1-9.2,5.9-13.8,1.3-9.2-16.9-13.8-26.3c-4.6-9.5-9.2-16.3-13.8-17.4-4.6-1.2-9.2,3.3-13.8,5.2s-9.2,1.5-13.8-2.5c-4.6-3.9-9.2-11.3-13.8-12.9-4.6-1.6-9.2,2.7-13.8,2.1s-9.2-6.1-13.8-6.8c-4.6-.7-9.2,3.4-13.8,3-4.6-.4-9.2-5.3-13.8-7.2-4.6-1.9-9.2-.7-13.8.5-4.6,1.2-9.2,2.3-13.8.7s-9.2-6-16.1-7-16.1,1.3-23,2.8-11.5,2-16.1,2.9-9.2,2-13.8,2-9.2-1.2-18.4-1.8c-9.2-.6-23-.6-34.4-.9-11.5-.3-20.7-.9-27.6-2-6.9-1.2-11.5-2.9-16.1-.9s-9.2,7.9-13.8,9.8-9.2,0-13.8-.4-9.2.8-13.8,1.4-9.2.6-13.8-.4-9.2-3.1-13.8-4.7-9.2-2.8-13.8-3.9-9.2-2.3-16.1-2.3-16.1,1.2-22.9,2.3-11.5,2.3-18.4,2.9-16.1.6-25.3,1.2-18.4,1.8-25.2,1.2c-6.9-.6-11.5-2.9-13.8-4.1l-2.3-1.2v-.1Z"/>
    <path class="cls-19" d="M27,281.43h2.3c2.3,0,6.9,0,13.8.6,6.9.6,16.1,1.8,25.2,1.2,9.2-.6,18.4-2.9,25.3-3.5s11.5.6,18.4.6,16.1-1.2,22.9-2.3c6.9-1.2,11.5-2.3,16.1-2.3s9.2,1.2,13.8.4c4.6-.7,9.2-3.4,13.8-1.2,4.6,2.2,9.2,9.2,13.8,12.1s9.2,1.8,13.8-.2c4.6-1.9,9.2-4.7,13.8-6.6s9.2-3.1,13.8-4,9.2-1.5,16.1-1.5,16.1.6,27.6,2c11.5,1.5,25.3,3.8,34.4,4.4,9.2.6,13.8-.6,18.4-1.8,4.6-1.2,9.2-2.3,13.8-3.2s9.2-1.5,16.1-1.8,16.1-.3,23-1.6c6.9-1.3,11.5-3.9,16.1-4.7,4.6-.7,9.2.4,13.8,1.6,4.6,1.2,9.2,2.3,13.8,1.9,4.6-.5,9.2-2.6,13.8-2.2,4.6.4,9.2,3.3,13.8,1.7,4.6-1.6,9.2-7.8,13.8-8.3s9.2,4.5,13.8,3.7,9.2-7.4,13.8-8.1,9.2,4.4,13.8,7.1,9.2,2.9,13.8.6,9.2-7.2,13.8-14.1c4.6-6.8,9.2-15.6,13.8-16.8s9.2,5.2,13.8,8c4.6,2.9,9.2,2.2,13.8-.4,4.6-2.6,9.2-7.1,13.8-12.9s9.2-12.7,13.8-23.6,9.2-25.7,13.8-30.7,9.2,0,13.8-.3c4.6-.4,9.2-6,13.8-11.2s9.2-9.8,13.8-12,9.2-1.9,13.8-9.8c4.6-7.9,9.2-23.9,13.8-17.8,4.6,6.1,9.2,34.4,13.8,31.3s9.2-37.8,13.8-59,9.2-29,13.8-35.2,9.2-10.9,13.8-13.9,9.2-4.6,13.8-9.1,9.2-12.1,13.8-12.3,9.2,7,13.8,12.9c4.6,5.9,9.2,10.3,13.8,32,4.6,21.7,9.2,60.6,11.5,80l2.3,19.4v21l-2.3-17.1c-2.3-17.1-6.9-51.3-11.5-63.7-4.6-12.4-9.2-2.8-13.8-6.4s-9.2-20.1-13.8-25.7c-4.6-5.7-9.2-.4-13.8.6s-9.2-2.1-13.8-2.5-9.2,1.9-13.8,6.9-9.2,12.8-13.8,30.5-9.2,45.3-13.8,46.2-9.2-25.1-13.8-31.3-9.2,7.6-13.8,16.7c-4.6,9.1-9.2,13.4-13.8,15.6s-9.2,2.2-13.8,5-9.2,8.5-13.8,12.4-9.2,5.9-13.8,12-9.2,16.3-13.8,23.7-9.2,12-13.8,17.7-9.2,12.6-13.8,15.2-9.2.9-13.8-3.1-9.2-10.4-13.8-9.2-9.2,10-13.8,16.8c-4.6,6.8-9.2,11.7-13.8,14.1-4.6,2.3-9.2,2.1-13.8-.6s-9.2-7.9-13.8-7.1c-4.6.7-9.2,7.3-13.8,8.1s-9.2-4.3-13.8-3.7-9.2,6.7-13.8,8.3c-4.6,1.6-9.2-1.3-13.8-1.7-4.6-.4-9.2,1.7-13.8,2.2-4.6.5-9.2-.7-13.8-1.9-4.6-1.2-9.2-2.3-13.8-1.6-4.6.7-9.2,3.4-16.1,4.7-6.9,1.3-16.1,1.3-23,1.6s-11.5.9-16.1,1.8-9.2,2-13.8,3.2c-4.6,1.2-9.2,2.3-18.4,1.8-9.2-.6-23-2.9-34.4-4.4-11.5-1.5-20.7-2-27.6-2s-11.5.6-16.1,1.5-9.2,2-13.8,4c-4.6,1.9-9.2,4.7-13.8,6.6s-9.2,3.1-13.8.2-9.2-9.9-13.8-12.1-9.2.4-13.8,2.3-9.2,3.1-13.8,3.1-9.2-1.2-16.1-1.2-16.1,1.2-22.9,1.2-11.5-1.2-18.4-.6-16.1,2.9-25.3,3.5-18.4-.6-25.2-1.2c-6.9-.6-11.5-.6-13.8-.6h-2.3v.1Z"/>
    <path class="cls-20" d="M27,281.43h2.3c2.3,0,6.9,0,13.8.6,6.9.6,16.1,1.8,25.2,1.2,9.2-.6,18.4-2.9,25.3-3.5s11.5.6,18.4.6,16.1-1.2,22.9-1.2,11.5,1.2,16.1,1.2,9.2-1.2,13.8-3.1,9.2-4.5,13.8-2.3,9.2,9.2,13.8,12.1,9.2,1.8,13.8-.2c4.6-1.9,9.2-4.7,13.8-6.6s9.2-3.1,13.8-4,9.2-1.5,16.1-1.5,16.1.6,27.6,2c11.5,1.5,25.3,3.8,34.4,4.4,9.2.6,13.8-.6,18.4-1.8,4.6-1.2,9.2-2.3,13.8-3.2s9.2-1.5,16.1-1.8,16.1-.3,23-1.6c6.9-1.3,11.5-3.9,16.1-4.7,4.6-.7,9.2.4,13.8,1.6,4.6,1.2,9.2,2.3,13.8,1.9,4.6-.5,9.2-2.6,13.8-2.2,4.6.4,9.2,3.3,13.8,1.7,4.6-1.6,9.2-7.8,13.8-8.3s9.2,4.5,13.8,3.7,9.2-7.4,13.8-8.1,9.2,4.4,13.8,7.1,9.2,2.9,13.8.6,9.2-7.2,13.8-14.1c4.6-6.8,9.2-15.6,13.8-16.8s9.2,5.2,13.8,9.2,9.2,5.7,13.8,3.1,9.2-9.5,13.8-15.2,9.2-10.4,13.8-17.7c4.6-7.4,9.2-17.6,13.8-23.7,4.6-6.1,9.2-8.1,13.8-12s9.2-9.5,13.8-12.4c4.6-2.8,9.2-2.8,13.8-5s9.2-6.6,13.8-15.6c4.6-9.1,9.2-22.8,13.8-16.7s9.2,32.1,13.8,31.3,9.2-28.5,13.8-46.2,9.2-25.5,13.8-30.5,9.2-7.4,13.8-6.9c4.6.4,9.2,3.6,13.8,2.5,4.6-1,9.2-6.3,13.8-.6,4.6,5.7,9.2,22.2,13.8,25.7s9.2-6,13.8,6.4,9.2,46.6,11.5,63.7l2.3,17.1v7l-2.3-14.8c-2.3-14.8-6.9-44.3-11.5-55.5s-9.2-4-13.8-.5-9.2,3.3-13.8,1.1-9.2-6.3-13.8-8.7-9.2-3.3-13.8-7.2c-4.6-3.9-9.2-10.9-13.8-8.2s-9.2,15.2-13.8,35.2-9.2,47.7-13.8,46.2-9.2-32.1-13.8-41.8c-4.6-9.6-9.2,1.8-13.8,10.8-4.6,9.1-9.2,15.8-13.8,17.9s-9.2-.2-13.8,2.6-9.2,10.8-13.8,13.5-9.2,0-13.8,5-9.2,17.4-13.8,24.8-9.2,9.7-13.8,15.4-9.2,14.9-13.8,17.5-9.2-1.4-13.8-6.6-9.2-11.6-13.8-10.4-9.2,10-13.8,18-9.2,15.2-13.8,17.6c-4.6,2.3-9.2-.2-13.8-2.9-4.6-2.7-9.2-5.5-13.8-4.8s-9.2,5-13.8,4.6-9.2-5.4-13.8-4.9-9.2,6.7-13.8,8.3c-4.6,1.6-9.2-1.3-13.8-1.7-4.6-.4-9.2,1.7-13.8,2.2-4.6.5-9.2-.7-13.8-1.9-4.6-1.2-9.2-2.3-13.8-1.6-4.6.7-9.2,3.4-16.1,4.7-6.9,1.3-16.1,1.3-23,1.6s-11.5.9-16.1,1.8-9.2,2-13.8,3.2c-4.6,1.2-9.2,2.3-18.4,2.9s-23,.6-34.4.3c-11.5-.3-20.7-.9-27.6-.9s-11.5.6-16.1.3c-4.6-.3-9.2-1.5-13.8-.7s-9.2,3.5-13.8,5.4-9.2,3.1-13.8,1.4-9.2-6.4-13.8-8.6-9.2-1.9-13.8-1.2c-4.6.7-9.2,1.9-13.8,3.1s-9.2,2.3-16.1,2.3-16.1-1.2-22.9-2.3-11.5-2.3-18.4-1.8c-6.9.6-16.1,2.9-25.3,3.5s-18.4-.6-25.2,0c-6.9.6-11.5,2.9-13.8,4.1l-2.3,1.2v-7,.3Z"/>
    <path class="cls-16" d="M27,288.43l2.3-1.2c2.3-1.2,6.9-3.5,13.8-4.1,6.9-.6,16.1.6,25.2,0,9.2-.6,18.4-2.9,25.3-3.5s11.5.6,18.4,1.8,16.1,2.3,22.9,2.3,11.5-1.2,16.1-1.2,9.2,1.2,13.8.4c4.6-.7,9.2-3.4,13.8-2.3,4.6,1,9.2,5.7,13.8,7.4s9.2.6,13.8,1,9.2,2.3,13.8,1.6,9.2-4.3,13.8-6.3,9.2-2.6,16.1-2.6,16.1.6,27.6.9,25.3.3,34.4-.3,13.8-1.8,18.4-2.9c4.6-1.2,9.2-2.3,13.8-2,4.6.3,9.2,2,16.1,2.9s16.1.9,23-.4,11.5-3.9,16.1-4.7c4.6-.7,9.2.4,13.8,1.6,4.6,1.2,9.2,2.3,13.8,1.9,4.6-.5,9.2-2.6,13.8-3.3s9.2-.2,13.8-1.8c4.6-1.6,9.2-5.5,13.8-6,4.6-.6,9.2,2.2,13.8,4.9,4.6,2.7,9.2,5.4,13.8,4.7,4.6-.7,9.2-4.9,13.8-4.5s9.2,5.3,13.8,5.3,9.2-4.9,13.8-11.7c4.6-6.8,9.2-15.6,13.8-16.8s9.2,5.2,13.8,9.2,9.2,5.7,13.8,4.3,9.2-6,13.8-9.4,9.2-5.7,13.8-9.6,9.2-9.4,13.8-13.2,9.2-5.8,13.8-12,9.2-16.5,13.8-20.5,9.2-1.6,13.8-1.5c4.6.2,9.2-1.9,13.8-6.3,4.6-4.4,9.2-11.1,13.8-6.2s9.2,21.6,13.8,20.8,9.2-19.1,13.8-31,9.2-17.3,13.8-15.4,9.2,11.3,13.8,10.6,9.2-11.6,13.8-18.5,9.2-9.8,13.8-4.1,9.2,19.9,13.8,25.7,9.2,3.3,13.8,6.4c4.6,3,9.2,11.6,11.5,15.9l2.3,4.3v7l-2.3,1.6c-2.3,1.6-6.9,4.7-11.5,5.1-4.6.5-9.2-1.7-13.8-1.7s-9.2,2.1-13.8,3.4c-4.6,1.3-9.2,1.9-13.8,8.8s-9.2,20-13.8,18.5c-4.6-1.6-9.2-17.9-13.8-24.6s-9.2-3.5-13.8,2.5-9.2,15-13.8,15.8-9.2-6.5-13.8-4.4-9.2,13.4-13.8,12-9.2-15.7-13.8-18.2-9.2,6.8-13.8,14.3-9.2,13.2-13.8,13.5c-4.6.4-9.2-4.6-13.8-3.2s-9.2,9.3-13.8,12-9.2.3-13.8.2c-4.6,0-9.2,2.1-13.8,3.5s-9.2,2.1-13.8.4-9.2-5.7-13.8-4.5-9.2,7.6-13.8,12.2c-4.6,4.5-9.2,7.1-13.8,8.2-4.6,1.2-9.2.9-13.8.6s-9.2-.9-13.8-1.3-9.2-.8-13.8-1.2c-4.6-.4-9.2-.8-13.8-.2-4.6.6-9.2,2.1-13.8,1.3-4.6-.7-9.2-3.6-13.8-4-4.6-.4-9.2,1.7-13.8,3.3-4.6,1.6-9.2,2.8-13.8,4-4.6,1.2-9.2,2.3-13.8,1.9s-9.2-2.5-16.1-3.5-16.1-1-23-.7-11.5.9-16.1.6-9.2-1.5-13.8-1.5-9.2,1.2-18.4,1.8-23,.6-34.4,1.5c-11.5.9-20.7,2.6-27.6,2.6s-11.5-1.8-16.1-.9-9.2,4.4-13.8,6.3-9.2,2.3-13.8,1.9-9.2-1.6-13.8-2.1c-4.6-.6-9.2-.6-13.8-1.6s-9.2-3.1-13.8-3.5-9.2.7-13.8.7-9.2-1.2-16.1-1.2-16.1,1.2-22.9,2.3-11.5,2.3-18.4,1.8c-6.9-.6-16.1-2.9-25.3-4.7-9.2-1.8-18.4-2.9-25.2-2.3-6.9.6-11.5,2.9-13.8,4.1l-2.3,1.2v-.2Z"/>
    <path class="cls-17" d="M27,288.43l2.3-1.2c2.3-1.2,6.9-3.5,13.8-4.1,6.9-.6,16.1.6,25.2,0,9.2-.6,18.4-2.9,25.3-3.5s11.5.6,18.4,1.8,16.1,2.3,22.9,2.3,11.5-1.2,16.1-2.3,9.2-2.3,13.8-3.1c4.6-.7,9.2-1,13.8,1.2s9.2,6.9,13.8,8.6,9.2.6,13.8-1.4c4.6-1.9,9.2-4.7,13.8-5.4s9.2.4,13.8.7c4.6.3,9.2-.3,16.1-.3s16.1.6,27.6.9,25.3.3,34.4-.3,13.8-1.8,18.4-2.9c4.6-1.2,9.2-2.3,13.8-3.2s9.2-1.5,16.1-1.8,16.1-.3,23-1.6c6.9-1.3,11.5-3.9,16.1-4.7,4.6-.7,9.2.4,13.8,1.6,4.6,1.2,9.2,2.3,13.8,1.9,4.6-.5,9.2-2.6,13.8-2.2,4.6.4,9.2,3.3,13.8,1.7,4.6-1.6,9.2-7.8,13.8-8.3s9.2,4.5,13.8,4.9,9.2-3.9,13.8-4.6,9.2,2.1,13.8,4.8c4.6,2.7,9.2,5.3,13.8,2.9,4.6-2.3,9.2-9.6,13.8-17.6s9.2-16.8,13.8-18,9.2,5.2,13.8,10.4c4.6,5.2,9.2,9.2,13.8,6.6s9.2-11.8,13.8-17.5,9.2-8,13.8-15.4,9.2-19.9,13.8-24.8,9.2-2.3,13.8-5,9.2-10.7,13.8-13.5,9.2-.5,13.8-2.6,9.2-8.9,13.8-17.9c4.6-9.1,9.2-20.4,13.8-10.8,4.6,9.6,9.2,40.3,13.8,41.8s9.2-26.1,13.8-46.2,9.2-32.5,13.8-35.2,9.2,4.3,13.8,8.2c4.6,3.9,9.2,4.7,13.8,7.2s9.2,6.6,13.8,8.7,9.2,2.4,13.8-1.1,9.2-10.7,13.8.5,9.2,40.7,11.5,55.5l2.3,14.8h0l-2.3-4.3c-2.3-4.3-6.9-12.8-11.5-15.9-4.6-3-9.2-.5-13.8-6.4s-9.2-20.1-13.8-25.7-9.2-2.8-13.8,4.1c-4.6,6.9-9.2,17.7-13.8,18.5s-9.2-8.6-13.8-10.6-9.2,3.5-13.8,15.4-9.2,30.2-13.8,31-9.2-15.8-13.8-20.8-9.2,1.8-13.8,6.2-9.2,6.4-13.8,6.3c-4.6-.2-9.2-2.5-13.8,1.5s-9.2,14.3-13.8,20.5-9.2,8.2-13.8,12-9.2,9.3-13.8,13.2c-4.6,3.9-9.2,6.2-13.8,9.6s-9.2,7.9-13.8,9.4-9.2-.2-13.8-4.3-9.2-10.4-13.8-9.2-9.2,10-13.8,16.8-9.2,11.7-13.8,11.7-9.2-4.9-13.8-5.3-9.2,3.8-13.8,4.5-9.2-2-13.8-4.7c-4.6-2.7-9.2-5.4-13.8-4.9-4.6.6-9.2,4.4-13.8,6-4.6,1.6-9.2,1-13.8,1.8s-9.2,2.9-13.8,3.3c-4.6.5-9.2-.7-13.8-1.9-4.6-1.2-9.2-2.3-13.8-1.6-4.6.7-9.2,3.4-16.1,4.7-6.9,1.3-16.1,1.3-23,.4s-11.5-2.6-16.1-2.9-9.2.9-13.8,2c-4.6,1.2-9.2,2.3-18.4,2.9s-23,.6-34.4.3c-11.5-.3-20.7-.9-27.6-.9s-11.5.6-16.1,2.6-9.2,5.5-13.8,6.3-9.2-1.2-13.8-1.6-9.2.8-13.8-1-9.2-6.4-13.8-7.4-9.2,1.6-13.8,2.3c-4.6.7-9.2-.4-13.8-.4s-9.2,1.2-16.1,1.2-16.1-1.2-22.9-2.3-11.5-2.3-18.4-1.8c-6.9.6-16.1,2.9-25.3,3.5s-18.4-.6-25.2,0c-6.9.6-11.5,2.9-13.8,4.1l-2.3,1.2v.1Z"/>
    <path class="cls-22" d="M27,288.43l2.3,1.2c2.3,1.2,6.9,3.5,13.8,4.1,6.9.6,16.1-.6,25.2-1.2,9.2-.6,18.4-.6,25.3-1.2s11.5-1.8,18.4-2.9,16.1-2.3,22.9-2.3,11.5,1.2,16.1,1.2,9.2-1.2,13.8-.7c4.6.4,9.2,2.5,13.8,3.5s9.2,1,13.8,1.6,9.2,1.8,13.8,2.1c4.6.4,9.2,0,13.8-1.9s9.2-5.4,13.8-6.3,9.2.9,16.1.9,16.1-1.8,27.6-2.6c11.5-.9,25.3-.9,34.4-1.5s13.8-1.8,18.4-1.8,9.2,1.2,13.8,1.5c4.6.3,9.2-.3,16.1-.6s16.1-.3,23,1.9c6.9,2.2,11.5,6.6,16.1,8.2s9.2.4,13.8-.7c4.6-1.2,9.2-2.3,13.8-4,4.6-1.6,9.2-3.7,13.8-4.5s9.2-.2,13.8,1.7c4.6,1.9,9.2,5,13.8,5.7s9.2-1.3,13.8-3.3c4.6-1.9,9.2-3.9,13.8-3.4s9.2,3.3,13.8,3.6,9.2-1.7,13.8-1.7,9.2,2.1,13.8,1.1,9.2-5.1,13.8-7.5,9.2-3,13.8-3.6,9.2-1.3,13.8-1.6c4.6-.3,9.2-.1,13.8,0s9.2.1,13.8-1.4c4.6-1.6,9.2-4.7,13.8-5s9.2,2.4,13.8,5.5,9.2,6.8,13.8-.7,9.2-26.1,13.8-29.5c4.6-3.3,9.2,8.6,13.8,12.4s9.2-.6,13.8-3.8c4.6-3.2,9.2-5.2,13.8-6.1s9.2-.5,13.8,2.8,9.2,9.5,13.8,15,9.2,10.1,13.8,8.2,9.2-10.4,13.8-12.6,9.2,1.9,13.8-1.8c4.6-3.7,9.2-15.1,13.8-19.8s9.2-2.5,13.8-5.3,9.2-10.6,11.5-14.5l2.3-3.9h0l-2.3,6.2c-2.3,6.2-6.9,18.7-11.5,22.6-4.6,4-9.2-.5-13.8,3-4.6,3.5-9.2,14.9-13.8,18.6-4.6,3.7-9.2-.4-13.8.6s-9.2,7.2-13.8,8c-4.6.7-9.2-3.9-13.8-8.2s-9.2-8.2-13.8-8-9.2,4.5-13.8,5.3-9.2-1.8-13.8-2.1c-4.6-.3-9.2,1.8-13.8-2s-9.2-13.4-13.8-10.1-9.2,19.7-13.8,26-9.2,2.7-13.8.7-9.2-2.3-13.8-2-9.2,1.1-13.8,1.5-9.2.3-13.8,1.4-9.2,3.3-13.8,3.5-9.2-1.4-13.8-1.9-9.2.1-13.8,2.5-9.2,6.5-13.8,7.5-9.2-1.1-13.8-1.1-9.2,2.1-13.8,1.7-9.2-3.2-13.8-2.5-9.2,5-13.8,6.9c-4.6,1.9-9.2,1.6-13.8-.2s-9.2-4.9-13.8-6.8c-4.6-1.9-9.2-2.5-13.8-1.7s-9.2,2.9-13.8,4.5c-4.6,1.6-9.2,2.8-13.8,4-4.6,1.2-9.2,2.3-13.8.7s-9.2-6-16.1-8.2-16.1-2.2-23-1.9-11.5.9-16.1.6-9.2-1.5-13.8-1.5-9.2,1.2-18.4,1.8-23,.6-34.4,1.5c-11.5.9-20.7,2.6-27.6,2.6s-11.5-1.8-16.1-.9-9.2,4.4-13.8,6.3-9.2,2.3-13.8,1.9-9.2-1.6-13.8-2.1c-4.6-.6-9.2-.6-13.8-1.6s-9.2-3.1-13.8-3.5-9.2.7-13.8.7-9.2-1.2-16.1-1.2-16.1,1.2-22.9,2.3-11.5,2.3-18.4,2.9-16.1.6-25.3,1.2-18.4,1.8-25.2,1.2c-6.9-.6-11.5-2.9-13.8-4.1l-2.3-1.2v.1Z"/>
    <path class="cls-24" d="M27,288.43l2.3,1.2c2.3,1.2,6.9,3.5,13.8,4.1,6.9.6,16.1-.6,25.2-1.2,9.2-.6,18.4-.6,25.3-1.2s11.5-1.8,18.4-2.9,16.1-2.3,22.9-2.3,11.5,1.2,16.1,1.2,9.2-1.2,13.8-.7c4.6.4,9.2,2.5,13.8,3.5s9.2,1,13.8,1.6,9.2,1.8,13.8,2.1c4.6.4,9.2,0,13.8-1.9s9.2-5.4,13.8-6.3,9.2.9,16.1.9,16.1-1.8,27.6-2.6c11.5-.9,25.3-.9,34.4-1.5s13.8-1.8,18.4-1.8,9.2,1.2,13.8,1.5c4.6.3,9.2-.3,16.1-.6s16.1-.3,23,1.9c6.9,2.2,11.5,6.6,16.1,8.2s9.2.4,13.8-.7c4.6-1.2,9.2-2.3,13.8-4,4.6-1.6,9.2-3.7,13.8-4.5s9.2-.2,13.8,1.7c4.6,1.9,9.2,5,13.8,6.8s9.2,2.2,13.8.2c4.6-1.9,9.2-6.2,13.8-6.9,4.6-.7,9.2,2.1,13.8,2.5s9.2-1.7,13.8-1.7,9.2,2.1,13.8,1.1,9.2-5.1,13.8-7.5,9.2-3,13.8-2.5,9.2,2.2,13.8,1.9,9.2-2.5,13.8-3.5c4.6-1.1,9.2-1,13.8-1.4s9.2-1.2,13.8-1.5,9.2,0,13.8,2,9.2,5.6,13.8-.7c4.6-6.3,9.2-22.6,13.8-26s9.2,6.3,13.8,10.1c4.6,3.8,9.2,1.7,13.8,2s9.2,2.9,13.8,2.1,9.2-5.1,13.8-5.3c4.6-.2,9.2,3.7,13.8,8s9.2,9,13.8,8.2c4.6-.7,9.2-6.9,13.8-8,4.6-1,9.2,3.1,13.8-.6s9.2-15.1,13.8-18.6,9.2,1,13.8-3,9.2-16.4,11.5-22.6l2.3-6.2h0l-2.3,6.2c-2.3,6.2-6.9,18.7-11.5,23.8-4.6,5.1-9.2,3-13.8,6.5-4.6,3.5-9.2,12.6-13.8,16.3-4.6,3.7-9.2,1.9-13.8,4.1s-9.2,8.4-13.8,9.1-9.2-3.9-13.8-9.4-9.2-11.7-13.8-10.3-9.2,10.3-13.8,11.2c-4.6.8-9.2-6.5-13.8-7.9s-9.2,2.9-13.8,1.5-9.2-8.7-13.8-6.6-9.2,13.8-13.8,17.8-9.2.3-13.8-1.6c-4.6-2-9.2-2.3-13.8-.8s-9.2,4.6-13.8,6.2-9.2,1.5-13.8,1.4-9.2-.2-13.8-1.1-9.2-2.6-13.8-3.1-9.2.1-13.8,2.5-9.2,6.5-13.8,8.7-9.2,2.4-13.8,2.4-9.2-.2-13.8-.6-9.2-.9-13.8-.1c-4.6.7-9.2,2.7-13.8,3.4s-9.2.4-13.8-1.4-9.2-4.9-13.8-6.8c-4.6-1.9-9.2-2.5-13.8-1.7s-9.2,2.9-13.8,4.5c-4.6,1.6-9.2,2.8-13.8,4-4.6,1.2-9.2,2.3-13.8.7s-9.2-6-16.1-8.2-16.1-2.2-23-1.9-11.5.9-16.1.6-9.2-1.5-13.8-1.5-9.2,1.2-18.4,1.8-23,.6-34.4,1.5c-11.5.9-20.7,2.6-27.6,2.6s-11.5-1.8-16.1-.9-9.2,4.4-13.8,6.3-9.2,2.3-13.8,1.9-9.2-1.6-13.8-2.1c-4.6-.6-9.2-.6-13.8-1.6s-9.2-3.1-13.8-3.5-9.2.7-13.8.7-9.2-1.2-16.1-1.2-16.1,1.2-22.9,2.3-11.5,2.3-18.4,2.9-16.1.6-25.3,1.2-18.4,1.8-25.2,1.2c-6.9-.6-11.5-2.9-13.8-4.1l-2.3-1.2v-.3Z"/>
    <path class="cls-4" d="M27,512.33h785"/>
    <line class="cls-4" x1="54.5" y1="512.33" x2="54.5" y2="518.33"/>
    <g class="cls-7">
      <text class="cls-6" transform="translate(43.4 529.43)"><tspan x="0" y="0">1970</tspan></text>
    </g>
    <line class="cls-4" x1="123.4" y1="512.33" x2="123.4" y2="518.33"/>
    <g class="cls-7">
      <text class="cls-6" transform="translate(112.2 529.43)"><tspan x="0" y="0">1975</tspan></text>
    </g>
    <line class="cls-4" x1="192.2" y1="512.33" x2="192.2" y2="518.33"/>
    <g class="cls-7">
      <text class="cls-6" transform="translate(181.1 529.43)"><tspan x="0" y="0">1980</tspan></text>
    </g>
    <line class="cls-4" x1="261.1" y1="512.33" x2="261.1" y2="518.33"/>
    <g class="cls-7">
      <text class="cls-6" transform="translate(250 529.43)"><tspan x="0" y="0">1985</tspan></text>
    </g>
    <line class="cls-4" x1="330" y1="512.33" x2="330" y2="518.33"/>
    <g class="cls-7">
      <text class="cls-6" transform="translate(318.8 529.43)"><tspan x="0" y="0">1990</tspan></text>
    </g>
    <line class="cls-4" x1="398.8" y1="512.33" x2="398.8" y2="518.33"/>
    <g class="cls-7">
      <text class="cls-6" transform="translate(387.7 529.43)"><tspan x="0" y="0">1995</tspan></text>
    </g>
    <line class="cls-4" x1="467.6" y1="512.33" x2="467.6" y2="518.33"/>
    <g class="cls-7">
      <text class="cls-6" transform="translate(456.5 529.43)"><tspan x="0" y="0">2000</tspan></text>
    </g>
    <line class="cls-4" x1="536.5" y1="512.33" x2="536.5" y2="518.33"/>
    <g class="cls-7">
      <text class="cls-6" transform="translate(525.4 529.43)"><tspan x="0" y="0">2005</tspan></text>
    </g>
    <line class="cls-4" x1="605.4" y1="512.33" x2="605.4" y2="518.33"/>
    <g class="cls-7">
      <text class="cls-6" transform="translate(594.3 529.43)"><tspan x="0" y="0">2010</tspan></text>
    </g>
    <line class="cls-4" x1="674.2" y1="512.33" x2="674.2" y2="518.33"/>
    <g class="cls-7">
      <text class="cls-6" transform="translate(663.1 529.43)"><tspan x="0" y="0">2015</tspan></text>
    </g>
    <line class="cls-4" x1="743.1" y1="512.33" x2="743.1" y2="518.33"/>
    <g class="cls-7">
      <text class="cls-6" transform="translate(732 529.43)"><tspan x="0" y="0">2020</tspan></text>
    </g>
    <line class="cls-4" x1="812" y1="512.33" x2="812" y2="518.33"/>
    <g class="cls-7">
      <text class="cls-6" transform="translate(800.8 529.43)"><tspan x="0" y="0">2025</tspan></text>
    </g>
    <path class="cls-2" d="M27,512.33V8.43"/>
    <g>
      <line class="cls-4" x1="26" y1="498.43" x2="20" y2="498.43"/>
      <g class="cls-7">
        <text class="cls-6" transform="translate(0 501.63)"><tspan x="0" y="0" xml:space="preserve"> 30</tspan></text>
      </g>
    </g>
    <g>
      <line class="cls-4" x1="26" y1="428.43" x2="20" y2="428.43"/>
      <g class="cls-7">
        <text class="cls-6" transform="translate(0 431.63)"><tspan x="0" y="0" xml:space="preserve"> 20</tspan></text>
      </g>
    </g>
    <g>
      <line class="cls-4" x1="26" y1="358.43" x2="20" y2="358.43"/>
      <g class="cls-7">
        <text class="cls-6" transform="translate(0 361.63)"><tspan x="0" y="0" xml:space="preserve"> 10</tspan></text>
      </g>
    </g>
    <g>
      <line class="cls-4" x1="27" y1="288.43" x2="21" y2="288.43"/>
      <g class="cls-7">
        <text class="cls-6" transform="translate(12.4 291.63)"><tspan x="0" y="0">0</tspan></text>
      </g>
    </g>
    <g>
      <line class="cls-4" x1="26" y1="218.43" x2="20" y2="218.43"/>
      <g class="cls-7">
        <text class="cls-6" transform="translate(5.8 221.63)"><tspan x="0" y="0">10</tspan></text>
      </g>
    </g>
    <g>
      <line class="cls-4" x1="26" y1="148.43" x2="20" y2="148.43"/>
      <g class="cls-7">
        <text class="cls-6" transform="translate(5.8 151.63)"><tspan x="0" y="0">20</tspan></text>
      </g>
    </g>
    <g>
      <line class="cls-4" x1="26" y1="78.43" x2="20" y2="78.43"/>
      <g class="cls-7">
        <text class="cls-6" transform="translate(5.8 81.63)"><tspan x="0" y="0">30</tspan></text>
      </g>
    </g>
    <g>
      <line class="cls-4" x1="26" y1="8.43" x2="20" y2="8.43"/>
      <g class="cls-7">
        <text class="cls-6" transform="translate(5.8 11.63)"><tspan x="0" y="0">40</tspan></text>
      </g>
    </g>
    <g class="cls-7">
      <text class="cls-6" transform="translate(623.3 338.16)"><tspan x="0" y="0">Regression-based Measures</tspan></text>
    </g>
    <g class="cls-7">
      <text class="cls-6" transform="translate(722.9 142.03)"><tspan x="0" y="0">Others</tspan></text>
    </g>
    <g class="cls-7">
      <text class="cls-6" transform="translate(583.44 63.83)"><tspan x="0" y="0">Rank-based Measures</tspan></text>
    </g>
    <g class="cls-7">
      <text class="cls-6" transform="translate(527.36 104.81)"><tspan x="0" y="0">Absolute Mobility Measures</tspan></text>
    </g>
    <g class="cls-7">
      <text class="cls-6" transform="translate(491 171.21)"><tspan x="0" y="0">Decomposition/ </tspan></text>
      <text class="cls-6" transform="translate(459.13 185.61)"><tspan x="0" y="0">Structural</tspan><tspan class="cls-25" x="55.21" y="0"> </tspan><tspan x="57.93" y="0">Approaches</tspan></text>
    </g>
    <g class="cls-7">
      <text class="cls-6" transform="translate(316.57 239.08)"><tspan class="cls-26" x="0" y="0">T</tspan><tspan x="8.06" y="0">ransition Matrix/ </tspan></text>
      <text class="cls-6" transform="translate(303.25 253.48)"><tspan x="0" y="0">Probability Measures</tspan></text>
    </g>
    <g class="cls-7">
      <text class="cls-6" transform="translate(324.9 328.73)"><tspan x="0" y="0">Non-parametric</tspan><tspan class="cls-25" x="88.62" y="0"> </tspan><tspan x="91.35" y="0">Approaches</tspan></text>
    </g>
    <g class="cls-7">
      <text class="cls-6" transform="translate(437.46 215.11)"><tspan x="0" y="0">Multigenerational </tspan><tspan x="50.16" y="16.8">Measures</tspan></text>
    </g>
    <line class="cls-3" x1="726" y1="101.23" x2="695.7" y2="101.23"/>
    <line class="cls-3" x1="747.7" y1="60.93" x2="717.3" y2="60.93"/>
    <line class="cls-3" x1="478.3" y1="313.13" x2="492.9" y2="287.93"/>
    <line class="cls-3" x1="579.8" y1="275.83" x2="545.92" y2="211.53"/>
    <line class="cls-3" x1="638.8" y1="221.63" x2="591.7" y2="184.53"/>
    <circle class="cls-24" cx="478.89" cy="312.12" r="3.58"/>
    <circle class="cls-23" cx="545.92" cy="211.53" r="3.58"/>
    <circle class="cls-16" cx="590.87" cy="183.88" r="3.58"/>
    <circle class="cls-20" cx="695.7" cy="101.23" r="3.58"/>
    <circle class="cls-19" cx="714.43" cy="60.93" r="3.58"/>
    <line class="cls-3" x1="429" y1="249.93" x2="439.2" y2="280.13"/>
    <circle class="cls-18" cx="428.97" cy="249.85" r="3.58"/>
    <path class="cls-5" d="M71.2,191.16h261.29"/>
    <g class="cls-27">
      <g>
        <g>
          <path class="cls-14" d="M82.07,191.16v-55.16h33.6v55.16h-33.6Z"/>
          <path class="cls-14" d="M119.4,191.16v-25.46h33.6v25.46h-33.6Z"/>
          <path class="cls-14" d="M156.72,191.16v-45.13h33.6v45.13h-33.6Z"/>
          <path class="cls-14" d="M194.05,191.16h33.59-33.59Z"/>
          <path class="cls-14" d="M231.38,191.16v-4.64h33.6v4.64h-33.6Z"/>
          <path class="cls-14" d="M268.7,191.16v-7.43h33.6v7.43h-33.6Z"/>
          <path class="cls-14" d="M306.03,191.16v-13.97h33.6v13.97h-33.6Z"/>
        </g>
        <g>
          <path class="cls-8" d="M82.07,136h33.6-33.6Z"/>
          <path class="cls-8" d="M119.4,165.7v-76.37h33.6v76.37h-33.6Z"/>
          <path class="cls-8" d="M156.72,146.03v-30.09h33.6v30.09h-33.6Z"/>
          <path class="cls-8" d="M194.05,191.16v-35.98h33.59v35.98h-33.59Z"/>
          <path class="cls-8" d="M231.38,186.52v-15.46h33.6v15.46h-33.6Z"/>
          <path class="cls-8" d="M268.7,183.73v-20.73h33.6v20.73h-33.6Z"/>
          <path class="cls-8" d="M306.03,177.19v-23.1h33.6v23.1h-33.6Z"/>
        </g>
        <g>
          <path class="cls-12" d="M82.07,136h33.6-33.6Z"/>
          <path class="cls-12" d="M119.4,89.33h33.6-33.6Z"/>
          <path class="cls-12" d="M156.72,115.94h33.6-33.6Z"/>
          <path class="cls-12" d="M194.05,155.19h33.59-33.59Z"/>
          <path class="cls-12" d="M231.38,171.06v-3.09h33.6v3.09h-33.6Z"/>
          <path class="cls-12" d="M268.7,163v-2.74h33.6v2.74h-33.6Z"/>
          <path class="cls-12" d="M306.03,154.09v-2.69h33.6v2.69h-33.6Z"/>
        </g>
        <g>
          <path class="cls-15" d="M82.07,136h33.6-33.6Z"/>
          <path class="cls-15" d="M119.4,89.33h33.6-33.6Z"/>
          <path class="cls-15" d="M156.72,115.94h33.6-33.6Z"/>
          <path class="cls-15" d="M194.05,155.19h33.59-33.59Z"/>
          <path class="cls-15" d="M231.38,167.97v-4.64h33.6v4.64h-33.6Z"/>
          <path class="cls-15" d="M268.7,160.26v-2.74h33.6v2.74h-33.6Z"/>
          <path class="cls-15" d="M306.03,151.4v-1.61h33.6v1.61h-33.6Z"/>
        </g>
        <g>
          <path class="cls-9" d="M82.07,136h33.6-33.6Z"/>
          <path class="cls-9" d="M119.4,89.33v-12.73h33.6v12.73h-33.6Z"/>
          <path class="cls-9" d="M156.72,115.94v-30.09h33.6v30.09h-33.6Z"/>
          <path class="cls-9" d="M194.05,155.19v-43.17h33.59v43.17h-33.59Z"/>
          <path class="cls-9" d="M231.38,163.33v-23.2h33.6v23.2h-33.6Z"/>
          <path class="cls-9" d="M268.7,157.52v-17.6h33.6v17.6h-33.6Z"/>
          <path class="cls-9" d="M306.03,149.79v-16.12h33.6v16.12h-33.6Z"/>
        </g>
        <g>
          <path class="cls-13" d="M82.07,136h33.6-33.6Z"/>
          <path class="cls-13" d="M119.4,76.6v-12.73h33.6v12.73h-33.6Z"/>
          <path class="cls-13" d="M156.72,85.85h33.6-33.6Z"/>
          <path class="cls-13" d="M194.05,112.02h33.59-33.59Z"/>
          <path class="cls-13" d="M231.38,140.12v-1.54h33.6v1.54h-33.6Z"/>
          <path class="cls-13" d="M268.7,139.92v-5.09h33.6v5.09h-33.6Z"/>
          <path class="cls-13" d="M306.03,133.67v-19.35h33.6v19.35h-33.6Z"/>
        </g>
        <g>
          <path class="cls-11" d="M82.07,136h33.6-33.6Z"/>
          <path class="cls-11" d="M119.4,63.87v-25.46h33.6v25.46h-33.6Z"/>
          <path class="cls-11" d="M156.72,85.85V25.68h33.6v60.17h-33.6Z"/>
          <path class="cls-11" d="M194.05,112.02v-57.56h33.59v57.56h-33.59Z"/>
          <path class="cls-11" d="M231.38,138.58V45.78h33.6v92.8h-33.6Z"/>
          <path class="cls-11" d="M268.7,134.83V37.8h33.6v97.02h-33.6Z"/>
          <path class="cls-11" d="M306.03,114.33V37.5h33.6v76.83h-33.6Z"/>
        </g>
        <g>
          <path class="cls-10" d="M82.07,136V25.68h33.6v110.32h-33.6Z"/>
          <path class="cls-10" d="M119.4,38.41v-12.73h33.6v12.73h-33.6Z"/>
          <path class="cls-10" d="M156.72,25.68h33.6-33.6Z"/>
          <path class="cls-10" d="M194.05,54.46v-28.78h33.59v28.78h-33.59Z"/>
          <path class="cls-10" d="M231.38,45.78v-20.1h33.6v20.1h-33.6Z"/>
          <path class="cls-10" d="M268.7,37.8v-12.13h33.6v12.13h-33.6Z"/>
          <path class="cls-10" d="M306.03,37.5v-11.82h33.6v11.82h-33.6Z"/>
        </g>
      </g>
    </g>
    <g>
      <text class="cls-6" transform="translate(81.62 203.39)"><tspan x="0" y="0">1960s</tspan></text>
      <text class="cls-6" transform="translate(118.94 203.39)"><tspan x="0" y="0">1970s</tspan></text>
      <text class="cls-6" transform="translate(156.27 203.39)"><tspan x="0" y="0">1980s</tspan></text>
      <text class="cls-6" transform="translate(193.6 203.39)"><tspan x="0" y="0">1990s</tspan></text>
      <text class="cls-6" transform="translate(230.92 203.39)"><tspan x="0" y="0">2000s</tspan></text>
      <text class="cls-6" transform="translate(268.25 203.39)"><tspan x="0" y="0">2010s</tspan></text>
      <text class="cls-6" transform="translate(305.58 203.39)"><tspan x="0" y="0">2020s</tspan></text>
    </g>
    <g>
      <text class="cls-6" transform="translate(68.85 193.87)"><tspan x="0" y="0">0</tspan></text>
      <text class="cls-6" transform="translate(63.04 160.77)"><tspan x="0" y="0">0.2</tspan></text>
      <text class="cls-6" transform="translate(63.04 127.68)"><tspan x="0" y="0">0.4</tspan></text>
      <text class="cls-6" transform="translate(63.04 94.58)"><tspan x="0" y="0">0.6</tspan></text>
      <text class="cls-6" transform="translate(63.04 61.48)"><tspan x="0" y="0">0.8</tspan></text>
      <text class="cls-6" transform="translate(68.85 28.39)"><tspan x="0" y="0">1</tspan></text>
    </g>
    <text class="cls-6" transform="translate(193.85 217.53)"><tspan x="0" y="0">Period</tspan></text>
    <text class="cls-6" transform="translate(50.81 198.38) rotate(-90)"><tspan x="0" y="0">Percentage of Category Counts</tspan></text>
  </g>
</svg>