<?xml version="1.0" encoding="UTF-8"?>
<svg id="Layer_1" xmlns="http://www.w3.org/2000/svg" xmlns:xlink="http://www.w3.org/1999/xlink" version="1.1" viewBox="0 0 1005 600">
  <!-- Generator: Adobe Illustrator 29.1.0, SVG Export Plug-In . SVG Version: 2.1.0 Build 142)  -->
  <defs>
    <style>
      .st0, .st1, .st2, .st3 {
        fill: none;
      }

      .st4 {
        stroke: #fff;
        stroke-width: 1px;
      }

      .st5 {
        font-family: TimesNewRomanPSMT, 'Times New Roman';
        font-size: 14px;
      }

      .st5, .st6 {
        isolation: isolate;
      }

      .st7, .st8, .st9, .st10, .st11, .st12, .st13, .st14 {
        stroke: #e5ecf6;
        stroke-width: .2px;
      }

      .st7, .st15 {
        fill: #399;
      }

      .st16 {
        fill: #159d77;
      }

      .st8, .st17 {
        fill: #f4e1a1;
      }

      .st9, .st18 {
        fill: #cb7729;
      }

      .st19 {
        fill: #a4772b;
      }

      .st20, .st12 {
        fill: #f4a988;
      }

      .st21, .st13 {
        fill: #c04e3f;
      }

      .st22, .st10 {
        fill: #b5dba5;
      }

      .st1 {
        stroke-width: .9px;
      }

      .st1, .st3 {
        stroke: #000;
      }

      .st23 {
        fill: #7670b1;
      }

      .st24 {
        fill: #daa520;
      }

      .st11, .st25 {
        fill: #ffc3c2;
      }

      .st2 {
        stroke: #675e5d;
        stroke-linecap: square;
        stroke-miterlimit: 10;
      }

      .st26 {
        fill: #677532;
      }

      .st27 {
        fill: #f7a7a1;
      }

      .st28, .st14 {
        fill: #005f56;
      }

      .st29 {
        fill: #d76227;
      }

      .st30 {
        fill: #666767;
      }

      .st31 {
        fill: #e52b8a;
      }

      .st32 {
        fill: #e4ac24;
      }

      .st33 {
        clip-path: url(#clippath);
      }
    </style>
    <clipPath id="clippath">
      <rect class="st0" x="106.6" y="25.9" width="261.3" height="174.2"/>
    </clipPath>
  </defs>
  <rect class="st16" x="723.4" y="-284.1" width="48.5" height="48.5"/>
  <rect class="st29" x="780.8" y="-284.1" width="48.5" height="48.5"/>
  <rect class="st23" x="838.3" y="-284.1" width="48.5" height="48.5"/>
  <rect class="st31" x="895.7" y="-284.1" width="48.5" height="48.5"/>
  <rect class="st26" x="961.4" y="-284.1" width="48.5" height="48.5"/>
  <rect class="st32" x="1021.7" y="-284.1" width="48.5" height="48.5"/>
  <rect class="st19" x="1082.1" y="-284.1" width="48.5" height="48.5"/>
  <rect class="st30" x="1142.5" y="-284.1" width="48.5" height="48.5"/>
  <rect class="st17" x="710.4" y="-130.7" width="48.5" height="48.5"/>
  <rect class="st20" x="767.8" y="-130.7" width="48.5" height="48.5"/>
  <rect class="st15" x="825.2" y="-130.7" width="48.5" height="48.5"/>
  <rect class="st22" x="882.6" y="-130.7" width="48.5" height="48.5"/>
  <rect class="st27" x="948.3" y="-130.7" width="48.5" height="48.5"/>
  <rect class="st17" x="710.4" y="-130.7" width="48.5" height="48.5"/>
  <rect class="st20" x="767.8" y="-130.7" width="48.5" height="48.5"/>
  <rect class="st15" x="825.2" y="-130.7" width="48.5" height="48.5"/>
  <rect class="st22" x="882.6" y="-130.7" width="48.5" height="48.5"/>
  <rect class="st25" x="948.3" y="-130.7" width="48.5" height="48.5"/>
  <rect class="st28" x="652.9" y="-130.7" width="48.5" height="48.5"/>
  <rect class="st24" x="1008.7" y="-130.7" width="48.5" height="48.5"/>
  <rect class="st18" x="1069" y="-130.8" width="48.5" height="48.5"/>
  <rect class="st21" x="1129.4" y="-130.7" width="48.5" height="48.5"/>
  <rect class="st28" x="652.9" y="-130.7" width="48.5" height="48.5"/>
  <rect class="st24" x="1008.7" y="-130.7" width="48.5" height="48.5"/>
  <rect class="st18" x="1069" y="-130.8" width="48.5" height="48.5"/>
  <rect class="st21" x="1129.4" y="-130.7" width="48.5" height="48.5"/>
  <path class="st18" d="M53.4,297.4l2.3-1.2c2.3-1.2,6.9-3.5,13.8-4.1,6.9-.6,16.1.6,25.2,2.3,9.2,1.8,18.4,4.1,25.3,4.7s11.5-.6,18.4-1.8,16.1-2.3,22.9-2.3,11.5,1.2,16.1,1.2,9.2-1.2,13.8-.7c4.6.4,9.2,2.5,13.8,3.5s9.2,1,13.8,1.6,9.2,1.8,13.8,2.1c4.6.4,9.2,0,13.8-1.9s9.2-5.4,13.8-6.3,9.2.9,16.1.9,16.1-1.8,27.6-2.6c11.5-.9,25.3-.9,34.4-1.5s13.8-1.8,18.4-1.8,9.2,1.2,13.8,1.5c4.6.3,9.2-.3,16.1-.6s16.1-.3,23,.7,11.5,3.1,16.1,3.5,9.2-.7,13.8-1.9c4.6-1.2,9.2-2.3,13.8-4,4.6-1.6,9.2-3.7,13.8-3.3,4.6.4,9.2,3.3,13.8,4,4.6.7,9.2-.8,13.8-1.3,4.6-.6,9.2-.2,13.8.2,4.6.4,9.2.8,13.8,1.2,4.6.4,9.2.9,13.8,1.3s9.2.6,13.8-.6,9.2-3.7,13.8-8.2,9.2-11,13.8-12.2,9.2,2.8,13.8,4.5,9.2,1,13.8-.4,9.2-3.6,13.8-3.5c4.6,0,9.2,2.5,13.8-.2s9.2-10.6,13.8-12,9.2,3.5,13.8,3.2c4.6-.4,9.2-6,13.8-13.5s9.2-16.8,13.8-14.3,9.2,16.8,13.8,18.2,9.2-9.9,13.8-12,9.2,5.3,13.8,4.4,9.2-9.8,13.8-15.8,9.2-9.2,13.8-2.5,9.2,23,13.8,24.6,9.2-11.6,13.8-18.5,9.2-7.4,13.8-8.8c4.6-1.3,9.2-3.5,13.8-3.4,4.6,0,9.2,2.2,13.8,1.7s9.2-3.6,11.5-5.1l2.3-1.6v7l-2.3,3.9c-2.3,3.9-6.9,11.7-11.5,14.5s-9.2.7-13.8,5.3-9.2,16.1-13.8,19.8c-4.6,3.7-9.2-.4-13.8,1.8s-9.2,10.7-13.8,12.6-9.2-2.8-13.8-8.2c-4.6-5.5-9.2-11.7-13.8-15-4.6-3.3-9.2-3.7-13.8-2.8s-9.2,2.9-13.8,6.1c-4.6,3.2-9.2,7.6-13.8,3.8-4.6-3.8-9.2-15.7-13.8-12.4s-9.2,22-13.8,29.5-9.2,3.8-13.8.7c-4.6-3.1-9.2-5.8-13.8-5.5s-9.2,3.4-13.8,5-9.2,1.5-13.8,1.4-9.2-.2-13.8,0c-4.6.3-9.2.9-13.8,1.6s-9.2,1.3-13.8,3.6-9.2,6.5-13.8,7.5-9.2-1.1-13.8-1.1-9.2,2.1-13.8,1.7-9.2-3.2-13.8-3.6-9.2,1.5-13.8,3.4c-4.6,1.9-9.2,3.9-13.8,3.3s-9.2-3.8-13.8-5.7c-4.6-1.9-9.2-2.5-13.8-1.7s-9.2,2.9-13.8,4.5c-4.6,1.6-9.2,2.8-13.8,4-4.6,1.2-9.2,2.3-13.8.7s-9.2-6-16.1-8.2-16.1-2.2-23-1.9-11.5.9-16.1.6-9.2-1.5-13.8-1.5-9.2,1.2-18.4,1.8-23,.6-34.4,1.5c-11.5.9-20.7,2.6-27.6,2.6s-11.5-1.8-16.1-.9-9.2,4.4-13.8,6.3-9.2,2.3-13.8,1.9-9.2-1.6-13.8-2.1c-4.6-.6-9.2-.6-13.8-1.6s-9.2-3.1-13.8-3.5-9.2.7-13.8.7-9.2-1.2-16.1-1.2-16.1,1.2-22.9,2.3-11.5,2.3-18.4,2.9-16.1.6-25.3,1.2-18.4,1.8-25.2,1.2c-6.9-.6-11.5-2.9-13.8-4.1l-2.3-1.2h0Z"/>
  <path class="st22" d="M53.4,297.4l2.3,1.2c2.3,1.2,6.9,3.5,13.8,4.1,6.9.6,16.1-.6,25.2-1.2,9.2-.6,18.4-.6,25.3-1.2s11.5-1.8,18.4-2.9,16.1-2.3,22.9-2.3,11.5,1.2,16.1,1.2,9.2-1.2,13.8-.7c4.6.4,9.2,2.5,13.8,3.5s9.2,1,13.8,1.6,9.2,1.8,13.8,2.1c4.6.4,9.2,0,13.8-1.9s9.2-5.4,13.8-6.3,9.2.9,16.1.9,16.1-1.8,27.6-2.6c11.5-.9,25.3-.9,34.4-1.5s13.8-1.8,18.4-1.8,9.2,1.2,13.8,1.5c4.6.3,9.2-.3,16.1-.6s16.1-.3,23,1.9c6.9,2.2,11.5,6.6,16.1,8.2s9.2.4,13.8-.7c4.6-1.2,9.2-2.3,13.8-4,4.6-1.6,9.2-3.7,13.8-4.5s9.2-.2,13.8,1.7c4.6,1.9,9.2,5,13.8,6.8s9.2,2.2,13.8,1.4,9.2-2.7,13.8-3.4c4.6-.7,9.2-.2,13.8.1s9.2.6,13.8.6,9.2-.2,13.8-2.4c4.6-2.2,9.2-6.3,13.8-8.7s9.2-3,13.8-2.5,9.2,2.2,13.8,3.1,9.2,1,13.8,1.1,9.2.1,13.8-1.4c4.6-1.6,9.2-4.7,13.8-6.2s9.2-1.1,13.8.8c4.6,2,9.2,5.6,13.8,1.6s9.2-15.6,13.8-17.8,9.2,5.1,13.8,6.6c4.6,1.4,9.2-2.9,13.8-1.5s9.2,8.8,13.8,7.9c4.6-.8,9.2-9.8,13.8-11.2s9.2,4.8,13.8,10.3,9.2,10.1,13.8,9.4,9.2-6.9,13.8-9.1,9.2-.4,13.8-4.1,9.2-12.8,13.8-16.3,9.2-1.3,13.8-6.5c4.6-5.1,9.2-17.6,11.5-23.8l2.3-6.2v21l-2.3,40.1c-2.3,40.1-6.9,120.2-11.5,159.1-4.6,39-9.2,36.8-13.8,36.8s-9.2,2.1-13.8,2.3c-4.6.2-9.2-1.6-13.8-12.2s-9.2-30.1-13.8-23.5-9.2,39.2-13.8,54.8c-4.6,15.5-9.2,14-13.8-3.3s-9.2-50.3-13.8-53-9.2,25-13.8,30.6-9.2-11.1-13.8-13.7-9.2,8.8-13.8,6.3-9.2-18.8-13.8-30-9.2-17.2-13.8-19.1c-4.6-2-9.2,0-13.8-6.7s-9.2-22.2-13.8-31.2-9.2-11.3-13.8-14.9-9.2-8.4-13.8-9.3-9.2,2.1-13.8,5.1-9.2,5.9-13.8,1.3-9.2-16.9-13.8-26.3c-4.6-9.5-9.2-16.3-13.8-17.4-4.6-1.2-9.2,3.3-13.8,5.2s-9.2,1.5-13.8-2.5c-4.6-3.9-9.2-11.3-13.8-12.9-4.6-1.6-9.2,2.7-13.8,2.1s-9.2-6.1-13.8-6.8c-4.6-.7-9.2,3.4-13.8,3-4.6-.4-9.2-5.3-13.8-7.2-4.6-1.9-9.2-.7-13.8.5-4.6,1.2-9.2,2.3-13.8.7s-9.2-6-16.1-7-16.1,1.3-23,2.8-11.5,2-16.1,2.9-9.2,2-13.8,2-9.2-1.2-18.4-1.8c-9.2-.6-23-.6-34.4-.9-11.5-.3-20.7-.9-27.6-2-6.9-1.2-11.5-2.9-16.1-.9s-9.2,7.9-13.8,9.8-9.2,0-13.8-.4-9.2.8-13.8,1.4-9.2.6-13.8-.4-9.2-3.1-13.8-4.7-9.2-2.8-13.8-3.9-9.2-2.3-16.1-2.3-16.1,1.2-22.9,2.3-11.5,2.3-18.4,2.9-16.1.6-25.3,1.2-18.4,1.8-25.2,1.2c-6.9-.6-11.5-2.9-13.8-4.1l-2.3-1.2h0Z"/>
  <path class="st20" d="M53.4,290.4h2.3c2.3,0,6.9,0,13.8.6,6.9.6,16.1,1.8,25.2,1.2,9.2-.6,18.4-2.9,25.3-3.5s11.5.6,18.4.6,16.1-1.2,22.9-2.3c6.9-1.2,11.5-2.3,16.1-2.3s9.2,1.2,13.8.4c4.6-.7,9.2-3.4,13.8-1.2,4.6,2.2,9.2,9.2,13.8,12.1s9.2,1.8,13.8-.2c4.6-1.9,9.2-4.7,13.8-6.6s9.2-3.1,13.8-4,9.2-1.5,16.1-1.5,16.1.6,27.6,2c11.5,1.5,25.3,3.8,34.4,4.4,9.2.6,13.8-.6,18.4-1.8,4.6-1.2,9.2-2.3,13.8-3.2s9.2-1.5,16.1-1.8,16.1-.3,23-1.6c6.9-1.3,11.5-3.9,16.1-4.7,4.6-.7,9.2.4,13.8,1.6,4.6,1.2,9.2,2.3,13.8,1.9,4.6-.5,9.2-2.6,13.8-2.2,4.6.4,9.2,3.3,13.8,1.7,4.6-1.6,9.2-7.8,13.8-8.3s9.2,4.5,13.8,3.7,9.2-7.4,13.8-8.1,9.2,4.4,13.8,7.1,9.2,2.9,13.8.6,9.2-7.2,13.8-14.1c4.6-6.8,9.2-15.6,13.8-16.8s9.2,5.2,13.8,8c4.6,2.9,9.2,2.2,13.8-.4,4.6-2.6,9.2-7.1,13.8-12.9s9.2-12.7,13.8-23.6,9.2-25.7,13.8-30.7,9.2,0,13.8-.3c4.6-.4,9.2-6,13.8-11.2s9.2-9.8,13.8-12,9.2-1.9,13.8-9.8c4.6-7.9,9.2-23.9,13.8-17.8,4.6,6.1,9.2,34.4,13.8,31.3s9.2-37.8,13.8-59,9.2-29,13.8-35.2,9.2-10.9,13.8-13.9,9.2-4.6,13.8-9.1,9.2-12.1,13.8-12.3,9.2,7,13.8,12.9c4.6,5.9,9.2,10.3,13.8,32,4.6,21.7,9.2,60.6,11.5,80l2.3,19.4v21l-2.3-17.1c-2.3-17.1-6.9-51.3-11.5-63.7-4.6-12.4-9.2-2.8-13.8-6.4s-9.2-20.1-13.8-25.7c-4.6-5.7-9.2-.4-13.8.6s-9.2-2.1-13.8-2.5-9.2,1.9-13.8,6.9-9.2,12.8-13.8,30.5-9.2,45.3-13.8,46.2-9.2-25.1-13.8-31.3-9.2,7.6-13.8,16.7c-4.6,9.1-9.2,13.4-13.8,15.6s-9.2,2.2-13.8,5-9.2,8.5-13.8,12.4-9.2,5.9-13.8,12-9.2,16.3-13.8,23.7-9.2,12-13.8,17.7-9.2,12.6-13.8,15.2-9.2.9-13.8-3.1-9.2-10.4-13.8-9.2-9.2,10-13.8,16.8c-4.6,6.8-9.2,11.7-13.8,14.1-4.6,2.3-9.2,2.1-13.8-.6s-9.2-7.9-13.8-7.1c-4.6.7-9.2,7.3-13.8,8.1s-9.2-4.3-13.8-3.7-9.2,6.7-13.8,8.3c-4.6,1.6-9.2-1.3-13.8-1.7-4.6-.4-9.2,1.7-13.8,2.2-4.6.5-9.2-.7-13.8-1.9-4.6-1.2-9.2-2.3-13.8-1.6-4.6.7-9.2,3.4-16.1,4.7-6.9,1.3-16.1,1.3-23,1.6s-11.5.9-16.1,1.8-9.2,2-13.8,3.2c-4.6,1.2-9.2,2.3-18.4,1.8-9.2-.6-23-2.9-34.4-4.4-11.5-1.5-20.7-2-27.6-2s-11.5.6-16.1,1.5-9.2,2-13.8,4c-4.6,1.9-9.2,4.7-13.8,6.6s-9.2,3.1-13.8.2-9.2-9.9-13.8-12.1-9.2.4-13.8,2.3-9.2,3.1-13.8,3.1-9.2-1.2-16.1-1.2-16.1,1.2-22.9,1.2-11.5-1.2-18.4-.6-16.1,2.9-25.3,3.5-18.4-.6-25.2-1.2c-6.9-.6-11.5-.6-13.8-.6h-2.3Z"/>
  <path class="st21" d="M53.4,290.4h2.3c2.3,0,6.9,0,13.8.6,6.9.6,16.1,1.8,25.2,1.2,9.2-.6,18.4-2.9,25.3-3.5s11.5.6,18.4.6,16.1-1.2,22.9-1.2,11.5,1.2,16.1,1.2,9.2-1.2,13.8-3.1,9.2-4.5,13.8-2.3,9.2,9.2,13.8,12.1,9.2,1.8,13.8-.2c4.6-1.9,9.2-4.7,13.8-6.6s9.2-3.1,13.8-4,9.2-1.5,16.1-1.5,16.1.6,27.6,2c11.5,1.5,25.3,3.8,34.4,4.4,9.2.6,13.8-.6,18.4-1.8,4.6-1.2,9.2-2.3,13.8-3.2s9.2-1.5,16.1-1.8,16.1-.3,23-1.6c6.9-1.3,11.5-3.9,16.1-4.7,4.6-.7,9.2.4,13.8,1.6,4.6,1.2,9.2,2.3,13.8,1.9,4.6-.5,9.2-2.6,13.8-2.2,4.6.4,9.2,3.3,13.8,1.7,4.6-1.6,9.2-7.8,13.8-8.3s9.2,4.5,13.8,3.7,9.2-7.4,13.8-8.1,9.2,4.4,13.8,7.1,9.2,2.9,13.8.6,9.2-7.2,13.8-14.1c4.6-6.8,9.2-15.6,13.8-16.8s9.2,5.2,13.8,9.2,9.2,5.7,13.8,3.1,9.2-9.5,13.8-15.2,9.2-10.4,13.8-17.7c4.6-7.4,9.2-17.6,13.8-23.7,4.6-6.1,9.2-8.1,13.8-12s9.2-9.5,13.8-12.4c4.6-2.8,9.2-2.8,13.8-5s9.2-6.6,13.8-15.6c4.6-9.1,9.2-22.8,13.8-16.7s9.2,32.1,13.8,31.3,9.2-28.5,13.8-46.2,9.2-25.5,13.8-30.5,9.2-7.4,13.8-6.9c4.6.4,9.2,3.6,13.8,2.5,4.6-1,9.2-6.3,13.8-.6,4.6,5.7,9.2,22.2,13.8,25.7s9.2-6,13.8,6.4,9.2,46.6,11.5,63.7l2.3,17.1v7l-2.3-14.8c-2.3-14.8-6.9-44.3-11.5-55.5s-9.2-4-13.8-.5-9.2,3.3-13.8,1.1-9.2-6.3-13.8-8.7-9.2-3.3-13.8-7.2c-4.6-3.9-9.2-10.9-13.8-8.2s-9.2,15.2-13.8,35.2-9.2,47.7-13.8,46.2-9.2-32.1-13.8-41.8c-4.6-9.6-9.2,1.8-13.8,10.8-4.6,9.1-9.2,15.8-13.8,17.9s-9.2-.2-13.8,2.6-9.2,10.8-13.8,13.5-9.2,0-13.8,5-9.2,17.4-13.8,24.8-9.2,9.7-13.8,15.4-9.2,14.9-13.8,17.5-9.2-1.4-13.8-6.6-9.2-11.6-13.8-10.4-9.2,10-13.8,18-9.2,15.2-13.8,17.6c-4.6,2.3-9.2-.2-13.8-2.9-4.6-2.7-9.2-5.5-13.8-4.8s-9.2,5-13.8,4.6-9.2-5.4-13.8-4.9-9.2,6.7-13.8,8.3c-4.6,1.6-9.2-1.3-13.8-1.7-4.6-.4-9.2,1.7-13.8,2.2-4.6.5-9.2-.7-13.8-1.9-4.6-1.2-9.2-2.3-13.8-1.6-4.6.7-9.2,3.4-16.1,4.7-6.9,1.3-16.1,1.3-23,1.6s-11.5.9-16.1,1.8-9.2,2-13.8,3.2c-4.6,1.2-9.2,2.3-18.4,2.9s-23,.6-34.4.3c-11.5-.3-20.7-.9-27.6-.9s-11.5.6-16.1.3c-4.6-.3-9.2-1.5-13.8-.7s-9.2,3.5-13.8,5.4-9.2,3.1-13.8,1.4-9.2-6.4-13.8-8.6-9.2-1.9-13.8-1.2c-4.6.7-9.2,1.9-13.8,3.1s-9.2,2.3-16.1,2.3-16.1-1.2-22.9-2.3-11.5-2.3-18.4-1.8c-6.9.6-16.1,2.9-25.3,3.5s-18.4-.6-25.2,0c-6.9.6-11.5,2.9-13.8,4.1l-2.3,1.2v-7,.3Z"/>
  <path class="st15" d="M53.4,297.4l2.3-1.2c2.3-1.2,6.9-3.5,13.8-4.1,6.9-.6,16.1.6,25.2,0,9.2-.6,18.4-2.9,25.3-3.5s11.5.6,18.4,1.8,16.1,2.3,22.9,2.3,11.5-1.2,16.1-1.2,9.2,1.2,13.8.4c4.6-.7,9.2-3.4,13.8-2.3,4.6,1,9.2,5.7,13.8,7.4s9.2.6,13.8,1,9.2,2.3,13.8,1.6,9.2-4.3,13.8-6.3,9.2-2.6,16.1-2.6,16.1.6,27.6.9,25.3.3,34.4-.3,13.8-1.8,18.4-2.9c4.6-1.2,9.2-2.3,13.8-2,4.6.3,9.2,2,16.1,2.9s16.1.9,23-.4,11.5-3.9,16.1-4.7c4.6-.7,9.2.4,13.8,1.6,4.6,1.2,9.2,2.3,13.8,1.9,4.6-.5,9.2-2.6,13.8-3.3s9.2-.2,13.8-1.8c4.6-1.6,9.2-5.5,13.8-6,4.6-.6,9.2,2.2,13.8,4.9,4.6,2.7,9.2,5.4,13.8,4.7,4.6-.7,9.2-4.9,13.8-4.5s9.2,5.3,13.8,5.3,9.2-4.9,13.8-11.7c4.6-6.8,9.2-15.6,13.8-16.8s9.2,5.2,13.8,9.2,9.2,5.7,13.8,4.3,9.2-6,13.8-9.4,9.2-5.7,13.8-9.6,9.2-9.4,13.8-13.2,9.2-5.8,13.8-12,9.2-16.5,13.8-20.5,9.2-1.6,13.8-1.5c4.6.2,9.2-1.9,13.8-6.3,4.6-4.4,9.2-11.1,13.8-6.2s9.2,21.6,13.8,20.8,9.2-19.1,13.8-31,9.2-17.3,13.8-15.4,9.2,11.3,13.8,10.6,9.2-11.6,13.8-18.5,9.2-9.8,13.8-4.1,9.2,19.9,13.8,25.7,9.2,3.3,13.8,6.4c4.6,3,9.2,11.6,11.5,15.9l2.3,4.3v7l-2.3,1.6c-2.3,1.6-6.9,4.7-11.5,5.1-4.6.5-9.2-1.7-13.8-1.7s-9.2,2.1-13.8,3.4c-4.6,1.3-9.2,1.9-13.8,8.8s-9.2,20-13.8,18.5c-4.6-1.6-9.2-17.9-13.8-24.6s-9.2-3.5-13.8,2.5-9.2,15-13.8,15.8-9.2-6.5-13.8-4.4-9.2,13.4-13.8,12-9.2-15.7-13.8-18.2-9.2,6.8-13.8,14.3-9.2,13.2-13.8,13.5c-4.6.4-9.2-4.6-13.8-3.2s-9.2,9.3-13.8,12-9.2.3-13.8.2c-4.6,0-9.2,2.1-13.8,3.5s-9.2,2.1-13.8.4-9.2-5.7-13.8-4.5-9.2,7.6-13.8,12.2c-4.6,4.5-9.2,7.1-13.8,8.2-4.6,1.2-9.2.9-13.8.6s-9.2-.9-13.8-1.3-9.2-.8-13.8-1.2c-4.6-.4-9.2-.8-13.8-.2-4.6.6-9.2,2.1-13.8,1.3-4.6-.7-9.2-3.6-13.8-4-4.6-.4-9.2,1.7-13.8,3.3-4.6,1.6-9.2,2.8-13.8,4-4.6,1.2-9.2,2.3-13.8,1.9s-9.2-2.5-16.1-3.5-16.1-1-23-.7-11.5.9-16.1.6-9.2-1.5-13.8-1.5-9.2,1.2-18.4,1.8-23,.6-34.4,1.5c-11.5.9-20.7,2.6-27.6,2.6s-11.5-1.8-16.1-.9-9.2,4.4-13.8,6.3-9.2,2.3-13.8,1.9-9.2-1.6-13.8-2.1c-4.6-.6-9.2-.6-13.8-1.6s-9.2-3.1-13.8-3.5-9.2.7-13.8.7-9.2-1.2-16.1-1.2-16.1,1.2-22.9,2.3-11.5,2.3-18.4,1.8c-6.9-.6-16.1-2.9-25.3-4.7-9.2-1.8-18.4-2.9-25.2-2.3-6.9.6-11.5,2.9-13.8,4.1l-2.3,1.2v-.2Z"/>
  <path class="st17" d="M53.4,297.4l2.3-1.2c2.3-1.2,6.9-3.5,13.8-4.1,6.9-.6,16.1.6,25.2,0,9.2-.6,18.4-2.9,25.3-3.5s11.5.6,18.4,1.8,16.1,2.3,22.9,2.3,11.5-1.2,16.1-2.3,9.2-2.3,13.8-3.1c4.6-.7,9.2-1,13.8,1.2s9.2,6.9,13.8,8.6,9.2.6,13.8-1.4c4.6-1.9,9.2-4.7,13.8-5.4s9.2.4,13.8.7c4.6.3,9.2-.3,16.1-.3s16.1.6,27.6.9,25.3.3,34.4-.3,13.8-1.8,18.4-2.9c4.6-1.2,9.2-2.3,13.8-3.2s9.2-1.5,16.1-1.8,16.1-.3,23-1.6c6.9-1.3,11.5-3.9,16.1-4.7,4.6-.7,9.2.4,13.8,1.6,4.6,1.2,9.2,2.3,13.8,1.9,4.6-.5,9.2-2.6,13.8-2.2,4.6.4,9.2,3.3,13.8,1.7,4.6-1.6,9.2-7.8,13.8-8.3s9.2,4.5,13.8,4.9,9.2-3.9,13.8-4.6,9.2,2.1,13.8,4.8c4.6,2.7,9.2,5.3,13.8,2.9,4.6-2.3,9.2-9.6,13.8-17.6s9.2-16.8,13.8-18,9.2,5.2,13.8,10.4c4.6,5.2,9.2,9.2,13.8,6.6s9.2-11.8,13.8-17.5,9.2-8,13.8-15.4,9.2-19.9,13.8-24.8,9.2-2.3,13.8-5,9.2-10.7,13.8-13.5,9.2-.5,13.8-2.6,9.2-8.9,13.8-17.9c4.6-9.1,9.2-20.4,13.8-10.8,4.6,9.6,9.2,40.3,13.8,41.8s9.2-26.1,13.8-46.2,9.2-32.5,13.8-35.2,9.2,4.3,13.8,8.2c4.6,3.9,9.2,4.7,13.8,7.2s9.2,6.6,13.8,8.7,9.2,2.4,13.8-1.1,9.2-10.7,13.8.5,9.2,40.7,11.5,55.5l2.3,14.8h0l-2.3-4.3c-2.3-4.3-6.9-12.8-11.5-15.9-4.6-3-9.2-.5-13.8-6.4s-9.2-20.1-13.8-25.7-9.2-2.8-13.8,4.1c-4.6,6.9-9.2,17.7-13.8,18.5s-9.2-8.6-13.8-10.6-9.2,3.5-13.8,15.4-9.2,30.2-13.8,31-9.2-15.8-13.8-20.8-9.2,1.8-13.8,6.2-9.2,6.4-13.8,6.3c-4.6-.2-9.2-2.5-13.8,1.5s-9.2,14.3-13.8,20.5-9.2,8.2-13.8,12-9.2,9.3-13.8,13.2c-4.6,3.9-9.2,6.2-13.8,9.6s-9.2,7.9-13.8,9.4-9.2-.2-13.8-4.3-9.2-10.4-13.8-9.2-9.2,10-13.8,16.8-9.2,11.7-13.8,11.7-9.2-4.9-13.8-5.3-9.2,3.8-13.8,4.5-9.2-2-13.8-4.7c-4.6-2.7-9.2-5.4-13.8-4.9-4.6.6-9.2,4.4-13.8,6-4.6,1.6-9.2,1-13.8,1.8s-9.2,2.9-13.8,3.3c-4.6.5-9.2-.7-13.8-1.9-4.6-1.2-9.2-2.3-13.8-1.6-4.6.7-9.2,3.4-16.1,4.7-6.9,1.3-16.1,1.3-23,.4s-11.5-2.6-16.1-2.9-9.2.9-13.8,2c-4.6,1.2-9.2,2.3-18.4,2.9s-23,.6-34.4.3c-11.5-.3-20.7-.9-27.6-.9s-11.5.6-16.1,2.6-9.2,5.5-13.8,6.3-9.2-1.2-13.8-1.6-9.2.8-13.8-1-9.2-6.4-13.8-7.4-9.2,1.6-13.8,2.3c-4.6.7-9.2-.4-13.8-.4s-9.2,1.2-16.1,1.2-16.1-1.2-22.9-2.3-11.5-2.3-18.4-1.8c-6.9.6-16.1,2.9-25.3,3.5s-18.4-.6-25.2,0c-6.9.6-11.5,2.9-13.8,4.1l-2.3,1.2h0Z"/>
  <path class="st25" d="M53.4,297.4l2.3,1.2c2.3,1.2,6.9,3.5,13.8,4.1,6.9.6,16.1-.6,25.2-1.2,9.2-.6,18.4-.6,25.3-1.2s11.5-1.8,18.4-2.9,16.1-2.3,22.9-2.3,11.5,1.2,16.1,1.2,9.2-1.2,13.8-.7c4.6.4,9.2,2.5,13.8,3.5s9.2,1,13.8,1.6,9.2,1.8,13.8,2.1c4.6.4,9.2,0,13.8-1.9s9.2-5.4,13.8-6.3,9.2.9,16.1.9,16.1-1.8,27.6-2.6c11.5-.9,25.3-.9,34.4-1.5s13.8-1.8,18.4-1.8,9.2,1.2,13.8,1.5c4.6.3,9.2-.3,16.1-.6s16.1-.3,23,1.9c6.9,2.2,11.5,6.6,16.1,8.2s9.2.4,13.8-.7c4.6-1.2,9.2-2.3,13.8-4,4.6-1.6,9.2-3.7,13.8-4.5s9.2-.2,13.8,1.7c4.6,1.9,9.2,5,13.8,5.7s9.2-1.3,13.8-3.3c4.6-1.9,9.2-3.9,13.8-3.4s9.2,3.3,13.8,3.6,9.2-1.7,13.8-1.7,9.2,2.1,13.8,1.1,9.2-5.1,13.8-7.5,9.2-3,13.8-3.6,9.2-1.3,13.8-1.6c4.6-.3,9.2-.1,13.8,0s9.2.1,13.8-1.4c4.6-1.6,9.2-4.7,13.8-5s9.2,2.4,13.8,5.5,9.2,6.8,13.8-.7,9.2-26.1,13.8-29.5c4.6-3.3,9.2,8.6,13.8,12.4s9.2-.6,13.8-3.8c4.6-3.2,9.2-5.2,13.8-6.1s9.2-.5,13.8,2.8,9.2,9.5,13.8,15,9.2,10.1,13.8,8.2,9.2-10.4,13.8-12.6,9.2,1.9,13.8-1.8c4.6-3.7,9.2-15.1,13.8-19.8s9.2-2.5,13.8-5.3,9.2-10.6,11.5-14.5l2.3-3.9h0l-2.3,6.2c-2.3,6.2-6.9,18.7-11.5,22.6-4.6,4-9.2-.5-13.8,3-4.6,3.5-9.2,14.9-13.8,18.6-4.6,3.7-9.2-.4-13.8.6s-9.2,7.2-13.8,8c-4.6.7-9.2-3.9-13.8-8.2s-9.2-8.2-13.8-8-9.2,4.5-13.8,5.3-9.2-1.8-13.8-2.1c-4.6-.3-9.2,1.8-13.8-2s-9.2-13.4-13.8-10.1-9.2,19.7-13.8,26-9.2,2.7-13.8.7-9.2-2.3-13.8-2-9.2,1.1-13.8,1.5-9.2.3-13.8,1.4-9.2,3.3-13.8,3.5-9.2-1.4-13.8-1.9-9.2.1-13.8,2.5-9.2,6.5-13.8,7.5-9.2-1.1-13.8-1.1-9.2,2.1-13.8,1.7-9.2-3.2-13.8-2.5-9.2,5-13.8,6.9c-4.6,1.9-9.2,1.6-13.8-.2s-9.2-4.9-13.8-6.8c-4.6-1.9-9.2-2.5-13.8-1.7s-9.2,2.9-13.8,4.5c-4.6,1.6-9.2,2.8-13.8,4-4.6,1.2-9.2,2.3-13.8.7s-9.2-6-16.1-8.2-16.1-2.2-23-1.9-11.5.9-16.1.6-9.2-1.5-13.8-1.5-9.2,1.2-18.4,1.8-23,.6-34.4,1.5c-11.5.9-20.7,2.6-27.6,2.6s-11.5-1.8-16.1-.9-9.2,4.4-13.8,6.3-9.2,2.3-13.8,1.9-9.2-1.6-13.8-2.1c-4.6-.6-9.2-.6-13.8-1.6s-9.2-3.1-13.8-3.5-9.2.7-13.8.7-9.2-1.2-16.1-1.2-16.1,1.2-22.9,2.3-11.5,2.3-18.4,2.9-16.1.6-25.3,1.2-18.4,1.8-25.2,1.2c-6.9-.6-11.5-2.9-13.8-4.1l-2.3-1.2h0Z"/>
  <path class="st28" d="M53.4,297.4l2.3,1.2c2.3,1.2,6.9,3.5,13.8,4.1,6.9.6,16.1-.6,25.2-1.2,9.2-.6,18.4-.6,25.3-1.2s11.5-1.8,18.4-2.9,16.1-2.3,22.9-2.3,11.5,1.2,16.1,1.2,9.2-1.2,13.8-.7c4.6.4,9.2,2.5,13.8,3.5s9.2,1,13.8,1.6,9.2,1.8,13.8,2.1c4.6.4,9.2,0,13.8-1.9s9.2-5.4,13.8-6.3,9.2.9,16.1.9,16.1-1.8,27.6-2.6c11.5-.9,25.3-.9,34.4-1.5s13.8-1.8,18.4-1.8,9.2,1.2,13.8,1.5c4.6.3,9.2-.3,16.1-.6s16.1-.3,23,1.9c6.9,2.2,11.5,6.6,16.1,8.2s9.2.4,13.8-.7c4.6-1.2,9.2-2.3,13.8-4,4.6-1.6,9.2-3.7,13.8-4.5s9.2-.2,13.8,1.7c4.6,1.9,9.2,5,13.8,6.8s9.2,2.2,13.8.2c4.6-1.9,9.2-6.2,13.8-6.9,4.6-.7,9.2,2.1,13.8,2.5s9.2-1.7,13.8-1.7,9.2,2.1,13.8,1.1,9.2-5.1,13.8-7.5,9.2-3,13.8-2.5,9.2,2.2,13.8,1.9,9.2-2.5,13.8-3.5c4.6-1.1,9.2-1,13.8-1.4s9.2-1.2,13.8-1.5,9.2,0,13.8,2,9.2,5.6,13.8-.7c4.6-6.3,9.2-22.6,13.8-26s9.2,6.3,13.8,10.1c4.6,3.8,9.2,1.7,13.8,2s9.2,2.9,13.8,2.1,9.2-5.1,13.8-5.3c4.6-.2,9.2,3.7,13.8,8s9.2,9,13.8,8.2c4.6-.7,9.2-6.9,13.8-8,4.6-1,9.2,3.1,13.8-.6s9.2-15.1,13.8-18.6,9.2,1,13.8-3,9.2-16.4,11.5-22.6l2.3-6.2h0l-2.3,6.2c-2.3,6.2-6.9,18.7-11.5,23.8-4.6,5.1-9.2,3-13.8,6.5-4.6,3.5-9.2,12.6-13.8,16.3-4.6,3.7-9.2,1.9-13.8,4.1s-9.2,8.4-13.8,9.1-9.2-3.9-13.8-9.4-9.2-11.7-13.8-10.3-9.2,10.3-13.8,11.2c-4.6.8-9.2-6.5-13.8-7.9s-9.2,2.9-13.8,1.5-9.2-8.7-13.8-6.6-9.2,13.8-13.8,17.8-9.2.3-13.8-1.6c-4.6-2-9.2-2.3-13.8-.8s-9.2,4.6-13.8,6.2-9.2,1.5-13.8,1.4-9.2-.2-13.8-1.1-9.2-2.6-13.8-3.1-9.2.1-13.8,2.5-9.2,6.5-13.8,8.7-9.2,2.4-13.8,2.4-9.2-.2-13.8-.6-9.2-.9-13.8-.1c-4.6.7-9.2,2.7-13.8,3.4s-9.2.4-13.8-1.4-9.2-4.9-13.8-6.8c-4.6-1.9-9.2-2.5-13.8-1.7s-9.2,2.9-13.8,4.5c-4.6,1.6-9.2,2.8-13.8,4-4.6,1.2-9.2,2.3-13.8.7s-9.2-6-16.1-8.2-16.1-2.2-23-1.9-11.5.9-16.1.6-9.2-1.5-13.8-1.5-9.2,1.2-18.4,1.8-23,.6-34.4,1.5c-11.5.9-20.7,2.6-27.6,2.6s-11.5-1.8-16.1-.9-9.2,4.4-13.8,6.3-9.2,2.3-13.8,1.9-9.2-1.6-13.8-2.1c-4.6-.6-9.2-.6-13.8-1.6s-9.2-3.1-13.8-3.5-9.2.7-13.8.7-9.2-1.2-16.1-1.2-16.1,1.2-22.9,2.3-11.5,2.3-18.4,2.9-16.1.6-25.3,1.2-18.4,1.8-25.2,1.2c-6.9-.6-11.5-2.9-13.8-4.1l-2.3-1.2v-.3Z"/>
  <path class="st3" d="M53.4,521.3h785"/>
  <line class="st3" x1="80.9" y1="521.3" x2="80.9" y2="527.3"/>
  <g class="st6">
    <text class="st5" transform="translate(69.8 538.4)"><tspan x="0" y="0">1970</tspan></text>
  </g>
  <line class="st3" x1="149.8" y1="521.3" x2="149.8" y2="527.3"/>
  <g class="st6">
    <text class="st5" transform="translate(138.6 538.4)"><tspan x="0" y="0">1975</tspan></text>
  </g>
  <line class="st3" x1="218.6" y1="521.3" x2="218.6" y2="527.3"/>
  <g class="st6">
    <text class="st5" transform="translate(207.5 538.4)"><tspan x="0" y="0">1980</tspan></text>
  </g>
  <line class="st3" x1="287.5" y1="521.3" x2="287.5" y2="527.3"/>
  <g class="st6">
    <text class="st5" transform="translate(276.4 538.4)"><tspan x="0" y="0">1985</tspan></text>
  </g>
  <line class="st3" x1="356.4" y1="521.3" x2="356.4" y2="527.3"/>
  <g class="st6">
    <text class="st5" transform="translate(345.2 538.4)"><tspan x="0" y="0">1990</tspan></text>
  </g>
  <line class="st3" x1="425.2" y1="521.3" x2="425.2" y2="527.3"/>
  <g class="st6">
    <text class="st5" transform="translate(414.1 538.4)"><tspan x="0" y="0">1995</tspan></text>
  </g>
  <line class="st3" x1="494" y1="521.3" x2="494" y2="527.3"/>
  <g class="st6">
    <text class="st5" transform="translate(482.9 538.4)"><tspan x="0" y="0">2000</tspan></text>
  </g>
  <line class="st3" x1="562.9" y1="521.3" x2="562.9" y2="527.3"/>
  <g class="st6">
    <text class="st5" transform="translate(551.8 538.4)"><tspan x="0" y="0">2005</tspan></text>
  </g>
  <line class="st3" x1="631.8" y1="521.3" x2="631.8" y2="527.3"/>
  <g class="st6">
    <text class="st5" transform="translate(620.7 538.4)"><tspan x="0" y="0">2010</tspan></text>
  </g>
  <line class="st3" x1="700.6" y1="521.3" x2="700.6" y2="527.3"/>
  <g class="st6">
    <text class="st5" transform="translate(689.5 538.4)"><tspan x="0" y="0">2015</tspan></text>
  </g>
  <line class="st3" x1="769.5" y1="521.3" x2="769.5" y2="527.3"/>
  <g class="st6">
    <text class="st5" transform="translate(758.4 538.4)"><tspan x="0" y="0">2020</tspan></text>
  </g>
  <line class="st3" x1="838.4" y1="521.3" x2="838.4" y2="527.3"/>
  <g class="st6">
    <text class="st5" transform="translate(827.2 538.4)"><tspan x="0" y="0">2025</tspan></text>
  </g>
  <path class="st1" d="M53.4,521.3V17.4"/>
  <g>
    <line class="st3" x1="52.4" y1="507.4" x2="46.4" y2="507.4"/>
    <g class="st6">
      <text class="st5" transform="translate(26.4 510.6)"><tspan x="0" y="0" xml:space="preserve"> 30</tspan></text>
    </g>
  </g>
  <g>
    <line class="st3" x1="52.4" y1="437.4" x2="46.4" y2="437.4"/>
    <g class="st6">
      <text class="st5" transform="translate(26.4 440.6)"><tspan x="0" y="0" xml:space="preserve"> 20</tspan></text>
    </g>
  </g>
  <g>
    <line class="st3" x1="52.4" y1="367.4" x2="46.4" y2="367.4"/>
    <g class="st6">
      <text class="st5" transform="translate(26.4 370.6)"><tspan x="0" y="0" xml:space="preserve"> 10</tspan></text>
    </g>
  </g>
  <g>
    <line class="st3" x1="53.4" y1="297.4" x2="47.4" y2="297.4"/>
    <g class="st6">
      <text class="st5" transform="translate(38.8 300.6)"><tspan x="0" y="0">0</tspan></text>
    </g>
  </g>
  <g>
    <line class="st3" x1="52.4" y1="227.4" x2="46.4" y2="227.4"/>
    <g class="st6">
      <text class="st5" transform="translate(32.2 230.6)"><tspan x="0" y="0">10</tspan></text>
    </g>
  </g>
  <g>
    <line class="st3" x1="52.4" y1="157.4" x2="46.4" y2="157.4"/>
    <g class="st6">
      <text class="st5" transform="translate(32.2 160.6)"><tspan x="0" y="0">20</tspan></text>
    </g>
  </g>
  <g>
    <line class="st3" x1="52.4" y1="87.4" x2="46.4" y2="87.4"/>
    <g class="st6">
      <text class="st5" transform="translate(32.2 90.6)"><tspan x="0" y="0">30</tspan></text>
    </g>
  </g>
  <g>
    <line class="st3" x1="52.4" y1="17.4" x2="46.4" y2="17.4"/>
    <g class="st6">
      <text class="st5" transform="translate(32.2 20.6)"><tspan x="0" y="0">40</tspan></text>
    </g>
  </g>
  <g class="st6">
    <text class="st5" transform="translate(649.7 347.1)"><tspan x="0" y="0">Regression-based Measures</tspan></text>
  </g>
  <g class="st6">
    <text class="st5" transform="translate(749.3 151)"><tspan x="0" y="0">Others</tspan></text>
  </g>
  <g class="st6">
    <text class="st5" transform="translate(609.8 72.8)"><tspan x="0" y="0">Rank-based Measures</tspan></text>
  </g>
  <g class="st6">
    <text class="st5" transform="translate(553.8 113.8)"><tspan x="0" y="0">Absolute Mobility Measures</tspan></text>
  </g>
  <g class="st6">
    <text class="st5" transform="translate(517.4 180.2)"><tspan x="0" y="0">Decomposition/ </tspan></text>
    <text class="st5" transform="translate(484.8 194.6)"><tspan x="0" y="0">Structural Approaches</tspan></text>
  </g>
  <g class="st6">
    <text class="st5" transform="translate(342.5 248)"><tspan x="0" y="0">Transition Matrix/ </tspan></text>
    <text class="st5" transform="translate(329.6 262.4)"><tspan x="0" y="0">Probability Measures</tspan></text>
  </g>
  <g class="st6">
    <text class="st5" transform="translate(351.3 337.7)"><tspan x="0" y="0">Non-parametric Approaches</tspan></text>
  </g>
  <g class="st6">
    <text class="st5" transform="translate(463.9 224.1)"><tspan x="0" y="0">Multigenerational </tspan><tspan x="50.2" y="16.8">Measures</tspan></text>
  </g>
  <line class="st2" x1="752.4" y1="110.2" x2="722.1" y2="110.2"/>
  <line class="st2" x1="774.1" y1="69.9" x2="743.7" y2="69.9"/>
  <line class="st2" x1="504.7" y1="322.1" x2="519.3" y2="296.9"/>
  <line class="st2" x1="606.2" y1="284.8" x2="572.3" y2="220.5"/>
  <line class="st2" x1="665.2" y1="230.6" x2="618.1" y2="193.5"/>
  <circle class="st28" cx="505.3" cy="321.1" r="3.6"/>
  <circle class="st27" cx="572.3" cy="220.5" r="3.6"/>
  <circle class="st15" cx="617.3" cy="192.8" r="3.6"/>
  <circle class="st21" cx="722.1" cy="110.2" r="3.6"/>
  <circle class="st20" cx="740.8" cy="69.9" r="3.6"/>
  <line class="st2" x1="455.4" y1="258.9" x2="465.6" y2="289.1"/>
  <circle class="st18" cx="455.4" cy="258.8" r="3.6"/>
  <path class="st4" d="M97.6,200.1h261.3"/>
  <path class="st4" d="M58.9-3.1"/>
  <path class="st4" d="M58.9-3.1"/>
  <g class="st33">
    <g>
      <g>
        <path class="st13" d="M108.5,200.1v-55.2h33.6v55.2h-33.6Z"/>
        <path class="st13" d="M145.8,200.1v-25.5h33.6v25.5h-33.6Z"/>
        <path class="st13" d="M183.1,200.1v-45.1h33.6v45.1h-33.6Z"/>
        <path class="st13" d="M220.5,200.1h33.6-33.6Z"/>
        <path class="st13" d="M257.8,200.1v-4.6h33.6v4.6h-33.6Z"/>
        <path class="st13" d="M295.1,200.1v-7.4h33.6v7.4h-33.6Z"/>
        <path class="st13" d="M332.4,200.1v-14h33.6v14h-33.6Z"/>
      </g>
      <g>
        <path class="st7" d="M108.5,145h33.6-33.6Z"/>
        <path class="st7" d="M145.8,174.7v-76.4h33.6v76.4h-33.6Z"/>
        <path class="st7" d="M183.1,155v-30.1h33.6v30.1h-33.6Z"/>
        <path class="st7" d="M220.5,200.1v-36h33.6v36h-33.6Z"/>
        <path class="st7" d="M257.8,195.5v-15.5h33.6v15.5h-33.6Z"/>
        <path class="st7" d="M295.1,192.7v-20.7h33.6v20.7h-33.6Z"/>
        <path class="st7" d="M332.4,186.2v-23.1h33.6v23.1h-33.6Z"/>
      </g>
      <g>
        <path class="st11" d="M108.5,145h33.6-33.6Z"/>
        <path class="st11" d="M145.8,98.3h33.6-33.6Z"/>
        <path class="st11" d="M183.1,124.9h33.6-33.6Z"/>
        <path class="st11" d="M220.5,164.2h33.6-33.6Z"/>
        <path class="st11" d="M257.8,180v-3.1h33.6v3.1h-33.6Z"/>
        <path class="st11" d="M295.1,172v-2.7h33.6v2.7h-33.6Z"/>
        <path class="st11" d="M332.4,163.1v-2.7h33.6v2.7h-33.6Z"/>
      </g>
      <g>
        <path class="st14" d="M108.5,145h33.6-33.6Z"/>
        <path class="st14" d="M145.8,98.3h33.6-33.6Z"/>
        <path class="st14" d="M183.1,124.9h33.6-33.6Z"/>
        <path class="st14" d="M220.5,164.2h33.6-33.6Z"/>
        <path class="st14" d="M257.8,176.9v-4.6h33.6v4.6h-33.6Z"/>
        <path class="st14" d="M295.1,169.2v-2.7h33.6v2.7h-33.6Z"/>
        <path class="st14" d="M332.4,160.4v-1.6h33.6v1.6h-33.6Z"/>
      </g>
      <g>
        <path class="st8" d="M108.5,145h33.6-33.6Z"/>
        <path class="st8" d="M145.8,98.3v-12.7h33.6v12.7h-33.6Z"/>
        <path class="st8" d="M183.1,124.9v-30.1h33.6v30.1h-33.6Z"/>
        <path class="st8" d="M220.5,164.2v-43.2h33.6v43.2h-33.6Z"/>
        <path class="st8" d="M257.8,172.3v-23.2h33.6v23.2h-33.6Z"/>
        <path class="st8" d="M295.1,166.5v-17.6h33.6v17.6h-33.6Z"/>
        <path class="st8" d="M332.4,158.8v-16.1h33.6v16.1h-33.6Z"/>
      </g>
      <g>
        <path class="st12" d="M108.5,145h33.6-33.6Z"/>
        <path class="st12" d="M145.8,85.6v-12.7h33.6v12.7h-33.6Z"/>
        <path class="st12" d="M183.1,94.8h33.6-33.6Z"/>
        <path class="st12" d="M220.5,121h33.6-33.6Z"/>
        <path class="st12" d="M257.8,149.1v-1.5h33.6v1.5h-33.6Z"/>
        <path class="st12" d="M295.1,148.9v-5.1h33.6v5.1h-33.6Z"/>
        <path class="st12" d="M332.4,142.6v-19.3h33.6v19.3h-33.6Z"/>
      </g>
      <g>
        <path class="st10" d="M108.5,145h33.6-33.6Z"/>
        <path class="st10" d="M145.8,72.8v-25.5h33.6v25.5h-33.6Z"/>
        <path class="st10" d="M183.1,94.8v-60.2h33.6v60.2h-33.6Z"/>
        <path class="st10" d="M220.5,121v-57.6h33.6v57.6h-33.6Z"/>
        <path class="st10" d="M257.8,147.5V54.7h33.6v92.8h-33.6Z"/>
        <path class="st10" d="M295.1,143.8V46.8h33.6v97h-33.6Z"/>
        <path class="st10" d="M332.4,123.3V46.5h33.6v76.8h-33.6Z"/>
      </g>
      <g>
        <path class="st9" d="M108.5,145V34.6h33.6v110.3h-33.6Z"/>
        <path class="st9" d="M145.8,47.4v-12.7h33.6v12.7h-33.6Z"/>
        <path class="st9" d="M183.1,34.6h33.6-33.6Z"/>
        <path class="st9" d="M220.5,63.4v-28.8h33.6v28.8h-33.6Z"/>
        <path class="st9" d="M257.8,54.7v-20.1h33.6v20.1h-33.6Z"/>
        <path class="st9" d="M295.1,46.8v-12.1h33.6v12.1h-33.6Z"/>
        <path class="st9" d="M332.4,46.5v-11.8h33.6v11.8h-33.6Z"/>
      </g>
    </g>
  </g>
  <path class="st0" d="M58.9-3.1"/>
  <path class="st0" d="M58.9-3.1"/>
  <g>
    <text class="st5" transform="translate(108 212.4)"><tspan x="0" y="0">1960s</tspan></text>
    <text class="st5" transform="translate(145.3 212.4)"><tspan x="0" y="0">1970s</tspan></text>
    <text class="st5" transform="translate(182.7 212.4)"><tspan x="0" y="0">1980s</tspan></text>
    <text class="st5" transform="translate(220 212.4)"><tspan x="0" y="0">1990s</tspan></text>
    <text class="st5" transform="translate(257.3 212.4)"><tspan x="0" y="0">2000s</tspan></text>
    <text class="st5" transform="translate(294.7 212.4)"><tspan x="0" y="0">2010s</tspan></text>
    <text class="st5" transform="translate(332 212.4)"><tspan x="0" y="0">2020s</tspan></text>
  </g>
  <g>
    <text class="st5" transform="translate(95.2 202.8)"><tspan x="0" y="0">0</tspan></text>
    <text class="st5" transform="translate(89.4 169.7)"><tspan x="0" y="0">0.2</tspan></text>
    <text class="st5" transform="translate(89.4 136.6)"><tspan x="0" y="0">0.4</tspan></text>
    <text class="st5" transform="translate(89.4 103.5)"><tspan x="0" y="0">0.6</tspan></text>
    <text class="st5" transform="translate(89.4 70.4)"><tspan x="0" y="0">0.8</tspan></text>
    <text class="st5" transform="translate(95.2 37.4)"><tspan x="0" y="0">1</tspan></text>
  </g>
  <text class="st5" transform="translate(220.2 226.5)"><tspan x="0" y="0">Period</tspan></text>
  <text class="st5" transform="translate(77.2 207.3) rotate(-90)"><tspan x="0" y="0">Percentage of Category Counts</tspan></text>
</svg>