<?xml version="1.0" encoding="UTF-8"?>
<svg id="Layer_1" xmlns="http://www.w3.org/2000/svg" xmlns:xlink="http://www.w3.org/1999/xlink" version="1.1" viewBox="0 0 700 500">
  <!-- Generator: Adobe Illustrator 29.1.0, SVG Export Plug-In . SVG Version: 2.1.0 Build 142)  -->
  <defs>
    <style>
      .st0 {
        fill: none;
      }

      .st1 {
        font-size: 14px;
      }

      .st1, .st2 {
        font-family: TimesNewRomanPSMT, 'Times New Roman';
        isolation: isolate;
      }

      .st3 {
        fill: #f4a988;
      }

      .st3, .st4, .st5, .st6, .st7, .st8, .st9, .st10, .st11, .st12 {
        stroke: #fff;
      }

      .st3, .st4, .st5, .st7, .st8, .st9, .st10, .st11, .st12 {
        fill-rule: evenodd;
      }

      .st4 {
        fill: #ffc3c2;
      }

      .st5 {
        fill: #005f56;
      }

      .st6 {
        stroke-width: 2px;
      }

      .st7 {
        fill: #cb7729;
      }

      .st8 {
        fill: #c04e3f;
      }

      .st13 {
        clip-path: url(#clippath-17);
      }

      .st14 {
        clip-path: url(#clippath-19);
      }

      .st15 {
        clip-path: url(#clippath-11);
      }

      .st16 {
        clip-path: url(#clippath-16);
      }

      .st17 {
        clip-path: url(#clippath-18);
      }

      .st18 {
        clip-path: url(#clippath-10);
      }

      .st19 {
        clip-path: url(#clippath-15);
      }

      .st20 {
        clip-path: url(#clippath-13);
      }

      .st21 {
        clip-path: url(#clippath-14);
      }

      .st22 {
        clip-path: url(#clippath-12);
      }

      .st23 {
        clip-path: url(#clippath-50);
      }

      .st24 {
        clip-path: url(#clippath-51);
      }

      .st25 {
        clip-path: url(#clippath-31);
      }

      .st26 {
        clip-path: url(#clippath-32);
      }

      .st27 {
        clip-path: url(#clippath-33);
      }

      .st28 {
        clip-path: url(#clippath-34);
      }

      .st29 {
        clip-path: url(#clippath-35);
      }

      .st30 {
        clip-path: url(#clippath-39);
      }

      .st31 {
        clip-path: url(#clippath-30);
      }

      .st32 {
        clip-path: url(#clippath-36);
      }

      .st33 {
        clip-path: url(#clippath-37);
      }

      .st34 {
        clip-path: url(#clippath-38);
      }

      .st35 {
        clip-path: url(#clippath-27);
      }

      .st36 {
        clip-path: url(#clippath-29);
      }

      .st37 {
        clip-path: url(#clippath-26);
      }

      .st38 {
        clip-path: url(#clippath-28);
      }

      .st39 {
        clip-path: url(#clippath-20);
      }

      .st40 {
        clip-path: url(#clippath-21);
      }

      .st41 {
        clip-path: url(#clippath-22);
      }

      .st42 {
        clip-path: url(#clippath-23);
      }

      .st43 {
        clip-path: url(#clippath-24);
      }

      .st44 {
        clip-path: url(#clippath-25);
      }

      .st45 {
        clip-path: url(#clippath-41);
      }

      .st46 {
        clip-path: url(#clippath-42);
      }

      .st47 {
        clip-path: url(#clippath-43);
      }

      .st48 {
        clip-path: url(#clippath-44);
      }

      .st49 {
        clip-path: url(#clippath-45);
      }

      .st50 {
        clip-path: url(#clippath-49);
      }

      .st51 {
        clip-path: url(#clippath-40);
      }

      .st52 {
        clip-path: url(#clippath-46);
      }

      .st53 {
        clip-path: url(#clippath-47);
      }

      .st54 {
        clip-path: url(#clippath-48);
      }

      .st9 {
        fill: #399;
      }

      .st55 {
        clip-path: url(#clippath-1);
      }

      .st56 {
        clip-path: url(#clippath-3);
      }

      .st57 {
        clip-path: url(#clippath-4);
      }

      .st58 {
        clip-path: url(#clippath-2);
      }

      .st59 {
        clip-path: url(#clippath-7);
      }

      .st60 {
        clip-path: url(#clippath-6);
      }

      .st61 {
        clip-path: url(#clippath-9);
      }

      .st62 {
        clip-path: url(#clippath-8);
      }

      .st63 {
        clip-path: url(#clippath-5);
      }

      .st64 {
        fill: #fff;
      }

      .st10 {
        fill: #b5dba5;
      }

      .st11 {
        fill: #f4e1a1;
      }

      .st2 {
        font-size: 12px;
      }

      .st12 {
        fill: #f7a7a1;
      }

      .st65 {
        fill-opacity: 0;
      }

      .st66 {
        clip-path: url(#clippath);
      }
    </style>
    <clipPath id="clippath">
      <rect class="st0" x="80" y="100" width="540" height="320"/>
    </clipPath>
    <clipPath id="clippath-1">
      <rect class="st0" x="80" y="100" width="540" height="320"/>
    </clipPath>
    <clipPath id="clippath-2">
      <rect class="st0" x="80" y="100" width="540" height="320"/>
    </clipPath>
    <clipPath id="clippath-3">
      <rect class="st0" x="80" y="100" width="540" height="320"/>
    </clipPath>
    <clipPath id="clippath-4">
      <rect class="st0" x="80" y="100" width="540" height="320"/>
    </clipPath>
    <clipPath id="clippath-5">
      <rect class="st0" x="80" y="100" width="540" height="320"/>
    </clipPath>
    <clipPath id="clippath-6">
      <rect class="st0" x="80" y="100" width="540" height="320"/>
    </clipPath>
    <clipPath id="clippath-7">
      <rect class="st0" x="80" y="100" width="540" height="320"/>
    </clipPath>
    <clipPath id="clippath-8">
      <rect class="st0" x="80" y="100" width="540" height="320"/>
    </clipPath>
    <clipPath id="clippath-9">
      <rect class="st0" x="80" y="100" width="540" height="320"/>
    </clipPath>
    <clipPath id="clippath-10">
      <rect class="st0" x="80" y="100" width="540" height="320"/>
    </clipPath>
    <clipPath id="clippath-11">
      <rect class="st0" x="80" y="100" width="540" height="320"/>
    </clipPath>
    <clipPath id="clippath-12">
      <rect class="st0" x="80" y="100" width="540" height="320"/>
    </clipPath>
    <clipPath id="clippath-13">
      <rect class="st0" x="80" y="100" width="540" height="320"/>
    </clipPath>
    <clipPath id="clippath-14">
      <rect class="st0" x="80" y="100" width="540" height="320"/>
    </clipPath>
    <clipPath id="clippath-15">
      <rect class="st0" x="80" y="100" width="540" height="320"/>
    </clipPath>
    <clipPath id="clippath-16">
      <rect class="st0" x="80" y="100" width="540" height="320"/>
    </clipPath>
    <clipPath id="clippath-17">
      <rect class="st0" x="80" y="100" width="540" height="320"/>
    </clipPath>
    <clipPath id="clippath-18">
      <rect class="st0" x="80" y="100" width="540" height="320"/>
    </clipPath>
    <clipPath id="clippath-19">
      <rect class="st0" x="80" y="100" width="540" height="320"/>
    </clipPath>
    <clipPath id="clippath-20">
      <rect class="st0" x="80" y="100" width="540" height="320"/>
    </clipPath>
    <clipPath id="clippath-21">
      <rect class="st0" x="80" y="100" width="540" height="320"/>
    </clipPath>
    <clipPath id="clippath-22">
      <rect class="st0" x="80" y="100" width="540" height="320"/>
    </clipPath>
    <clipPath id="clippath-23">
      <rect class="st0" x="80" y="100" width="540" height="320"/>
    </clipPath>
    <clipPath id="clippath-24">
      <rect class="st0" x="80" y="100" width="540" height="320"/>
    </clipPath>
    <clipPath id="clippath-25">
      <rect class="st0" x="80" y="100" width="540" height="320"/>
    </clipPath>
    <clipPath id="clippath-26">
      <rect class="st0" x="80" y="100" width="540" height="320"/>
    </clipPath>
    <clipPath id="clippath-27">
      <rect class="st0" x="80" y="100" width="540" height="320"/>
    </clipPath>
    <clipPath id="clippath-28">
      <rect class="st0" x="80" y="100" width="540" height="320"/>
    </clipPath>
    <clipPath id="clippath-29">
      <rect class="st0" x="80" y="100" width="540" height="320"/>
    </clipPath>
    <clipPath id="clippath-30">
      <rect class="st0" x="80" y="100" width="540" height="320"/>
    </clipPath>
    <clipPath id="clippath-31">
      <rect class="st0" x="80" y="100" width="540" height="320"/>
    </clipPath>
    <clipPath id="clippath-32">
      <rect class="st0" x="80" y="100" width="540" height="320"/>
    </clipPath>
    <clipPath id="clippath-33">
      <rect class="st0" x="80" y="100" width="540" height="320"/>
    </clipPath>
    <clipPath id="clippath-34">
      <rect class="st0" x="80" y="100" width="540" height="320"/>
    </clipPath>
    <clipPath id="clippath-35">
      <rect class="st0" x="80" y="100" width="540" height="320"/>
    </clipPath>
    <clipPath id="clippath-36">
      <rect class="st0" x="80" y="100" width="540" height="320"/>
    </clipPath>
    <clipPath id="clippath-37">
      <rect class="st0" x="80" y="100" width="540" height="320"/>
    </clipPath>
    <clipPath id="clippath-38">
      <rect class="st0" x="80" y="100" width="540" height="320"/>
    </clipPath>
    <clipPath id="clippath-39">
      <rect class="st0" x="80" y="100" width="540" height="320"/>
    </clipPath>
    <clipPath id="clippath-40">
      <rect class="st0" x="80" y="100" width="540" height="320"/>
    </clipPath>
    <clipPath id="clippath-41">
      <rect class="st0" x="80" y="100" width="540" height="320"/>
    </clipPath>
    <clipPath id="clippath-42">
      <rect class="st0" x="80" y="100" width="540" height="320"/>
    </clipPath>
    <clipPath id="clippath-43">
      <rect class="st0" x="80" y="100" width="540" height="320"/>
    </clipPath>
    <clipPath id="clippath-44">
      <rect class="st0" x="80" y="100" width="540" height="320"/>
    </clipPath>
    <clipPath id="clippath-45">
      <rect class="st0" x="80" y="100" width="540" height="320"/>
    </clipPath>
    <clipPath id="clippath-46">
      <rect class="st0" x="80" y="100" width="540" height="320"/>
    </clipPath>
    <clipPath id="clippath-47">
      <rect class="st0" x="80" y="100" width="540" height="320"/>
    </clipPath>
    <clipPath id="clippath-48">
      <rect class="st0" x="80" y="100" width="540" height="320"/>
    </clipPath>
    <clipPath id="clippath-49">
      <rect class="st0" x="80" y="100" width="540" height="320"/>
    </clipPath>
    <clipPath id="clippath-50">
      <rect class="st0" x="80" y="100" width="540" height="320"/>
    </clipPath>
    <clipPath id="clippath-51">
      <rect class="st0" x="80" y="100" width="540" height="320"/>
    </clipPath>
  </defs>
  <rect class="st65" x="80" y="100" width="540" height="320"/>
  <g class="st66">
    <path class="st9" d="M80.5,420h72.9v-252.5h-72.9v252.5Z"/>
  </g>
  <g class="st55">
    <path class="st11" d="M80.5,167.5h72.9v-55.9h-72.9v55.9Z"/>
  </g>
  <g class="st58">
    <path class="st10" d="M80.5,111.6h72.9v-1.9h-72.9v1.9Z"/>
  </g>
  <g class="st56">
    <path class="st7" d="M80.5,109.6h72.9v-9.6h-72.9v9.6Z"/>
  </g>
  <g class="st57">
    <path class="st8" d="M153.4,420h57.1v-19.7h-57.1v19.7Z"/>
  </g>
  <g class="st63">
    <path class="st9" d="M153.4,400.3h57.1v-27.1h-57.1v27.1Z"/>
  </g>
  <g class="st60">
    <path class="st4" d="M153.4,373.2h57.1v-2.5h-57.1v2.5Z"/>
  </g>
  <g class="st59">
    <path class="st5" d="M153.4,370.8h57.1v-4.9h-57.1v4.9Z"/>
  </g>
  <g class="st62">
    <path class="st11" d="M153.4,365.9h57.1v-27.1h-57.1v27.1Z"/>
  </g>
  <g class="st61">
    <path class="st3" d="M153.4,338.8h57.1v-2.5h-57.1v2.5Z"/>
  </g>
  <g class="st18">
    <path class="st10" d="M153.4,336.3h57.1v-204.3h-57.1v204.3Z"/>
  </g>
  <g class="st15">
    <path class="st7" d="M153.4,132h57.1v-32h-57.1v32Z"/>
  </g>
  <g class="st22">
    <path class="st9" d="M210.4,420h131.7v-17.1h-131.7v17.1Z"/>
  </g>
  <g class="st20">
    <path class="st12" d="M210.4,402.9h131.7v-1.1h-131.7v1.1Z"/>
  </g>
  <g class="st21">
    <path class="st5" d="M210.4,401.9h131.7v-2.1h-131.7v2.1Z"/>
  </g>
  <g class="st19">
    <path class="st11" d="M210.4,399.7h131.7v-8.5h-131.7v8.5Z"/>
  </g>
  <g class="st16">
    <path class="st3" d="M210.4,391.2h131.7v-18.1h-131.7v18.1Z"/>
  </g>
  <g class="st13">
    <path class="st10" d="M210.4,373.1h131.7V102.1h-131.7v270.9Z"/>
  </g>
  <g class="st17">
    <path class="st7" d="M210.4,102.1h131.7v-2.1h-131.7v2.1Z"/>
  </g>
  <g class="st14">
    <path class="st8" d="M342.1,420h50v-5.6h-50v5.6Z"/>
  </g>
  <g class="st39">
    <path class="st9" d="M342.1,414.4h50v-22.5h-50v22.5Z"/>
  </g>
  <g class="st40">
    <path class="st4" d="M342.1,391.9h50v-53.3h-50v53.3Z"/>
  </g>
  <g class="st41">
    <path class="st5" d="M342.1,338.6h50v-14h-50v14Z"/>
  </g>
  <g class="st42">
    <path class="st11" d="M342.1,324.6h50v-64.6h-50v64.6Z"/>
  </g>
  <g class="st43">
    <path class="st3" d="M342.1,260h50v-2.8h-50v2.8Z"/>
  </g>
  <g class="st44">
    <path class="st10" d="M342.1,257.2h50V102.8h-50v154.4Z"/>
  </g>
  <g class="st37">
    <path class="st7" d="M342.1,102.8h50v-2.8h-50v2.8Z"/>
  </g>
  <g class="st35">
    <path class="st8" d="M392.2,420h62.3v-148.7h-62.3v148.7Z"/>
  </g>
  <g class="st38">
    <path class="st9" d="M392.2,271.3h62.3v-13.5h-62.3v13.5Z"/>
  </g>
  <g class="st36">
    <path class="st11" d="M392.2,257.8h62.3v-105.9h-62.3v105.9Z"/>
  </g>
  <g class="st31">
    <path class="st3" d="M392.2,151.8h62.3v-18h-62.3v18Z"/>
  </g>
  <g class="st25">
    <path class="st10" d="M392.2,133.8h62.3v-22.5h-62.3v22.5Z"/>
  </g>
  <g class="st26">
    <path class="st7" d="M392.2,111.3h62.3v-11.3h-62.3v11.3Z"/>
  </g>
  <g class="st27">
    <path class="st8" d="M454.5,420h55.3v-7.6h-55.3v7.6Z"/>
  </g>
  <g class="st28">
    <path class="st5" d="M454.5,412.4h55.3v-2.5h-55.3v2.5Z"/>
  </g>
  <g class="st29">
    <path class="st11" d="M454.5,409.8h55.3v-5.1h-55.3v5.1Z"/>
  </g>
  <g class="st32">
    <path class="st3" d="M454.5,404.8h55.3v-22.9h-55.3v22.9Z"/>
  </g>
  <g class="st33">
    <path class="st10" d="M454.5,381.9h55.3v-15.2h-55.3v15.2Z"/>
  </g>
  <g class="st34">
    <path class="st7" d="M454.5,366.7h55.3V100h-55.3v266.7Z"/>
  </g>
  <g class="st30">
    <path class="st8" d="M509.8,420h64.1v-13.1h-64.1v13.1Z"/>
  </g>
  <g class="st51">
    <path class="st9" d="M509.8,406.9h64.1v-13.1h-64.1v13.1Z"/>
  </g>
  <g class="st45">
    <path class="st5" d="M509.8,393.7h64.1v-21.9h-64.1v21.9Z"/>
  </g>
  <g class="st46">
    <path class="st11" d="M509.8,371.8h64.1v-8.8h-64.1v8.8Z"/>
  </g>
  <g class="st47">
    <path class="st10" d="M509.8,363h64.1V100h-64.1v263Z"/>
  </g>
  <g class="st48">
    <path class="st8" d="M573.9,420h38.2v-3.7h-38.2v3.7Z"/>
  </g>
  <g class="st49">
    <path class="st9" d="M573.9,416.3h38.2v-18.4h-38.2v18.4Z"/>
  </g>
  <g class="st52">
    <path class="st4" d="M573.9,397.9h38.2v-7.4h-38.2v7.4Z"/>
  </g>
  <g class="st53">
    <path class="st5" d="M573.9,390.6h38.2v-14.7h-38.2v14.7Z"/>
  </g>
  <g class="st54">
    <path class="st11" d="M573.9,375.9h38.2v-55.2h-38.2v55.2Z"/>
  </g>
  <g class="st50">
    <path class="st3" d="M573.9,320.7h38.2v-183.9h-38.2v183.9Z"/>
  </g>
  <g class="st23">
    <path class="st10" d="M573.9,136.8h38.2v-18.4h-38.2v18.4Z"/>
  </g>
  <g class="st24">
    <path class="st7" d="M573.9,118.4h38.2v-18.4h-38.2v18.4Z"/>
  </g>
  <g>
    <path class="st6" d="M80.5,100v320"/>
    <path class="st6" d="M80,420h540"/>
  </g>
  <g>
    <text class="st2" transform="translate(113.9 433)"><tspan x="0" y="0">0</tspan></text>
    <text class="st2" transform="translate(178.9 433)"><tspan x="0" y="0">1</tspan></text>
    <text class="st2" transform="translate(273.3 433)"><tspan x="0" y="0">2</tspan></text>
    <text class="st2" transform="translate(364.2 433)"><tspan x="0" y="0">3</tspan></text>
    <text class="st2" transform="translate(420.3 433)"><tspan x="0" y="0">4</tspan></text>
    <text class="st2" transform="translate(479.2 433)"><tspan x="0" y="0">5</tspan></text>
    <text class="st2" transform="translate(538.9 433)"><tspan x="0" y="0">6</tspan></text>
    <text class="st2" transform="translate(590 433)"><tspan x="0" y="0">7</tspan></text>
  </g>
  <g>
    <text class="st2" transform="translate(73 424.2)"><tspan x="0" y="0">0</tspan></text>
    <text class="st2" transform="translate(64 360.2)"><tspan x="0" y="0">0.2</tspan></text>
    <text class="st2" transform="translate(64 296.2)"><tspan x="0" y="0">0.4</tspan></text>
    <text class="st2" transform="translate(64 232.2)"><tspan x="0" y="0">0.6</tspan></text>
    <text class="st2" transform="translate(64 168.2)"><tspan x="0" y="0">0.8</tspan></text>
    <text class="st2" transform="translate(73 104.2)"><tspan x="0" y="0">1</tspan></text>
  </g>
  <text class="st1" transform="translate(327.1 459.8)"><tspan x="0" y="0">Clusters</tspan></text>
  <text class="st1" transform="translate(44.6 355) rotate(-90)"><tspan x="0" y="0">Proportion of categories within Cluster</tspan></text>
  <g>
    <path d="M227,214.2h-3l-3.8-5.3c-.3,0-.5,0-.7,0s-.1,0-.2,0-.2,0-.3,0v3.3c0,.7,0,1.1.2,1.3.2.2.5.4.9.4h.4v.3h-4.8v-.3h.4c.5,0,.8-.2,1-.5.1-.2.2-.6.2-1.2v-7.3c0-.7,0-1.1-.2-1.3-.2-.2-.5-.4-1-.4h-.4v-.3h4.1c1.2,0,2.1,0,2.6.3s1,.5,1.4,1,.6,1,.6,1.7-.2,1.3-.7,1.8-1.2.9-2.1,1.1l2.3,3.2c.5.7,1,1.2,1.4,1.5s.9.4,1.5.5v.3ZM219,208.4c.1,0,.2,0,.3,0s.1,0,.2,0c1.1,0,1.9-.2,2.4-.7s.8-1.1.8-1.8-.2-1.3-.7-1.7-1-.7-1.7-.7-.8,0-1.3.2v4.7Z"/>
    <path d="M228.7,209.4c0,1.1.3,2,.8,2.7s1.2,1,2,1,.9-.1,1.3-.4.7-.7.9-1.4l.3.2c-.1.8-.5,1.5-1,2.1s-1.3.9-2.1.9-1.7-.4-2.3-1.1-1-1.7-1-2.9.3-2.3,1-3,1.5-1.1,2.5-1.1,1.6.3,2.1.8.8,1.3.8,2.3h-5.3ZM228.7,209h3.5c0-.5,0-.8-.2-1-.1-.3-.3-.6-.6-.7s-.6-.3-.9-.3c-.5,0-.9.2-1.2.5s-.6.9-.6,1.5Z"/>
    <path d="M237,211.4c-.5-.2-.8-.5-1.1-1s-.4-.9-.4-1.4c0-.8.3-1.4.9-1.9s1.3-.8,2.2-.8,1.4.2,1.9.5h1.6c.2,0,.4,0,.4,0s0,0,0,0c0,0,0,.1,0,.3s0,.2,0,.3c0,0,0,0,0,0s-.2,0-.4,0h-1c.3.4.5.9.5,1.5s-.3,1.3-.8,1.8-1.3.8-2.2.8-.8,0-1.2-.2c-.2.2-.4.4-.5.6s-.1.3-.1.4,0,.2.1.3.3.2.5.2c.2,0,.5,0,1.2,0,1.1,0,1.9,0,2.2.1.5,0,.9.3,1.2.6s.5.7.5,1.1-.3,1.2-.9,1.8c-.9.8-2,1.2-3.4,1.2s-2-.2-2.7-.7c-.4-.3-.6-.6-.6-.9s0-.3,0-.4c0-.2.3-.5.6-.9,0,0,.3-.3.8-.9-.3-.2-.5-.3-.6-.5s-.2-.3-.2-.5,0-.4.2-.7.5-.6,1.1-1.1ZM236.9,214.2c-.3.3-.5.5-.6.8s-.2.5-.2.7.2.5.5.7c.6.3,1.4.5,2.4.5s1.7-.2,2.2-.5.7-.7.7-1.1-.1-.5-.4-.6c-.3-.1-.9-.2-1.7-.2-1.2,0-2.2,0-2.9-.2ZM238.4,206.8c-.4,0-.8.2-1,.5s-.4.8-.4,1.5.2,1.6.6,2c.3.4.7.5,1.1.5s.8-.2,1-.5.4-.8.4-1.5-.2-1.6-.6-2.1c-.3-.4-.6-.5-1.1-.5Z"/>
    <path d="M245.7,206.4v1.7c.6-1.1,1.3-1.7,2-1.7s.6,0,.8.3.3.4.3.6,0,.4-.2.5-.3.2-.5.2-.4,0-.7-.3-.4-.3-.5-.3-.2,0-.3.2c-.2.2-.5.6-.8,1.1v3.6c0,.4,0,.7.2,1,0,.1.2.3.4.4s.4.1.8.1v.3h-3.9v-.3c.4,0,.7,0,.9-.2.1,0,.2-.2.3-.4,0,0,0-.4,0-.8v-3c0-.9,0-1.4,0-1.6s-.1-.3-.2-.4-.2-.1-.4-.1-.4,0-.6.1v-.3c0,0,2.2-.9,2.2-.9h.3Z"/>
    <path d="M250.4,209.4c0,1.1.3,2,.8,2.7s1.2,1,2,1,.9-.1,1.3-.4.7-.7.9-1.4l.3.2c-.1.8-.5,1.5-1,2.1s-1.3.9-2.1.9-1.7-.4-2.3-1.1-1-1.7-1-2.9.3-2.3,1-3,1.5-1.1,2.5-1.1,1.6.3,2.1.8.8,1.3.8,2.3h-5.3ZM250.4,209h3.5c0-.5,0-.8-.2-1-.1-.3-.3-.6-.6-.7s-.6-.3-.9-.3c-.5,0-.9.2-1.2.5s-.6.9-.6,1.5Z"/>
    <path d="M261.6,206.4v2.6h-.3c-.2-.8-.5-1.4-.8-1.7s-.7-.4-1.3-.4-.7.1-.9.3-.4.4-.4.7,0,.6.3.8c.2.2.5.5,1,.7l1.2.6c1.1.5,1.7,1.3,1.7,2.2s-.3,1.3-.8,1.7-1.1.6-1.8.6-1,0-1.6-.2c-.2,0-.3,0-.4,0s-.2,0-.3.2h-.3v-2.7h.3c.2.8.5,1.4.9,1.8s.9.6,1.5.6.7-.1.9-.3.4-.5.4-.8-.1-.7-.4-1-.8-.6-1.6-1-1.3-.8-1.6-1.1c-.2-.3-.4-.7-.4-1.2s.2-1.1.6-1.6,1-.6,1.7-.6.7,0,1.1.2c.3,0,.5.1.6.1s.2,0,.2,0,.1-.1.2-.3h.3Z"/>
    <path d="M268.2,206.4v2.6h-.3c-.2-.8-.5-1.4-.8-1.7s-.7-.4-1.3-.4-.7.1-.9.3-.4.4-.4.7,0,.6.3.8c.2.2.5.5,1,.7l1.2.6c1.1.5,1.7,1.3,1.7,2.2s-.3,1.3-.8,1.7-1.1.6-1.8.6-1,0-1.6-.2c-.2,0-.3,0-.4,0s-.2,0-.3.2h-.3v-2.7h.3c.2.8.5,1.4.9,1.8s.9.6,1.5.6.7-.1.9-.3.4-.5.4-.8-.1-.7-.4-1-.8-.6-1.6-1-1.3-.8-1.6-1.1c-.2-.3-.4-.7-.4-1.2s.2-1.1.6-1.6,1-.6,1.7-.6.7,0,1.1.2c.3,0,.5.1.6.1s.2,0,.2,0,.1-.1.2-.3h.3Z"/>
    <path d="M272.6,206.4v6.1c0,.5,0,.8.1,1s.2.3.3.4.4.1.7.1v.3h-3.7v-.3c.4,0,.6,0,.7-.1s.2-.2.3-.4.1-.5.1-1v-2.9c0-.8,0-1.4,0-1.6,0-.2,0-.3-.2-.4s-.2-.1-.3-.1-.3,0-.6.1v-.3c-.1,0,2.2-.9,2.2-.9h.4ZM271.9,202.4c.2,0,.4,0,.6.2s.2.4.2.6,0,.4-.2.6-.4.2-.6.2-.4,0-.6-.2-.2-.4-.2-.6,0-.4.2-.6.4-.2.6-.2Z"/>
    <path d="M278.4,206.4c1.2,0,2.1.4,2.8,1.3.6.7.9,1.6.9,2.6s-.2,1.4-.5,2.1-.8,1.2-1.4,1.6-1.2.5-1.9.5c-1.1,0-2.1-.5-2.7-1.4-.6-.8-.9-1.6-.9-2.6s.2-1.4.5-2.1.8-1.2,1.4-1.5,1.2-.5,1.8-.5ZM278.1,206.9c-.3,0-.6,0-.9.3s-.5.5-.7.9-.3,1-.3,1.7c0,1.1.2,2.1.7,2.9s1,1.2,1.7,1.2,1-.2,1.3-.7.5-1.2.5-2.3-.3-2.4-.9-3.2c-.4-.5-.9-.8-1.5-.8Z"/>
    <path d="M285.4,208c.9-1.1,1.7-1.6,2.6-1.6s.8.1,1.1.3.5.5.7,1c.1.3.2.8.2,1.5v3.2c0,.5,0,.8.1,1,0,.1.2.2.3.3s.4.1.8.1v.3h-3.8v-.3h.2c.4,0,.6,0,.7-.2s.2-.3.3-.5c0,0,0-.3,0-.8v-3.1c0-.7,0-1.2-.3-1.5s-.5-.5-.9-.5c-.7,0-1.3.4-2,1.1v4c0,.5,0,.8,0,1,0,.2.2.3.3.4s.4.1.8.1v.3h-3.8v-.3h.2c.4,0,.6,0,.8-.3s.2-.6.2-1.1v-2.8c0-.9,0-1.5,0-1.7s-.1-.3-.2-.4-.2-.1-.3-.1-.3,0-.6.1v-.3c-.1,0,2.2-.9,2.2-.9h.4v1.6Z"/>
    <path d="M291.8,209.7h4.3v1.3h-4.3v-1.3Z"/>
    <path d="M299.4,207.9c.7-1,1.5-1.5,2.4-1.5s1.5.3,2,1,.9,1.6.9,2.7-.4,2.4-1.3,3.3c-.8.7-1.6,1.1-2.6,1.1s-.9,0-1.4-.2-.9-.4-1.4-.7v-7.9c0-.9,0-1.4,0-1.6s-.1-.3-.2-.4-.2-.1-.3-.1-.3,0-.6.1v-.3c-.1,0,2.2-.9,2.2-.9h.4v5.5ZM299.4,208.4v4.6c.3.3.6.5.9.6s.6.2.9.2c.5,0,1-.3,1.4-.8s.7-1.4.7-2.4-.2-1.7-.7-2.2-.9-.8-1.5-.8-.6,0-.9.2c-.2.1-.5.3-.8.7Z"/>
    <path d="M310.2,213.1c-.8.6-1.3,1-1.5,1-.3.1-.6.2-1,.2-.5,0-1-.2-1.3-.5s-.5-.8-.5-1.4,0-.7.2-1c.2-.4.6-.7,1.2-1.1s1.5-.7,2.8-1.2v-.3c0-.8-.1-1.3-.4-1.6s-.6-.4-1.1-.4-.6,0-.8.3c-.2.2-.3.4-.3.6v.5c0,.3,0,.5-.2.6s-.3.2-.5.2-.4,0-.5-.2-.2-.3-.2-.6c0-.5.2-.9.7-1.3s1.2-.6,2.1-.6,1.2.1,1.7.3c.3.2.6.4.7.8,0,.2.1.7.1,1.5v2.6c0,.7,0,1.2,0,1.3s0,.3.1.3.1,0,.2,0,.2,0,.2,0c.1,0,.3-.3.7-.6v.5c-.6.8-1.2,1.2-1.8,1.2s-.5,0-.6-.3-.2-.5-.2-1ZM310.2,212.6v-2.9c-.8.3-1.4.6-1.6.7-.4.2-.8.5-.9.8s-.3.6-.3.9.1.7.4,1,.5.4.8.4,1-.3,1.7-.8Z"/>
    <path d="M318.3,206.4v2.6h-.3c-.2-.8-.5-1.4-.8-1.7s-.7-.4-1.3-.4-.7.1-.9.3-.4.4-.4.7,0,.6.3.8c.2.2.5.5,1,.7l1.2.6c1.1.5,1.7,1.3,1.7,2.2s-.3,1.3-.8,1.7-1.1.6-1.8.6-1,0-1.6-.2c-.2,0-.3,0-.4,0s-.2,0-.3.2h-.3v-2.7h.3c.2.8.5,1.4.9,1.8s.9.6,1.5.6.7-.1.9-.3.4-.5.4-.8-.1-.7-.4-1-.8-.6-1.6-1-1.3-.8-1.6-1.1c-.2-.3-.4-.7-.4-1.2s.2-1.1.6-1.6,1-.6,1.7-.6.7,0,1.1.2c.3,0,.5.1.6.1s.2,0,.2,0,.1-.1.2-.3h.3Z"/>
    <path d="M321.3,209.4c0,1.1.3,2,.8,2.7s1.2,1,2,1,.9-.1,1.3-.4.7-.7.9-1.4l.3.2c-.1.8-.5,1.5-1,2.1s-1.3.9-2.1.9-1.7-.4-2.3-1.1-1-1.7-1-2.9.3-2.3,1-3,1.5-1.1,2.5-1.1,1.6.3,2.1.8.8,1.3.8,2.3h-5.3ZM321.3,209h3.5c0-.5,0-.8-.2-1-.1-.3-.3-.6-.6-.7s-.6-.3-.9-.3c-.5,0-.9.2-1.2.5s-.6.9-.6,1.5Z"/>
    <path d="M333,213.3c-.4.4-.7.7-1.1.8s-.7.3-1.1.3c-.8,0-1.6-.3-2.2-1s-.9-1.6-.9-2.7.3-2.1,1-3,1.6-1.4,2.7-1.4,1.2.2,1.7.6v-1.4c0-.9,0-1.4,0-1.6s-.1-.3-.2-.4-.2-.1-.3-.1-.3,0-.6.1v-.3c-.1,0,2.2-.9,2.2-.9h.4v8.8c0,.9,0,1.4,0,1.6s.1.3.2.4.2.1.3.1.3,0,.6-.1v.3c0,0-2.2.9-2.2.9h-.4v-1.1ZM333,212.8v-3.9c0-.4-.1-.7-.3-1s-.4-.5-.7-.7-.5-.2-.8-.2c-.5,0-.9.2-1.3.7-.5.6-.8,1.4-.8,2.5s.2,2,.7,2.6,1,.9,1.6.9,1-.3,1.5-.8Z"/>
    <path d="M252,234.6l-4.4-9.5v7.5c0,.7,0,1.1.2,1.3.2.2.5.3,1,.3h.4v.3h-3.9v-.3h.4c.5,0,.8-.1,1-.4.1-.2.2-.6.2-1.2v-7.4c0-.5,0-.9-.2-1.1,0-.2-.2-.3-.4-.4s-.5-.2-1-.2v-.3h3.2l4.1,8.8,4-8.8h3.2v.3h-.4c-.5,0-.8.1-1,.4-.1.2-.2.6-.2,1.2v7.4c0,.7,0,1.1.2,1.3.2.2.5.3,1,.3h.4v.3h-4.8v-.3h.4c.5,0,.8-.1,1-.4.1-.2.2-.6.2-1.2v-7.5l-4.3,9.5h-.3Z"/>
    <path d="M262,229.9c0,1.1.3,2,.8,2.7s1.2,1,2,1,.9-.1,1.3-.4.7-.7.9-1.4l.3.2c-.1.8-.5,1.5-1,2.1s-1.3.9-2.1.9-1.7-.4-2.3-1.1-1-1.7-1-2.9.3-2.3,1-3,1.5-1.1,2.5-1.1,1.6.3,2.1.8.8,1.3.8,2.3h-5.3ZM262,229.4h3.5c0-.5,0-.8-.2-1-.1-.3-.3-.6-.6-.7s-.6-.3-.9-.3c-.5,0-.9.2-1.2.5s-.6.9-.6,1.5Z"/>
    <path d="M272.6,233.5c-.8.6-1.3,1-1.5,1-.3.1-.6.2-1,.2-.5,0-1-.2-1.3-.5s-.5-.8-.5-1.4,0-.7.2-1c.2-.4.6-.7,1.2-1.1s1.5-.7,2.8-1.2v-.3c0-.8-.1-1.3-.4-1.6s-.6-.4-1.1-.4-.6,0-.8.3c-.2.2-.3.4-.3.6v.5c0,.3,0,.5-.2.6s-.3.2-.5.2-.4,0-.5-.2-.2-.3-.2-.6c0-.5.2-.9.7-1.3s1.2-.6,2.1-.6,1.2.1,1.7.3c.3.2.6.4.7.8,0,.2.1.7.1,1.5v2.6c0,.7,0,1.2,0,1.3s0,.3.1.3.1,0,.2,0,.2,0,.2,0c.1,0,.3-.3.7-.6v.5c-.6.8-1.2,1.2-1.8,1.2s-.5,0-.6-.3-.2-.5-.2-1ZM272.6,233v-2.9c-.8.3-1.4.6-1.6.7-.4.2-.8.5-.9.8s-.3.6-.3.9.1.7.4,1,.5.4.8.4,1-.3,1.7-.8Z"/>
    <path d="M280.8,226.8v2.6h-.3c-.2-.8-.5-1.4-.8-1.7s-.7-.4-1.3-.4-.7.1-.9.3-.4.4-.4.7,0,.6.3.8c.2.2.5.5,1,.7l1.2.6c1.1.5,1.7,1.3,1.7,2.2s-.3,1.3-.8,1.7-1.1.6-1.8.6-1,0-1.6-.2c-.2,0-.3,0-.4,0s-.2,0-.3.2h-.3v-2.7h.3c.2.8.5,1.4.9,1.8s.9.6,1.5.6.7-.1.9-.3.4-.5.4-.8-.1-.7-.4-1-.8-.6-1.6-1-1.3-.8-1.6-1.1c-.2-.3-.4-.7-.4-1.2s.2-1.1.6-1.6,1-.6,1.7-.6.7,0,1.1.2c.3,0,.5.1.6.1s.2,0,.2,0,.1-.1.2-.3h.3Z"/>
    <path d="M289.1,227v4.6c0,.9,0,1.4,0,1.6s.1.3.2.4.2.1.3.1.4,0,.6-.1v.3c.1,0-2.2.9-2.2.9h-.4v-1.6c-.7.7-1.2,1.2-1.5,1.3s-.7.3-1.1.3-.8-.1-1.1-.4-.5-.6-.7-1-.2-.9-.2-1.6v-3.4c0-.4,0-.6-.1-.7s-.2-.2-.3-.3-.4-.1-.8-.1v-.3h2.7v5.1c0,.7.1,1.2.4,1.4s.5.3.9.3.5,0,.8-.2.7-.4,1.1-.9v-4.3c0-.4,0-.7-.2-.9s-.5-.2-1-.2v-.3h2.6Z"/>
    <path d="M293.2,226.8v1.7c.6-1.1,1.3-1.7,2-1.7s.6,0,.8.3.3.4.3.6,0,.4-.2.5-.3.2-.5.2-.4,0-.7-.3-.4-.3-.5-.3-.2,0-.3.2c-.2.2-.5.6-.8,1.1v3.6c0,.4,0,.7.2,1,0,.1.2.3.4.4s.4.1.8.1v.3h-3.9v-.3c.4,0,.7,0,.9-.2.1,0,.2-.2.3-.4,0,0,0-.4,0-.8v-3c0-.9,0-1.4,0-1.6s-.1-.3-.2-.4-.2-.1-.4-.1-.4,0-.6.1v-.3c0,0,2.2-.9,2.2-.9h.3Z"/>
    <path d="M297.9,229.9c0,1.1.3,2,.8,2.7s1.2,1,2,1,.9-.1,1.3-.4.7-.7.9-1.4l.3.2c-.1.8-.5,1.5-1,2.1s-1.3.9-2.1.9-1.7-.4-2.3-1.1-1-1.7-1-2.9.3-2.3,1-3,1.5-1.1,2.5-1.1,1.6.3,2.1.8.8,1.3.8,2.3h-5.3ZM297.9,229.4h3.5c0-.5,0-.8-.2-1-.1-.3-.3-.6-.6-.7s-.6-.3-.9-.3c-.5,0-.9.2-1.2.5s-.6.9-.6,1.5Z"/>
    <path d="M309.1,226.8v2.6h-.3c-.2-.8-.5-1.4-.8-1.7s-.7-.4-1.3-.4-.7.1-.9.3-.4.4-.4.7,0,.6.3.8c.2.2.5.5,1,.7l1.2.6c1.1.5,1.7,1.3,1.7,2.2s-.3,1.3-.8,1.7-1.1.6-1.8.6-1,0-1.6-.2c-.2,0-.3,0-.4,0s-.2,0-.3.2h-.3v-2.7h.3c.2.8.5,1.4.9,1.8s.9.6,1.5.6.7-.1.9-.3.4-.5.4-.8-.1-.7-.4-1-.8-.6-1.6-1-1.3-.8-1.6-1.1c-.2-.3-.4-.7-.4-1.2s.2-1.1.6-1.6,1-.6,1.7-.6.7,0,1.1.2c.3,0,.5.1.6.1s.2,0,.2,0,.1-.1.2-.3h.3Z"/>
  </g>
  <g>
    <path d="M111.9,355h-.3v-.4c0-.5-.1-.8-.4-1-.2-.1-.6-.2-1.2-.2h-7.1c-.7,0-1.1,0-1.3.2-.2.2-.4.5-.4.9v.4h-.3v-4.5c0-1.6.2-2.9.6-3.8s1-1.6,1.9-2.1,1.9-.8,3-.8,2.8.5,3.8,1.4c1.1,1,1.7,2.6,1.7,4.8v4.9ZM111.1,351.9c.2-.7.2-1.3.2-1.7,0-1.3-.4-2.3-1.3-3.1s-2.1-1.2-3.6-1.2-2.7.4-3.6,1.2-1.3,1.9-1.3,3.2,0,1,.2,1.7h9.4Z"/>
    <path d="M107.3,341.5c1.1,0,2-.3,2.6-.8s.9-1.2.9-1.9-.1-.9-.4-1.3-.7-.7-1.4-.9l.2-.3c.7.1,1.4.4,2,1s.9,1.2.9,2.1-.3,1.7-1,2.3-1.6,1-2.8,1-2.3-.3-3-1-1.1-1.5-1.1-2.5.3-1.5.8-2.1,1.3-.8,2.2-.8v5.1ZM106.8,341.5v-3.4c-.5,0-.8,0-1,.2-.3.1-.5.3-.7.6s-.3.5-.3.8c0,.5.2.9.5,1.2s.8.6,1.5.6Z"/>
    <path d="M109.1,329c1,.2,1.7.6,2.3,1.2s.8,1.2.8,1.9-.4,1.6-1.1,2.2-1.7.9-2.9.9-2.1-.3-2.9-1-1.1-1.5-1.1-2.5.2-1.3.6-1.8.8-.7,1.2-.7.4,0,.5.2.2.3.2.6-.1.6-.3.7c-.1,0-.3.2-.7.2s-.6.1-.7.3c-.2.2-.2.5-.2.8,0,.5.2,1,.6,1.3.5.4,1.2.7,2.1.7s1.7-.2,2.4-.7,1-1,1-1.8-.2-1-.5-1.4c-.2-.3-.7-.6-1.4-.9v-.2Z"/>
    <path d="M104.3,324.3c0-1.1.4-2,1.3-2.7.7-.6,1.6-.9,2.5-.9s1.3.2,2,.5,1.2.8,1.5,1.3.5,1.2.5,1.9c0,1.1-.4,2-1.3,2.7-.8.6-1.6.8-2.5.8s-1.4-.2-2-.5-1.2-.8-1.5-1.3-.5-1.1-.5-1.8ZM104.8,324.6c0,.3,0,.6.3.9s.5.5.9.7,1,.3,1.7.3c1.1,0,2-.2,2.8-.6s1.2-1,1.2-1.7-.2-1-.7-1.3-1.2-.5-2.2-.5-2.4.3-3.1.9c-.5.4-.8.9-.8,1.5Z"/>
    <path d="M105.8,317.4c-.5-.5-.9-.9-.9-1-.2-.2-.4-.5-.5-.8s-.2-.6-.2-.8c0-.5.1-.9.4-1.2s.7-.6,1.2-.7c-.7-.6-1.1-1-1.3-1.4s-.3-.8-.3-1.2.1-.7.3-1.1.5-.5,1-.7c.3-.1.8-.2,1.5-.2h3.2c.5,0,.8,0,1-.1.1,0,.2-.2.3-.3s.1-.4.1-.7h.3v3.7h-.3v-.2c0-.3,0-.6-.2-.7,0-.1-.2-.2-.4-.3,0,0-.4,0-.8,0h-3.2c-.6,0-1,0-1.3.2-.3.2-.5.6-.5,1s0,.6.2.9.4.6.8,1.1h0s.3,0,.3,0h3.6c.5,0,.8,0,1,0s.2-.2.3-.3.1-.4.1-.8h.3v3.8h-.3c0-.4,0-.7-.1-.8s-.2-.3-.4-.3c0,0-.4,0-.8,0h-3.2c-.6,0-1,0-1.3.3-.3.2-.5.6-.5,1s0,.6.2.9c.2.5.5.8.8,1h4c.5,0,.8,0,1-.1s.3-.2.3-.3.1-.4.1-.8h.3v3.7h-.3c0-.3,0-.6-.1-.7s-.2-.2-.3-.3-.5-.1-.9-.1h-2.8c-.8,0-1.3,0-1.6,0-.2,0-.3,0-.4.2s-.1.2-.1.3,0,.3.1.5h-.3c0,.1-.9-2.1-.9-2.1v-.3h1.6Z"/>
    <path d="M105.2,307.2l-.9-2.3v-.3h1.7c-.7-.4-1.1-.8-1.4-1.2s-.4-.8-.4-1.2c0-.7.3-1.4.9-1.9.7-.6,1.6-.9,2.8-.9s2.3.4,3.2,1.1c.7.6,1,1.4,1,2.3s0,.7-.2,1c0,.2-.2.5-.5.7h2.3c.5,0,.8,0,1,0s.2-.2.3-.3.1-.4.1-.8h.3v3.9h-.3v-.2c0-.3,0-.6-.2-.8,0-.1-.2-.2-.3-.2s-.5,0-1,0h-7c-.5,0-.8,0-.9,0s-.2.1-.3.2,0,.2,0,.4,0,.3.1.5h-.3ZM106.5,304.6h2.8c.6,0,1,0,1.2,0,.3,0,.6-.3.8-.6s.4-.7.4-1.1-.2-1-.6-1.3c-.6-.4-1.3-.7-2.3-.7s-2,.2-2.6.7c-.4.3-.6.8-.6,1.2s0,.5.2.8c0,.2.4.5.9,1Z"/>
    <path d="M104.3,294.7c0-1.1.4-2,1.3-2.7.7-.6,1.6-.9,2.5-.9s1.3.2,2,.5,1.2.8,1.5,1.3.5,1.2.5,1.9c0,1.1-.4,2-1.3,2.7-.8.6-1.6.8-2.5.8s-1.4-.2-2-.5-1.2-.8-1.5-1.3-.5-1.1-.5-1.8ZM104.8,295c0,.3,0,.6.3.9s.5.5.9.7,1,.3,1.7.3c1.1,0,2-.2,2.8-.6s1.2-1,1.2-1.7-.2-1-.7-1.3-1.2-.5-2.2-.5-2.4.3-3.1.9c-.5.4-.8.9-.8,1.5Z"/>
    <path d="M104.3,285.2h2.5v.3c-.8.2-1.3.5-1.6.8s-.4.7-.4,1.2.1.7.3.9.4.3.7.3.6,0,.8-.3c.2-.2.5-.5.7-1l.6-1.2c.5-1.1,1.2-1.7,2.1-1.7s1.2.3,1.6.8.6,1.1.6,1.7,0,1-.2,1.6c0,.2,0,.3,0,.4s0,.2.2.3v.3h-2.7v-.3c.8-.2,1.3-.4,1.7-.9s.6-.9.6-1.4-.1-.7-.3-.9-.5-.4-.8-.4-.7.1-.9.4-.6.8-1,1.6-.7,1.3-1.1,1.5c-.3.2-.7.4-1.2.4s-1.1-.2-1.5-.6-.6-1-.6-1.6,0-.6.2-1.1c0-.3.1-.5.1-.6s0-.2,0-.2-.1-.1-.3-.2v-.3Z"/>
    <path d="M104.3,281h6c.5,0,.8,0,.9-.1s.3-.2.3-.3.1-.4.1-.7h.3v3.6h-.3c0-.4,0-.6-.1-.7s-.2-.2-.3-.3-.5-.1-.9-.1h-2.9c-.8,0-1.3,0-1.6,0-.2,0-.3,0-.4.2s-.1.2-.1.3,0,.3.1.6h-.3c0,.1-.9-2.1-.9-2.1v-.4ZM100.4,281.7c0-.2,0-.4.2-.6s.4-.2.6-.2.4,0,.6.2.2.4.2.6,0,.4-.2.6-.4.2-.6.2-.4,0-.6-.2-.2-.4-.2-.6Z"/>
    <path d="M102,276.8h2.4v-1.7h.6v1.7h4.8c.5,0,.8,0,1-.2s.3-.3.3-.5,0-.4-.2-.5-.3-.3-.5-.4v-.3c.5.2.9.5,1.2.8s.4.7.4,1.1,0,.5-.2.7-.3.4-.6.5-.7.2-1.2.2h-5v1.2h-.3c-.1-.3-.3-.6-.6-.9s-.6-.6-1-.8c-.2-.1-.6-.3-1.1-.5v-.3Z"/>
    <path d="M104.3,271.7h6c.5,0,.8,0,.9-.1s.3-.2.3-.3.1-.4.1-.7h.3v3.6h-.3c0-.4,0-.6-.1-.7s-.2-.2-.3-.3-.5-.1-.9-.1h-2.9c-.8,0-1.3,0-1.6,0-.2,0-.3,0-.4.2s-.1.2-.1.3,0,.3.1.6h-.3c0,.1-.9-2.1-.9-2.1v-.4ZM100.4,272.4c0-.2,0-.4.2-.6s.4-.2.6-.2.4,0,.6.2.2.4.2.6,0,.4-.2.6-.4.2-.6.2-.4,0-.6-.2-.2-.4-.2-.6Z"/>
    <path d="M104.3,266c0-1.1.4-2,1.3-2.7.7-.6,1.6-.9,2.5-.9s1.3.2,2,.5,1.2.8,1.5,1.3.5,1.2.5,1.9c0,1.1-.4,2-1.3,2.7-.8.6-1.6.8-2.5.8s-1.4-.2-2-.5-1.2-.8-1.5-1.3-.5-1.1-.5-1.8ZM104.8,266.3c0,.3,0,.6.3.9s.5.5.9.7,1,.3,1.7.3c1.1,0,2-.2,2.8-.6s1.2-1,1.2-1.7-.2-1-.7-1.3-1.2-.5-2.2-.5-2.4.3-3.1.9c-.5.4-.8.9-.8,1.5Z"/>
    <path d="M105.8,259.2c-1.1-.9-1.6-1.7-1.6-2.5s.1-.8.3-1,.5-.5,1-.7c.3-.1.8-.2,1.5-.2h3.2c.5,0,.8,0,1-.1.1,0,.2-.2.3-.3s.1-.4.1-.7h.3v3.7h-.3v-.2c0-.3,0-.6-.2-.7s-.3-.2-.5-.3c0,0-.3,0-.8,0h-3.1c-.7,0-1.2,0-1.5.3s-.5.5-.5.9c0,.6.4,1.3,1.1,1.9h3.9c.5,0,.8,0,.9,0,.2,0,.3-.2.3-.3s.1-.4.1-.8h.3v3.7h-.3v-.2c0-.4,0-.6-.3-.8s-.6-.2-1.1-.2h-2.8c-.9,0-1.4,0-1.6,0s-.3.1-.4.2-.1.2-.1.3,0,.3.1.5h-.3c0,.1-.9-2.1-.9-2.1v-.3h1.6Z"/>
    <path d="M100.4,248.9l11.8,4v.7l-11.8-4v-.7Z"/>
    <path d="M120.6,368.7h3.8v.3c-.7,0-1.3.3-1.7.5s-.8.6-1,1.1-.4.9-.4,1.4.2,1,.5,1.4.7.6,1.2.6.6-.1.9-.3c.4-.3.9-1.1,1.6-2.4.6-1,1-1.7,1.3-2.1s.6-.7,1-.9.8-.3,1.3-.3c.8,0,1.6.3,2.2,1s.9,1.5.9,2.5,0,.6,0,.9c0,.2-.1.5-.3,1s-.3.9-.3,1,0,.2.1.3.2.1.5.2v.3h-3.8v-.3c.8-.1,1.4-.3,1.8-.6s.7-.6,1-1.1.4-1,.4-1.6-.2-1.2-.5-1.6-.8-.6-1.3-.6-.5,0-.8.2-.5.4-.8.7c-.2.2-.5.8-1,1.7s-1,1.6-1.3,2-.7.7-1,.9-.8.3-1.3.3c-.8,0-1.5-.3-2-.9s-.9-1.4-.9-2.3.1-1.2.4-1.9c.1-.3.2-.5.2-.6s0-.3-.1-.3-.3-.2-.5-.2v-.3Z"/>
    <path d="M122,364.4h2.4v-1.7h.6v1.7h4.8c.5,0,.8,0,1-.2s.3-.3.3-.5,0-.4-.2-.5-.3-.3-.5-.4v-.3c.5.2.9.5,1.2.8s.4.7.4,1.1,0,.5-.2.7-.3.4-.6.5-.7.2-1.2.2h-5v1.2h-.3c-.1-.3-.3-.6-.6-.9s-.6-.6-1-.8c-.2-.1-.6-.3-1.1-.5v-.3Z"/>
    <path d="M124.2,359.8h1.7c-1.1-.6-1.7-1.3-1.7-1.9s0-.5.3-.7.4-.3.6-.3.4,0,.5.2.2.3.2.5,0,.4-.3.6-.3.4-.3.5,0,.2.2.3c.2.2.6.5,1.1.8h3.6c.4,0,.7,0,.9-.2.1,0,.3-.2.4-.4s.1-.4.1-.8h.3v3.8h-.3c0-.4,0-.7-.2-.8,0-.1-.2-.2-.4-.3,0,0-.4,0-.8,0h-2.9c-.9,0-1.4,0-1.5,0s-.3.1-.4.2-.1.2-.1.4,0,.4.1.6h-.3c0,0-.9-2.2-.9-2.2v-.3Z"/>
    <path d="M124.5,349.9h4.5c.9,0,1.4,0,1.6,0s.3-.1.4-.2.1-.2.1-.3,0-.4-.1-.6h.3c0-.1.9,2.1.9,2.1v.4h-1.6c.7.6,1.1,1.1,1.3,1.5s.3.7.3,1.1-.1.8-.4,1.1-.6.5-.9.6-.9.2-1.6.2h-3.3c-.4,0-.6,0-.7.1s-.2.2-.3.3-.1.4-.1.8h-.3v-2.6h5c.7,0,1.1-.1,1.4-.4s.3-.5.3-.9,0-.5-.2-.8-.4-.6-.8-1.1h-4.2c-.4,0-.7,0-.9.2s-.2.5-.2,1h-.3v-2.5Z"/>
    <path d="M129.1,341.7c1,.2,1.7.6,2.3,1.2s.8,1.2.8,1.9-.4,1.6-1.1,2.2-1.7.9-2.9.9-2.1-.3-2.9-1-1.1-1.5-1.1-2.5.2-1.3.6-1.8.8-.7,1.2-.7.4,0,.5.2.2.3.2.6-.1.6-.3.7c-.1,0-.3.2-.7.2s-.6.1-.7.3c-.2.2-.2.5-.2.8,0,.5.2,1,.6,1.3.5.4,1.2.7,2.1.7s1.7-.2,2.4-.7,1-1,1-1.8-.2-1-.5-1.4c-.2-.3-.7-.6-1.4-.9v-.2Z"/>
    <path d="M122,338.5h2.4v-1.7h.6v1.7h4.8c.5,0,.8,0,1-.2s.3-.3.3-.5,0-.4-.2-.5-.3-.3-.5-.4v-.3c.5.2.9.5,1.2.8s.4.7.4,1.1,0,.5-.2.7-.3.4-.6.5-.7.2-1.2.2h-5v1.2h-.3c-.1-.3-.3-.6-.6-.9s-.6-.6-1-.8c-.2-.1-.6-.3-1.1-.5v-.3Z"/>
    <path d="M124.5,329.5h4.5c.9,0,1.4,0,1.6,0s.3-.1.4-.2.1-.2.1-.3,0-.4-.1-.6h.3c0-.1.9,2.1.9,2.1v.4h-1.6c.7.6,1.1,1.1,1.3,1.5s.3.7.3,1.1-.1.8-.4,1.1-.6.5-.9.6-.9.2-1.6.2h-3.3c-.4,0-.6,0-.7.1s-.2.2-.3.3-.1.4-.1.8h-.3v-2.6h5c.7,0,1.1-.1,1.4-.4s.3-.5.3-.9,0-.5-.2-.8-.4-.6-.8-1.1h-4.2c-.4,0-.7,0-.9.2s-.2.5-.2,1h-.3v-2.5Z"/>
    <path d="M124.2,325.5h1.7c-1.1-.6-1.7-1.3-1.7-1.9s0-.5.3-.7.4-.3.6-.3.4,0,.5.2.2.3.2.5,0,.4-.3.6-.3.4-.3.5,0,.2.2.3c.2.2.6.5,1.1.8h3.6c.4,0,.7,0,.9-.2.1,0,.3-.2.4-.4s.1-.4.1-.8h.3v3.8h-.3c0-.4,0-.7-.2-.8,0-.1-.2-.2-.4-.3,0,0-.4,0-.8,0h-2.9c-.9,0-1.4,0-1.5,0s-.3.1-.4.2-.1.2-.1.4,0,.4.1.6h-.3c0,0-.9-2.2-.9-2.2v-.3Z"/>
    <path d="M130.8,317.9c.6.8.9,1.2,1,1.4.1.3.2.6.2.9,0,.5-.2.9-.5,1.3s-.8.5-1.4.5-.7,0-.9-.2c-.4-.2-.7-.6-1-1.2s-.7-1.5-1.2-2.7h-.3c-.7,0-1.3.1-1.5.4s-.4.6-.4,1,0,.6.3.8c.2.2.4.3.6.3h.5c.2,0,.4,0,.6.2s.2.3.2.5,0,.4-.2.5-.3.2-.6.2c-.5,0-.9-.2-1.3-.7s-.6-1.1-.6-2,.1-1.2.3-1.6c.2-.3.4-.6.8-.7.2,0,.7-.1,1.4-.1h2.5c.7,0,1.1,0,1.3,0s.3,0,.3-.1,0-.1,0-.2,0-.2,0-.2c0-.1-.3-.3-.6-.7h.5c.8.6,1.2,1.2,1.2,1.7s0,.5-.3.6-.5.2-.9.2ZM130.3,317.9h-2.8c.3.8.6,1.3.7,1.6.2.4.5.7.7.9s.5.3.9.3.7-.1,1-.3.4-.5.4-.8-.3-1-.8-1.6Z"/>
    <path d="M120.4,312.2h9.9c.5,0,.8,0,.9-.1s.3-.2.3-.3.1-.4.1-.8h.3v3.7h-.3c0-.3,0-.6-.1-.7s-.2-.2-.3-.3-.5-.1-.9-.1h-6.8c-.8,0-1.4,0-1.5,0s-.3,0-.4.2-.1.2-.1.3,0,.3.1.5h-.3c0,.1-.9-2.1-.9-2.1v-.4Z"/>
    <path d="M128.2,299.8v4.3l1.7.7c.4.2.7.3,1,.3s.3,0,.4-.2.2-.5.2-1h.3v3.5h-.3c0-.5-.2-.8-.3-.9-.3-.3-.8-.6-1.6-.9l-9.1-3.9v-.3l9.2-3.8c.7-.3,1.2-.6,1.4-.8s.3-.6.4-1.1h.3v4.4h-.3c0-.4,0-.7-.2-.9s-.3-.2-.5-.2-.6.1-1.1.3l-1.6.7ZM127.6,300l-4.5,1.9,4.5,1.9v-3.8Z"/>
    <path d="M125.2,295.4l-.9-2.3v-.3h1.7c-.7-.4-1.1-.8-1.4-1.2s-.4-.8-.4-1.2c0-.7.3-1.4.9-1.9.7-.6,1.6-.9,2.8-.9s2.3.4,3.2,1.1c.7.6,1,1.4,1,2.3s0,.7-.2,1c0,.2-.2.5-.5.7h2.3c.5,0,.8,0,1,0s.2-.2.3-.3.1-.4.1-.8h.3v3.9h-.3v-.2c0-.3,0-.6-.2-.8,0-.1-.2-.2-.3-.2s-.5,0-1,0h-7c-.5,0-.8,0-.9,0s-.2.1-.3.2,0,.2,0,.4,0,.3.1.5h-.3ZM126.5,292.8h2.8c.6,0,1,0,1.2,0,.3,0,.6-.3.8-.6s.4-.7.4-1.1-.2-1-.6-1.3c-.6-.4-1.3-.7-2.3-.7s-2,.2-2.6.7c-.4.3-.6.8-.6,1.2s0,.5.2.8c0,.2.4.5.9,1Z"/>
    <path d="M125.2,287.1l-.9-2.3v-.3h1.7c-.7-.4-1.1-.8-1.4-1.2s-.4-.8-.4-1.2c0-.7.3-1.4.9-1.9.7-.6,1.6-.9,2.8-.9s2.3.4,3.2,1.1c.7.6,1,1.4,1,2.3s0,.7-.2,1c0,.2-.2.5-.5.7h2.3c.5,0,.8,0,1,0s.2-.2.3-.3.1-.4.1-.8h.3v3.9h-.3v-.2c0-.3,0-.6-.2-.8,0-.1-.2-.2-.3-.2s-.5,0-1,0h-7c-.5,0-.8,0-.9,0s-.2.1-.3.2,0,.2,0,.4,0,.3.1.5h-.3ZM126.5,284.5h2.8c.6,0,1,0,1.2,0,.3,0,.6-.3.8-.6s.4-.7.4-1.1-.2-1-.6-1.3c-.6-.4-1.3-.7-2.3-.7s-2,.2-2.6.7c-.4.3-.6.8-.6,1.2s0,.5.2.8c0,.2.4.5.9,1Z"/>
    <path d="M124.2,276h1.7c-1.1-.6-1.7-1.3-1.7-1.9s0-.5.3-.7.4-.3.6-.3.4,0,.5.2.2.3.2.5,0,.4-.3.6-.3.4-.3.5,0,.2.2.3c.2.2.6.5,1.1.8h3.6c.4,0,.7,0,.9-.2.1,0,.3-.2.4-.4s.1-.4.1-.8h.3v3.8h-.3c0-.4,0-.7-.2-.8,0-.1-.2-.2-.4-.3,0,0-.4,0-.8,0h-2.9c-.9,0-1.4,0-1.5,0s-.3.1-.4.2-.1.2-.1.4,0,.4.1.6h-.3c0,0-.9-2.2-.9-2.2v-.3Z"/>
    <path d="M124.2,269c0-1.1.4-2,1.3-2.7.7-.6,1.6-.9,2.5-.9s1.3.2,2,.5,1.2.8,1.5,1.3.5,1.2.5,1.9c0,1.1-.4,2-1.3,2.7-.8.6-1.6.8-2.5.8s-1.4-.2-2-.5-1.2-.8-1.5-1.3-.5-1.1-.5-1.8ZM124.8,269.3c0,.3,0,.6.3.9s.5.5.9.7,1,.3,1.7.3c1.1,0,2-.2,2.8-.6s1.2-1,1.2-1.7-.2-1-.7-1.3-1.2-.5-2.2-.5-2.4.3-3.1.9c-.5.4-.8.9-.8,1.5Z"/>
    <path d="M130.8,260.1c.6.8.9,1.2,1,1.4.1.3.2.6.2.9,0,.5-.2.9-.5,1.3s-.8.5-1.4.5-.7,0-.9-.2c-.4-.2-.7-.6-1-1.2s-.7-1.5-1.2-2.7h-.3c-.7,0-1.3.1-1.5.4s-.4.6-.4,1,0,.6.3.8c.2.2.4.3.6.3h.5c.2,0,.4,0,.6.2s.2.3.2.5,0,.4-.2.5-.3.2-.6.2c-.5,0-.9-.2-1.3-.7s-.6-1.1-.6-2,.1-1.2.3-1.6c.2-.3.4-.6.8-.7.2,0,.7-.1,1.4-.1h2.5c.7,0,1.1,0,1.3,0s.3,0,.3-.1,0-.1,0-.2,0-.2,0-.2c0-.1-.3-.3-.6-.7h.5c.8.6,1.2,1.2,1.2,1.7s0,.5-.3.6-.5.2-.9.2ZM130.3,260.1h-2.8c.3.8.6,1.3.7,1.6.2.4.5.7.7.9s.5.3.9.3.7-.1,1-.3.4-.5.4-.8-.3-1-.8-1.6Z"/>
    <path d="M129.1,250.6c1,.2,1.7.6,2.3,1.2s.8,1.2.8,1.9-.4,1.6-1.1,2.2-1.7.9-2.9.9-2.1-.3-2.9-1-1.1-1.5-1.1-2.5.2-1.3.6-1.8.8-.7,1.2-.7.4,0,.5.2.2.3.2.6-.1.6-.3.7c-.1,0-.3.2-.7.2s-.6.1-.7.3c-.2.2-.2.5-.2.8,0,.5.2,1,.6,1.3.5.4,1.2.7,2.1.7s1.7-.2,2.4-.7,1-1,1-1.8-.2-1-.5-1.4c-.2-.3-.7-.6-1.4-.9v-.2Z"/>
    <path d="M120.4,247.4h5.4c-.7-.6-1.1-1.1-1.3-1.4s-.3-.7-.3-1.1.1-.8.3-1.1.6-.5,1.1-.7c.3-.1,1-.2,1.9-.2h2.6c.5,0,.8,0,1-.1.1,0,.2-.1.3-.3s.1-.4.1-.7h.3v3.7h-.3v-.2c0-.3,0-.6-.2-.7s-.3-.2-.5-.3c0,0-.3,0-.8,0h-2.6c-.8,0-1.3,0-1.6.1s-.4.2-.6.4-.2.4-.2.7,0,.5.2.8.4.6.9,1h3.9c.5,0,.8,0,1,0s.2-.2.3-.3.1-.4.1-.8h.3v3.7h-.3c0-.3,0-.6-.2-.8,0-.1-.2-.2-.3-.3s-.5,0-.9,0h-6.7c-.9,0-1.4,0-1.6,0s-.3.1-.4.2-.1.2-.1.3,0,.3.1.6h-.3c0,.1-.9-2.1-.9-2.1v-.4Z"/>
    <path d="M127.3,240c1.1,0,2-.3,2.6-.8s.9-1.2.9-1.9-.1-.9-.4-1.3-.7-.7-1.4-.9l.2-.3c.7.1,1.4.4,2,1s.9,1.2.9,2.1-.3,1.7-1,2.3-1.6,1-2.8,1-2.3-.3-3-1-1.1-1.5-1.1-2.5.3-1.5.8-2.1,1.3-.8,2.2-.8v5.1ZM126.8,240v-3.4c-.5,0-.8,0-1,.2-.3.1-.5.3-.7.6s-.3.5-.3.8c0,.5.2.9.5,1.2s.8.6,1.5.6Z"/>
    <path d="M124.2,229h2.5v.3c-.8.2-1.3.5-1.6.8s-.4.7-.4,1.2.1.7.3.9.4.3.7.3.6,0,.8-.3c.2-.2.5-.5.7-1l.6-1.2c.5-1.1,1.2-1.7,2.1-1.7s1.2.3,1.6.8.6,1.1.6,1.7,0,1-.2,1.6c0,.2,0,.3,0,.4s0,.2.2.3v.3h-2.7v-.3c.8-.2,1.3-.4,1.7-.9s.6-.9.6-1.4-.1-.7-.3-.9-.5-.4-.8-.4-.7.1-.9.4-.6.8-1,1.6-.7,1.3-1.1,1.5c-.3.2-.7.4-1.2.4s-1.1-.2-1.5-.6-.6-1-.6-1.6,0-.6.2-1.1c0-.3.1-.5.1-.6s0-.2,0-.2-.1-.1-.3-.2v-.3Z"/>
  </g>
  <g>
    <path class="st64" d="M404.5,288.7h-3.6l-.6,1.5c-.2.4-.2.6-.2.8s0,.3.2.4.4.2.9.2v.3h-3v-.3c.4,0,.6-.2.8-.3.2-.2.5-.7.8-1.4l3.3-7.7h.2l3.3,7.8c.3.6.5,1,.7,1.2s.5.3.9.3v.3h-3.7v-.3c.4,0,.6,0,.8-.2s.2-.2.2-.4,0-.5-.3-1l-.6-1.4ZM404.3,288.2l-1.6-3.8-1.6,3.8h3.2Z"/>
    <path class="st64" d="M410.4,286.6c.6-.9,1.3-1.3,2-1.3s1.2.3,1.7.8.7,1.3.7,2.3-.4,2-1.1,2.7c-.6.6-1.4.9-2.2.9s-.7,0-1.1-.2-.8-.3-1.2-.6v-6.6c0-.7,0-1.2,0-1.3s0-.3-.2-.3-.2,0-.3,0-.3,0-.5.1v-.2c0,0,1.8-.8,1.8-.8h.3v4.6ZM410.4,287.1v3.8c.2.2.5.4.7.5s.5.2.8.2c.4,0,.8-.2,1.2-.7s.5-1.1.5-2-.2-1.4-.5-1.9-.8-.7-1.2-.7-.5,0-.7.2c-.2,0-.4.3-.7.6Z"/>
    <path class="st64" d="M419.9,285.3v2.2h-.2c-.2-.7-.4-1.1-.7-1.4s-.6-.4-1.1-.4-.6,0-.8.3-.3.4-.3.6,0,.5.2.7c.1.2.4.4.9.6l1,.5c.9.5,1.4,1.1,1.4,1.8s-.2,1-.7,1.4-.9.5-1.5.5-.8,0-1.3-.2c-.2,0-.3,0-.4,0s-.2,0-.2.2h-.2v-2.3h.2c.1.6.4,1.1.7,1.5s.8.5,1.2.5.6,0,.8-.3.3-.4.3-.7-.1-.6-.3-.8-.7-.5-1.3-.8-1.1-.6-1.3-.9c-.2-.3-.3-.6-.3-1s.2-1,.5-1.3.8-.5,1.4-.5.6,0,.9.2c.2,0,.4.1.5.1s.1,0,.2,0,0-.1.1-.2h.2Z"/>
    <path class="st64" d="M424.4,285.3c1,0,1.7.4,2.3,1.1.5.6.7,1.3.7,2.2s-.1,1.1-.4,1.7-.7,1-1.1,1.3-1,.4-1.6.4c-1,0-1.7-.4-2.3-1.1-.5-.6-.7-1.4-.7-2.2s.1-1.2.4-1.7.7-1,1.1-1.3,1-.4,1.5-.4ZM424.2,285.8c-.2,0-.5,0-.7.2s-.4.4-.6.8-.2.8-.2,1.4c0,.9.2,1.7.6,2.4s.9,1,1.5,1,.8-.2,1.1-.6.4-1,.4-1.9-.2-2-.7-2.7c-.3-.4-.7-.7-1.3-.7Z"/>
    <path class="st64" d="M430.6,282v8.4c0,.4,0,.7,0,.8s.1.2.3.3.3.1.7.1v.2h-3.1v-.2c.3,0,.5,0,.6,0s.2-.2.2-.3,0-.4,0-.8v-5.8c0-.7,0-1.2,0-1.3s0-.3-.2-.3-.2,0-.3,0-.3,0-.5.1v-.2c-.1,0,1.8-.8,1.8-.8h.3Z"/>
    <path class="st64" d="M438,285.5v3.9c0,.7,0,1.2,0,1.4s0,.3.2.3.2,0,.3,0,.3,0,.5-.1v.2c0,0-1.8.8-1.8.8h-.3v-1.3c-.5.6-1,1-1.2,1.1s-.6.2-.9.2-.7-.1-.9-.3-.4-.5-.5-.8-.2-.8-.2-1.4v-2.8c0-.3,0-.5,0-.6s-.2-.2-.3-.3-.4,0-.7,0v-.3h2.2v4.3c0,.6.1,1,.3,1.2s.5.3.7.3.4,0,.7-.2.6-.4.9-.7v-3.6c0-.4,0-.6-.2-.7s-.4-.2-.8-.2v-.3h2.2Z"/>
    <path class="st64" d="M441.3,283.4v2.1h1.5v.5h-1.5v4.1c0,.4,0,.7.2.8s.3.2.5.2.3,0,.4-.1.3-.2.3-.4h.3c-.2.5-.4.8-.7,1s-.6.3-.9.3-.4,0-.6-.2-.4-.3-.5-.5-.1-.6-.1-1v-4.3h-1v-.2c.3-.1.5-.3.8-.5s.5-.5.7-.9c.1-.2.3-.5.4-1h.2Z"/>
    <path class="st64" d="M444.5,287.9c0,.9.2,1.7.7,2.2s1,.8,1.6.8.8-.1,1.1-.3.6-.6.8-1.2h.2c0,.8-.4,1.4-.8,1.9s-1.1.8-1.8.8-1.4-.3-2-.9-.8-1.4-.8-2.4.3-1.9.8-2.5,1.3-.9,2.1-.9,1.3.2,1.8.7.7,1.1.7,1.9h-4.4ZM444.5,287.5h2.9c0-.4,0-.7-.1-.9-.1-.3-.3-.5-.5-.6s-.5-.2-.7-.2c-.4,0-.7.1-1,.4s-.5.7-.5,1.2Z"/>
    <path class="st64" d="M404.6,308.9l-3.6-7.9v6.3c0,.6,0,.9.2,1.1.2.2.4.3.8.3h.3v.3h-3.3v-.3h.3c.4,0,.7-.1.8-.4.1-.1.2-.5.2-1v-6.2c0-.4,0-.7-.1-.9,0-.1-.2-.2-.4-.3s-.5-.1-.8-.1v-.3h2.7l3.4,7.4,3.4-7.4h2.7v.3h-.3c-.4,0-.7.1-.9.4-.1.1-.2.5-.2,1v6.2c0,.6,0,.9.2,1.1.2.2.4.3.8.3h.3v.3h-4v-.3h.3c.4,0,.7-.1.8-.4.1-.1.2-.5.2-1v-6.3l-3.6,7.9h-.2Z"/>
    <path class="st64" d="M415,302.4c1,0,1.7.4,2.3,1.1.5.6.7,1.3.7,2.2s-.1,1.1-.4,1.7-.7,1-1.1,1.3-1,.4-1.6.4c-1,0-1.7-.4-2.3-1.1-.5-.6-.7-1.4-.7-2.2s.1-1.2.4-1.7.7-1,1.1-1.3,1-.4,1.5-.4ZM414.7,302.8c-.2,0-.5,0-.7.2s-.4.4-.6.8-.2.8-.2,1.4c0,.9.2,1.7.6,2.4s.9,1,1.5,1,.8-.2,1.1-.6.4-1,.4-1.9-.2-2-.7-2.7c-.3-.4-.7-.7-1.3-.7Z"/>
    <path class="st64" d="M420.7,303.7c.6-.9,1.3-1.3,2-1.3s1.2.3,1.7.8.7,1.3.7,2.3-.4,2-1.1,2.7c-.6.6-1.4.9-2.2.9s-.7,0-1.1-.2-.8-.3-1.2-.6v-6.6c0-.7,0-1.2,0-1.3s0-.3-.2-.3-.2,0-.3,0-.3,0-.5.1v-.2c0,0,1.8-.8,1.8-.8h.3v4.6ZM420.7,304.1v3.8c.2.2.5.4.7.5s.5.2.8.2c.4,0,.8-.2,1.2-.7s.5-1.1.5-2-.2-1.4-.5-1.9-.8-.7-1.2-.7-.5,0-.7.2c-.2,0-.4.3-.7.6Z"/>
    <path class="st64" d="M428.3,302.4v5.1c0,.4,0,.7,0,.8s.1.2.3.3.3,0,.6,0v.2h-3.1v-.2c.3,0,.5,0,.6,0s.2-.2.3-.3,0-.4,0-.8v-2.5c0-.7,0-1.1,0-1.3,0-.1,0-.3-.2-.3s-.2,0-.3,0-.3,0-.5.1v-.2c0,0,1.8-.8,1.8-.8h.3ZM427.7,299.1c.2,0,.4,0,.5.2s.2.3.2.5,0,.4-.2.5-.3.2-.5.2-.4,0-.5-.2-.2-.3-.2-.5,0-.4.2-.5.3-.2.5-.2Z"/>
    <path class="st64" d="M432.2,299.1v8.4c0,.4,0,.7,0,.8s.1.2.3.3.3.1.7.1v.2h-3.1v-.2c.3,0,.5,0,.6,0s.2-.2.2-.3,0-.4,0-.8v-5.8c0-.7,0-1.2,0-1.3s0-.3-.2-.3-.2,0-.3,0-.3,0-.5.1v-.2c-.1,0,1.8-.8,1.8-.8h.3Z"/>
    <path class="st64" d="M436.2,302.4v5.1c0,.4,0,.7,0,.8s.1.2.3.3.3,0,.6,0v.2h-3.1v-.2c.3,0,.5,0,.6,0s.2-.2.3-.3,0-.4,0-.8v-2.5c0-.7,0-1.1,0-1.3,0-.1,0-.3-.2-.3s-.2,0-.3,0-.3,0-.5.1v-.2c0,0,1.8-.8,1.8-.8h.3ZM435.6,299.1c.2,0,.4,0,.5.2s.2.3.2.5,0,.4-.2.5-.3.2-.5.2-.4,0-.5-.2-.2-.3-.2-.5,0-.4.2-.5.3-.2.5-.2Z"/>
    <path class="st64" d="M439.8,300.5v2.1h1.5v.5h-1.5v4.1c0,.4,0,.7.2.8s.3.2.5.2.3,0,.4-.1.3-.2.3-.4h.3c-.2.5-.4.8-.7,1s-.6.3-.9.3-.4,0-.6-.2-.4-.3-.5-.5-.1-.6-.1-1v-4.3h-1v-.2c.3-.1.5-.3.8-.5s.5-.5.7-.9c.1-.2.3-.5.4-1h.2Z"/>
    <path class="st64" d="M441.5,302.6h3v.3h-.1c-.2,0-.4,0-.5.1s-.2.2-.2.3,0,.4.2.7l1.5,3.2,1.4-3.5c0-.2.1-.4.1-.6s0-.1,0-.2c0,0,0,0-.2-.1s-.2,0-.4,0v-.3h2.1v.3c-.2,0-.3,0-.4.1s-.2.2-.3.3c0,0-.1.2-.2.5l-2.6,6.3c-.2.6-.6,1.1-1,1.4s-.8.5-1.2.5-.5,0-.7-.2-.3-.3-.3-.5,0-.4.2-.5.3-.2.5-.2.4,0,.6.2c.2,0,.3.1.3.1.1,0,.3,0,.5-.2s.3-.4.5-.8l.5-1.1-2.3-4.8c0-.1-.2-.3-.3-.5-.1-.2-.2-.3-.3-.3-.1,0-.3-.1-.5-.2v-.3Z"/>
    <path class="st64" d="M402.2,326l-3.6-7.9v6.3c0,.6,0,.9.2,1.1.2.2.4.3.8.3h.3v.3h-3.3v-.3h.3c.4,0,.7-.1.8-.4.1-.1.2-.5.2-1v-6.2c0-.4,0-.7-.1-.9,0-.1-.2-.2-.4-.3s-.5-.1-.8-.1v-.3h2.7l3.4,7.4,3.4-7.4h2.7v.3h-.3c-.4,0-.7.1-.9.4-.1.1-.2.5-.2,1v6.2c0,.6,0,.9.2,1.1.2.2.4.3.8.3h.3v.3h-4v-.3h.3c.4,0,.7-.1.8-.4.1-.1.2-.5.2-1v-6.3l-3.6,7.9h-.2Z"/>
    <path class="st64" d="M410.6,322c0,.9.2,1.7.7,2.2s1,.8,1.6.8.8-.1,1.1-.3.6-.6.8-1.2h.2c0,.8-.4,1.4-.8,1.9s-1.1.8-1.8.8-1.4-.3-2-.9-.8-1.4-.8-2.4.3-1.9.8-2.5,1.3-.9,2.1-.9,1.3.2,1.8.7.7,1.1.7,1.9h-4.4ZM410.6,321.6h2.9c0-.4,0-.7-.1-.9-.1-.3-.3-.5-.5-.6s-.5-.2-.7-.2c-.4,0-.7.1-1,.4s-.5.7-.5,1.2Z"/>
    <path class="st64" d="M419.4,325.1c-.7.5-1.1.8-1.2.9-.2.1-.5.2-.8.2-.4,0-.8-.2-1.1-.5s-.4-.7-.4-1.2,0-.6.2-.8c.2-.3.5-.6,1-.9s1.2-.6,2.3-1v-.2c0-.6,0-1.1-.3-1.3s-.5-.4-.9-.4-.5,0-.7.2c-.2.2-.3.3-.3.5v.4c0,.2,0,.4-.1.5s-.3.2-.4.2-.3,0-.4-.2-.2-.3-.2-.5c0-.4.2-.8.6-1.1s1-.5,1.7-.5,1,0,1.4.3c.3.1.5.4.6.7,0,.2.1.6.1,1.2v2.2c0,.6,0,1,0,1.1s0,.2.1.3.1,0,.2,0,.1,0,.2,0c0,0,.3-.2.6-.5v.4c-.5.7-1,1-1.5,1s-.4,0-.5-.2-.2-.4-.2-.8ZM419.4,324.6v-2.4c-.7.3-1.2.5-1.4.6-.4.2-.6.4-.8.6s-.2.5-.2.7,0,.6.3.8.4.3.7.3.8-.2,1.4-.7Z"/>
    <path class="st64" d="M426.2,319.5v2.2h-.2c-.2-.7-.4-1.1-.7-1.4s-.6-.4-1.1-.4-.6,0-.8.3-.3.4-.3.6,0,.5.2.7c.1.2.4.4.9.6l1,.5c.9.5,1.4,1.1,1.4,1.8s-.2,1-.7,1.4-.9.5-1.5.5-.8,0-1.3-.2c-.2,0-.3,0-.4,0s-.2,0-.2.2h-.2v-2.3h.2c.1.6.4,1.1.7,1.5s.8.5,1.2.5.6,0,.8-.3.3-.4.3-.7-.1-.6-.3-.8-.7-.5-1.3-.8-1.1-.6-1.3-.9c-.2-.3-.3-.6-.3-1s.2-1,.5-1.3.8-.5,1.4-.5.6,0,.9.2c.2,0,.4.1.5.1s.1,0,.2,0,0-.1.1-.2h.2Z"/>
    <path class="st64" d="M433.2,319.6v3.9c0,.7,0,1.2,0,1.4s0,.3.2.3.2,0,.3,0,.3,0,.5-.1v.2c0,0-1.8.8-1.8.8h-.3v-1.3c-.5.6-1,1-1.2,1.1s-.6.2-.9.2-.7-.1-.9-.3-.4-.5-.5-.8-.2-.8-.2-1.4v-2.8c0-.3,0-.5,0-.6s-.2-.2-.3-.3-.4,0-.7,0v-.3h2.2v4.3c0,.6.1,1,.3,1.2s.5.3.7.3.4,0,.7-.2.6-.4.9-.7v-3.6c0-.4,0-.6-.2-.7s-.4-.2-.8-.2v-.3h2.2Z"/>
    <path class="st64" d="M436.6,319.5v1.4c.5-1,1.1-1.4,1.6-1.4s.5,0,.6.2.2.3.2.5,0,.3-.2.5-.3.2-.4.2-.3,0-.5-.2-.4-.2-.4-.2-.2,0-.3.1c-.2.2-.4.5-.6.9v3c0,.4,0,.6.1.8,0,.1.2.2.3.3s.4.1.7.1v.2h-3.3v-.2c.3,0,.6,0,.7-.2.1,0,.2-.2.2-.4,0,0,0-.3,0-.7v-2.5c0-.7,0-1.2,0-1.3s0-.2-.2-.3-.2,0-.3,0-.3,0-.5.1v-.2c0,0,1.9-.8,1.9-.8h.3Z"/>
    <path class="st64" d="M440.6,322c0,.9.2,1.7.7,2.2s1,.8,1.6.8.8-.1,1.1-.3.6-.6.8-1.2h.2c0,.8-.4,1.4-.8,1.9s-1.1.8-1.8.8-1.4-.3-2-.9-.8-1.4-.8-2.4.3-1.9.8-2.5,1.3-.9,2.1-.9,1.3.2,1.8.7.7,1.1.7,1.9h-4.4ZM440.6,321.6h2.9c0-.4,0-.7-.1-.9-.1-.3-.3-.5-.5-.6s-.5-.2-.7-.2c-.4,0-.7.1-1,.4s-.5.7-.5,1.2Z"/>
    <path class="st64" d="M449.9,319.5v2.2h-.2c-.2-.7-.4-1.1-.7-1.4s-.6-.4-1.1-.4-.6,0-.8.3-.3.4-.3.6,0,.5.2.7c.1.2.4.4.9.6l1,.5c.9.5,1.4,1.1,1.4,1.8s-.2,1-.7,1.4-.9.5-1.5.5-.8,0-1.3-.2c-.2,0-.3,0-.4,0s-.2,0-.2.2h-.2v-2.3h.2c.1.6.4,1.1.7,1.5s.8.5,1.2.5.6,0,.8-.3.3-.4.3-.7-.1-.6-.3-.8-.7-.5-1.3-.8-1.1-.6-1.3-.9c-.2-.3-.3-.6-.3-1s.2-1,.5-1.3.8-.5,1.4-.5.6,0,.9.2c.2,0,.4.1.5.1s.1,0,.2,0,0-.1.1-.2h.2Z"/>
  </g>
  <g>
    <path d="M100.1,134.9c1.4,0,2.6.5,3.6,1.6s1.5,2.4,1.5,3.9-.5,3-1.5,4-2.3,1.6-3.7,1.6-2.7-.5-3.7-1.6-1.5-2.4-1.5-4.1.6-3.1,1.7-4.2c1-.9,2.2-1.4,3.6-1.4ZM99.9,135.5c-1,0-1.7.4-2.3,1.1-.7.9-1.1,2.2-1.1,3.9s.4,3.1,1.1,4c.6.7,1.3,1.1,2.3,1.1s1.8-.4,2.5-1.2,1-2,1-3.7-.4-3.2-1.1-4.1c-.6-.7-1.4-1.1-2.4-1.1Z"/>
    <path d="M108.5,136.2v2.4h1.7v.6h-1.7v4.7c0,.5,0,.8.2.9s.3.2.5.2.3,0,.5-.2.3-.3.4-.5h.3c-.2.5-.4.9-.8,1.2s-.7.4-1,.4-.5,0-.7-.2-.4-.3-.5-.6-.2-.6-.2-1.2v-4.9h-1.1v-.3c.3-.1.6-.3.9-.6s.6-.6.8-1c.1-.2.3-.6.5-1.1h.2Z"/>
    <path d="M113,134.6v5.3c.6-.6,1-1.1,1.4-1.2s.7-.3,1-.3.8.1,1.1.3.5.6.7,1.1c0,.3.1,1,.1,1.8v2.6c0,.5,0,.8.1.9,0,.1.1.2.3.3s.4.1.7.1v.3h-3.6v-.3h.2c.3,0,.6,0,.7-.2s.2-.3.3-.5c0,0,0-.3,0-.7v-2.6c0-.8,0-1.3-.1-1.6s-.2-.4-.4-.6-.4-.2-.6-.2-.5,0-.8.2-.6.4-1,.8v3.8c0,.5,0,.8,0,.9s.2.2.3.3.4.1.8.1v.3h-3.6v-.3c.3,0,.6,0,.8-.1.1,0,.2-.2.3-.3s0-.4,0-.9v-6.5c0-.8,0-1.3,0-1.5s0-.3-.2-.4-.2-.1-.3-.1-.3,0-.5.1v-.3c-.1,0,2.1-.9,2.1-.9h.4Z"/>
    <path d="M120.1,141.3c0,1.1.3,1.9.8,2.5s1.1.9,1.9.9.9-.1,1.2-.4.6-.7.9-1.3l.2.2c-.1.7-.4,1.4-1,2s-1.2.9-2,.9-1.6-.3-2.2-1-.9-1.6-.9-2.7.3-2.2,1-2.9,1.4-1,2.4-1,1.5.3,2,.8.8,1.2.8,2.1h-5ZM120.1,140.9h3.3c0-.5,0-.8-.2-1-.1-.3-.3-.5-.6-.7s-.5-.3-.8-.3c-.4,0-.8.2-1.2.5s-.5.8-.6,1.4Z"/>
    <path d="M128.2,138.4v1.6c.6-1.1,1.2-1.6,1.9-1.6s.5,0,.7.3.3.4.3.6,0,.4-.2.5-.3.2-.5.2-.4,0-.6-.3-.4-.3-.5-.3-.2,0-.3.2c-.2.2-.5.6-.7,1.1v3.5c0,.4,0,.7.1.9,0,.1.2.3.4.4s.4.1.7.1v.3h-3.7v-.3c.4,0,.6,0,.8-.2.1,0,.2-.2.3-.4,0,0,0-.3,0-.8v-2.8c0-.8,0-1.3,0-1.5s0-.3-.2-.4-.2-.1-.3-.1-.3,0-.6.1v-.3c0,0,2.1-.9,2.1-.9h.3Z"/>
    <path d="M136.1,138.4v2.5h-.3c-.2-.8-.5-1.3-.8-1.6s-.7-.4-1.2-.4-.7,0-.9.3-.3.4-.3.6,0,.5.3.8c.2.2.5.4,1,.7l1.2.6c1.1.5,1.6,1.2,1.6,2.1s-.2,1.2-.7,1.6-1.1.6-1.7.6-.9,0-1.5-.2c-.2,0-.3,0-.4,0s-.2,0-.3.2h-.3v-2.6h.3c.1.7.4,1.3.8,1.7s.9.6,1.4.6.7-.1.9-.3.3-.5.3-.8-.1-.7-.4-.9-.8-.6-1.5-.9-1.3-.7-1.5-1c-.2-.3-.4-.7-.4-1.1s.2-1.1.6-1.5.9-.6,1.6-.6.6,0,1,.2c.3,0,.4.1.5.1s.1,0,.2,0,.1-.1.2-.2h.3Z"/>
  </g>
  <g>
    <path d="M468.4,242.5h2.5c0-.1,0,.2,0,.2-.4,0-.7.1-.9.2-.3.2-.5.4-.7.6s-.2.6-.2,1.1v1.5h8.1c.7,0,1.1,0,1.2-.2.2-.2.3-.5.3-.9v-.4h.3v4.5h-.3v-.4c0-.4-.1-.8-.4-1-.2-.1-.5-.2-1.1-.2h-8.1v1.3c0,.5,0,.8.1,1.1,0,.3.3.5.6.7s.7.3,1.1.3v.3h-2.5v-8.8Z"/>
    <path d="M471.7,240h1.6c-1.1-.6-1.6-1.2-1.6-1.8s0-.5.3-.7.4-.3.6-.3.4,0,.5.2.2.3.2.5,0,.4-.3.6-.3.4-.3.5,0,.2.2.3c.2.2.6.5,1.1.7h3.4c.4,0,.7,0,.9-.1.1,0,.3-.2.4-.4s.1-.4.1-.7h.3v3.7h-.3c0-.4,0-.6-.2-.8,0-.1-.2-.2-.4-.3,0,0-.3,0-.8,0h-2.8c-.8,0-1.3,0-1.5,0s-.3,0-.3.2-.1.2-.1.3,0,.3.1.5h-.3c0,0-.9-2.1-.9-2.1v-.3Z"/>
    <path d="M478,232.7c.6.7.9,1.2,1,1.4.1.3.2.6.2.9,0,.5-.2.9-.5,1.2s-.8.5-1.3.5-.7,0-.9-.2c-.4-.2-.7-.6-1-1.1s-.7-1.4-1.1-2.6h-.3c-.7,0-1.2.1-1.5.3s-.4.6-.4,1,0,.6.3.8c.2.2.4.3.6.3h.5c.2,0,.4,0,.6.2s.2.3.2.5,0,.4-.2.5-.3.2-.6.2c-.4,0-.9-.2-1.2-.7s-.6-1.1-.6-1.9.1-1.2.3-1.6c.2-.3.4-.5.8-.7.2,0,.7-.1,1.4-.1h2.4c.7,0,1.1,0,1.3,0s.3,0,.3-.1,0-.1,0-.2,0-.2,0-.2c0-.1-.3-.3-.6-.6h.4c.8.6,1.2,1.1,1.2,1.7s0,.5-.3.6-.5.2-.9.2ZM477.5,232.7h-2.7c.3.8.5,1.3.7,1.5.2.4.5.7.7.9s.5.3.8.3.7-.1.9-.3.4-.5.4-.8-.3-.9-.8-1.6Z"/>
    <path d="M473.2,227.5c-1-.8-1.5-1.6-1.5-2.4s0-.7.3-1,.5-.5,1-.7c.3-.1.8-.2,1.4-.2h3.1c.5,0,.8,0,.9-.1.1,0,.2-.1.3-.3s.1-.4.1-.7h.3v3.5h-.3c0-.5,0-.7-.2-.8s-.3-.2-.4-.3c0,0-.3,0-.7,0h-2.9c-.7,0-1.1,0-1.4.3s-.4.5-.4.9c0,.6.3,1.2,1,1.9h3.8c.5,0,.8,0,.9,0,.2,0,.3-.2.3-.3s.1-.4.1-.8h.3v3.5h-.3v-.2c0-.4,0-.6-.3-.7s-.5-.2-1.1-.2h-2.7c-.9,0-1.4,0-1.6,0s-.3,0-.4.2-.1.2-.1.3,0,.3.1.5h-.3c0,.1-.9-2-.9-2v-.3h1.5Z"/>
    <path d="M471.7,217h2.4v.3c-.8.2-1.3.5-1.6.8s-.4.7-.4,1.2,0,.7.3.9.4.3.6.3.5,0,.7-.2c.2-.2.4-.5.7-1l.6-1.1c.5-1.1,1.2-1.6,2-1.6s1.2.2,1.6.7.6,1,.6,1.7,0,.9-.2,1.5c0,.2,0,.3,0,.4s0,.2.2.3v.3h-2.6v-.3c.7-.1,1.3-.4,1.6-.8s.6-.9.6-1.4-.1-.7-.3-.9-.5-.3-.8-.3-.7.1-.9.4-.6.8-.9,1.5-.7,1.2-1,1.5c-.3.2-.7.4-1.1.4s-1.1-.2-1.5-.6-.6-.9-.6-1.6,0-.6.2-1c0-.3.1-.4.1-.5s0-.1,0-.2-.1-.1-.2-.2v-.3Z"/>
    <path d="M467.9,213.6c0-.2,0-.4.2-.6s.3-.2.6-.2.4,0,.6.2.2.3.2.6,0,.4-.2.6-.3.2-.6.2-.4,0-.6-.2-.2-.3-.2-.6ZM471.7,212.9h5.7c.4,0,.7,0,.9,0s.3-.2.3-.3.1-.4.1-.7h.3v3.5h-.3c0-.3,0-.6-.1-.7s-.2-.2-.3-.3-.5-.1-.9-.1h-2.8c-.8,0-1.3,0-1.5,0-.2,0-.3,0-.3.2s0,.2,0,.3,0,.3.1.5h-.3c0,.1-.9-2-.9-2v-.3Z"/>
    <path d="M469.5,208.9h2.4v-1.7h.5v1.7h4.6c.5,0,.8,0,.9-.2s.2-.3.2-.5,0-.3-.2-.5-.3-.3-.5-.4v-.3c.5.2.9.4,1.2.8s.4.7.4,1,0,.5-.2.7-.3.4-.6.5-.6.2-1.1.2h-4.8v1.1h-.3c-.1-.3-.3-.6-.6-.9s-.6-.6-1-.8c-.2-.1-.6-.3-1.1-.5v-.2Z"/>
    <path d="M467.9,204.7c0-.2,0-.4.2-.6s.3-.2.6-.2.4,0,.6.2.2.3.2.6,0,.4-.2.6-.3.2-.6.2-.4,0-.6-.2-.2-.3-.2-.6ZM471.7,204h5.7c.4,0,.7,0,.9,0s.3-.2.3-.3.1-.4.1-.7h.3v3.5h-.3c0-.3,0-.6-.1-.7s-.2-.2-.3-.3-.5-.1-.9-.1h-2.8c-.8,0-1.3,0-1.5,0-.2,0-.3,0-.3.2s0,.2,0,.3,0,.3.1.5h-.3c0,.1-.9-2-.9-2v-.3Z"/>
    <path d="M471.7,198.6c0-1.1.4-2,1.2-2.6.7-.6,1.5-.8,2.4-.8s1.3.2,1.9.5,1.2.7,1.5,1.3.5,1.1.5,1.8c0,1.1-.4,1.9-1.3,2.6-.7.5-1.5.8-2.4.8s-1.3-.2-2-.5-1.1-.8-1.4-1.3-.5-1.1-.5-1.7ZM472.2,198.8c0,.3,0,.6.2.8s.5.5.9.7.9.3,1.6.3c1,0,1.9-.2,2.7-.6s1.1-1,1.1-1.6-.2-.9-.6-1.2-1.1-.5-2.1-.5-2.3.3-3,.8c-.5.4-.7.8-.7,1.4Z"/>
    <path d="M473.2,192c-1-.8-1.5-1.6-1.5-2.4s0-.7.3-1,.5-.5,1-.7c.3-.1.8-.2,1.4-.2h3.1c.5,0,.8,0,.9-.1.1,0,.2-.1.3-.3s.1-.4.1-.7h.3v3.5h-.3c0-.5,0-.7-.2-.8s-.3-.2-.4-.3c0,0-.3,0-.7,0h-2.9c-.7,0-1.1,0-1.4.3s-.4.5-.4.9c0,.6.3,1.2,1,1.9h3.8c.5,0,.8,0,.9,0,.2,0,.3-.2.3-.3s.1-.4.1-.8h.3v3.5h-.3v-.2c0-.4,0-.6-.3-.7s-.5-.2-1.1-.2h-2.7c-.9,0-1.4,0-1.6,0s-.3,0-.4.2-.1.2-.1.3,0,.3.1.5h-.3c0,.1-.9-2-.9-2v-.3h1.5Z"/>
    <path d="M479,176l-8.9,4.1h7.1c.7,0,1.1,0,1.2-.2.2-.2.3-.5.3-.9v-.4h.3v3.7h-.3v-.4c0-.4-.1-.8-.4-1-.2-.1-.5-.2-1.1-.2h-6.9c-.5,0-.8,0-1,.2-.2,0-.3.2-.4.4s-.2.5-.2.9h-.3v-3l8.3-3.8-8.3-3.8v-3h.3v.4c0,.5.1.8.4,1,.2.1.5.2,1.1.2h6.9c.7,0,1.1,0,1.2-.2.2-.2.3-.5.3-.9v-.4h.3v4.5h-.3v-.4c0-.5-.1-.8-.4-1-.2-.1-.5-.2-1.1-.2h-7.1l8.9,4.1v.3Z"/>
    <path d="M478,163.8c.6.7.9,1.2,1,1.4.1.3.2.6.2.9,0,.5-.2.9-.5,1.2s-.8.5-1.3.5-.7,0-.9-.2c-.4-.2-.7-.6-1-1.1s-.7-1.4-1.1-2.6h-.3c-.7,0-1.2.1-1.5.3s-.4.6-.4,1,0,.6.3.8c.2.2.4.3.6.3h.5c.2,0,.4,0,.6.2s.2.3.2.5,0,.4-.2.5-.3.2-.6.2c-.4,0-.9-.2-1.2-.7s-.6-1.1-.6-1.9.1-1.2.3-1.6c.2-.3.4-.5.8-.7.2,0,.7-.1,1.4-.1h2.4c.7,0,1.1,0,1.3,0s.3,0,.3-.1,0-.1,0-.2,0-.2,0-.2c0-.1-.3-.3-.6-.6h.4c.8.6,1.2,1.1,1.2,1.7s0,.5-.3.6-.5.2-.9.2ZM477.5,163.8h-2.7c.3.8.5,1.3.7,1.5.2.4.5.7.7.9s.5.3.8.3.7-.1.9-.3.4-.5.4-.8-.3-.9-.8-1.6Z"/>
    <path d="M469.5,158.7h2.4v-1.7h.5v1.7h4.6c.5,0,.8,0,.9-.2s.2-.3.2-.5,0-.3-.2-.5-.3-.3-.5-.4v-.3c.5.2.9.4,1.2.8s.4.7.4,1,0,.5-.2.7-.3.4-.6.5-.6.2-1.1.2h-4.8v1.1h-.3c-.1-.3-.3-.6-.6-.9s-.6-.6-1-.8c-.2-.1-.6-.3-1.1-.5v-.2Z"/>
    <path d="M471.7,154.2h1.6c-1.1-.6-1.6-1.2-1.6-1.8s0-.5.3-.7.4-.3.6-.3.4,0,.5.2.2.3.2.5,0,.4-.3.6-.3.4-.3.5,0,.2.2.3c.2.2.6.5,1.1.7h3.4c.4,0,.7,0,.9-.1.1,0,.3-.2.4-.4s.1-.4.1-.7h.3v3.7h-.3c0-.4,0-.6-.2-.8,0-.1-.2-.2-.4-.3,0,0-.3,0-.8,0h-2.8c-.8,0-1.3,0-1.5,0s-.3,0-.3.2-.1.2-.1.3,0,.3.1.5h-.3c0,0-.9-2.1-.9-2.1v-.3Z"/>
    <path d="M467.9,149.1c0-.2,0-.4.2-.6s.3-.2.6-.2.4,0,.6.2.2.3.2.6,0,.4-.2.6-.3.2-.6.2-.4,0-.6-.2-.2-.3-.2-.6ZM471.7,148.5h5.7c.4,0,.7,0,.9,0s.3-.2.3-.3.1-.4.1-.7h.3v3.5h-.3c0-.3,0-.6-.1-.7s-.2-.2-.3-.3-.5-.1-.9-.1h-2.8c-.8,0-1.3,0-1.5,0-.2,0-.3,0-.3.2s0,.2,0,.3,0,.3.1.5h-.3c0,.1-.9-2-.9-2v-.3Z"/>
    <path d="M471.9,146.8v-3.4h.3c0,.2,0,.4.1.4s.2.1.3.1.3,0,.6-.3c0,0,.2-.1.4-.3l.8-.5-.8-.6c-.5-.4-.8-.6-1-.6s-.2,0-.3.1-.1.2-.1.4h-.3v-2.4h.3c0,.3,0,.5.2.7.2.3.6.6,1.2,1l1.3,1,2.6-1.8c.6-.4,1-.7,1.1-.9s.2-.4.2-.7h.3v3.4h-.3c0-.2,0-.4-.2-.5,0,0-.2-.1-.3-.1s-.4.2-.9.5l-1.5,1,1.5,1.1c.5.4.8.5.8.5s.2,0,.3-.2.2-.3.2-.5h.3v2.3h-.3c0-.2,0-.4-.2-.5-.2-.2-.5-.5-1.2-1l-2-1.5-2,1.4c-.6.4-.9.7-1.1.9s-.2.5-.2.8h-.3Z"/>
    <path d="M467.9,134.5l11.3,3.8v.6l-11.3-3.8v-.6Z"/>
    <path d="M493.3,256.1h3.1c.7,0,1.1,0,1.2-.2.2-.2.3-.5.3-.9v-.4h.3v4.5h-.3v-.4c0-.4-.1-.8-.4-1-.2-.1-.5-.2-1.1-.2h-6.8c-.7,0-1.1,0-1.2.2-.2.2-.3.5-.3.9v.4h-.3v-3.9c0-.9,0-1.7.3-2.2s.5-1,1-1.4,1-.6,1.6-.6,1.6.3,2.1.9.8,1.4.8,2.4,0,.5,0,.8,0,.6-.2,1ZM492.8,256.1c0-.3,0-.5.1-.7s0-.4,0-.5c0-.5-.2-1-.6-1.4s-1-.6-1.6-.6-.9,0-1.3.3-.7.5-.9.8-.3.7-.3,1.2,0,.6.1,1h4.4Z"/>
    <path d="M490.9,247.9h1.6c-1.1-.6-1.6-1.2-1.6-1.8s0-.5.3-.7.4-.3.6-.3.4,0,.5.2.2.3.2.5,0,.4-.3.6-.3.4-.3.5,0,.2.2.3c.2.2.6.5,1.1.7h3.4c.4,0,.7,0,.9-.1.1,0,.3-.2.4-.4s.1-.4.1-.7h.3v3.7h-.3c0-.4,0-.6-.2-.8,0-.1-.2-.2-.4-.3,0,0-.3,0-.8,0h-2.8c-.8,0-1.3,0-1.5,0s-.3,0-.3.2-.1.2-.1.3,0,.3.1.5h-.3c0,0-.9-2.1-.9-2.1v-.3Z"/>
    <path d="M490.9,241.1c0-1.1.4-2,1.2-2.6.7-.6,1.5-.8,2.4-.8s1.3.2,1.9.5,1.2.7,1.5,1.3.5,1.1.5,1.8c0,1.1-.4,1.9-1.3,2.6-.7.5-1.5.8-2.4.8s-1.3-.2-2-.5-1.1-.8-1.4-1.3-.5-1.1-.5-1.7ZM491.4,241.4c0,.3,0,.6.2.8s.5.5.9.7.9.3,1.6.3c1,0,1.9-.2,2.7-.6s1.1-1,1.1-1.6-.2-.9-.6-1.2-1.1-.5-2.1-.5-2.3.3-3,.8c-.5.4-.7.8-.7,1.4Z"/>
    <path d="M492.3,234.7c-1-.7-1.4-1.4-1.4-2.2s.3-1.4.9-1.9,1.5-.8,2.6-.8,2.3.4,3.1,1.3c.7.7,1,1.5,1,2.4s0,.8-.2,1.3-.4.9-.7,1.3h-7.4c-.8,0-1.3,0-1.5,0s-.3.1-.4.2-.1.2-.1.3,0,.3.1.5h-.3c0,.1-.9-2-.9-2v-.4h5.2ZM492.8,234.7h4.3c.3-.3.5-.5.6-.8s.2-.6.2-.9c0-.5-.3-.9-.8-1.3s-1.3-.6-2.3-.6-1.6.2-2.1.6-.7.9-.7,1.4,0,.6.2.8c.1.2.3.5.6.8Z"/>
    <path d="M497.2,224.6c.6.7.9,1.2,1,1.4.1.3.2.6.2.9,0,.5-.2.9-.5,1.2s-.8.5-1.3.5-.7,0-.9-.2c-.4-.2-.7-.6-1-1.1s-.7-1.4-1.1-2.6h-.3c-.7,0-1.2.1-1.5.3s-.4.6-.4,1,0,.6.3.8c.2.2.4.3.6.3h.5c.2,0,.4,0,.6.2s.2.3.2.5,0,.4-.2.5-.3.2-.6.2c-.4,0-.9-.2-1.2-.7s-.6-1.1-.6-1.9.1-1.2.3-1.6c.2-.3.4-.5.8-.7.2,0,.7-.1,1.4-.1h2.4c.7,0,1.1,0,1.3,0s.3,0,.3-.1,0-.1,0-.2,0-.2,0-.2c0-.1-.3-.3-.6-.6h.4c.8.6,1.2,1.1,1.2,1.7s0,.5-.3.6-.5.2-.9.2ZM496.7,224.6h-2.7c.3.8.5,1.3.7,1.5.2.4.5.7.7.9s.5.3.8.3.7-.1.9-.3.4-.5.4-.8-.3-.9-.8-1.6Z"/>
    <path d="M492.3,219.6c-1-.7-1.4-1.4-1.4-2.2s.3-1.4.9-1.9,1.5-.8,2.6-.8,2.3.4,3.1,1.3c.7.7,1,1.5,1,2.4s0,.8-.2,1.3-.4.9-.7,1.3h-7.4c-.8,0-1.3,0-1.5,0s-.3.1-.4.2-.1.2-.1.3,0,.3.1.5h-.3c0,.1-.9-2-.9-2v-.4h5.2ZM492.8,219.6h4.3c.3-.3.5-.5.6-.8s.2-.6.2-.9c0-.5-.3-.9-.8-1.3s-1.3-.6-2.3-.6-1.6.2-2.1.6-.7.9-.7,1.4,0,.6.2.8c.1.2.3.5.6.8Z"/>
    <path d="M487.1,211.7c0-.2,0-.4.2-.6s.3-.2.6-.2.4,0,.6.2.2.3.2.6,0,.4-.2.6-.3.2-.6.2-.4,0-.6-.2-.2-.3-.2-.6ZM490.9,211.1h5.7c.4,0,.7,0,.9,0s.3-.2.3-.3.1-.4.1-.7h.3v3.5h-.3c0-.3,0-.6-.1-.7s-.2-.2-.3-.3-.5-.1-.9-.1h-2.8c-.8,0-1.3,0-1.5,0-.2,0-.3,0-.3.2s0,.2,0,.3,0,.3.1.5h-.3c0,.1-.9-2-.9-2v-.3Z"/>
    <path d="M487.1,206.6h9.5c.4,0,.7,0,.9,0s.3-.2.3-.3.1-.4.1-.8h.3v3.5h-.3c0-.3,0-.6-.1-.7s-.2-.2-.3-.3-.5-.1-.9-.1h-6.5c-.8,0-1.3,0-1.5,0s-.3,0-.4.2-.1.2-.1.3,0,.3.1.5h-.3c0,.1-.9-2-.9-2v-.4Z"/>
    <path d="M487.1,202.8c0-.2,0-.4.2-.6s.3-.2.6-.2.4,0,.6.2.2.3.2.6,0,.4-.2.6-.3.2-.6.2-.4,0-.6-.2-.2-.3-.2-.6ZM490.9,202.2h5.7c.4,0,.7,0,.9,0s.3-.2.3-.3.1-.4.1-.7h.3v3.5h-.3c0-.3,0-.6-.1-.7s-.2-.2-.3-.3-.5-.1-.9-.1h-2.8c-.8,0-1.3,0-1.5,0-.2,0-.3,0-.3.2s0,.2,0,.3,0,.3.1.5h-.3c0,.1-.9-2-.9-2v-.3Z"/>
    <path d="M488.7,198.1h2.4v-1.7h.5v1.7h4.6c.5,0,.8,0,.9-.2s.2-.3.2-.5,0-.3-.2-.5-.3-.3-.5-.4v-.3c.5.2.9.4,1.2.8s.4.7.4,1,0,.5-.2.7-.3.4-.6.5-.6.2-1.1.2h-4.8v1.1h-.3c-.1-.3-.3-.6-.6-.9s-.6-.6-1-.8c-.2-.1-.6-.3-1.1-.5v-.2Z"/>
    <path d="M491.1,196.2v-3.3h.3v.2c0,.2,0,.4.2.5s.2.2.4.2.5,0,.8-.3l3.6-1.7-4-1.6c-.2,0-.4-.1-.6-.1s-.2,0-.2,0c0,0-.1.1-.1.2s0,.2,0,.5h-.3v-2.3h.3c0,.2,0,.3.1.4s.2.2.4.3c0,0,.3.1.6.3l7.1,2.9c.7.3,1.2.6,1.6,1.1s.5.9.5,1.3,0,.6-.3.8-.4.3-.6.3-.4,0-.5-.2-.2-.3-.2-.6,0-.4.2-.7c0-.2.1-.3.1-.4,0-.2,0-.3-.2-.5s-.5-.4-.9-.6l-1.2-.5-5.4,2.6c-.2,0-.4.2-.6.4-.2.1-.3.2-.4.3,0,.1-.2.3-.2.6h-.3Z"/>
    <path d="M498.2,177.7l-8.9,4.1h7.1c.7,0,1.1,0,1.2-.2.2-.2.3-.5.3-.9v-.4h.3v3.7h-.3v-.4c0-.4-.1-.8-.4-1-.2-.1-.5-.2-1.1-.2h-6.9c-.5,0-.8,0-1,.2-.2,0-.3.2-.4.4s-.2.5-.2.9h-.3v-3l8.3-3.8-8.3-3.8v-3h.3v.4c0,.5.1.8.4,1,.2.1.5.2,1.1.2h6.9c.7,0,1.1,0,1.2-.2.2-.2.3-.5.3-.9v-.4h.3v4.5h-.3v-.4c0-.5-.1-.8-.4-1-.2-.1-.5-.2-1.1-.2h-7.1l8.9,4.1v.3Z"/>
    <path d="M493.8,168.3c1.1,0,1.9-.3,2.5-.8s.9-1.1.9-1.8-.1-.9-.4-1.2-.7-.6-1.3-.9l.2-.2c.7.1,1.4.4,1.9,1s.9,1.2.9,2-.3,1.6-1,2.2-1.6.9-2.7.9-2.2-.3-2.9-.9-1-1.4-1-2.4.3-1.5.8-2,1.2-.8,2.1-.8v4.9ZM493.3,168.3v-3.3c-.5,0-.8,0-1,.2-.3.1-.5.3-.7.6s-.2.5-.2.8c0,.4.2.8.5,1.2s.8.5,1.4.6Z"/>
    <path d="M497.2,158.4c.6.7.9,1.2,1,1.4.1.3.2.6.2.9,0,.5-.2.9-.5,1.2s-.8.5-1.3.5-.7,0-.9-.2c-.4-.2-.7-.6-1-1.1s-.7-1.4-1.1-2.6h-.3c-.7,0-1.2.1-1.5.3s-.4.6-.4,1,0,.6.3.8c.2.2.4.3.6.3h.5c.2,0,.4,0,.6.2s.2.3.2.5,0,.4-.2.5-.3.2-.6.2c-.4,0-.9-.2-1.2-.7s-.6-1.1-.6-1.9.1-1.2.3-1.6c.2-.3.4-.5.8-.7.2,0,.7-.1,1.4-.1h2.4c.7,0,1.1,0,1.3,0s.3,0,.3-.1,0-.1,0-.2,0-.2,0-.2c0-.1-.3-.3-.6-.6h.4c.8.6,1.2,1.1,1.2,1.7s0,.5-.3.6-.5.2-.9.2ZM496.7,158.4h-2.7c.3.8.5,1.3.7,1.5.2.4.5.7.7.9s.5.3.8.3.7-.1.9-.3.4-.5.4-.8-.3-.9-.8-1.6Z"/>
    <path d="M490.9,150.7h2.4v.3c-.8.2-1.3.5-1.6.8s-.4.7-.4,1.2,0,.7.3.9.4.3.6.3.5,0,.7-.2c.2-.2.4-.5.7-1l.6-1.1c.5-1.1,1.2-1.6,2-1.6s1.2.2,1.6.7.6,1,.6,1.7,0,.9-.2,1.5c0,.2,0,.3,0,.4s0,.2.2.3v.3h-2.6v-.3c.7-.1,1.3-.4,1.6-.8s.6-.9.6-1.4-.1-.7-.3-.9-.5-.3-.8-.3-.7.1-.9.4-.6.8-.9,1.5-.7,1.2-1,1.5c-.3.2-.7.4-1.1.4s-1.1-.2-1.5-.6-.6-.9-.6-1.6,0-.6.2-1c0-.3.1-.4.1-.5s0-.1,0-.2-.1-.1-.2-.2v-.3Z"/>
    <path d="M491.1,142.8h4.3c.8,0,1.3,0,1.5,0s.3-.1.4-.2.1-.2.1-.3,0-.3-.1-.5h.3c0-.1.9,2,.9,2v.4h-1.5c.7.6,1.1,1.1,1.3,1.4s.3.7.3,1-.1.7-.3,1-.5.5-.9.6-.9.2-1.5.2h-3.2c-.3,0-.6,0-.7.1s-.2.2-.3.3-.1.4,0,.8h-.3v-2.5h4.8c.7,0,1.1-.1,1.3-.3s.3-.5.3-.8,0-.5-.2-.8-.4-.6-.8-1h-4.1c-.4,0-.7,0-.8.2s-.2.5-.2.9h-.3v-2.4Z"/>
    <path d="M490.9,139h1.6c-1.1-.6-1.6-1.2-1.6-1.8s0-.5.3-.7.4-.3.6-.3.4,0,.5.2.2.3.2.5,0,.4-.3.6-.3.4-.3.5,0,.2.2.3c.2.2.6.5,1.1.7h3.4c.4,0,.7,0,.9-.1.1,0,.3-.2.4-.4s.1-.4.1-.7h.3v3.7h-.3c0-.4,0-.6-.2-.8,0-.1-.2-.2-.4-.3,0,0-.3,0-.8,0h-2.8c-.8,0-1.3,0-1.5,0s-.3,0-.3.2-.1.2-.1.3,0,.3.1.5h-.3c0,0-.9-2.1-.9-2.1v-.3Z"/>
    <path d="M493.8,134.6c1.1,0,1.9-.3,2.5-.8s.9-1.1.9-1.8-.1-.9-.4-1.2-.7-.6-1.3-.9l.2-.2c.7.1,1.4.4,1.9,1s.9,1.2.9,2-.3,1.6-1,2.2-1.6.9-2.7.9-2.2-.3-2.9-.9-1-1.4-1-2.4.3-1.5.8-2,1.2-.8,2.1-.8v4.9ZM493.3,134.6v-3.3c-.5,0-.8,0-1,.2-.3.1-.5.3-.7.6s-.2.5-.2.8c0,.4.2.8.5,1.2s.8.5,1.4.6Z"/>
    <path d="M490.9,124.1h2.4v.3c-.8.2-1.3.5-1.6.8s-.4.7-.4,1.2,0,.7.3.9.4.3.6.3.5,0,.7-.2c.2-.2.4-.5.7-1l.6-1.1c.5-1.1,1.2-1.6,2-1.6s1.2.2,1.6.7.6,1,.6,1.7,0,.9-.2,1.5c0,.2,0,.3,0,.4s0,.2.2.3v.3h-2.6v-.3c.7-.1,1.3-.4,1.6-.8s.6-.9.6-1.4-.1-.7-.3-.9-.5-.3-.8-.3-.7.1-.9.4-.6.8-.9,1.5-.7,1.2-1,1.5c-.3.2-.7.4-1.1.4s-1.1-.2-1.5-.6-.6-.9-.6-1.6,0-.6.2-1c0-.3.1-.4.1-.5s0-.1,0-.2-.1-.1-.2-.2v-.3Z"/>
  </g>
  <g>
    <path d="M599,286.1v2.8l-4.8,3.5c0,.3,0,.5,0,.6s0,.1,0,.2,0,.2,0,.2h3c.7,0,1.1,0,1.2-.2.2-.2.3-.5.3-.9v-.4h.3v4.4h-.3v-.4c0-.4-.1-.8-.4-.9-.2-.1-.5-.2-1.1-.2h-6.7c-.7,0-1.1,0-1.2.2-.2.2-.3.5-.3.9v.4h-.3v-3.8c0-1.1,0-1.9.2-2.4s.5-1,.9-1.3.9-.5,1.5-.5,1.2.2,1.7.6.8,1.1,1,1.9l3-2.1c.7-.5,1.1-.9,1.4-1.3s.4-.8.4-1.4h.3ZM593.7,293.5c0,0,0-.2,0-.3s0-.1,0-.2c0-1-.2-1.7-.6-2.2s-1-.8-1.6-.8-1.2.2-1.6.6-.6.9-.6,1.6,0,.7.1,1.2h4.3Z"/>
    <path d="M598,281.8c.6.7.9,1.2,1,1.4.1.3.2.6.2.9,0,.5-.2.9-.5,1.2s-.8.5-1.3.5-.6,0-.9-.2c-.3-.2-.7-.6-1-1.1s-.7-1.4-1.1-2.6h-.3c-.7,0-1.2.1-1.4.3s-.4.5-.4,1,0,.6.3.8c.2.2.4.3.6.3h.4c.2,0,.4,0,.5.2s.2.3.2.5,0,.3-.2.5-.3.2-.5.2c-.4,0-.8-.2-1.2-.7s-.6-1.1-.6-1.9.1-1.1.3-1.5c.2-.3.4-.5.7-.7.2,0,.7-.1,1.3-.1h2.4c.7,0,1.1,0,1.2,0s.3,0,.3-.1,0-.1,0-.2,0-.2,0-.2c0-.1-.3-.3-.6-.6h.4c.8.6,1.1,1.1,1.1,1.6s0,.4-.3.6-.5.2-.9.2ZM597.5,281.8h-2.7c.3.8.5,1.3.6,1.5.2.4.5.7.7.9s.5.3.8.3.7-.1.9-.3.4-.5.4-.8-.3-.9-.8-1.5Z"/>
    <path d="M593.3,276.8c-1-.8-1.5-1.6-1.5-2.3s0-.7.3-1,.5-.5.9-.7c.3-.1.8-.2,1.4-.2h3c.4,0,.7,0,.9-.1.1,0,.2-.1.3-.3s.1-.4.1-.7h.3v3.5h-.3c0-.5,0-.7-.1-.8s-.2-.2-.4-.3c0,0-.3,0-.7,0h-2.9c-.6,0-1.1,0-1.4.2s-.4.4-.4.8c0,.6.3,1.2,1,1.8h3.7c.5,0,.8,0,.9,0,.1,0,.3-.2.3-.3s.1-.4.1-.8h.3v3.5h-.3v-.2c0-.4,0-.6-.3-.7s-.5-.2-1-.2h-2.6c-.8,0-1.4,0-1.5,0s-.3,0-.4.2,0,.2,0,.3,0,.3.1.5h-.3c0,.1-.9-2-.9-2v-.3h1.5Z"/>
    <path d="M588.2,268.9h7l-1.6-1.8c-.3-.4-.6-.6-.7-.7s-.1,0-.2,0c-.1,0-.2,0-.3.1s-.1.2-.1.4h-.2v-3h.2c0,.4,0,.8.2,1s.3.6.6.9l1.7,1.8,2.3-1.8c.6-.5,1-.8,1.2-1,.2-.2.4-.5.5-.6,0-.1,0-.3,0-.7h.3v3.4h-.3c0-.2,0-.3,0-.4s-.1-.1-.2-.1-.3.1-.6.3l-2.7,2.1h2.3c.5,0,.8,0,.9,0s.2-.2.3-.3,0-.4,0-.8h.3v3.6h-.3c0-.4,0-.6-.1-.8,0-.1-.1-.2-.3-.2-.2,0-.5-.1-.9-.1h-6.4c-.8,0-1.3,0-1.5,0s-.3,0-.4.2-.1.2-.1.3,0,.3.1.5h-.3c0,.1-.9-1.9-.9-1.9v-.4Z"/>
    <path d="M594.9,263v-4h1.2v4h-1.2Z"/>
    <path d="M593.2,256c-.9-.7-1.4-1.4-1.4-2.2s.3-1.3.9-1.9,1.5-.8,2.5-.8,2.2.4,3,1.2c.7.7,1,1.5,1,2.4s0,.8-.2,1.2-.4.8-.7,1.3h-7.3c-.8,0-1.3,0-1.5,0s-.3,0-.4.2,0,.2,0,.3,0,.3.1.5h-.3c0,.1-.9-2-.9-2v-.3h5.1ZM593.7,256h4.2c.3-.3.4-.5.6-.8s.2-.6.2-.9c0-.5-.3-.9-.8-1.3s-1.3-.6-2.2-.6-1.6.2-2.1.6-.7.9-.7,1.4,0,.5.2.8c.1.2.3.5.6.8Z"/>
    <path d="M598,246.1c.6.7.9,1.2,1,1.4.1.3.2.6.2.9,0,.5-.2.9-.5,1.2s-.8.5-1.3.5-.6,0-.9-.2c-.3-.2-.7-.6-1-1.1s-.7-1.4-1.1-2.6h-.3c-.7,0-1.2.1-1.4.3s-.4.5-.4,1,0,.6.3.8c.2.2.4.3.6.3h.4c.2,0,.4,0,.5.2s.2.3.2.5,0,.3-.2.5-.3.2-.5.2c-.4,0-.8-.2-1.2-.7s-.6-1.1-.6-1.9.1-1.1.3-1.5c.2-.3.4-.5.7-.7.2,0,.7-.1,1.3-.1h2.4c.7,0,1.1,0,1.2,0s.3,0,.3-.1,0-.1,0-.2,0-.2,0-.2c0-.1-.3-.3-.6-.6h.4c.8.6,1.1,1.1,1.1,1.6s0,.4-.3.6-.5.2-.9.2ZM597.5,246.1h-2.7c.3.8.5,1.3.6,1.5.2.4.5.7.7.9s.5.3.8.3.7-.1.9-.3.4-.5.4-.8-.3-.9-.8-1.5Z"/>
    <path d="M591.8,238.6h2.4v.3c-.7.2-1.3.4-1.5.7s-.4.7-.4,1.2,0,.6.3.9.4.3.6.3.5,0,.7-.2c.2-.2.4-.5.7-1l.5-1.1c.5-1,1.2-1.6,2-1.6s1.2.2,1.5.7.6,1,.6,1.6,0,.9-.2,1.5c0,.2,0,.3,0,.4s0,.2.2.3v.3h-2.5v-.3c.7-.1,1.3-.4,1.6-.8s.5-.9.5-1.4-.1-.6-.3-.9-.5-.3-.7-.3-.6.1-.9.4-.5.7-.9,1.5-.7,1.2-1,1.5c-.3.2-.7.3-1.1.3s-1.1-.2-1.4-.6-.6-.9-.6-1.5,0-.6.2-1c0-.3.1-.4.1-.5s0-.1,0-.2-.1,0-.2-.2v-.3Z"/>
    <path d="M594.7,235.9c1,0,1.9-.2,2.4-.8s.9-1.1.9-1.8-.1-.9-.4-1.2-.7-.6-1.3-.9l.2-.2c.7.1,1.3.4,1.9.9s.9,1.2.9,1.9-.3,1.6-1,2.2-1.5.9-2.6.9-2.1-.3-2.8-.9-1-1.4-1-2.3.3-1.4.8-1.9,1.2-.8,2.1-.8v4.8ZM594.2,235.9v-3.2c-.4,0-.8,0-.9.2-.3.1-.5.3-.7.6s-.2.5-.2.8c0,.4.2.8.5,1.1s.8.5,1.4.6Z"/>
    <path d="M598.2,225.2c.4.3.6.7.8,1s.2.7.2,1.1c0,.8-.3,1.4-1,2s-1.5.9-2.5.9-1.9-.3-2.8-.9-1.2-1.4-1.2-2.4.2-1.1.6-1.5h-1.3c-.8,0-1.3,0-1.5,0s-.3,0-.4.2,0,.2,0,.3,0,.3.1.5h-.3c0,0-.9-2-.9-2v-.3h8.1c.8,0,1.3,0,1.5,0s.3,0,.4-.2.1-.2.1-.3,0-.3-.1-.6h.3c0,0,.9,2,.9,2v.4h-1ZM597.7,225.2h-3.6c-.3,0-.7.1-.9.3s-.5.4-.6.6-.2.5-.2.7c0,.4.2.8.6,1.2.5.5,1.3.7,2.3.7s1.8-.2,2.4-.7.8-.9.8-1.5-.2-.9-.7-1.3Z"/>
    <path d="M599,212.5l-8.7,4h6.9c.6,0,1,0,1.2-.2.2-.2.3-.5.3-.9v-.4h.3v3.6h-.3v-.4c0-.4-.1-.7-.4-.9-.2-.1-.5-.2-1.1-.2h-6.8c-.5,0-.8,0-1,.2-.1,0-.3.2-.4.4s-.1.5-.1.9h-.3v-2.9l8.1-3.8-8.1-3.7v-2.9h.3v.4c0,.4.1.8.4.9.2.1.5.2,1.1.2h6.8c.6,0,1,0,1.2-.2.2-.2.3-.5.3-.9v-.4h.3v4.4h-.3v-.4c0-.4-.1-.8-.4-.9-.2-.1-.5-.2-1.1-.2h-6.9l8.7,4v.3Z"/>
    <path d="M594.7,203.3c1,0,1.9-.2,2.4-.8s.9-1.1.9-1.8-.1-.9-.4-1.2-.7-.6-1.3-.9l.2-.2c.7.1,1.3.4,1.9.9s.9,1.2.9,1.9-.3,1.6-1,2.2-1.5.9-2.6.9-2.1-.3-2.8-.9-1-1.4-1-2.3.3-1.4.8-1.9,1.2-.8,2.1-.8v4.8ZM594.2,203.3v-3.2c-.4,0-.8,0-.9.2-.3.1-.5.3-.7.6s-.2.5-.2.8c0,.4.2.8.5,1.1s.8.5,1.4.6Z"/>
    <path d="M598,193.6c.6.7.9,1.2,1,1.4.1.3.2.6.2.9,0,.5-.2.9-.5,1.2s-.8.5-1.3.5-.6,0-.9-.2c-.3-.2-.7-.6-1-1.1s-.7-1.4-1.1-2.6h-.3c-.7,0-1.2.1-1.4.3s-.4.5-.4,1,0,.6.3.8c.2.2.4.3.6.3h.4c.2,0,.4,0,.5.2s.2.3.2.5,0,.3-.2.5-.3.2-.5.2c-.4,0-.8-.2-1.2-.7s-.6-1.1-.6-1.9.1-1.1.3-1.5c.2-.3.4-.5.7-.7.2,0,.7-.1,1.3-.1h2.4c.7,0,1.1,0,1.2,0s.3,0,.3-.1,0-.1,0-.2,0-.2,0-.2c0-.1-.3-.3-.6-.6h.4c.8.6,1.1,1.1,1.1,1.6s0,.4-.3.6-.5.2-.9.2ZM597.5,193.6h-2.7c.3.8.5,1.3.6,1.5.2.4.5.7.7.9s.5.3.8.3.7-.1.9-.3.4-.5.4-.8-.3-.9-.8-1.5Z"/>
    <path d="M591.8,186h2.4v.3c-.7.2-1.3.4-1.5.7s-.4.7-.4,1.2,0,.6.3.9.4.3.6.3.5,0,.7-.2c.2-.2.4-.5.7-1l.5-1.1c.5-1,1.2-1.6,2-1.6s1.2.2,1.5.7.6,1,.6,1.6,0,.9-.2,1.5c0,.2,0,.3,0,.4s0,.2.2.3v.3h-2.5v-.3c.7-.1,1.3-.4,1.6-.8s.5-.9.5-1.4-.1-.6-.3-.9-.5-.3-.7-.3-.6.1-.9.4-.5.7-.9,1.5-.7,1.2-1,1.5c-.3.2-.7.3-1.1.3s-1.1-.2-1.4-.6-.6-.9-.6-1.5,0-.6.2-1c0-.3.1-.4.1-.5s0-.1,0-.2-.1,0-.2-.2v-.3Z"/>
    <path d="M592,178.3h4.2c.8,0,1.3,0,1.5,0s.3,0,.4-.2.1-.2.1-.3,0-.3-.1-.5h.3c0-.1.9,2,.9,2v.3h-1.5c.7.6,1.1,1.1,1.2,1.4s.3.6.3,1-.1.7-.3,1-.5.5-.9.6-.9.2-1.5.2h-3.1c-.3,0-.6,0-.7.1s-.2.2-.3.3-.1.4,0,.8h-.3v-2.5h4.7c.7,0,1.1-.1,1.3-.3s.3-.5.3-.8,0-.5-.2-.7-.4-.6-.8-1h-4c-.4,0-.7,0-.8.2s-.2.4-.2.9h-.3v-2.4Z"/>
    <path d="M591.8,174.6h1.6c-1-.6-1.6-1.2-1.6-1.8s0-.5.3-.7.4-.3.6-.3.4,0,.5.2.2.3.2.5,0,.4-.3.6-.3.4-.3.5,0,.2.2.3c.2.2.6.5,1,.7h3.4c.4,0,.7,0,.9-.1.1,0,.3-.2.3-.4s.1-.4.1-.7h.3v3.6h-.3c0-.4,0-.6-.2-.8,0-.1-.2-.2-.4-.3,0,0-.3,0-.7,0h-2.7c-.8,0-1.3,0-1.5,0s-.3,0-.3.2-.1.2-.1.3,0,.3.1.5h-.3c0,0-.9-2-.9-2v-.3Z"/>
    <path d="M594.7,170.3c1,0,1.9-.2,2.4-.8s.9-1.1.9-1.8-.1-.9-.4-1.2-.7-.6-1.3-.9l.2-.2c.7.1,1.3.4,1.9.9s.9,1.2.9,1.9-.3,1.6-1,2.2-1.5.9-2.6.9-2.1-.3-2.8-.9-1-1.4-1-2.3.3-1.4.8-1.9,1.2-.8,2.1-.8v4.8ZM594.2,170.3v-3.2c-.4,0-.8,0-.9.2-.3.1-.5.3-.7.6s-.2.5-.2.8c0,.4.2.8.5,1.1s.8.5,1.4.6Z"/>
    <path d="M591.8,160h2.4v.3c-.7.2-1.3.4-1.5.7s-.4.7-.4,1.2,0,.6.3.9.4.3.6.3.5,0,.7-.2c.2-.2.4-.5.7-1l.5-1.1c.5-1,1.2-1.6,2-1.6s1.2.2,1.5.7.6,1,.6,1.6,0,.9-.2,1.5c0,.2,0,.3,0,.4s0,.2.2.3v.3h-2.5v-.3c.7-.1,1.3-.4,1.6-.8s.5-.9.5-1.4-.1-.6-.3-.9-.5-.3-.7-.3-.6.1-.9.4-.5.7-.9,1.5-.7,1.2-1,1.5c-.3.2-.7.3-1.1.3s-1.1-.2-1.4-.6-.6-.9-.6-1.5,0-.6.2-1c0-.3.1-.4.1-.5s0-.1,0-.2-.1,0-.2-.2v-.3Z"/>
  </g>
  <g>
    <path class="st64" d="M512.7,376.6h1.6l3.5,4.3v-3.3c0-.4,0-.6-.1-.7-.1-.1-.3-.2-.5-.2h-.2v-.2h2v.2h-.2c-.2,0-.4,0-.5.2,0,0,0,.3,0,.6v4.9h-.2l-3.8-4.6v3.5c0,.4,0,.6.1.7.1.1.3.2.5.2h.2v.2h-2v-.2h.2c.2,0,.4,0,.5-.2,0,0,0-.3,0-.6v-4c-.2-.2-.3-.3-.4-.4s-.2-.1-.4-.2c0,0-.2,0-.4,0v-.2Z"/>
    <path class="st64" d="M521.3,378.3c.6,0,1.1.2,1.4.7.3.4.5.8.5,1.3s0,.7-.3,1.1-.4.6-.7.8-.6.3-1,.3c-.6,0-1.1-.2-1.4-.7-.3-.4-.4-.8-.4-1.3s0-.7.3-1.1.4-.6.7-.8.6-.3.9-.3ZM521.2,378.6c-.2,0-.3,0-.5.1s-.3.2-.4.5-.1.5-.1.9c0,.6.1,1.1.3,1.5s.5.6.9.6.5-.1.7-.3.3-.6.3-1.2-.1-1.2-.4-1.6c-.2-.3-.5-.4-.8-.4Z"/>
    <path class="st64" d="M524.9,379.1c.5-.5.9-.8,1.3-.8s.4,0,.5.2.3.3.4.5c0,.2,0,.4,0,.8v1.7c0,.2,0,.4,0,.5,0,0,0,.1.2.2s.2,0,.4,0v.2h-1.9v-.2h0c.2,0,.3,0,.4,0s.1-.1.2-.2c0,0,0-.2,0-.4v-1.6c0-.4,0-.6-.1-.8s-.2-.2-.5-.2c-.3,0-.7.2-1,.6v2.1c0,.3,0,.4,0,.5,0,0,0,.1.2.2s.2,0,.4,0v.2h-1.9v-.2h0c.2,0,.3,0,.4-.2s.1-.3.1-.6v-1.4c0-.5,0-.8,0-.9s0-.2,0-.2-.1,0-.2,0-.2,0-.3,0v-.2c0,0,1.1-.5,1.1-.5h.2v.8Z"/>
    <path class="st64" d="M528.2,380h2.2v.6h-2.2v-.6Z"/>
    <path class="st64" d="M530.7,378.8l1.2-.5h.2v.9c.2-.3.4-.6.6-.7s.4-.2.6-.2c.4,0,.7.2,1,.5.3.4.5.9.5,1.5s-.2,1.2-.6,1.7c-.3.4-.7.5-1.2.5s-.4,0-.5,0c-.1,0-.2-.1-.4-.3v1.2c0,.3,0,.4,0,.5s0,.1.2.2.2,0,.4,0v.2h-2v-.2h.1c.2,0,.3,0,.4,0,0,0,0,0,.1-.2s0-.2,0-.5v-3.7c0-.3,0-.4,0-.5s0-.1-.1-.2-.1,0-.2,0-.2,0-.3,0h0ZM532.1,379.5v1.5c0,.3,0,.5,0,.6,0,.2.1.3.3.4s.3.2.6.2.5-.1.7-.3c.2-.3.3-.7.3-1.2s-.1-1.1-.4-1.4c-.2-.2-.4-.3-.6-.3s-.3,0-.4.1c-.1,0-.3.2-.5.5Z"/>
    <path class="st64" d="M537.6,381.8c-.4.3-.6.5-.8.5-.2,0-.3.1-.5.1-.3,0-.5,0-.7-.3s-.3-.4-.3-.7,0-.4.1-.5c.1-.2.3-.4.6-.5s.8-.4,1.4-.6v-.2c0-.4,0-.7-.2-.8s-.3-.2-.5-.2-.3,0-.4.1c-.1,0-.2.2-.2.3v.2c0,.1,0,.2,0,.3s-.2.1-.3.1-.2,0-.3-.1,0-.2,0-.3c0-.2.1-.5.4-.7s.6-.3,1-.3.6,0,.8.2c.2,0,.3.2.4.4,0,.1,0,.4,0,.7v1.3c0,.4,0,.6,0,.7s0,.1,0,.2,0,0,.1,0,0,0,.1,0c0,0,.2-.1.3-.3v.2c-.3.4-.6.6-.9.6s-.2,0-.3-.1-.1-.3-.1-.5ZM537.6,381.5v-1.5c-.4.2-.7.3-.8.4-.2.1-.4.3-.5.4s-.1.3-.1.4,0,.4.2.5.3.2.4.2.5-.1.8-.4Z"/>
    <path class="st64" d="M540.3,378.3v.9c.3-.6.7-.9,1-.9s.3,0,.4.1.2.2.2.3,0,.2-.1.3-.2.1-.3.1-.2,0-.3-.1-.2-.1-.3-.1-.1,0-.2,0c-.1.1-.3.3-.4.6v1.9c0,.2,0,.4,0,.5,0,0,.1.1.2.2s.2,0,.4,0v.2h-2v-.2c.2,0,.3,0,.4,0,0,0,.1-.1.1-.2,0,0,0-.2,0-.4v-1.5c0-.5,0-.7,0-.8s0-.1-.1-.2-.1,0-.2,0-.2,0-.3,0v-.2s1.1-.5,1.1-.5h.2Z"/>
    <path class="st64" d="M544.3,381.8c-.4.3-.6.5-.8.5-.2,0-.3.1-.5.1-.3,0-.5,0-.7-.3s-.3-.4-.3-.7,0-.4.1-.5c.1-.2.3-.4.6-.5s.8-.4,1.4-.6v-.2c0-.4,0-.7-.2-.8s-.3-.2-.5-.2-.3,0-.4.1c-.1,0-.2.2-.2.3v.2c0,.1,0,.2,0,.3s-.2.1-.3.1-.2,0-.3-.1,0-.2,0-.3c0-.2.1-.5.4-.7s.6-.3,1-.3.6,0,.8.2c.2,0,.3.2.4.4,0,.1,0,.4,0,.7v1.3c0,.4,0,.6,0,.7s0,.1,0,.2,0,0,.1,0,0,0,.1,0c0,0,.2-.1.3-.3v.2c-.3.4-.6.6-.9.6s-.2,0-.3-.1-.1-.3-.1-.5ZM544.3,381.5v-1.5c-.4.2-.7.3-.8.4-.2.1-.4.3-.5.4s-.1.3-.1.4,0,.4.2.5.3.2.4.2.5-.1.8-.4Z"/>
    <path class="st64" d="M547.1,379.1c.3-.3.5-.4.5-.5.1-.1.3-.2.4-.3s.3,0,.4,0c.2,0,.5,0,.6.2s.3.3.4.6c.3-.3.5-.6.7-.7s.4-.2.6-.2.4,0,.5.2.3.3.4.5c0,.2,0,.4,0,.8v1.7c0,.2,0,.4,0,.5,0,0,0,.1.2.2s.2,0,.4,0v.2h-1.9v-.2h0c.2,0,.3,0,.4,0,0,0,.1-.1.1-.2,0,0,0-.2,0-.4v-1.7c0-.3,0-.5-.1-.7-.1-.2-.3-.3-.5-.3s-.3,0-.5.1-.3.2-.5.4h0s0,.2,0,.2v1.9c0,.3,0,.4,0,.5s0,.1.2.2.2,0,.4,0v.2h-2v-.2c.2,0,.4,0,.4,0s.1-.1.2-.2c0,0,0-.2,0-.4v-1.7c0-.3,0-.5-.1-.7-.1-.2-.3-.3-.5-.3s-.3,0-.5.1c-.2.1-.4.3-.5.4v2.1c0,.3,0,.4,0,.5s0,.1.2.2.2,0,.4,0v.2h-1.9v-.2c.2,0,.3,0,.4,0s.1,0,.2-.2,0-.2,0-.5v-1.5c0-.4,0-.7,0-.8,0,0,0-.2,0-.2s-.1,0-.2,0-.2,0-.3,0v-.2c0,0,1.1-.5,1.1-.5h.2v.8Z"/>
    <path class="st64" d="M553.4,379.9c0,.6.1,1,.4,1.4s.6.5,1,.5.5,0,.7-.2.3-.4.5-.7h.1c0,.5-.2.8-.5,1.1s-.6.5-1.1.5-.9-.2-1.2-.5-.5-.9-.5-1.5.2-1.2.5-1.6.8-.6,1.3-.6.8.1,1.1.4.4.7.4,1.2h-2.7ZM553.4,379.6h1.8c0-.2,0-.4,0-.5,0-.2-.2-.3-.3-.4s-.3-.1-.4-.1c-.2,0-.4,0-.6.3s-.3.4-.3.8Z"/>
    <path class="st64" d="M557.7,377.1v1.3h.9v.3h-.9v2.5c0,.3,0,.4.1.5s.2.1.3.1.2,0,.3,0,.2-.1.2-.3h.2c0,.3-.2.5-.4.6s-.4.2-.6.2-.3,0-.4-.1-.2-.2-.3-.3,0-.3,0-.6v-2.6h-.6c.2-.2.3-.3.5-.5s.3-.3.4-.5c0-.1.2-.3.3-.6h.1Z"/>
    <path class="st64" d="M559.7,379.9c0,.6.1,1,.4,1.4s.6.5,1,.5.5,0,.7-.2.3-.4.5-.7h.1c0,.5-.2.8-.5,1.1s-.6.5-1.1.5-.9-.2-1.2-.5-.5-.9-.5-1.5.2-1.2.5-1.6.8-.6,1.3-.6.8.1,1.1.4.4.7.4,1.2h-2.7ZM559.7,379.6h1.8c0-.2,0-.4,0-.5,0-.2-.2-.3-.3-.4s-.3-.1-.4-.1c-.2,0-.4,0-.6.3s-.3.4-.3.8Z"/>
    <path class="st64" d="M564,378.3v.9c.3-.6.7-.9,1-.9s.3,0,.4.1.2.2.2.3,0,.2-.1.3-.2.1-.3.1-.2,0-.3-.1-.2-.1-.3-.1-.1,0-.2,0c-.1.1-.3.3-.4.6v1.9c0,.2,0,.4,0,.5,0,0,.1.1.2.2s.2,0,.4,0v.2h-2v-.2c.2,0,.3,0,.4,0,0,0,.1-.1.1-.2,0,0,0-.2,0-.4v-1.5c0-.5,0-.7,0-.8s0-.1-.1-.2-.1,0-.2,0-.2,0-.3,0v-.2s1.1-.5,1.1-.5h.2Z"/>
    <path class="st64" d="M567.1,378.3v3.1c0,.2,0,.4,0,.5s0,.1.2.2.2,0,.4,0v.2h-1.9v-.2c.2,0,.3,0,.4,0s.1,0,.2-.2,0-.2,0-.5v-1.5c0-.4,0-.7,0-.8,0,0,0-.2,0-.2s-.1,0-.2,0-.2,0-.3,0v-.2c0,0,1.1-.5,1.1-.5h.2ZM566.7,376.3c.1,0,.2,0,.3.1s.1.2.1.3,0,.2-.1.3-.2.1-.3.1-.2,0-.3-.1-.1-.2-.1-.3,0-.2.1-.3.2-.1.3-.1Z"/>
    <path class="st64" d="M571.5,380.8c-.1.5-.3.9-.6,1.2s-.6.4-1,.4-.8-.2-1.2-.6-.5-.9-.5-1.5.2-1.1.5-1.5.8-.6,1.3-.6.7.1.9.3.4.4.4.6,0,.2-.1.3-.2,0-.3,0-.3,0-.4-.2c0,0,0-.2,0-.3s0-.3-.2-.4c0,0-.2-.1-.4-.1-.3,0-.5.1-.7.3-.2.3-.3.6-.3,1.1s.1.9.3,1.2.5.5.9.5.5,0,.7-.3c.2-.1.3-.4.5-.7h.1Z"/>
  </g>
  <g>
    <path class="st64" d="M540.5,387.7h-1.8l-.3.7c0,.2-.1.3-.1.4s0,.1.1.2.2,0,.4.1h0c0,.1-1.5.1-1.5.1h0c.2-.2.3-.2.4-.3.1-.1.3-.3.4-.7l1.7-3.9h.1l1.7,4c.1.3.3.5.4.6s.3.1.5.2h0c0,.1-1.9.1-1.9.1h0c.2-.1.3-.2.4-.2s0-.1,0-.2,0-.3-.1-.5l-.3-.7ZM540.4,387.5l-.8-1.9-.8,1.9h1.6Z"/>
    <path class="st64" d="M542.3,386.4l1-.4h.1v.7c.2-.3.3-.5.5-.6s.3-.2.5-.2c.3,0,.6.1.8.4.3.3.4.7.4,1.2s-.2,1-.5,1.4c-.3.3-.6.4-1,.4s-.3,0-.4,0c0,0-.2-.1-.3-.2v1c0,.2,0,.4,0,.4s0,.1.1.1.2,0,.4,0h0c0,.1-1.7.1-1.7.1h0c0-.1,0-.1,0-.1.1,0,.2,0,.3,0,0,0,0,0,.1-.1s0-.2,0-.4v-3c0-.2,0-.3,0-.4s0,0,0-.1,0,0-.2,0-.1,0-.2,0h0ZM543.5,387v1.2c0,.3,0,.4,0,.5,0,.1.1.3.2.4s.3.2.5.2.4,0,.6-.3c.2-.2.3-.6.3-1s-.1-.9-.3-1.1c-.1-.2-.3-.3-.5-.3s-.2,0-.3,0c0,0-.2.2-.4.4Z"/>
    <path class="st64" d="M545.9,386.4l1-.4h.1v.7c.2-.3.3-.5.5-.6s.3-.2.5-.2c.3,0,.6.1.8.4.3.3.4.7.4,1.2s-.2,1-.5,1.4c-.3.3-.6.4-1,.4s-.3,0-.4,0c0,0-.2-.1-.3-.2v1c0,.2,0,.4,0,.4s0,.1.1.1.2,0,.4,0h0c0,.1-1.7.1-1.7.1h0c0-.1,0-.1,0-.1.1,0,.2,0,.3,0,0,0,0,0,.1-.1s0-.2,0-.4v-3c0-.2,0-.3,0-.4s0,0,0-.1,0,0-.2,0-.1,0-.2,0h0ZM547.1,387v1.2c0,.3,0,.4,0,.5,0,.1.1.3.2.4s.3.2.5.2.4,0,.6-.3c.2-.2.3-.6.3-1s-.1-.9-.3-1.1c-.1-.2-.3-.3-.5-.3s-.2,0-.3,0c0,0-.2.2-.4.4Z"/>
    <path class="st64" d="M550.7,386v.7c.3-.5.5-.7.8-.7s.2,0,.3.1.1.2.1.3,0,.2,0,.2-.1,0-.2,0-.2,0-.3-.1-.2-.1-.2-.1,0,0-.1,0c-.1,0-.2.3-.3.5v1.5c0,.2,0,.3,0,.4,0,0,0,.1.2.2s.2,0,.3,0h0c0,.1-1.6.1-1.6.1h0c.2-.1.3-.2.4-.2,0,0,0,0,.1-.2,0,0,0-.2,0-.3v-1.2c0-.4,0-.6,0-.7s0-.1,0-.2,0,0-.2,0-.2,0-.2,0h0c0-.1,1-.5,1-.5h.1Z"/>
    <path class="st64" d="M553.7,386c.5,0,.9.2,1.2.6.2.3.4.7.4,1.1s0,.6-.2.9-.3.5-.6.7-.5.2-.8.2c-.5,0-.9-.2-1.2-.6-.2-.3-.4-.7-.4-1.1s0-.6.2-.9.3-.5.6-.6.5-.2.8-.2ZM553.6,386.3c-.1,0-.2,0-.4.1s-.2.2-.3.4-.1.4-.1.7c0,.5,0,.9.3,1.2s.4.5.7.5.4,0,.6-.3.2-.5.2-1-.1-1-.4-1.3c-.2-.2-.4-.3-.6-.3Z"/>
    <path class="st64" d="M557.5,388.9c-.3.3-.5.4-.6.4-.1,0-.3,0-.4,0-.2,0-.4,0-.5-.2s-.2-.4-.2-.6,0-.3.1-.4c0-.2.3-.3.5-.4s.6-.3,1.2-.5h0c0-.4,0-.7-.2-.8s-.2-.2-.4-.2-.3,0-.4.1c0,0-.1.2-.1.3v.2c0,.1,0,.2,0,.2s-.1,0-.2,0-.2,0-.2,0,0-.1,0-.2c0-.2.1-.4.3-.6s.5-.3.9-.3.5,0,.7.1c.1,0,.2.2.3.3,0,.1,0,.3,0,.6v1.1c0,.3,0,.5,0,.6s0,.1,0,.1,0,0,0,0,0,0,0,0c0,0,.1-.1.3-.3v.2c-.3.4-.5.5-.7.5s-.2,0-.3-.1-.1-.2-.1-.4ZM557.5,388.6v-1.2c-.4.1-.6.2-.7.3-.2.1-.3.2-.4.3s-.1.2-.1.4,0,.3.2.4.2.2.3.2.4-.1.7-.4Z"/>
    <path class="st64" d="M561.6,388.1c0,.4-.3.7-.5,1s-.5.3-.8.3-.7-.2-1-.5-.4-.7-.4-1.2.2-.9.5-1.2.7-.5,1.1-.5.6,0,.8.3.3.3.3.5,0,.2,0,.2-.1,0-.2,0-.2,0-.3-.1c0,0,0-.1,0-.3s0-.2-.1-.3c0,0-.2-.1-.3-.1-.2,0-.4,0-.6.3-.2.2-.3.5-.3.9s0,.7.3,1,.4.4.8.4.4,0,.6-.2c.1-.1.3-.3.4-.6h.1Z"/>
    <path class="st64" d="M563,384.4v2.3c.3-.3.5-.5.6-.5s.3-.1.5-.1.3,0,.5.2.2.3.3.5c0,.1,0,.4,0,.8v1.1c0,.2,0,.3,0,.4,0,0,0,.1.1.1s.2,0,.3,0h0c0,.1-1.6.1-1.6.1h0c0-.1,0-.1,0-.1.1,0,.3,0,.3,0s0-.1.1-.2c0,0,0-.1,0-.3v-1.1c0-.4,0-.6,0-.7s0-.2-.2-.2-.2,0-.3,0-.2,0-.4,0-.3.2-.4.4v1.7c0,.2,0,.4,0,.4s0,0,.1.1.2,0,.3,0h0c0,.1-1.6.1-1.6.1h0c.1-.1.3-.1.3-.2,0,0,0,0,.1-.1s0-.2,0-.4v-2.9c0-.4,0-.6,0-.7s0-.1,0-.2,0,0-.1,0-.1,0-.2,0h0c0-.1,1-.5,1-.5h.2Z"/>
    <path class="st64" d="M566.2,387.3c0,.5.1.9.3,1.1s.5.4.8.4.4,0,.5-.2.3-.3.4-.6h.1c0,.4-.2.7-.4.9s-.5.4-.9.4-.7-.2-1-.5-.4-.7-.4-1.2.1-1,.4-1.3.6-.5,1.1-.5.7.1.9.4.3.6.3,1h-2.2ZM566.2,387.1h1.5c0-.2,0-.4,0-.4,0-.1-.1-.2-.3-.3s-.2-.1-.4-.1c-.2,0-.4,0-.5.2s-.2.4-.3.6Z"/>
    <path class="st64" d="M570.9,386v1.1h-.1c0-.3-.2-.6-.3-.7s-.3-.2-.5-.2-.3,0-.4.1-.2.2-.2.3,0,.2.1.3c0,0,.2.2.4.3l.5.2c.5.2.7.5.7.9s-.1.5-.3.7-.5.3-.7.3-.4,0-.7-.1c0,0-.1,0-.2,0s0,0-.1,0h-.1v-1.1h.1c0,.3.2.6.4.7s.4.2.6.2.3,0,.4-.1.2-.2.2-.3,0-.3-.2-.4-.3-.2-.7-.4-.6-.3-.7-.5c-.1-.1-.2-.3-.2-.5s0-.5.3-.7.4-.3.7-.3.3,0,.5,0c.1,0,.2,0,.2,0s0,0,0,0,0,0,0-.1h.1Z"/>
  </g>
  <g>
    <path d="M358.7,356.9l-2.5-5.5v4.4c0,.4,0,.7.1.8.1.1.3.2.6.2h.2v.2h-2.3v-.2h.2c.3,0,.5,0,.6-.3,0-.1.1-.3.1-.7v-4.3c0-.3,0-.5,0-.6,0,0-.1-.2-.2-.2s-.3,0-.6,0v-.2h1.8l2.4,5.1,2.3-5.1h1.8v.2h-.2c-.3,0-.5,0-.6.3,0,.1-.1.3-.1.7v4.3c0,.4,0,.7.1.8.1.1.3.2.6.2h.2v.2h-2.8v-.2h.2c.3,0,.5,0,.6-.3,0-.1.1-.3.1-.7v-4.4l-2.5,5.5h-.2Z"/>
    <path d="M367.6,352.5v2.7c0,.5,0,.8,0,.9s0,.2.1.2.1,0,.2,0,.2,0,.3,0v.2c0,0-1.3.5-1.3.5h-.2v-.9c-.4.4-.7.7-.9.8s-.4.2-.6.2-.5,0-.6-.2-.3-.3-.4-.6-.1-.5-.1-1v-2c0-.2,0-.4,0-.4s-.1-.1-.2-.2-.2,0-.5,0v-.2h1.5v2.9c0,.4,0,.7.2.8s.3.2.5.2.3,0,.5-.1.4-.3.6-.5v-2.5c0-.3,0-.4-.1-.5s-.3-.1-.6-.1v-.2h1.5Z"/>
    <path d="M370.1,350.1v5.8c0,.3,0,.5,0,.5s.1.2.2.2.2,0,.5,0v.2h-2.2v-.2c.2,0,.3,0,.4,0s.1-.1.2-.2,0-.3,0-.6v-4c0-.5,0-.8,0-.9s0-.2-.1-.2-.1,0-.2,0-.2,0-.3,0v-.2c0,0,1.2-.5,1.2-.5h.2Z"/>
    <path d="M372.6,351v1.4h1v.3h-1v2.9c0,.3,0,.5.1.6s.2.1.3.1.2,0,.3,0,.2-.2.2-.3h.2c-.1.3-.3.6-.5.7s-.4.2-.6.2-.3,0-.4-.1-.2-.2-.3-.4-.1-.4-.1-.7v-3h-.7v-.2c.2,0,.4-.2.5-.4s.3-.4.5-.6c0-.1.2-.3.3-.7h.1Z"/>
    <path d="M375.6,352.4v3.5c0,.3,0,.5,0,.6s0,.2.2.2.2,0,.4,0v.2h-2.1v-.2c.2,0,.4,0,.4,0s.1-.1.2-.2,0-.3,0-.6v-1.7c0-.5,0-.8,0-.9,0-.1,0-.2-.1-.2s-.1,0-.2,0-.2,0-.3,0v-.2c0,0,1.3-.5,1.3-.5h.2ZM375.2,350.1c.1,0,.2,0,.3.1s.1.2.1.3,0,.3-.1.3-.2.1-.3.1-.3,0-.3-.1-.1-.2-.1-.3,0-.2.1-.3.2-.1.3-.1Z"/>
    <path d="M376.9,354.3h2.5v.7h-2.5v-.7Z"/>
    <path d="M344.4,367.1c-.3-.1-.5-.3-.6-.6s-.2-.5-.2-.8c0-.4.2-.8.5-1.1s.7-.5,1.3-.5.8.1,1.1.3h.9c.1,0,.2,0,.2,0s0,0,0,0c0,0,0,0,0,.2s0,.1,0,.2c0,0,0,0,0,0s-.1,0-.2,0h-.6c.2.2.3.5.3.9s-.2.8-.5,1.1-.7.4-1.3.4-.4,0-.7,0c-.1.1-.2.2-.3.3s0,.2,0,.2,0,.1,0,.2.2,0,.3.1c0,0,.3,0,.7,0,.7,0,1.1,0,1.3,0,.3,0,.5.2.7.3s.3.4.3.7-.2.7-.5,1c-.5.5-1.2.7-2,.7s-1.1-.1-1.6-.4c-.2-.2-.4-.3-.4-.5s0-.2,0-.2c0-.1.2-.3.3-.5,0,0,.2-.2.5-.5-.2,0-.3-.2-.4-.3s-.1-.2-.1-.3,0-.2.1-.4.3-.4.6-.6ZM344.3,368.7c-.2.2-.3.3-.3.5s-.1.3-.1.4,0,.3.3.4c.3.2.8.3,1.4.3s1-.1,1.3-.3.4-.4.4-.7,0-.3-.2-.4c-.2,0-.5-.1-1-.1-.7,0-1.3,0-1.7-.1ZM345.2,364.4c-.2,0-.4,0-.6.3s-.2.5-.2.9.1.9.3,1.2c.2.2.4.3.6.3s.4,0,.6-.3.2-.5.2-.9-.1-.9-.3-1.2c-.2-.2-.4-.3-.6-.3Z"/>
    <path d="M348.8,366c0,.7.2,1.2.5,1.5s.7.6,1.1.6.5,0,.8-.2.4-.4.5-.8h.1c0,.5-.3.9-.6,1.3s-.7.5-1.2.5-1-.2-1.4-.6-.6-1-.6-1.7.2-1.3.6-1.8.9-.6,1.5-.6.9.2,1.2.5.5.8.5,1.3h-3ZM348.8,365.7h2c0-.3,0-.5-.1-.6,0-.2-.2-.3-.4-.4s-.3-.2-.5-.2c-.3,0-.5.1-.7.3s-.3.5-.4.9Z"/>
    <path d="M353.8,365.1c.5-.6,1-.9,1.5-.9s.4,0,.6.2.3.3.4.6c0,.2.1.5.1.9v1.9c0,.3,0,.5,0,.6,0,0,0,.1.2.2s.2,0,.4,0v.2h-2.2v-.2h0c.2,0,.3,0,.4,0s.1-.2.2-.3c0,0,0-.2,0-.5v-1.8c0-.4,0-.7-.2-.9s-.3-.3-.5-.3c-.4,0-.8.2-1.1.6v2.3c0,.3,0,.5,0,.6,0,0,.1.2.2.2s.2,0,.5,0v.2h-2.2v-.2h0c.2,0,.4,0,.5-.2s.1-.3.1-.7v-1.6c0-.5,0-.9,0-1s0-.2-.1-.2-.1,0-.2,0-.2,0-.3,0v-.2c0,0,1.3-.5,1.3-.5h.2v.9Z"/>
    <path d="M358.1,366c0,.7.2,1.2.5,1.5s.7.6,1.1.6.5,0,.8-.2.4-.4.5-.8h.1c0,.5-.3.9-.6,1.3s-.7.5-1.2.5-1-.2-1.4-.6-.6-1-.6-1.7.2-1.3.6-1.8.9-.6,1.5-.6.9.2,1.2.5.5.8.5,1.3h-3ZM358.1,365.7h2c0-.3,0-.5-.1-.6,0-.2-.2-.3-.4-.4s-.3-.2-.5-.2c-.3,0-.5.1-.7.3s-.3.5-.4.9Z"/>
    <path d="M363.1,364.2v1c.4-.7.7-1,1.1-1s.3,0,.4.2.2.2.2.4,0,.2-.1.3-.2.1-.3.1-.2,0-.4-.2-.2-.2-.3-.2-.1,0-.2,0c-.1.1-.3.3-.4.6v2.1c0,.2,0,.4,0,.6,0,0,.1.2.2.2s.3,0,.5,0v.2h-2.3v-.2c.2,0,.4,0,.5-.1,0,0,.1-.1.2-.2,0,0,0-.2,0-.5v-1.7c0-.5,0-.8,0-.9s0-.2-.1-.2-.1,0-.2,0-.2,0-.3,0v-.2s1.3-.5,1.3-.5h.2Z"/>
    <path d="M367.6,368.1c-.5.3-.7.6-.9.6-.2,0-.4.1-.6.1-.3,0-.6-.1-.8-.3s-.3-.5-.3-.8,0-.4.1-.6c.1-.2.4-.4.7-.6s.9-.4,1.6-.7v-.2c0-.4,0-.7-.2-.9s-.3-.2-.6-.2-.4,0-.5.2c-.1.1-.2.2-.2.4v.3c0,.1,0,.3-.1.3s-.2.1-.3.1-.2,0-.3-.1-.1-.2-.1-.3c0-.3.1-.5.4-.8s.7-.3,1.2-.3.7,0,1,.2c.2,0,.3.3.4.5,0,.1,0,.4,0,.8v1.5c0,.4,0,.7,0,.8s0,.2,0,.2,0,0,.1,0,0,0,.1,0c0,0,.2-.2.4-.4v.3c-.4.5-.7.7-1,.7s-.3,0-.4-.2-.1-.3-.1-.6ZM367.6,367.8v-1.7c-.5.2-.8.3-.9.4-.3.1-.4.3-.5.4s-.2.3-.2.5,0,.4.2.6.3.2.5.2.6-.2,1-.5Z"/>
    <path d="M370.7,362.9v1.4h1v.3h-1v2.9c0,.3,0,.5.1.6s.2.1.3.1.2,0,.3,0,.2-.2.2-.3h.2c-.1.3-.3.6-.5.7s-.4.2-.6.2-.3,0-.4-.1-.2-.2-.3-.4-.1-.4-.1-.7v-3h-.7v-.2c.2,0,.4-.2.5-.4s.3-.4.5-.6c0-.1.2-.3.3-.7h.1Z"/>
    <path d="M373.7,364.2v3.5c0,.3,0,.5,0,.6s0,.2.2.2.2,0,.4,0v.2h-2.1v-.2c.2,0,.4,0,.4,0s.1-.1.2-.2,0-.3,0-.6v-1.7c0-.5,0-.8,0-.9,0-.1,0-.2-.1-.2s-.1,0-.2,0-.2,0-.3,0v-.2c0,0,1.3-.5,1.3-.5h.2ZM373.3,361.9c.1,0,.2,0,.3.1s.1.2.1.3,0,.3-.1.3-.2.1-.3.1-.3,0-.3-.1-.1-.2-.1-.3,0-.2.1-.3.2-.1.3-.1Z"/>
    <path d="M377.1,364.2c.7,0,1.2.3,1.6.8.3.4.5.9.5,1.5s0,.8-.3,1.2-.4.7-.8.9-.7.3-1.1.3c-.7,0-1.2-.3-1.6-.8-.3-.4-.5-.9-.5-1.5s.1-.8.3-1.2.5-.7.8-.9.7-.3,1-.3ZM376.9,364.5c-.2,0-.3,0-.5.2s-.3.3-.4.5-.2.6-.2,1c0,.6.1,1.2.4,1.7s.6.7,1,.7.6-.1.8-.4.3-.7.3-1.3-.2-1.4-.5-1.8c-.2-.3-.5-.5-.9-.5Z"/>
    <path d="M381.1,365.1c.5-.6,1-.9,1.5-.9s.4,0,.6.2.3.3.4.6c0,.2.1.5.1.9v1.9c0,.3,0,.5,0,.6,0,0,0,.1.2.2s.2,0,.4,0v.2h-2.2v-.2h0c.2,0,.3,0,.4,0s.1-.2.2-.3c0,0,0-.2,0-.5v-1.8c0-.4,0-.7-.2-.9s-.3-.3-.5-.3c-.4,0-.8.2-1.1.6v2.3c0,.3,0,.5,0,.6,0,0,.1.2.2.2s.2,0,.5,0v.2h-2.2v-.2h0c.2,0,.4,0,.5-.2s.1-.3.1-.7v-1.6c0-.5,0-.9,0-1s0-.2-.1-.2-.1,0-.2,0-.2,0-.3,0v-.2c0,0,1.3-.5,1.3-.5h.2v.9Z"/>
    <path d="M387.3,368.1c-.5.3-.7.6-.9.6-.2,0-.4.1-.6.1-.3,0-.6-.1-.8-.3s-.3-.5-.3-.8,0-.4.1-.6c.1-.2.4-.4.7-.6s.9-.4,1.6-.7v-.2c0-.4,0-.7-.2-.9s-.3-.2-.6-.2-.4,0-.5.2c-.1.1-.2.2-.2.4v.3c0,.1,0,.3-.1.3s-.2.1-.3.1-.2,0-.3-.1-.1-.2-.1-.3c0-.3.1-.5.4-.8s.7-.3,1.2-.3.7,0,1,.2c.2,0,.3.3.4.5,0,.1,0,.4,0,.8v1.5c0,.4,0,.7,0,.8s0,.2,0,.2,0,0,.1,0,0,0,.1,0c0,0,.2-.2.4-.4v.3c-.4.5-.7.7-1,.7s-.3,0-.4-.2-.1-.3-.1-.6ZM387.3,367.8v-1.7c-.5.2-.8.3-.9.4-.3.1-.4.3-.5.4s-.2.3-.2.5,0,.4.2.6.3.2.5.2.6-.2,1-.5Z"/>
    <path d="M390.7,361.9v5.8c0,.3,0,.5,0,.5s.1.2.2.2.2,0,.5,0v.2h-2.2v-.2c.2,0,.3,0,.4,0s.1-.1.2-.2,0-.3,0-.6v-4c0-.5,0-.8,0-.9s0-.2-.1-.2-.1,0-.2,0-.2,0-.3,0v-.2c0,0,1.2-.5,1.2-.5h.2Z"/>
    <path d="M352.4,380.6l-2.5-5.5v4.4c0,.4,0,.7.1.8.1.1.3.2.6.2h.2v.2h-2.3v-.2h.2c.3,0,.5,0,.6-.3,0-.1.1-.3.1-.7v-4.3c0-.3,0-.5,0-.6,0,0-.1-.2-.2-.2s-.3,0-.6,0v-.2h1.8l2.4,5.1,2.3-5.1h1.8v.2h-.2c-.3,0-.5,0-.6.3,0,.1-.1.3-.1.7v4.3c0,.4,0,.7.1.8.1.1.3.2.6.2h.2v.2h-2.8v-.2h.2c.3,0,.5,0,.6-.3,0-.1.1-.3.1-.7v-4.4l-2.5,5.5h-.2Z"/>
    <path d="M358.1,377.8c0,.7.2,1.2.5,1.5s.7.6,1.1.6.5,0,.8-.2.4-.4.5-.8h.1c0,.5-.3.9-.6,1.3s-.7.5-1.2.5-1-.2-1.4-.6-.6-1-.6-1.7.2-1.3.6-1.8.9-.6,1.5-.6.9.2,1.2.5.5.8.5,1.3h-3ZM358.1,377.5h2c0-.3,0-.5-.1-.6,0-.2-.2-.3-.4-.4s-.3-.2-.5-.2c-.3,0-.5.1-.7.3s-.3.5-.4.9Z"/>
    <path d="M364.3,379.9c-.5.3-.7.6-.9.6-.2,0-.4.1-.6.1-.3,0-.6-.1-.8-.3s-.3-.5-.3-.8,0-.4.1-.6c.1-.2.4-.4.7-.6s.9-.4,1.6-.7v-.2c0-.4,0-.7-.2-.9s-.3-.2-.6-.2-.4,0-.5.2c-.1.1-.2.2-.2.4v.3c0,.1,0,.3-.1.3s-.2.1-.3.1-.2,0-.3-.1-.1-.2-.1-.3c0-.3.1-.5.4-.8s.7-.3,1.2-.3.7,0,1,.2c.2,0,.3.3.4.5,0,.1,0,.4,0,.8v1.5c0,.4,0,.7,0,.8s0,.2,0,.2,0,0,.1,0,0,0,.1,0c0,0,.2-.2.4-.4v.3c-.4.5-.7.7-1,.7s-.3,0-.4-.2-.1-.3-.1-.6ZM364.3,379.6v-1.7c-.5.2-.8.3-.9.4-.3.1-.4.3-.5.4s-.2.3-.2.5,0,.4.2.6.3.2.5.2.6-.2,1-.5Z"/>
    <path d="M369,376v1.5h-.2c-.1-.5-.3-.8-.5-1s-.4-.3-.7-.3-.4,0-.5.2-.2.3-.2.4,0,.3.2.5c0,.1.3.3.6.4l.7.3c.7.3,1,.7,1,1.3s-.2.7-.5,1-.6.4-1,.4-.6,0-.9-.1c-.1,0-.2,0-.3,0s-.1,0-.2.1h-.2v-1.6h.2c0,.4.3.8.5,1s.5.3.9.3.4,0,.5-.2.2-.3.2-.5,0-.4-.2-.6-.5-.3-.9-.6-.8-.4-.9-.6c-.1-.2-.2-.4-.2-.7s.1-.7.4-.9.6-.4,1-.4.4,0,.6.1c.2,0,.3,0,.3,0s0,0,.1,0,0,0,.1-.1h.2Z"/>
    <path d="M373.9,376.1v2.7c0,.5,0,.8,0,.9s0,.2.1.2.1,0,.2,0,.2,0,.3,0v.2c0,0-1.3.5-1.3.5h-.2v-.9c-.4.4-.7.7-.9.8s-.4.2-.6.2-.5,0-.6-.2-.3-.3-.4-.6-.1-.5-.1-1v-2c0-.2,0-.4,0-.4s-.1-.1-.2-.2-.2,0-.5,0v-.2h1.5v2.9c0,.4,0,.7.2.8s.3.2.5.2.3,0,.5-.1.4-.3.6-.5v-2.5c0-.3,0-.4-.1-.5s-.3-.1-.6-.1v-.2h1.5Z"/>
    <path d="M376.2,376v1c.4-.7.7-1,1.1-1s.3,0,.4.2.2.2.2.4,0,.2-.1.3-.2.1-.3.1-.2,0-.4-.2-.2-.2-.3-.2-.1,0-.2,0c-.1.1-.3.3-.4.6v2.1c0,.2,0,.4,0,.6,0,0,.1.2.2.2s.3,0,.5,0v.2h-2.3v-.2c.2,0,.4,0,.5-.1,0,0,.1-.1.2-.2,0,0,0-.2,0-.5v-1.7c0-.5,0-.8,0-.9s0-.2-.1-.2-.1,0-.2,0-.2,0-.3,0v-.2s1.3-.5,1.3-.5h.2Z"/>
    <path d="M378.9,377.8c0,.7.2,1.2.5,1.5s.7.6,1.1.6.5,0,.8-.2.4-.4.5-.8h.1c0,.5-.3.9-.6,1.3s-.7.5-1.2.5-1-.2-1.4-.6-.6-1-.6-1.7.2-1.3.6-1.8.9-.6,1.5-.6.9.2,1.2.5.5.8.5,1.3h-3ZM378.9,377.5h2c0-.3,0-.5-.1-.6,0-.2-.2-.3-.4-.4s-.3-.2-.5-.2c-.3,0-.5.1-.7.3s-.3.5-.4.9Z"/>
    <path d="M385.4,376v1.5h-.2c-.1-.5-.3-.8-.5-1s-.4-.3-.7-.3-.4,0-.5.2-.2.3-.2.4,0,.3.2.5c0,.1.3.3.6.4l.7.3c.7.3,1,.7,1,1.3s-.2.7-.5,1-.6.4-1,.4-.6,0-.9-.1c-.1,0-.2,0-.3,0s-.1,0-.2.1h-.2v-1.6h.2c0,.4.3.8.5,1s.5.3.9.3.4,0,.5-.2.2-.3.2-.5,0-.4-.2-.6-.5-.3-.9-.6-.8-.4-.9-.6c-.1-.2-.2-.4-.2-.7s.1-.7.4-.9.6-.4,1-.4.4,0,.6.1c.2,0,.3,0,.3,0s0,0,.1,0,0,0,.1-.1h.2Z"/>
  </g>
</svg>