<?xml version="1.0" encoding="UTF-8"?>
<svg id="Layer_1" xmlns="http://www.w3.org/2000/svg" version="1.1" viewBox="0 0 2906 2099">
  <!-- Generator: Adobe Illustrator 29.8.2, SVG Export Plug-In . SVG Version: 2.1.1 Build 3)  -->
  <defs>
    <style>
      .st0, .st1, .st2, .st3, .st4, .st5, .st6 {
        fill: none;
      }

      .st0, .st1, .st7 {
        stroke-width: 10px;
      }

      .st0, .st8, .st9, .st10 {
        stroke: #d9d9d9;
        stroke-miterlimit: 8;
      }

      .st1 {
        stroke: #000;
        stroke-dasharray: 12;
      }

      .st1, .st2, .st3, .st4, .st11, .st7, .st5, .st6 {
        stroke-miterlimit: 10;
      }

      .st2 {
        stroke-dasharray: 24.1 24.1;
      }

      .st2, .st3, .st4, .st11, .st7, .st5, .st6 {
        stroke: #dad9d9;
      }

      .st2, .st3, .st4, .st5, .st6 {
        stroke-width: 7.2px;
      }

      .st8 {
        fill: #d95f02;
      }

      .st8, .st9, .st10 {
        fill-rule: evenodd;
        stroke-width: 4.9px;
      }

      .st3 {
        stroke-dasharray: 24;
      }

      .st12, .st13 {
        isolation: isolate;
      }

      .st11 {
        stroke-width: 8.2px;
      }

      .st11, .st7 {
        fill: #e7298a;
      }

      .st13 {
        font-family: Arial-BoldMT, Arial;
        font-size: 53.7px;
        font-weight: 700;
      }

      .st13, .st14 {
        fill: #f2f2f2;
      }

      .st9 {
        fill: #1b9e77;
      }

      .st5 {
        stroke-dasharray: 25.2 25.2;
      }

      .st6 {
        stroke-dasharray: 23.5 23.5;
      }

      .st10 {
        fill: #7570b3;
      }
    </style>
  </defs>
  <rect class="st7" x="-647.7" y="843.7" width="151.4" height="151.4"/>
  <g>
    <path class="st1" d="M1565.7,1325.5"/>
    <g>
      <line class="st4" x1="912.7" y1="975.7" x2="922.1" y2="983.1"/>
      <line class="st2" x1="941.2" y1="997.9" x2="1312.5" y2="1287.1"/>
      <line class="st4" x1="1322" y1="1294.5" x2="1331.4" y2="1301.9"/>
    </g>
    <g>
      <path class="st0" d="M1642.7,1353.2l107.4,94.5"/>
      <path class="st0" d="M1015.8,1325.5h289"/>
      <path class="st0" d="M967.5,1380.6l740.8,115.3"/>
      <path class="st0" d="M1722.6,1528.6l-356.9,95"/>
      <path class="st0" d="M1209.3,1732.1l147.2,76"/>
      <path class="st0" d="M1920.2,1550.5l-197.6,181.6"/>
      <path class="st0" d="M1463.7,1400.5l42.1,321.1"/>
      <path class="st0" d="M755,1455.1l-80.8,138.8"/>
      <path class="st0" d="M881.9,1435.2l166.3,172.8"/>
      <path class="st0" d="M1328.1,1368.2l-511.5,255.4"/>
    </g>
    <path class="st8" d="M698.3,1316.7c88.4-41.1,213.1-52.3,278.5-25.1,65.4,27.2,46.7,82.6-41.7,123.7s-213.1,52.3-278.5,25.1c-65.4-27.2-46.7-82.6,41.7-123.7Z"/>
    <path class="st9" d="M1369.5,1274.9c88.4-41.1,213.1-52.3,278.5-25.1,65.4,27.2,46.7,82.6-41.7,123.7-88.4,41.1-213.1,52.3-278.5,25.1-65.4-27.2-46.7-82.6,41.7-123.7Z"/>
    <path class="st10" d="M1789,1419.7c88.4-41.1,213-52.4,278.3-25.2,65.3,27.2,46.5,82.5-41.9,123.6s-213,52.4-278.3,25.2c-65.3-27.2-46.5-82.5,41.9-123.6h0Z"/>
    <path class="st9" d="M1048.2,1608c88.4-41.1,213.1-52.3,278.5-25.1,65.4,27.2,46.7,82.6-41.7,123.7-88.4,41.1-213.1,52.3-278.5,25.1-65.4-27.2-46.7-82.6,41.7-123.7Z"/>
    <path class="st8" d="M1432.6,1747.1c88.4-41.1,213.1-52.3,278.5-25.1,65.4,27.2,46.7,82.6-41.7,123.7-88.4,41.1-213.1,52.3-278.5,25.1-65.4-27.2-46.7-82.6,41.7-123.7Z"/>
    <path class="st10" d="M512.5,1633.1c88.3-41,212.9-52.2,278.2-25,65.4,27.2,46.8,82.5-41.5,123.6-88.3,41-212.9,52.2-278.2,25-65.4-27.2-46.8-82.5,41.5-123.6Z"/>
    <g>
      <line class="st4" x1="904.8" y1="1276.7" x2="905.1" y2="1264.7"/>
      <line class="st5" x1="905.8" y1="1239.5" x2="912" y2="1000.3"/>
      <polyline class="st4" points="912.3 987.7 912.7 975.7 907.3 986.4"/>
      <line class="st6" x1="896.9" y1="1007.5" x2="610.6" y2="1586.7"/>
      <line class="st4" x1="605.4" y1="1597.2" x2="600.1" y2="1608"/>
    </g>
    <circle class="st11" cx="904.8" cy="858.6" r="169.2"/>
    <polyline class="st3" points="1339.6 1589.1 1989.3 964 1617.6 1707.1"/>
    <line class="st3" x1="1975.4" y1="1379.7" x2="1975.4" y2="986.9"/>
    <circle class="st11" cx="1981.2" cy="858.6" r="169.2"/>
    <g class="st12">
      <text class="st13" transform="translate(781.3 871.5)"><tspan x="0" y="0">M1-D1-R1</tspan></text>
    </g>
    <g class="st12">
      <text class="st13" transform="translate(1856.3 871.5)"><tspan x="0" y="0">M2-D2-R2</tspan></text>
    </g>
    <path class="st11" d="M1066.2,858.8"/>
    <g>
      <path class="st14" d="M770,1373l29.7-39.4h11.9l-13.1,26.9,27.3-26.9h11.9l-29.7,39.4h-7.4l23.4-31-31.2,31h-7.7l15.6-31-23.4,31h-7.4Z"/>
      <path class="st14" d="M833.6,1373h-7.5l21.4-28.4c-4.7,2.6-9.4,4.5-14.1,5.7l5.2-6.8c2.5-.6,5.5-1.9,9.2-3.7,3.7-1.8,6.8-3.9,9.5-6.3h6.1l-29.8,39.5Z"/>
    </g>
    <g>
      <path class="st14" d="M587.3,1702.2l29.7-39.4h16.7c4.2,0,7,.4,8.4,1.1,1.4.7,2,2,1.7,3.8-.2,1.8-1.2,3.9-3,6.2s-4.9,5.4-8.1,7.3c-3.2,1.9-6.7,3.1-10.5,3.6,1,1,1.6,2.1,1.8,3.3.2,1.2.1,3.3-.3,6.4l-1,7.7h-9.5l.7-8.6c.3-3.1.3-5,.2-5.8-.2-.8-.5-1.3-1.2-1.6-.6-.3-1.8-.4-3.7-.4h-1.6l-12.4,16.4h-7.9ZM612.4,1679.4h5.9c3.8,0,6.3-.2,7.5-.5,1.2-.3,2.4-.9,3.5-1.7s2.1-1.8,3-3,1.5-2.4,1.4-3.2c0-.8-.7-1.3-1.8-1.5-.6,0-2.5-.1-5.7-.1h-6.2l-7.5,10Z"/>
      <path class="st14" d="M644.6,1702.2h-7.5l21.4-28.4c-4.7,2.6-9.4,4.5-14.1,5.7l5.2-6.8c2.5-.6,5.5-1.9,9.2-3.7,3.7-1.8,6.8-3.9,9.5-6.3h6.1l-29.8,39.5Z"/>
    </g>
    <g>
      <path class="st14" d="M1119.6,1677.1l29.7-39.4h11.9l-13.1,26.9,27.3-26.9h11.9l-29.7,39.4h-7.4l23.4-31-31.2,31h-7.7l15.6-31-23.4,31h-7.4Z"/>
      <path class="st14" d="M1194.6,1670.1l-5.3,7h-26.5c2.3-2.6,5-5.2,8.3-7.5,3.2-2.4,8.4-5.5,15.6-9.4,5.8-3.2,9.5-5.3,11.1-6.4,2.2-1.6,3.9-3.1,5-4.6s1.8-3,1.6-3.9c-.2-.9-1.1-1.4-2.7-1.4s-3.2.5-4.8,1.4c-1.6.9-3.4,2.5-5.2,4.7l-7-.8c3.6-4.2,7.2-7.1,11-8.9,3.7-1.8,7.4-2.7,10.9-2.7s6.1,1,6.8,3.1c.6,2.1-.2,4.7-2.6,7.8s-2.9,3.5-4.8,5.1c-1.8,1.6-4.1,3.3-6.8,5-1.8,1.2-4.7,2.8-8.7,5-4,2.2-6.6,3.6-7.8,4.4-1.2.7-2.2,1.4-3.1,2.1h15Z"/>
    </g>
    <g>
      <path class="st14" d="M1448.9,1338.5l29.7-39.4h11.9l-13.1,26.9,27.3-26.9h11.9l-29.7,39.4h-7.4l23.4-31-31.2,31h-7.7l15.6-31-23.4,31h-7.4Z"/>
      <path class="st14" d="M1512.5,1338.5h-7.5l21.4-28.4c-4.7,2.6-9.4,4.5-14.1,5.7l5.2-6.8c2.5-.6,5.5-1.9,9.2-3.7,3.7-1.8,6.8-3.9,9.5-6.3h6.1l-29.8,39.5Z"/>
    </g>
    <g>
      <path class="st14" d="M1536.7,1776.2h14.5c3.3,0,5.6.3,6.9.8,1.8.7,2.9,1.9,3.2,3.6.3,1.7,0,3.9-1,6.4s-2.9,5.6-5.7,9.3-4.9,6-7.5,8.4c-3.1,2.9-6.3,5.2-9.5,7-2.4,1.3-5,2.4-8,3.1-2.2.6-4.7.8-7.7.8h-15l29.7-39.4ZM1539.7,1782.8l-19.7,26.1h5.9c2.2,0,3.9-.1,5.1-.4,1.5-.3,3-.9,4.4-1.6,1.4-.8,3.1-2,4.9-3.8s3.9-4.2,6.2-7.2,3.8-5.4,4.5-7c.7-1.6.9-2.9.6-3.8-.3-.9-1-1.5-2.3-1.9-.9-.3-3-.4-6.2-.4h-3.6Z"/>
      <path class="st14" d="M1575.9,1808.5l-5.3,7h-26.5c2.3-2.6,5-5.2,8.3-7.5,3.2-2.4,8.4-5.5,15.6-9.4,5.8-3.2,9.5-5.3,11.1-6.4,2.2-1.6,3.9-3.1,5-4.6s1.8-3,1.6-3.9c-.2-.9-1.1-1.4-2.7-1.4s-3.2.5-4.8,1.4c-1.6.9-3.4,2.5-5.2,4.7l-7-.8c3.6-4.2,7.2-7.1,11-8.9,3.7-1.8,7.4-2.7,10.9-2.7s6.1,1,6.8,3.1c.6,2.1-.2,4.7-2.6,7.8s-2.9,3.5-4.8,5.1c-1.8,1.6-4.1,3.3-6.8,5-1.8,1.2-4.7,2.8-8.7,5-4,2.2-6.6,3.6-7.8,4.4-1.2.7-2.2,1.4-3.1,2.1h15Z"/>
    </g>
    <g>
      <path class="st14" d="M1876.3,1488.7l29.7-39.4h16.7c4.2,0,7,.4,8.4,1.1,1.4.7,2,2,1.7,3.8-.2,1.8-1.2,3.9-3,6.2s-4.9,5.4-8.1,7.3c-3.2,1.9-6.7,3.1-10.5,3.6,1,1,1.6,2.1,1.8,3.3s.1,3.3-.3,6.4l-1,7.7h-9.5l.7-8.6c.3-3.1.3-5,.2-5.8-.2-.8-.5-1.3-1.2-1.6-.6-.3-1.8-.4-3.7-.4h-1.6l-12.4,16.4h-7.9ZM1901.4,1465.9h5.9c3.8,0,6.3-.2,7.5-.5,1.2-.3,2.4-.9,3.5-1.7s2.1-1.8,3-3,1.5-2.4,1.4-3.2-.7-1.3-1.8-1.5c-.6,0-2.5-.1-5.7-.1h-6.2l-7.5,10Z"/>
      <path class="st14" d="M1945.1,1481.7l-5.3,7h-26.5c2.3-2.6,5-5.2,8.3-7.5,3.2-2.4,8.4-5.5,15.6-9.4,5.8-3.2,9.5-5.3,11.1-6.4,2.2-1.6,3.9-3.1,5-4.6s1.8-3,1.6-3.9c-.2-.9-1.1-1.4-2.7-1.4s-3.2.5-4.8,1.4c-1.6.9-3.4,2.5-5.2,4.7l-7-.8c3.6-4.2,7.2-7.1,11-8.9,3.7-1.8,7.4-2.7,10.9-2.7s6.1,1,6.8,3.1c.6,2.1-.2,4.7-2.6,7.8s-2.9,3.5-4.8,5.1c-1.8,1.6-4.1,3.3-6.8,5-1.8,1.2-4.7,2.8-8.7,5-4,2.2-6.6,3.6-7.8,4.4-1.2.7-2.2,1.4-3.1,2.1h15Z"/>
    </g>
  </g>
</svg>