<?xml version="1.0" encoding="UTF-8"?>
<svg id="Layer_1" xmlns="http://www.w3.org/2000/svg" version="1.1" viewBox="0 0 2906 2099">
  <!-- Generator: Adobe Illustrator 29.8.2, SVG Export Plug-In . SVG Version: 2.1.1 Build 3)  -->
  <defs>
    <style>
      .st0 {
        stroke-width: 12px;
      }

      .st0, .st1, .st2, .st3, .st4, .st5, .st6, .st7 {
        fill: none;
      }

      .st0, .st1, .st8, .st9, .st10 {
        stroke: #d9d9d9;
        stroke-miterlimit: 8;
      }

      .st1, .st2, .st11 {
        stroke-width: 10px;
      }

      .st2 {
        stroke: #000;
        stroke-dasharray: 12;
      }

      .st2, .st3, .st4, .st5, .st12, .st11, .st6, .st7 {
        stroke-miterlimit: 10;
      }

      .st8 {
        fill: #d95f02;
      }

      .st8, .st9, .st10 {
        fill-rule: evenodd;
        stroke-width: 4.9px;
      }

      .st13 {
        fill: #d9d9d9;
      }

      .st3 {
        stroke-dasharray: 25.2 25.2;
      }

      .st3, .st4, .st5, .st12, .st11, .st6, .st7 {
        stroke: #dad9d9;
      }

      .st3, .st4, .st5, .st6, .st7 {
        stroke-width: 7.2px;
      }

      .st4 {
        stroke-dasharray: 24;
      }

      .st12 {
        stroke-width: 8.2px;
      }

      .st12, .st11 {
        fill: #e7298a;
      }

      .st14 {
        font-size: 71px;
      }

      .st14, .st15 {
        font-family: Helvetica-Bold, Helvetica;
        font-weight: 700;
      }

      .st6 {
        stroke-dasharray: 23.5 23.5;
      }

      .st9 {
        fill: #1b9e77;
      }

      .st10 {
        fill: #7570b3;
      }

      .st15 {
        fill: #dad9d9;
        font-size: 53.7px;
      }

      .st7 {
        stroke-dasharray: 24.1 24.1;
      }
    </style>
  </defs>
  <rect class="st11" x="-647.7" y="843.7" width="151.4" height="151.4"/>
  <g>
    <path class="st2" d="M1565.7,1325.5"/>
    <g>
      <line class="st5" x1="912.7" y1="975.7" x2="922.1" y2="983.1"/>
      <line class="st7" x1="941.2" y1="997.9" x2="1312.5" y2="1287.1"/>
      <line class="st5" x1="1322" y1="1294.5" x2="1331.4" y2="1301.9"/>
    </g>
    <g>
      <path class="st1" d="M1642.7,1353.2l107.4,94.5"/>
      <path class="st1" d="M1015.8,1325.5h289"/>
      <path class="st1" d="M967.5,1380.6l740.8,115.3"/>
      <path class="st1" d="M1722.6,1528.6l-356.9,95"/>
      <path class="st1" d="M1209.3,1732.1l147.2,76"/>
      <path class="st1" d="M1920.2,1550.5l-197.6,181.6"/>
      <path class="st1" d="M1463.7,1400.5l42.1,321.1"/>
      <path class="st1" d="M755,1455.1l-80.8,138.8"/>
      <path class="st1" d="M881.9,1435.2l166.3,172.8"/>
      <path class="st1" d="M1328.1,1368.2l-511.5,255.4"/>
    </g>
    <path class="st8" d="M698.3,1316.7c88.4-41.1,213.1-52.3,278.5-25.1,65.4,27.2,46.7,82.6-41.7,123.7-88.4,41.1-213.1,52.3-278.5,25.1-65.4-27.2-46.7-82.6,41.7-123.7Z"/>
    <path class="st9" d="M1369.5,1274.9c88.4-41.1,213.1-52.3,278.5-25.1,65.4,27.2,46.7,82.6-41.7,123.7-88.4,41.1-213.1,52.3-278.5,25.1-65.4-27.2-46.7-82.6,41.7-123.7Z"/>
    <path class="st10" d="M1789,1419.7c88.4-41.1,213-52.4,278.3-25.2,65.3,27.2,46.5,82.5-41.9,123.6-88.4,41.1-213,52.4-278.3,25.2-65.3-27.2-46.5-82.5,41.9-123.6Z"/>
    <path class="st9" d="M1048.2,1608c88.4-41.1,213.1-52.3,278.5-25.1,65.4,27.2,46.7,82.6-41.7,123.7-88.4,41.1-213.1,52.3-278.5,25.1-65.4-27.2-46.7-82.6,41.7-123.7Z"/>
    <path class="st8" d="M1432.6,1747.1c88.4-41.1,213.1-52.3,278.5-25.1,65.4,27.2,46.7,82.6-41.7,123.7-88.4,41.1-213.1,52.3-278.5,25.1-65.4-27.2-46.7-82.6,41.7-123.7Z"/>
    <path class="st10" d="M512.5,1633.1c88.3-41,212.9-52.2,278.2-25,65.4,27.2,46.8,82.5-41.5,123.6-88.3,41-212.9,52.2-278.2,25-65.4-27.2-46.8-82.5,41.5-123.6Z"/>
    <g>
      <line class="st5" x1="904.8" y1="1276.7" x2="905.1" y2="1264.7"/>
      <line class="st3" x1="905.8" y1="1239.5" x2="912" y2="1000.3"/>
      <polyline class="st5" points="912.3 987.7 912.7 975.7 907.3 986.4"/>
      <line class="st6" x1="896.9" y1="1007.5" x2="610.6" y2="1586.7"/>
      <line class="st5" x1="605.4" y1="1597.2" x2="600.1" y2="1608"/>
    </g>
    <circle class="st12" cx="904.8" cy="858.6" r="169.2"/>
    <polyline class="st4" points="1339.6 1589.1 1989.3 964 1617.6 1707.1"/>
    <line class="st4" x1="1975.4" y1="1379.7" x2="1975.4" y2="986.9"/>
    <circle class="st12" cx="1981.2" cy="858.6" r="169.2"/>
    <text/>
    <text class="st15" transform="translate(799.9 871.5)"><tspan x="0" y="0">Paper 1</tspan></text>
    <text class="st15" transform="translate(1876.3 871.5)"><tspan x="0" y="0">Paper 2</tspan></text>
    <path class="st12" d="M1066.2,858.8"/>
    <g>
      <line class="st0" x1="1074" y1="858.6" x2="1756.9" y2="858.6"/>
      <polygon class="st13" points="1812 858.6 1734.4 890.3 1752.8 858.6 1734.4 826.9 1812 858.6"/>
    </g>
    <text class="st14" transform="translate(1328.1 843.7)"><tspan x="0" y="0">CITES</tspan></text>
  </g>
</svg>