<?xml version="1.0" encoding="UTF-8"?>
<svg id="Layer_2" data-name="Layer 2" xmlns="http://www.w3.org/2000/svg" viewBox="0 0 79.16 62.5">
  <g id="Layer_1-2" data-name="Layer 1">
    <path d="M79.02,59.64l-16.67-41.67c-.62-1.58-3.24-1.58-3.87,0l-16.67,41.67c-.43,1.07.09,2.28,1.16,2.7,1.05.43,2.28-.09,2.7-1.16l4.48-11.19h20.52l4.48,11.19c.32.82,1.11,1.32,1.93,1.32.26,0,.52-.05.77-.15,1.07-.43,1.59-1.64,1.16-2.71h0ZM68.75,45.83h-16.67c-.1,0-.18.04-.28.06l8.61-21.53,8.61,21.53c-.09-.01-.18-.05-.28-.05h0ZM36.44,43.98c-2.63-1.48-6.55-3.95-10.45-7.38,5.79-5.96,10.75-13.99,11.37-24.1h6.39c1.15,0,2.08-.93,2.08-2.08s-.93-2.09-2.08-2.09h-18.75V2.08c0-1.15-.93-2.08-2.08-2.08s-2.09.93-2.09,2.08v6.25H2.08c-1.15,0-2.08.93-2.08,2.09s.93,2.08,2.08,2.08h6.37c.63,10.06,5.67,18.07,11.44,24.03-7.07,6.2-14.32,9.41-14.46,9.47-1.05.45-1.55,1.68-1.09,2.73.33.79,1.11,1.26,1.91,1.26.27,0,.55-.05.82-.17.63-.27,8.38-3.68,15.9-10.34,4.26,3.78,8.54,6.5,11.42,8.11.32.18.68.27,1.02.27.73,0,1.44-.38,1.82-1.06.57-1,.21-2.27-.79-2.83h0ZM33.18,12.5c-.63,8.74-5.07,15.81-10.28,21.16-5.17-5.33-9.65-12.41-10.28-21.16h20.56Z"/>
  </g>
</svg>