<?xml version="1.0" encoding="UTF-8"?>
<svg id="Layer_2" data-name="Layer 2" xmlns="http://www.w3.org/2000/svg" viewBox="0 0 47.13 49.49">
  <g id="Layer_1-2" data-name="Layer 1">
    <g>
      <path d="M19.32,47.97H0v-19.32h19.32v19.32ZM3,44.97h13.32v-13.32H3v13.32Z"/>
      <path d="M35.94,49.49c-6.17,0-11.18-5.02-11.18-11.18s5.02-11.18,11.18-11.18,11.18,5.02,11.18,11.18-5.02,11.18-11.18,11.18ZM35.94,30.43c-4.34,0-7.88,3.54-7.88,7.88s3.54,7.88,7.88,7.88,7.88-3.53,7.88-7.88-3.54-7.88-7.88-7.88Z"/>
      <path d="M35.5,22.22H8.4L21.95,0l13.55,22.22ZM13.08,19.59h17.73l-8.87-14.54-8.87,14.54Z"/>
    </g>
  </g>
</svg>