<?xml version="1.0" encoding="UTF-8"?>
<svg id="Layer_2" xmlns="http://www.w3.org/2000/svg" version="1.1" viewBox="0 0 16 20.3">
  <!-- Generator: Adobe Illustrator 29.8.2, SVG Export Plug-In . SVG Version: 2.1.1 Build 3)  -->
  <g id="Layer_1-2">
    <path d="M16,6.2v11.7c0,1.3-1.1,2.3-2.4,2.3H2.4c-1.3,0-2.4-1-2.4-2.3V2.3C0,1,1.1,0,2.4,0h6.6l7,6.2ZM2.4,2c-.2,0-.4.2-.4.4v15.6c0,.2.2.4.4.4h11.2c.2,0,.4-.2.4-.4V6.9h-5.9V2H2.4Z"/>
    <rect x="4" y="10.5" width="8.4" height="2"/>
    <rect x="4" y="14.4" width="5.6" height="2"/>
  </g>
</svg>