<?xml version="1.0" encoding="UTF-8"?>
<svg id="Layer_1" xmlns="http://www.w3.org/2000/svg" version="1.1" viewBox="0 0 805 600">
  <!-- Generator: Adobe Illustrator 29.1.0, SVG Export Plug-In . SVG Version: 2.1.0 Build 142)  -->
  <defs>
    <style>
      .st0 {
        fill: #cb7729;
      }

      .st1 {
        fill: #f4a988;
      }

      .st2 {
        fill: #c04e3f;
      }

      .st3 {
        fill: #b5dba5;
      }

      .st4 {
        font-family: Helvetica, Helvetica;
        font-size: 10px;
      }

      .st4, .st5 {
        isolation: isolate;
      }

      .st5 {
        fill: #7b7b7b;
        font-family: Arial-BoldMT, Arial;
        font-size: 12px;
        font-weight: 700;
      }

      .st6 {
        fill: #fff;
      }

      .st7 {
        fill: #f4e1a1;
      }

      .st8 {
        fill: #ffc3c2;
      }

      .st9 {
        fill: #005f56;
      }

      .st10 {
        fill: #399;
      }

      .st11 {
        fill: none;
        stroke: #000;
      }
    </style>
  </defs>
  <rect id="background" class="st6" width="805" height="600"/>
  <path class="st2" d="M10,315.3l8-.8c8-.8,24-2.5,34.7,0,10.7,2.5,16,9.3,21.4,11.9,5.3,2.5,10.7.8,26.7-.8,16-1.7,42.7-3.4,66.7-3.4s45.4,1.7,61.4,2.5c16,.8,26.7.8,40-.8,13.3-1.7,29.4-5.1,40.1-6.8,10.7-1.7,16-1.7,21.4-.8s10.7,2.5,16,.7,10.7-7.3,16-6.6c5.3.7,10.7,7.5,16,8.6,5.3,1.1,10.7-3.4,16-5.7s10.7-2.3,16-3.1,10.7-2.5,16-3.8c5.3-1.3,10.7-2.1,16-1.7,5.3.4,10.7,2.1,16-1.6s10.7-12.8,16-19.2c5.3-6.4,10.7-10.1,16-10.9,5.3-.8,10.7,1.3,16,1.3s10.7-2.1,16-4.2c5.3-2.1,10.7-4.1,16-6.7s10.7-5.8,16-14.2,10.7-22.3,16-27.3c5.3-5,10.7-1.3,16-6.5s10.7-19.3,16-26.3c5.3-7,10.7-6.8,16-3.6,5.3,3.1,10.7,9.2,16,8.8s10.7-7,16-.7c5.3,6.3,10.7,25.6,16,21.8s10.7-30.7,16-51.3c5.3-20.6,10.7-34.9,16-43.3,5.3-8.4,10.7-10.7,16-12.6s10.7-3.4,16-12.4,10.7-25.6,16-25.9c5.3-.3,10.7,15.6,16,28.9,5.3,13.3,10.7,24,16,51.9,5.3,27.8,10.7,72.8,13.4,95.3l2.7,22.5h0l-2.7-17.4c-2.7-17.4-8-52.2-13.4-78.3-5.3-26.1-10.7-43.6-16-50.2s-10.7-2.1-16,3.3c-5.3,5.4-10.7,11.8-16,17.4-5.3,5.6-10.7,10.5-16,9s-10.7-9.3-16-4.3c-5.3,5-10.7,22.7-16,43.3-5.3,20.6-10.7,44.1-16,46.2-5.3,2.1-10.7-17.2-16-26.9-5.3-9.7-10.7-9.8-16-9.5s-10.7,1.1-16-.4c-5.3-1.4-10.7-5-16,1.9-5.3,7-10.7,24.4-16,28-5.3,3.5-10.7-7-16-3.6-5.3,3.3-10.7,20.5-16,29s-10.7,8.2-16,10.8-10.7,8.1-16,10.1c-5.3,2.1-10.7.8-16-.9-5.3-1.7-10.7-3.8-16-3-5.3.8-10.7,4.5-16,12.6s-10.7,20.6-16,24.3-10.7-1.4-16-1.8c-5.3-.4-10.7,3.8-16,5.1-5.3,1.3-10.7-.4-16-1.3-5.3-.8-10.7-.8-16,1.4s-10.7,6.8-16,5.7c-5.3-1.1-10.7-7.9-16-8.6-5.3-.7-10.7,4.8-16,6.6s-10.7.2-16-.7-10.7-.8-21.4.8c-10.7,1.7-26.7,5.1-40.1,6.8-13.3,1.7-24,1.7-40,2.5s-37.4,2.5-61.4,2.5-50.7-1.7-66.7-1.7-21.4,1.7-26.7-.8c-5.3-2.5-10.7-9.3-21.4-10.2s-26.7,4.2-34.7,6.8l-8,2.5v-10.2Z"/>
  <path class="st3" d="M10,325.5l8,.8c8,.8,24,2.5,34.7,3.4s16,.8,21.4,1.7c5.3.8,10.7,2.5,26.7,2.5s42.7-1.7,66.7-3.4c24-1.7,45.4-3.4,61.4-4.2s26.7-.8,40,.8c13.3,1.7,29.4,5.1,40.1,6.8,10.7,1.7,16,1.7,21.4-.8,5.3-2.5,10.7-7.6,16-11.2,5.3-3.6,10.7-5.6,16-4.9,5.3.7,10.7,4.1,16,6.9,5.3,2.8,10.7,5.1,16,4.5,5.3-.6,10.7-4,16-6.5,5.3-2.5,10.7-4.2,16-3.8,5.3.4,10.7,3,16,3.4,5.3.4,10.7-1.3,16-3.3,5.3-2,10.7-4.3,16-7.4,5.3-3,10.7-6.7,16-9.2,5.3-2.5,10.7-3.8,16-3.8s10.7,1.3,16,.9c5.3-.4,10.7-2.4,16-1.7,5.3.8,10.7,4.4,16,1s10.7-13.8,16-18.8c5.3-5,10.7-4.7,16-1.4s10.7,9.5,16,7.7,10.7-11.8,16-13.8c5.3-2,10.7,4.1,16,3.8s10.7-7,16-7.5c5.3-.5,10.7,5.2,16,6.5,5.3,1.3,10.7-1.9,16-3.8s10.7-2.7,16,4.2c5.3,6.9,10.7,21.5,16,21.3s10.7-15.3,16-17.5,10.7,8.4,16,11.5,10.7-1.4,16-6.7c5.3-5.4,10.7-11.6,16-9.2,5.3,2.4,10.7,13.4,13.4,18.9l2.7,5.5v30.5l-2.7,30.1c-2.7,30.1-8,90.4-13.4,121.9-5.3,31.6-10.7,34.4-16,36.4-5.3,2-10.7,3-16,3.3-5.3.3-10.7-.1-16-9.8-5.3-9.7-10.7-28.6-16-21.5s-10.7,39.9-16,44.9c-5.3,5-10.7-18-16-41.6-5.3-23.5-10.7-47.5-16-47.1s-10.7,25.3-16,34.2c-5.3,9-10.7,2.1-16,.7s-10.7,2.8-16-.4c-5.3-3.1-10.7-13.5-16-21.8-5.3-8.3-10.7-14.6-16-16.2s-10.7,1.5-16-7c-5.3-8.5-10.7-28.7-16-37.2s-10.7-5.3-16-6.1c-5.3-.8-10.7-5.5-16-6.8-5.3-1.3-10.7.8-16,.8s-10.7-2.1-16-6.4c-5.3-4.3-10.7-10.8-16-19.6-5.3-8.9-10.7-20.1-16-23.2-5.3-3.1-10.7,2-16,5-5.3,3-10.7,3.8-16,0-5.3-3.8-10.7-12.3-16-13.2-5.3-.8-10.7,5.9-16,8.2-5.3,2.3-10.7,0-16,.6-5.3.6-10.7,4-16,1.6-5.3-2.4-10.7-10.5-16-12-5.3-1.5-10.7,3.6-16,6.1-5.3,2.5-10.7,2.5-21.4,2.5h-40.1c-13.3,0-24,0-40-.8s-37.4-2.5-61.4-2.5-50.7,1.7-66.7,3.4c-16,1.7-21.4,3.4-26.7,4.2s-10.7.8-21.4-1.7c-10.7-2.5-26.7-7.6-34.7-10.2l-8-2.5Z"/>
  <path class="st10" d="M10,325.5l8-2.5c8-2.5,24-7.6,34.7-6.8s16,7.6,21.4,10.2c5.3,2.5,10.7.8,26.7.8s42.7,1.7,66.7,1.7,45.4-1.7,61.4-2.5,26.7-.8,40-.8h40.1c10.7,0,16,0,21.4-.8,5.3-.8,10.7-2.5,16-4.4s10.7-3.9,16-3.2c5.3.7,10.7,4.1,16,3.5,5.3-.6,10.7-5.1,16-5.7,5.3-.6,10.7,2.8,16,3.7s10.7-.8,16-2.1c5.3-1.3,10.7-2.1,16-1.7,5.3.4,10.7,2.1,16,.1,5.3-2,10.7-7.7,16-12.5s10.7-8.4,16-10.9c5.3-2.5,10.7-3.8,16-2.1,5.3,1.7,10.7,6.4,16,6,5.3-.4,10.7-5.8,16-8.4,5.3-2.6,10.7-2.4,16-5.7s10.7-10.4,16-15.4c5.3-5,10.7-8.1,16-13.3,5.3-5.2,10.7-12.5,16-14.4s10.7,1.7,16-1.9c5.3-3.7,10.7-14.6,16-16.6,5.3-2,10.7,4.9,16,12.9,5.3,8,10.7,17.1,16,16.7s10.7-10.4,16-19.1c5.3-8.7,10.7-16.3,16-17.8,5.3-1.6,10.7,2.8,16,6,5.3,3.2,10.7,5.1,16,4.6s10.7-3.5,16-.4,10.7,12.2,16,15.3,10.7.3,16,9.4c5.3,9.2,10.7,30.4,13.4,41l2.7,10.6h0l-2.7-5.5c-2.7-5.5-8-16.5-13.4-18.9-5.3-2.4-10.7,3.9-16,9.2-5.3,5.4-10.7,9.8-16,6.7s-10.7-13.7-16-11.5-10.7,17.3-16,17.5-10.7-14.4-16-21.3c-5.3-6.9-10.7-6.2-16-4.2s-10.7,5.1-16,3.8c-5.3-1.3-10.7-7-16-6.5-5.3.5-10.7,7.2-16,7.5s-10.7-5.7-16-3.8c-5.3,2-10.7,12-16,13.8s-10.7-4.4-16-7.7-10.7-3.6-16,1.4c-5.3,5-10.7,15.4-16,18.8s-10.7-.3-16-1c-5.3-.8-10.7,1.3-16,1.7-5.3.4-10.7-.9-16-.9s-10.7,1.3-16,3.8c-5.3,2.5-10.7,6.2-16,9.2-5.3,3-10.7,5.4-16,7.4-5.3,2-10.7,3.7-16,3.3-5.3-.4-10.7-3-16-3.4-5.3-.4-10.7,1.3-16,3.8-5.3,2.5-10.7,5.9-16,6.5-5.3.6-10.7-1.7-16-4.5-5.3-2.8-10.7-6.2-16-6.9-5.3-.7-10.7,1.4-16,4.9-5.3,3.6-10.7,8.7-16,11.2-5.3,2.5-10.7,2.5-21.4.8-10.7-1.7-26.7-5.1-40.1-6.8-13.3-1.7-24-1.7-40-.8s-37.4,2.5-61.4,4.2c-24,1.7-50.7,3.4-66.7,3.4s-21.4-1.7-26.7-2.5c-5.3-.8-10.7-.8-21.4-1.7s-26.7-2.5-34.7-3.4l-8-.8Z"/>
  <path class="st0" d="M10,325.5l8-2.5c8-2.5,24-7.6,34.7-6.8s16,7.6,21.4,10.2c5.3,2.5,10.7.8,26.7.8s42.7,1.7,66.7,1.7,45.4-1.7,61.4-2.5,26.7-.8,40-2.5c13.3-1.7,29.4-5.1,40.1-6.8,10.7-1.7,16-1.7,21.4-.8s10.7,2.5,16,.7,10.7-7.3,16-6.6c5.3.7,10.7,7.5,16,8.6,5.3,1.1,10.7-3.4,16-5.7s10.7-2.3,16-1.4c5.3.8,10.7,2.5,16,1.3,5.3-1.3,10.7-5.5,16-5.1,5.3.4,10.7,5.5,16,1.8s10.7-16.2,16-24.3,10.7-11.8,16-12.6c5.3-.8,10.7,1.3,16,3,5.3,1.7,10.7,3,16,.9,5.3-2.1,10.7-7.5,16-10.1s10.7-2.4,16-10.8,10.7-25.7,16-29c5.3-3.3,10.7,7.1,16,3.6,5.3-3.5,10.7-21,16-28,5.3-7,10.7-3.4,16-1.9,5.3,1.4,10.7.7,16,.4s10.7-.2,16,9.5c5.3,9.7,10.7,29,16,26.9,5.3-2.1,10.7-25.6,16-46.2,5.3-20.6,10.7-38.3,16-43.3,5.3-5,10.7,2.8,16,4.3s10.7-3.4,16-9c5.3-5.6,10.7-12,16-17.4,5.3-5.4,10.7-9.8,16-3.3s10.7,24,16,50.2c5.3,26.1,10.7,60.9,13.4,78.3l2.7,17.4h0l-2.7-14c-2.7-14-8-42-13.4-63.1s-10.7-35.2-16-41.7c-5.3-6.5-10.7-5.5-16-1.8-5.3,3.7-10.7,10.1-16,15.7s-10.7,10.5-16,12.4c-5.3,1.9-10.7.9-16,4.2-5.3,3.3-10.7,10.8-16,24.6s-10.7,34-16,37.8c-5.3,3.8-10.7-8.7-16-16.7-5.3-8-10.7-11.5-16-11.2s-10.7,4.5-16,8.1c-5.3,3.7-10.7,6.9-16,12.1s-10.7,12.6-16,12.7-10.7-7-16-3.6c-5.3,3.3-10.7,17.1-16,25.6s-10.7,11.6-16,14.2-10.7,4.7-16,5c-5.3.4-10.7-.9-16-.9s-10.7,1.3-16,3.8c-5.3,2.5-10.7,6.2-16,10.9s-10.7,10.4-16,12.5c-5.3,2-10.7.3-16-.1-5.3-.4-10.7.4-16,1.7-5.3,1.3-10.7,3-16,2.1s-10.7-4.2-16-3.7c-5.3.6-10.7,5.1-16,5.7-5.3.6-10.7-2.8-16-3.5-5.3-.7-10.7,1.4-16,3.2s-10.7,3.6-16,4.4c-5.3.8-10.7.8-21.4.8h-40.1c-13.3,0-24,0-40,.8s-37.4,2.5-61.4,2.5-50.7-1.7-66.7-1.7-21.4,1.7-26.7-.8c-5.3-2.5-10.7-9.3-21.4-10.2s-26.7,4.2-34.7,6.8l-8,2.5Z"/>
  <path class="st7" d="M10,315.3l8-.8c8-.8,24-2.5,34.7,0,10.7,2.5,16,9.3,21.4,11.9,5.3,2.5,10.7.8,26.7-.8,16-1.7,42.7-3.4,66.7-3.4s45.4,1.7,61.4,2.5c16,.8,26.7.8,40-.8,13.3-1.7,29.4-5.1,40.1-6.8,10.7-1.7,16-1.7,21.4-2.5,5.3-.8,10.7-2.5,16-6.1s10.7-9,16-6.6c5.3,2.4,10.7,12.6,16,15.4,5.3,2.8,10.7-1.7,16-4s10.7-2.3,16-4.8c5.3-2.5,10.7-7.6,16-8.9,5.3-1.3,10.7,1.3,16,1.7,5.3.4,10.7-1.3,16-5,5.3-3.7,10.7-9.4,16-14.2,5.3-4.7,10.7-8.4,16-12.6,5.3-4.2,10.7-8.9,16-10.6,5.3-1.7,10.7-.4,16-.8,5.3-.4,10.7-2.4,16-3.3s10.7-.7,16-7.4c5.3-6.8,10.7-20.6,16-27.3,5.3-6.7,10.7-6.4,16-15,5.3-8.6,10.7-26.1,16-33,5.3-7,10.7-3.4,16-3.6,5.3-.3,10.7-4.4,16-6.4,5.3-2,10.7-1.9,16,11.2,5.3,13.1,10.7,39.2,16,35.3,5.3-3.8,10.7-37.5,16-70,5.3-32.5,10.7-63.8,16-75.5,5.3-11.7,10.7-3.9,16,2.6,5.3,6.6,10.7,11.9,16,8s10.7-17.1,16-15.7,10.7,17.3,16,25.5c5.3,8.2,10.7,8.7,16,38.3,5.3,29.5,10.7,88.1,13.4,117.4l2.7,29.3h0l-2.7-22.5c-2.7-22.5-8-67.5-13.4-95.3-5.3-27.8-10.7-38.5-16-51.9-5.3-13.3-10.7-29.2-16-28.9-5.3.3-10.7,16.9-16,25.9s-10.7,10.5-16,12.4-10.7,4.3-16,12.6c-5.3,8.4-10.7,22.7-16,43.3-5.3,20.6-10.7,47.5-16,51.3s-10.7-15.5-16-21.8c-5.3-6.3-10.7.4-16,.7s-10.7-5.7-16-8.8c-5.3-3.1-10.7-3.3-16,3.6-5.3,7-10.7,21.1-16,26.3s-10.7,1.5-16,6.5c-5.3,5-10.7,18.8-16,27.3s-10.7,11.6-16,14.2-10.7,4.7-16,6.7c-5.3,2.1-10.7,4.2-16,4.2s-10.7-2.1-16-1.3c-5.3.8-10.7,4.5-16,10.9-5.3,6.4-10.7,15.5-16,19.2s-10.7,2-16,1.6c-5.3-.4-10.7.4-16,1.7-5.3,1.3-10.7,3-16,3.8s-10.7.8-16,3.1-10.7,6.8-16,5.7c-5.3-1.1-10.7-7.9-16-8.6-5.3-.7-10.7,4.8-16,6.6s-10.7.2-16-.7-10.7-.8-21.4.8c-10.7,1.7-26.7,5.1-40.1,6.8-13.3,1.7-24,1.7-40,.8-16-.8-37.4-2.5-61.4-2.5s-50.7,1.7-66.7,3.4c-16,1.7-21.4,3.4-26.7.8-5.3-2.5-10.7-9.3-21.4-11.9-10.7-2.5-26.7-.8-34.7,0l-8,.8Z"/>
  <path class="st8" d="M10,315.3l8-.8c8-.8,24-2.5,34.7,0,10.7,2.5,16,9.3,21.4,11.9,5.3,2.5,10.7.8,26.7-.8,16-1.7,42.7-3.4,66.7-3.4s45.4,1.7,61.4,2.5c16,.8,26.7.8,40-.8,13.3-1.7,29.4-5.1,40.1-6.8,10.7-1.7,16-1.7,21.4-2.5,5.3-.8,10.7-2.5,16-6.1s10.7-9,16-6.6c5.3,2.4,10.7,12.6,16,15.4,5.3,2.8,10.7-1.7,16-5.7s10.7-7.4,16-11.6c5.3-4.2,10.7-9.3,16-8.9,5.3.4,10.7,6.4,16,8.5,5.3,2.1,10.7.4,16-3.3,5.3-3.7,10.7-9.4,16-14.2,5.3-4.7,10.7-8.4,16-12.6,5.3-4.2,10.7-8.9,16-12.3,5.3-3.4,10.7-5.5,16-5.9,5.3-.4,10.7,1,16,0,5.3-.9,10.7-4.1,16-12.5s10.7-22.3,16-27.3c5.3-5,10.7-1.3,16-8.2s10.7-24.4,16-36.4c5.3-12,10.7-18.6,16-20.6,5.3-2,10.7.7,16,2.1,5.3,1.4,10.7,1.5,16,9.5,5.3,8,10.7,23.9,16,21.8s10.7-22.2,16-49.6c5.3-27.4,10.7-62.1,16-75.5,5.3-13.4,10.7-5.6,16,.9s10.7,11.9,16,8,10.7-17.1,16-14c5.3,3.1,10.7,22.4,16,30.6,5.3,8.2,10.7,5.4,16,34.9s10.7,91.5,13.4,122.4l2.7,31h0l-2.7-29.3c-2.7-29.3-8-87.8-13.4-117.4-5.3-29.5-10.7-30.1-16-38.3-5.3-8.2-10.7-24.1-16-27.2-5.3-3.1-10.7,6.7-16,8.9-5.3,2.2-10.7-3.1-16-9.7s-10.7-14.4-16-.9c-5.3,13.4-10.7,48.1-16,78.9-5.3,30.8-10.7,57.7-16,61.5-5.3,3.8-10.7-15.5-16-26.9-5.3-11.4-10.7-14.9-16-16.3-5.3-1.4-10.7-.6-16,1.3-5.3,2-10.7,5.2-16,15.5-5.3,10.3-10.7,27.8-16,36.4-5.3,8.6-10.7,8.3-16,13.3-5.3,5-10.7,15.4-16,22.2-5.3,6.8-10.7,9.9-16,12.5s-10.7,4.7-16,5c-5.3.4-10.7-.9-16,.8-5.3,1.7-10.7,6.4-16,10.6-5.3,4.2-10.7,7.9-16,12.6-5.3,4.7-10.7,10.4-16,14.2-5.3,3.7-10.7,5.4-16,3.3-5.3-2.1-10.7-8.1-16-6.8-5.3,1.3-10.7,9.8-16,14-5.3,4.2-10.7,4.2-16,6.5s-10.7,6.8-16,4c-5.3-2.8-10.7-13-16-15.4-5.3-2.4-10.7,3.1-16,6.6s-10.7,5.3-16,6.1c-5.3.8-10.7.8-21.4,2.5-10.7,1.7-26.7,5.1-40.1,6.8-13.3,1.7-24,1.7-40,.8-16-.8-37.4-2.5-61.4-2.5s-50.7,1.7-66.7,3.4c-16,1.7-21.4,3.4-26.7.8-5.3-2.5-10.7-9.3-21.4-11.9-10.7-2.5-26.7-.8-34.7,0l-8,.8Z"/>
  <path class="st9" d="M10,315.3l8-.8c8-.8,24-2.5,34.7,0,10.7,2.5,16,9.3,21.4,11.9,5.3,2.5,10.7.8,26.7-.8,16-1.7,42.7-3.4,66.7-3.4s45.4,1.7,61.4,2.5c16,.8,26.7.8,40-.8,13.3-1.7,29.4-5.1,40.1-6.8,10.7-1.7,16-1.7,21.4-2.5,5.3-.8,10.7-2.5,16-6.1s10.7-9,16-6.6c5.3,2.4,10.7,12.6,16,15.4,5.3,2.8,10.7-1.7,16-4s10.7-2.3,16-6.5c5.3-4.2,10.7-12.7,16-14,5.3-1.3,10.7,4.7,16,6.8,5.3,2.1,10.7.4,16-3.3,5.3-3.7,10.7-9.4,16-14.2,5.3-4.7,10.7-8.4,16-12.6,5.3-4.2,10.7-8.9,16-10.6,5.3-1.7,10.7-.4,16-.8,5.3-.4,10.7-2.4,16-5s10.7-5.8,16-12.5c5.3-6.8,10.7-17.2,16-22.2,5.3-5,10.7-4.7,16-13.3,5.3-8.6,10.7-26.1,16-36.4,5.3-10.3,10.7-13.5,16-15.5,5.3-2,10.7-2.7,16-1.3,5.3,1.4,10.7,4.9,16,16.3,5.3,11.4,10.7,30.7,16,26.9,5.3-3.8,10.7-30.7,16-61.5,5.3-30.8,10.7-65.5,16-78.9,5.3-13.4,10.7-5.6,16,.9s10.7,11.9,16,9.7c5.3-2.2,10.7-12,16-8.9,5.3,3.1,10.7,19,16,27.2,5.3,8.2,10.7,8.7,16,38.3,5.3,29.5,10.7,88.1,13.4,117.4l2.7,29.3h0l-2.7-29.3c-2.7-29.3-8-87.8-13.4-117.4-5.3-29.5-10.7-30.1-16-38.3-5.3-8.2-10.7-24.1-16-25.5s-10.7,11.8-16,15.7-10.7-1.4-16-8c-5.3-6.6-10.7-14.4-16-2.6-5.3,11.7-10.7,43-16,75.5-5.3,32.5-10.7,66.2-16,70-5.3,3.8-10.7-22.3-16-35.3-5.3-13.1-10.7-13.2-16-11.2-5.3,2-10.7,6.2-16,6.4-5.3.3-10.7-3.3-16,3.6-5.3,7-10.7,24.4-16,33-5.3,8.6-10.7,8.3-16,15-5.3,6.7-10.7,20.5-16,27.3-5.3,6.8-10.7,6.5-16,7.4s-10.7,3-16,3.3c-5.3.4-10.7-.9-16,.8-5.3,1.7-10.7,6.4-16,10.6-5.3,4.2-10.7,7.9-16,12.6-5.3,4.7-10.7,10.4-16,14.2-5.3,3.7-10.7,5.4-16,5-5.3-.4-10.7-3-16-1.7-5.3,1.3-10.7,6.4-16,8.9-5.3,2.5-10.7,2.5-16,4.8s-10.7,6.8-16,4c-5.3-2.8-10.7-13-16-15.4-5.3-2.4-10.7,3.1-16,6.6s-10.7,5.3-16,6.1c-5.3.8-10.7.8-21.4,2.5-10.7,1.7-26.7,5.1-40.1,6.8-13.3,1.7-24,1.7-40,.8-16-.8-37.4-2.5-61.4-2.5s-50.7,1.7-66.7,3.4c-16,1.7-21.4,3.4-26.7.8-5.3-2.5-10.7-9.3-21.4-11.9-10.7-2.5-26.7-.8-34.7,0l-8,.8Z"/>
  <path class="st1" d="M10,325.5l8-2.5c8-2.5,24-7.6,34.7-6.8s16,7.6,21.4,10.2c5.3,2.5,10.7.8,26.7.8s42.7,1.7,66.7,1.7,45.4-1.7,61.4-2.5,26.7-.8,40-.8h40.1c10.7,0,16,0,21.4-.8,5.3-.8,10.7-2.5,16-4.4s10.7-3.9,16-3.2c5.3.7,10.7,4.1,16,3.5,5.3-.6,10.7-5.1,16-5.7,5.3-.6,10.7,2.8,16,3.7s10.7-.8,16-2.1c5.3-1.3,10.7-2.1,16-1.7,5.3.4,10.7,2.1,16,.1,5.3-2,10.7-7.7,16-12.5s10.7-8.4,16-10.9c5.3-2.5,10.7-3.8,16-3.8s10.7,1.3,16,.9c5.3-.4,10.7-2.4,16-5s10.7-5.8,16-14.2,10.7-22.3,16-25.6c5.3-3.3,10.7,3.8,16,3.6s10.7-7.4,16-12.7,10.7-8.4,16-12.1c5.3-3.7,10.7-7.8,16-8.1s10.7,3.2,16,11.2c5.3,8,10.7,20.5,16,16.7,5.3-3.8,10.7-23.9,16-37.8s10.7-21.4,16-24.6c5.3-3.3,10.7-2.2,16-4.2,5.3-1.9,10.7-6.8,16-12.4s10.7-12,16-15.7c5.3-3.7,10.7-4.8,16,1.8,5.3,6.5,10.7,20.6,16,41.7s10.7,49.1,13.4,63.1l2.7,14v30.5l-2.7-10.6c-2.7-10.6-8-31.8-13.4-41-5.3-9.2-10.7-6.3-16-9.4s-10.7-12.3-16-15.3-10.7-.1-16,.4-10.7-1.4-16-4.6c-5.3-3.2-10.7-7.6-16-6-5.3,1.6-10.7,9.1-16,17.8-5.3,8.7-10.7,18.7-16,19.1s-10.7-8.7-16-16.7c-5.3-8-10.7-14.9-16-12.9-5.3,2-10.7,12.9-16,16.6-5.3,3.7-10.7,0-16,1.9s-10.7,9.2-16,14.4c-5.3,5.2-10.7,8.3-16,13.3-5.3,5-10.7,12-16,15.4s-10.7,3.1-16,5.7c-5.3,2.6-10.7,8.1-16,8.4-5.3.4-10.7-4.3-16-6-5.3-1.7-10.7-.4-16,2.1-5.3,2.5-10.7,6.2-16,10.9s-10.7,10.4-16,12.5c-5.3,2-10.7.3-16-.1-5.3-.4-10.7.4-16,1.7-5.3,1.3-10.7,3-16,2.1s-10.7-4.2-16-3.7c-5.3.6-10.7,5.1-16,5.7-5.3.6-10.7-2.8-16-3.5-5.3-.7-10.7,1.4-16,3.2s-10.7,3.6-16,4.4c-5.3.8-10.7.8-21.4.8h-40.1c-13.3,0-24,0-40,.8s-37.4,2.5-61.4,2.5-50.7-1.7-66.7-1.7-21.4,1.7-26.7-.8c-5.3-2.5-10.7-9.3-21.4-10.2s-26.7,4.2-34.7,6.8l-8,2.5Z"/>
  <g id="xAxis">
    <path class="st11" d="M10,580h785"/>
    <g>
      <line class="st11" x1="74.1" y1="580" x2="74.1" y2="586"/>
      <text class="st4" transform="translate(63 596.1)"><tspan x="0" y="0">1980</tspan></text>
    </g>
    <g>
      <line class="st11" x1="154.2" y1="580" x2="154.2" y2="586"/>
      <text class="st4" transform="translate(143.1 596.1)"><tspan x="0" y="0">1985</tspan></text>
    </g>
    <g>
      <line class="st11" x1="234.3" y1="580" x2="234.3" y2="586"/>
      <text class="st4" transform="translate(223.2 596.1)"><tspan x="0" y="0">1990</tspan></text>
    </g>
    <g>
      <line class="st11" x1="314.4" y1="580" x2="314.4" y2="586"/>
      <text class="st4" transform="translate(303.3 596.1)"><tspan x="0" y="0">1995</tspan></text>
    </g>
    <g>
      <line class="st11" x1="394.5" y1="580" x2="394.5" y2="586"/>
      <text class="st4" transform="translate(383.4 596.1)"><tspan x="0" y="0">2000</tspan></text>
    </g>
    <g>
      <line class="st11" x1="474.6" y1="580" x2="474.6" y2="586"/>
      <text class="st4" transform="translate(463.5 596.1)"><tspan x="0" y="0">2005</tspan></text>
    </g>
    <g>
      <line class="st11" x1="554.7" y1="580" x2="554.7" y2="586"/>
      <text class="st4" transform="translate(543.6 596.1)"><tspan x="0" y="0">2010</tspan></text>
    </g>
    <g>
      <line class="st11" x1="634.8" y1="580" x2="634.8" y2="586"/>
      <text class="st4" transform="translate(623.7 596.1)"><tspan x="0" y="0">2015</tspan></text>
    </g>
    <g>
      <line class="st11" x1="714.9" y1="580" x2="714.9" y2="586"/>
      <text class="st4" transform="translate(703.7 596.1)"><tspan x="0" y="0">2020</tspan></text>
    </g>
    <g>
      <line class="st11" x1="795" y1="580" x2="795" y2="586"/>
      <text class="st4" transform="translate(783.9 596.1)"><tspan x="0" y="0">2025</tspan></text>
    </g>
  </g>
  <g id="yAxis">
    <path class="st11" d="M10,580V20"/>
    <g>
      <line class="st11" x1="10" y1="580" x2="4" y2="580"/>
      <text class="st4" transform="translate(-16 583.2)"><tspan x="0" y="0">−25</tspan></text>
    </g>
    <g>
      <line class="st11" x1="10" y1="529.1" x2="4" y2="529.1"/>
      <text class="st4" transform="translate(-16 532.3)"><tspan x="0" y="0">−20</tspan></text>
    </g>
    <g>
      <line class="st11" x1="10" y1="478.2" x2="4" y2="478.2"/>
      <text class="st4" transform="translate(-16 481.4)"><tspan x="0" y="0">−15</tspan></text>
    </g>
    <g>
      <line class="st11" x1="10" y1="427.3" x2="4" y2="427.3"/>
      <text class="st4" transform="translate(-16 430.5)"><tspan x="0" y="0">−10</tspan></text>
    </g>
    <g>
      <line class="st11" x1="10" y1="376.4" x2="4" y2="376.4"/>
      <text class="st4" transform="translate(-10.4 379.6)"><tspan x="0" y="0">−5</tspan></text>
    </g>
    <g>
      <line class="st11" x1="10" y1="325.5" x2="4" y2="325.5"/>
      <text class="st4" transform="translate(-4.6 328.7)"><tspan x="0" y="0">0</tspan></text>
    </g>
    <g>
      <line class="st11" x1="10" y1="274.5" x2="4" y2="274.5"/>
      <text class="st4" transform="translate(-4.6 277.7)"><tspan x="0" y="0">5</tspan></text>
    </g>
    <g>
      <line class="st11" x1="10" y1="223.6" x2="4" y2="223.6"/>
      <text class="st4" transform="translate(-10.1 226.8)"><tspan x="0" y="0">10</tspan></text>
    </g>
    <g>
      <line class="st11" x1="10" y1="172.7" x2="4" y2="172.7"/>
      <text class="st4" transform="translate(-10.1 175.9)"><tspan x="0" y="0">15</tspan></text>
    </g>
    <g>
      <line class="st11" x1="10" y1="121.8" x2="4" y2="121.8"/>
      <text class="st4" transform="translate(-10.1 125)"><tspan x="0" y="0">20</tspan></text>
    </g>
    <g>
      <line class="st11" x1="10" y1="70.9" x2="4" y2="70.9"/>
      <text class="st4" transform="translate(-10.1 74.1)"><tspan x="0" y="0">25</tspan></text>
    </g>
    <g>
      <line class="st11" x1="10" y1="20" x2="4" y2="20"/>
      <text class="st4" transform="translate(-10.1 23.2)"><tspan x="0" y="0">30</tspan></text>
    </g>
  </g>
  <text class="st5" transform="translate(770.3 576)"><tspan x="0" y="0">year</tspan></text>
  <text class="st5" transform="translate(14 30.3)"><tspan x="0" y="0">counts</tspan></text>
  <rect class="st3" x="144" y="-103.5" width="70.8" height="60"/>
  <rect class="st1" x="219.8" y="-103.5" width="70.8" height="60"/>
  <rect class="st0" x="295" y="-103.5" width="70.8" height="60"/>
  <rect class="st2" x="369.9" y="-103.5" width="70.8" height="60"/>
  <rect class="st8" x="445.3" y="-103.5" width="70.8" height="60"/>
  <rect class="st10" x="522.3" y="-103.5" width="70.8" height="60"/>
  <rect class="st9" x="598.3" y="-103.5" width="70.8" height="60"/>
  <rect class="st7" x="681" y="-103.5" width="70.8" height="60"/>
</svg>