<svg xmlns="http://www.w3.org/2000/svg" width="805" height="600"><rect width="805" height="600" x="0" y="0" fill="#FFFFFF" id="background"/><g transform="translate(402.5,300)" id="chord_diagram"><g><g><path fill="#c04e3f" d="M-241.72980173317723,-63.77070608076113A250,250,0,0,1,-211.42121378780473,-133.4206519264966L-194.50751668478037,-122.74699977237688A230,230,0,0,0,-222.39141759452306,-58.66904959430024Z"/></g><g><path fill="#b5dba5" d="M1.5308084989341916e-14,-250A250,250,0,1,1,-215.1966430379492,127.24152162402599L-197.98091159491327,117.06219989410391A230,230,0,1,0,1.4083438190194563e-14,-230Z"/></g><g><path fill="#005f56" d="M-60.051206047655604,-242.68055680713692A250,250,0,0,1,-27.519013979480317,-248.4807917517915L-25.31749286112189,-228.6023284116482A230,230,0,0,0,-55.24710956384315,-223.26611226256597Z"/></g><g><path fill="#cb7729" d="M-102.97933290933908,-227.8053050162518A250,250,0,0,1,-70.54246038531444,-239.84111674770517L-64.89906355448929,-220.65382740788874A230,230,0,0,0,-94.74098627659195,-209.58088061495164Z"/></g><g><path fill="#f4e1a1" d="M-205.42234379777238,-142.48389617297042A250,250,0,0,1,-161.31632779852163,-190.98963947188318L-148.4110215746399,-175.71046831413253A230,230,0,0,0,-188.98855629395058,-131.08518447913278Z"/></g><g><path fill="#f4a988" d="M-220.52377285242065,117.76784623543891A250,250,0,0,1,-244.2731255795672,-53.20376038955331L-224.7312755332018,-48.94745955838904A230,230,0,0,0,-202.881871024227,108.3464185366038Z"/></g><g><path fill="#339999" d="M-152.86259752557478,-197.82069223853742A250,250,0,0,1,-112.78347251711139,-223.11407021293385L-103.76079471574248,-205.26494459589915A230,230,0,0,0,-140.63358972352881,-181.99503685945442Z"/></g><g><path fill="#ffc3c2" d="M-16.692898413098682,-249.44207171720245A250,250,0,0,1,-10.866140977351236,-249.7637423251428L-9.996849699163137,-229.7826429391314A230,230,0,0,0,-15.357466540050787,-229.48670597982627Z"/></g></g><g fill-opacity="0.7"><path fill="#c04e3f" d="M-211.58191839845585,-87.60189385412373Q0,0,-42.95593290285624,-205.55969407557822L-46.02421382448883,-220.24252936669097L-42.95593290285624,-205.55969407557822Q0,0,-211.58191839845585,-87.60189385412373Z"/><path fill="#005f56" d="M-46.49353015527461,-224.23057698204445Q0,0,-79.14569801603218,-194.51467421651003L-84.79896216003448,-208.40857951768933L-79.14569801603218,-194.51467421651003Q0,0,-46.49353015527461,-224.23057698204445Z"/><path fill="#cb7729" d="M-85.97630298353602,-212.24767448733854Q0,0,-43.275773424406864,-205.49259703093784L-46.36690009757878,-220.1706396760048L-43.275773424406864,-205.49259703093784Q0,0,-85.97630298353602,-212.24767448733854Z"/><path fill="#cb7729" d="M-85.64589848730313,-212.3812140286955Q0,0,-115.23608354612641,-175.5580959367872L-123.46723237084971,-188.097959932272L-115.23608354612641,-175.5580959367872Q0,0,-85.64589848730313,-212.3812140286955Z"/><path fill="#339999" d="M-125.36413080363299,-191.6372477047445Q0,0,-43.59550914207011,-205.42500233088396L-46.7094740807894,-220.09821678308995L-43.59550914207011,-205.42500233088396Q0,0,-125.36413080363299,-191.6372477047445Z"/><path fill="#339999" d="M-125.06575261363845,-191.83210764411723Q0,0,-162.0038510991876,-133.62167574548766L-173.5755547491296,-143.16608115587962L-162.0038510991876,-133.62167574548766Q0,0,-125.06575261363845,-191.83210764411723Z"/><path fill="#ffc3c2" d="M-14.045960987236121,-228.56883203959597Q0,0,-162.21159733430963,-133.36940312624856L-173.79814000104602,-142.89578906383773L-162.21159733430963,-133.36940312624856Q0,0,-14.045960987236121,-228.56883203959597Z"/><path fill="#ffc3c2" d="M-13.69024456202636,-228.59041363065054Q0,0,-13.20674721939348,-209.58430720806138L-14.150086306493014,-224.55461486578005L-13.20674721939348,-209.58430720806138Q0,0,-13.69024456202636,-228.59041363065054Z"/><path fill="#c04e3f" d="M-211.3768526029465,-88.0955514408771Q0,0,-79.59953852631179,-194.32939424183417L-85.28521984961978,-208.21006525910803L-79.59953852631179,-194.32939424183417Q0,0,-211.3768526029465,-88.0955514408771Z"/><path fill="#b5dba5" d="M187.36335937664632,131.6661367364353Q0,0,-13.69594446553692,-209.55290765149724L-14.674226213075272,-224.52097248374704L-13.69594446553692,-209.55290765149724Q0,0,187.36335937664632,131.6661367364353Z"/><path fill="#005f56" d="M-45.96998142839004,-224.33849604442273Q0,0,-194.2140810947127,-79.88047761835404L-208.08651545862074,-85.58622601966503L-194.2140810947127,-79.88047761835404Q0,0,-45.96998142839004,-224.33849604442273Z"/><path fill="#005f56" d="M-45.271527302364035,-224.48048649205862Q0,0,-44.07491451750948,-205.32267753532298L-47.223122697331576,-219.98858307356033L-44.07491451750948,-205.32267753532298Q0,0,-45.271527302364035,-224.48048649205862Z"/><path fill="#005f56" d="M-44.5726346280437,-224.62030238229784Q0,0,-162.52247995714916,-132.99038878271634L-174.13122852551697,-142.48970226719607L-162.52247995714916,-132.99038878271634Q0,0,-44.5726346280437,-224.62030238229784Z"/><path fill="#cb7729" d="M-85.14990309094786,-212.58055885617148Q0,0,-162.9356122580452,-132.4839094309039L-174.573870276477,-141.94704581882561L-162.9356122580452,-132.4839094309039Q0,0,-85.14990309094786,-212.58055885617148Z"/><path fill="#f4e1a1" d="M-176.32072688975063,-146.12324000332723Q0,0,-80.20398407909146,-194.0807072788041L-85.93284008474085,-207.94361494157582L-80.20398407909146,-194.0807072788041Q0,0,-176.32072688975063,-146.12324000332723Z"/><path fill="#f4a988" d="M-228.27366638016684,18.22452296649461Q0,0,-115.64557533547952,-175.28862172236376L-123.90597357372806,-187.80923755967544L-115.64557533547952,-175.28862172236376Q0,0,-228.27366638016684,18.22452296649461Z"/><path fill="#cb7729" d="M-84.35636234482838,-212.89669826455275A229,229,0,0,1,-84.28806421891403,-212.92374745487697Q0,0,-194.53607453106565,-79.09308254230372L-208.41791372540175,-84.77601806142461L-194.51069275213126,-79.15548247017375Q0,0,-84.35636234482838,-212.89669826455275Z"/><path fill="#cb7729" d="M-83.36151503955838,-213.28820363608833A229,229,0,0,1,-83.29309137629737,-213.3149336754925Q0,0,-80.98952539817417,-193.7542174399786L-86.74119402950731,-207.60771965015022L-80.92736804087282,-193.78018758886864Q0,0,-83.36151503955838,-213.28820363608833Z"/><path fill="#f4e1a1" d="M-175.77444483298842,-146.77991873432384A229,229,0,0,1,-175.72735118716287,-146.83629675507186Q0,0,-44.90629224398562,-205.14245030441106L-48.07863052627018,-219.80319671633168L-44.84048358399311,-205.15684495515535Q0,0,-175.77444483298842,-146.77991873432384Z"/><path fill="#f4e1a1" d="M-175.08727358058758,-147.59893844508667A229,229,0,0,1,-175.0399172419634,-147.65509599037418Q0,0,-163.47095298881987,-131.82278835211704L-175.1247938426563,-141.26679221093374L-163.42865797930352,-131.8752203830721Q0,0,-175.08727358058758,-147.59893844508667Z"/><path fill="#f4e1a1" d="M-174.39628614740403,-148.4147411074546A229,229,0,0,1,-174.34866814815416,-148.4706769532786Q0,0,-116.3547012095612,-174.81871612168342L-124.63570737565144,-187.3257602332658L-116.2986162324217,-174.85603181595968Q0,0,-174.39628614740403,-148.4147411074546Z"/><path fill="#ffc3c2" d="M-13.015383636229478,-228.62983136240504A229,229,0,0,1,-12.942042248600213,-228.6339947217724Q0,0,-209.26451205109177,17.56029601169832L-224.21499202239454,18.778640855971133L-209.2701343405292,17.493166468563118Q0,0,-13.015383636229478,-228.62983136240504Z"/><path fill="#f4a988" d="M-228.3400577411697,17.372910831501304A229,229,0,0,1,-228.37226421872148,16.944289174069Q0,0,-46.18238737570013,-204.8589443892572L-49.275116019019926,-219.53806718041434L-45.79778868643271,-204.94526720915724Q0,0,-228.3400577411697,17.372910831501304Z"/><path fill="#f4a988" d="M-228.44377628449357,15.951209260750433A229,229,0,0,1,-228.47331406562853,15.522395429464718Q0,0,-82.19403228775575,-193.24632223222093L-87.87068111351297,-207.13218822927382L-81.83116688987191,-193.4002588556746Q0,0,-228.44377628449357,15.951209260750433Z"/><path fill="#c04e3f" d="M-211.04677619009075,-88.88339698599361A229,229,0,0,1,-210.7403794011704,-89.60743546074042Q0,0,-164.49170931597985,-130.54684050679737L-176.00075464918226,-140.17394323810097L-164.04254864949243,-131.11080135739735Q0,0,-211.04677619009075,-88.88339698599361Z"/><path fill="#339999" d="M-124.49891730433129,-192.20046719518993A229,229,0,0,1,-123.83832412018596,-192.6267621051233Q0,0,-117.71143247594713,-173.90807532849226L-125.79935297461536,-186.54630200346543L-117.11368043014566,-174.31117536206827Q0,0,-124.49891730433129,-192.20046719518993Z"/><path fill="#f4e1a1" d="M-173.7014975941153,-149.2273089402927A229,229,0,0,1,-172.72100169407761,-150.36108397386087Q0,0,-195.38610952008352,-76.96926793601408L-209.07124142845572,-83.15176490949776L-194.878117702841,-78.2465286169147Q0,0,-173.7014975941153,-149.2273089402927Z"/><path fill="#ffc3c2" d="M-11.94786220851923,-228.6881032949599A229,229,0,0,1,-10.450716850201387,-228.76140958937307Q0,0,173.04954373270934,118.96997694334955L184.99205667746705,128.07395896996715L172.2671126775247,120.10013276324473Q0,0,-11.94786220851923,-228.6881032949599Z"/><path fill="#005f56" d="M-43.734466633508084,-224.78500045217112A229,229,0,0,1,-41.56148643056141,-225.19689794862242Q0,0,-208.9980489150529,20.489400911231073L-224.02988040608835,20.871336450590377L-209.18618525621372,18.469972873640973Q0,0,-43.734466633508084,-224.78500045217112Z"/><path fill="#b5dba5" d="M186.87092704915432,132.3641062516181A229,229,0,0,1,184.95548512242271,135.02765836349707Q0,0,-49.99973843547685,-203.9608446648128L-52.004393652044406,-218.90761302632487L-47.072639126245384,-204.65621575141634Q0,0,186.87092704915432,132.3641062516181Z"/><path fill="#b5dba5" d="M184.36666203783955,135.83053386122376A229,229,0,0,1,182.18612729775782,138.74154035560218Q0,0,-86.08644327414241,-191.5440531167905L-90.6028020163487,-205.95177170101334L-83.03345416164176,-192.88713147845434Q0,0,184.36666203783955,135.83053386122376Z"/><path fill="#cb7729" d="M-82.36485079691077,-213.67506020404588A229,229,0,0,1,-78.62623206703715,-215.07885909810014Q0,0,-208.50208457657232,25.037586289893913L-223.62050480042637,24.877094541012678L-208.90698944015602,21.397891556191826Q0,0,-82.36485079691077,-213.67506020404588Z"/><path fill="#f4a988" d="M-228.5386430490614,14.5288896097981A229,229,0,0,1,-228.75724915916072,10.54139256140581Q0,0,-197.0165246162779,-72.69449104384432L-210.40198157544302,-79.72456427680835L-195.7189107100578,-76.1190382917994Q0,0,-228.5386430490614,14.5288896097981Z"/><path fill="#f4a988" d="M-228.8009189929233,9.546699324569973A229,229,0,0,1,-228.93260511268687,5.555386243869388Q0,0,-167.29665035033625,-126.93238665351461L-178.05376763839453,-137.55673676622533L-165.05774774683798,-129.83042751505212Q0,0,-228.8009189929233,9.546699324569973Z"/><path fill="#f4e1a1" d="M-172.06562738932175,-151.11062130478814A229,229,0,0,1,-168.92397160453464,-154.61465589442153Q0,0,-207.81410235163167,30.220834928664058L-222.97892789505818,30.089827430054143L-208.3912551326862,25.943877586507533Q0,0,-172.06562738932175,-151.11062130478814Z"/><path fill="#339999" d="M-122.99964860479436,-193.1633672389698A229,229,0,0,1,-118.69955569347857,-195.83517426185415Q0,0,-206.94197027935462,35.707435316733516L-222.1328817331273,35.80478812863543L-207.6807436177574,31.124086016706116Q0,0,-122.99964860479436,-193.1633672389698Z"/><path fill="#c04e3f" d="M-210.34879121124945,-90.52284814325157A229,229,0,0,1,-207.54964013623226,-96.76852215116489Q0,0,-199.38938752173746,-65.90805826078032L-212.55236593708102,-73.80035050424351L-197.33072446799505,-71.83721306493048Q0,0,-210.34879121124945,-90.52284814325157Z"/><path fill="#c04e3f" d="M-207.12694704305065,-97.669994412948A229,229,0,0,1,-203.95384203565953,-104.13371365169513Q0,0,-205.5316343900177,43.0899903106058L-220.91108888502768,42.700009457041176L-206.7847650795425,36.606842680002096Q0,0,-207.12694704305065,-97.669994412948Z"/><path fill="#b5dba5" d="M181.58118312640272,139.53234010227095A229,229,0,0,1,176.4248883871418,145.99746147650842Q0,0,-172.29417327279896,-120.06130873950497L-182.2481672386014,-131.9492536476458L-167.8469473022644,-126.20381246741668Q0,0,181.58118312640272,139.53234010227095Z"/><path fill="#b5dba5" d="M175.78845128601387,146.7631438558902A229,229,0,0,1,167.48786198075993,156.16919058864946Q0,0,-202.93610288924376,-54.00868582113692L-215.764968216363,-63.80030164969335L-199.67405880914478,-65.0405276630055Q0,0,175.78845128601387,146.7631438558902Z"/><path fill="#b5dba5" d="M166.80728458059951,156.89592031294785A229,229,0,0,1,157.7070937092621,166.04057514287894Q0,0,-128.04304100683086,-166.44812900637552L-132.1110727752785,-182.13089921857045L-118.46643957768255,-173.39464436304624Q0,0,166.80728458059951,156.89592031294785Z"/><path fill="#cb7729" d="M-77.69036638097732,-215.4186783256956A229,229,0,0,1,-65.09433730897473,-219.55347241687028Q0,0,180.1152601574256,107.97450189013557L189.55108444336773,121.22452881468867L173.56516724596753,118.21646551508518Q0,0,-77.69036638097732,-215.4186783256956Z"/><path fill="#005f56" d="M-40.58197973769457,-225.37547098246816A229,229,0,0,1,-25.702157732625032,-227.55306872878526Q0,0,187.22897414800687,95.10684118129973L197.1484383238857,108.43197529535759L180.58301062442376,107.19037397928632Q0,0,-40.58197973769457,-225.37547098246816Z"/><path fill="#f4a988" d="M-228.9545950689858,4.559977718885911A229,229,0,0,1,-228.76020347908755,-10.47708471887412Q0,0,-202.01277892596462,57.36581866067407L-218.34369124066495,54.32340651506648L-205.34234455632873,43.9831960197298Q0,0,-228.9545950689858,4.559977718885911Z"/><path fill="#339999" d="M-117.84697917447735,-196.34940666946335A229,229,0,0,1,-103.75370437844748,-204.1474193511878Q0,0,193.80453391003448,80.8690462161778L204.47214844591323,93.89430499190262L187.64071120309498,94.29190579894285Q0,0,-117.84697917447735,-196.34940666946335Z"/><path fill="#c04e3f" d="M-203.49916045832265,-105.01948244377253A229,229,0,0,1,-193.9270551317926,-121.79202473031914Q0,0,200.20654607237515,63.38248109509383L211.45279852766635,76.89417399789238L194.1543055530347,80.02565610614407Q0,0,-203.49916045832265,-105.01948244377253Z"/><path fill="#f4e1a1" d="M-168.25013945578291,-155.34764424705511A229,229,0,0,1,-148.1457253005556,-174.62486671483052Q0,0,206.58646456667182,37.7098482871948L218.47582662686852,53.78952667301027L200.48022890048927,62.5114215164511Q0,0,-168.25013945578291,-155.34764424705511Z"/><path fill="#f4a988" d="M-228.71248888901545,-11.471592138495543A229,229,0,0,1,-223.8595991073146,-48.2481076055051Q0,0,209.9793134849071,2.94752581110326L223.98290394285004,21.36957513213604L206.74846730222075,36.81129267198534Q0,0,-228.71248888901545,-11.471592138495543Z"/><path fill="#b5dba5" d="M156.9836898267223,166.72468661955085A229,229,0,0,1,119.30849845599936,195.46478505391912Q0,0,-185.45458564213385,98.52206181513073L-208.55641059059886,84.43472983059483L-201.76145372836712,58.24359011441491Q0,0,156.9836898267223,166.72468661955085Z"/><path fill="#b5dba5" d="M118.45752656419134,195.98166853125295A229,229,0,0,1,-196.86628284248846,116.98148007176754Q0,0,0.4565213795513636,-209.99950378091376L160.0398687187107,-158.1525858798959L209.9901440956692,2.034547291191472Q0,0,118.45752656419134,195.98166853125295Z"/></g></g></svg>