<svg xmlns="http://www.w3.org/2000/svg" width="805" height="600"><rect width="805" height="600" x="0" y="0" fill="#FFFFFF" id="background"/><g transform="translate(402.5,300)" id="chord_diagram"><g><g><path fill="#9467bd" d="M102.1787706794361,228.16550752127108A250,250,0,0,1,-154.91682102840352,196.216152654295L-142.52347534613122,180.5188604419514A230,230,0,0,0,94.0044690250812,209.9122669195694Z"/></g><g><path fill="#1f77b4" d="M249.2039755276571,-19.93435680454462A250,250,0,0,1,111.9993228878922,223.50872840373296L103.03937705686083,205.62803013143431A230,230,0,0,0,229.26765748544452,-18.33960826018105Z"/></g><g><path fill="#8c564b" d="M1.5308084989341916e-14,-250A250,250,0,0,1,248.10203199504,-30.747060346188288L228.2538694354368,-28.287295518493227A230,230,0,0,0,1.4083438190194563e-14,-230Z"/></g><g><path fill="#2ca02c" d="M-163.2988693837722,189.29733029808347A250,250,0,0,1,-249.55109395615028,-14.975029391913102L-229.58700643965824,-13.777027040560053A230,230,0,0,0,-150.2349598330704,174.1535438742368Z"/></g><g><path fill="#d62728" d="M-248.66437738923588,-25.80750700132965A250,250,0,0,1,-172.49892547314374,-180.95336612124905L-158.69901143529225,-166.47709683154912A230,230,0,0,0,-228.77122719809702,-23.74290644122328Z"/></g><g><path fill="#ff7f0e" d="M-164.47084954655588,-188.27995020562912A250,250,0,0,1,-73.05283068769616,-239.08844373686236L-67.20860423268047,-219.96136823791338A230,230,0,0,0,-151.31318158283142,-173.2175541891788Z"/></g><g><path fill="#e377c2" d="M-62.591918577217285,-242.03770724584012A250,250,0,0,1,-10.866140977347909,-249.76374232514294L-9.996849699160077,-229.7826429391315A230,230,0,0,0,-57.5845650910399,-222.67469066617292Z"/></g></g><g fill-opacity="0.7"><path fill="#e377c2" d="M-39.29597401323464,-225.60325003499216Q0,0,-78.08945823235734,189.54428641606933L-85.70794196234343,208.03641192007606L-78.08945823235734,189.54428641606933Q0,0,-39.29597401323464,-225.60325003499216Z"/><path fill="#1f77b4" d="M212.2132627892116,86.06120552465562A229,229,0,0,1,212.09171299152223,86.3603223727295Q0,0,-78.71934743755416,189.2835553845226L-86.54571729815167,207.68928431035727L-78.9861426742776,189.17237976363953Q0,0,212.2132627892116,86.06120552465562Z"/><path fill="#1f77b4" d="M212.8028144128237,84.59292037742468A229,229,0,0,1,212.58543497150447,85.13772863998807Q0,0,-34.505817787330976,-202.07510618289308L-37.5881550186253,-221.83807293225343L-33.988097405571935,-202.1628285188683Q0,0,212.8028144128237,84.59292037742468Z"/><path fill="#e377c2" d="M-40.62339445840804,-225.36800975887544A229,229,0,0,1,-40.04599018043192,-225.4713256058711Q0,0,-199.81680997318892,-45.806576516243844L-219.2465636393044,-50.556348091574456L-199.69882277879825,-46.31824889567964Q0,0,-40.62339445840804,-225.36800975887544Z"/><path fill="#2ca02c" d="M-219.79429437075578,64.2764977426552A229,229,0,0,1,-220.24935617785127,62.69945058165987Q0,0,-33.108810107148415,-202.30869159106533L-35.54293131609542,-222.1749311543931L-31.657893251874246,-202.5408052587254Q0,0,-219.79429437075578,64.2764977426552Z"/><path fill="#2ca02c" d="M-218.80747512628977,67.55952063816086A229,229,0,0,1,-219.51275477004222,65.23151457131209Q0,0,-199.49555221289683,-47.18606412142634L-218.68038378766707,-52.951768114753655L-198.98308241923445,-49.30246353824683Q0,0,-218.80747512628977,67.55952063816086Z"/><path fill="#e377c2" d="M-43.99250378714228,-224.7346426578205A229,229,0,0,1,-41.60286831983164,-225.18925673211578Q0,0,-130.3865883856786,-158.19082643801954L-142.18307369151924,-174.3816892785249L-128.69891389425467,-159.56688115783683Q0,0,-43.99250378714228,-224.7346426578205Z"/><path fill="#9467bd" d="M-84.02476698709447,213.02778817038043A229,229,0,0,1,-86.52704170978998,212.02375115291272Q0,0,-197.40862609093108,55.270555858349795L-217.02136506789782,59.38625349410603L-198.04567552818048,52.9425198171248Q0,0,-84.02476698709447,213.02778817038043Z"/><path fill="#e377c2" d="M-48.38326996250314,-223.83042507160536A229,229,0,0,1,-44.96919204315394,-224.5412473622295Q0,0,-30.776984606077757,-202.6765334678814L-32.08486663208285,-222.70060918911167L-27.68707754934144,-203.12170178682717Q0,0,-48.38326996250314,-223.83042507160536Z"/><path fill="#ff7f0e" d="M-150.2800198058599,-172.79153812368926A229,229,0,0,1,-146.41828813685325,-176.07579305251878Q0,0,-128.00393059758525,-160.12493169887247L-138.53822942949316,-177.2911700749395L-124.42804488400974,-162.91918747140517Q0,0,-150.2800198058599,-172.79153812368926Z"/><path fill="#8c564b" d="M174.5855430973349,-148.1920650419874A229,229,0,0,1,178.81583617237493,-143.05906729031324Q0,0,-26.80368080570373,-203.24016014377165L-26.175942899866975,-223.47219069339008L-20.889673540034508,-203.93288488959004Q0,0,174.5855430973349,-148.1920650419874Z"/><path fill="#e377c2" d="M-56.85209157984973,-221.83065541758737A229,229,0,0,1,-49.35598534953125,-223.61794809490775Q0,0,189.5258389644488,78.13422019078337L206.54378264243496,89.24497661916091L186.78955122528697,84.46693763275604Q0,0,-56.85209157984973,-221.83065541758737Z"/><path fill="#d62728" d="M-225.04183778833283,-42.39305656413197A229,229,0,0,1,-223.43036225657144,-50.198338836033834Q0,0,-123.71852675573778,-163.45863738998253L-132.64613111090492,-181.7415855034522L-117.9556016894287,-167.6647727761704Q0,0,-225.04183778833283,-42.39305656413197Z"/><path fill="#9467bd" d="M-71.87714272712107,217.4274047892424A229,229,0,0,1,-83.09776794685467,213.39109860125535Q0,0,-20.00281417202683,-204.02178174204676L-16.116703405243566,-224.4220396292383L-9.355445215243055,-204.78641469791054Q0,0,-71.87714272712107,217.4274047892424Z"/><path fill="#2ca02c" d="M-214.37222560082233,80.53290564080089A229,229,0,0,1,-218.51167088515805,68.51021593146798Q0,0,-117.22551182269227,-168.17603687180832L-123.4880052683752,-188.08432299061434L-107.71033836005871,-174.4232868924378Q0,0,-214.37222560082233,80.53290564080089Z"/><path fill="#2ca02c" d="M-209.06105356853547,93.45841792376936A229,229,0,0,1,-214.02005743665956,81.4641946796809Q0,0,186.42053933348822,85.27826519466362L201.8733238702451,99.35874953711492L181.28978175632915,95.70274306801525Q0,0,-209.06105356853547,93.45841792376936Z"/><path fill="#9467bd" d="M-57.971438049623174,221.5407690933177A229,229,0,0,1,-70.9311297959238,217.7378580446538Q0,0,-91.59926949565312,183.39731139758487L-106.42796985190984,198.23745164120973L-102.25179847999992,177.678275845995Q0,0,-57.971438049623174,221.5407690933177Z"/><path fill="#2ca02c" d="M-202.72664048200633,106.5030949732418A229,229,0,0,1,-208.65273790197298,94.366492813978Q0,0,-79.80788213089784,188.82717481808788L-93.66757679640605,204.5761106705506L-90.80102661687117,183.7938344050808Q0,0,-202.72664048200633,106.5030949732418Z"/><path fill="#8c564b" d="M163.9381158883261,-159.89150746361034A229,229,0,0,1,173.93958165672544,-148.9497295502189Q0,0,-106.95096057790306,-174.88994262525168L-111.11079883595214,-195.65119570816984L-95.4115238895524,-181.4432173134983Q0,0,163.9381158883261,-159.89150746361034Z"/><path fill="#d62728" d="M-227.724640903923,-24.134786619718188A229,229,0,0,1,-225.22402779870205,-41.41421618393228Q0,0,-198.76684381296056,-50.167138653048006L-215.90115700663432,-63.33790652679201L-194.36707693017365,-65.16470981766095Q0,0,-227.724640903923,-24.134786619718188Z"/><path fill="#1f77b4" d="M219.5329564021349,65.16349479070585A229,229,0,0,1,213.16859719445046,83.66689411081379Q0,0,-94.6217410126445,-181.85633375754617L-95.23077233970268,-203.8531334063416L-78.75144317564542,-189.2702041995863Q0,0,219.5329564021349,65.16349479070585Z"/><path fill="#9467bd" d="M-36.56454043405976,226.0620144625054A229,229,0,0,1,-57.007672415819926,221.7907240750401Q0,0,-77.92778749562142,-189.6108117593437L-75.95184106662705,-211.79310148961375L-60.329380418614285,-195.9218360936476Q0,0,-36.56454043405976,226.0620144625054Z"/><path fill="#8c564b" d="M146.7196344185013,-175.82476752750543A229,229,0,0,1,163.24138810416454,-160.60276837534752Q0,0,-194.08191588248607,-66.00916548013318L-209.2066826529512,-82.8104095711847L-186.680278422432,-84.7081675408179Q0,0,146.7196344185013,-175.82476752750543Z"/><path fill="#8c564b" d="M125.10414531176299,-191.80707188686577A229,229,0,0,1,145.9537945541565,-176.4610151145093Q0,0,-198.2739877873876,52.080953974431715L-220.50093926639275,44.76980882959596L-202.88531920127573,29.36915478178513Q0,0,125.10414531176299,-191.80707188686577Z"/><path fill="#8c564b" d="M96.2961813300106,-207.7692120148164A229,229,0,0,1,124.26902169139255,-192.34918832130333Q0,0,-103.02334382732737,177.23202483365213L-126.365339684415,186.1633716025857L-126.68171672931774,161.17302083944725Q0,0,96.2961813300106,-207.7692120148164Z"/><path fill="#9467bd" d="M-3.4948140556788885,228.9733309246215A229,229,0,0,1,-35.58131960693506,226.21885353575004Q0,0,160.63060570312408,-127.36878939303568L185.6952637464479,-127.05222950478736L176.90987680086786,-103.57555450154135Q0,0,-3.4948140556788885,228.9733309246215Z"/><path fill="#1f77b4" d="M227.2777392733143,28.032645804692855A229,229,0,0,1,219.81420007466224,64.2083907720507Q0,0,180.8719706730781,96.49005246571882L189.33022316811076,121.56918439766454L163.00592421413714,124.31439446457912Q0,0,227.2777392733143,28.032645804692855Z"/><path fill="#2ca02c" d="M-181.5654864080987,139.55276473574617A229,229,0,0,1,-202.2616688784463,107.38350572832752Q0,0,177.3585317664939,-102.80540457404744L203.40557524542746,-96.18301284050497L191.996644031101,-71.84906875384458Q0,0,-181.5654864080987,139.55276473574617Z"/><path fill="#9467bd" d="M37.73378352672319,225.8697889952492A229,229,0,0,1,-2.4992479385825987,228.98636151470134Q0,0,-186.31021874107307,-85.51901772502717L-195.42151506956404,-111.51426566998573L-168.40629789422465,-116.89447732703916Q0,0,37.73378352672319,225.8697889952492Z"/><path fill="#8c564b" d="M53.273521365429794,-222.71715677362417A229,229,0,0,1,95.39192960560663,-208.18592595590843Q0,0,162.46388785349896,125.02193864888558L164.11946643736604,153.9149139502546L135.17978884983498,154.11497229832676Q0,0,53.273521365429794,-222.71715677362417Z"/><path fill="#1f77b4" d="M228.30999753130848,-17.76358711673722A229,229,0,0,1,227.39747177862554,27.04421987577364Q0,0,-167.89647089809125,-117.625571454367L-170.75916908400683,-146.51384294236354L-141.771353440945,-148.0739117586979Q0,0,228.30999753130848,-17.76358711673722Z"/><path fill="#2ca02c" d="M-149.95835920155102,173.0707673339972A229,229,0,0,1,-180.9570210514954,140.34085838475073Q0,0,-203.01109314868663,28.486769886655818L-224.8125294435956,9.182951876845495L-204.65810810609096,-11.834643485783142Q0,0,-149.95835920155102,173.0707673339972Z"/><path fill="#8c564b" d="M0.49782569484410605,-228.9994588849012A229,229,0,0,1,52.30468542237561,-222.94667497602723Q0,0,192.30721559212373,-71.01362426467507L218.57205807796703,-53.397148121990725L203.3883755751547,-25.654798399126268Q0,0,0.49782569484410605,-228.9994588849012Z"/><path fill="#9467bd" d="M93.14118617117616,209.20257990432697A229,229,0,0,1,38.71546634209676,225.7035947119894Q0,0,134.5084481742366,154.70125199803235L125.40442643173685,186.81201736324968L92.23765604522113,183.07707340703118Q0,0,93.14118617117616,209.20257990432697Z"/></g><g><g id="4" transform="rotate(97.08384901747752) translate(250,0)"><text x="8" dy="0.35em" transform="rotate(180) translate(-16)" text-anchor="end" style="font-family: Arial, sans-serif; font-size: 10px; fill: black; font-weight: bold;">4 (946)</text></g><g id="0" transform="rotate(29.405631055734986) translate(250,0)"><text x="8" dy="0.35em" style="font-family: Arial, sans-serif; font-size: 10px; fill: black; font-weight: bold;">0 (1030)</text></g><g id="5" transform="rotate(-48.53229702860426) translate(250,0)"><text x="8" dy="0.35em" style="font-family: Arial, sans-serif; font-size: 10px; fill: black; font-weight: bold;">5 (1257)</text></g><g id="2" transform="rotate(157.10852116429265) translate(250,0)"><text x="8" dy="0.35em" transform="rotate(180) translate(-16)" text-anchor="end" style="font-family: Arial, sans-serif; font-size: 10px; fill: black; font-weight: bold;">2 (798)</text></g><g id="3" transform="rotate(206.1477159129576) translate(250,0)"><text x="8" dy="0.35em" transform="rotate(180) translate(-16)" text-anchor="end" style="font-family: Arial, sans-serif; font-size: 10px; fill: black; font-weight: bold;">3 (613)</text></g><g id="1" transform="rotate(240.93548052348183) translate(250,0)"><text x="8" dy="0.35em" transform="rotate(180) translate(-16)" text-anchor="end" style="font-family: Arial, sans-serif; font-size: 10px; fill: black; font-weight: bold;">1 (366)</text></g><g id="6" transform="rotate(261.50480441748124) translate(250,0)"><text x="8" dy="0.35em" transform="rotate(180) translate(-16)" text-anchor="end" style="font-family: Arial, sans-serif; font-size: 10px; fill: black; font-weight: bold;">6 (182)</text></g></g></g></svg>