<svg xmlns="http://www.w3.org/2000/svg" width="805" height="600"><rect width="805" height="600" x="0" y="0" fill="#FFFFFF" id="background"/><g transform="translate(402.5,300)" id="chord_diagram"><g><g><path fill="#9467bd" d="M97.42777603033285,230.23429036045718A250,250,0,0,1,-161.38184562308177,190.93428163451372L-148.47129797323524,175.65953910375262A230,230,0,0,0,89.63355394790622,211.8155471316206Z"/></g><g><path fill="#1f77b4" d="M248.36675913040946,-28.529860831366943A250,250,0,0,1,107.34273681851366,225.7820560901847L98.75531787303257,207.71949160296992A230,230,0,0,0,228.4974183999767,-26.247471964857585Z"/></g><g><path fill="#8c564b" d="M1.5308084989341916e-14,-250A250,250,0,0,1,246.89200695888258,-39.29805211222404L227.14064640217197,-36.15420794324612A230,230,0,0,0,1.4083438190194563e-14,-230Z"/></g><g><path fill="#2ca02c" d="M-169.52821011123544,183.7394513338951A250,250,0,0,1,-248.21096201347396,29.854954971424707L-228.35408505239604,27.46655857371073A230,230,0,0,0,-155.9659533023366,169.0402952271835Z"/></g><g><path fill="#d62728" d="M-249.27402763280418,19.03835990099939A250,250,0,0,1,-221.35201920549304,-116.20362986435075L-203.6438576690536,-106.90733947520269A230,230,0,0,0,-229.33210542217984,17.515291108919435Z"/></g><g><path fill="#e377c2" d="M-216.09209465522056,-125.7147828519749A250,250,0,0,1,-121.70010426142444,-218.3783062091068L-111.96409592051049,-200.90804171237826A230,230,0,0,0,-198.8047270828029,-115.65760022381691Z"/></g><g><path fill="#ff7f0e" d="M-112.09337608012241,-223.46157396510085A250,250,0,0,1,-10.866140977348795,-249.76374232514289L-9.996849699160892,-229.78264293913148A230,230,0,0,0,-103.12590599371262,-205.58464804789278Z"/></g></g><g fill-opacity="0.7"><path fill="#9467bd" d="M-80.97744378948224,214.20470022229026Q0,0,-187.12754106995808,-83.71549064009096L-205.3838865401979,-91.88285558058763L-187.12754106995808,-83.71549064009096Q0,0,-80.97744378948224,214.20470022229026Z"/><path fill="#e377c2" d="M-164.6041120418877,-159.2057985718538Q0,0,-186.98265836604617,-84.03859512370771L-205.22486893834335,-92.23748245284993L-186.98265836604617,-84.03859512370771Q0,0,-164.6041120418877,-159.2057985718538Z"/><path fill="#9467bd" d="M-80.08573967650561,214.53968001390086A229,229,0,0,1,-80.38814251128697,214.4265527950888Q0,0,-146.87826587835565,-143.00970251198714L-161.09716136397347,-157.0754742169187L-146.67648855283642,-143.21664604999535Q0,0,-80.08573967650561,214.53968001390086Z"/><path fill="#1f77b4" d="M214.3252119440299,80.65794148840317A229,229,0,0,1,214.21127818320937,80.96004137298654Q0,0,-73.01771714925442,191.55524785897012L-80.28958963549549,210.18701624068916L-73.28772094333718,191.45210878684918Q0,0,214.3252119440299,80.65794148840317Z"/><path fill="#e377c2" d="M-165.72059101061024,-158.04330329088305A229,229,0,0,1,-165.13263360305015,-158.65753470705636Q0,0,-156.30697676110398,132.63909309024885L-171.82641118443533,145.26074631323272L-156.79838848684452,132.0578107039814Q0,0,-165.72059101061024,-158.04330329088305Z"/><path fill="#8c564b" d="M172.69443392250437,-150.39159714620286A229,229,0,0,1,173.76794359646308,-149.14993053386385Q0,0,-186.7021579117988,-84.65993285538177L-204.5826801298838,-93.65322733826979L-186.09055404906823,-85.99596324078713Q0,0,172.69443392250437,-150.39159714620286Z"/><path fill="#d62728" d="M-210.266928861269,-90.7128360666231A229,229,0,0,1,-209.29150571581448,-92.94119450064753Q0,0,-157.3710690482282,131.3748325464881L-173.48772900265251,143.27249521629128L-158.75766724268078,129.6958098462022Q0,0,-210.266928861269,-90.7128360666231Z"/><path fill="#e377c2" d="M-168.0678615656195,-155.54482925754803A229,229,0,0,1,-166.40616728788623,-157.32128746153845Q0,0,-74.11942609428141,191.13165796239605L-82.46360272133195,209.3436271449846L-76.14546392506776,190.333571194459Q0,0,-168.0678615656195,-155.54482925754803Z"/><path fill="#e377c2" d="M-171.08045846586884,-152.2250857484013A229,229,0,0,1,-168.74255276065335,-154.81263155123395Q0,0,191.4442670699692,73.30820285644926L209.50302752358337,82.0577934047258L190.30573872994938,76.21499725413784Q0,0,-171.08045846586884,-152.2250857484013Z"/><path fill="#ff7f0e" d="M-102.23231021439855,-204.9135299296437A229,229,0,0,1,-97.67130022937,-207.12633128480857Q0,0,-86.62801432162189,-185.79716664872174L-92.81654035220082,-204.96363052270584L-82.49398712850837,-187.6692358583087Q0,0,-102.23231021439855,-204.9135299296437Z"/><path fill="#e377c2" d="M-175.7299624007908,-146.8331717106753A229,229,0,0,1,-171.74068756454028,-151.47982121345058Q0,0,-81.67725678476688,-188.02613042903172L-86.87825862853457,-207.55039912675056L-76.62008308793581,-190.14300635994428Q0,0,-175.7299624007908,-146.8331717106753Z"/><path fill="#2ca02c" d="M-168.67284902566638,154.8885728566338A229,229,0,0,1,-173.96047499085807,148.925327399187Q0,0,-75.7926527730148,-190.47433891637272L-79.53654769079077,-210.47312793188246L-69.11866640174433,-192.99639881314982Q0,0,-168.67284902566638,154.8885728566338Z"/><path fill="#d62728" d="M-213.7512872022191,-82.16682554044823A229,229,0,0,1,-210.6593438567819,-89.79777751052713Q0,0,-68.27890097351275,-193.29508964753668L-71.11422503828523,-213.4660792660139L-61.28607872251699,-195.62468288745532Q0,0,-213.7512872022191,-82.16682554044823Z"/><path fill="#d62728" d="M-217.47378597566342,-71.73668805716736A229,229,0,0,1,-214.10651281390037,-81.23669842301027Q0,0,-185.71490084755646,-86.80423724209709L-201.68740905762522,-99.73559558964969L-181.71537229088824,-94.89216760715232Q0,0,-217.47378597566342,-71.73668805716736Z"/><path fill="#8c564b" d="M161.33920501579902,-162.51357150979723A229,229,0,0,1,172.03892720331254,-151.14101867703994Q0,0,-60.434960040129106,-195.88929425812935L-58.962430286611585,-217.13689648398417L-46.94522961033659,-199.55236259396372Q0,0,161.33920501579902,-162.51357150979723Z"/><path fill="#d62728" d="M-222.29288475517785,-55.01702815693716A229,229,0,0,1,-217.78362812213592,-70.79047479682002Q0,0,-76.97227887364987,190.00070601183847L-91.89726124071197,205.37744125501305L-90.37749131182866,184.0024702665166Q0,0,-222.29288475517785,-55.01702815693716Z"/><path fill="#d62728" d="M-225.87215016694617,-37.719647121367906A229,229,0,0,1,-222.52998740813496,-54.05002038977679Q0,0,189.97257149252567,77.04169053517211L205.2908635739761,92.09050620477188L183.86516516555164,90.65650025588025Q0,0,-225.87215016694617,-37.719647121367906Z"/><path fill="#e377c2" d="M-186.52467751139105,-132.85158892264548A229,229,0,0,1,-176.36670452271744,-146.06774296810534Q0,0,156.13549914678316,-132.84090449174485L176.56111049632239,-139.46746667343405L165.384926948541,-121.13144075022703Q0,0,-186.52467751139105,-132.85158892264548Z"/><path fill="#2ca02c" d="M-155.65335440491725,167.9673577291053A229,229,0,0,1,-167.9978283109085,155.6204667864048Q0,0,-159.32005974879922,129.00433543737606L-180.1339384181135,134.82123063516107L-168.68541484455443,116.4913336635845Q0,0,-155.65335440491725,167.9673577291053Z"/><path fill="#e377c2" d="M-197.68955478489963,-115.58477377642859A229,229,0,0,1,-187.10052830517535,-132.03935893484288Q0,0,-146.05242309082954,-143.85301425169138L-153.40957730555502,-164.59192444020738L-133.23867419826686,-155.79619924082903Q0,0,-197.68955478489963,-115.58477377642859Z"/><path fill="#9467bd" d="M-60.26431715452846,220.92806991846555A229,229,0,0,1,-79.15220444500147,214.88585000296482Q0,0,-46.07716966002632,-199.75458551963493L-41.03214635134225,-221.226949004415L-28.622398122191143,-202.99201542359936Q0,0,-60.26431715452846,220.92806991846555Z"/><path fill="#1f77b4" d="M220.97538131027528,60.09060537869827A229,229,0,0,1,214.67387178632563,79.72533331550407Q0,0,-27.73955639008495,-203.11454160468497L-20.377678271185697,-224.07532266690157L-9.355445215243783,-204.78641469791052Q0,0,220.97538131027528,60.09060537869827Z"/><path fill="#d62728" d="M-228.47716147489288,-15.46566145936651A229,229,0,0,1,-226.0340132219119,-36.73724087076434Q0,0,-132.56004221033015,-156.37402344761577L-137.3099765932713,-178.24413125810142L-117.37567684082197,-168.07126609316336Q0,0,-228.47716147489288,-15.46566145936651Z"/><path fill="#8c564b" d="M144.48074593538394,-177.6691139561264A229,229,0,0,1,160.63110155342972,-163.21350806147063Q0,0,-116.64382509872864,-168.58000494227423L-119.12387636752358,-190.87823888326022L-100.18313244710188,-178.8528444646225Q0,0,144.48074593538394,-177.6691139561264Z"/><path fill="#9467bd" d="M-37.86553351887942,225.84773935404053A229,229,0,0,1,-59.30319374999715,221.18799969946448Q0,0,-91.17664530335664,183.60778673908658L-109.60992026942088,196.4959678429336L-108.32771930954765,174.0405275480164Q0,0,-37.86553351887942,225.84773935404053Z"/><path fill="#8c564b" d="M124.88318735279367,-191.951008115631A229,229,0,0,1,143.70690836027123,-178.295609843688Q0,0,-169.19030293064395,115.75682007655934L-191.90817282847016,117.45745272922456L-180.05795519433974,98.00067740190954Q0,0,124.88318735279367,-191.951008115631Z"/><path fill="#9467bd" d="M-11.401369275419395,228.7160002681175A229,229,0,0,1,-36.88323202302424,226.01023692641834Q0,0,165.91002054519544,-120.41123320808913L189.20540458688083,-121.76335604406908L178.32420751324312,-101.12110073952819Q0,0,-11.401369275419395,228.7160002681175Z"/><path fill="#d62728" d="M-228.37238090687387,16.94271639748795A229,229,0,0,1,-228.5422437533028,-14.472139448123288Q0,0,178.76217760645108,-100.3448247664006L203.2946810446451,-96.41718031012945L190.81341681235477,-74.9349048467706Q0,0,-228.37238090687387,16.94271639748795Z"/><path fill="#8c564b" d="M96.2961813300106,-207.7692120148164A229,229,0,0,1,124.04744001315088,-192.49216250586343Q0,0,-109.08339098148538,173.56789395501806L-132.61531122812085,181.76407573519208L-131.99243987200293,156.85342143745444Q0,0,96.2961813300106,-207.7692120148164Z"/><path fill="#9467bd" d="M28.863727709894597,227.1736895476434A229,229,0,0,1,-10.40684725271143,228.76340950916676Q0,0,-180.48234188529904,97.21689291269308L-206.5161199184835,89.30897051144717L-194.44775404517569,64.92357774173308Q0,0,28.863727709894597,227.1736895476434Z"/><path fill="#1f77b4" d="M228.11036524085532,20.165844135160476A229,229,0,0,1,221.23455537788627,59.129277914997225Q0,0,183.4692698573558,91.45505463345782L191.9445581406607,117.39798379949515L164.98881054036661,121.67042531558361Q0,0,228.11036524085532,20.165844135160476Z"/><path fill="#1f77b4" d="M227.56022537461016,-25.638717352017203A229,229,0,0,1,228.19588649860998,19.17387246003059Q0,0,-194.72819170322305,64.07754174430235L-219.5823171020577,49.07755104007721L-203.47928825275173,24.92346789982412Q0,0,227.56022537461016,-25.638717352017203Z"/><path fill="#8c564b" d="M49.93357298373837,-223.489682735194A229,229,0,0,1,95.39192960560663,-208.18592595590843Q0,0,191.13741619337634,-74.10457564091463L217.14929877549332,-58.91673821004974L202.38091432979877,-32.664438079272834Q0,0,49.93357298373837,-223.489682735194Z"/><path fill="#8c564b" d="M0.49782569484410605,-228.9994588849012A229,229,0,0,1,48.961409811198365,-223.7046721668993Q0,0,164.45825091974262,122.38661570784191L165.17898311766723,152.77730046120533L134.8244890579893,154.4258953357633Q0,0,0.49782569484410605,-228.9994588849012Z"/><path fill="#9467bd" d="M88.78516578291976,211.08811983837333A229,229,0,0,1,29.85116347806813,227.0460482787702Q0,0,134.1517999055726,155.01062731985573L123.24492921470011,188.2436915884927L88.42331694152287,184.94949856936353Q0,0,88.78516578291976,211.08811983837333Z"/></g><g><g id="4" transform="rotate(98.63435183343267) translate(250,0)"><text x="8" dy="0.35em" transform="rotate(180) translate(-16)" text-anchor="end" style="font-family: Arial, sans-serif; font-size: 10px; fill: black; font-weight: bold;">4 (957)</text></g><g id="0" transform="rotate(29.009757996342202) translate(250,0)"><text x="8" dy="0.35em" style="font-family: Arial, sans-serif; font-size: 10px; fill: black; font-weight: bold;">0 (1078)</text></g><g id="5" transform="rotate(-49.52197967708625) translate(250,0)"><text x="8" dy="0.35em" style="font-family: Arial, sans-serif; font-size: 10px; fill: black; font-weight: bold;">5 (1227)</text></g><g id="2" transform="rotate(152.9188646190522) translate(250,0)"><text x="8" dy="0.35em" transform="rotate(180) translate(-16)" text-anchor="end" style="font-family: Arial, sans-serif; font-size: 10px; fill: black; font-weight: bold;">2 (613)</text></g><g id="3" transform="rotate(191.66535982350428) translate(250,0)"><text x="8" dy="0.35em" transform="rotate(180) translate(-16)" text-anchor="end" style="font-family: Arial, sans-serif; font-size: 10px; fill: black; font-weight: bold;">3 (486)</text></g><g id="6" transform="rotate(225.5294206287785) translate(250,0)"><text x="8" dy="0.35em" transform="rotate(180) translate(-16)" text-anchor="end" style="font-family: Arial, sans-serif; font-size: 10px; fill: black; font-weight: bold;">6 (465)</text></g><g id="1" transform="rotate(255.4347508401247) translate(250,0)"><text x="8" dy="0.35em" transform="rotate(180) translate(-16)" text-anchor="end" style="font-family: Arial, sans-serif; font-size: 10px; fill: black; font-weight: bold;">1 (366)</text></g></g></g></svg>