<svg xmlns="http://www.w3.org/2000/svg" width="805" height="600"><rect width="805" height="600" x="0" y="0" fill="#FFFFFF" id="background"/><g transform="translate(402.5,300)" id="chord_diagram"><g><g><path fill="#b5dba5" d="M1.5308084989341916e-14,-250A250,250,0,0,1,249.74129419305888,-11.370399059664345L239.7516424253365,-10.915583097277771A240,240,0,0,0,1.469576158976824e-14,-240Z"/></g><g><path fill="#339999" d="M249.99816579169755,-0.9576537928270993A250,250,0,0,1,102.47098216295072,228.03442243345683L98.37214287643269,218.91304553611855A240,240,0,0,0,239.99823916002964,-0.9193476411140153Z"/></g><g><path fill="#c04e3f" d="M-160.64383487452736,191.55562721258175A250,250,0,0,1,-249.8150942807812,-9.613462928851146L-239.82249050954997,-9.228924411697099A240,240,0,0,0,-154.21808147954627,183.8934021240785Z"/></g><g><path fill="#f4a988" d="M92.88335927675202,232.1048934629897A250,250,0,0,1,-152.52523206442177,198.08092685489504L-146.42422278184492,190.15768978069923A240,240,0,0,0,89.16802490568195,222.8206977244701Z"/></g><g><path fill="#cb7729" d="M-249.19782720960202,-20.01106978682898A250,250,0,0,1,-199.4137761215407,-150.7784662773436L-191.43722507667908,-144.74732762624984A240,240,0,0,0,-239.22991412121794,-19.21062699535582Z"/></g><g><path fill="#f4e1a1" d="M-192.9600805094384,-158.9541044760753A250,250,0,0,1,-151.6817320232429,-198.7275828123241L-145.61446274231318,-190.77847949983115A240,240,0,0,0,-185.24167728906085,-152.59594029703226Z"/></g><g><path fill="#005f56" d="M-143.27216266746555,-204.8733447879135A250,250,0,0,1,-119.20602746417583,-219.74968263051068L-114.4377863656088,-210.95969532529026A240,240,0,0,0,-137.54127616076693,-196.67841099639696Z"/></g><g><path fill="#f7a7a1" d="M-109.94897734743502,-224.52443604261256A250,250,0,0,1,-89.60202573338913,-233.39125301620254L-86.01794470405356,-224.05560289555444A240,240,0,0,0,-105.55101825353762,-215.54345860090808Z"/></g><g><path fill="#cccccc" d="M-79.80243550405143,-236.9210233128789A250,250,0,0,1,-68.67330280868744,-240.38298084795088L-65.92637069633994,-230.76766161403285A240,240,0,0,0,-76.61033808388937,-227.44418238036374Z"/></g><g><path fill="#cccccc" d="M-58.6006395395889,-243.03490499422333A250,250,0,0,1,-49.66001624916575,-245.0181274643421L-47.673615599199124,-235.2174023657684A240,240,0,0,0,-56.25661395800534,-233.3135087944544Z"/></g><g><path fill="#cccccc" d="M-39.41077995039306,-246.87403756511478A250,250,0,0,1,-35.29462478768349,-247.4960392836553L-33.88283979617615,-237.59619771230908A240,240,0,0,0,-37.83434875237733,-236.9990760625102Z"/></g><g><path fill="#cccccc" d="M-24.95464018889605,-248.7514139317458A250,250,0,0,1,-21.915283667732997,-249.03758821062092L-21.03867232102368,-239.07608468219607A240,240,0,0,0,-23.95645458134021,-238.80135737447597Z"/></g><g><path fill="#cccccc" d="M-11.522698778678496,-249.73431364723558A250,250,0,0,1,-10.413652846506002,-249.7830175059795L-9.997106732645761,-239.79169680574032A240,240,0,0,0,-11.061790827531356,-239.74494110134617Z"/></g></g><g fill-opacity="0.7"><path fill="#b5dba5" d="M145.05645204058123,-189.94637591014617Q0,0,-20.629640649151185,-214.00798566101892L-22.548676988607106,-233.91570525739277L-20.629640649151185,-214.00798566101892Q0,0,145.05645204058123,-189.94637591014617Z"/><path fill="#c04e3f" d="M-228.589612397755,69.76954280948202Q0,0,-33.77542027702493,-212.33045232634515L-36.917319837678406,-232.0821223101912L-33.77542027702493,-212.33045232634515Q0,0,-228.589612397755,69.76954280948202Z"/><path fill="#c04e3f" d="M-228.6669237979539,69.51573894292385Q0,0,-20.867201523559135,-213.98495250969208L-22.808336549006498,-233.89052948733783L-20.867201523559135,-213.98495250969208Q0,0,-228.6669237979539,69.51573894292385Z"/><path fill="#f4a988" d="M-26.635165891366956,237.5111953949526Q0,0,-21.104736682128095,-213.96165565254452L-23.067968001395826,-233.8650654806882L-21.104736682128095,-213.96165565254452Q0,0,-26.635165891366956,237.5111953949526Z"/><path fill="#cb7729" d="M-229.8051424593331,-65.65513307613968Q0,0,-9.79030881185539,-214.77697700956801L-10.701035212958217,-234.75623068487667L-9.79030881185539,-214.77697700956801Q0,0,-229.8051424593331,-65.65513307613968Z"/><path fill="#cccccc" d="M-75.1587131369135,-226.8747844948908Q0,0,-206.79391386065996,-58.83262012004864L-226.0305570104888,-64.30542199168107L-206.79391386065996,-58.83262012004864Q0,0,-75.1587131369135,-226.8747844948908Z"/><path fill="#cccccc" d="M-74.90680960673146,-226.9580795533415Q0,0,-88.18312689411219,-196.08349275545075L-96.3862084656575,-214.32381766293454L-88.18312689411219,-196.08349275545075Q0,0,-74.90680960673146,-226.9580795533415Z"/><path fill="#cccccc" d="M-74.65481376462952,-227.0410949184497Q0,0,-49.816293384689374,-209.14907820358798L-54.45036718791629,-228.6048064085729L-49.816293384689374,-209.14907820358798Q0,0,-74.65481376462952,-227.0410949184497Z"/><path fill="#cccccc" d="M-74.40272592115731,-227.1238304879106Q0,0,-21.342245832130747,-213.93809511828624L-23.327571025817328,-233.8393132688245L-21.342245832130747,-213.93809511828624Q0,0,-74.40272592115731,-227.1238304879106Z"/><path fill="#cccccc" d="M-10.618131396559267,-238.76401589361282Q0,0,-205.56520564067068,62.99163619012268L-224.68755035143076,68.85132327757596L-205.56520564067068,62.99163619012268Q0,0,-10.618131396559267,-238.76401589361282Z"/><path fill="#b5dba5" d="M145.37254448227318,-189.7045685025785Q0,0,-115.67413462808676,-181.23050123542464L-126.43451924465296,-198.08915251313857L-115.67413462808676,-181.23050123542464Q0,0,145.37254448227318,-189.7045685025785Z"/><path fill="#b5dba5" d="M145.79337389197454,-189.3813404989914Q0,0,-67.9511500154096,-203.97951174464384L-74.27218722614536,-222.95435004647118L-67.9511500154096,-203.97951174464384Q0,0,145.79337389197454,-189.3813404989914Z"/><path fill="#b5dba5" d="M146.21348462404893,-189.05717895412755Q0,0,-50.164493685966136,-209.06583549980294L-54.830958214893215,-228.513820197459L-50.164493685966136,-209.06583549980294Q0,0,146.21348462404893,-189.05717895412755Z"/><path fill="#339999" d="M171.4091637153509,166.55299034963025Q0,0,-153.3347646772385,-150.70982032162303L-167.59846371698163,-164.72933849107633L-153.3347646772385,-150.70982032162303Q0,0,171.4091637153509,166.55299034963025Z"/><path fill="#f4e1a1" d="M-170.07882113697366,-167.9112700227633Q0,0,-153.6689971655151,-150.36901047138971L-167.9637875995165,-164.35682539896084L-153.6689971655151,-150.36901047138971Q0,0,-170.07882113697366,-167.9112700227633Z"/><path fill="#f4e1a1" d="M-169.70560035807847,-168.28847021440345Q0,0,-88.50951754540304,-195.93638075630568L-96.74296103799868,-214.1630208266597L-88.50951754540304,-195.93638075630568Q0,0,-169.70560035807847,-168.28847021440345Z"/><path fill="#f7a7a1" d="M-97.66372801438614,-218.13481205514174Q0,0,-154.0024721538637,-150.0274593882681L-168.3282835170138,-163.9835021220605L-154.0024721538637,-150.0274593882681Q0,0,-97.66372801438614,-218.13481205514174Z"/><path fill="#cccccc" d="M-74.02442233298305,-227.247409002321Q0,0,-154.33518799844404,-149.68516875590893L-168.6919496727179,-163.60937050064467L-154.33518799844404,-149.68516875590893Q0,0,-74.02442233298305,-227.247409002321Z"/><path fill="#cccccc" d="M-73.51969844441356,-227.41120012137154Q0,0,-68.40386389912892,-203.82814183441266L-74.76701402928046,-222.78889921435803L-68.40386389912892,-203.82814183441266Q0,0,-73.51969844441356,-227.41120012137154Z"/><path fill="#cccccc" d="M-37.152612858417136,-236.0946491511245Q0,0,-205.46002868244074,63.33385045779731L-224.57258949010964,69.22537143061567L-205.46002868244074,63.33385045779731Q0,0,-37.152612858417136,-236.0946491511245Z"/><path fill="#cccccc" d="M-22.536312422429358,-237.93510590578822Q0,0,154.52880055768503,149.48528288163757L168.90357270258596,163.39089059155734L154.52880055768503,149.48528288163757Q0,0,-22.536312422429358,-237.93510590578822Z"/><path fill="#cccccc" d="M-22.007986295514108,-237.98455525352156Q0,0,-205.31890658862773,63.789862809464985L-224.41833975966284,69.72380353592685L-205.31890658862773,63.789862809464985Q0,0,-22.007986295514108,-237.98455525352156Z"/><path fill="#cccccc" d="M-10.220533318720364,-238.78136589499803Q0,0,-206.8915936430393,-58.48819094350152L-226.13732328425226,-63.92895289173422L-206.8915936430393,-58.48819094350152Q0,0,-10.220533318720364,-238.78136589499803Z"/><path fill="#c04e3f" d="M-228.82070110567827,69.00787451810008Q0,0,-89.05295614112896,-195.68998697564004L-97.33695206123397,-213.89370669430423L-89.05295614112896,-195.68998697564004Q0,0,-228.82070110567827,69.00787451810008Z"/><path fill="#cb7729" d="M-229.6588065812646,-66.16519145040917Q0,0,-116.17665559113989,-180.9087745126191L-126.98378634380407,-197.7374977230953L-116.17665559113989,-180.9087745126191Q0,0,-229.6588065812646,-66.16519145040917Z"/><path fill="#cb7729" d="M-229.43718032974886,-66.9296666832751Q0,0,-89.7041766921043,-195.39232503860464L-98.048751268114,-213.5683552747539L-89.7041766921043,-195.39232503860464Q0,0,-229.43718032974886,-66.9296666832751Z"/><path fill="#cccccc" d="M-72.88828423650908,-227.61436251049244Q0,0,130.1104164721395,-171.1615597190164L142.21371102768734,-187.08356527427372L130.1104164721395,-171.1615597190164Q0,0,-72.88828423650908,-227.61436251049244Z"/><path fill="#cccccc" d="M-21.34742638264417,-238.0447172000202Q0,0,-23.486070003093058,213.7133699977842L-25.670820701055202,233.59368348595018L-23.486070003093058,213.7133699977842Q0,0,-21.34742638264417,-238.0447172000202Z"/><path fill="#339999" d="M170.87641210100128,167.09952659265312A239,239,0,0,1,170.83065446145338,167.14630566145192Q0,0,-90.48937610365844,-195.0299279915025L-98.87780867041468,-213.1857850620835L-90.43597423619781,-195.05469633912887Q0,0,170.87641210100128,167.09952659265312Z"/><path fill="#c04e3f" d="M-229.07776938455217,68.14965571298157A239,239,0,0,1,-229.09641992285532,68.086932509335Q0,0,-154.85325447947497,-149.14915211664788L-169.23588918257687,-163.04666145794755L-154.81241218690587,-149.19154477674516Q0,0,-229.07776938455217,68.14965571298157Z"/><path fill="#cccccc" d="M-54.763574641626704,-232.64124933569065A239,239,0,0,1,-54.699876272038665,-232.6562346807488Q0,0,129.42090210504637,-171.68351725869317L141.48574396136536,-187.6347096240431L129.4679035685419,-171.6480758574553Q0,0,-54.763574641626704,-232.64124933569065Z"/><path fill="#c04e3f" d="M-229.37812597277633,67.13177582350363A239,239,0,0,1,-229.470810763755,66.81427248294294Q0,0,-117.1036210062784,-180.31012713438452L-127.86057758504509,-197.1716833108108L-116.85397558631624,-180.47201553058747Q0,0,-229.37812597277633,67.13177582350363Z"/><path fill="#005f56" d="M-127.94258652076178,-201.8704895579772A239,239,0,0,1,-127.66309308517012,-202.04735747820902Q0,0,-207.1571468639591,-57.540563980413744L-226.38400561515925,-63.049837443371295L-207.07731743367378,-57.82719606269618Q0,0,-127.94258652076178,-201.8704895579772Z"/><path fill="#f7a7a1" d="M-96.96662879092972,-218.4455833861652A239,239,0,0,1,-96.66422655309269,-218.57956744602723Q0,0,-207.47333751841825,-56.389841451883015L-226.73047959005345,-61.79231040238221L-207.39510028362972,-56.67691221602644Q0,0,-96.96662879092972,-218.4455833861652Z"/><path fill="#cccccc" d="M-36.398468456652004,-236.21209006740133A239,239,0,0,1,-36.07153694414884,-236.26223613283378Q0,0,155.21142743486155,148.77638520152556L169.53713599287545,162.73340013449376L155.00538543462966,148.99104163090445Q0,0,-36.398468456652004,-236.21209006740133Z"/><path fill="#b5dba5" d="M146.81648252154636,-188.58929041703422A239,239,0,0,1,147.28637235741354,-188.22253987711815Q0,0,-91.786393996538,-194.42288413947648L-100.05958392337651,-212.63367481441122L-91.3012129553604,-194.6511970496969Q0,0,146.81648252154636,-188.58929041703422Z"/><path fill="#f4a988" d="M-27.261719908645226,237.44009481893022A239,239,0,0,1,-27.85381670858138,237.37136494270902Q0,0,-118.30200516149257,-179.52614175871486L-129.0620455155431,-196.38734278803173L-117.8538945057784,-179.82063160221873Q0,0,-27.261719908645226,237.44009481893022Z"/><path fill="#f7a7a1" d="M-95.75264189269059,-218.98043650191713A239,239,0,0,1,-95.20620136105286,-219.21856495835078Q0,0,128.27450824609662,-172.5417356300269L140.44208857433912,-188.41714294850533L128.7044327426339,-172.2212791509714Q0,0,-95.75264189269059,-218.98043650191713Z"/><path fill="#cccccc" d="M-72.03456012703512,-227.88598497341727A239,239,0,0,1,-71.21276024184229,-228.14412720632956Q0,0,156.3628426192586,147.56578684784955L170.6172847070263,161.600563610408L155.82997992670323,148.12838133201643Q0,0,-72.03456012703512,-227.88598497341727Z"/><path fill="#cccccc" d="M-35.08680068818702,-236.41048288404522A239,239,0,0,1,-34.234517327958635,-236.5354050101627Q0,0,126.92985971649324,-173.53331297578384L139.07887274111047,-189.42562434122266L127.55447293547174,-173.07471344524598Q0,0,-35.08680068818702,-236.41048288404522Z"/><path fill="#339999" d="M170.13273063352491,167.85664707475976A239,239,0,0,1,169.33952327238268,168.6568286725508Q0,0,-119.89167731944156,-178.46844457643178L-130.58422221012552,-195.37850677537833L-119.0490016620874,-179.0316597791025Q0,0,170.13273063352491,167.85664707475976Z"/><path fill="#005f56" d="M-126.82012334665592,-202.57753161280988A239,239,0,0,1,-125.86371463281569,-203.1731412830671Q0,0,125.3837379689425,-174.6537095309904L137.49693774810865,-190.57699785098077L126.20570451782852,-174.06067949757795Q0,0,-126.82012334665592,-202.57753161280988Z"/><path fill="#005f56" d="M-125.01606976160272,-203.69580825672892A239,239,0,0,1,-124.05440926803922,-204.28290075568688Q0,0,157.66718002693239,146.171338990771L171.956820571954,160.17444196495524L156.97634097097963,146.912995937605Q0,0,-125.01606976160272,-203.69580825672892Z"/><path fill="#cccccc" d="M-70.2615442969666,-228.43886576720126A239,239,0,0,1,-69.18384748411705,-228.76755724379808Q0,0,-204.8080607605239,65.41145348877026L-224.02787725090354,70.96837474857445L-205.11415032395456,64.44521190035898Q0,0,-70.2615442969666,-228.43886576720126Z"/><path fill="#cccccc" d="M-53.73000327455161,-232.8821305899546A239,239,0,0,1,-52.63154353688928,-233.13283901013284Q0,0,158.9590821724457,144.765362552282L173.37251808930444,158.6410097401482L158.27485687370387,145.5131254616179Q0,0,-53.73000327455161,-232.8821305899546Z"/><path fill="#cccccc" d="M-51.65970264802713,-233.35011275402766A239,239,0,0,1,-50.55905973465237,-233.59105607610033Q0,0,-204.2190774811415,67.22773529393592L-223.38878607728932,72.95512493934245L-204.53373598109766,66.2642501324404Q0,0,-51.65970264802713,-233.35011275402766Z"/><path fill="#f7a7a1" d="M-94.2919668751704,-219.61335338000686A239,239,0,0,1,-92.76680519498967,-220.26193464580948Q0,0,-203.46020372321328,69.49061448072356L-222.6487511632451,75.18333329566711L-203.93718999545283,68.07806208139728Q0,0,-94.2919668751704,-219.61335338000686Z"/><path fill="#cccccc" d="M-49.58532760382452,-233.79969051823272A239,239,0,0,1,-47.962866591143694,-234.1379154010733Q0,0,-21.201673800852053,213.9520718012384L-23.984612857563366,233.7728349190145L-22.684800821043634,213.7999060142674Q0,0,-49.58532760382452,-233.79969051823272Z"/><path fill="#c04e3f" d="M-229.74721082899384,65.85756688716835A239,239,0,0,1,-230.26956924313302,64.00722990867492Q0,0,-208.14644364436288,-53.852186568458585L-227.27030415705443,-59.77632347643974L-207.70649353005356,-55.52488221914394Q0,0,-229.74721082899384,65.85756688716835Z"/><path fill="#f4a988" d="M-28.842619414431468,237.25324719656476A239,239,0,0,1,-30.750274573285022,237.01354521138148Q0,0,-156.66296491847675,-147.24712364916377L-170.5875128072855,-161.63199087502514L-155.47336327143785,-148.5026373943154Q0,0,-28.842619414431468,237.25324719656476Z"/><path fill="#f4a988" d="M-31.737561225074867,236.88336203179114A239,239,0,0,1,-33.64214716182606,236.6203835985861Q0,0,-94.15364266204034,-193.28758773772518L-102.06150756041006,-211.6800620618209L-92.59569024735563,-194.03875424155808Q0,0,-31.737561225074867,236.88336203179114Z"/><path fill="#339999" d="M168.63531856061437,169.36094394505514A239,239,0,0,1,167.07782128450978,170.89763495970743Q0,0,-208.8453398514365,-51.07469062400663L-228.01488784909412,-56.870123256108954L-208.36902028165204,-52.98444476319892Q0,0,168.63531856061437,169.36094394505514Z"/><path fill="#005f56" d="M-123.20215611815634,-204.79801934549423A239,239,0,0,1,-121.32215062875875,-205.9173032234367Q0,0,-18.34973814040631,214.21551556826716L-21.128231633359142,234.04828097648382L-20.310025372446418,214.0385546329693Q0,0,-123.20215611815634,-204.79801934549423Z"/><path fill="#f7a7a1" d="M-91.84824452327199,-220.6465498891683A239,239,0,0,1,-89.82446602452647,-221.4781373034564Q0,0,-15.494546194526562,214.4409453397967L-18.008600988187233,234.30896331649L-17.457016789164335,214.29011308229514Q0,0,-91.84824452327199,-220.6465498891683Z"/><path fill="#cccccc" d="M-68.23005153366597,-229.05383661426256A239,239,0,0,1,-66.13029743575993,-229.66885675044824Q0,0,-12.63660463638022,214.62832111178574L-14.885774594681699,234.52806594247164L-14.600910339904189,214.5036442982871Q0,0,-68.23005153366597,-229.05383661426256Z"/><path fill="#f4e1a1" d="M-169.16731527313354,-168.82955737453153A239,239,0,0,1,-167.23598414899163,-170.7428639964734Q0,0,-209.61386940343888,-47.82285806722627L-228.8118370846376,-53.573717529711054L-209.05633755564492,-50.20406086981657Q0,0,-169.16731527313354,-168.82955737453153Z"/><path fill="#005f56" d="M-120.46311120578702,-206.42102324768715A239,239,0,0,1,-117.87660874157804,-207.90888656232306Q0,0,-202.27491071409517,72.86878958514974L-221.58407130980882,78.2655693250203L-203.16889418896457,70.33775966032272Q0,0,-120.46311120578702,-206.42102324768715Z"/><path fill="#005f56" d="M-117.00930098787995,-208.39823291555933A239,239,0,0,1,-114.39838274603115,-209.84282219102124Q0,0,-122.84672802527616,-176.44738993106083L-133.0677800504599,-193.69554954216792L-120.63425296197796,-177.96734816337943Q0,0,-117.00930098787995,-208.39823291555933Z"/><path fill="#f7a7a1" d="M-88.90086339749986,-221.85048227844595A239,239,0,0,1,-86.12418795076562,-222.9430964390268Q0,0,161.34752779661179,142.09847034335587L175.3835988648544,156.414811476445L159.5608895865956,144.1017783177371Q0,0,-88.90086339749986,-221.85048227844595Z"/><path fill="#cb7729" d="M-229.18468265243226,-67.7892413108741A239,239,0,0,1,-228.0045415227693,-71.65841921918019Q0,0,-159.73365341612035,-143.9102496917393L-173.2551919673325,-158.7691357171247L-157.27513290548728,-146.59308499912711Q0,0,-229.18468265243226,-67.7892413108741Z"/><path fill="#f4e1a1" d="M-166.5231059083854,-171.43819644007186A239,239,0,0,1,-163.01655077909845,-174.77586839173657Q0,0,-200.43512470039016,77.78663629659694L-219.93010566361872,82.79944820341203L-201.96953577995995,73.71096673377359Q0,0,-166.5231059083854,-171.43819644007186Z"/><path fill="#f4a988" d="M-34.62777054194499,236.47815439759844A239,239,0,0,1,-39.67207372311614,235.6843791313027Q0,0,-210.76645992312643,-42.45585202858547L-229.863758984994,-48.863609212670525L-209.81131117327868,-46.949054343507505Q0,0,-34.62777054194499,236.47815439759844Z"/><path fill="#f4e1a1" d="M-162.28690502910788,-175.4535849051632A239,239,0,0,1,-158.50140869252232,-178.88069611471778Q0,0,-7.153048839386892,214.88097610607912L-10.327069521365274,234.772978928796L-11.742212860118197,214.67911038838332Q0,0,-162.28690502910788,-175.4535849051632Z"/><path fill="#f4e1a1" d="M-157.75469873706015,-179.53956395841948A239,239,0,0,1,-153.27307324896415,-183.3803834024176Q0,0,120.29118290614556,-178.19941446323617L133.87610416467126,-193.13774549189003L124.65492788598192,-175.17462417182648Q0,0,-157.75469873706015,-179.53956395841948Z"/><path fill="#b5dba5" d="M148.0693521452762,-187.607214560843A239,239,0,0,1,155.09304190614048,-181.84374708056404Q0,0,-165.66051654859064,-137.0459530845553L-178.19083391442123,-153.20909473292747L-160.3318911466285,-143.24344550919486Q0,0,148.0693521452762,-187.607214560843Z"/><path fill="#f4e1a1" d="M-152.50766003551016,-184.01742751840996A239,239,0,0,1,-145.40321994352894,-189.68105764691887Q0,0,167.19654902236522,135.16772541924283L179.90847164612464,151.1884315348088L161.93820245903913,141.42495743091195Q0,0,-152.50766003551016,-184.01742751840996Z"/><path fill="#cb7729" d="M-227.70398643673315,-72.60781335930758A239,239,0,0,1,-224.50802734045132,-81.95819458540537Q0,0,2.6312355110934664,214.98389846610644L-1.9823023632317327,234.9916391647599L-6.257651937269941,214.90891510645153Q0,0,-227.70398643673315,-72.60781335930758Z"/><path fill="#cb7729" d="M-224.16458699954163,-82.89293055095195A239,239,0,0,1,-220.031966737329,-93.3109511992186Q0,0,-212.65879495651583,-31.64232810086135L-231.56616559655822,-40.026378188731655L-210.9415292274,-41.57729244679067Q0,0,-224.16458699954163,-82.89293055095195Z"/><path fill="#339999" d="M166.36429953969554,171.5923070497814A239,239,0,0,1,157.13976463965338,180.07802300390335Q0,0,14.79202586206534,214.49054984053723L10.01499131600266,234.78649865130743L3.5269763222353343,214.97106883955897Q0,0,166.36429953969554,171.5923070497814Z"/><path fill="#cb7729" d="M-219.64126223537068,-94.22693841812506A239,239,0,0,1,-214.39935807435992,-105.61209806315937Q0,0,-195.71236875919652,89.00375674466935L-216.39553741673052,91.6404462348606L-200.10927476792327,78.62110500276488Q0,0,-219.64126223537068,-94.22693841812506Z"/><path fill="#c04e3f" d="M-230.53426639783103,63.04722052885344A239,239,0,0,1,-233.91079396161427,49.0585412364374Q0,0,108.5761779194117,-185.56996952204375L124.72885706131969,-199.1675481000278L119.5476433015253,-178.69907940739725Q0,0,-230.53426639783103,63.04722052885344Z"/><path fill="#b5dba5" d="M155.84937570145826,-181.19594944000738A239,239,0,0,1,166.66217424530242,-171.30300544890756Q0,0,-214.27381317690956,-17.655961787080898L-233.50445839236755,-26.470132430478902L-212.7887916149662,-30.755977679834764Q0,0,155.84937570145826,-181.19594944000738Z"/><path fill="#c04e3f" d="M-234.11317348592968,48.083489893590105A239,239,0,0,1,-236.69424998850698,33.11845440805116Q0,0,29.271695031684423,212.99804663417L24.582096272719554,233.71076257382487L15.685605497618454,214.42705468334233Q0,0,-234.11317348592968,48.083489893590105Z"/><path fill="#339999" d="M156.38807765639797,180.731206953687A239,239,0,0,1,143.11145336171563,191.4160701631331Q0,0,-188.4426830974999,103.51016948597481L-209.8750342463018,105.72355461349964L-195.33982195618586,89.81844998732502Q0,0,156.38807765639797,180.731206953687Z"/><path fill="#cb7729" d="M-213.9574478362101,-106.5045093665777A239,239,0,0,1,-205.68893236824545,-121.70892777940057Q0,0,94.05742145352271,-193.33442908471943L110.39092214269208,-207.45805433505373L107.80202945017928,-186.02075810624652Q0,0,-213.9574478362101,-106.5045093665777Z"/><path fill="#339999" d="M142.3126464253511,192.01070456464922A239,239,0,0,1,127.59569951514045,202.08992420514684Q0,0,78.5429130773554,-200.1399780286862L93.95283747622025,-215.40163492918745L93.25104719374634,-193.72465562563195Q0,0,142.3126464253511,192.01070456464922Z"/><path fill="#c04e3f" d="M-236.83018851463981,32.131943733925795A239,239,0,0,1,-238.62855479095242,13.319641075547697Q0,0,-179.18175040310777,118.82297893285788L-200.83144636792133,122.03167682929192L-188.00975618777997,104.29444653581285Q0,0,-236.83018851463981,32.131943733925795Z"/><path fill="#c04e3f" d="M-238.6819817094179,12.325242685849823A239,239,0,0,1,-238.84185865285124,-8.69290257919844Q0,0,178.9240124664001,119.21072838852847L189.64935026910678,138.7736428235047L167.7582948918211,134.4699018181719Q0,0,-238.6819817094179,12.325242685849823Z"/><path fill="#b5dba5" d="M167.37448798455344,-170.6070947291131A239,239,0,0,1,184.1073536870939,-152.39908896819333Q0,0,51.99374492131634,208.61843276435832L44.95759535737819,230.65952098207924L30.158930230480955,212.87423265241142Q0,0,167.37448798455344,-170.6070947291131Z"/><path fill="#f4a988" d="M-40.65374475286937,235.5170334340354A239,239,0,0,1,-65.53786267677874,229.8386141529741Q0,0,55.88719701411045,-207.60929943021821L73.11581184861876,-223.3362443888528L77.70831712005273,-200.4655018958856Q0,0,-40.65374475286937,235.5170334340354Z"/><path fill="#f4a988" d="M-66.49495189384083,229.56354539132687A239,239,0,0,1,-90.59682030909515,221.16332460397118Q0,0,-164.91515451299315,137.941987124862L-188.0498142004432,140.9335566115423L-178.68510069523307,119.56853595128787Q0,0,-66.49495189384083,229.56354539132687Z"/><path fill="#cb7729" d="M-205.18002781157128,-122.56490601816994A239,239,0,0,1,-190.9394564861025,-143.74673546481588Q0,0,191.02925915104748,98.65506651055455L202.74361579719954,118.82771668881608L179.41916923985994,118.46417901322955Q0,0,-205.18002781157128,-122.56490601816994Z"/><path fill="#f4a988" d="M-91.51754506560259,220.78391912719866A239,239,0,0,1,-118.70885053901621,207.4348302568918Q0,0,202.27889444195213,72.85773029227292L215.60458000045173,93.48617589156596L191.43866250106035,97.85825718765439Q0,0,-91.51754506560259,220.78391912719866Z"/><path fill="#f4a988" d="M-119.572129373572,206.938410830541A239,239,0,0,1,-145.4192945228673,189.66873432506367Q0,0,79.46366132808276,199.77619109477425L72.47121681538727,223.54624294158273L52.86253454205962,208.399981866097Q0,0,-119.572129373572,206.938410830541Z"/><path fill="#339999" d="M126.7525530007899,202.61981716451615A239,239,0,0,1,98.4162145856271,217.79634686246644Q0,0,210.41216854862557,44.178267583335504L226.21750349813806,63.6446471517432L202.5807115491335,72.01427155950941Q0,0,126.7525530007899,202.61981716451615Z"/><path fill="#b5dba5" d="M184.74074990195663,-151.6306543073092A239,239,0,0,1,207.74525841996223,-118.164747721235Q0,0,-138.4966017633119,164.4496619030109L-166.10370478462855,166.23645585978116L-164.33896634328894,138.6279342023798Q0,0,184.74074990195663,-151.6306543073092Z"/><path fill="#b5dba5" d="M208.23580676918763,-117.29811924828782A239,239,0,0,1,227.7198909605185,-72.5579165972229Q0,0,214.9996717997284,-0.3756674181786107L233.8137415558438,23.582499012129375L210.59441763905278,43.30116925982736Q0,0,208.23580676918763,-117.29811924828782Z"/><path fill="#b5dba5" d="M228.020238005921,-71.60845662156909A239,239,0,0,1,238.72951309386983,-11.367478962542192Q0,0,0.44791634265298,-214.99953342030764L30.5662219058833,-233.00366108368405L55.021675638271304,-207.84035991586634Q0,0,228.020238005921,-71.60845662156909Z"/></g><g><g id="Panel/Longitudinal Surveys" transform="rotate(-46.3034013826964) translate(250,0)"><text x="8" dy="0.35em" style="font-family: Arial, sans-serif; font-size: 10px; fill: black; font-weight: bold;">Panel/Longitudinal Surveys</text></g><g id="No dataset" transform="rotate(32.79148889536786) translate(250,0)"><text x="8" dy="0.35em" style="font-family: Arial, sans-serif; font-size: 10px; fill: black; font-weight: bold;">No dataset</text></g><g id="Linked Administrative Data" transform="rotate(156.09395599939862) translate(250,0)"><text x="8" dy="0.35em" transform="rotate(180) translate(-16)" text-anchor="end" style="font-family: Arial, sans-serif; font-size: 10px; fill: black; font-weight: bold;">Linked Administrative Data</text></g><g id="Administrative/Registry Data" transform="rotate(97.89329082436828) translate(250,0)"><text x="8" dy="0.35em" transform="rotate(180) translate(-16)" text-anchor="end" style="font-family: Arial, sans-serif; font-size: 10px; fill: black; font-weight: bold;">Administrative/Registry Data</text></g><g id="National Survey Data" transform="rotate(200.8421748752155) translate(250,0)"><text x="8" dy="0.35em" transform="rotate(180) translate(-16)" text-anchor="end" style="font-family: Arial, sans-serif; font-size: 10px; fill: black; font-weight: bold;">National Survey Data</text></g><g id="Others" transform="rotate(226.06367500938433) translate(250,0)"><text x="8" dy="0.35em" transform="rotate(180) translate(-16)" text-anchor="end" style="font-family: Arial, sans-serif; font-size: 10px; fill: black; font-weight: bold;">Others</text></g><g id="Archival/Historical Data" transform="rotate(238.2779634736279) translate(250,0)"><text x="8" dy="0.35em" transform="rotate(180) translate(-16)" text-anchor="end" style="font-family: Arial, sans-serif; font-size: 10px; fill: black; font-weight: bold;">Archival/Historical Data</text></g><g id="International Panel Data" transform="rotate(246.45333780075538) translate(250,0)"><text x="8" dy="0.35em" transform="rotate(180) translate(-16)" text-anchor="end" style="font-family: Arial, sans-serif; font-size: 10px; fill: black; font-weight: bold;">International Panel Data</text></g><g id="Opportunity Atlas" transform="rotate(252.72056371664695) translate(250,0)"><text x="8" dy="0.35em" transform="rotate(180) translate(-16)" text-anchor="end" style="font-family: Arial, sans-serif; font-size: 10px; fill: black; font-weight: bold;">Opportunity Atlas</text></g><g id="Natural/Experimental Data" transform="rotate(257.4930733770703) translate(250,0)"><text x="8" dy="0.35em" transform="rotate(180) translate(-16)" text-anchor="end" style="font-family: Arial, sans-serif; font-size: 10px; fill: black; font-weight: bold;">Natural/Experimental Data</text></g><g id="University/Institution Data" transform="rotate(261.4069162524375) translate(250,0)"><text x="8" dy="0.35em" transform="rotate(180) translate(-16)" text-anchor="end" style="font-family: Arial, sans-serif; font-size: 10px; fill: black; font-weight: bold;">University/Institution Data</text></g><g id="Big Data" transform="rotate(264.6211047103515) translate(250,0)"><text x="8" dy="0.35em" transform="rotate(180) translate(-16)" text-anchor="end" style="font-family: Arial, sans-serif; font-size: 10px; fill: black; font-weight: bold;">Big Data</text></g><g id="Pseudo-Panel/Household Budget Survey" transform="rotate(267.4854659595389) translate(250,0)"><text x="8" dy="0.35em" transform="rotate(180) translate(-16)" text-anchor="end" style="font-family: Arial, sans-serif; font-size: 10px; fill: black; font-weight: bold;">Pseudo-Panel/Household Budget Survey</text></g></g></g></svg>