<?xml version="1.0" encoding="UTF-8"?>
<svg id="Layer_1" xmlns="http://www.w3.org/2000/svg" version="1.1" viewBox="0 0 805 600">
  <!-- Generator: Adobe Illustrator 29.1.0, SVG Export Plug-In . SVG Version: 2.1.0 Build 142)  -->
  <defs>
    <style>
      .st0, .st1, .st2, .st3, .st4, .st5, .st6, .st7, .st8, .st9, .st10, .st11, .st12, .st13, .st14, .st15, .st16, .st17, .st18, .st19, .st20, .st21, .st22, .st23, .st24, .st25, .st26 {
        fill-opacity: .8;
      }

      .st0, .st27 {
        fill: #dda469;
      }

      .st28, .st9 {
        fill: #588c89;
      }

      .st1, .st29 {
        fill: #e8a97e;
      }

      .st2, .st30 {
        fill: #eec498;
      }

      .st31, .st12 {
        fill: #74b0ac;
      }

      .st32, .st22 {
        fill: #8fa38b;
      }

      .st3, .st33 {
        fill: #ccc;
      }

      .st34, .st20 {
        fill: #bc4d36;
      }

      .st35, .st23 {
        fill: #9fbe99;
      }

      .st36, .st7 {
        fill: #be7830;
      }

      .st37, .st19 {
        fill: #efe09b;
      }

      .st38, .st25 {
        fill: #bd6233;
      }

      .st39, .st18 {
        fill: #e6a8a0;
      }

      .st4, .st40 {
        fill: #f2bfb8;
      }

      .st41, .st21 {
        fill: #daca7e;
      }

      .st5, .st42 {
        fill: #c98c32;
      }

      .st43, .st10 {
        fill: #a18669;
      }

      .st6, .st44 {
        fill: #cfbba4;
      }

      .st45, .st14 {
        fill: #c4d2e6;
      }

      .st8, .st46 {
        fill: #d4a134;
      }

      .st47 {
        font-family: Arial-BoldMT, Arial;
        font-size: 10px;
        font-weight: 700;
        isolation: isolate;
      }

      .st11, .st48 {
        fill: #88b58e;
      }

      .st49, .st24 {
        fill: #9aabc6;
      }

      .st13, .st50 {
        fill: #aba979;
      }

      .st51, .st17 {
        fill: #5f7089;
      }

      .st15, .st52 {
        fill: #2b6765;
      }

      .st16, .st53 {
        fill: #6f83a1;
      }

      .st54, .st26 {
        fill: #f6d4d1;
      }
    </style>
  </defs>
  <g>
    <path class="st49" d="M279.8,70.8c2-1,3.9-2.1,5.9-3.1l9,17.9c-1.8.9-3.6,1.9-5.4,2.8l-9.4-17.6Z"/>
    <path class="st33" d="M149.9,361.7c-3-12.4-5.2-25.1-6.3-37.8l19.9-1.8c1.1,11.8,3,23.4,5.8,34.9l-19.4,4.7Z"/>
    <path class="st33" d="M380.4,40.9c0,0,.2,0,.2,0l1.7,19.9c0,0-.2,0-.2,0l-1.7-19.9Z"/>
    <path class="st33" d="M342.7,47c1.4-.3,2.9-.7,4.3-1l4.3,19.5c-1.3.3-2.7.6-4,.9l-4.6-19.5Z"/>
    <path class="st45" d="M295.5,63c2-.9,4-1.8,6.1-2.7l7.8,18.4c-1.9.8-3.8,1.6-5.6,2.5l-8.2-18.2Z"/>
    <path class="st33" d="M391.4,40.2c0,0,.2,0,.2,0l.8,20c0,0-.2,0-.2,0l-.9-20Z"/>
    <path class="st33" d="M369.1,42.2c.2,0,.3,0,.5,0l2.5,19.8c-.2,0-.3,0-.5,0l-2.6-19.8Z"/>
    <path class="st53" d="M264.1,79.9c2.1-1.3,4.2-2.6,6.3-3.8l10.2,17.2c-2,1.2-3.9,2.3-5.8,3.5l-10.6-16.9Z"/>
    <path class="st44" d="M207.8,127.7c3.8-4.3,7.8-8.5,11.8-12.5l14.1,14.2c-3.8,3.7-7.4,7.6-10.9,11.6l-15-13.3Z"/>
    <path class="st51" d="M248,90.9c2.3-1.7,4.6-3.4,7-5l11.3,16.5c-2.2,1.5-4.3,3-6.5,4.6l-11.9-16.1Z"/>
    <path class="st31" d="M200.5,463.7c-9.9-12.3-18.7-25.4-26.3-39.2l17.6-9.6c7,12.8,15.1,24.9,24.2,36.2l-15.5,12.6Z"/>
    <path class="st33" d="M311.6,56.4c1.8-.7,3.5-1.3,5.3-1.9l6.6,18.9c-1.6.6-3.3,1.2-4.9,1.8l-7-18.7Z"/>
    <path class="st52" d="M299.3,538.7c-16.6-7.2-32.4-16-47.1-26.5l11.6-16.3c13.6,9.6,28.2,17.8,43.5,24.5l-7.9,18.4Z"/>
    <path class="st50" d="M154.3,222.4c3-9.7,6.6-19.2,10.8-28.5l18.3,8.2c-3.8,8.6-7.2,17.4-10,26.3l-19.1-6Z"/>
    <path class="st35" d="M144.7,266.1c1.5-11.2,3.7-22.4,6.6-33.3l19.3,5.2c-2.7,10.1-4.7,20.4-6.1,30.7l-19.8-2.6Z"/>
    <path class="st43" d="M227.5,107.8c3.9-3.5,7.9-7,12-10.2l12.5,15.6c-3.8,3-7.5,6.2-11,9.5l-13.5-14.8Z"/>
    <path class="st32" d="M142.8,313.1c-.6-12.1-.4-24.1.7-36.2l19.9,1.8c-1,11.1-1.2,22.2-.6,33.4l-20,1Z"/>
    <path class="st37" d="M189.3,151.1c3.6-5.2,7.4-10.2,11.4-15.1l15.5,12.6c-3.7,4.5-7.2,9.2-10.5,14l-16.4-11.5Z"/>
    <path class="st39" d="M503.9,539.4c-18.4,7.8-37.6,13.4-57.3,16.8l-3.4-19.7c18.2-3.1,35.9-8.3,52.9-15.5l7.8,18.4Z"/>
    <path class="st41" d="M169.8,184.1c4.1-8.2,8.6-16.2,13.6-24l16.9,10.8c-4.6,7.2-8.7,14.5-12.5,22.1l-17.9-8.9Z"/>
    <path class="st27" d="M651.1,376.2c-6.4,21.1-15.5,41.2-27.1,60l-17-10.5c10.6-17.3,19-35.9,25-55.4l19.1,5.9Z"/>
    <path class="st34" d="M402.5,40c37.9,0,75.3,8.3,109.7,24.3l-8.4,18.1c-31.7-14.8-66.3-22.4-101.3-22.4v-20Z"/>
    <path class="st48" d="M169.2,414.8c-6.7-13.7-12.3-28-16.5-42.6l19.2-5.6c3.9,13.5,9,26.7,15.2,39.4l-17.9,8.8Z"/>
    <path class="st30" d="M567.1,501.3c-16.3,13.4-34.3,24.7-53.3,33.7l-8.6-18.1c17.6-8.3,34.1-18.8,49.2-31.1l12.7,15.5Z"/>
    <path class="st28" d="M243.5,505.7c-13.1-10.1-25.1-21.4-36-33.8l15-13.2c10.1,11.4,21.2,21.9,33.3,31.2l-12.2,15.8Z"/>
    <path class="st54" d="M366,557.4c-19.4-2.7-38.3-7.7-56.6-14.7l7.2-18.7c16.8,6.5,34.4,11,52.2,13.5l-2.8,19.8Z"/>
    <path class="st38" d="M521.9,69c28.5,14.7,54,34.6,75.3,58.7l-15,13.3c-19.6-22.2-43.2-40.5-69.5-54.2l9.2-17.8Z"/>
    <path class="st33" d="M357.7,43.9c.2,0,.5,0,.7-.1l3.4,19.7c-.2,0-.4,0-.7.1l-3.4-19.7Z"/>
    <path class="st46" d="M662.5,297.3c.2,23.1-2.6,46.1-8.4,68.5l-19.4-5.1c5.4-20.6,8-41.9,7.8-63.2l20-.2Z"/>
    <path class="st40" d="M435.9,557.8c-19.6,2.5-39.5,2.8-59.2.9l2-19.9c18.2,1.8,36.5,1.5,54.6-.8l2.6,19.8Z"/>
    <path class="st36" d="M604.2,136c16.1,19.8,29.2,41.9,38.9,65.6l-18.5,7.6c-8.9-21.8-21-42.2-35.9-60.6l15.5-12.6Z"/>
    <path class="st29" d="M618.2,445.2c-12.2,18.1-26.5,34.5-42.8,49l-13.3-14.9c15-13.4,28.3-28.6,39.5-45.2l16.6,11.2Z"/>
    <path class="st42" d="M647,211.7c8.7,24,13.8,49.2,15.1,74.8l-20,1c-1.2-23.6-5.9-46.8-13.9-69l18.8-6.8Z"/>
    <path class="st33" d="M327.3,51.1c1.6-.5,3.3-1,5-1.4l5.4,19.3c-1.5.4-3.1.9-4.6,1.3l-5.8-19.1Z"/>
  </g>
  <g>
    <path class="st24" d="M290.3,90.1c74.8,139.9,39.3,227.3-106.6,262.1l-9.7,2.3,9.7-2.3c145.9-34.8,181.4-122.2,106.6-262.1Z"/>
    <path class="st3" d="M382.4,62.9c13.4,158.1-52.8,254.6-198.6,289.6l-9.7,2.3,9.7-2.3c145.9-35,212.1-131.5,198.6-289.6Z"/>
    <path class="st3" d="M347.9,68.4c36.4,154.4,20.2,165-48.6,31.7l-4.6-8.9,4.6,8.9c68.8,133.3,85.1,122.7,48.6-31.7Z"/>
    <path class="st14" d="M305,82.9c65,144.8,63,150.5-6,17.3l-4.6-8.9,4.6,8.9c69,133.2,71,127.4,6-17.3Z"/>
    <path class="st3" d="M392.5,62.2c6.7,158.5-62.9,255.3-208.7,290.5l-9.7,2.3,9.7-2.3c145.8-35.1,215.4-131.9,208.7-290.5Z"/>
    <path class="st3" d="M372,64c20.3,157.4-42.4,253.7-188.2,288.9l-9.7,2.4,9.7-2.4c145.8-35.3,208.5-131.6,188.2-288.9Z"/>
    <path class="st16" d="M277.8,97.3c83.1,135.1,85.7,138.7,7.5,10.6l-5.2-8.5,5.2,8.5c78.1,128.1,75.6,124.5-7.5-10.6Z"/>
    <path class="st6" d="M224.3,142.2c118.8,105.2,143.6,91.2,74.5-41.9l-4.6-8.9,4.6,8.9c69.1,133.1,44.2,147.1-74.5,41.9Z"/>
    <path class="st6" d="M224.5,142.1c118.7,105.3,161.4,84.8,128.3-61.5l-2.2-9.8,2.2,9.8c33.2,146.3-9.6,166.8-128.3,61.5Z"/>
    <path class="st6" d="M224.6,141.9c118.6,105.4,147.7,89.5,87.3-47.8l-4-9.2,4,9.2c60.4,137.3,31.3,153.3-87.3,47.8Z"/>
    <path class="st17" d="M261.2,108.5c94.2,127.7,106.7,124.9,37.5-8.1l-4.6-8.9,4.6,8.9c69.2,133.1,56.7,135.8-37.5,8.1Z"/>
    <path class="st17" d="M261.3,108.4c94.1,127.7,110.9,123,50.4-14.3l-4-9.2,4,9.2c60.5,137.3,43.7,142-50.4,14.3Z"/>
    <path class="st17" d="M261.5,108.2c94,127.8,97,131,8.9,9.6l-5.9-8.1,5.9,8.1c88,121.4,85.1,118.2-8.9-9.6Z"/>
    <path class="st12" d="M216.2,448.1c124.2-98.8,169.6-221.3,136.3-367.5l-2.2-9.8,2.2,9.8c33.3,146.3-12.1,268.8-136.3,367.5Z"/>
    <path class="st12" d="M216.1,448c124.3-98.6,142.3-208.6,54.2-330l-5.9-8.1,5.9,8.1c88.2,121.4,70.1,231.4-54.2,330Z"/>
    <path class="st15" d="M304,516.7c65.6-144.5,63.8-283.2-5.6-416.2l-4.6-8.9,4.6,8.9c69.3,133,71.2,271.7,5.6,416.2Z"/>
    <path class="st15" d="M303.8,516.6c65.8-144.4,54.5-277.2-33.8-398.5l-5.9-8.1,5.9,8.1c88.3,121.3,99.5,254.1,33.8,398.5Z"/>
    <path class="st15" d="M303.6,516.5c65.9-144.3,73.2-287,21.9-427.9l-3.4-9.4,3.4,9.4c51.3,141,44,283.6-21.9,427.9Z"/>
    <path class="st15" d="M303.4,516.4c66-144.3,67.8-148.2,5.2-11.9l-4.2,9.1,4.2-9.1c62.6-136.3,60.8-132.4-5.2,11.9Z"/>
    <path class="st13" d="M177.3,222.9c150.1,51.4,190.4,10.6,121-122.3l-4.6-8.9,4.6,8.9c69.5,132.9,29.1,173.7-121,122.3Z"/>
    <path class="st13" d="M177.4,222.7c150.1,51.5,208.4,4.2,174.9-142l-2.2-9.7,2.2,9.7c33.5,146.2-24.9,193.6-174.9,142Z"/>
    <path class="st13" d="M177.5,222.5c150,51.7,199.3,7.1,147.9-133.8l-3.4-9.4,3.4,9.4c51.4,140.9,2.1,185.5-147.9,133.8Z"/>
    <path class="st13" d="M177.6,222.3c150,51.8,154.1,53.1,12.4,3.8l-9.4-3.3,9.4,3.3c141.7,49.3,137.5,48-12.4-3.8Z"/>
    <path class="st10" d="M247.4,119.5c103.4,120.4,82.2,198.2-63.6,233.6l-9.7,2.4,9.7-2.4c145.8-35.4,167-113.3,63.6-233.6Z"/>
    <path class="st10" d="M247.6,119.3c103.3,120.5,138.1,107.6,104.5-38.6l-2.2-9.7,2.2,9.7c33.6,146.2-1.3,159.1-104.5,38.6Z"/>
    <path class="st10" d="M247.8,119.2c103.2,120.6,106.2,123.7,9.1,9.3l-6.5-7.6,6.5,7.6c97.1,114.3,94.1,111.2-9.1-9.3Z"/>
    <path class="st22" d="M164.6,308.2c158.6-5.5,203.1-74.7,133.5-207.6l-4.6-8.9,4.6,8.9c69.6,132.9,25.1,202.1-133.5,207.6Z"/>
    <path class="st22" d="M164.6,308c158.6-5.3,198.7-72,120.5-200l-5.2-8.5,5.2,8.5c78.2,128,38.1,194.6-120.5,200Z"/>
    <path class="st22" d="M164.6,307.8c158.6-5.2,181.9-57.7,70-157.6l-7.5-6.7,7.5,6.7c111.9,99.9,88.6,152.4-70,157.6Z"/>
    <path class="st22" d="M164.6,307.6c158.6-5,193.7-68.2,105.3-189.3l-5.9-8.1,5.9,8.1c88.4,121.2,53.3,184.3-105.3,189.3Z"/>
    <path class="st19" d="M210.6,159.2c127.9,93.8,143.3,83.6,46.1-30.6l-6.5-7.6,6.5,7.6c97.2,114.2,81.8,124.4-46.1,30.6Z"/>
    <path class="st18" d="M476,526.4c-49-150.9-103.8-295-164.5-432.2l-4-9.1,4,9.1c60.6,137.2,115.5,281.3,164.5,432.2Z"/>
    <path class="st21" d="M194.1,185c138.9,76.6,173.5,48.6,103.8-84.3l-4.6-8.9,4.6,8.9c69.7,132.8,35.1,160.9-103.8,84.3Z"/>
    <path class="st21" d="M194.2,184.8c138.9,76.8,169.1,51.2,90.7-76.7l-5.2-8.5,5.2,8.5c78.4,127.9,48.1,153.5-90.7,76.7Z"/>
    <path class="st21" d="M194.3,184.6c138.8,76.9,147.9,70.7,27.4-18.6l-8-6,8,6c120.5,89.3,111.4,95.5-27.4,18.6Z"/>
    <path class="st0" d="M623.9,387.3c-147.6-58.2-238.3-160.3-272-306.5l-2.2-9.7,2.2,9.7c33.7,146.2,124.4,248.3,272,306.5Z"/>
    <path class="st0" d="M623.8,387.5c-147.6-58.3-265.6-148-354.1-269.1l-5.9-8.1,5.9,8.1c88.5,121.1,206.5,210.8,354.1,269.1Z"/>
    <path class="st20" d="M428.3,63.4c-17.2,157.7-60.7,170.2-130.5,37.5l-4.7-8.8,4.7,8.8c69.8,132.7,113.4,120.3,130.5-37.5Z"/>
    <path class="st20" d="M428.5,63.4c-17.3,157.7-70.3,176.1-158.9,55l-5.9-8.1,5.9,8.1c88.6,121,141.6,102.7,158.9-55Z"/>
    <path class="st20" d="M428.7,63.4c-17.5,157.7-74.9,179.5-172.2,65.3l-6.5-7.6,6.5,7.6c97.3,114.2,154.7,92.4,172.2-65.3Z"/>
    <path class="st11" d="M177.8,378.4c149.8-52.3,189.7-144.8,119.8-277.4l-4.7-8.8,4.7,8.8c70,132.7,30.1,225.2-119.8,277.4Z"/>
    <path class="st11" d="M177.7,378.2c149.9-52.1,199-148.6,147.5-289.5l-3.4-9.4,3.4,9.4c51.6,140.9,2.4,237.4-147.5,289.5Z"/>
    <path class="st11" d="M177.6,378c149.9-52,154-53.5,12.2-4.5l-9.5,3.3,9.5-3.3c141.8-49,137.7-47.5-12.2,4.5Z"/>
    <path class="st2" d="M530.1,500.9c-85.1-133.9-162.6-267.2-232.7-399.8l-4.7-8.8,4.7,8.8c70.1,132.6,147.7,265.9,232.7,399.8Z"/>
    <path class="st2" d="M529.9,501c-84.9-134-157.8-269.6-218.6-406.7l-4.1-9.1,4.1,9.1c60.8,137.1,133.6,272.7,218.6,406.7Z"/>
    <path class="st9" d="M240.9,474.7c107.7-116.5,144.7-247.8,110.8-393.9l-2.3-9.7,2.3,9.7c33.9,146.1-3.1,277.4-110.8,393.9Z"/>
    <path class="st9" d="M240.7,474.6c107.9-116.4,131.3-243.1,70.4-380.2l-4.1-9.1,4.1,9.1c60.9,137.1,37.4,263.8-70.4,380.2Z"/>
    <path class="st9" d="M240.5,474.4c108-116.3,105.9-224.3-6.1-324l-7.5-6.7,7.5,6.7c112,99.8,114,207.8,6.1,324Z"/>
    <path class="st9" d="M240.4,474.2c108.1-116.2,136.3-244.7,84.6-385.5l-3.4-9.4,3.4,9.4c51.7,140.8,23.5,269.3-84.6,385.5Z"/>
    <path class="st9" d="M240.2,474.1c108.2-116.1,102-218.7-18.6-307.9l-8-5.9,8,5.9c120.6,89.2,126.8,191.8,18.6,307.9Z"/>
    <path class="st9" d="M240.1,473.9c108.3-116,111.2-119.2,8.6-9.8l-6.8,7.3,6.8-7.3c102.6-109.4,99.7-106.2-8.6,9.8Z"/>
    <path class="st26" d="M338.5,529.2c42.6-152.8,28.9-295.5-41.4-428.1l-4.7-8.8,4.7,8.8c70.2,132.5,84,275.2,41.4,428.1Z"/>
    <path class="st26" d="M338.3,529.2c42.8-152.8,33.7-297.7-27.4-434.7l-4.1-9.1,4.1,9.1c61,137,70.1,281.9,27.4,434.7Z"/>
    <path class="st26" d="M338.1,529.1c42.9-152.7,25.2-293-53.3-420.9l-5.2-8.5,5.2,8.5c78.5,127.8,96.3,268.1,53.3,420.9Z"/>
    <path class="st26" d="M337.9,529.1c43.1-152.7,38.7-299.4-13.1-440.2l-3.5-9.4,3.5,9.4c51.8,140.8,56.2,287.5,13.1,440.2Z"/>
    <path class="st26" d="M337.7,529c43.2-152.7,4.5-273.5-116.2-362.6l-8-5.9,8,5.9c120.7,89.1,159.4,209.9,116.2,362.6Z"/>
    <path class="st25" d="M558.3,120c-103.8,120-186.3,111.5-247.5-25.5l-4.1-9.1,4.1,9.1c61.2,137,143.7,145.5,247.5,25.5Z"/>
    <path class="st25" d="M558.4,120.2c-103.9,119.9-106.7,123.2-8.2,10.1l6.6-7.5-6.6,7.5c-98.5,113.1-95.8,109.8,8.2-10.1Z"/>
    <path class="st25" d="M558.6,120.3c-104.1,119.8-169,105.8-194.8-42l-1.7-9.9,1.7,9.9c25.8,147.8,90.7,161.8,194.8,42Z"/>
    <path class="st8" d="M635.8,346.9c-155.6-31.3-268.5-113.1-338.9-245.6l-4.7-8.8,4.7,8.8c70.3,132.5,183.3,214.4,338.9,245.6Z"/>
    <path class="st8" d="M635.8,347.1c-155.5-31.4-250.3-120.2-284.3-266.3l-2.3-9.7,2.3,9.7c34,146.1,128.8,234.8,284.3,266.3Z"/>
    <path class="st8" d="M635.7,347.3c-155.5-31.6-242.8-121.7-261.8-270.5l-1.3-9.9,1.3,9.9c19.1,148.8,106.3,239,261.8,270.5Z"/>
    <path class="st8" d="M635.7,347.6c-155.5-31.7-281.9-104.6-379.3-218.6l-6.5-7.6,6.5,7.6c97.4,114.1,223.9,186.9,379.3,218.6Z"/>
    <path class="st4" d="M385.7,537.4c11.2-158.3-27.6-297.9-116.3-418.8l-5.9-8.1,5.9,8.1c88.7,120.9,127.5,260.5,116.3,418.8Z"/>
    <path class="st4" d="M385.5,537.4c11.3-158.3-43.4-281.9-164.2-370.8l-8.1-5.9,8.1,5.9c120.8,89,175.5,212.6,164.2,370.8Z"/>
    <path class="st7" d="M618.6,200.3c-144.1,66.5-251.3,33.5-321.8-98.9l-4.7-8.8,4.7,8.8c70.5,132.4,177.7,165.4,321.8,98.9Z"/>
    <path class="st7" d="M618.7,200.5c-144.1,66.3-233.3,26.5-267.4-119.6l-2.3-9.7,2.3,9.7c34.1,146.1,123.3,185.9,267.4,119.6Z"/>
    <path class="st1" d="M564.3,474.5c-107.9-116.4-197.1-240.7-267.7-373.1l-4.7-8.8,4.7,8.8c70.6,132.3,159.8,256.7,267.7,373.1Z"/>
    <path class="st1" d="M564.1,474.7c-107.8-116.5-178.8-247.7-213.1-393.7l-2.3-9.7,2.3,9.7c34.3,146,105.3,277.3,213.1,393.7Z"/>
    <path class="st1" d="M564,474.8c-107.7-116.6-192.1-243.3-253.4-380.2l-4.1-9.1,4.1,9.1c61.3,136.9,145.8,263.6,253.4,380.2Z"/>
    <path class="st3" d="M337,71.2c43.7,152.5-7.3,246.6-153.1,282.1l-9.7,2.4,9.7-2.4c145.7-35.5,196.8-129.6,153.1-282.1Z"/>
    <path class="st3" d="M337.2,71.1c43.5,152.6-5.6,204.3-147.3,155.2l-9.4-3.3,9.4,3.3c141.7,49.1,190.8-2.6,147.3-155.2Z"/>
    <path class="st3" d="M337.4,71.1c43.4,152.6,4.7,184.5-116.2,95.7l-8.1-5.9,8.1,5.9c120.9,88.8,159.6,56.9,116.2-95.7Z"/>
    <path class="st3" d="M337.6,71c43.2,152.7,134.6,256.6,274,311.9l9.3,3.7-9.3-3.7c-139.5-55.3-230.8-159.2-274-311.9Z"/>
    <path class="st3" d="M337.9,70.9c43.1,152.7,13.4,283.8-89.1,393.3l-6.8,7.3,6.8-7.3c102.5-109.5,132.2-240.6,89.1-393.3Z"/>
    <path class="st3" d="M338.1,70.9c43,152.7,137.9,244.2,284.9,274.3l9.8,2-9.8-2c-146.9-30.1-241.9-121.5-284.9-274.3Z"/>
    <path class="st14" d="M304.7,83c65.2,144.7,24.8,234.2-121.3,268.5l-9.7,2.3,9.7-2.3c146-34.4,186.4-123.9,121.3-268.5Z"/>
    <path class="st16" d="M277.1,97.7c83.6,134.9,91.4,135.4,23.6,1.7l-4.5-8.9,4.5,8.9c67.9,133.8,60,133.2-23.6-1.7Z"/>
    <path class="st16" d="M277.5,97.5c83.3,135,108.9,129.3,76.8-17.2l-2.1-9.8,2.1,9.8c32.1,146.5,6.5,152.3-76.8,17.2Z"/>
    <path class="st12" d="M217,449.1c123.7-99.4,155.9-218,96.8-355.9l-3.9-9.2,3.9,9.2c59.1,137.8,26.9,256.5-96.8,355.9Z"/>
    <path class="st12" d="M216.7,448.8c123.9-99.2,130.4-199.3,19.5-300.4l-7.4-6.7,7.4,6.7c110.8,101.1,104.3,201.2-19.5,300.4Z"/>
    <path class="st12" d="M216.4,448.4c124-98.9,127.2-102,9.4-9.1l-7.9,6.2,7.9-6.2c117.8-92.9,114.7-89.8-9.4,9.1Z"/>
    <path class="st3" d="M319.5,76.9c55.3,148.7,39.3,162.1-48.2,40.2l-5.8-8.1,5.8,8.1c87.4,121.9,103.5,108.5,48.2-40.2Z"/>
    <path class="st3" d="M320,76.8c55,148.8,23.7,269.8-93.9,362.9l-7.8,6.2,7.8-6.2c117.6-93.1,148.9-214,93.9-362.9Z"/>
    <path class="st15" d="M305.2,517.2c64.9-144.8,81.1-290.4,48.7-436.9l-2.2-9.8,2.2,9.8c32.4,146.5,16.2,292.1-48.7,436.9Z"/>
    <path class="st15" d="M304.8,517c65.2-144.7,59.1-281.3-18.1-409.9l-5.1-8.6,5.1,8.6c77.2,128.6,83.2,265.2,18.1,409.9Z"/>
    <path class="st15" d="M304.4,516.8c65.4-144.5,42.6-267.3-68.4-368.1l-7.4-6.7,7.4,6.7c111,100.9,133.8,223.6,68.4,368.1Z"/>
    <path class="st13" d="M177.1,223.6c150.3,50.9,195.7,7.5,136.3-130.3l-4-9.2,4,9.2c59.4,137.7,14,181.2-136.3,130.3Z"/>
    <path class="st13" d="M177.2,223.2c150.2,51.2,186.5,12.6,109.1-115.9l-5.2-8.6,5.2,8.6c77.5,128.5,41.1,167.1-109.1,115.9Z"/>
    <path class="st23" d="M167.4,262.8c156.7,24.8,218.7-36,186-182.4l-2.2-9.8,2.2,9.8c32.7,146.4-29.3,207.2-186,182.4Z"/>
    <path class="st23" d="M167.5,262.3c156.7,25.1,205.2-31.1,145.5-168.8l-4-9.2,4,9.2c59.7,137.6,11.2,193.9-145.5,168.8Z"/>
    <path class="st23" d="M167.6,261.9c156.6,25.4,179.3-12.2,68.1-112.9l-7.4-6.7,7.4,6.7c111.2,100.7,88.5,138.3-68.1,112.9Z"/>
    <path class="st23" d="M167.6,261.4c156.6,25.7,191-22.3,103.4-144l-5.8-8.1,5.8,8.1c87.6,121.7,53.2,169.7-103.4,144Z"/>
    <path class="st23" d="M167.7,261c156.5,26,164.1,13.9,22.8-36.4l-9.4-3.4,9.4,3.4c141.3,50.3,133.7,62.4-22.8,36.4Z"/>
    <path class="st10" d="M245.8,120.9c104.5,119.4,122.6,112.3,54.5-21.3l-4.5-8.9,4.5,8.9c68.1,133.6,50,140.7-54.5,21.3Z"/>
    <path class="st10" d="M246.1,120.6c104.2,119.6,126.4,110.7,66.5-26.8l-4-9.2,4,9.2c59.9,137.5,37.8,146.5-66.5,26.8Z"/>
    <path class="st10" d="M246.5,120.3c104,119.8,112.1,118.9,24.2-2.6l-5.9-8.1,5.9,8.1c87.9,121.6,79.8,122.4-24.2,2.6Z"/>
    <path class="st10" d="M246.8,120c103.8,120,130.4,109.4,79.9-31.8l-3.4-9.4,3.4,9.4c50.6,141.2,23.9,151.8-79.9,31.8Z"/>
    <path class="st10" d="M247.2,119.7c103.6,120.2,81.4,167.6-66.4,142.2l-9.9-1.7,9.9,1.7c147.8,25.4,170-22,66.4-142.2Z"/>
    <path class="st22" d="M164.7,309c158.6-6,164.9,8.3,18.9,42.9l-9.7,2.3,9.7-2.3c145.9-34.6,139.6-48.9-18.9-42.9Z"/>
    <path class="st22" d="M164.7,308.6c158.6-5.7,167.1-33.6,25.7-83.6l-9.4-3.3,9.4,3.3c141.4,50,132.8,77.9-25.7,83.6Z"/>
    <path class="st19" d="M210.1,159.9c128.2,93.4,136.7,89.9,25.3-10.5l-7.4-6.7,7.4,6.7c111.4,100.4,103,104-25.3,10.5Z"/>
    <path class="st19" d="M210.4,159.5c128.1,93.7,118.2,127.9-29.7,102.8l-9.9-1.7,9.9,1.7c147.9,25.2,157.8-9.1,29.7-102.8Z"/>
    <path class="st18" d="M476.7,526.1c-49.5-150.7-108.4-292.9-176.8-426.4l-4.6-8.9,4.6,8.9c68.4,133.5,127.3,275.6,176.8,426.4Z"/>
    <path class="st18" d="M476.3,526.3c-49.2-150.8-99.2-296.8-150-438l-3.4-9.4,3.4,9.4c50.8,141.1,100.8,287.1,150,438Z"/>
    <path class="st21" d="M193.9,185.3c139,76.4,160.4,57.2,64.1-57.9l-6.4-7.7,6.4,7.7c96.3,115,74.9,134.3-64.1,57.9Z"/>
    <path class="st0" d="M624.2,386.5c-147.8-57.7-256-153.2-324.7-286.6l-4.6-8.9,4.6,8.9c68.6,133.4,176.9,228.9,324.7,286.6Z"/>
    <path class="st0" d="M624.1,386.9c-147.7-58-260.4-151.1-338.1-279.4l-5.2-8.6,5.2,8.6c77.7,128.3,190.4,221.4,338.1,279.4Z"/>
    <path class="st20" d="M427.9,63.4c-16.9,157.8-41.9,163.5-74.9,17.1l-2.2-9.8,2.2,9.8c33,146.3,57.9,140.6,74.9-17.1Z"/>
    <path class="st11" d="M178,379.2c149.6-52.8,194.4-147.9,134.2-285.2l-4-9.2,4,9.2c60.2,137.4,15.5,232.5-134.2,285.2Z"/>
    <path class="st11" d="M177.9,378.7c149.7-52.5,185.6-142.8,107.7-271l-5.2-8.5,5.2,8.5c77.9,128.2,42,218.5-107.7,271Z"/>
    <path class="st26" d="M339.3,529.5c42.1-153-7.5-254.3-149.1-304.1l-9.4-3.3,9.4,3.3c141.5,49.7,191.2,151.1,149.1,304.1Z"/>
    <path class="st26" d="M338.9,529.3c42.4-152.9-10.3-241.8-158.2-266.6l-9.9-1.7,9.9,1.7c147.9,24.9,200.7,113.7,158.2,266.6Z"/>
    <path class="st8" d="M635.9,346.6c-155.6-31-258.9-117.1-310-258.1l-3.4-9.4,3.4,9.4c51.1,141,154.4,227.1,310,258.1Z"/>
    <path class="st4" d="M386.5,537.5c10.6-158.3-39.8-287.6-151.4-387.8l-7.4-6.7,7.4,6.7c111.6,100.2,162.1,229.5,151.4,387.8Z"/>
    <path class="st4" d="M386.1,537.4c10.9-158.3,3.6-311.3-22-459.1l-1.7-9.9,1.7,9.9c25.6,147.8,32.9,300.8,22,459.1Z"/>
    <path class="st7" d="M618.5,200c-144,66.7-264.2,42.6-360.7-72.2l-6.4-7.7,6.4,7.7c96.5,114.8,216.7,138.9,360.7,72.2Z"/>
    <path class="st1" d="M564.9,474c-108.3-116-233.2-198.7-374.8-248.2l-9.4-3.3,9.4,3.3c141.6,49.5,266.5,132.2,374.8,248.2Z"/>
    <path class="st1" d="M564.6,474.3c-108-116.2-210.4-231.6-307.1-346.3l-6.4-7.6,6.4,7.6c96.7,114.7,199.1,230.1,307.1,346.3Z"/>
    <path class="st5" d="M640,284c-158.3,10.7-293.4-34-405.1-134l-7.5-6.7,7.5,6.7c111.8,100,246.8,144.7,405.1,134Z"/>
    <path class="st5" d="M640,284.5c-158.3,10.4-286-41.7-382.9-156.2l-6.5-7.6,6.5,7.6c96.9,114.5,224.6,166.5,382.9,156.2Z"/>
    <path class="st3" d="M336.2,71.4c44.2,152.4,115.6,172.1,214.2,59.1l6.6-7.5-6.6,7.5c-98.6,113-170.1,93.3-214.2-59.1Z"/>
    <path class="st3" d="M336.7,71.3c43.9,152.5,140.7,224,290.4,214.4l10-.6-10,.6c-149.7,9.5-246.5-62-290.4-214.4Z"/>
    <path class="st16" d="M276.1,98.4c84.3,134.4,53.2,217.8-93.3,250.2l-9.8,2.2,9.8-2.2c146.5-32.3,177.6-115.7,93.3-250.2Z"/>
    <path class="st16" d="M276.6,98c83.9,134.7,96.7,132.9,38.2-5.2l-3.9-9.2,3.9,9.2c58.4,138.2,45.7,139.9-38.2,5.2Z"/>
    <path class="st12" d="M217.4,449.5c123.4-99.7,112-133.2-34.4-100.4l-9.8,2.2,9.8-2.2c146.4-32.8,157.9.7,34.4,100.4Z"/>
    <path class="st15" d="M306.3,517.7c64.1-145.1,23-201.1-123.2-167.9l-9.8,2.2,9.8-2.2c146.3-33.2,187.4,22.8,123.2,167.9Z"/>
    <path class="st15" d="M305.7,517.4c64.5-144.9,67.4-286.4,8.6-424.4l-3.9-9.2,3.9,9.2c58.8,138,56,279.5-8.6,424.4Z"/>
    <path class="st13" d="M176.9,224.2c150.4,50.5,170.6,24.8,60.6-77.1l-7.3-6.8,7.3,6.8c110,102,89.8,127.7-60.6,77.1Z"/>
    <path class="st22" d="M164.7,309.6c158.5-6.4,164.1-23.3,16.6-50.8l-9.8-1.8,9.8,1.8c147.5,27.5,141.9,44.4-16.6,50.8Z"/>
    <path class="st19" d="M209.8,160.3c128.5,93.1,119.6,156.5-26.6,190.1l-9.7,2.2,9.7-2.2c146.2-33.6,155.1-97,26.6-190.1Z"/>
    <path class="st18" d="M477.3,525.9c-49.9-150.6-129.9-276.8-240.2-378.4l-7.4-6.8,7.4,6.8c110.3,101.7,190.4,227.8,240.2,378.4Z"/>
    <path class="st0" d="M624.9,384.7c-148.3-56.5-296.2-98.3-443.7-125.3l-9.8-1.8,9.8,1.8c147.5,27,295.4,68.8,443.7,125.3Z"/>
    <path class="st0" d="M624.7,385.4c-148.1-56.9-269.8-143.3-365.2-259.1l-6.4-7.7,6.4,7.7c95.4,115.8,217.1,202.1,365.2,259.1Z"/>
    <path class="st0" d="M624.4,386c-147.9-57.3-287.3-122.7-418.2-196l-8.7-4.9,8.7,4.9c130.9,73.3,270.3,138.7,418.2,196Z"/>
    <path class="st20" d="M427.4,63.3c-16.6,157.8-50,166-100.2,24.7l-3.3-9.4,3.3,9.4c50.2,141.3,83.6,133.1,100.2-24.7Z"/>
    <path class="st11" d="M178.5,380.3c149.4-53.5,180.8-141.6,94.4-264.2l-5.8-8.2,5.8,8.2c86.4,122.6,55,210.7-94.4,264.2Z"/>
    <path class="st11" d="M178.2,379.7c149.5-53.1,176.4-137.4,80.7-253l-6.4-7.7,6.4,7.7c95.7,115.5,68.8,199.8-80.7,253Z"/>
    <path class="st2" d="M531.6,499.9c-86.1-133.3-167.6-264.3-244.5-393.1l-5.1-8.6,5.1,8.6c76.9,128.8,158.4,259.8,244.5,393.1Z"/>
    <path class="st2" d="M531,500.3c-85.7-133.5-183.8-251-294.4-352.3l-7.4-6.8,7.4,6.8c110.6,101.3,208.7,218.8,294.4,352.3Z"/>
    <path class="st2" d="M530.5,500.7c-85.3-133.8-87.9-137.2-7.9-10.4l5.3,8.5-5.3-8.5c-80.1-126.9-77.4-123.4,7.9,10.4Z"/>
    <path class="st9" d="M241.2,475c107.5-116.7,88.2-158-57.8-124l-9.7,2.3,9.7-2.3c146.1-34,165.4,7.3,57.8,124Z"/>
    <path class="st26" d="M340.5,529.8c41.3-153.2-3.5-266.3-134.6-339.2l-8.7-4.9,8.7,4.9c131.1,73,175.9,186,134.6,339.2Z"/>
    <path class="st26" d="M339.8,529.6c41.8-153.1,41.9-157.5.3-13.4l-2.8,9.6,2.8-9.6c41.5-144.1,41.4-139.7-.3,13.4Z"/>
    <path class="st25" d="M557.9,119.7c-103.6,120.2-189.2,113.3-256.8-20.6l-4.5-8.9,4.5,8.9c67.6,133.9,153.2,140.8,256.8,20.6Z"/>
    <path class="st8" d="M636.1,345.3c-155.8-30.2-307.5-58.7-455.1-85.3l-9.8-1.8,9.8,1.8c147.6,26.6,299.3,55,455.1,85.3Z"/>
    <path class="st8" d="M636,346c-155.7-30.7-293.7-90.8-414-180.3l-8-6,8,6c120.4,89.5,258.4,149.6,414,180.3Z"/>
    <path class="st4" d="M387.8,537.5c9.8-158.4-59.1-250.6-206.8-276.8l-9.8-1.7,9.8,1.7c147.7,26.2,216.6,118.5,206.8,276.8Z"/>
    <path class="st4" d="M387.1,537.5c10.3-158.3-32.6-295.1-128.6-410.4l-6.4-7.7,6.4,7.7c96,115.2,138.9,252,128.6,410.4Z"/>
    <path class="st7" d="M618.2,199.5c-143.8,67-259.1,39.3-345.9-83l-5.8-8.2,5.8,8.2c86.8,122.3,202.1,150,345.9,83Z"/>
    <path class="st1" d="M565.8,473.1c-108.9-115.4-206.9-234.2-294-356.3l-5.8-8.1,5.8,8.1c87.1,122.1,185.1,240.9,294,356.3Z"/>
    <path class="st1" d="M565.3,473.6c-108.5-115.7-112-118.4-10.5-8l6.8,7.4-6.8-7.4c-101.6-110.4-98.1-107.7,10.5,8Z"/>
    <path class="st5" d="M639.9,283.4c-158.3,11-311.3,3.7-459.1-22.1l-9.9-1.7,9.9,1.7c147.8,25.8,300.8,33.2,459.1,22.1Z"/>
    <path class="st3" d="M335,71.8c45,152.2,46.9,300.4,5.8,444.6l-2.7,9.6,2.7-9.6c41.1-144.2,39.2-292.5-5.8-444.6Z"/>
    <path class="st3" d="M335.7,71.6c44.5,152.3,135,197.2,271.4,134.8l9.1-4.2-9.1,4.2c-136.4,62.5-226.8,17.5-271.4-134.8Z"/>
    <path class="st23" d="M167.2,264.3c156.9,23.8,162,51.6,15.4,83.5l-9.8,2.1,9.8-2.1c146.6-31.9,141.4-59.7-15.4-83.5Z"/>
    <path class="st23" d="M167.3,263.4c156.8,24.4,161.5,22.3,14.3-6.2l-9.8-1.9,9.8,1.9c147.3,28.5,142.5,30.6-14.3,6.2Z"/>
    <path class="st10" d="M245.3,121.3c104.8,119.1,103.2,126.7-5,22.7l-7.2-6.9,7.2,6.9c108.1,104,109.8,96.4,5-22.7Z"/>
    <path class="st22" d="M164.7,310.4c158.5-6.9,178.6,35.7,60.2,127.7l-7.9,6.1,7.9-6.1c118.4-92.1,98.4-134.7-60.2-127.7Z"/>
    <path class="st19" d="M208.8,161.7c129.1,92.2,134.7,184.6,16.6,277.1l-7.9,6.2,7.9-6.2c118.1-92.5,112.5-184.9-16.6-277.1Z"/>
    <path class="st19" d="M209.3,161c128.8,92.7,118.2,141-31.8,144.8l-10,.3,10-.3c150-3.8,160.5-52.1,31.8-144.8Z"/>
    <path class="st18" d="M478.9,525.4c-50.9-150.3-114.6-289.9-191.1-419l-5.1-8.6,5.1,8.6c76.5,129,140.2,268.7,191.1,419Z"/>
    <path class="st18" d="M478,525.7c-50.4-150.5-123-283.8-218-399.9l-6.3-7.7,6.3,7.7c95,116.1,167.6,249.4,218,399.9Z"/>
    <path class="st21" d="M193.2,186.7c139.5,75.5,138.9,87.4-1.9,35.7l-9.4-3.4,9.4,3.4c140.8,51.7,141.4,39.8,1.9-35.7Z"/>
    <path class="st21" d="M193.6,185.9c139.3,76,133.9,116.3-16,120.7l-10,.3,10-.3c149.9-4.4,155.3-44.6,16-120.7Z"/>
    <path class="st0" d="M625.2,384c-148.5-56-282.2-129.6-401.2-220.9l-7.9-6.1,7.9,6.1c119,91.3,252.8,164.9,401.2,220.9Z"/>
    <path class="st20" d="M426.6,63.2c-16,157.9-83.8,191.4-203.1,100.5l-8-6.1,8,6.1c119.4,90.8,187.1,57.3,203.1-100.5Z"/>
    <path class="st11" d="M179,381.9c149-54.6,169.2-133.7,60.7-237.3l-7.2-6.9,7.2,6.9c108.5,103.6,88.3,182.7-60.7,237.3Z"/>
    <path class="st11" d="M178.7,381.1c149.2-54,163.9-126.3,44.2-216.6l-8-6,8,6c119.7,90.4,105,162.6-44.2,216.6Z"/>
    <path class="st2" d="M532.3,499.5c-86.5-133-200.9-175.7-343.1-128.1l-9.5,3.2,9.5-3.2c142.2-47.6,256.6-4.9,343.1,128.1Z"/>
    <path class="st9" d="M242.5,476.2c106.7-117.4,86.4-190.1-61-218.1l-9.8-1.9,9.8,1.9c147.4,27.9,167.7,100.6,61,218.1Z"/>
    <path class="st9" d="M241.8,475.5c107.1-117,95.8-213.2-33.9-288.4l-8.7-5,8.7,5c129.8,75.2,141.1,171.4,33.9,288.4Z"/>
    <path class="st26" d="M341.2,530c40.8-153.3,6.8-281.6-102.1-384.7l-7.3-6.9,7.3,6.9c108.9,103.2,142.9,231.4,102.1,384.7Z"/>
    <path class="st8" d="M636.3,344.6c-155.9-29.7-298.8-81.9-428.9-156.7l-8.7-5,8.7,5c130.1,74.7,273,127,428.9,156.7Z"/>
    <path class="st4" d="M388.6,537.6c9.3-158.4,87.4-222.4,234.3-191.9l9.8,2-9.8-2c-146.9-30.5-225,33.5-234.3,191.9Z"/>
    <path class="st7" d="M617.5,197.9c-143.3,68-269.7,50.7-378.9-52.1l-7.3-6.8,7.3,6.8c109.3,102.7,235.6,120.1,378.9,52.1Z"/>
    <path class="st7" d="M617.9,198.8c-143.6,67.5-285.9,75.6-426.9,24.4l-9.4-3.4,9.4,3.4c141,51.2,283.3,43.1,426.9-24.4Z"/>
    <path class="st1" d="M567.7,471.4c-110.1-114.2-220-222.5-329.7-324.9l-7.3-6.8,7.3,6.8c109.7,102.3,219.6,210.6,329.7,324.9Z"/>
    <path class="st1" d="M567,472c-109.7-114.7-229.7-209.1-360-283.4l-8.7-5,8.7,5c130.3,74.3,250.3,168.7,360,283.4Z"/>
    <path class="st1" d="M566.4,472.6c-109.2-115.1-234.9-148.5-377-100.4l-9.5,3.2,9.5-3.2c142.1-48.1,267.7-14.7,377,100.4Z"/>
    <path class="st5" d="M639.7,280c-158.1,13.4-307.7-5.3-448.9-56l-9.4-3.4,9.4,3.4c141.2,50.7,290.8,69.3,448.9,56Z"/>
    <path class="st5" d="M639.7,280.9c-158.2,12.8-297.3-25.8-417.3-115.7l-8-6,8,6c120.1,89.9,259.2,128.5,417.3,115.7Z"/>
    <path class="st5" d="M639.8,281.8c-158.2,12.2-302.6-18.6-433.2-92.4l-8.7-4.9,8.7,4.9c130.6,73.8,275,104.6,433.2,92.4Z"/>
    <path class="st5" d="M639.9,282.7c-158.2,11.6-308.3,41.7-450.2,90.4l-9.5,3.2,9.5-3.2c141.9-48.7,291.9-78.8,450.2-90.4Z"/>
    <path class="st13" d="M176.6,225.1s0,0,0-.1c150.6,50,193.8,142.8,129.6,278.4l-4.3,9,4.2-9.1c64.3-135.5,21.1-228.3-129.5-278.2Z"/>
    <path class="st10" d="M243.6,122.8s0,0,.1,0c105.8,118.2,127,245.2,63.4,381.1l-4.3,9,4.2-9.1c63.6-135.8,42.5-262.8-63.4-381Z"/>
    <path class="st10" d="M244.5,122s0,0,.1,0c105.3,118.7,88,150.9-51.8,96.6l-9.3-3.7,9.3,3.6c139.8,54.4,157,22.2,51.7-96.4Z"/>
    <path class="st22" d="M164.8,311.5s0,0,0-.1c158.5-7.6,206.3,56.8,143.4,192.9l-4.3,9,4.1-9.1c63-136.1,15.2-200.4-143.2-192.7Z"/>
    <path class="st18" d="M481,524.7s0,0-.1,0c-52.2-149.8-121.1-286.4-206.5-409.7l-5.6-8.3,5.7,8.2c85.3,123.4,154.2,259.9,206.5,409.7Z"/>
    <path class="st18" d="M479.9,525.1s0,0-.1,0c-51.5-150.1-55.3-153.4-11.4-10l2.9,9.6-3-9.5c-43.8-143.5-40-140.2,11.6,9.9Z"/>
    <path class="st21" d="M192.7,187.7s0,0,0-.1c139.8,75,232.1,184.1,276.7,327.3l2.9,9.6-3-9.5c-44.5-143.2-136.7-252.3-276.6-327.2Z"/>
    <path class="st0" d="M626.3,380.9s0,0,0,.1c-149.2-54-277.4-133.5-384.6-238.4l-7.1-7,7.2,7c107.1,105,235.3,184.4,384.6,238.3Z"/>
    <path class="st0" d="M626,381.9s0,0,0,.1c-148.9-54.7-293.5-108.9-433.5-162.5l-9.3-3.6,9.4,3.5c140.1,53.7,284.6,107.9,433.5,162.5Z"/>
    <path class="st0" d="M625.6,383s0,0,0,.1c-148.7-55.4-153.4-55.3-14.1.3l9.3,3.8-9.3-3.7c-139.3-55.7-134.6-55.9,14.1-.6Z"/>
    <path class="st20" d="M423.2,62.9s0,0,.1,0c-13.9,158.1-74.7,184.9-182.4,80.5l-7.1-7,7.2,6.9c107.6,104.5,168.4,77.7,182.2-80.4Z"/>
    <path class="st20" d="M424.4,63s0,0,.1,0c-14.7,158-86.6,198.8-215.7,122.4l-8.6-5.1,8.6,5c129.1,76.4,200.9,35.7,215.5-122.3Z"/>
    <path class="st20" d="M425.5,63.1s0,0,.1,0c-15.4,157.9-14.3,162.4,3.3,13.4l1.2-9.9-1.1,9.9c-17.7,149-18.9,144.5-3.5-13.5Z"/>
    <path class="st11" d="M179.4,382.9s0,0,0-.1c148.8-55.2,149.8-67.2,3.1-35.9l-9.8,2,9.8-2.1c146.7-31.2,145.7-19.2-3,36.1Z"/>
    <path class="st2" d="M533.2,498.9s0,0-.1,0c-87-132.7-195.3-236.9-324.8-312.6l-8.6-5.1,8.7,5c129.4,75.8,237.7,180,324.8,312.7Z"/>
    <path class="st9" d="M244.1,477.6s0,0-.1,0c105.7-118.4,88.3-204-52-257l-9.3-3.6,9.4,3.5c140.3,53,157.7,138.8,52.1,257.2Z"/>
    <path class="st9" d="M243.3,476.9s0,0-.1,0c106.2-117.9,84.4-175.2-65.6-171.9h-10c0,.1,10-.1,10-.1,150-3.2,171.9,54.2,65.7,172.1Z"/>
    <path class="st25" d="M555.5,117.7s0,0,.1,0c-102,121.5-196.1,120.8-282.1-2.1l-5.7-8.2,5.8,8.2c85.9,122.9,179.9,123.6,281.9,2.1Z"/>
    <path class="st25" d="M556.3,118.4s0,0,.1,0c-102.6,121-178.8,110.8-228.5-30.8l-3.3-9.5,3.4,9.4c49.6,141.5,125.7,151.8,228.3,30.7Z"/>
    <path class="st25" d="M557.2,119.1s0,0,.1,0c-103.2,120.5-213.9,134.6-332.1,42.3l-7.8-6.2,7.9,6.1c118.2,92.4,228.8,78.3,331.9-42.3Z"/>
    <path class="st4" d="M389.6,537.7s0,0-.1,0c8.7-158.4-57.3-263.8-197.9-316.1l-9.3-3.5,9.4,3.4c140.6,52.4,206.5,157.8,198,316.2Z"/>
    <path class="st7" d="M617,197s0,0,0,.1c-143.1,68.6-288.2,88.4-435.3,59.3l-9.8-2,9.8,1.9c147.1,29.2,292.2,9.4,435.2-59.3Z"/>
    <path class="st1" d="M570,469s0,0,0,0c-111.6-112.7-226.8-215-345.5-306.8l-7.9-6.2,7.9,6.1c118.6,91.8,233.8,194.1,345.5,306.8Z"/>
    <path class="st1" d="M569.2,469.8s0,0,0,0c-111.1-113.3-144-98.4-98.7,44.6l3,9.6-3.1-9.5c-45.2-143-12.2-157.9,99-44.7Z"/>
    <path class="st1" d="M568.4,470.6s0,0,0,0c-110.6-113.8-171.4-95.9-182.5,53.7l-.8,10,.7-10c11.2-149.6,72.1-167.5,182.7-53.8Z"/>
    <path class="st5" d="M639.6,278.9s0,0,0,.1c-158,14-214.1,92.4-168.1,235.2l3,9.5-3.1-9.5c-45.9-142.8,10.2-221.3,168.2-235.3Z"/>
    <path class="st3" d="M334.1,72s0,0,.1,0c45.5,152,76.7,153.5,93.6,4.4l1.2-9.9-1.1,9.9c-17,149-48.3,147.6-93.9-4.4Z"/>
    <path class="st13" d="M176.2,226.4c0-.1,0-.2.1-.3,150.8,49.3,152.6,88.4,5.4,117.3l-9.8,1.8,9.8-2.1c147.2-28.7,145.4-67.6-5.5-116.7Z"/>
    <path class="st10" d="M242.6,123.7c0,0,.2-.2.3-.2,106.4,117.7,100.2,222.4-18.6,314l-8,6,7.8-6.2c118.9-91.4,125.1-195.9,18.5-313.5Z"/>
    <path class="st18" d="M483.5,523.8c-.1,0-.2,0-.3.1-53.8-149.3-154.2-209-301.2-179.3l-9.8,1.8,9.8-2.1c147.1-29.5,247.6,30.3,301.6,179.5Z"/>
    <path class="st18" d="M482.2,524.2c-.1,0-.2,0-.3.1-52.9-149.6-137.8-271.5-254.5-365.7l-7.7-6.4,7.9,6.2c116.6,94.4,201.5,216.3,254.6,365.8Z"/>
    <path class="st21" d="M191.4,190.1c0-.1.1-.2.2-.3,140.6,73.5,137.5,125.6-9.4,156.1l-9.8,1.9,9.8-2.2c146.9-30.4,150-82.2,9.3-155.5Z"/>
    <path class="st21" d="M192,188.9c0-.1.1-.2.2-.3,140.2,74.3,136.9,96.1-10,65.5l-9.8-2.2,9.8,1.9c146.8,30.8,150,9.2,9.7-64.9Z"/>
    <path class="st11" d="M179.9,384.2c0-.1,0-.2-.1-.3,148.5-55.9,153.1-111.7,13.9-167.5l-9.2-3.9,9.3,3.6c139.2,56,134.6,112-13.9,168.1Z"/>
    <path class="st2" d="M535.4,497.4c0,0-.2.1-.3.2-88.4-131.7-202.4-225.1-342-280l-9.2-3.8,9.4,3.5c139.5,55.2,253.5,148.5,342.2,280.2Z"/>
    <path class="st2" d="M534.3,498.2c-.1,0-.2.1-.3.2-87.7-132.2-190.1-245.1-307.4-338.7l-7.7-6.4,7.9,6.1c117.1,93.7,219.6,206.6,307.5,338.7Z"/>
    <path class="st9" d="M245.1,478.5c0,0-.2-.2-.3-.2,105.1-118.9,86.2-155.6-56.8-110.2l-9.6,2.9,9.5-3.2c143-45.2,162.1-8.3,57.2,110.7Z"/>
    <path class="st25" d="M553.4,115.9c0,0,.2.2.3.2-100.8,122.6-198.4,125.6-292.9,9.1l-6.2-7.9,6.4,7.7c94.3,116.6,191.8,113.6,292.4-9.1Z"/>
    <path class="st25" d="M554.4,116.8c0,0,.2.2.3.2-101.5,122-223.5,206.1-366.2,252.3l-9.6,2.9,9.5-3.2c142.8-46,264.8-130.1,366.1-252.2Z"/>
    <path class="st8" d="M636.8,342c0,.1,0,.2,0,.4-156.1-28.2-309.2-41-459.2-38.5h-10s10-.3,10-.3c150-2.3,303.1,10.5,459.2,38.5Z"/>
    <path class="st8" d="M636.5,343.3c0,.1,0,.2,0,.4-156-29.1-160.6-28.1-13.8,2.9l9.7,2.2-9.8-1.9c-146.7-31.3-142-32.5,14-3.6Z"/>
    <path class="st4" d="M391,537.7c-.1,0-.2,0-.4,0,7.9-158.5-59.3-214.2-201.8-167.1l-9.6,3,9.4-3.3c142.5-46.8,209.9,9,202.2,167.5Z"/>
    <path class="st7" d="M615.9,194.5c0,.1.1.2.2.3-142.3,70.1-272.4,58.7-390.2-34.2l-7.7-6.3,8,6.1c117.7,93,247.6,104.4,389.8,34.1Z"/>
    <path class="st7" d="M616.5,195.8c0,.1.1.2.2.3-142.7,69.3-278.5,65.4-407.2-11.5l-8.5-5.3,8.7,5c128.6,77.2,264.3,81,406.9,11.5Z"/>
    <path class="st1" d="M571,468.1c0,0-.2.2-.3.3-112.2-112.2-241.8-183.2-388.8-213l-9.8-2.2,9.8,1.8c147,30,276.6,101,389,213.1Z"/>
    <path class="st15" d="M307.6,518.3c-.2,0-.4-.2-.5-.2,63.6-145.4,34.9-173.8-86.2-85.2l-8.2,5.7,7.9-6.1c121.3-88.2,150.3-59.6,87.1,85.9Z"/>
    <path class="st18" d="M486.5,522.7c-.2,0-.4.1-.5.2-55.6-148.6-143.7-178.2-264.2-88.9l-8.2,5.7,7.9-6.2c120.7-89,209.1-59.3,265,89.1Z"/>
    <path class="st18" d="M485,523.2c-.2,0-.4.1-.5.2-54.6-149-151.4-251.7-290.4-308.2l-9.2-4,9.4,3.5c138.8,56.9,235.7,159.7,290.7,308.6Z"/>
    <path class="st11" d="M180.5,385.7c0-.2-.1-.4-.2-.5,148.2-56.7,158.4-124.4,30.6-202.9l-8.4-5.5,8.7,5c127.6,78.9,117.4,146.9-30.7,204Z"/>
    <path class="st9" d="M246.3,479.6c-.1-.1-.3-.3-.4-.4,104.4-119.5,196.4-115.6,276.1,11.5l5.1,8.6-5.5-8.3c-79.3-127.3-171-131.1-275.1-11.4Z"/>
    <path class="st26" d="M347.3,531.5c-.2,0-.4,0-.6-.1,37.2-154.3-4.2-186.3-124.1-96.2l-8.2,5.8,7.8-6.2c120.1-89.8,161.8-57.6,125,96.7Z"/>
    <path class="st26" d="M345.8,531.1c-.2,0-.4,0-.6-.1,38.2-154-17.7-230.2-167.7-228.5l-10-.2,10-.4c150-1.3,206.1,75.1,168.3,229.2Z"/>
    <path class="st26" d="M344.3,530.8c-.2,0-.4,0-.6-.1,39.2-153.7-12.9-208.8-156.4-165.1l-9.7,2.6,9.5-3.2c143.6-43.3,196,12,157.2,165.8Z"/>
    <path class="st26" d="M342.7,530.4c-.2,0-.4,0-.6-.1,40.2-153.5,8.9-175.6-94-66.5l-7.1,7.1,6.7-7.5c103.1-108.9,134.8-86.6,94.9,67Z"/>
    <path class="st25" d="M552.2,114.9c.2.1.3.2.5.4-100.1,123.1-203.1,131.6-309.1,25.5l-6.9-7.3,7.3,6.9c105.7,106.4,208.5,97.9,308.3-25.5Z"/>
    <path class="st8" d="M637.3,338.8c0,.2,0,.4,0,.6-156.5-26.3-288.1-92.1-394.8-197.6l-6.9-7.2,7.3,6.8c106.4,105.7,237.9,171.5,394.5,197.4Z"/>
    <path class="st8" d="M637,340.4c0,.2,0,.4-.1.6-156.3-27.3-306.1-18.7-449.3,25.9l-9.6,2.7,9.5-3.2c143.3-44.3,293.2-52.9,449.5-26Z"/>
    <path class="st4" d="M392.6,537.8c-.2,0-.4,0-.6,0,7-158.5-53.6-276.6-181.9-354.3l-8.4-5.4,8.7,5c128.1,78,188.9,196.3,182.2,354.8Z"/>
    <path class="st5" d="M639.4,277.3c0,.2,0,.4,0,.6-158,14.7-296.6,67.6-415.9,158.5l-8.1,5.8,7.8-6.3c119.5-90.6,258.2-143.5,416.2-158.6Z"/>
    <path class="st23" d="M166.9,266.1c0-.3,0-.5.1-.8,157,23.2,203,102.4,138.2,237.6l-4.7,8.8,4-9.2c65.3-135,19.4-213.9-137.6-236.5Z"/>
    <path class="st21" d="M190.6,191.7c.1-.2.2-.5.4-.7,141,72.7,149.7,151.5,26.1,236.5l-8.5,5.3,8-6c123.9-84.5,115.2-162.9-26-235.1Z"/>
    <path class="st0" d="M626.9,379.2c0,.3-.2.5-.3.8-149.4-53.3-298.1-67-445.8-41.2l-9.9,1.3,9.8-2.1c147.8-25.3,296.6-11.6,446.2,41.2Z"/>
    <path class="st2" d="M538.4,495.4c-.2.2-.4.3-.7.5-90.2-130.6-209-182.4-356.6-155.4l-9.9,1.4,9.8-2.2c147.6-26.5,266.8,25.4,357.4,155.7Z"/>
    <path class="st2" d="M536.9,496.4c-.2.2-.4.3-.7.5-89.2-131.2-195.2-153.9-318.2-68l-8.4,5.4,8-6c123.3-85.5,229.7-62.7,319.3,68.2Z"/>
    <path class="st9" d="M247.7,480.7c-.2-.2-.4-.4-.6-.5,103.6-120.1,94.3-136.8-28-50l-8.4,5.5,7.9-6.1c122.6-86.4,132.3-69.3,29.1,51.1Z"/>
    <path class="st8" d="M637.6,337.1c0,.3,0,.5-.1.8-156.6-25.2-308.6-23.8-456,4.3l-9.9,1.5,9.8-2.2c147.4-27.6,299.5-29,456.3-4.3Z"/>
    <path class="st7" d="M614.2,191.3c.1.2.2.5.4.7-141.4,72-272.9,151.8-394.6,239.6l-8.3,5.5,7.9-6.1c122-87.3,253.5-167.2,394.7-239.7Z"/>
    <path class="st7" d="M615.1,192.9c.1.2.2.5.4.7-141.9,70.9-144.6,75.4-8,13.4l9.3-3.8-9,4.5c-136.8,61.5-134.4,56.6,7.3-14.8Z"/>
    <path class="st19" d="M207.7,163.3c.2-.3.4-.6.6-.8,129.5,91.7,159,203.8,88.6,336.2l-5.1,8.6,4.3-9.1c71-132.1,41.5-243.8-88.3-334.9Z"/>
    <path class="st21" d="M189.7,193.5c.2-.3.3-.6.5-.9,141.6,71.6,177.7,174,108.4,307l-5.1,8.6,4.2-9.1c69.9-132.7,33.9-234.6-108-305.6Z"/>
    <path class="st0" d="M628.3,375.3c-.1.3-.2.7-.3,1-150.3-50.9-300.4-78.5-450.3-82.9l-10-.8,10-.2c149.9,5.1,300.1,32.7,450.6,82.9Z"/>
    <path class="st0" d="M627.6,377.3c-.1.3-.2.7-.3,1-149.8-52.2-203.8-6.2-161.7,137.8l2.3,9.7-3.3-9.5c-41.4-144.2,13-190.5,163-139Z"/>
    <path class="st20" d="M419.2,62.6c.3,0,.7,0,1,0-11.8,158.2-87,208.6-225.6,151.2l-9-4.3,9.4,3.4c138.3,58.1,213,7.9,224.2-150.3Z"/>
    <path class="st20" d="M421.2,62.7c.3,0,.7,0,1,0-13.2,158.1-93.1,221.5-239.8,190l-9.7-2.6,9.9,1.6c146.5,32.1,226-30.9,238.5-189.1Z"/>
    <path class="st26" d="M349.3,532c-.3,0-.7-.2-1-.2,36.1-154.5,75.8-159.9,119.1-16.3l2.4,9.7-3.3-9.4c-42.6-143.8-81.7-138.4-117.1,16.2Z"/>
    <path class="st4" d="M394.6,537.9c-.3,0-.7,0-1,0,6-158.6-66-239.4-216-242.5l-10-.7,10-.3c150,3.8,222.3,85,217,243.6Z"/>
    <path class="st7" d="M612.4,187.7c.2.3.3.6.5.9-140.2,74.2-244.4,178.2-312.6,311.8l-5,8.7,4.1-9.1c68.7-133.3,173.1-237.4,313-312.3Z"/>
    <path class="st7" d="M613.3,189.5c.2.3.3.6.5.9-140.9,73-286.3,108.6-436.3,106.8l-10-.6,10-.3c150,2.5,295.2-33.1,435.8-106.7Z"/>
    <path class="st1" d="M573.8,465.2c-.2.2-.5.5-.7.7-113.8-110.6-204.1-98.8-271.1,35.4l-4.9,8.7,4-9.2c67.6-133.9,158.5-145.8,272.7-35.7Z"/>
    <path class="st1" d="M572.4,466.6c-.2.2-.5.5-.7.7-112.8-111.6-244.2-167.7-394.2-168.3l-10-.6,10-.4c150,1.2,281.6,57.4,394.9,168.5Z"/>
    <path class="st5" d="M639,273.3c0,.3,0,.7.1,1-157.7,17.1-269.5,93.1-335.4,227.8l-4.9,8.8,4-9.2c66.5-134.5,178.5-210.6,336.2-228.4Z"/>
    <path class="st5" d="M639.2,275.3c0,.3,0,.7.1,1-157.9,15.8-311.8,24-461.8,24.7l-10-.5,10-.5c150,0,303.9-8.3,461.7-24.8Z"/>
    <path class="st13" d="M175.5,228.5c.1-.4.3-.8.4-1.2,151.1,48.4,163.3,112.9,36.7,193.3l-8.8,4.8,8.1-5.8c127-79.8,114.9-143.5-36.5-191.1Z"/>
    <path class="st0" d="M629,373.2c-.1.4-.3.8-.4,1.2-150.7-49.6-289-33.6-414.8,48.1l-8.7,4.9,8.1-5.9c126.3-81,264.9-97.1,415.9-48.3Z"/>
    <path class="st11" d="M182.1,389.9c-.2-.4-.3-.8-.5-1.2,147.2-59.1,147.7-105,1.3-137.7l-9.6-2.8,9.9,1.6c146.2,33.5,145.9,80.2-1.1,140.1Z"/>
    <path class="st11" d="M181.3,387.8c-.2-.4-.3-.8-.5-1.2,147.8-57.7,146.8-90.1-3.1-97.3l-10-1.1h10c149.8,7.8,150.9,41,3.5,99.5Z"/>
    <path class="st2" d="M540.2,494.1c-.3.2-.7.5-1,.7-91.1-129.9-211.7-197.7-361.5-203.4l-10-1,10-.2c149.9,6.5,270.7,74.4,362.5,203.8Z"/>
    <path class="st9" d="M251.1,483.6c-.3-.3-.6-.5-1-.8,101.6-121.9,116-117.3,43.2,13.9l-5.4,8.4,4.4-9c73.5-130.8,59.8-134.9-41.2-12.5Z"/>
    <path class="st9" d="M249.4,482.2c-.3-.3-.6-.5-1-.8,102.7-120.9,223.3-152.6,361.8-95l9,4.4-9.5-3.3c-138.2-58.3-258.3-26.7-360.4,94.7Z"/>
    <path class="st26" d="M351.5,532.5c-.4,0-.8-.2-1.2-.3,34.8-154.8,16.5-166.3-55.1-34.4l-5.3,8.5,4.3-9.1c72.2-131.5,91.4-119.7,57.4,35.3Z"/>
    <path class="st25" d="M550.4,113.5c.3.3.7.5,1,.8-99.3,123.8-223,197.3-371.1,220.7l-10,.9,9.8-2.1c148.3-22.5,271.7-96,370.3-220.3Z"/>
    <path class="st8" d="M638.3,332.6c0,.4-.1.8-.2,1.2-157.1-22.6-298.1,7.6-423.2,90.4l-8.7,5,8-6c125.5-82.2,266.8-112.4,424-90.6Z"/>
    <path class="st8" d="M637.9,334.8c0,.4-.1.8-.2,1.2-156.8-24.1-304.3-65.4-442.3-124l-9-4.5,9.4,3.4c137.8,59.4,285.1,100.7,442.1,123.9Z"/>
    <path class="st4" d="M399.1,538c-.4,0-.8,0-1.3,0,3.1-158.6-57.5-195.9-181.7-111.9l-8.6,5.1,8-6.1c124.7-83.4,185.9-45.7,183.7,112.9Z"/>
    <path class="st4" d="M396.8,537.9c-.4,0-.8,0-1.3,0,4.6-158.6-14.1-165.9-56.2-21.9l-3.4,9.4,2.3-9.8c42.8-143.8,62.3-136.3,58.6,22.3Z"/>
    <path class="st7" d="M610.2,183.8c.2.4.4.7.6,1.1-138.9,76.7-280.2,136.5-424,179.2l-9.8,2.2,9.4-3.4c144-41.9,285.3-101.6,423.7-179.1Z"/>
    <path class="st7" d="M611.3,185.7c.2.4.4.7.6,1.1-139.6,75.4-215.3,187.9-227.1,337.4l-1.4,9.9.2-10c12.6-149.5,88.5-262.3,227.7-338.5Z"/>
    <path class="st5" d="M638.4,268.8c0,.4.1.8.2,1.3-157.4,20-310.1,42.3-458,67l-10,1,9.8-2.2c148.1-23.9,300.8-46.3,458.1-67.1Z"/>
    <path class="st5" d="M638.7,271c0,.4.1.8.2,1.3-157.6,18.5-166.9,55.8-27.8,112.1l9,4.3-9.5-3.2c-138.7-57-129.4-95.2,28.1-114.5Z"/>
    <path class="st23" d="M166.6,268.5c0-.5.1-1,.2-1.5,157.1,22,171.6,71.9,43.4,149.8l-8.9,4.6,8.2-5.8c128.7-77.1,114.4-126.2-42.9-147.2Z"/>
    <path class="st20" d="M414.3,62.3c.5,0,1,0,1.5,0-8.8,158.4-50.3,302.9-124.3,433.3l-5.6,8.3,4.4-9c74.8-130,116.2-274.2,124-432.7Z"/>
    <path class="st20" d="M416.7,62.4c.5,0,1,0,1.5,0-10.5,158.3,3.9,309.9,43.2,454.6l1.9,9.8-3.3-9.5c-38.4-145-52.8-296.7-43.3-455.1Z"/>
    <path class="st9" d="M253,485.2c-.4-.3-.8-.6-1.2-.9,100.4-122.8,171-112.1,211.8,32.2l2,9.8-3.4-9.4c-39.9-144.6-109.7-155.2-209.3-31.7Z"/>
    <path class="st25" d="M546.5,110.5c.4.3.8.6,1.2.9-96.8,125.7-220,184.3-369.8,175.8l-9.9-1.3h10c149.7,9.4,272.5-49.1,368.5-175.4Z"/>
    <path class="st25" d="M548.4,112c.4.3.8.6,1.2.9-98.1,124.7-107.7,250.9-29,378.6l4.6,8.9-5.8-8.2c-78-128.1-68.3-254.9,29-380.2Z"/>
    <path class="st4" d="M401.6,538c-.5,0-1,0-1.5,0,1.6-158.7-71.8-227-220.2-205.1l-10,.7,9.8-2.1c148.5-21,222.5,47.8,221.9,206.5Z"/>
    <path class="st1" d="M577.3,461.6c-.3.4-.7.7-1,1.1-115.8-108.4-237.4-123-364.8-43.8l-8.9,4.7,8.1-5.9c127.8-78.5,250-63.8,366.5,43.9Z"/>
    <path class="st1" d="M575.6,463.4c-.3.4-.7.7-1,1.1-114.7-109.6-103.5-194.9,33.6-255.9l9.4-3.4-8.9,4.7c-137.4,60.1-148.5,144.6-33.1,253.5Z"/>
    <path class="st5" d="M638.1,266.3c0,.5.1,1,.2,1.5-157.2,21.5-161,27.6-11.2,18.6h10c0,.1-9.9,1.4-9.9,1.4-149.8,8.1-146.1,1,10.9-21.5Z"/>
    <path class="st18" d="M489,521.7c-.5.2-1.1.4-1.6.6-56.6-148.2-157.5-241-302.8-278.4l-9.5-3.3,9.9,1.7c145,38.4,246.3,131.6,304,279.4Z"/>
    <path class="st20" d="M406.2,62c.6,0,1.1,0,1.7,0-3.6,158.6-79.9,246.4-228.9,263.4l-10,.3,9.9-1.9c149.2-15.9,224.9-103.2,227.4-261.8Z"/>
    <path class="st20" d="M408.9,62.1c.6,0,1.1,0,1.7,0-5.4,158.6-72.6,276.2-201.5,352.7l-9,4.4,8.2-5.8c129.5-75.6,196.4-192.8,200.6-351.4Z"/>
    <path class="st20" d="M411.6,62.2c.6,0,1.1,0,1.7,0-7.2,158.5-85.6,232.7-235.3,222.6l-9.9-1.5h10c149.6,11.1,227.4-62.6,233.4-221.2Z"/>
    <path class="st2" d="M544.6,490.9c-.5.3-.9.7-1.4,1-93.8-128-179.2-127.5-256,1.3l-5.8,8.2,4.5-9c77.8-128.3,164-128.8,258.8-1.5Z"/>
    <path class="st2" d="M542.4,492.5c-.5.3-.9.7-1.4,1-92.4-129-211.4-211.4-357.1-247.1l-9.5-3.2,9.9,1.6c145.4,36.8,264.8,119.4,358.1,247.7Z"/>
    <path class="st26" d="M354.1,533c-.6-.1-1.1-.2-1.7-.4,33.4-155.1-24.4-223.3-173.2-204.7l-10,.4,9.8-2c149-17.6,207.3,51.3,175.1,206.6Z"/>
    <path class="st25" d="M542.1,107.3c.5.3.9.7,1.4,1-94,127.8-209.8,161.8-347.3,101.8l-8.8-4.8,9.5,3.3c137.1,60.9,252.2,27.1,345.2-101.4Z"/>
    <path class="st25" d="M544.3,108.9c.5.3.9.7,1.4,1-95.5,126.7-216.2,173.1-362.3,139l-9.5-3.1,9.9,1.5c145.8,35.1,266-11,360.6-138.4Z"/>
    <path class="st8" d="M638.6,329.9c0,.6-.1,1.1-.2,1.7-157.3-21.1-273.6,33.2-349,162.9l-5.8,8.2,4.4-9c76.3-129.1,193.2-183.7,350.6-163.8Z"/>
    <path class="st7" d="M608.9,181.4c.3.5.6,1,.8,1.5-138.1,78.1-281.5,127.3-430.1,147.6l-10,.5,9.8-2.1c148.8-19.3,291.9-68.5,429.5-147.5Z"/>
    <path class="st1" d="M579.1,459.6c-.4.4-.8.8-1.2,1.3-116.9-107.2-197.1-89.1-240.5,54.5l-3.7,9.3,2.2-9.8c44.4-143.3,125.5-161.7,243.2-55.3Z"/>
    <path class="st18" d="M491.7,520.6c-.6.2-1.2.5-1.8.7-58.3-147.6-162.2-227.3-311.7-239.1l-9.9-1.7h10c149.4,12.9,253.9,93,313.4,240.1Z"/>
    <path class="st11" d="M184.4,395.3c-.3-.6-.5-1.2-.8-1.8,145.9-62.3,287.5-63.2,424.7-2.6l8.8,4.9-9.5-3.2c-136.7-61.7-277.8-60.8-423.2,2.7Z"/>
    <path class="st11" d="M183.2,392.6c-.3-.6-.5-1.2-.7-1.8,146.7-60.5,229.2-165.2,247.5-314.1l2.2-9.8-.4,10c-19.5,148.7-102.4,253.9-248.5,315.6Z"/>
    <path class="st2" d="M549.3,487.4c-.5.4-1,.8-1.5,1.2-96.8-125.7-128.1-115.5-94,30.5l1.3,10-3.1-9.5c-33-146.3-.6-157,97.3-32.1Z"/>
    <path class="st2" d="M547,489.1c-.5.4-1,.8-1.5,1.2-95.3-126.9-73.9-160.9,64-102l8.8,4.8-9.5-3.1c-137.5-60-158.1-27-61.7,99.1Z"/>
    <path class="st25" d="M537.3,103.9c.5.4,1.1.7,1.6,1.1-91,130-200.1,155.3-327.3,75.9l-8-6.1,9,4.6c126.6,80.4,234.9,55.3,324.8-75.5Z"/>
    <path class="st25" d="M539.8,105.6c.5.4,1.1.7,1.6,1.1-92.6,128.9-191.9,246.3-298.2,352.2l-7.8,6.4,6.5-7.7c107.1-105,206.4-222.4,297.9-352Z"/>
    <path class="st4" d="M407.4,537.9c-.6,0-1.3,0-1.9,0-2-158.7,15-165.2,51-19.6l1.5,9.9-3.2-9.5c-34.8-145.9-50.6-139.5-47.3,19.1Z"/>
    <path class="st4" d="M404.5,538c-.6,0-1.3,0-1.9,0,0-158.7-52.5-184.4-157.4-77.2l-7.7,6.5,6.4-7.8c105.8-106.3,159.3-80.2,160.7,78.5Z"/>
    <path class="st7" d="M605.9,176.4c.3.6.7,1.1,1,1.7-136.3,81.3-185.5,194.5-147.7,339.7l1.6,9.9-3.4-9.5c-36.6-145.5,12.9-259.4,148.5-341.8Z"/>
    <path class="st7" d="M607.4,178.9c.3.6.7,1.1,1,1.7-137.2,79.6-257.7,173.7-361.2,282.2l-7.6,6.6,6.3-7.8c104.5-107.6,225-201.8,361.6-282.6Z"/>
    <path class="st1" d="M581,457.4c-.4.5-.9,1-1.3,1.4-118.2-105.9-251.8-151.2-401.1-135.9h-10c0,0,9.9-1.8,9.9-1.8,149.3-14.1,283.5,31.3,402.5,136.3Z"/>
    <path class="st0" d="M629.9,370.2c-.2.7-.4,1.4-.6,2.1-151.2-48.2-267.6-9.3-349.3,116.5l-6.3,7.8,4.6-8.9c82.8-125.1,200-164.2,351.6-117.4Z"/>
    <path class="st20" d="M403,62c.7,0,1.4,0,2.2,0-1.8,158.7,65.6,269.1,202,331.4l8.7,5.1-9.5-3.3c-135.9-63.5-203.7-174.6-203.3-333.3Z"/>
    <path class="st11" d="M185.7,398.1c-.3-.7-.6-1.3-.9-2,145.1-64.1,177.7-32.7,97.7,94.2l-6.2,7.9,4.5-9c81.2-126.2,49.4-156.5-95.1-91.1Z"/>
    <path class="st26" d="M357.2,533.7c-.7-.1-1.4-.3-2.1-.4,31.6-155.5,85.3-168.5,161-39l4.1,9.2-5.9-8.1c-74.5-130.2-126.9-117.4-157.1,38.4Z"/>
    <path class="st25" d="M534.7,102.1c.6.4,1.2.8,1.8,1.2-89.4,131.1-199,234.2-328.8,309.3l-9.2,4.1,8.2-5.9c130.5-73.9,239.9-176.8,328-308.8Z"/>
    <path class="st4" d="M413.7,537.7c-.7,0-1.4,0-2.2,0-6-158.6-48.2-173.9-126.5-45.9l-6.1,8,4.4-9c79.5-127.2,123-111.6,130.4,46.9Z"/>
    <path class="st4" d="M410.6,537.9c-.7,0-1.4,0-2.2,0-3.9-158.6,32.8-173.7,110.2-45.2l4.2,9.1-6-8.1c-76.3-129.2-111.7-114.5-106.3,44.1Z"/>
    <path class="st5" d="M637.6,263.2c.1.7.2,1.4.3,2.1-157,23.1-242.1,109.3-255.3,258.8l-1.9,9.9v-10.1c14.5-149.3,100.1-236.2,256.9-260.7Z"/>
    <path class="st18" d="M494.8,519.4c-.7.3-1.5.6-2.2.9-60.1-146.8-131.8-157.9-215.1-33.2l-6.5,7.7,4.7-8.9c84.6-123.9,157.7-112.7,219.2,33.5Z"/>
    <path class="st11" d="M187.1,401.2c-.3-.7-.7-1.4-1-2.2,144.3-66,151-62.3,20.2,11l-9.3,3.9,8.2-5.8c131.6-72.1,125.5-74.4-18.1-6.9Z"/>
    <path class="st8" d="M639,326.6c0,.8-.2,1.6-.3,2.4-157.5-19.3-259.8,42.3-306.8,184.7l-4.3,9.1,2.1-9.8c48.5-141.9,151.6-204.1,309.3-186.3Z"/>
    <path class="st7" d="M602.3,170.7c.4.7.9,1.3,1.3,2-134,84.9-223.6,198.9-268.6,341.9l-4.1,9.2,2-9.9c46.5-142.6,136.3-257,269.5-343.3Z"/>
    <path class="st7" d="M604.1,173.5c.4.7.8,1.4,1.3,2-135.2,83-129.8,141.4,16.3,175.4l9.5,3.4-10-1.2c-145.8-35.4-151.4-95.3-17-179.6Z"/>
    <path class="st1" d="M585.4,452.3c-.5.6-1,1.2-1.5,1.8-120.9-102.7-235.1-101.8-342.7,2.8l-8,6.1,6.4-7.8c108.6-103.5,223.8-104.5,345.8-3Z"/>
    <path class="st1" d="M583.2,454.8c-.5.6-1,1.2-1.6,1.8-119.5-104.4-105.9-140.7,40.7-108.8l9.5,3.3-10-1.1c-146.2-33.3-159.1,1.6-38.6,104.8Z"/>
    <path class="st25" d="M528.7,98.2c.7.5,1.5.9,2.2,1.4-85.6,133.6-170.9,262.2-256,385.7l-6.7,7.5,4.7-8.9c86.4-122.6,171.7-251.1,255.9-385.7Z"/>
    <path class="st25" d="M531.7,100.1c.7.5,1.5,1,2.2,1.4-87.6,132.3-156,269.3-205,411l-4.5,9,2.2-9.8c50.6-141.2,119-278.4,205.2-411.7Z"/>
    <path class="st1" d="M587.7,449.5c-.5.7-1.1,1.4-1.7,2-122.4-101-115.7-119.5,19.9-55.4l8.5,5.4-9.6-3.2c-134.9-65.6-140.6-48.5-17.2,51.1Z"/>
    <path class="st5" d="M636.4,256.1c.2.9.3,1.7.5,2.6-156.3,27.5-161.6,59.3-16,95.3l9.4,3.7-10-1.3c-145.2-37.6-139.8-71.1,16.1-100.3Z"/>
    <path class="st5" d="M637.1,259.7c.1.9.3,1.7.4,2.6-156.7,25.2-184.4,93.1-83.2,203.9l5.8,8.3-7.6-6.6c-100-111.8-71.7-181.2,84.6-208.1Z"/>
    <path class="st11" d="M188.7,404.7c-.4-.8-.8-1.7-1.2-2.6,143.3-68.1,230-28.6,260,118.3l.6,10.1-3.3-9.6c-28.3-147.3-113.7-186.1-256.2-116.3Z"/>
    <path class="st26" d="M361,534.4c-.9-.2-1.9-.3-2.8-.5,29.5-155.9,111.6-200.8,246.3-134.7l8.4,5.7-9.6-3.3c-133.8-67.7-214.6-23.5-242.3,132.8Z"/>
    <path class="st8" d="M639.7,318.9c0,.9-.2,1.9-.2,2.8-158-14.5-220.8,51.5-188.4,197.9l.8,10.1-3.4-9.5c-30.6-146.8,33.1-213.9,191.3-201.3Z"/>
    <path class="st8" d="M639.4,322.8c0,.9-.2,1.9-.3,2.8-157.7-17.1-291.1,25.9-400.1,129l-8.2,5.8,6.4-7.8c110.2-101.7,244.3-145,402.2-129.9Z"/>
    <path class="st5" d="M635.7,252.4c.2.9.4,1.9.6,2.8-155.8,29.9-196.7,110.1-122.7,240.6l3.7,9.4-6.1-8.1c-72.4-131.4-30.9-212.9,124.5-244.7Z"/>
    <path class="st25" d="M525.2,96.1c.9.5,1.7,1.1,2.6,1.6-83.6,134.9-111.5,276-83.9,423.5l.4,10.1-3.2-9.6c-25.8-147.8,2.3-289.6,84.1-425.6Z"/>
    <path class="st8" d="M640,314.9c0,1-.1,2-.2,3.1-158.2-12-201.4,47.9-129.5,179.5l3.5,9.5-6-8.1c-70.2-132.6-26.1-193.9,132.3-184Z"/>
    <path class="st7" d="M600.1,167.3c.6.8,1.1,1.7,1.7,2.6-132.8,86.8-132.5,164.3,1.1,232.6l8.2,5.9-9.5-3.3c-132.7-70-133.2-149.2-1.4-237.7Z"/>
    <path class="st8" d="M640.3,310.6c0,1.1-.1,2.2-.2,3.3-158.4-9.3-171.4,21.4-39,91.9l8.1,6.1-9.5-3.4c-131.4-72.4-117.8-105,40.7-97.9Z"/>
    <path class="st4" d="M418,537.5c-1.1,0-2.2.1-3.3.2-8.1-158.5,37.3-294,136.3-406.7l7.8-6.4-5.5,8.5c-100.5,111.3-145.6,246.1-135.3,404.5Z"/>
    <path class="st7" d="M597.6,163.7c.6.9,1.2,1.8,1.9,2.7-131.3,89-162.2,200-92.5,332.8l3.2,9.6-6-8.2c-67.8-133.8-36.6-246.1,93.4-337Z"/>
    <path class="st2" d="M552.8,484.5c-.9.7-1.8,1.5-2.7,2.2-98.4-124.5-136.1-260.9-113.1-409.1l3.2-9.6v10.1c-25.1,147.9,12.4,283.3,112.6,406.4Z"/>
    <path class="st9" d="M256.6,488c-.9-.7-1.8-1.4-2.8-2.2,99.1-123.9,158.8-260.2,178.9-408.8l3.1-9.7.2,10.1c-22.3,148.3-82.1,285.2-179.4,410.5Z"/>
    <path class="st8" d="M640.4,306.1c0,1.2,0,2.3-.1,3.5-158.5-6.4-187.3-65.1-86.3-176l8-6.2-5.6,8.5c-102.6,109.4-74.6,166.1,84,170.2Z"/>
    <path class="st5" d="M634.7,247.7c.3,1.2.5,2.4.8,3.7-155.3,32.4-258.6,119.1-309.8,260.1l-5.1,8.8,1.8-10c53.4-140.2,157.6-227.7,312.4-262.5Z"/>
    <path class="st5" d="M633.6,242.9c.3,1.3.6,2.6.9,3.9-154.6,35.5-287.3,103.9-397.9,205.2l-8.7,5.3,6.2-8.1c112.3-99.4,245.5-168.2,399.5-206.2Z"/>
    <path class="st5" d="M632.3,237.9c.4,1.3.7,2.7,1.1,4.1-153.9,38.7-162,28.3-24.3-31.2l10-2.1-8.5,5.7c-138.7,57.1-131.5,64.9,21.7,23.5Z"/>
    <path class="st25" d="M520.6,93.3c1.3.7,2.5,1.5,3.8,2.2-81.2,136.3-57.2,242.4,72.2,318.2l7.5,6.9-9.7-3.4c-128-78.3-152.6-186.3-73.9-324.1Z"/>
    <path class="st4" d="M423.4,537.1c-1.5.1-2.9.2-4.4.3-11-158.3,49-201,180.1-128.1l7.7,6.8-9.7-3.1c-129.7-75.3-187.6-34-173.7,124.1Z"/>
    <path class="st1" d="M591.3,444.9c-1,1.3-2,2.6-3,3.8-123.9-99.1-152.2-81.7-85,52.4l2.3,10-6.5-8c-64.5-135.4-33.8-154.9,92.1-58.3Z"/>
    <path class="st7" d="M593.8,158.4c1.1,1.5,2.2,3,3.2,4.5-129.7,91.4-141.5,84-35.5-22.1l9-5.1-5.3,8.9c-108.5,103.6-98.9,108.2,28.6,13.8Z"/>
    <path class="st1" d="M595.2,439.6c-1.1,1.5-2.2,3-3.3,4.5-126.3-96.1-137.9-198.6-34.8-307.5l8.8-5.4-5.1,9c-105.6,106.5-94.1,206.4,34.4,299.4Z"/>
    <path class="st26" d="M368.6,535.6c-2.2-.3-4.4-.7-6.6-1,27-156.3,55.8-308,86.3-454.8l5.3-9.1.9,10.5c-34.6,146-63.2,297.5-85.8,454.5Z"/>
    <path class="st1" d="M599.6,433.4c-1.2,1.8-2.5,3.7-3.8,5.5-128.9-92.5-180.4-212.7-154.7-360.5l5-9.3,1.2,10.4c-29.9,147,20.9,264.9,152.3,353.8Z"/>
    <path class="st8" d="M640.5,298c0,2.4,0,4.7,0,7.1-158.6-3.4-220.3-78-185.1-223.8l5.8-8.9.8,10.5c-39.5,144.7,20,216.4,178.7,215Z"/>
    <path class="st5" d="M629.9,229.7c.7,2.4,1.5,4.8,2.1,7.3-153,42-175,11.5-66.1-91.7l9.8-4.1-5,9.4c-112.1,99.6-92.4,126,59.2,79.1Z"/>
    <path class="st4" d="M432.6,536.1c-2.7.3-5.5.6-8.2.9-14.6-158-1.8-309.3,38.3-453.8l6.6-8.5.9,10.7c-45.1,143-57.7,293.3-37.6,450.7Z"/>
    <path class="st25" d="M512.3,88.8c2.5,1.3,5,2.6,7.4,4-78.1,138.1-94.3,135.7-48.6-7.1l7-8.2.6,10.8c-50.8,141.1-39.6,141.3,33.6.5Z"/>
    <path class="st7" d="M587.5,150.2c2,2.4,3.9,4.9,5.8,7.4-127.2,94.9-165,71.9-113.7-69l7.8-7.8.5,11c-56.9,138.8-23.7,158.3,99.6,58.4Z"/>
    <path class="st5" d="M626.5,219.6c1.1,3,2.1,6,3.1,9.1-151.4,47.5-198.3,2-140.9-136.6l8.2-7.4v11c-62.9,136.1-19.7,177.4,129.6,123.8Z"/>
  </g>
  <g>
    <g id="_x31_980">
      <text class="st47" transform="translate(265.7 44) rotate(62.6)"><tspan x="0" y="0">1980</tspan></text>
    </g>
    <g id="_x31_979">
      <text class="st47" transform="translate(116.8 351.3) rotate(-9.5)"><tspan x="0" y="0">1979</tspan></text>
    </g>
    <g id="_x31_981">
      <text class="st47" transform="translate(374.4 11.1) rotate(85.1)"><tspan x="0" y="0">1981</tspan></text>
    </g>
    <g id="_x31_990">
      <text class="st47" transform="translate(334.8 17.7) rotate(77.2)"><tspan x="0" y="0">1990</tspan></text>
    </g>
    <g id="_x31_992">
      <text class="st47" transform="translate(283.2 35.4) rotate(66.4)"><tspan x="0" y="0">1992</tspan></text>
    </g>
    <g id="_x31_995">
      <text class="st47" transform="translate(386.8 10.2) rotate(87.6)"><tspan x="0" y="0">1995</tspan></text>
    </g>
    <g id="_x31_997">
      <text class="st47" transform="translate(362 12.6) rotate(82.7)"><tspan x="0" y="0">1997</tspan></text>
    </g>
    <g id="_x31_998">
      <text class="st47" transform="translate(248.5 54) rotate(58.6)"><tspan x="0" y="0">1998</tspan></text>
    </g>
    <g id="_x31_999">
      <text class="st47" transform="translate(189.2 103.1) rotate(43.4)"><tspan x="0" y="0">1999</tspan></text>
    </g>
    <g id="_x32_000">
      <text class="st47" transform="translate(231.1 65.8) rotate(54.5)"><tspan x="0" y="0">2000</tspan></text>
    </g>
    <g id="_x32_002">
      <text class="st47" transform="translate(163.3 464.4) rotate(-33.8)"><tspan x="0" y="0">2002</tspan></text>
    </g>
    <g id="_x32_003">
      <text class="st47" transform="translate(300.7 28.2) rotate(70.2)"><tspan x="0" y="0">2003</tspan></text>
    </g>
    <g id="_x32_005">
      <text class="st47" transform="translate(263.3 554.7) rotate(-60.7)"><tspan x="0" y="0">2005</tspan></text>
    </g>
    <g id="_x32_006">
      <text class="st47" transform="translate(129.8 200.6) rotate(20.7)"><tspan x="0" y="0">2006</tspan></text>
    </g>
    <g id="_x32_007">
      <text class="st47" transform="translate(117.1 246.9) rotate(11.2)"><tspan x="0" y="0">2007</tspan></text>
    </g>
    <g id="_x32_008">
      <text class="st47" transform="translate(211 81.8) rotate(49.4)"><tspan x="0" y="0">2008</tspan></text>
    </g>
    <g id="_x32_009">
      <text class="st47" transform="translate(112.2 297.9) rotate(1.1)"><tspan x="0" y="0">2009</tspan></text>
    </g>
    <g id="_x32_010">
      <text class="st47" transform="translate(168.7 128) rotate(37)"><tspan x="0" y="0">2010</tspan></text>
    </g>
    <g id="_x32_011">
      <text class="st47" transform="translate(474.6 558.1) rotate(73.6)"><tspan x="0" y="0">2011</tspan></text>
    </g>
    <g id="_x32_012">
      <text class="st47" transform="translate(148.2 160.1) rotate(29.5)"><tspan x="0" y="0">2012</tspan></text>
    </g>
    <g id="_x32_013">
      <text class="st47" transform="translate(645.3 413.5) rotate(24.3)"><tspan x="0" y="0">2013</tspan></text>
    </g>
    <g id="_x32_014">
      <text class="st47" transform="translate(463.8 39.1) rotate(-77.5)"><tspan x="0" y="0">2014</tspan></text>
    </g>
    <g id="_x32_015">
      <text class="st47" transform="translate(133.1 408) rotate(-21.2)"><tspan x="0" y="0">2015</tspan></text>
    </g>
    <g id="_x32_016">
      <text class="st47" transform="translate(542.8 528.4) rotate(57.7)"><tspan x="0" y="0">2016</tspan></text>
    </g>
    <g id="_x32_017">
      <text class="st47" transform="translate(206.5 514.1) rotate(-46.8)"><tspan x="0" y="0">2017</tspan></text>
    </g>
    <g id="_x32_018">
      <text class="st47" transform="translate(333 581.8) rotate(-75.5)"><tspan x="0" y="0">2018</tspan></text>
    </g>
    <g id="_x32_019">
      <text class="st47" transform="translate(570 90.7) rotate(-52.1)"><tspan x="0" y="0">2019</tspan></text>
    </g>
    <g id="_x31_986">
      <text class="st47" transform="translate(349.4 14.6) rotate(80.2)"><tspan x="0" y="0">1986</tspan></text>
    </g>
    <g id="_x32_020">
      <text class="st47" transform="translate(668.1 336.2) rotate(7)"><tspan x="0" y="0">2020</tspan></text>
    </g>
    <g id="_x32_021">
      <text class="st47" transform="translate(403 568) rotate(89.2)"><tspan x="0" y="0">2021</tspan></text>
    </g>
    <g id="_x32_022">
      <text class="st47" transform="translate(634.8 166.3) rotate(-30.7)"><tspan x="0" y="0">2022</tspan></text>
    </g>
    <g id="_x32_023">
      <text class="st47" transform="translate(602 479) rotate(41.1)"><tspan x="0" y="0">2023</tspan></text>
    </g>
    <g id="_x32_024">
      <text class="st47" transform="translate(665.9 250.4) rotate(-11.4)"><tspan x="0" y="0">2024</tspan></text>
    </g>
    <g id="_x32_025">
      <text class="st47" transform="translate(317.9 22.3) rotate(73.8)"><tspan x="0" y="0">2025</tspan></text>
    </g>
  </g>
</svg>