<svg xmlns="http://www.w3.org/2000/svg" width="805" height="600"><rect width="805" height="600" x="0" y="0" fill="#FFFFFF" id="background"/><g transform="translate(402.5,300)" id="chord_diagram"><g><g><path fill="#b5dba5" d="M1.5308084989341916e-14,-250A250,250,0,1,1,-20.500048627074257,249.15807834844045L-19.680046681991286,239.19175521450282A240,240,0,1,0,1.469576158976824e-14,-240Z"/></g><g><path fill="#cb7729" d="M-30.860838947651235,248.0879050245036A250,250,0,0,1,-242.23649030288166,61.81814269081459L-232.5470306907664,59.345416983182005A240,240,0,0,0,-29.626405389745184,238.16438882352347Z"/></g><g><path fill="#f4a988" d="M-244.60125670203834,51.674222004627744A250,250,0,0,1,-235.86811247631414,-82.86273901374987L-226.4333879772616,-79.54822945319987A240,240,0,0,0,-234.8172064339568,49.60725312444263Z"/></g><g><path fill="#c04e3f" d="M-232.2117802790952,-92.61581452221436A250,250,0,0,1,-187.77534537266925,-165.04671965893408L-180.26433155776246,-158.44485087257672A240,240,0,0,0,-222.9233090679314,-88.91118194132578Z"/></g><g><path fill="#f4e1a1" d="M-180.737412553721,-172.72517970286225A250,250,0,0,1,-116.50337365197801,-221.19440302075367L-111.84323870589888,-212.3466268999235A240,240,0,0,0,-173.50791605157215,-165.81617251474776Z"/></g><g><path fill="#339999" d="M-107.18848998307874,-225.85532452246377A250,250,0,0,1,-57.70550163038564,-243.24899811013725L-55.39728156517021,-233.51903818573177A240,240,0,0,0,-102.90095038375559,-216.82111154156522Z"/></g><g><path fill="#998250" d="M-47.52297480941946,-245.4415752582746A250,250,0,0,1,-41.058623915916804,-246.60533125245144L-39.416278959280135,-236.74111800235337A240,240,0,0,0,-45.62205581704268,-235.62391224794362Z"/></g><g><path fill="#f7a7a1" d="M-14.691973685902616,-249.56791842945827A250,250,0,0,1,-10.413652846504228,-249.78301750597956L-9.997106732644058,-239.79169680574037A240,240,0,0,0,-14.10429473846651,-239.58520169227995Z"/></g><g><path fill="#005f56" d="M-30.750738666402064,-248.1015761164581A250,250,0,0,1,-25.074876738129685,-248.73932249760512L-24.071881668604497,-238.7897495977009A240,240,0,0,0,-29.520709119745984,-238.17751307179975Z"/></g></g><g fill-opacity="0.7"><path fill="#f4a988" d="M-238.88837842915058,7.303605376178984Q0,0,-25.348468853920533,-213.50048039000245L-27.706465956610813,-233.3609901937236L-25.348468853920533,-213.50048039000245Q0,0,-238.88837842915058,7.303605376178984Z"/><path fill="#f4e1a1" d="M-131.23900152265603,-199.74314626373615Q0,0,-189.84291204412142,-100.91911982676014L-207.5027178156676,-110.30694492692388L-189.84291204412142,-100.91911982676014Q0,0,-131.23900152265603,-199.74314626373615Z"/><path fill="#f4e1a1" d="M-131.01074124776454,-199.8929355372803Q0,0,-72.10819437629337,-202.54729892988132L-78.81593338804159,-221.38890813266096L-72.10819437629337,-202.54729892988132Q0,0,-131.01074124776454,-199.8929355372803Z"/><path fill="#998250" d="M-44.225183392186025,-234.8725891923694Q0,0,-118.2653743336087,-179.55027494752383L-129.26680450417695,-196.25262610543302L-118.2653743336087,-179.55027494752383Q0,0,-44.225183392186025,-234.8725891923694Z"/><path fill="#998250" d="M-43.956850112967835,-234.9229561540253Q0,0,-72.33952526965116,-202.46479467739942L-79.06878343426987,-221.2987290659947L-72.33952526965116,-202.46479467739942Q0,0,-43.956850112967835,-234.9229561540253Z"/><path fill="#f7a7a1" d="M-13.909250798029749,-238.5949134877722Q0,0,-118.87263890906328,179.14880886792258L-129.93055880758078,195.8138143440084L-118.87263890906328,179.14880886792258Q0,0,-13.909250798029749,-238.5949134877722Z"/><path fill="#005f56" d="M-27.906931836521093,-237.36512624113882Q0,0,-118.47040468351715,-179.4150584932148L-129.49090744477456,-196.10483137630453L-118.47040468351715,-179.4150584932148Q0,0,-27.906931836521093,-237.36512624113882Z"/><path fill="#005f56" d="M-27.63576187897152,-237.39685058013887Q0,0,-72.57076176414026,-202.3820262201473L-79.32153030033936,-221.2082612173703L-72.57076176414026,-202.3820262201473Q0,0,-27.63576187897152,-237.39685058013887Z"/><path fill="#b5dba5" d="M228.541143977578,69.92814533090346Q0,0,-25.71426684505475,-213.45673210424007L-28.106291667850538,-233.31317229998334L-25.71426684505475,-213.45673210424007Q0,0,228.541143977578,69.92814533090346Z"/><path fill="#339999" d="M-79.77155435350329,-225.2942500731567Q0,0,-40.14614486812647,-211.21857648471027L-43.88066997213823,-230.86681615770658L-40.14614486812647,-211.21857648471027Q0,0,-79.77155435350329,-225.2942500731567Z"/><path fill="#998250" d="M-43.554242751466845,-234.99793177461436Q0,0,-40.628606759823306,-211.12630417064483L-44.40801203980687,-230.7659603725653L-40.628606759823306,-211.12630417064483Q0,0,-43.554242751466845,-234.99793177461436Z"/><path fill="#f7a7a1" d="M-13.500395612643349,-238.61839685636588Q0,0,-118.77766025548493,-179.2117948803387L-129.82674493041375,-195.8826595203702L-118.77766025548493,-179.2117948803387Q0,0,-13.500395612643349,-238.61839685636588Z"/><path fill="#005f56" d="M-27.22893943500383,-237.44385622130739Q0,0,-26.2018798696394,-213.39742615902608L-28.63926404355934,-233.2483495226564L-26.2018798696394,-213.39742615902608Q0,0,-27.22893943500383,-237.44385622130739Z"/><path fill="#f4e1a1" d="M-130.55370811190068,-200.19173134331157Q0,0,-214.88401565371947,7.061148386207814L-234.87322641220499,7.717999398878309L-214.88401565371947,7.061148386207814Q0,0,-130.55370811190068,-200.19173134331157Z"/><path fill="#339999" d="M-79.12782303246979,-225.52114672939683Q0,0,-190.07298438081878,-100.48512630518519L-207.75419223019728,-109.83257991496986L-190.07298438081878,-100.48512630518519Q0,0,-79.12782303246979,-225.52114672939683Z"/><path fill="#998250" d="M-42.88294688750542,-235.1213577415786Q0,0,-118.46303112498988,179.4199271448957L-129.48284797382615,196.1101529258162L-118.46303112498988,179.4199271448957Q0,0,-42.88294688750542,-235.1213577415786Z"/><path fill="#f7a7a1" d="M-12.818882810393113,-238.65597885553467Q0,0,-214.85855514377508,7.79751765175097L-234.8453974827309,8.522868130983618L-214.85855514377508,7.79751765175097Q0,0,-12.818882810393113,-238.65597885553467Z"/><path fill="#339999" d="M-78.27098608872627,-225.81995646244027A239,239,0,0,1,-78.18004306006596,-225.85145752712384Q0,0,-214.82391462100358,8.699753267062324L-234.8094444484997,9.461754477205925L-214.8274005542552,8.613243936031623Q0,0,-78.27098608872627,-225.81995646244027Z"/><path fill="#005f56" d="M-26.46288266020184,-237.53045245044348A239,239,0,0,1,-26.367228068095596,-237.54108967503925Q0,0,-117.70850762416103,179.9158337470408L-128.6977291101522,196.62628136108833L-117.78094937838243,179.8684184717454Q0,0,-26.46288266020184,-237.53045245044348Z"/><path fill="#c04e3f" d="M-210.73614161761571,-112.74430635788316A239,239,0,0,1,-210.43239460312253,-113.31022593568389Q0,0,-73.65082173948262,-201.99147619911824L-80.20532702727279,-220.8893512970877L-73.107729270975,-202.18867406667917Q0,0,-210.73614161761571,-112.74430635788316Z"/><path fill="#f4e1a1" d="M-129.79267210181206,-200.6859792528404A239,239,0,0,1,-129.023151625976,-201.18157555924552Q0,0,-116.26608364530179,180.85131405047542L-127.45981915180076,197.4309866808912L-116.95783871224246,180.40472267587973Q0,0,-129.79267210181206,-200.6859792528404Z"/><path fill="#005f56" d="M-25.377247509796643,-237.64889082178885A239,239,0,0,1,-24.466935598949423,-237.74433550012682Q0,0,206.03011192683894,61.453990752547725L225.0666686737033,67.60173557033478L205.79325020669597,62.24257521475339Q0,0,-25.377247509796643,-237.64889082178885Z"/><path fill="#339999" d="M-77.23831939808109,-226.17524625068944A239,239,0,0,1,-76.11281293928785,-226.55648237573996Q0,0,-120.24278291862326,-178.23207667528547L-130.94344467008008,-195.13793659340993L-119.35512012015285,-178.82772520250847Q0,0,-77.23831939808109,-226.17524625068944Z"/><path fill="#c04e3f" d="M-209.95844336037854,-114.1860414485357A239,239,0,0,1,-209.25634405146894,-115.46766852332844Q0,0,-214.72312009289456,10.90787319198339L-234.7327166081925,11.204987895486127L-214.78580096571685,9.594774802749011Q0,0,-209.95844336037854,-114.1860414485357Z"/><path fill="#f7a7a1" d="M-11.912653031023636,-238.70292980556908A239,239,0,0,1,-10.452914666548017,-238.77130601262346Q0,0,206.6510246389534,59.332571288211355L225.67505540254535,65.54211904613767L206.2843810274872,60.59500098280779Q0,0,-11.912653031023636,-238.70292980556908Z"/><path fill="#cb7729" d="M-132.670312544068,198.7953424239595A239,239,0,0,1,-134.1094125462117,197.82736278510612Q0,0,-191.17207084023866,-98.37804292958245L-208.56398798494925,-108.28694711651055L-190.4531397815894,-99.76272624249181Q0,0,-132.670312544068,198.7953424239595Z"/><path fill="#f4a988" d="M-238.90692420342032,6.669450326764604A239,239,0,0,1,-238.94903181507144,4.935604789686482Q0,0,-192.28338538507683,-96.18783553471833L-209.78735873845866,-105.89742260103051L-191.5803186889877,-97.58064096441427Q0,0,-238.90692420342032,6.669450326764604Z"/><path fill="#339999" d="M-75.16816962694702,-226.87165154539366A239,239,0,0,1,-73.51985658120181,-227.41114899731613Q0,0,-75.9533966387963,-201.136972083776L-82.22059662543055,-220.14716325803118L-74.49181112591417,-201.68284526746723Q0,0,-75.16816962694702,-226.87165154539366Z"/><path fill="#998250" d="M-41.989920779504516,-235.28248246083032A239,239,0,0,1,-39.743114544045,-235.67241002361502Q0,0,207.44491942752686,56.49429532003107L226.4449527399355,62.830592696618545L206.8964491275506,58.471012804729725Q0,0,-41.989920779504516,-235.28248246083032Z"/><path fill="#f4a988" d="M-238.9675225681785,3.9399438609060162A239,239,0,0,1,-238.99597710993115,1.3866958099288185Q0,0,-122.87624945757126,-176.42683276429557L-133.27456601332335,-193.55332612476676L-120.98437064996737,-177.7295193782713Q0,0,-238.9675225681785,3.9399438609060162Z"/><path fill="#339999" d="M-72.57167467651104,-227.7155067944356A239,239,0,0,1,-69.87367611158764,-228.55780316290438Q0,0,-113.3590256014092,182.68752369743L-125.08260630892539,198.94557446439057L-115.5115294310874,181.33418477631577Q0,0,-72.57167467651104,-227.7155067944356Z"/><path fill="#cb7729" d="M-134.9325266968917,197.26685793410056A239,239,0,0,1,-137.70259070006685,195.343278651941Q0,0,-79.61677631719623,-199.71521957241401L-85.48068976153324,-218.90192250844328L-76.79080561411567,-200.8187545353648Q0,0,-134.9325266968917,197.26685793410056Z"/><path fill="#f4a988" d="M-238.99968037756534,0.39087008277608254A239,239,0,0,1,-238.98140196029982,-2.9815293206015303Q0,0,-83.2535595470778,-198.22675102705279L-89.46715800880142,-217.3030778379086L-80.44822954073453,-199.38175032776016Q0,0,-238.99968037756534,0.39087008277608254Z"/><path fill="#c04e3f" d="M-208.77341369937798,-116.33856511195405A239,239,0,0,1,-207.11105550996814,-119.2728413577328Q0,0,-194.0092390425935,-92.65751543244518L-211.33679056920852,-102.77042839215227L-192.6824977492727,-95.38582211786782Q0,0,-208.77341369937798,-116.33856511195405Z"/><path fill="#c04e3f" d="M-206.61228893921296,-120.13476623900004A239,239,0,0,1,-204.04846518248075,-124.43963941073577Q0,0,-127.27085050130663,-173.2833823904475L-137.11699507903967,-190.8505427304167L-123.61029250113128,-175.9133183922831Q0,0,-206.61228893921296,-120.13476623900004Z"/><path fill="#f4a988" d="M-238.96690446907508,-3.9772563995737933A239,239,0,0,1,-238.8205933785989,-9.258735242673362Q0,0,-214.3624524763766,16.54505872800648L-234.48872250215243,15.493192676416271L-214.67580683949367,11.802455584004882Q0,0,-238.96690446907508,-3.9772563995737933Z"/><path fill="#f4e1a1" d="M-128.18377749563936,-201.7174241034929A239,239,0,0,1,-123.45972679722625,-204.6428495187512Q0,0,-131.97319423252983,-169.7294199720925L-142.08346920196854,-187.18249859303955L-127.99175772535077,-172.75158452059165Q0,0,-128.18377749563936,-201.7174241034929Z"/><path fill="#c04e3f" d="M-203.52819693374428,-125.28875868528272A239,239,0,0,1,-200.4119329385551,-130.21542587509396Q0,0,-108.09622659486426,185.84995506039746L-120.62030070001134,201.68228246189312L-112.5968457706461,183.15826577717243Q0,0,-203.52819693374428,-125.28875868528272Z"/><path fill="#cb7729" d="M-138.5153233394034,194.76782383181396A239,239,0,0,1,-144.3148824930269,190.51040572898856Q0,0,-213.669694284045,23.880153780132048L-233.91234982755324,22.583458507331212L-214.29165414866338,17.438089408809375Q0,0,-138.5153233394034,194.76782383181396Z"/><path fill="#b5dba5" d="M228.31438999580772,70.66497945122617A239,239,0,0,1,225.36627267074428,79.56785244365805Q0,0,-91.77724417384184,-194.42720347691838L-96.12586475548355,-214.44071004594832L-84.07877926703603,-197.8781414835025Q0,0,228.31438999580772,70.66497945122617Z"/><path fill="#cb7729" d="M-145.1074208218346,189.90744172473862A239,239,0,0,1,-154.12195363028255,182.6675214951608Q0,0,-140.70581093149428,-162.56344844432462L-149.45184206451134,-181.35365147557508L-132.67925250378158,-169.17805991037304Q0,0,-145.1074208218346,189.90744172473862Z"/><path fill="#f4e1a1" d="M-122.605979027337,-205.15548714754914A239,239,0,0,1,-111.81752870799869,-211.229354668417Q0,0,210.2806240665679,44.800213639833714L228.4961854640396,54.90440081071123L207.67851090903795,55.62945358894508Q0,0,-122.605979027337,-205.15548714754914Z"/><path fill="#f4a988" d="M-238.77994233428464,-10.25373779827139A239,239,0,0,1,-237.82279992992468,-23.692104876751884Q0,0,-96.6529335355573,192.05002066902034L-111.5183838389644,206.8541758484595L-107.32091568883581,186.2987414227745Q0,0,-238.77994233428464,-10.25373779827139Z"/><path fill="#339999" d="M-68.92074814585769,-228.8469586317792A239,239,0,0,1,-55.6508104105924,-232.4306074953217Q0,0,212.64248098692804,31.75177600897233L231.32907571467064,41.374614548007244L210.46546573327637,43.92365801791871Q0,0,-68.92074814585769,-228.8469586317792Z"/><path fill="#b5dba5" d="M225.0327846099043,80.50618517053469A239,239,0,0,1,219.8187271907962,93.81219097866929Q0,0,-199.5357611111674,-80.0654734438455L-215.38327547577367,-93.99491818884142L-194.39362680091236,-91.84834162459121Q0,0,225.0327846099043,80.50618517053469Z"/><path fill="#b5dba5" d="M219.42593604683498,94.72728535100265A239,239,0,0,1,210.2103629613265,113.72160438398403Q0,0,-155.12437175946837,-148.86715314746314L-162.2024284654218,-170.04520634207753L-141.38193527058746,-161.97576478949998Q0,0,219.42593604683498,94.72728535100265Z"/><path fill="#b5dba5" d="M209.7346995740295,114.59649119668364A239,239,0,0,1,198.49991940233,133.11191530914314Q0,0,-210.44920717395556,44.00149088216829L-231.96873924366415,37.62318452370761L-213.56833916223277,24.770234304211023Q0,0,209.7346995740295,114.59649119668364Z"/><path fill="#c04e3f" d="M-199.86763054959303,-131.0493428388383A239,239,0,0,1,-179.84155841997028,-157.4103359537626Q0,0,214.9968277189433,1.167934412117416L234.34385075283294,17.548778143619092L212.77293381862344,30.86549261255502Q0,0,-199.86763054959303,-131.0493428388383Z"/><path fill="#b5dba5" d="M197.94356493962937,133.93784042977072A239,239,0,0,1,173.2720693067277,164.61406379214552Q0,0,-62.96013724454293,205.574855267244L-87.0884638740695,218.26726612127365L-95.85188843157363,192.45107296167814Q0,0,197.94356493962937,133.93784042977072Z"/><path fill="#cb7729" d="M-154.88172823863627,182.0237628932366A239,239,0,0,1,-183.0122152785603,153.71248829823134Q0,0,-26.984754407117137,213.29984301350896L-48.85811328802026,229.864927220172L-62.10303129789316,205.83540391199205Q0,0,-154.88172823863627,182.0237628932366Z"/><path fill="#f4a988" d="M-237.72201868087066,-24.682824682191118A239,239,0,0,1,-225.65446101891803,-78.74683626826919Q0,0,209.28756930331932,-49.23122317298552L233.45091959170404,-26.938228259997654L214.99982780903895,0.27210675038678034Q0,0,-237.72201868087066,-24.682824682191118Z"/><path fill="#cb7729" d="M-183.65109348119276,152.94860529982674A239,239,0,0,1,-231.45446112799993,59.58047015547266Q0,0,167.49033319594463,-134.80351733508832L210.94208523576677,-103.57816698699835L209.0806230705684,-50.10282483476259Q0,0,-183.65109348119276,152.94860529982674Z"/><path fill="#b5dba5" d="M172.58467526325194,165.3345997191086A239,239,0,0,1,-19.101764476607922,238.23543521877724Q0,0,0.44791634265298,-214.99953342030764L101.26636316794476,-212.06160352769643L166.9271995919101,-135.50022153635987Q0,0,172.58467526325194,165.3345997191086Z"/></g><g><g id="Empirical Estimates and Determinants" transform="rotate(2.3517731371114223) translate(250,0)"><text x="8" dy="0.35em" style="font-family: Arial, sans-serif; font-size: 10px; fill: black; font-weight: bold;">Empirical Estimates and Determinants</text></g><g id="Intergenerational Wealth Mobility and Inheritance" transform="rotate(131.38734747506365) translate(250,0)"><text x="8" dy="0.35em" transform="rotate(180) translate(-16)" text-anchor="end" style="font-family: Arial, sans-serif; font-size: 10px; fill: black; font-weight: bold;">Intergenerational Wealth Mobility and Inheritance</text></g><g id="Measurement and Methodological Advances" transform="rotate(183.71400748509626) translate(250,0)"><text x="8" dy="0.35em" transform="rotate(180) translate(-16)" text-anchor="end" style="font-family: Arial, sans-serif; font-size: 10px; fill: black; font-weight: bold;">Measurement and Methodological Advances</text></g><g id="Policy, Institutional, and Geographic Impacts" transform="rotate(211.5291586079224) translate(250,0)"><text x="8" dy="0.35em" transform="rotate(180) translate(-16)" text-anchor="end" style="font-family: Arial, sans-serif; font-size: 10px; fill: black; font-weight: bold;">Policy, Institutional, and Geographic Impacts</text></g><g id="Theoretical and Structural Models" transform="rotate(232.96280875210346) translate(250,0)"><text x="8" dy="0.35em" transform="rotate(180) translate(-16)" text-anchor="end" style="font-family: Arial, sans-serif; font-size: 10px; fill: black; font-weight: bold;">Theoretical and Structural Models</text></g><g id="Demographic Differences in Mobility (Race, Gender, etc.)" transform="rotate(250.63300960118602) translate(250,0)"><text x="8" dy="0.35em" transform="rotate(180) translate(-16)" text-anchor="end" style="font-family: Arial, sans-serif; font-size: 10px; fill: black; font-weight: bold;">Demographic Differences in Mobility (Race, Gender, etc.)</text></g><g id="Perceptions of Mobility and Attitudes" transform="rotate(259.7945424787417) translate(250,0)"><text x="8" dy="0.35em" transform="rotate(180) translate(-16)" text-anchor="end" style="font-family: Arial, sans-serif; font-size: 10px; fill: black; font-weight: bold;">Perceptions of Mobility and Attitudes</text></g><g id="Others" transform="rotate(267.1217911629567) translate(250,0)"><text x="8" dy="0.35em" transform="rotate(180) translate(-16)" text-anchor="end" style="font-family: Arial, sans-serif; font-size: 10px; fill: black; font-weight: bold;">Others</text></g><g id="Mobility and Non-Income Outcomes (Health, Wellbeing, etc.)" transform="rotate(263.5890694050265) translate(250,0)"><text x="8" dy="0.35em" transform="rotate(180) translate(-16)" text-anchor="end" style="font-family: Arial, sans-serif; font-size: 10px; fill: black; font-weight: bold;">Mobility and Non-Income Outcomes (Health, Wellbeing, etc.)</text></g></g></g></svg>