<?xml version="1.0" encoding="UTF-8"?>
<svg id="Layer_1" xmlns="http://www.w3.org/2000/svg" version="1.1" viewBox="0 0 805 600">
  <!-- Generator: Adobe Illustrator 29.1.0, SVG Export Plug-In . SVG Version: 2.1.0 Build 142)  -->
  <defs>
    <style>
      .st0, .st1, .st2, .st3, .st4, .st5, .st6, .st7, .st8, .st9, .st10, .st11, .st12, .st13, .st14, .st15, .st16, .st17, .st18, .st19, .st20, .st21, .st22, .st23, .st24, .st25, .st26 {
        fill-opacity: .7;
      }

      .st0, .st27 {
        fill: #dda469;
      }

      .st28, .st9 {
        fill: #588c89;
      }

      .st1, .st29 {
        fill: #e8a97e;
      }

      .st2, .st30 {
        fill: #eec498;
      }

      .st31, .st12 {
        fill: #74b0ac;
      }

      .st32, .st22 {
        fill: #8fa38b;
      }

      .st3, .st33 {
        fill: #ccc;
      }

      .st34, .st20 {
        fill: #bc4d36;
      }

      .st35, .st23 {
        fill: #9fbe99;
      }

      .st36, .st7 {
        fill: #be7830;
      }

      .st37, .st19 {
        fill: #efe09b;
      }

      .st38, .st25 {
        fill: #bd6233;
      }

      .st39, .st18 {
        fill: #e6a8a0;
      }

      .st4, .st40 {
        fill: #f2bfb8;
      }

      .st41, .st21 {
        fill: #daca7e;
      }

      .st5, .st42 {
        fill: #c98c32;
      }

      .st43, .st10 {
        fill: #a18669;
      }

      .st6, .st44 {
        fill: #cfbba4;
      }

      .st45, .st14 {
        fill: #c4d2e6;
      }

      .st8, .st46 {
        fill: #d4a134;
      }

      .st11, .st47 {
        fill: #88b58e;
      }

      .st48, .st24 {
        fill: #9aabc6;
      }

      .st13, .st49 {
        fill: #aba979;
      }

      .st50, .st17 {
        fill: #5f7089;
      }

      .st15, .st51 {
        fill: #2b6765;
      }

      .st16, .st52 {
        fill: #6f83a1;
      }

      .st53 {
        font-family: TimesNewRomanPSMT, 'Times New Roman';
        font-size: 12px;
        isolation: isolate;
      }

      .st54, .st26 {
        fill: #f6d4d1;
      }
    </style>
  </defs>
  <g>
    <path class="st42" d="M636.7,212.6c8.2,22.1,13.3,45.2,15.1,68.7l-19.9,1.5c-1.6-21.6-6.3-42.9-13.9-63.2l18.7-7Z"/>
    <path class="st34" d="M402.5,50c36.1,0,71.7,7.8,104.5,22.9l-8.4,18.2c-30.1-13.9-62.9-21-96.1-21v-20Z"/>
    <path class="st36" d="M595.5,141.1c15.3,18.6,27.8,39.2,37.2,61.4l-18.4,7.8c-8.6-20.4-20.1-39.4-34.2-56.5l15.4-12.7Z"/>
    <path class="st38" d="M516.7,77.6c27.1,13.9,51.4,32.6,71.7,55.3l-14.9,13.4c-18.7-20.8-41.1-38.1-66-50.9l9.1-17.8Z"/>
    <path class="st39" d="M504.5,528.3c-17.3,7.7-35.5,13.5-54.1,17.1l-3.8-19.6c17.1-3.3,33.9-8.6,49.8-15.8l8.2,18.3Z"/>
    <path class="st46" d="M652.4,292.2c.7,21.9-1.5,43.9-6.6,65.2l-19.5-4.6c4.6-19.6,6.7-39.8,6-60l20-.6Z"/>
    <path class="st29" d="M612.8,435.2c-11.2,17.4-24.5,33.4-39.6,47.5l-13.7-14.6c13.9-13,26.2-27.7,36.5-43.7l16.8,10.8Z"/>
    <path class="st54" d="M372.1,548.1c-18.5-2.3-36.6-6.6-54.1-12.9l6.8-18.8c16.1,5.8,32.8,9.8,49.8,11.8l-2.4,19.9Z"/>
    <path class="st30" d="M565.1,489.9c-15.5,13.3-32.5,24.6-50.8,33.7l-8.9-17.9c16.8-8.4,32.5-18.8,46.7-31l13,15.2Z"/>
    <path class="st27" d="M643.1,367.9c-5.7,20.3-14,39.8-24.6,58l-17.3-10.1c9.8-16.8,17.4-34.7,22.7-53.4l19.2,5.4Z"/>
    <path class="st28" d="M253.7,500.9c-12.8-9.5-24.6-20.1-35.3-31.8l14.7-13.5c9.9,10.8,20.8,20.6,32.5,29.2l-11.9,16.1Z"/>
    <path class="st40" d="M439.6,547.2c-18.8,2.8-37.8,3.5-56.7,2l1.6-19.9c17.4,1.4,34.9.8,52.2-1.8l3,19.8Z"/>
    <path class="st47" d="M180.7,415.3c-6.8-13-12.4-26.5-16.7-40.5l19.1-6c4,12.9,9.2,25.3,15.4,37.3l-17.7,9.2Z"/>
    <path class="st51" d="M307.8,531.4c-15.8-6.5-31-14.6-45.2-24.2l11.2-16.6c13.1,8.8,27,16.3,41.6,22.2l-7.6,18.5Z"/>
    <path class="st31" d="M211.2,461c-9.5-11.3-17.9-23.3-25.3-36.1l17.3-10c6.8,11.7,14.6,22.8,23.3,33.2l-15.3,12.9Z"/>
    <path class="st32" d="M153.1,318c-.8-11.4-.9-22.9-.1-34.3l20,1.3c-.7,10.5-.7,21.1.1,31.6l-19.9,1.4Z"/>
    <path class="st41" d="M176.3,193.5c3.8-8.1,8.1-16,12.8-23.7l17.1,10.4c-4.3,7.1-8.2,14.3-11.7,21.8l-18.1-8.5Z"/>
    <path class="st33" d="M160.9,364.4c-3.1-11.7-5.4-23.6-6.8-35.6l19.9-2.3c1.3,11,3.4,22,6.2,32.7l-19.3,5.2Z"/>
    <path class="st49" d="M162.3,230.6c2.7-9.2,5.9-18.3,9.6-27.1l18.4,7.7c-3.4,8.1-6.4,16.5-8.8,25l-19.2-5.6Z"/>
    <path class="st35" d="M154,272.8c1.2-10.7,3-21.3,5.6-31.8l19.4,4.7c-2.3,9.6-4,19.4-5.1,29.2l-19.9-2.2Z"/>
    <path class="st37" d="M195,160.6c3.4-5,6.9-9.9,10.6-14.7l15.8,12.3c-3.4,4.4-6.7,8.9-9.8,13.5l-16.6-11.2Z"/>
    <path class="st44" d="M212.5,137.5c3.5-4.1,7.2-8.1,11-12l14.3,14c-3.5,3.6-6.8,7.3-10.1,11l-15.2-13Z"/>
    <path class="st43" d="M231.2,117.9c3.7-3.4,7.4-6.8,11.3-10l12.8,15.4c-3.6,3-7,6-10.4,9.2l-13.7-14.6Z"/>
    <path class="st33" d="M327.8,61.4c1.6-.5,3.1-1,4.7-1.4l5.6,19.2c-1.4.4-2.9.9-4.3,1.3l-6-19.1Z"/>
    <path class="st33" d="M312.5,66.8c1.7-.6,3.3-1.3,5-1.9l6.8,18.8c-1.5.6-3.1,1.1-4.6,1.7l-7.2-18.7Z"/>
    <path class="st50" d="M251,101.1c2.2-1.6,4.3-3.2,6.5-4.8l11.6,16.3c-2,1.4-4,2.9-6,4.4l-12.1-15.9Z"/>
    <path class="st52" d="M266.5,90.2c1.8-1.2,3.7-2.3,5.5-3.5l10.4,17.1c-1.7,1-3.4,2.1-5.1,3.2l-10.9-16.8Z"/>
    <path class="st48" d="M281.4,81.3c1.8-1,3.7-2,5.5-3l9.2,17.7c-1.7.9-3.4,1.8-5.1,2.7l-9.7-17.5Z"/>
    <path class="st45" d="M296.7,73.5c1.9-.9,3.8-1.7,5.7-2.6l8,18.3c-1.8.8-3.5,1.6-5.3,2.4l-8.5-18.1Z"/>
    <path class="st33" d="M357.6,54.1c.2,0,.5,0,.7-.1l3.5,19.7c-.2,0-.4,0-.6.1l-3.6-19.7Z"/>
    <path class="st33" d="M342.9,57.2c1.4-.3,2.7-.7,4.1-1l4.4,19.5c-1.3.3-2.5.6-3.7.9l-4.8-19.4Z"/>
    <path class="st33" d="M380.3,51c0,0,.2,0,.2,0l1.8,19.9c0,0-.1,0-.2,0l-1.8-19.9Z"/>
    <path class="st33" d="M391.4,50.2c0,0,.2,0,.2,0l.9,20c0,0-.1,0-.2,0l-.9-20Z"/>
    <path class="st33" d="M369.1,52.2c.2,0,.3,0,.5,0l2.6,19.8c-.1,0-.3,0-.4,0l-2.7-19.8Z"/>
  </g>
  <g>
    <path class="st20" d="M426.8,72.3c-16.2,151.8-41.6,293.8-76.1,426.1l-5.1,19.4,5.1-19.4c34.5-132.2,59.9-274.3,76.1-426.1Z"/>
    <path class="st20" d="M427,72.3c-16.4,151.8,13.3,284.6,88.8,398.5l11.1,16.7-11.1-16.7c-75.6-113.9-105.2-246.7-88.8-398.5Z"/>
    <path class="st20" d="M427.2,72.3c-16.5,151.8-69.8,176.3-159.9,73.6l-13.2-15,13.2,15c90.1,102.7,143.4,78.2,159.9-73.6Z"/>
    <path class="st20" d="M427.4,72.4c-16.6,151.8-65.9,172.9-147.7,63.5l-12-16,12,16c81.9,109.4,131.1,88.3,147.7-63.5Z"/>
    <path class="st20" d="M427.7,72.4c-16.8,151.7-57.4,167.4-121.9,46.8l-9.4-17.6,9.4,17.6c64.5,120.5,105.1,104.9,121.9-46.8Z"/>
    <path class="st7" d="M609.2,201.5c-137.8,65.7-138.6,92.9-2.4,81.6l19.9-1.6-19.9,1.6c-136.2,11.3-135.4-15.9,2.4-81.6Z"/>
    <path class="st7" d="M609.3,201.7c-137.9,65.6-239.1,38.1-303.7-82.3l-9.4-17.6,9.4,17.6c64.6,120.4,165.8,147.9,303.7,82.3Z"/>
    <path class="st7" d="M609.4,201.9c-137.9,65.4-222.6,31.6-254-101.4l-4.6-19.5,4.6,19.5c31.4,133,116.1,166.8,254,101.4Z"/>
    <path class="st25" d="M551.1,125.8c-99.1,116.1-104,122.4-14.9,18.9l13.1-15.2-13.1,15.2c-89.2,103.6-84.2,97.3,14.9-18.9Z"/>
    <path class="st25" d="M551.3,125.9c-99.2,116-81.6,186.3,52.9,210.6l19.7,3.6-19.7-3.6c-134.5-24.4-152.1-94.6-52.9-210.6Z"/>
    <path class="st25" d="M551.5,126.1c-99.3,116-177.3,111.7-233.9-12.6l-8.3-18.2,8.3,18.2c56.6,124.4,134.6,128.6,233.9,12.6Z"/>
    <path class="st25" d="M551.6,126.2c-99.4,115.9-161.3,106.6-185.8-27.9l-3.6-19.7,3.6,19.7c24.5,134.5,86.4,143.8,185.8,27.9Z"/>
    <path class="st18" d="M453.1,523.3c-33.7-148.9-3-174.3,92.1-76.1l13.9,14.4-13.9-14.4c-95.1-98.2-125.8-72.8-92.1,76.1Z"/>
    <path class="st18" d="M452.9,523.4c-33.6-148.9-106-263.1-217.2-342.5l-16.3-11.6,16.3,11.6c111.2,79.4,183.7,193.5,217.2,342.5Z"/>
    <path class="st18" d="M452.7,523.4c-33.4-149-91.1-278.1-173.1-387.5l-12-16,12,16c82,109.4,139.7,238.5,173.1,387.5Z"/>
    <path class="st8" d="M628.1,339.6c-150.4-26.4-210.7,27.1-180.8,160.5l4.4,19.5-4.4-19.5c-29.8-133.4,30.5-186.9,180.8-160.5Z"/>
    <path class="st8" d="M628,339.8c-150.3-26.5-270.6-91.1-360.8-193.8l-13.2-15,13.2,15c90.2,102.7,210.5,167.2,360.8,193.8Z"/>
    <path class="st8" d="M628,340c-150.3-26.7-257.8-100.2-322.5-220.6l-9.5-17.6,9.5,17.6c64.7,120.4,172.2,193.9,322.5,220.6Z"/>
    <path class="st8" d="M627.9,340.2c-150.3-26.8-241.2-106.7-272.7-239.7l-4.6-19.5,4.6,19.5c31.5,133,122.4,212.9,272.7,239.7Z"/>
    <path class="st8" d="M627.9,340.4c-150.3-26.9-234.5-108.1-252.5-243.6l-2.6-19.8,2.6,19.8c18.1,135.5,102.3,216.7,252.5,243.6Z"/>
    <path class="st1" d="M562.4,463.9c-106.6-109.3-91.8-169.6,44.3-181l19.9-1.7-19.9,1.7c-136.2,11.4-151,71.7-44.3,181Z"/>
    <path class="st1" d="M562.3,464c-106.5-109.4-192.2-224.2-257-344.5l-9.5-17.6,9.5,17.6c64.8,120.3,150.5,235.2,257,344.5Z"/>
    <path class="st1" d="M562.1,464.2c-106.4-109.5-188-226.3-244.8-350.7l-8.3-18.2,8.3,18.2c56.7,124.3,138.3,241.2,244.8,350.7Z"/>
    <path class="st1" d="M562,464.3c-106.3-109.6-175.3-230.8-207-363.8l-4.6-19.5,4.6,19.5c31.6,133,100.6,254.2,207,363.8Z"/>
    <path class="st26" d="M345.9,521.9c37.7-147.9,1-261.5-110.4-340.8l-16.3-11.6,16.3,11.6c111.3,79.3,148.1,192.9,110.4,340.8Z"/>
    <path class="st26" d="M345.7,521.8c37.9-147.9,32.7-285.8-15.5-413.7l-7.1-18.7,7.1,18.7c48.2,127.9,53.4,265.8,15.5,413.7Z"/>
    <path class="st26" d="M345.5,521.8c38-147.9,20.5-279.6-52.5-395.1l-10.7-16.9,10.7,16.9c73,115.5,90.5,247.2,52.5,395.1Z"/>
    <path class="st26" d="M345.3,521.7c38.2-147.8,24.8-281.9-40.1-402.1l-9.5-17.6,9.5,17.6c64.9,120.3,78.3,254.3,40.1,402.1Z"/>
    <path class="st26" d="M345.1,521.7c38.3-147.8,29-283.8-27.9-408.1l-8.3-18.2,8.3,18.2c56.9,124.3,66.1,260.3,27.9,408.1Z"/>
    <path class="st2" d="M530,490.2c-85-126.8-173.3-139.5-264.9-38.1l-13.4,14.8,13.4-14.8c91.6-101.4,179.9-88.7,264.9,38.1Z"/>
    <path class="st2" d="M529.8,490.4c-84.9-126.9-159.8-250.5-224.8-370.7l-9.5-17.6,9.5,17.6c65,120.2,140,243.8,224.8,370.7Z"/>
    <path class="st2" d="M529.6,490.5c-84.8-127-155.6-252.6-212.6-376.8l-8.3-18.2,8.3,18.2c57,124.2,127.8,249.8,212.6,376.8Z"/>
    <path class="st0" d="M617.3,379.3c-143.2-52.9-177-22.4-101.3,91.4l11.1,16.7-11.1-16.7c-75.7-113.8-41.9-144.3,101.3-91.4Z"/>
    <path class="st0" d="M617.3,379.5c-143.2-53-255.8-134.2-337.8-243.4l-12-16,12,16c82.1,109.3,194.7,190.4,337.8,243.4Z"/>
    <path class="st0" d="M617.2,379.7c-143.1-53.1-230.6-146.2-262.3-279.1l-4.6-19.5,4.6,19.5c31.8,132.9,119.2,226,262.3,279.1Z"/>
    <path class="st9" d="M250.5,471.2c101.4-114.2,220.1-177,356.3-188.5l19.9-1.7-19.9,1.7c-136.2,11.5-254.9,74.4-356.3,188.5Z"/>
    <path class="st9" d="M250.3,471.1c101.5-114.1,106.4-120.3,15-18.8l-13.4,14.9,13.4-14.9c91.5-101.5,86.5-95.2-15,18.8Z"/>
    <path class="st9" d="M250.1,471c101.6-114,96.7-210.6-14.7-289.7l-16.3-11.6,16.3,11.6c111.4,79.2,116.3,175.7,14.7,289.7Z"/>
    <path class="st9" d="M250,470.8c101.7-113.9,100.8-215.4-2.7-304.7l-15.1-13.1,15.1,13.1c103.5,89.2,104.4,190.8,2.7,304.7Z"/>
    <path class="st9" d="M249.8,470.7c101.8-113.8,128.5-234.6,80.2-362.4l-7.1-18.7,7.1,18.7c48.3,127.8,21.6,248.6-80.2,362.4Z"/>
    <path class="st9" d="M249.7,470.5c101.9-113.7,124.3-232.6,67.2-356.8l-8.4-18.2,8.4,18.2c57.1,124.2,34.7,243.1-67.2,356.8Z"/>
    <path class="st9" d="M249.5,470.4c102-113.6,137-236.8,105.2-369.7l-4.7-19.4,4.7,19.4c31.9,132.9-3.2,256.1-105.2,369.7Z"/>
    <path class="st4" d="M416.7,528.6c-9.5-152.4-42.8-290.6-100-414.7l-8.4-18.2,8.4,18.2c57.2,124.1,90.6,262.4,100,414.7Z"/>
    <path class="st11" d="M188,380.3c143-53.5,259-132.1,348.1-235.8l13-15.2-13,15.2c-89.1,103.6-205.1,182.2-348.1,235.8Z"/>
    <path class="st11" d="M188,380.1c143-53.4,150.4-56.4,22.3-8.9l-18.8,6.9,18.8-6.9c128.2-47.5,120.7-44.5-22.3,8.9Z"/>
    <path class="st11" d="M187.9,379.9c143.1-53.3,190.4-143.8,141.9-271.6l-7.1-18.7,7.1,18.7c48.5,127.8,1.1,218.3-141.9,271.6Z"/>
    <path class="st11" d="M187.8,379.7c143.1-53.1,182.1-139.8,117-259.9l-9.5-17.6,9.5,17.6c65.1,120.1,26.1,206.8-117,259.9Z"/>
    <path class="st15" d="M311.9,510.3c60.4-140.2,63.3-147.7,8.6-22.4l-8,18.3,8-18.3c54.6-125.3,51.8-117.8-8.6,22.4Z"/>
    <path class="st15" d="M311.7,510.2c60.5-140.2,45.6-261.5-44.7-364.1l-13.2-15,13.2,15c90.3,102.6,105.2,223.9,44.7,364.1Z"/>
    <path class="st15" d="M311.5,510.2c60.6-140.1,66.7-274,18.1-401.8l-7.1-18.7,7.1,18.7c48.6,127.7,42.5,261.7-18.1,401.8Z"/>
    <path class="st15" d="M311.3,510.1c60.8-140,50.1-264.7-32.1-373.9l-12-16,12,16c82.2,109.2,92.9,233.8,32.1,373.9Z"/>
    <path class="st15" d="M311.1,510c60.9-140,58.7-270-6.5-390.1l-9.5-17.6,9.5,17.6c65.2,120.1,67.4,250.1,6.5,390.1Z"/>
    <path class="st12" d="M226.3,446.2c117.5-97.5,123.5-102.7,18.1-15.8l-15.4,12.7,15.4-12.7c105.4-87,99.4-81.7-18.1,15.8Z"/>
    <path class="st12" d="M226.1,446.1c117.6-97.4,135.2-200.6,53-309.8l-12-16,12,16c82.3,109.1,64.6,212.4-53,309.8Z"/>
    <path class="st12" d="M226,445.9c117.7-97.3,160.5-212.3,128.5-345.2l-4.7-19.4,4.7,19.4c32,132.9-10.8,247.9-128.5,345.2Z"/>
    <path class="st22" d="M173.9,313c152.4-8.7,176.8-57.6,73.2-146.7l-15.2-13,15.2,13c103.6,89.1,79.2,138.1-73.2,146.7Z"/>
    <path class="st22" d="M173.9,312.8c152.4-8.5,187.5-67.3,105.1-176.4l-12.1-16,12.1,16c82.4,109.1,47.3,167.8-105.1,176.4Z"/>
    <path class="st22" d="M173.8,312.6c152.4-8.4,192.1-70.3,119-185.8l-10.7-16.9,10.7,16.9c73.1,115.5,33.4,177.4-119,185.8Z"/>
    <path class="st22" d="M173.8,312.4c152.4-8.2,196-72.4,130.6-192.4l-9.6-17.6,9.6,17.6c65.4,120,21.8,184.2-130.6,192.4Z"/>
    <path class="st21" d="M199.5,193.9c135.3,70.7,185.8,172.2,151.4,304.5l-5,19.4,5-19.4c34.4-132.3-16.1-233.8-151.4-304.5Z"/>
    <path class="st21" d="M199.6,193.8c135.2,70.8,240.7,163.1,316.5,276.9l11.1,16.6-11.1-16.6c-75.8-113.7-181.3-206-316.5-276.9Z"/>
    <path class="st21" d="M199.7,193.6c135.2,71,147,66.9,35.6-12.2l-16.3-11.6,16.3,11.6c111.5,79.1,99.6,83.1-35.6,12.2Z"/>
    <path class="st21" d="M199.8,193.4c135.1,71.1,166.1,48.9,92.9-66.5l-10.7-16.9,10.7,16.9c73.2,115.4,42.3,137.6-92.9,66.5Z"/>
    <path class="st21" d="M199.9,193.2c135,71.2,169.8,46.8,104.4-73.1l-9.6-17.6,9.6,17.6c65.5,120,30.7,144.3-104.4,73.1Z"/>
    <path class="st13" d="M184.3,230.6c145.5,46.3,153.2,48.4,23.2,6.4l-19-6.2,19,6.2c130,42,122.3,39.9-23.2-6.4Z"/>
    <path class="st13" d="M184.3,230.4c145.4,46.4,193.8,5.8,145.1-121.9l-7.1-18.7,7.1,18.7c48.7,127.7.3,168.3-145.1,121.9Z"/>
    <path class="st13" d="M184.4,230.2c145.4,46.5,185.3,9.9,119.7-110l-9.6-17.5,9.6,17.5c65.6,119.9,25.7,156.6-119.7,110Z"/>
    <path class="st13" d="M184.5,230c145.4,46.7,202,3.6,169.8-129.2l-4.7-19.4,4.7,19.4c32.1,132.8-24.5,175.9-169.8,129.2Z"/>
    <path class="st23" d="M175.9,267.2c151.1,21.9,158.4,36.4,21.9,43.7l-20,1.1,20-1.1c136.5-7.2,129.2-21.8-21.9-43.7Z"/>
    <path class="st19" d="M215.4,168c124.8,88,251.2,155.9,379.2,203.7l18.7,7-18.7-7c-128-47.8-254.4-115.7-379.2-203.7Z"/>
    <path class="st19" d="M215.5,167.9c124.7,88.1,141.8,80.9,51.4-21.6l-13.2-15,13.2,15c90.4,102.5,73.3,109.7-51.4,21.6Z"/>
    <path class="st6" d="M228.5,151.1c116,99.3,141.1,89,75.5-30.9l-9.6-17.5,9.6,17.5c65.7,119.8,40.5,130.1-75.5,30.9Z"/>
    <path class="st6" d="M228.6,150.9c115.9,99.4,145.2,87,87.9-37l-8.4-18.2,8.4,18.2c57.3,124.1,28,136.4-87.9,37Z"/>
    <path class="st6" d="M228.8,150.8c115.8,99.5,157.6,82.8,125.3-50l-4.7-19.4,4.7,19.4c32.3,132.8-9.5,149.5-125.3,50Z"/>
    <path class="st10" d="M250.4,128.8c101.4,114.1,86,188.4-46.2,223l-19.4,5.1,19.4-5.1c132.2-34.5,147.6-108.8,46.2-223Z"/>
    <path class="st10" d="M250.5,128.7c101.3,114.2,106.7,120.1,16.2,17.7l-13.2-15,13.2,15c90.5,102.4,85.1,96.5-16.2-17.7Z"/>
    <path class="st10" d="M250.7,128.6c101.2,114.3,135.6,105.1,103.2-27.7l-4.7-19.4,4.7,19.4c32.4,132.8-2,142-103.2,27.7Z"/>
    <path class="st3" d="M337.2,80.5c43.5,146.3,132.6,231.6,267.1,255.8l19.7,3.5-19.7-3.5c-134.5-24.2-223.5-109.5-267.1-255.8Z"/>
    <path class="st3" d="M337.4,80.4c43.4,146.4,129.1,243.4,257.2,291.1l18.7,7-18.7-7c-128.1-47.7-213.8-144.7-257.2-291.1Z"/>
    <path class="st3" d="M337.6,80.4c43.3,146.4,19.2,270.4-72.2,372l-13.4,14.9,13.4-14.9c91.4-101.6,115.5-225.6,72.2-372Z"/>
    <path class="st3" d="M337.8,80.3c43.1,146.4-1.4,237-133.6,271.6l-19.3,5.1,19.3-5.1c132.2-34.6,176.7-125.2,133.6-271.6Z"/>
    <path class="st3" d="M338,80.3c43,146.5-.5,198.8-130.6,156.9l-19-6.1,19,6.1c130.1,41.9,173.6-10.4,130.6-156.9Z"/>
    <path class="st3" d="M338.2,80.2c42.9,146.5,8.5,180.3-103,101.3l-16.3-11.6,16.3,11.6c111.5,79,145.9,45.2,103-101.3Z"/>
    <path class="st17" d="M263.8,117.8c92.5,121.5,97.5,127.7,15,18.8l-12.1-15.9,12.1,15.9c82.5,109,77.5,102.7-15-18.8Z"/>
    <path class="st17" d="M264,117.7c92.4,121.6,105.6,122.5,39.8,2.7l-9.6-17.5,9.6,17.5c65.8,119.8,52.5,118.9-39.8-2.7Z"/>
    <path class="st17" d="M264.1,117.5c92.2,121.7,109.6,120.5,52.2-3.5l-8.4-18.1,8.4,18.1c57.4,124,40,125.2-52.2,3.5Z"/>
    <path class="st24" d="M291.7,99.6c73.9,133.6,44.7,217.8-87.4,252.6l-19.3,5.1,19.3-5.1c132.2-34.8,161.3-119,87.4-252.6Z"/>
    <path class="st14" d="M306.1,92.3c64.3,138.5,63.5,147.8-2.4,28.1l-9.6-17.5,9.6,17.5c65.9,119.7,66.7,110.3,2.4-28.1Z"/>
    <path class="st3" d="M348,77.6c36.3,148.3,21.5,162.6-44.6,42.9l-9.7-17.5,9.7,17.5c66,119.7,80.9,105.3,44.6-42.9Z"/>
    <path class="st3" d="M382.3,71.9c13.5,152.1-45.9,245.6-178,280.4l-19.3,5.1,19.3-5.1c132.1-34.9,191.5-128.4,178-280.4Z"/>
    <path class="st3" d="M392.4,71.2c6.7,152.5-56,246.3-188.1,281.3l-19.3,5.1,19.3-5.1c132.1-35,194.8-128.8,188.1-281.3Z"/>
    <path class="st3" d="M372,73c20.3,151.3-35.5,244.5-167.6,279.7l-19.3,5.1,19.3-5.1c132.1-35.1,187.9-128.4,167.6-279.7Z"/>
    <path class="st5" d="M630.6,279.9c-152.1,13.4-279.4-25.1-381.9-115.5l-15-13.2,15,13.2c102.5,90.3,229.9,128.8,381.9,115.5Z"/>
    <path class="st5" d="M630.7,280.4c-152.1,13.1-272.9-32-362.3-135.4l-13.1-15.1,13.1,15.1c89.4,103.4,210.2,148.5,362.3,135.4Z"/>
    <path class="st20" d="M426.5,72.3c-16,151.8-39.2,161.1-69.7,27.9l-4.5-19.5,4.5,19.5c30.5,133.2,53.7,123.9,69.7-27.9Z"/>
    <path class="st7" d="M609.1,201.2c-137.7,65.9-251.4,47.2-341-56l-13.1-15.1,13.1,15.1c89.6,103.2,203.3,121.9,341,56Z"/>
    <path class="st18" d="M454.2,523.1c-34.5-148.7,10.1-252.3,133.6-310.7l18.1-8.5-18.1,8.5c-123.6,58.4-168.1,162-133.6,310.7Z"/>
    <path class="st18" d="M453.8,523.2c-34.2-148.8-102.7-268.3-205.4-358.4l-15-13.2,15,13.2c102.7,90.2,171.2,209.6,205.4,358.4Z"/>
    <path class="st18" d="M453.4,523.3c-33.9-148.8-63-290.5-87.3-425l-3.6-19.7,3.6,19.7c24.3,134.5,53.4,276.2,87.3,425Z"/>
    <path class="st8" d="M628.1,339.2c-150.4-26.2-249.4-103.3-297-231.4l-7-18.7,7,18.7c47.6,128.1,146.5,205.3,297,231.4Z"/>
    <path class="st1" d="M563,463.4c-107-108.9-225.3-184.8-355.1-227.8l-19-6.3,19,6.3c129.7,42.9,248.1,118.9,355.1,227.8Z"/>
    <path class="st1" d="M562.7,463.7c-106.8-109.1-205.1-215.2-294.9-318.2l-13.1-15.1,13.1,15.1c89.8,103,188.1,209.1,294.9,318.2Z"/>
    <path class="st26" d="M347,522.2c37-148.1,38-156.1,3-24l-5.1,19.3,5.1-19.3c35-132.1,33.9-124.1-3,24Z"/>
    <path class="st26" d="M346.6,522.1c37.3-148-9-243.4-138.8-286.1l-19-6.2,19,6.2c129.8,42.7,176.1,138.1,138.8,286.1Z"/>
    <path class="st26" d="M346.2,522c37.5-148-11.3-232.1-146.4-252.4l-19.8-3,19.8,3c135.2,20.3,184,104.4,146.4,252.4Z"/>
    <path class="st0" d="M617.7,378.2c-143.5-52.1-207.6-146.1-192.4-281.9l2.2-19.9-2.2,19.9c-15.2,135.8,48.9,229.8,192.4,281.9Z"/>
    <path class="st0" d="M617.6,378.6c-143.4-52.4-251.2-136.6-323.4-252.7l-10.6-17,10.6,17c72.2,116,180,200.3,323.4,252.7Z"/>
    <path class="st0" d="M617.4,379c-143.3-52.7-246.7-139.5-310.4-260.4l-9.3-17.7,9.3,17.7c63.6,121,167.1,207.8,310.4,260.4Z"/>
    <path class="st9" d="M250.7,471.5c101.2-114.3,134.4-105.4,99.7,26.8l-5.1,19.3,5.1-19.3c34.7-132.2,1.5-141.1-99.7-26.8Z"/>
    <path class="st4" d="M417.9,528.5c-10.3-152.3-75.8-260.4-196.6-324.3l-17.7-9.4,17.7,9.4c120.8,63.9,186.3,172,196.6,324.3Z"/>
    <path class="st4" d="M417.5,528.5c-10-152.3-38.9-292.5-86.7-420.6l-7-18.7,7,18.7c47.8,128,76.7,268.2,86.7,420.6Z"/>
    <path class="st4" d="M417,528.5c-9.7-152.4-46.5-289-110.3-409.8l-9.3-17.7,9.3,17.7c63.8,120.8,100.6,257.4,110.3,409.8Z"/>
    <path class="st11" d="M188.5,381.4c142.7-54.3,251.7-24.4,327.1,89.6l11,16.7-11-16.7c-75.4-114-184.4-143.8-327.1-89.6Z"/>
    <path class="st11" d="M188.3,381c142.8-54,178-139,105.6-254.9l-10.6-17,10.6,17c72.4,115.9,37.2,200.9-105.6,254.9Z"/>
    <path class="st11" d="M188.2,380.6c142.9-53.7,186.6-143,131-267.9l-8.1-18.3,8.1,18.3c55.5,124.9,11.8,214.2-131,267.9Z"/>
    <path class="st15" d="M313,510.8c59.7-140.5,38.1-255.8-64.8-345.7l-15.1-13.2,15.1,13.2c102.9,90,124.5,205.2,64.8,345.7Z"/>
    <path class="st15" d="M312.6,510.6c59.9-140.4,53.6-268.5-19-384.3l-10.6-16.9,10.6,16.9c72.6,115.8,79,243.9,19,384.3Z"/>
    <path class="st15" d="M312.2,510.5c60.2-140.3,74.9-277,44.2-410.2l-4.5-19.5,4.5,19.5c30.7,133.2,16,269.9-44.2,410.2Z"/>
    <path class="st12" d="M226.7,446.8c117.2-97.9,124.2-191.7,21.2-281.5l-15.1-13.1,15.1,13.1c103,89.8,96,183.6-21.2,281.5Z"/>
    <path class="st12" d="M226.5,446.5c117.4-97.6,148.2-208.9,92.4-333.6l-8.2-18.3,8.2,18.3c55.8,124.8,25,236-92.4,333.6Z"/>
    <path class="st22" d="M173.9,313.7c152.4-9.2,162.4,3.3,30.1,37.4l-19.4,5,19.4-5c132.3-34.1,122.3-46.6-30.1-37.4Z"/>
    <path class="st22" d="M173.9,313.3c152.4-8.9,163.7-34.5,33.8-77l-19-6.2,19,6.2c129.9,42.5,118.7,68.1-33.8,77Z"/>
    <path class="st21" d="M199.4,194.2c135.4,70.5,158.1,54.3,68.1-48.5l-13.2-15.1,13.2,15.1c90,102.9,67.3,119-68.1,48.5Z"/>
    <path class="st13" d="M184,231.3c145.6,45.8,182,10.9,109.2-104.8l-10.7-16.9,10.7,16.9c72.8,115.6,36.4,150.6-109.2,104.8Z"/>
    <path class="st13" d="M184.2,230.9c145.5,46.1,190.3,6.8,134.3-117.9l-8.2-18.2,8.2,18.2c56,124.7,11.2,164-134.3,117.9Z"/>
    <path class="st23" d="M175.6,269.2c151.3,20.5,161.9,9.7,31.9-32.5l-19-6.2,19,6.2c130,42.2,119.3,53.1-31.9,32.5Z"/>
    <path class="st23" d="M175.6,268.8c151.2,20.8,175.3-13.6,72-103.2l-15.1-13.1,15.1,13.1c103.2,89.6,79.2,124-72,103.2Z"/>
    <path class="st23" d="M175.7,268.4c151.2,21.1,186.2-23.3,104.9-133.1l-11.9-16.1,11.9,16.1c81.3,109.9,46.4,154.2-104.9,133.1Z"/>
    <path class="st23" d="M175.8,267.9c151.2,21.4,198.6-30.2,142.4-154.8l-8.2-18.2,8.2,18.2c56.2,124.6,8.8,176.2-142.4,154.8Z"/>
    <path class="st23" d="M175.8,267.5c151.1,21.7,211.2-34.1,180.2-167.2l-4.5-19.5,4.5,19.5c31,133.1-29.1,188.8-180.2,167.2Z"/>
    <path class="st19" d="M214.9,168.6c125.1,87.6,120,121.4-15.2,101.3l-19.8-2.9,19.8,2.9c135.2,20,140.3-13.8,15.2-101.3Z"/>
    <path class="st19" d="M215.2,168.3c124.9,87.8,135.6,87,32.3-2.4l-15.1-13.1,15.1,13.1c103.4,89.4,92.6,90.2-32.3,2.4Z"/>
    <path class="st10" d="M248.9,130.2c102.4,113.2,86,159.9-49.2,140.2l-19.8-2.9,19.8,2.9c135.2,19.8,151.6-27,49.2-140.2Z"/>
    <path class="st10" d="M249.2,129.9c102.2,113.4,129.3,106.1,81.3-21.8l-7-18.7,7,18.7c48,127.9,20.9,135.2-81.3,21.8Z"/>
    <path class="st10" d="M249.5,129.6c102,113.6,112.3,115.5,30.7,5.8l-11.9-16.1,11.9,16.1c81.5,109.7,71.3,107.8-30.7-5.8Z"/>
    <path class="st10" d="M249.8,129.3c101.8,113.8,120.7,110.3,56.6-10.4l-9.4-17.7,9.4,17.7c64.1,120.7,45.2,124.2-56.6,10.4Z"/>
    <path class="st10" d="M250.1,129c101.6,114,124.1,108.7,67.7-15.7l-8.3-18.2,8.3,18.2c56.5,124.5,33.9,129.7-67.7,15.7Z"/>
    <path class="st3" d="M336.5,80.7c44,146.2,134.1,213.7,270.3,202.6l19.9-1.6-19.9,1.6c-136.2,11.1-226.3-56.5-270.3-202.6Z"/>
    <path class="st3" d="M336.9,80.6c43.7,146.3,110.3,167.7,199.6,64.3l13.1-15.1-13.1,15.1c-89.3,103.4-155.9,82-199.6-64.3Z"/>
    <path class="st3" d="M320.2,86.3c54.9,142.5,29.5,257.1-76,343.9l-15.4,12.7,15.4-12.7c105.5-86.8,130.9-201.5,76-343.9Z"/>
    <path class="st3" d="M320.6,86.1c54.6,142.6,41,159.1-40.7,49.5l-12-16,12,16c81.7,109.6,95.3,93,40.7-49.5Z"/>
    <path class="st16" d="M279.2,107c82.2,128.6,91.2,132.7,26.9,12.1l-9.4-17.6,9.4,17.6c64.3,120.6,55.3,116.6-26.9-12.1Z"/>
    <path class="st16" d="M279.6,106.8c82,128.8,107.3,126.7,76.1-6.4l-4.6-19.5,4.6,19.5c31.2,133.1,5.8,135.2-76.1,6.4Z"/>
    <path class="st14" d="M305.8,92.4c64.5,138.4,30.6,224.7-101.7,259.1l-19.4,5,19.4-5c132.3-34.3,166.2-120.7,101.7-259.1Z"/>
    <path class="st5" d="M630.6,279.4c-152,13.7-295.5,9.5-430.4-12.5l-19.7-3.2,19.7,3.2c134.9,22.1,278.3,26.3,430.4,12.5Z"/>
    <path class="st20" d="M426,72.2c-15.6,151.9-47.1,163.7-94.4,35.4l-6.9-18.8,6.9,18.8c47.3,128.2,78.7,116.4,94.4-35.4Z"/>
    <path class="st7" d="M608.9,200.7c-137.6,66.2-246.6,44-327-66.5l-11.8-16.2,11.8,16.2c80.4,110.5,189.4,132.6,327,66.5Z"/>
    <path class="st25" d="M550.8,125.5c-98.9,116.3-180,113.9-243.3-7.2l-9.3-17.7,9.3,17.7c63.3,121.1,144.4,123.5,243.3,7.2Z"/>
    <path class="st18" d="M455.4,522.8c-35.2-148.5-120.3-233.7-255.3-255.4l-19.7-3.2,19.7,3.2c134.9,21.7,220,106.8,255.3,255.4Z"/>
    <path class="st18" d="M454.7,523c-34.8-148.6-96.5-275-185.1-379.1l-13-15.2,13,15.2c88.6,104.1,150.3,230.4,185.1,379.1Z"/>
    <path class="st8" d="M628.3,338.1c-150.5-25.4-293.3-48.8-428.3-70.1l-19.8-3.1,19.8,3.1c135,21.3,277.8,44.7,428.3,70.1Z"/>
    <path class="st8" d="M628.2,338.7c-150.5-25.8-281.3-78.5-392.4-158.1l-16.3-11.6,16.3,11.6c111.1,79.6,241.9,132.3,392.4,158.1Z"/>
    <path class="st1" d="M563.8,462.5c-107.5-108.4-113.9-113.4-18.9-15l13.9,14.4-13.9-14.4c-94.9-98.3-88.6-93.3,18.9,15Z"/>
    <path class="st1" d="M563.4,463c-107.2-108.7-201.2-218.1-282-328.4l-11.8-16.1,11.8,16.1c80.7,110.3,174.7,219.7,282,328.4Z"/>
    <path class="st26" d="M347.5,522.3c36.6-148.2-5.3-254.6-125.7-319.1l-17.6-9.4,17.6,9.4c120.5,64.5,162.4,170.9,125.7,319.1Z"/>
    <path class="st2" d="M531.4,489.3c-85.9-126.2-91.3-132.2-16.2-18l11,16.7-11-16.7c-75.1-114.2-69.7-108.2,16.2,18Z"/>
    <path class="st2" d="M530.9,489.6c-85.6-126.4-179.3-235.2-281.1-326.4l-14.9-13.3,14.9,13.3c101.8,91.2,195.5,199.9,281.1,326.4Z"/>
    <path class="st2" d="M530.3,490c-85.2-126.7-163.8-248.1-235.7-364.3l-10.5-17,10.5,17c71.9,116.2,150.5,237.7,235.7,364.3Z"/>
    <path class="st0" d="M618.3,376.5c-143.9-51-276.2-108.6-396.8-172.8l-17.7-9.4,17.7,9.4c120.7,64.2,252.9,121.8,396.8,172.8Z"/>
    <path class="st0" d="M618.1,377.1c-143.8-51.4-283.2-87.6-418.2-108.5l-19.8-3.1,19.8,3.1c135.1,21,274.5,57.1,418.2,108.5Z"/>
    <path class="st0" d="M617.9,377.7c-143.6-51.8-259.8-129.6-348.7-233.4l-13-15.2,13,15.2c88.9,103.8,205.1,181.6,348.7,233.4Z"/>
    <path class="st9" d="M251.1,471.8c100.9-114.5,85-155.7-47.8-123.3l-19.4,4.7,19.4-4.7c132.8-32.3,148.7,8.8,47.8,123.3Z"/>
    <path class="st4" d="M418.4,528.4c-10.6-152.3-67-273.9-169-364.7l-14.9-13.3,14.9,13.3c102.1,90.9,158.4,212.4,169,364.7Z"/>
    <path class="st11" d="M188.9,382.5c142.4-55,169-134.3,79.9-237.9l-13-15.2,13,15.2c89.2,103.6,62.5,182.9-79.9,237.9Z"/>
    <path class="st11" d="M188.6,381.9c142.6-54.6,173.3-136.9,92.3-247l-11.9-16.1,11.9,16.1c81,110,50.3,192.4-92.3,247Z"/>
    <path class="st15" d="M314.1,511.2c58.9-140.8,22.1-194.9-110.6-162.2l-19.4,4.8,19.4-4.8c132.7-32.7,169.6,21.4,110.6,162.2Z"/>
    <path class="st15" d="M313.5,511c59.3-140.7,61.6-273.6,6.7-398.7l-8-18.3,8,18.3c54.9,125.2,52.7,258.1-6.7,398.7Z"/>
    <path class="st12" d="M227.1,447.2c116.9-98.1,109.1-130.7-23.5-97.6l-19.4,4.8,19.4-4.8c132.6-33,140.4-.5,23.5,97.6Z"/>
    <path class="st22" d="M173.9,314.3c152.4-9.5,161-24.6,25.9-45.1l-19.8-3,19.8,3c135.1,20.6,126.5,35.6-25.9,45.1Z"/>
    <path class="st13" d="M183.9,231.8c145.7,45.5,167.4,22.9,65.1-67.7l-15-13.3,15,13.3c102.3,90.6,80.6,113.1-65.1,67.7Z"/>
    <path class="st19" d="M214.6,169.1c125.3,87.3,121.6,147.6-10.9,181.1l-19.4,4.9,19.4-4.9c132.5-33.4,136.1-93.8,10.9-181.1Z"/>
    <path class="st3" d="M335.4,81.1c44.8,146,129,189.9,252.7,131.8l18.1-8.5-18.1,8.5c-123.7,58.1-207.9,14.2-252.7-131.8Z"/>
    <path class="st3" d="M336,80.9c44.4,146.1,48.9,285.1,13.6,417.2l-5.2,19.3,5.2-19.3c35.3-132,30.7-271.1-13.6-417.2Z"/>
    <path class="st16" d="M278.2,107.7c82.9,128.2,58.1,209.2-74.4,243l-19.4,4.9,19.4-4.9c132.4-33.8,157.2-114.8,74.4-243Z"/>
    <path class="st16" d="M278.8,107.3c82.5,128.5,96.1,130.2,40.9,5.2l-8.1-18.3,8.1,18.3c55.2,125,41.6,123.3-40.9-5.2Z"/>
    <path class="st5" d="M630.3,276.1c-151.8,15.9-292.1,47-420.7,93.2l-18.8,6.8,18.8-6.8c128.6-46.2,268.8-77.3,420.7-93.2Z"/>
    <path class="st5" d="M630.3,277c-151.9,15.3-287.6-10.1-407.1-76.4l-17.5-9.7,17.5,9.7c119.5,66.3,255.2,91.7,407.1,76.4Z"/>
    <path class="st5" d="M630.4,277.8c-151.9,14.8-292.6,0-421.9-44.2l-18.9-6.5,18.9,6.5c129.3,44.3,269.9,59,421.9,44.2Z"/>
    <path class="st5" d="M630.5,278.7c-152,14.2-283-19.3-392.9-100.4l-16.1-11.9,16.1,11.9c109.9,81.2,240.9,114.7,392.9,100.4Z"/>
    <path class="st20" d="M425.2,72.1c-15.2,151.9-77.8,187.5-188.1,106.7l-16.1-11.8,16.1,11.8c110.2,80.8,172.9,45.2,188.1-106.7Z"/>
    <path class="st7" d="M608.2,199.3c-137.1,67.1-270.4,78.8-399.9,35.1l-18.9-6.4,18.9,6.4c129.5,43.8,262.8,32.1,399.9-35.1Z"/>
    <path class="st7" d="M608.5,200c-137.4,66.6-256.1,53.5-356.3-39.5l-14.7-13.6,14.7,13.6c100.2,93,218.9,106.2,356.3,39.5Z"/>
    <path class="st18" d="M456.1,522.6c-35.7-148.4,13.6-210.3,148.1-185.6l19.7,3.6-19.7-3.6c-134.4-24.7-183.8,37.2-148.1,185.6Z"/>
    <path class="st8" d="M628.4,337.4c-150.6-24.9-285.8-70.3-405.6-136.1l-17.5-9.6,17.5,9.6c119.8,65.8,255,111.2,405.6,136.1Z"/>
    <path class="st1" d="M565.5,460.8c-108.7-107.2-227.3-137.5-355.7-90.8l-18.8,6.8,18.8-6.8c128.4-46.7,247-16.4,355.7,90.8Z"/>
    <path class="st1" d="M564.9,461.4c-108.3-107.6-222.4-194.1-342.5-259.5l-17.6-9.6,17.6,9.6c120,65.4,234.2,151.9,342.5,259.5Z"/>
    <path class="st1" d="M564.3,462c-107.9-108-212.1-208.3-312.6-300.9l-14.7-13.6,14.7,13.6c100.5,92.6,204.7,192.9,312.6,300.9Z"/>
    <path class="st26" d="M348.3,522.5c36.2-148.3,3.8-268.6-97-360.8l-14.8-13.5,14.8,13.5c100.8,92.2,133.2,212.5,97,360.8Z"/>
    <path class="st2" d="M532,488.9c-86.3-125.9-193.6-165.3-321.9-118.1l-18.8,6.9,18.8-6.9c128.3-47.2,235.6-7.8,321.9,118.1Z"/>
    <path class="st0" d="M618.6,375.8c-144.1-50.5-271.4-116-381.9-196.4l-16.2-11.8,16.2,11.8c110.5,80.4,237.8,145.8,381.9,196.4Z"/>
    <path class="st9" d="M252.3,472.9c100.1-115.2,90.1-205.3-30.2-270.2l-17.6-9.5,17.6,9.5c120.3,64.9,130.3,155,30.2,270.2Z"/>
    <path class="st9" d="M251.7,472.3c100.6-114.9,83.5-183.8-51.2-206.8l-19.7-3.4,19.7,3.4c134.7,23,151.8,92,51.2,206.8Z"/>
    <path class="st4" d="M420,528.3c-11.7-152.2-61.6-280.5-149.9-384.9l-12.9-15.3,12.9,15.3c88.2,104.4,138.2,232.6,149.9,384.9Z"/>
    <path class="st4" d="M419.2,528.4c-11.1-152.3-52.4-286.6-124-403.1l-10.5-17,10.5,17c71.5,116.4,112.9,250.8,124,403.1Z"/>
    <path class="st11" d="M189.5,384c142-56,157.6-124,46.8-203.9l-16.2-11.7,16.2,11.7c110.8,79.9,95.2,147.9-46.8,203.9Z"/>
    <path class="st11" d="M189.1,383.2c142.2-55.5,162.8-129.1,61.6-221l-14.8-13.4,14.8,13.4c101.2,91.9,80.7,165.5-61.6,221Z"/>
    <path class="st22" d="M174,315c152.3-10,175.5,28.1,69.4,114.2l-15.5,12.6,15.5-12.6c106.1-86.1,83-124.2-69.4-114.2Z"/>
    <path class="st21" d="M198.7,195.6c135.9,69.6,135.5,107.7-1,114.1l-20,.9,20-.9c136.5-6.4,136.8-44.4,1-114.1Z"/>
    <path class="st21" d="M199.1,194.8c135.6,70.1,138.6,83.6,9,40.3l-19-6.3,19,6.3c129.6,43.3,126.6,29.9-9-40.3Z"/>
    <path class="st23" d="M175.4,270.7c151.4,19.5,160.7,45.3,27.8,77.1l-19.4,4.7,19.4-4.7c132.9-31.9,123.6-57.6-27.8-77.1Z"/>
    <path class="st23" d="M175.5,269.8c151.3,20.1,159.6,18.9,24.8-3.6l-19.7-3.3,19.7,3.3c134.8,22.5,126.5,23.7-24.8,3.6Z"/>
    <path class="st19" d="M213.7,170.4c125.9,86.4,135.9,172.9,30.1,259.4l-15.5,12.7,15.5-12.7c105.8-86.5,95.7-173-30.1-259.4Z"/>
    <path class="st19" d="M214.2,169.7c125.5,86.9,120.1,133.8-16.4,140.7l-20,1,20-1c136.5-6.9,142-53.8,16.4-140.7Z"/>
    <path class="st10" d="M248.4,130.6c102.7,112.9,103.3,123.6,1.8,32.2l-14.9-13.4,14.9,13.4c101.5,91.5,100.9,80.8-1.8-32.2Z"/>
    <path class="st5" d="M630.1,275.1s0,0,0,0c-151.8,16.5-224.5,93-218.3,229.6l.9,20-.9-20c-6.2-136.5,66.6-213.1,218.4-229.6Z"/>
    <path class="st20" d="M422.1,71.8s0,0,0,0c-13.1,152.1-11.6,160.3,4.7,24.6l2.4-19.9-2.4,19.9c-16.3,135.7-17.9,127.5-4.8-24.6Z"/>
    <path class="st20" d="M423.2,71.9s0,0,0,0c-13.8,152-80.2,194.4-199.2,127.1l-17.4-9.9,17.4,9.8c118.9,67.3,185.3,25,199.1-127.1Z"/>
    <path class="st20" d="M424.2,72s0,0,0,0c-14.5,152-71.5,181-170.8,87.2l-14.5-13.8,14.6,13.7c99.3,93.9,156.2,64.8,170.7-87.2Z"/>
    <path class="st7" d="M607.7,198.4s0,0,0,0c-136.8,67.7-272.6,89.8-407.2,66.2l-19.7-3.5,19.7,3.4c134.6,23.6,270.3,1.5,407.1-66.2Z"/>
    <path class="st25" d="M548.5,123.6s0,0,0,0c-97.4,117.6-200.7,135.3-309.9,53.2l-16-12,16,12c109.2,82.2,212.5,64.4,309.8-53.2Z"/>
    <path class="st25" d="M549.3,124.3s0,0,0,0c-97.9,117.1-170.3,111.5-217.1-16.9l-6.8-18.8,6.9,18.8c46.8,128.4,119.1,134,217,16.9Z"/>
    <path class="st25" d="M550.1,124.9h0c-98.5,116.7-187.4,119.5-267,8.3l-11.6-16.3,11.7,16.2c79.5,111.2,168.4,108.4,266.9-8.3Z"/>
    <path class="st18" d="M457,522.4h0c-36.3-148.3-118.7-245.7-247.2-292.3l-18.8-6.8,18.8,6.8c128.5,46.6,210.9,144.1,247.2,292.3Z"/>
    <path class="st1" d="M567.7,458.6h0c-110.1-105.7-150.4-91.8-121,41.6l4.3,19.5-4.3-19.5c-29.4-133.5,10.9-147.3,121.1-41.6Z"/>
    <path class="st1" d="M567,459.3s0,0,0,0c-109.6-106.3-161-91.1-154.1,45.4l1,20-1-20c-6.8-136.5,44.6-151.6,154.2-45.4Z"/>
    <path class="st1" d="M566.2,460.1s0,0,0,0c-109.1-106.8-218.5-201-328.1-282.6l-16-12,16.1,11.9c109.6,81.7,219,175.8,328.1,282.6Z"/>
    <path class="st2" d="M532.8,488.3h0c-86.8-125.5-189.9-221.7-309.2-288.4l-17.4-9.8,17.5,9.7c119.2,66.8,222.3,162.9,309.2,288.5Z"/>
    <path class="st0" d="M619.6,372.9s0,0,0,0c-144.7-48.6-153.1-48.9-25.2-.7l18.7,7.1-18.7-7c-127.9-48.2-119.5-48,25.3.6Z"/>
    <path class="st0" d="M619.3,373.9s0,0,0,0c-144.5-49.3-281.1-96.9-409.8-142.9l-18.8-6.8,18.8,6.7c128.7,46,265.3,93.6,409.8,142.9Z"/>
    <path class="st0" d="M618.9,374.9s0,0,0,0c-144.3-50-266.3-121.6-366.1-215l-14.6-13.7,14.6,13.6c99.8,93.4,221.8,165.1,366,215Z"/>
    <path class="st9" d="M253.9,474.2s0,0,0,0c99.1-116.1,80.4-171.2-56.1-165.4l-20,.8,20-.9c136.5-5.8,155.3,49.3,56.2,165.5Z"/>
    <path class="st9" d="M253.1,473.5s0,0,0,0c99.7-115.6,85-196.2-43.9-241.5l-18.9-6.7,18.9,6.6c128.9,45.4,143.5,126,43.9,241.6Z"/>
    <path class="st4" d="M422.1,528.2h0c-13-152.1-15.7-159.9-8.3-23.5l1.1,20-1.1-20c-7.5-136.5-4.7-128.6,8.4,23.5Z"/>
    <path class="st4" d="M421,528.3s0,0,0,0c-12.3-152.2-58.5-283.6-138.5-394.4l-11.7-16.2,11.7,16.2c80,110.8,126.2,242.3,138.5,394.5Z"/>
    <path class="st11" d="M189.8,384.9s0,0,0,0c141.8-56.6,146.2-69.2,13.2-37.8l-19.5,4.6,19.5-4.6c133-31.3,128.7-18.6-13.1,38Z"/>
    <path class="st22" d="M174.1,316s0,0,0,0c152.3-10.6,200.4,46.4,144.3,171l-8.2,18.2,8.2-18.2c56.2-124.6,8.1-181.6-144.2-170.9Z"/>
    <path class="st21" d="M198.3,196.4s0,0,0,0c136.1,69.1,208.3,171.8,216.4,308.3l1.2,20-1.2-20c-8.1-136.4-80.2-239.2-216.4-308.2Z"/>
    <path class="st13" d="M183.6,232.6s0,0,0,0c145.9,44.9,191.1,129.9,135.5,254.7l-8.2,18.3,8.1-18.3c55.6-124.9,10.4-209.7-135.5-254.6Z"/>
    <path class="st10" d="M246.9,132s0,0,0,0c103.7,112,128.1,230.6,73.1,355.7l-8.1,18.3,8-18.3c55-125.1,30.6-243.7-73.1-355.7Z"/>
    <path class="st10" d="M247.7,131.3s0,0,0,0c103.2,112.5,90.2,146.4-38.9,101.6l-18.9-6.6,18.9,6.5c129.1,44.8,142,11,38.8-101.5Z"/>
    <path class="st3" d="M334.5,81.3s0,0,0,0c45.3,145.8,75.7,150.8,91.4,15l2.3-19.9-2.3,19.9c-15.7,135.8-46.2,130.8-91.5-15Z"/>
    <path class="st5" d="M630,273.9c0,0,0,.2,0,.3-151.7,17.2-159.4,20.5-23.2,9.9l19.9-1.4-19.9,1.7c-136.3,10.5-128.6,7,23.1-10.4Z"/>
    <path class="st7" d="M606,195c0,0,0,.2.1.2-135.7,69.9-141.7,75.9-17.8,18.3l18.2-8.3-18.1,8.5c-124,57.5-118.1,51.3,17.5-18.8Z"/>
    <path class="st7" d="M606.6,196.1c0,0,0,.2.1.3-136.1,69.1-263.5,69.7-382.2,1.9l-17.3-10,17.4,9.8c118.6,68,245.9,67.4,381.9-1.9Z"/>
    <path class="st7" d="M607.2,197.2c0,0,0,.2.1.3-136.5,68.3-258.7,60.6-366.7-23.3l-15.7-12.4,15.9,12.2c107.8,84,230,91.7,366.4,23.2Z"/>
    <path class="st25" d="M546.5,122c0,0,.1.1.2.2-96.2,118.6-208.9,200-338.2,244.2l-19,6.3,18.9-6.6c129.4-44.1,242.1-125.5,338.1-244.2Z"/>
    <path class="st25" d="M547.5,122.8c0,0,.1.1.2.2-96.8,118-189.1,124.7-277,20l-12.7-15.4,12.9,15.3c87.7,104.8,179.9,98.1,276.6-20Z"/>
    <path class="st18" d="M458.3,522.1c0,0-.2,0-.3,0-37-148.1-120-199.7-249.1-154.7l-18.9,6.4,18.8-6.7c129.1-44.8,212.3,6.8,249.5,154.9Z"/>
    <path class="st8" d="M628.8,334.9c0,0,0,.2,0,.3-150.9-23.5-159.1-22.6-24.8,2.6l19.6,3.8-19.7-3.6c-134.3-25.4-126-26.4,24.9-3.2Z"/>
    <path class="st8" d="M628.6,336.2c0,0,0,.2,0,.3-150.7-24.3-294.4-33.8-430.9-28.6l-20,.6,20-.9c136.6-5.1,280.2,4.5,431,28.6Z"/>
    <path class="st1" d="M568.6,457.7c0,0-.1.1-.2.2-110.6-105.2-233.1-170.3-367.5-195.3l-19.6-3.8,19.7,3.5c134.3,25.1,256.9,90.2,367.6,195.3Z"/>
    <path class="st2" d="M534.9,486.8c0,0-.2.1-.2.2-88.1-124.7-196.2-210.9-324.2-258.8l-18.7-7.1,18.8,6.9c127.9,48,236.1,134.3,324.3,258.9Z"/>
    <path class="st2" d="M533.9,487.6c0,0-.2.1-.2.2-87.4-125.2-185.3-229.4-293.7-312.6l-15.8-12.3,15.9,12.1c108.3,83.4,206.2,187.6,293.8,312.6Z"/>
    <path class="st9" d="M254.8,475c0,0-.1-.1-.2-.2,98.6-116.6,83.5-152-45.3-106.3l-18.9,6.6,18.8-6.8c128.9-45.5,144.1-9.9,45.6,106.7Z"/>
    <path class="st4" d="M424.6,527.9c0,0-.2,0-.3,0-14.5-152-88.6-213.3-222.1-184.1l-19.6,4.1,19.5-4.4c133.5-29.1,207.7,32.4,222.4,184.3Z"/>
    <path class="st4" d="M423.3,528.1c0,0-.2,0-.3,0-13.7-152.1-75-269.4-183.8-352l-15.8-12.2,16,12c108.8,82.8,170.1,200.2,184,352.2Z"/>
    <path class="st11" d="M190.3,386.1c0,0,0-.2-.1-.3,141.5-57.2,148.2-109.4,19.9-156.6l-18.7-7,18.8,6.8c128.2,47.3,121.6,99.7-19.9,157.1Z"/>
    <path class="st21" d="M197.1,198.7c0,0,0-.2.1-.3,136.8,67.7,138.6,116.5,5.3,146.5l-19.5,4.3,19.5-4.5c133.4-29.8,131.6-78.5-5.3-146Z"/>
    <path class="st21" d="M197.7,197.6c0,0,0-.2.1-.3,136.5,68.5,137.4,90.6,2.9,66.4l-19.7-3.7,19.7,3.4c134.5,24.4,133.4,2.4-3.1-65.9Z"/>
    <path class="st13" d="M183.3,233.9c0,0,0-.2,0-.3,146.1,44.3,152.6,81.8,19.4,112.5l-19.5,4.4,19.5-4.6c133.2-30.6,126.7-67.9-19.4-112Z"/>
    <path class="st10" d="M245.9,132.9c0,0,.1-.1.2-.2,104.2,111.5,103.1,210.2-3.3,295.9l-15.7,12.4,15.5-12.6c106.6-85.6,107.6-184.1,3.3-295.5Z"/>
    <path class="st5" d="M629.8,272.4c0,.2,0,.3,0,.5-151.6,18.1-281.7,68.6-390.2,151.6l-16,12,15.8-12.3c108.7-82.8,238.9-133.4,390.4-151.8Z"/>
    <path class="st25" d="M545.4,121c.1.1.3.2.4.3-95.5,119.1-192.4,131.2-290.7,36.2l-14.2-14.1,14.5,13.8c98.1,95.2,194.8,83.1,290-36.2Z"/>
    <path class="st18" d="M459.7,521.7c-.2,0-.3,0-.5.1-37.8-147.9-115.7-256.5-233.5-325.8l-17.1-10.3,17.3,10c117.7,69.5,195.6,178.2,233.7,326Z"/>
    <path class="st8" d="M629.3,332c0,.2,0,.3,0,.5-151.1-21.6-291.6-11.1-421.4,31.6l-19.1,6,18.9-6.4c129.9-42.4,270.5-52.9,421.6-31.6Z"/>
    <path class="st8" d="M629,333.4c0,.2,0,.3,0,.5-151-22.6-275.9-81.1-374.8-175.4l-14.3-14,14.6,13.7c98.7,94.5,223.6,152.9,374.6,175.2Z"/>
    <path class="st26" d="M354,523.8c-.2,0-.3,0-.5-.1,32.7-149.1,3.1-173.1-88.8-71.9l-13.6,14.6,13.3-14.9c92.1-101,121.9-76.9,89.6,72.3Z"/>
    <path class="st26" d="M352.5,523.5c-.2,0-.3,0-.5-.1,33.6-148.9-14.3-201.6-143.9-158.1l-19,6.1,18.9-6.6c129.6-43.2,177.8,9.6,144.5,158.6Z"/>
    <path class="st26" d="M351.1,523.2c-.2,0-.3,0-.5-.1,34.6-148.7-2.1-181.2-110.1-97.5l-16,12.1,15.7-12.4c108.2-83.5,145.2-50.8,110.9,97.9Z"/>
    <path class="st26" d="M349.6,522.8c-.2,0-.3,0-.5-.1,35.6-148.5-15-220.5-151.5-216l-20,.4,20-.9c136.6-4.2,187.3,68,152,216.5Z"/>
    <path class="st9" d="M256,476c-.1-.1-.3-.2-.4-.3,97.9-117.1,184.3-118.5,259-4l10.7,16.9-11.1-16.6c-74.5-114.6-160.6-113.2-258.2,4.1Z"/>
    <path class="st4" d="M427.6,527.6c-.2,0-.3,0-.5,0-16.4-151.8-78.3-185.5-185.8-101.1l-15.9,12.2,15.6-12.5c107.7-84.2,169.8-50.4,186.6,101.3Z"/>
    <path class="st4" d="M426.1,527.8c-.2,0-.3,0-.5,0-15.4-151.9-87-252.1-214.7-300.7l-18.6-7.3,18.8,6.9c127.6,48.9,199.3,149.2,215,301.1Z"/>
    <path class="st11" d="M190.9,387.5c0-.2-.1-.3-.2-.5,141.2-58,152.7-121.3,34.4-189.8l-17.2-10.2,17.4,9.9c118.1,68.8,106.6,132.3-34.5,190.6Z"/>
    <path class="st15" d="M315.3,511.7c-.2,0-.3-.1-.5-.2,58.4-141,34.2-169-72.7-83.9l-15.8,12.3,15.5-12.6c107.1-84.9,131.6-56.7,73.5,84.4Z"/>
    <path class="st7" d="M605.2,193.5c.1.2.2.4.3.6-135.4,70.6-258.5,145.8-369.4,225.7l-16.4,11.4,16.1-11.9c111.2-79.5,234.3-154.8,369.4-225.8Z"/>
    <path class="st8" d="M629.5,330.3c0,.2,0,.5,0,.7-151.3-20.7-293.9-17.7-428,8.8l-19.7,3.5,19.6-4.2c134.2-26.1,276.9-29,428.2-8.9Z"/>
    <path class="st2" d="M537.7,484.8c-.2.1-.4.3-.6.4-89.7-123.5-189.8-144.9-300.1-64.3l-16.3,11.5,16-12c110.6-80.3,210.9-58.9,301,64.3Z"/>
    <path class="st2" d="M536.3,485.8c-.2.1-.4.3-.6.4-88.8-124.2-200.2-172.5-334-145l-19.7,3.7,19.5-4.3c134-27.1,245.5,21.3,334.7,145.2Z"/>
    <path class="st0" d="M620.1,371.2c0,.2-.1.4-.2.7-144.9-47.9-284.2-57.7-417.9-29.2l-19.6,3.8,19.5-4.4c133.8-28.1,273.2-18.4,418.3,29.1Z"/>
    <path class="st9" d="M257.3,477.1c-.2-.1-.4-.3-.5-.4,97.2-117.7,90.9-135.9-18.8-54.4l-16.3,11.6,15.9-12.2c110-81.2,116.5-62.7,19.7,55.3Z"/>
    <path class="st21" d="M196.4,200.2c.1-.2.2-.4.3-.6,137.2,66.9,151.3,141.5,42.2,223.8l-16.2,11.8,15.8-12.3c109.4-82,95.3-156.2-42.1-222.7Z"/>
    <path class="st23" d="M175.2,272.3c0-.2,0-.5,0-.7,151.5,18.9,198.9,90.6,142.2,214.9l-8.6,18.1,8-18.3c57.1-124.2,9.9-195.5-141.7-214Z"/>
    <path class="st5" d="M629.3,268.6c0,.3,0,.6.1.9-151.3,20.3-257.8,91.5-319.6,213.4l-9.4,17.6,8.7-18c62.2-121.7,169-193,320.2-213.9Z"/>
    <path class="st5" d="M629.6,270.5c0,.3,0,.6.1.9-151.5,19.1-295.5,28.1-432.2,27.1l-20-.6,20-.2c136.7,1.5,280.7-7.5,432.1-27.2Z"/>
    <path class="st20" d="M418.3,71.5c.3,0,.6,0,.9,0-11.1,152.3-80.4,203.7-207.8,154.2l-18.5-7.7,18.8,6.9c127.2,49.9,196.1-1.2,206.6-153.5Z"/>
    <path class="st20" d="M420.2,71.7c.3,0,.6,0,.9,0-12.4,152.2-85.7,215.4-220,189.7l-19.6-4.2,19.7,3.4c134.1,26.2,207.1-36.8,218.9-189Z"/>
    <path class="st7" d="M603.4,190.1c.1.3.3.5.4.8-134.2,72.7-231.7,170.3-292.4,292.8l-9.3,17.7,8.6-18.1c61.2-122.2,158.8-219.9,292.7-293.2Z"/>
    <path class="st7" d="M604.3,191.8c.1.3.3.5.4.8-134.8,71.6-270.6,107.5-407.2,107.7l-20-.4,20-.4c136.7.4,272.3-35.5,406.8-107.6Z"/>
    <path class="st18" d="M461.6,521.2c-.3,0-.6.2-.9.2-38.8-147.7-126.5-220.8-263.2-219.5l-20-.3,20-.6c136.7-.8,224.7,72.6,264.1,220.1Z"/>
    <path class="st1" d="M571.2,454.9c-.2.2-.4.5-.6.7-112.1-103.7-197.9-94.1-257.6,28.9l-9.1,17.8,8.4-18.2c60.2-122.7,146.5-132.4,259-29.2Z"/>
    <path class="st1" d="M569.9,456.3c-.2.2-.4.4-.6.7-111.2-104.6-235.1-155.7-371.7-153.3h-20c0,0,20-.8,20-.8,136.7-1.9,260.8,49.2,372.4,153.4Z"/>
    <path class="st26" d="M355.9,524.2c-.3,0-.6-.1-.9-.2,31.7-149.3,49.8-155.7,54.2-19.1l.2,20-1-20c-3.9-136.6-21.4-130.2-52.5,19.3Z"/>
    <path class="st0" d="M621.3,367.6c0,.3-.2.6-.3.9-145.7-45.6-215.7-.2-210.1,136.4l.4,20-1.2-20c-5-136.6,65.4-182.3,211.2-137.3Z"/>
    <path class="st0" d="M620.7,369.4c0,.3-.2.6-.3.9-145.3-46.9-286.3-68.5-422.9-64.9h-20c0,0,20-.8,20-.8,136.6-3,277.7,18.6,423.2,64.9Z"/>
    <path class="st21" d="M195.5,202c.1-.3.3-.6.4-.8,137.7,65.9,177.2,160.6,118.6,284l-9,17.9,8.2-18.2c59.2-123.2,19.7-217.5-118.2-282.8Z"/>
    <path class="st19" d="M212.7,171.9c.2-.3.3-.5.5-.8,126.2,85.9,160.5,190.8,102.9,314.7l-8.8,17.9,8.1-18.3c58.1-123.7,23.9-228.2-102.6-313.6Z"/>
    <path class="st5" d="M628.7,264.4c0,.4.1.7.2,1.1-150.9,23-162.8,59.5-35.6,109.4l18.4,7.8-18.8-6.9c-127-50.6-115.1-87.7,35.8-111.4Z"/>
    <path class="st5" d="M629,266.5c0,.4.1.7.2,1.1-151.1,21.6-293.9,44.5-428.4,68.8l-19.8,3,19.6-4c134.6-23.6,277.4-46.6,428.5-68.9Z"/>
    <path class="st7" d="M601.3,186.4c.2.3.4.7.6,1-132.9,75.1-185,179.4-156.1,313l3.7,19.7-4.7-19.5c-28.2-133.7,24-238.5,156.6-314.2Z"/>
    <path class="st7" d="M602.4,188.2c.2.3.4.7.5,1-133.6,73.9-265.5,131.7-395.6,173.5l-19.2,5.6,18.9-6.6c130.3-41.2,262.1-99,395.3-173.6Z"/>
    <path class="st25" d="M543.7,119.7c.3.2.6.5.9.7-94.7,119.7-209.2,192.3-343.5,217.8l-19.8,3.2,19.6-4.2c134.4-24.8,248.7-97.4,342.8-217.6Z"/>
    <path class="st18" d="M465.7,520.1c-.4.1-.7.2-1.1.3-41.4-146.9-80-154.5-115.7-22.6l-5.8,19.2,4.8-19.4c36.4-131.7,75.6-124.2,117.8,22.5Z"/>
    <path class="st18" d="M463.6,520.7c-.4.1-.7.2-1.1.3-40-147.3-116.9-183-230.5-107.2l-16.9,10.6,16.4-11.5c114-75.3,191.4-39.4,232.2,107.7Z"/>
    <path class="st8" d="M630,326.1c0,.4,0,.7-.1,1.1-151.6-18.1-283.9,11.3-396.8,88.2l-16.8,10.8,16.3-11.6c113.3-76.4,245.8-105.9,397.5-88.5Z"/>
    <path class="st8" d="M629.8,328.2c0,.4,0,.7-.1,1.1-151.4-19.5-290.6-54.5-417.6-105l-18.4-7.9,18.8,7c126.7,51.1,265.9,86.1,417.4,104.8Z"/>
    <path class="st26" d="M358,524.6c-.4,0-.7-.1-1.1-.2,30.4-149.6,13.7-164-50.2-43.2l-9.8,17.4,8.9-17.9c64.5-120.5,81.9-105.9,52.2,43.9Z"/>
    <path class="st2" d="M539.4,483.6c-.3.2-.6.5-.9.7-90.7-122.8-204.3-186-340.9-189.3l-20-1.1h20c136.6,4.1,250.5,67.3,341.8,189.7Z"/>
    <path class="st0" d="M621.9,365.6c-.1.4-.2.7-.3,1.1-146.1-44.4-275.2-27.7-387.4,50.3l-16.7,11,16.2-11.8c112.6-77.4,242.1-94.3,388.3-50.6Z"/>
    <path class="st9" d="M260.6,479.7c-.3-.2-.6-.5-.9-.7,95.2-119.4,206.6-154.7,334.3-105.9l18.5,7.7-18.8-6.7c-127.4-49.4-238.5-14.1-333.1,105.7Z"/>
    <path class="st9" d="M258.9,478.4c-.3-.2-.6-.5-.9-.7,96.3-118.5,113.1-117,50.3,4.4l-9.7,17.5,8.8-18c63.4-121.1,47.2-122.2-48.5-3.2Z"/>
    <path class="st11" d="M192.5,391.4c-.2-.3-.3-.7-.4-1,140.3-60.2,142.1-91.4,5.4-93.5l-20-.9h20c136.6,2.7,135,34.5-5,95.4Z"/>
    <path class="st11" d="M191.7,389.4c-.1-.3-.3-.7-.4-1,140.8-58.9,144.2-101.8,10.2-128.6l-19.5-4.5,19.7,3.5c133.9,27.5,130.5,71-10,130.6Z"/>
    <path class="st13" d="M182.7,235.9c.1-.4.2-.7.3-1.1,146.4,43.5,163.8,104.7,52.3,183.7l-16.6,11.1,16.1-11.9c111.9-78.5,94.6-139.1-52-181.8Z"/>
    <path class="st20" d="M413.6,71.3c.4,0,.9,0,1.3,0-8.3,152.4-11.5,297-9.6,433.6l-.4,20-.8-20c-1.1-136.7,2-281.2,9.5-433.7Z"/>
    <path class="st20" d="M416,71.4c.4,0,.9,0,1.3,0-9.9,152.3-47.3,288.6-112.3,408.8l-10.1,17.3,9-17.9c65.7-119.8,103-256,112-408.4Z"/>
    <path class="st25" d="M540,116.9c.4.3.7.5,1.1.8-92.4,121.6-101.6,239.8-27.6,354.7l10.3,17.2-11.3-16.5c-73.3-115.3-64.1-234.1,27.5-356.2Z"/>
    <path class="st25" d="M541.8,118.3c.4.3.7.5,1.1.8-93.6,120.6-208.7,178.6-345.3,173.9l-20-1.3h20c136.6,5.6,251.3-52.2,344.2-173.4Z"/>
    <path class="st18" d="M467.9,519.5c-.4.1-.9.3-1.3.4-42.8-146.6-131.5-208.3-266.2-185.3l-19.8,2.7,19.6-3.9c134.8-22.2,224.1,39.8,267.7,186.1Z"/>
    <path class="st1" d="M574.3,451.4c-.3.3-.6.7-.9,1-114-101.6-108.8-180.9,15.4-237.8l18.5-7.7-18,8.8c-124.6,56.2-129.6,134.8-15,235.7Z"/>
    <path class="st1" d="M572.8,453.1c-.3.3-.6.7-.9,1-112.9-102.7-226.9-117.3-342.1-43.6l-17.2,10.2,16.6-11.2c115.6-73,230.1-58.4,343.6,43.7Z"/>
    <path class="st9" d="M262.4,481.2c-.4-.3-.7-.5-1.1-.8,94.1-120.2,142.8-112,146.1,24.6l-.2,20-1-20c-2.5-136.6-50.4-144.6-143.8-23.8Z"/>
    <path class="st23" d="M174.9,274.6c0-.4.1-.9.2-1.3,151.6,17.8,170.3,64.1,55.9,139l-17.1,10.4,16.4-11.4c114.8-74.2,96.3-119.7-55.4-136.6Z"/>
    <path class="st20" d="M406,71c.5,0,1,0,1.6,0-3.4,152.6-63,265.2-178.8,337.7l-17.4,10,16.6-11.1c116.4-71.7,175.7-183.9,178-336.5Z"/>
    <path class="st20" d="M408.5,71.1c.5,0,1,0,1.6,0-5.1,152.6-75.9,225.8-212.4,219.8l-19.9-1.7,20,.3c136.5,7,206.7-65.8,210.8-218.4Z"/>
    <path class="st20" d="M411.1,71.2c.5,0,1,0,1.6,0-6.8,152.5-77.8,238.1-213.2,256.7l-19.9,2,19.7-3.3c135.5-17.7,206.1-102.8,211.9-255.4Z"/>
    <path class="st7" d="M600,184.2c.3.4.5.9.8,1.3-132.2,76.3-265.9,124.5-401.1,144.7l-19.9,2.2,19.7-3.6c135.3-19.2,268.8-67.4,400.5-144.6Z"/>
    <path class="st25" d="M535.9,113.8c.4.3.8.6,1.3.9-89.8,123.5-197.9,159.4-324.4,107.7l-18.2-8.3,18.8,7c126.2,52.5,233.7,16.7,322.6-107.4Z"/>
    <path class="st25" d="M537.9,115.3c.4.3.8.6,1.3.9-91.1,122.5-203.2,168.2-336.3,137.2l-19.3-5.3,19.6,3.9c132.9,31.9,244.5-13.7,334.8-136.8Z"/>
    <path class="st8" d="M630.3,323.5c0,.5-.1,1-.2,1.5-151.7-16.7-261.4,34.3-329,153.1l-10.6,17,9.3-17.7c68.4-118.3,178.5-169.7,330.3-154Z"/>
    <path class="st1" d="M576,449.4c-.3.4-.7.8-1,1.2-115-100.4-191-84.8-227.9,46.7l-6.1,19,4.8-19.4c37.9-131.3,114.6-147.2,230.3-47.5Z"/>
    <path class="st26" d="M360.5,525.1c-.5,0-1-.2-1.5-.3,29-149.9-23.9-214-158.8-192.4l-19.9,2.4,19.7-3.8c135.1-20.7,188.6,44,160.6,194Z"/>
    <path class="st2" d="M543.4,480.5c-.4.3-.8.6-1.2,1-93.1-121-172.8-121.7-239.1-2.1l-10.4,17.1,9.1-17.8c67-119.1,147.5-118.5,241.5,1.8Z"/>
    <path class="st2" d="M541.4,482c-.4.3-.8.6-1.2.9-91.8-122-204.4-197.8-337.8-227.3l-19.4-5.1,19.7,3.7c133.2,30.5,246.2,106.4,338.8,227.7Z"/>
    <path class="st4" d="M430.1,527.3c-.5,0-1,.1-1.5.2-17.4-151.7-92.9-241.5-226.7-269.6l-19.4-4.9,19.7,3.5c133.6,29,209.5,119.2,227.9,270.8Z"/>
    <path class="st7" d="M597.2,179.4c.3.5.6,1,.9,1.5-130.4,79.4-243.1,168.2-338,266.6l-14.5,13.8,13.4-14.9c95.7-97.6,208.4-186.6,338.2-267Z"/>
    <path class="st7" d="M598.6,181.8c.3.5.6,1,.9,1.5-131.4,77.8-198.4,185-201.2,321.7l-1.3,20-.3-20c3.8-136.6,71.1-244.3,201.9-323.1Z"/>
    <path class="st25" d="M531.3,110.7c.5.3,1,.7,1.5,1-86.9,125.5-177.1,238.1-270.9,337.5l-14.3,14,13.2-15.1c94.5-98.7,184.7-211.2,270.6-337.4Z"/>
    <path class="st25" d="M533.6,112.2c.5.3,1,.7,1.4,1-88.4,124.5-191.2,151.7-308.6,81.7l-16.7-11,17.5,9.6c116.8,70.9,218.9,43.8,306.3-81.3Z"/>
    <path class="st18" d="M473.2,517.8c-.6.2-1.1.4-1.7.5-46-145.6-115.3-168.1-207.8-67.5l-14.2,14.1,13-15.2c93.3-99.9,163.5-77.2,210.6,68Z"/>
    <path class="st18" d="M470.6,518.6c-.6.2-1.1.3-1.7.5-44.3-146.1-66.9-150.8-68.1-14.2l-1,20-.5-20c2.2-136.6,26-132.1,71.4,13.7Z"/>
    <path class="st1" d="M577.8,447.3c-.4.5-.8.9-1.1,1.4-116.1-99.1-242-140.1-377.5-123l-19.9,1.6,19.8-3.2c135.7-16.1,262,25,378.9,123.3Z"/>
    <path class="st2" d="M547.8,477c-.5.4-.9.7-1.4,1.1-95.9-118.8-80.8-151.8,45.3-99.2l18.1,8.5-18.7-7c-125.7-53.6-140.1-21.4-43.3,96.6Z"/>
    <path class="st2" d="M545.6,478.8c-.5.4-.9.7-1.4,1.1-94.5-119.9-141.5-111.5-141,25.1l-.8,20-.8-20c.5-136.7,48.5-145.4,143.9-26.2Z"/>
    <path class="st4" d="M432.8,527c-.6,0-1.2.2-1.8.2-19.1-151.5-96.8-231-233.3-238.6l-19.9-2,20,.4c136.4,8.6,214.7,88.6,234.9,239.9Z"/>
    <path class="st11" d="M194.8,396.4c-.2-.5-.5-1.1-.7-1.6,139-63.2,216.9-162.6,233.8-298.3l3.3-19.7-1.8,19.9c-17.9,135.5-96.1,235.4-234.6,299.7Z"/>
    <path class="st11" d="M193.6,393.9c-.2-.5-.5-1.1-.7-1.6,139.7-61.5,273-66.7,399.7-15.6l18.2,8.3-18.8-6.8c-126.4-52.1-259.1-46.8-398.4,15.8Z"/>
    <path class="st5" d="M628.2,261.5c.1.7.2,1.3.3,2-150.7,24.4-212.3,103.5-184.7,237.4l3.1,19.8-4.8-19.4c-26.4-134.1,35.6-214,186.1-239.7Z"/>
    <path class="st20" d="M403,71c.7,0,1.3,0,2,0-1.7,152.7,60.3,256.1,185.7,310.2l18,8.8-18.7-7.2c-125-55.2-187.3-159.2-187-311.9Z"/>
    <path class="st25" d="M528.9,109c.6.4,1.1.7,1.6,1.1-85.3,126.6-186.3,225.5-303,296.7l-17.6,9.6,16.7-11.1c117.3-70.2,218-168.9,302.3-296.2Z"/>
    <path class="st18" d="M478.8,515.9c-.6.2-1.2.4-1.9.7-49.6-144.4-38.8-158.3,32.5-41.6l9.6,17.6-11.1-16.7c-70.3-117.2-80-103.9-29.1,40.1Z"/>
    <path class="st18" d="M476,516.9c-.6.2-1.3.4-1.9.6-47.8-145-107.6-159.4-179.5-43.2l-11.4,16.5,9.8-17.4c72.9-115.6,133.9-101.1,182.9,43.5Z"/>
    <path class="st26" d="M363.4,525.6c-.7-.1-1.3-.2-2-.3,27.4-150.2,77.5-167.5,150.3-51.8l9.8,17.4-11.3-16.5c-71.8-116.3-120.7-99.2-146.8,51.2Z"/>
    <path class="st0" d="M622.7,362.7c-.2.6-.4,1.3-.6,1.9-146.5-43.1-254.9-6-325.3,111.1l-11.1,16.6,9.6-17.6c71.4-116.5,180.5-153.9,327.4-112.1Z"/>
    <path class="st11" d="M196.1,399.1c-.3-.6-.6-1.2-.9-1.8,138.2-64.9,172.8-38.3,104,79.7l-10.9,16.8,9.4-17.7c69.9-117.4,36-143.1-101.6-77Z"/>
    <path class="st7" d="M593.8,174c.4.6.8,1.2,1.2,1.8-128.3,82.7-125.5,138,8.3,165.9l19.4,5.1-19.8-3.2c-133.5-29.1-136.5-85.7-9-169.6Z"/>
    <path class="st7" d="M595.5,176.7c.4.6.8,1.2,1.2,1.9-129.4,80.9-214.3,186.7-254.5,317.3l-6.9,18.8,5-19.4c41.5-130.2,126.6-236.4,255.2-318.6Z"/>
    <path class="st8" d="M630.6,320.3c0,.7-.1,1.5-.2,2.2-151.9-15-247.1,43-285.5,174.2l-6.7,18.9,4.8-19.4c39.7-130.8,135.5-189.4,287.6-175.8Z"/>
    <path class="st1" d="M581.8,442.4c-.5.6-.9,1.1-1.4,1.7-118.6-96.1-110.9-131.1,23.3-105.2l19.4,4.9-19.8-2.9c-133.9-27.2-141.1,6.6-21.5,101.5Z"/>
    <path class="st1" d="M579.8,444.9c-.5.6-.9,1.1-1.4,1.7-117.3-97.7-224-98-320.1-.8l-14.8,13.5,13.4-14.8c97-96.3,204.6-96.1,322.9.5Z"/>
    <path class="st4" d="M436,526.5c-.7.1-1.4.2-2.2.3-20.9-151.2-68-169.2-141.5-53.9l-11.7,16.3,10-17.4c74.5-114.6,123-96.3,145.3,54.7Z"/>
    <path class="st11" d="M197.5,402c-.3-.7-.6-1.3-1-2,137.3-66.7,147.2-65.2,29.6,4.5l-17.8,9.3,16.8-11c118.2-68.5,109-68.8-27.7-.8Z"/>
    <path class="st5" d="M627,254.8c.2.8.3,1.6.5,2.4-150,28.6-158.2,57.7-24.8,87.4l19.3,5.5-19.7-3.4c-133.1-31.1-124.8-61.7,24.9-91.9Z"/>
    <path class="st5" d="M627.6,258.1c.1.8.3,1.6.4,2.4-150.4,26.4-178.3,88.9-83.7,187.5l13,15.3-14.5-13.8c-93.5-99.7-65.2-163.5,84.9-191.4Z"/>
    <path class="st25" d="M523.1,105.3c.7.4,1.4.8,2,1.3-81.8,128.9-143.7,258.4-185.8,388.4l-7.3,18.7,5.2-19.3c43.4-129.6,105.3-259.3,185.8-389Z"/>
    <path class="st25" d="M526,107.2c.7.4,1.3.9,2,1.3-83.7,127.7-163,248.6-238.1,362.9l-12,16.1,10.2-17.3c76.2-113.4,155.5-234.4,237.8-363Z"/>
    <path class="st1" d="M583.9,439.7c-.5.6-1,1.3-1.5,1.9-120-94.4-117.6-113.7,7.2-57.9l17.8,9.2-18.7-7.3c-124.2-57.1-125.8-39.1-4.8,54.1Z"/>
    <path class="st5" d="M626.2,251.2c.2.9.4,1.7.5,2.6-149.5,30.8-189.4,105-119.6,222.5l9.1,17.9-11.1-16.7c-68.4-118.3-28-193.7,121.1-226.2Z"/>
    <path class="st8" d="M631.1,313.1c0,.9-.1,1.7-.2,2.6-152.3-10.5-277.2,32.2-374.6,128l-15.2,13.1,13.5-14.8c98.5-94.7,224-137.7,376.4-128.9Z"/>
    <path class="st8" d="M630.9,316.7c0,.9-.1,1.7-.2,2.6-152.1-12.9-231.5,48.9-238.1,185.4l-2.3,19.9v-20c8.1-136.4,88.3-199.1,240.5-187.9Z"/>
    <path class="st26" d="M367,526.2c-.9-.1-1.7-.3-2.6-.4,25.4-150.5,100.1-197,224-139.4l17.6,9.6-18.6-7.5c-123.3-59-196.7-13.2-220.4,137.7Z"/>
    <path class="st11" d="M199.1,405.2c-.4-.8-.8-1.6-1.2-2.3,136.4-68.6,202.4-34.6,197.9,102l-1.9,19.9-.4-20c6-136.5-58.8-169.7-194.4-99.6Z"/>
    <path class="st7" d="M591.6,170.9c.5.8,1.1,1.6,1.6,2.4-127.1,84.5-129.2,156.6-6.2,216.1l17.4,10-18.5-7.7c-122.3-61.1-120.3-134.7,5.7-220.8Z"/>
    <path class="st25" d="M519.9,103.4c.8.5,1.6,1,2.4,1.5-79.9,130.1-124.1,263.4-132.9,399.8l-2.7,19.9v-20c10.6-136.3,54.9-270,133.1-401Z"/>
    <path class="st8" d="M631.3,309.3c0,.9,0,1.9-.1,2.8-152.5-8.1-194.7,47.2-126.8,165.8l8.7,18-10.9-16.8c-66.4-119.4-23.4-176.1,129.2-169.9Z"/>
    <path class="st7" d="M589.3,167.6c.6.8,1.2,1.7,1.7,2.5-125.7,86.6-155.6,189.8-89.7,309.5l8.3,18.2-10.7-16.9c-64.3-120.6-34.2-225,90.3-313.3Z"/>
    <path class="st18" d="M482.6,514.5c-1,.4-1.9.7-2.9,1-51.5-143.7-32.5-267.1,57.2-370.3l14.2-14.1-12.2,15.9c-91,102-109.8,224.4-56.4,367.4Z"/>
    <path class="st8" d="M631.4,305.3c0,1,0,2,0,3-152.6-5.5-167.9,22.5-45.9,84.1l17.2,10.4-18.4-7.9c-121.2-63.2-105.4-93.1,47.2-89.6Z"/>
    <path class="st8" d="M631.5,301c0,1.1,0,2.2,0,3.3-152.6-2.8-183.2-55-91.8-156.6l14.6-13.8-12.4,15.8c-92.9,100.2-63,150.7,89.7,151.4Z"/>
    <path class="st2" d="M551,474.3c-.8.7-1.7,1.4-2.5,2.1-97.4-117.6-135.5-243.9-114.5-379l4.7-19.5-1.8,20c-23,134.7,15.1,260.2,114.1,376.4Z"/>
    <path class="st9" d="M265.8,483.8c-.9-.6-1.7-1.3-2.6-2,92.8-121.2,148.5-249.5,167-384.9l4.3-19.6-1.4,20c-20.4,135.1-76.2,263.9-167.3,386.4Z"/>
    <path class="st5" d="M625.2,246.9c.3,1.1.5,2.3.8,3.4-149,33.2-245.5,114.4-289.5,243.8l-8.1,18.4,5.1-19.4c45.9-128.7,143.2-210.8,291.7-246.2Z"/>
    <path class="st5" d="M624.1,242.3c.3,1.2.6,2.4.9,3.6-148.3,36.1-272,101.2-370.9,195.5l-15.7,12.5,13.5-14.9c100.4-92.7,224.5-158.2,372.3-196.7Z"/>
    <path class="st5" d="M622.8,237.6c.4,1.3.7,2.5,1,3.8-147.6,39.1-159,30.8-34.2-24.9l19-6.4-17.6,9.6c-125.7,53.6-115.2,59.6,31.7,18Z"/>
    <path class="st25" d="M515.4,100.8c1.2.7,2.4,1.4,3.6,2.1-77.7,131.4-56.8,230.4,62.6,296.8l16.5,11.5-18.3-8.3c-118.2-68.6-139.7-169.3-64.4-302.1Z"/>
    <path class="st18" d="M487.4,512.7c-1.3.5-2.5,1-3.8,1.5-54.1-142.8-20.6-182.3,100.2-118.5l16.7,11.1-18.5-7.9c-119.7-65.9-151.3-28-94.7,113.8Z"/>
    <path class="st1" d="M587.3,435.3c-.9,1.2-1.8,2.4-2.7,3.6-121.4-92.6-150.2-78.5-86.4,42.4l7.4,18.7-11-16.9c-61.4-122.1-30.5-138.1,92.7-47.9Z"/>
    <path class="st7" d="M585.7,162.6c1,1.4,2.1,2.8,3.1,4.2-124.2,88.8-138.2,84.6-42.3-12.7l15.8-12.4-12.6,15.7c-98.2,95.1-86.2,96.8,35.9,5.2Z"/>
    <path class="st1" d="M590.8,430.3c-1,1.4-2,2.8-3,4.2-123.6-89.7-138.7-184.4-45.4-284.2l15.5-12.9-12.2,16.1c-95.6,97.7-80.6,190,45,276.8Z"/>
    <path class="st1" d="M594.9,424.3c-1.1,1.7-2.3,3.5-3.5,5.2-125.9-86.3-175-196.4-147.2-330.2l7.1-18.9-1.6,20.1c-31.4,133,17,240.9,145.2,323.8Z"/>
    <path class="st26" d="M374.1,527.2c-2.1-.3-4.1-.5-6.2-.9,23-150.9,46.3-293.7,69.9-428.3l6.5-19.2-1,20.2c-27.2,133.9-50.3,276.6-69.2,428.1Z"/>
    <path class="st8" d="M631.4,293.4c0,2.2,0,4.4,0,6.7-152.7,0-213-66.4-181-199.3l7.9-18.7-2.1,20.1c-35.8,131.9,22.5,195.6,175.1,191.2Z"/>
    <path class="st5" d="M620.5,229.9c.7,2.2,1.4,4.5,2.1,6.8-146.7,42.2-170.8,16-72.2-78.6l16.8-11.3-12.5,16c-101.5,91.6-79.5,114,65.8,67.2Z"/>
    <path class="st18" d="M495.4,509.3c-2.4,1-4.7,2.1-7.1,3-57.2-141.5-67.6-278.2-31.2-409.9l9-18.2-2.3,20.2c-40.8,130.4-30.3,265.4,31.7,404.9Z"/>
    <path class="st25" d="M507.6,96.5c2.4,1.2,4.7,2.5,7,3.8-74.7,133.1-91.4,134.6-50,4.3l9.8-17.8-3,20.1c-45.9,128.7-33.8,125.3,36.2-10.4Z"/>
    <path class="st7" d="M579.6,154.9c1.9,2.3,3.7,4.6,5.4,6.9-121.7,92.2-159.3,74-112.9-54.6l10.8-17.3-3.5,20.1c-51.4,126.7-18,141.6,100.1,44.8Z"/>
    <path class="st5" d="M617.2,220.4c1,2.8,2,5.6,3,8.5-145.1,47.4-191.7,7.9-139.8-118.6l11.7-16.8-4.3,20c-56.8,124.3-13.7,159.9,129.5,106.8Z"/>
  </g>
  <g>
    <g id="_x32_024">
      <text class="st53" transform="translate(655.3 248.1) rotate(-12.4)"><tspan x="0" y="0">2024</tspan></text>
    </g>
    <g id="_x32_014">
      <text class="st53" transform="translate(461.1 48.7) rotate(-77.7)"><tspan x="0" y="0">2014</tspan></text>
    </g>
    <g id="_x32_022">
      <text class="st53" transform="translate(625 169.3) rotate(-31.2)"><tspan x="0" y="0">2022</tspan></text>
    </g>
    <g id="_x32_019">
      <text class="st53" transform="translate(562.8 97.8) rotate(-52.4)"><tspan x="0" y="0">2019</tspan></text>
    </g>
    <g id="_x32_021">
      <text class="st53" transform="translate(477 547) rotate(72.5)"><tspan x="0" y="0">2021</tspan></text>
    </g>
    <g id="_x32_020">
      <text class="st53" transform="translate(658.9 329.3) rotate(5.7)"><tspan x="0" y="0">2020</tspan></text>
    </g>
    <g id="_x32_023">
      <text class="st53" transform="translate(598.4 468) rotate(39.8)"><tspan x="0" y="0">2023</tspan></text>
    </g>
    <g id="_x32_018">
      <text class="st53" transform="translate(341 573.4) rotate(-76.6)"><tspan x="0" y="0">2018</tspan></text>
    </g>
    <g id="_x32_016">
      <text class="st53" transform="translate(542.2 516.9) rotate(56.4)"><tspan x="0" y="0">2016</tspan></text>
    </g>
    <g id="_x32_013">
      <text class="st53" transform="translate(638.6 404.1) rotate(23)"><tspan x="0" y="0">2013</tspan></text>
    </g>
    <g id="_x32_017">
      <text class="st53" transform="translate(217.7 510.7) rotate(-48)"><tspan x="0" y="0">2017</tspan></text>
    </g>
    <g id="_x32_011">
      <text class="st53" transform="translate(408.1 558) rotate(88)"><tspan x="0" y="0">2011</tspan></text>
    </g>
    <g id="_x32_015">
      <text class="st53" transform="translate(144.8 410.2) rotate(-22.4)"><tspan x="0" y="0">2015</tspan></text>
    </g>
    <g id="_x32_005">
      <text class="st53" transform="translate(273.4 548.8) rotate(-61.9)"><tspan x="0" y="0">2005</tspan></text>
    </g>
    <g id="_x32_002">
      <text class="st53" transform="translate(175 463.7) rotate(-35)"><tspan x="0" y="0">2002</tspan></text>
    </g>
    <g id="_x32_009">
      <text class="st53" transform="translate(122.3 304.4) rotate(-.2)"><tspan x="0" y="0">2009</tspan></text>
    </g>
    <g id="_x32_012">
      <text class="st53" transform="translate(154.1 170.2) rotate(28.3)"><tspan x="0" y="0">2012</tspan></text>
    </g>
    <g id="_x31_979">
      <text class="st53" transform="translate(127.8 355.8) rotate(-10.8)"><tspan x="0" y="0">1979</tspan></text>
    </g>
    <g id="_x32_006">
      <text class="st53" transform="translate(137 210.1) rotate(19.4)"><tspan x="0" y="0">2006</tspan></text>
    </g>
    <g id="_x32_007">
      <text class="st53" transform="translate(125.9 255.1) rotate(9.9)"><tspan x="0" y="0">2007</tspan></text>
    </g>
    <g id="_x32_010">
      <text class="st53" transform="translate(173.6 138.3) rotate(36)"><tspan x="0" y="0">2010</tspan></text>
    </g>
    <g id="_x31_999">
      <text class="st53" transform="translate(193.2 113.6) rotate(42.4)"><tspan x="0" y="0">1999</tspan></text>
    </g>
    <g id="_x32_008">
      <text class="st53" transform="translate(214.1 92.5) rotate(48.5)"><tspan x="0" y="0">2008</tspan></text>
    </g>
    <g id="_x32_025">
      <text class="st53" transform="translate(318 32.8) rotate(73.2)"><tspan x="0" y="0">2025</tspan></text>
    </g>
    <g id="_x32_003">
      <text class="st53" transform="translate(301.1 38.7) rotate(69.5)"><tspan x="0" y="0">2003</tspan></text>
    </g>
    <g id="_x32_000">
      <text class="st53" transform="translate(233.5 76.4) rotate(53.6)"><tspan x="0" y="0">2000</tspan></text>
    </g>
    <g id="_x31_998">
      <text class="st53" transform="translate(250.2 64.7) rotate(57.8)"><tspan x="0" y="0">1998</tspan></text>
    </g>
    <g id="_x31_980">
      <text class="st53" transform="translate(266.8 54.8) rotate(61.8)"><tspan x="0" y="0">1980</tspan></text>
    </g>
    <g id="_x31_992">
      <text class="st53" transform="translate(283.9 46.1) rotate(65.7)"><tspan x="0" y="0">1992</tspan></text>
    </g>
    <g id="_x31_986">
      <text class="st53" transform="translate(349.2 24.9) rotate(79.7)"><tspan x="0" y="0">1986</tspan></text>
    </g>
    <g id="_x31_990">
      <text class="st53" transform="translate(334.6 28.1) rotate(76.7)"><tspan x="0" y="0">1990</tspan></text>
    </g>
    <g id="_x31_981">
      <text class="st53" transform="translate(374.3 21.2) rotate(84.9)"><tspan x="0" y="0">1981</tspan></text>
    </g>
    <g id="_x31_995">
      <text class="st53" transform="translate(386.7 20.2) rotate(87.5)"><tspan x="0" y="0">1995</tspan></text>
    </g>
    <g id="_x31_997">
      <text class="st53" transform="translate(361.8 22.7) rotate(82.4)"><tspan x="0" y="0">1997</tspan></text>
    </g>
  </g>
</svg>