<svg xmlns="http://www.w3.org/2000/svg" width="805" height="600"><rect width="805" height="600" x="0" y="0" fill="#FFFFFF" id="background"/><g transform="translate(402.5,300)" id="chord_diagram"><g><g><path fill="#b5dba5" d="M1.5308084989341916e-14,-250A250,250,0,1,1,-191.98083530297092,160.1354391643947L-184.30160189085208,153.73002159781893A240,240,0,1,0,1.469576158976824e-14,-240Z"/></g><g><path fill="#339999" d="M-248.0054499445016,31.51661145848822A250,250,0,0,1,-235.1493910269695,-84.88088064838499L-225.74341538589073,-81.4856454224496A240,240,0,0,0,-238.08523194672154,30.25594700014869Z"/></g><g><path fill="#f4a988" d="M-198.48458886870063,151.99956572840225A250,250,0,0,1,-246.4773863777556,41.81982788571197L-236.61829092264537,40.1470347702835A240,240,0,0,0,-190.5452053139526,145.91958309926616Z"/></g><g><path fill="#f4e1a1" d="M-231.40961772412828,-94.60226648856157A250,250,0,0,1,-196.14563930334785,-155.00609079091362L-188.29981373121393,-148.80584715927708A240,240,0,0,0,-222.15323301516315,-90.81817582901911Z"/></g><g><path fill="#cb7729" d="M-189.5186801489572,-163.04192673848422A250,250,0,0,1,-140.52341786045866,-206.76839466614555L-134.90248114604032,-198.49765887949974A240,240,0,0,0,-181.9379329429989,-156.52024966894484Z"/></g><g><path fill="#c04e3f" d="M-131.7885962470267,-212.44238253992108A250,250,0,0,1,-71.92095248246524,-239.43136092420096L-69.04411438316663,-229.8541064872329A240,240,0,0,0,-126.51705239714565,-203.94468723832426Z"/></g><g><path fill="#005f56" d="M-61.88510983897402,-242.21939059501022A250,250,0,0,1,-31.106078703338934,-248.0572753774855L-29.861835555205378,-238.1349843623861A240,240,0,0,0,-59.40970544541506,-232.53061497120981Z"/></g><g><path fill="#f7a7a1" d="M-20.74635139786999,-249.13769065253072A250,250,0,0,1,-10.413652846501787,-249.78301750597967L-9.997106732641715,-239.7916968057405A240,240,0,0,0,-19.91649734195519,-239.17218302642948Z"/></g></g><g fill-opacity="0.7"><path fill="#339999" d="M-235.46829685912314,-40.93508488160072Q0,0,-145.72300602845607,-158.08164192603314L-159.2786344962194,-172.7869109424083L-145.72300602845607,-158.08164192603314Q0,0,-235.46829685912314,-40.93508488160072Z"/><path fill="#339999" d="M-235.42104947018998,-41.20593969750436Q0,0,-47.57094896601197,-209.67118260379294L-51.99615352098982,-229.17547865995974L-47.57094896601197,-209.67118260379294Q0,0,-235.42104947018998,-41.20593969750436Z"/><path fill="#339999" d="M-235.37349052209038,-41.476739980951145Q0,0,-14.51233488636451,-214.50965511171287L-15.862319526956556,-234.46404163373268L-14.51233488636451,-214.50965511171287Q0,0,-235.37349052209038,-41.476739980951145Z"/><path fill="#cb7729" d="M-161.78749616577775,-175.91420091740306Q0,0,-47.81212248115523,-209.6163184102016L-52.25976178172781,-229.1155108204529L-47.81212248115523,-209.6163184102016Q0,0,-161.78749616577775,-175.91420091740306Z"/><path fill="#c04e3f" d="M-105.19012994519363,-214.60670204379284Q0,0,-48.05323272113694,-209.5611768077481L-52.523300881242704,-229.05523976660837L-48.05323272113694,-209.5611768077481Q0,0,-105.19012994519363,-214.60670204379284Z"/><path fill="#c04e3f" d="M-104.94317754283249,-214.72757039377487Q0,0,-14.759096438404102,-214.49281823017267L-16.13203564197658,-234.44563853065384L-14.759096438404102,-214.49281823017267Q0,0,-104.94317754283249,-214.72757039377487Z"/><path fill="#f7a7a1" d="M-15.857988077748717,-238.47331971129597Q0,0,-48.294279366868054,-209.50575786940774L-52.786770470762754,-228.99466557818985L-48.294279366868054,-209.50575786940774Q0,0,-15.857988077748717,-238.47331971129597Z"/><path fill="#f7a7a1" d="M-15.58363871376279,-238.49140488587614Q0,0,-15.005838458070938,-214.47569748614941L-16.40173040765893,-234.4269251592796L-15.005838458070938,-214.47569748614941Q0,0,-15.58363871376279,-238.49140488587614Z"/><path fill="#f4e1a1" d="M-214.22000653803303,-105.97541601166324Q0,0,-48.655729398447434,-209.42210961764533L-53.18184376109371,-228.90323609370537L-48.655729398447434,-209.42210961764533Q0,0,-214.22000653803303,-105.97541601166324Z"/><path fill="#f4e1a1" d="M-213.9756122028459,-106.46801107570909Q0,0,-15.375914150068859,-214.44948417762564L-16.806231745424103,-234.39827340345127L-15.375914150068859,-214.44948417762564Q0,0,-213.9756122028459,-106.46801107570909Z"/><path fill="#cb7729" d="M-161.4836987542644,-176.19311858481302Q0,0,-15.869276995261316,-214.41353979552613L-17.345488808773997,-234.35898535790065L-15.869276995261316,-214.41353979552613Q0,0,-161.4836987542644,-176.19311858481302Z"/><path fill="#005f56" d="M-52.478920508784,-233.16724234384367Q0,0,-192.9272065965862,-94.88989911912726L-210.87392348929188,-103.71686647904608L-192.9272065965862,-94.88989911912726Q0,0,-52.478920508784,-233.16724234384367Z"/><path fill="#f7a7a1" d="M-15.172076112035034,-238.51794084816893Q0,0,-211.8861735605444,-36.45887345860898L-231.59651528710666,-39.85039657103772L-211.8861735605444,-36.45887345860898Q0,0,-15.172076112035034,-238.51794084816893Z"/><path fill="#f7a7a1" d="M-14.623255912037608,-238.55221731631642Q0,0,-193.14501782204988,-94.44576269224592L-211.11199622410103,-103.23141503571065L-193.14501782204988,-94.44576269224592Q0,0,-14.623255912037608,-238.55221731631642Z"/><path fill="#f4a988" d="M-216.6878549635347,100.83339482186516Q0,0,-49.25782362847916,-209.28131022952252L-53.83994675670978,-228.74933908808273L-49.25782362847916,-209.28131022952252Q0,0,-216.6878549635347,100.83339482186516Z"/><path fill="#f4a988" d="M-217.03455904854263,100.08496479793887Q0,0,-16.485862111775866,-214.36701320499736L-18.019430680313157,-234.30813071243898L-16.485862111775866,-214.36701320499736Q0,0,-217.03455904854263,100.08496479793887Z"/><path fill="#cb7729" d="M-160.97630163484175,-176.65681507365758Q0,0,-193.41584391048377,-93.88988936192958L-211.4080154370404,-102.62383255838814L-193.41584391048377,-93.88988936192958Q0,0,-160.97630163484175,-176.65681507365758Z"/><path fill="#cb7729" d="M-160.36566789870125,-177.21132175852495Q0,0,-95.07103602760053,-192.838010020428L-103.9148533324936,-210.77642955721197L-95.07103602760053,-192.838010020428Q0,0,-160.36566789870125,-177.21132175852495Z"/><path fill="#005f56" d="M-51.80811730559638,-233.3172067834894Q0,0,-95.73598918315528,-192.50875402205162L-104.64166259554182,-210.41654509387038L-95.73598918315528,-192.50875402205162Q0,0,-51.80811730559638,-233.3172067834894Z"/><path fill="#005f56" d="M-51.00258830164013,-233.4946166114615Q0,0,-49.97979846234277,-209.11006610314962L-54.62908204023512,-228.56216527553562L-49.97979846234277,-209.11006610314962Q0,0,-51.00258830164013,-233.4946166114615Z"/><path fill="#b5dba5" d="M202.11574926673163,127.55478782996613A239,239,0,0,1,202.06025398366032,127.6426800097001Q0,0,-17.395452110006875,-214.2951195101943L-18.962697657209326,-234.2336784016365L-17.30224916575474,-214.30266487798545Q0,0,202.11574926673163,127.55478782996613Z"/><path fill="#339999" d="M-235.26239163884273,-42.10234055693091A239,239,0,0,1,-235.24405822538034,-42.204656966427905Q0,0,-193.81255547477562,-93.06821874483802L-211.8195041009809,-101.77179217452414L-193.77205988619414,-93.15250295864945Q0,0,-235.26239163884273,-42.10234055693091Z"/><path fill="#f4e1a1" d="M-213.63020522130108,-107.15939257528844A239,239,0,0,1,-213.58357922076982,-107.25229455468607Q0,0,-194.2387635193352,-92.1753912195645L-212.28557160977545,-100.79601225401181L-194.19865619926472,-92.25986088435093Q0,0,-213.63020522130108,-107.15939257528844Z"/><path fill="#c04e3f" d="M-104.37194730310064,-215.00580600569555A239,239,0,0,1,-104.27842704081104,-215.0511791502066Q0,0,-194.66085864248709,-91.2806119204383L-212.74714406384348,-99.81809802174264L-194.62114044018261,-91.3652652475913Q0,0,-104.37194730310064,-215.00580600569555Z"/><path fill="#005f56" d="M-50.1128561924994,-233.6871875910827A239,239,0,0,1,-50.011216149715224,-233.70896058822063Q0,0,-212.01850223525443,-35.681293557260666L-231.73266707523095,-39.05087720141738L-212.00296366387718,-35.773501334546125Q0,0,-50.1128561924994,-233.6871875910827Z"/><path fill="#f7a7a1" d="M-13.851767317991184,-238.59825762601082A239,239,0,0,1,-13.747994780618376,-238.60425947478825Q0,0,-194.54170043165925,91.53429298988742L-212.66035446517517,100.0028681525987L-194.58149215507441,91.449674196821Q0,0,-13.851767317991184,-238.59825762601082Z"/><path fill="#339999" d="M-235.06616395069076,-43.1844713468506A239,239,0,0,1,-234.94714411093997,-43.82738269750092Q0,0,-193.9052666885436,92.87490269413355L-212.08162480821514,101.22442599840943L-194.15861992017253,92.34408649553029Q0,0,-235.06616395069076,-43.1844713468506Z"/><path fill="#f4a988" d="M-217.41420023709938,99.25757167724008A239,239,0,0,1,-217.68492663074835,98.66241796026341Q0,0,-195.28627007225873,-89.9348248525832L-213.31777358033597,-98.59273540544719L-195.03950366302766,-90.46873499104439Q0,0,-217.41420023709938,99.25757167724008Z"/><path fill="#005f56" d="M-49.03699750708815,-233.91531133187888A239,239,0,0,1,-48.39688945739837,-234.0485870302326Q0,0,-193.25959478135067,94.21108759030507L-211.3778887868799,102.68587114107484L-193.51660584404252,93.6820327629663Q0,0,-49.03699750708815,-233.91531133187888Z"/><path fill="#c04e3f" d="M-103.38147786037412,-215.48380457798905A239,239,0,0,1,-102.54330545449149,-215.88392831905495Q0,0,-212.29895826978802,-33.972817333315255L-231.9751089496337,-37.58389053578121L-212.16533342583324,-34.797575954439786Q0,0,-103.38147786037412,-215.48380457798905Z"/><path fill="#c04e3f" d="M-101.64290155768845,-216.3093168657653A239,239,0,0,1,-100.80153425570867,-216.70267809073147Q0,0,-146.75446562048288,-157.12455829833382L-160.07203936319215,-172.05214969336672L-146.1427556211423,-157.6936745068079Q0,0,-101.64290155768845,-216.3093168657653Z"/><path fill="#005f56" d="M-47.42126972192316,-234.24820848399378A239,239,0,0,1,-46.51059950235698,-234.4307235281488Q0,0,-148.01498272635692,-155.93769553419807L-161.45233193641766,-170.75756062995518L-147.40787547726703,-156.51171920108266Q0,0,-47.42126972192316,-234.24820848399378Z"/><path fill="#f4a988" d="M-218.09412922604534,97.75454361375247A239,239,0,0,1,-218.583702491492,96.65487574411809Q0,0,-97.43504554442784,-191.65440746237817L-105.97090294658007,-209.75025084296445L-96.46854501591554,-192.14270691991481Q0,0,-218.09412922604534,97.75454361375247Z"/><path fill="#f4e1a1" d="M-213.1348419317501,-108.14129255158689A239,239,0,0,1,-212.2093051904153,-109.9463996254592Q0,0,-99.85244431690418,-190.4061169288937L-108.25684096105022,-208.57961641812915L-98.23275747577256,-191.24676561632631Q0,0,-213.1348419317501,-108.14129255158689Z"/><path fill="#cb7729" d="M-159.68952099909004,-177.82085615326787A239,239,0,0,1,-158.17449741363626,-179.16983107639405Q0,0,-212.71185339946106,-31.28366064523453L-232.35179612578415,-35.18014833854495L-212.43866839552098,-33.08794599756641Q0,0,-159.68952099909004,-177.82085615326787Z"/><path fill="#cb7729" d="M-157.42658557042043,-179.8273342838599A239,239,0,0,1,-155.89461332152723,-181.15703005219396Q0,0,-192.05197177724574,96.64905657310891L-210.36369857209357,104.74786070879614L-192.8653721206744,95.01551576849849Q0,0,-157.42658557042043,-179.8273342838599Z"/><path fill="#b5dba5" d="M201.52665702979778,128.48348729075752A239,239,0,0,1,200.27898011466016,130.4198225893271Q0,0,-52.787102869955866,-208.4191012613688L-56.5990530230493,-228.08232548116052L-50.775919265695684,-208.9181802111141Q0,0,201.52665702979778,128.48348729075752Z"/><path fill="#f4a988" d="M-218.98453254989613,95.74327393557985A239,239,0,0,1,-219.89712999426695,93.62826613947554Q0,0,-150.15349347612042,-153.8795905795069L-163.30882306378038,-168.98292312989165L-148.66343639396007,-155.31961460014955Q0,0,-218.98453254989613,95.74327393557985Z"/><path fill="#cb7729" d="M-155.13844129716907,-181.80501652013024A239,239,0,0,1,-153.37900896233108,-183.29178816775496Q0,0,-152.26338971506812,-151.7921610376415L-165.62595708101435,-166.71245406686927L-150.79335316779097,-153.25261707525215Q0,0,-155.13844129716907,-181.80501652013024Z"/><path fill="#f7a7a1" d="M-12.753693902768852,-238.65947140609038A239,239,0,0,1,-10.452914666545682,-238.77130601262354Q0,0,183.3862724904852,112.2251088751778L199.8520086772372,123.62918194210262L182.2961354831326,113.98736328170486Q0,0,-12.753693902768852,-238.65947140609038Z"/><path fill="#f4e1a1" d="M-211.7493544255265,-110.82964811084065A239,239,0,0,1,-210.54137015726286,-113.10761005477231Q0,0,-154.51635375389532,-149.49814855910785L-168.00606873073326,-164.31360524814775L-152.8945334937693,-151.15641444451722Q0,0,-211.7493544255265,-110.82964811084065Z"/><path fill="#f4e1a1" d="M-210.06826219894623,-113.98388138993506A239,239,0,0,1,-208.69248268117184,-116.48367985417008Q0,0,-190.47054489145683,99.72949177024583L-208.83573103839504,107.76194802275582L-191.64760142469078,97.44843184045014Q0,0,-210.06826219894623,-113.98388138993506Z"/><path fill="#f4e1a1" d="M-208.20532385540793,-117.3522182076875A239,239,0,0,1,-206.235870440134,-120.77982341351665Q0,0,-213.31400002030307,-26.872614225976314L-232.90627536556423,-31.299630913797895L-212.84035515392773,-30.397092261430295Q0,0,-208.20532385540793,-117.3522182076875Z"/><path fill="#c04e3f" d="M-99.89773403091452,-217.12080217125364A239,239,0,0,1,-96.04124622998374,-218.85401303743927Q0,0,-188.24538025498924,103.86855545666606L-206.75274492602708,111.70632240635794L-190.05335315702993,100.52225103811227Q0,0,-99.89773403091452,-217.12080217125364Z"/><path fill="#f4a988" d="M-220.28533781454422,92.71121800479231A239,239,0,0,1,-221.99293263320178,88.54455297143208Q0,0,-213.87577083212673,-21.958020196812075L-233.53472026887525,-26.20180201700237L-213.42411724091087,-25.983575195456346Q0,0,-220.28533781454422,92.71121800479231Z"/><path fill="#c04e3f" d="M-95.12852345740039,-219.25228396715693A239,239,0,0,1,-89.4532723219631,-221.6283196500229Q0,0,-105.50204018792971,-187.33477924876755L-112.67105224763249,-206.22859642981444L-100.64493406840852,-189.98841345294113Q0,0,-95.12852345740039,-219.25228396715693Z"/><path fill="#339999" d="M-234.76249107597744,-44.80594585321933A239,239,0,0,1,-233.0536435011382,-52.98112164577483Q0,0,-214.57082697268228,-13.577931074329348L-234.23579170647722,-18.93657528804548L-213.96540576038925,-21.06668312269385Q0,0,-234.76249107597744,-44.80594585321933Z"/><path fill="#b5dba5" d="M199.73382722928906,131.2531838103004A239,239,0,0,1,194.86686771293537,138.37595119004365Q0,0,-112.95732115286519,-182.9361735632635L-119.83618336700955,-202.14917550172808L-106.28168369456932,-186.8935625190111Q0,0,199.73382722928906,131.2531838103004Z"/><path fill="#b5dba5" d="M194.28861136772397,139.18669294441017A239,239,0,0,1,188.97067658776623,146.32526572660598Q0,0,-198.8423437537884,-81.77238122068017L-215.6371321428714,-93.41106594615982L-195.6593022339977,-89.12035373193457Q0,0,194.28861136772397,139.18669294441017Z"/><path fill="#f4a988" d="M-222.3599401838648,87.6188164804117A239,239,0,0,1,-225.65035046648634,78.75861435012607Q0,0,-183.52636391404153,111.99586487228355L-202.97984958554892,118.42373352596145L-187.81096178740808,104.65200730272088Q0,0,-222.3599401838648,87.6188164804117Z"/><path fill="#b5dba5" d="M188.35934937663254,147.11137108467068A239,239,0,0,1,180.426621708681,156.7393829858741Q0,0,-162.69359465173812,-140.55530676319526L-173.7578039703475,-158.21891656626363L-155.1379196179754,-148.85303455625825Q0,0,188.35934937663254,147.11137108467068Z"/><path fill="#005f56" d="M-45.53340391010201,-234.62248214602008A239,239,0,0,1,-30.23139375551249,-237.08028773307822Q0,0,190.68964823147778,99.30990915993864L204.7991962486979,115.24881437952982L183.8522838653536,111.4600274425475Q0,0,-45.53340391010201,-234.62248214602008Z"/><path fill="#c04e3f" d="M-88.52904715913266,-221.999116685396A239,239,0,0,1,-69.2331484778381,-228.75264184670223Q0,0,198.821699397952,81.82256319934262L213.29288357884764,98.64657021214748L191.10178303264195,98.51450919405247Q0,0,-88.52904715913266,-221.999116685396Z"/><path fill="#cb7729" d="M-152.61396397504055,-183.92927445033055A239,239,0,0,1,-134.75190935888386,-197.39028072358363Q0,0,205.86009479486555,62.02113648627355L221.59139643575165,78.24482746899982L199.16089987782684,80.99343158463057Q0,0,-152.61396397504055,-183.92927445033055Z"/><path fill="#b5dba5" d="M179.77197663489198,157.48979781809314A239,239,0,0,1,163.2612856972162,174.54727896043508Q0,0,-170.9687083498325,130.36372488230734L-193.7188330509414,133.03388185489248L-183.05812271883832,112.7595836576862Q0,0,179.77197663489198,157.48979781809314Z"/><path fill="#339999" d="M-232.83086643419833,-53.95171577902318A239,239,0,0,1,-224.97138426695625,-80.67760693655654Q0,0,211.83353752099876,36.76346530646441L228.80357583104967,53.60898886311047L206.116728471741,61.16285019606746Q0,0,-232.83086643419833,-53.95171577902318Z"/><path fill="#f4e1a1" d="M-205.73083239273,-121.63808861945522A239,239,0,0,1,-187.8235444808888,-147.79484476339348Q0,0,214.868776427243,7.510586971698734L233.79515514264583,23.766056295190374L211.98487935307975,35.8805089938845Q0,0,-205.73083239273,-121.63808861945522Z"/><path fill="#f4a988" d="M-225.97655164250355,77.8177236094896A239,239,0,0,1,-235.54857892537044,40.47056913657805Q0,0,213.16576691643826,-28.02420052252532L234.70664198653213,-11.738492552530898L214.89820527142263,6.615237797804765Q0,0,-225.97655164250355,77.8177236094896Z"/><path fill="#b5dba5" d="M162.53259027600146,175.22601718401702A239,239,0,0,1,127.86070589240906,201.9223610417996Q0,0,-213.34069131639444,26.659884257867827L-234.8747884186731,7.670317156646218L-214.62553893050273,-12.683770685062566Q0,0,162.53259027600146,175.22601718401702Z"/><path fill="#b5dba5" d="M127.01825525548634,202.4533596457518A239,239,0,0,1,-183.21434407058732,153.47150916956687Q0,0,0.44791634265298,-214.99953342030764L154.7782865674906,-176.82952809763353L213.04714935752455,-28.912145382738895Q0,0,127.01825525548634,202.4533596457518Z"/></g><g><g id="Regression‐based Measures" transform="rotate(25.083885600035984) translate(250,0)"><text x="8" dy="0.35em" style="font-family: Arial, sans-serif; font-size: 10px; fill: black; font-weight: bold;">Regression‐based Measures</text></g><g id="Decomposition / Structural Approaches" transform="rotate(186.3027506577904) translate(250,0)"><text x="8" dy="0.35em" transform="rotate(180) translate(-16)" text-anchor="end" style="font-family: Arial, sans-serif; font-size: 10px; fill: black; font-weight: bold;">Decomposition / Structural Approaches</text></g><g id="Rank‐based Measures" transform="rotate(156.46271267841354) translate(250,0)"><text x="8" dy="0.35em" transform="rotate(180) translate(-16)" text-anchor="end" style="font-family: Arial, sans-serif; font-size: 10px; fill: black; font-weight: bold;">Rank‐based Measures</text></g><g id="Others" transform="rotate(210.27654246396935) translate(250,0)"><text x="8" dy="0.35em" transform="rotate(180) translate(-16)" text-anchor="end" style="font-family: Arial, sans-serif; font-size: 10px; fill: black; font-weight: bold;">Others</text></g><g id="Transition Matrix / Probability Measures" transform="rotate(228.25226234024967) translate(250,0)"><text x="8" dy="0.35em" transform="rotate(180) translate(-16)" text-anchor="end" style="font-family: Arial, sans-serif; font-size: 10px; fill: black; font-weight: bold;">Transition Matrix / Probability Measures</text></g><g id="Absolute Mobility Measures" transform="rotate(245.73363562890097) translate(250,0)"><text x="8" dy="0.35em" transform="rotate(180) translate(-16)" text-anchor="end" style="font-family: Arial, sans-serif; font-size: 10px; fill: black; font-weight: bold;">Absolute Mobility Measures</text></g><g id="Non‐parametric Approaches" transform="rotate(259.2602362165201) translate(250,0)"><text x="8" dy="0.35em" transform="rotate(180) translate(-16)" text-anchor="end" style="font-family: Arial, sans-serif; font-size: 10px; fill: black; font-weight: bold;">Non‐parametric Approaches</text></g><g id="Multigenerational Measures" transform="rotate(266.4262440433126) translate(250,0)"><text x="8" dy="0.35em" transform="rotate(180) translate(-16)" text-anchor="end" style="font-family: Arial, sans-serif; font-size: 10px; fill: black; font-weight: bold;">Multigenerational Measures</text></g></g></g></svg>