<?xml version="1.0" encoding="UTF-8"?>
<svg xmlns="http://www.w3.org/2000/svg" viewBox="0 0 861.05 594.29">
  <g isolation="isolate">
    <g id="Layer_1" data-name="Layer 1">
      <g>
        <rect x="297.3" y="16.79" width="10" height="74.4" fill="#666"/>
        <rect x="555.7" y="16.79" width="10" height="124.4" fill="#666"/>
        <rect x="297.3" y="96.19" width="10" height="3.8" fill="#666"/>
        <rect x="555.7" y="146.19" width="10" height="62.4" fill="#666"/>
        <rect x="297.3" y="104.99" width="10" height="109.5" fill="#666"/>
        <rect x="555.7" y="213.49" width="10" height="57.7" fill="#666"/>
        <rect x="297.3" y="219.49" width="10" height="17.8" fill="#666"/>
        <rect x="555.7" y="276.19" width="10" height="96.3" fill="#666"/>
        <rect x="297.3" y="242.29" width="10" height="152.8" fill="#666"/>
        <rect x="555.7" y="377.49" width="10" height="56" fill="#666"/>
        <rect x="297.3" y="400.09" width="10" height="170.1" fill="#666"/>
        <rect x="555.7" y="438.49" width="10" height="118.8" fill="#666"/>
        <rect x="297.3" y="575.19" width="10" height="16.6" fill="#666"/>
        <rect x="555.7" y="562.39" width="10" height="29.4" fill="#666"/>
        <rect x="39" y="14.29" width="10" height="37.4" fill="#666"/>
        <rect x="814" y="14.29" width="10" height="21.3" fill="#666"/>
        <rect x="39" y="56.69" width="10" height="39.4" fill="#666"/>
        <rect x="814" y="40.59" width="10" height="50.3" fill="#666"/>
        <rect x="39" y="101.09" width="10" height="4.7" fill="#666"/>
        <rect x="814" y="95.89" width="10" height=".5" fill="#666"/>
        <rect x="39" y="110.79" width="10" height="13.9" fill="#666"/>
        <rect x="814" y="101.29" width="10" height="4.5" fill="#666"/>
        <rect x="39" y="129.69" width="10" height="28.7" fill="#666"/>
        <rect x="814" y="110.79" width="10" height="12.8" fill="#666"/>
        <rect x="39" y="163.39" width="10" height="79.3" fill="#666"/>
        <rect x="814" y="128.69" width="10" height="76.4" fill="#666"/>
        <rect x="39" y="247.69" width="10" height="300.3" fill="#666"/>
        <rect x="814" y="210.09" width="10" height="306.8" fill="#666"/>
        <rect x="39" y="552.89" width="10" height="41.4" fill="#666"/>
        <rect x="814" y="521.79" width="10" height="72.5" fill="#666"/>
      </g>
      <g mix-blend-mode="multiply">
        <path d="M49,276.39c124.2,0,124.2-221.2,248.3-221.2" fill="none" stroke="#b5dba5" stroke-width="57.5"/>
      </g>
      <g mix-blend-mode="multiply">
        <path d="M49,15.49c124.2,0,124.2,2.5,248.3,2.5" fill="none" stroke="#c04e3f" stroke-width="2.4"/>
      </g>
      <g mix-blend-mode="multiply">
        <path d="M49,556.59c124.2,0,124.2-469,248.3-469" fill="none" stroke="#cb7729" stroke-width="7.2"/>
      </g>
      <g mix-blend-mode="multiply">
        <path d="M49,58.69c124.2,0,124.2-37.5,248.3-37.5" fill="none" stroke="#399" stroke-width="3.9"/>
      </g>
      <g mix-blend-mode="multiply">
        <path d="M49,101.39c124.2,0,124.2-78,248.3-78" fill="none" stroke="#ffc3c2"/>
      </g>
      <g mix-blend-mode="multiply">
        <path d="M49,163.49c124.2,0,124.2-137.1,248.3-137.1" fill="none" stroke="#f4a988"/>
      </g>
      <g mix-blend-mode="multiply">
        <path d="M49,130.99c124.2,0,124.2-106,248.3-106" fill="none" stroke="#f4e1a1" stroke-width="2.6"/>
      </g>
      <g mix-blend-mode="multiply">
        <path d="M49,305.89c124.2,0,124.2-207.1,248.3-207.1" fill="none" stroke="#b5dba5" stroke-width="1.5"/>
      </g>
      <g mix-blend-mode="multiply">
        <path d="M49,61.19c124.2,0,124.2,35.7,248.3,35.7" fill="none" stroke="#399" stroke-width="1.1"/>
      </g>
      <g mix-blend-mode="multiply">
        <path d="M49,560.39c124.2,0,124.2-460.6,248.3-460.6" fill="none" stroke="#cb7729"/>
      </g>
      <g mix-blend-mode="multiply">
        <path d="M49,132.39c124.2,0,124.2-34.7,248.3-34.7" fill="none" stroke="#f4e1a1"/>
      </g>
      <g mix-blend-mode="multiply">
        <path d="M49,110.89c124.2,0,124.2-13.4,248.3-13.4" fill="none" stroke="#005f56"/>
      </g>
      <g mix-blend-mode="multiply">
        <path d="M49,16.79c124.2,0,124.2,79.5,248.3,79.5" fill="none" stroke="#c04e3f"/>
      </g>
      <g mix-blend-mode="multiply">
        <path d="M49,163.59c124.2,0,124.2-65.7,248.3-65.7" fill="none" stroke="#f4a988"/>
      </g>
      <g mix-blend-mode="multiply">
        <path d="M49,329.69c124.2,0,124.2-148.4,248.3-148.4" fill="none" stroke="#b5dba5" stroke-width="46"/>
      </g>
      <g mix-blend-mode="multiply">
        <path d="M49,175.49c124.2,0,124.2-29.1,248.3-29.1" fill="none" stroke="#f4a988" stroke-width="23.7"/>
      </g>
      <g mix-blend-mode="multiply">
        <path d="M49,565.69c124.2,0,124.2-356.3,248.3-356.3" fill="none" stroke="#cb7729" stroke-width="10.1"/>
      </g>
      <g mix-blend-mode="multiply">
        <path d="M49,26.79c124.2,0,124.2,88.1,248.3,88.1" fill="none" stroke="#c04e3f" stroke-width="19.8"/>
      </g>
      <g mix-blend-mode="multiply">
        <path d="M49,65.29c124.2,0,124.2,63.1,248.3,63.1" fill="none" stroke="#399" stroke-width="7.1"/>
      </g>
      <g mix-blend-mode="multiply">
        <path d="M49,133.39c124.2,0,124.2.4,248.3.4" fill="none" stroke="#f4e1a1" stroke-width="1.7"/>
      </g>
      <g mix-blend-mode="multiply">
        <path d="M49,111.19c124.2,0,124.2,21.5,248.3,21.5" fill="none" stroke="#005f56"/>
      </g>
      <g mix-blend-mode="multiply">
        <path d="M49,101.99c124.2,0,124.2,30.1,248.3,30.1" fill="none" stroke="#ffc3c2"/>
      </g>
      <g mix-blend-mode="multiply">
        <path d="M49,359.39c124.2,0,124.2-130.7,248.3-130.7" fill="none" stroke="#b5dba5" stroke-width="13.4"/>
      </g>
      <g mix-blend-mode="multiply">
        <path d="M49,134.49c124.2,0,124.2,86.9,248.3,86.9" fill="none" stroke="#f4e1a1"/>
      </g>
      <g mix-blend-mode="multiply">
        <path d="M49,111.69c124.2,0,124.2,109.1,248.3,109.1" fill="none" stroke="#005f56"/>
      </g>
      <g mix-blend-mode="multiply">
        <path d="M49,571.69c124.2,0,124.2-335.3,248.3-335.3" fill="none" stroke="#cb7729" stroke-width="1.8"/>
      </g>
      <g mix-blend-mode="multiply">
        <path d="M49,69.29c124.2,0,124.2,150.6,248.3,150.6" fill="none" stroke="#399"/>
      </g>
      <g mix-blend-mode="multiply">
        <path d="M49,102.39c124.2,0,124.2,118,248.3,118" fill="none" stroke="#ffc3c2"/>
      </g>
      <g mix-blend-mode="multiply">
        <path d="M49,187.59c124.2,0,124.2,34.3,248.3,34.3" fill="none" stroke="#f4a988"/>
      </g>
      <g mix-blend-mode="multiply">
        <path d="M49,74.79c124.2,0,124.2,175.9,248.3,175.9" fill="none" stroke="#399" stroke-width="10.1"/>
      </g>
      <g mix-blend-mode="multiply">
        <path d="M49,196.69c124.2,0,124.2,78.3,248.3,78.3" fill="none" stroke="#f4a988" stroke-width="18"/>
      </g>
      <g mix-blend-mode="multiply">
        <path d="M49,576.49c124.2,0,124.2-185.4,248.3-185.4" fill="none" stroke="#cb7729" stroke-width="7.9"/>
      </g>
      <g mix-blend-mode="multiply">
        <path d="M49,417.79c124.2,0,124.2-82.2,248.3-82.2" fill="none" stroke="#b5dba5" stroke-width="103.3"/>
      </g>
      <g mix-blend-mode="multiply">
        <path d="M49,114.09c124.2,0,124.2,143.7,248.3,143.7" fill="none" stroke="#005f56" stroke-width="4.1"/>
      </g>
      <g mix-blend-mode="multiply">
        <path d="M49,38.29c124.2,0,124.2,205.6,248.3,205.6" fill="none" stroke="#c04e3f" stroke-width="3.3"/>
      </g>
      <g mix-blend-mode="multiply">
        <path d="M49,137.89c124.2,0,124.2,124.9,248.3,124.9" fill="none" stroke="#f4e1a1" stroke-width="6.2"/>
      </g>
      <g mix-blend-mode="multiply">
        <path d="M49,585.79c124.2,0,124.2-20.9,248.3-20.9" fill="none" stroke="#cb7729" stroke-width="10.7"/>
      </g>
      <g mix-blend-mode="multiply">
        <path d="M49,222.99c124.2,0,124.2,246.6,248.3,246.6" fill="none" stroke="#f4a988" stroke-width="34.6"/>
      </g>
      <g mix-blend-mode="multiply">
        <path d="M49,505.69c124.2,0,124.2,17.4,248.3,17.4" fill="none" stroke="#b5dba5" stroke-width="72.6"/>
      </g>
      <g mix-blend-mode="multiply">
        <path d="M49,120.39c124.2,0,124.2,310.5,248.3,310.5" fill="none" stroke="#005f56" stroke-width="8.6"/>
      </g>
      <g mix-blend-mode="multiply">
        <path d="M49,149.59c124.2,0,124.2,294.2,248.3,294.2" fill="none" stroke="#f4e1a1" stroke-width="17.1"/>
      </g>
      <g mix-blend-mode="multiply">
        <path d="M49,86.29c124.2,0,124.2,330.5,248.3,330.5" fill="none" stroke="#399" stroke-width="13"/>
      </g>
      <g mix-blend-mode="multiply">
        <path d="M49,45.09c124.2,0,124.2,360.1,248.3,360.1" fill="none" stroke="#c04e3f" stroke-width="10.3"/>
      </g>
      <g mix-blend-mode="multiply">
        <path d="M49,104.19c124.2,0,124.2,320.8,248.3,320.8" fill="none" stroke="#ffc3c2" stroke-width="3.3"/>
      </g>
      <g mix-blend-mode="multiply">
        <path d="M49,241.39c124.2,0,124.2,340.1,248.3,340.1" fill="none" stroke="#f4a988" stroke-width="2.4"/>
      </g>
      <g mix-blend-mode="multiply">
        <path d="M49,544.99c124.2,0,124.2,40.7,248.3,40.7" fill="none" stroke="#b5dba5" stroke-width="5.9"/>
      </g>
      <g mix-blend-mode="multiply">
        <path d="M49,94.49c124.2,0,124.2,483.9,248.3,483.9" fill="none" stroke="#399" stroke-width="3.3"/>
      </g>
      <g mix-blend-mode="multiply">
        <path d="M49,50.99c124.2,0,124.2,525,248.3,525" fill="none" stroke="#c04e3f" stroke-width="1.5"/>
      </g>
      <g mix-blend-mode="multiply">
        <path d="M49,592.69c124.2,0,124.2-2.5,248.3-2.5" fill="none" stroke="#cb7729" stroke-width="3.2"/>
      </g>
      <g mix-blend-mode="multiply">
        <path d="M49,158.19c124.2,0,124.2,421.9,248.3,421.9" fill="none" stroke="#f4e1a1"/>
      </g>
      <g mix-blend-mode="multiply">
        <path d="M307.3,30.59h248.3" fill="none" stroke="#ccc" stroke-width="27.6"/>
      </g>
      <g mix-blend-mode="multiply">
        <path d="M307.3,50.89c124.2,0,124.2,101.8,248.3,101.8" fill="none" stroke="#ccc" stroke-width="13"/>
      </g>
      <g mix-blend-mode="multiply">
        <path d="M307.3,73.29c124.2,0,124.2,218.8,248.3,218.8" fill="none" stroke="#ccc" stroke-width="31.7"/>
      </g>
      <g mix-blend-mode="multiply">
        <path d="M307.3,89.59c124.2,0,124.2,288.4,248.3,288.4" fill="none" stroke="#ccc"/>
      </g>
      <g mix-blend-mode="multiply">
        <path d="M307.3,90.59c124.2,0,124.2,472.3,248.3,472.3" fill="none" stroke="#ccc" stroke-width="1.2"/>
      </g>
      <g mix-blend-mode="multiply">
        <path d="M307.3,98.09c124.2,0,124.2,63,248.3,63" fill="none" stroke="#ccc" stroke-width="3.8"/>
      </g>
      <g mix-blend-mode="multiply">
        <path d="M307.3,109.99c124.2,0,124.2-60.6,248.3-60.6" fill="none" stroke="#ccc" stroke-width="10"/>
      </g>
      <g mix-blend-mode="multiply">
        <path d="M307.3,119.59c124.2,0,124.2,48,248.3,48" fill="none" stroke="#ccc" stroke-width="9.4"/>
      </g>
      <g mix-blend-mode="multiply">
        <path d="M307.3,141.39c124.2,0,124.2,89.2,248.3,89.2" fill="none" stroke="#ccc" stroke-width="34.1"/>
      </g>
      <g mix-blend-mode="multiply">
        <path d="M307.3,159.79c124.2,0,124.2,149.5,248.3,149.5" fill="none" stroke="#ccc" stroke-width="2.7"/>
      </g>
      <g mix-blend-mode="multiply">
        <path d="M307.3,168.09c124.2,0,124.2,217.3,248.3,217.3" fill="none" stroke="#ccc" stroke-width="13.9"/>
      </g>
      <g mix-blend-mode="multiply">
        <path d="M307.3,193.29c124.2,0,124.2,263.5,248.3,263.5" fill="none" stroke="#ccc" stroke-width="36.5"/>
      </g>
      <g mix-blend-mode="multiply">
        <path d="M307.3,212.99c124.2,0,124.2,352,248.3,352" fill="none" stroke="#ccc" stroke-width="2.9"/>
      </g>
      <g mix-blend-mode="multiply">
        <path d="M307.3,222.19c124.2,0,124.2-47.1,248.3-47.1" fill="none" stroke="#ccc" stroke-width="5.4"/>
      </g>
      <g mix-blend-mode="multiply">
        <path d="M307.3,231.09c124.2,0,124.2,85.8,248.3,85.8" fill="none" stroke="#ccc" stroke-width="12.4"/>
      </g>
      <g mix-blend-mode="multiply">
        <path d="M307.3,265.19c124.2,0,124.2-187.9,248.3-187.9" fill="none" stroke="#ccc" stroke-width="45.9"/>
      </g>
      <g mix-blend-mode="multiply">
        <path d="M307.3,295.59c124.2,0,124.2-110.4,248.3-110.4" fill="none" stroke="#ccc" stroke-width="14.9"/>
      </g>
      <g mix-blend-mode="multiply">
        <path d="M307.3,304.29c124.2,0,124.2-55.4,248.3-55.4" fill="none" stroke="#ccc" stroke-width="2.4"/>
      </g>
      <g mix-blend-mode="multiply">
        <path d="M307.3,320.49c124.2,0,124.2,17.5,248.3,17.5" fill="none" stroke="#ccc" stroke-width="29.9"/>
      </g>
      <g mix-blend-mode="multiply">
        <path d="M307.3,342.39c124.2,0,124.2,56.9,248.3,56.9" fill="none" stroke="#ccc" stroke-width="14"/>
      </g>
      <g mix-blend-mode="multiply">
        <path d="M307.3,365.79c124.2,0,124.2,125.6,248.3,125.6" fill="none" stroke="#ccc" stroke-width="32.6"/>
      </g>
      <g mix-blend-mode="multiply">
        <path d="M307.3,388.59c124.2,0,124.2,184.4,248.3,184.4" fill="none" stroke="#ccc" stroke-width="13"/>
      </g>
      <g mix-blend-mode="multiply">
        <path d="M307.3,417.09c124.2,0,124.2-299.8,248.3-299.8" fill="none" stroke="#ccc" stroke-width="34.1"/>
      </g>
      <g mix-blend-mode="multiply">
        <path d="M307.3,440.69c124.2,0,124.2-241.5,248.3-241.5" fill="none" stroke="#ccc" stroke-width="13"/>
      </g>
      <g mix-blend-mode="multiply">
        <path d="M307.3,457.69c124.2,0,124.2-197.1,248.3-197.1" fill="none" stroke="#ccc" stroke-width="21.1"/>
      </g>
      <g mix-blend-mode="multiply">
        <path d="M307.3,477.09c124.2,0,124.2-115.4,248.3-115.4" fill="none" stroke="#ccc" stroke-width="17.7"/>
      </g>
      <g mix-blend-mode="multiply">
        <path d="M307.3,499.29c124.2,0,124.2-79.6,248.3-79.6" fill="none" stroke="#ccc" stroke-width="26.7"/>
      </g>
      <g mix-blend-mode="multiply">
        <path d="M307.3,537.49c124.2,0,124.2-5,248.3-5" fill="none" stroke="#ccc" stroke-width="49.7"/>
      </g>
      <g mix-blend-mode="multiply">
        <path d="M307.3,566.29c124.2,0,124.2,17.1,248.3,17.1" fill="none" stroke="#ccc" stroke-width="7.9"/>
      </g>
      <g mix-blend-mode="multiply">
        <path d="M307.3,578.59c124.2,0,124.2-440.8,248.3-440.8" fill="none" stroke="#ccc" stroke-width="6.8"/>
      </g>
      <g mix-blend-mode="multiply">
        <path d="M307.3,583.39c124.2,0,124.2-376.3,248.3-376.3" fill="none" stroke="#ccc" stroke-width="2.9"/>
      </g>
      <g mix-blend-mode="multiply">
        <path d="M307.3,585.79c124.2,0,124.2-214.3,248.3-214.3" fill="none" stroke="#ccc" stroke-width="2"/>
      </g>
      <g mix-blend-mode="multiply">
        <path d="M307.3,586.99c124.2,0,124.2-153.7,248.3-153.7" fill="none" stroke="#ccc"/>
      </g>
      <g mix-blend-mode="multiply">
        <path d="M307.3,589.49h248.3" fill="none" stroke="#ccc" stroke-width="4.5"/>
      </g>
      <g mix-blend-mode="multiply">
        <path d="M565.7,76.39c124.2,0,124.2,185.7,248.3,185.7" fill="none" stroke="#b5dba5" stroke-width="104.2"/>
      </g>
      <g mix-blend-mode="multiply">
        <path d="M565.7,16.99c124.2,0,124.2-2.5,248.3-2.5" fill="none" stroke="#c04e3f"/>
      </g>
      <g mix-blend-mode="multiply">
        <path d="M565.7,20.19c124.2,0,124.2,23.5,248.3,23.5" fill="none" stroke="#399" stroke-width="6.2"/>
      </g>
      <g mix-blend-mode="multiply">
        <path d="M565.7,24.19c124.2,0,124.2,104.6,248.3,104.6" fill="none" stroke="#f4a988"/>
      </g>
      <g mix-blend-mode="multiply">
        <path d="M565.7,23.69c124.2,0,124.2,87.5,248.3,87.5" fill="none" stroke="#f4e1a1"/>
      </g>
      <g mix-blend-mode="multiply">
        <path d="M565.7,134.89c124.2,0,124.2,393.3,248.3,393.3" fill="none" stroke="#cb7729" stroke-width="12.7"/>
      </g>
      <g mix-blend-mode="multiply">
        <path d="M565.7,163.89c124.2,0,124.2-102.1,248.3-102.1" fill="none" stroke="#399" stroke-width="29.9"/>
      </g>
      <g mix-blend-mode="multiply">
        <path d="M565.7,207.19c124.2,0,124.2,328.7,248.3,328.7" fill="none" stroke="#cb7729" stroke-width="2.7"/>
      </g>
      <g mix-blend-mode="multiply">
        <path d="M565.7,179.19c124.2,0,124.2-77.6,248.3-77.6" fill="none" stroke="#005f56"/>
      </g>
      <g mix-blend-mode="multiply">
        <path d="M565.7,193.99c124.2,0,124.2,132.1,248.3,132.1" fill="none" stroke="#b5dba5" stroke-width="23.7"/>
      </g>
      <g mix-blend-mode="multiply">
        <path d="M565.7,181.09c124.2,0,124.2-51,248.3-51" fill="none" stroke="#f4a988" stroke-width="2.1"/>
      </g>
      <g mix-blend-mode="multiply">
        <path d="M565.7,179.69c124.2,0,124.2-67.8,248.3-67.8" fill="none" stroke="#f4e1a1"/>
      </g>
      <g mix-blend-mode="multiply">
        <path d="M565.7,280.89c124.2,0,124.2-167.9,248.3-167.9" fill="none" stroke="#f4e1a1" stroke-width="1.2"/>
      </g>
      <g mix-blend-mode="multiply">
        <path d="M565.7,279.69c124.2,0,124.2-177.3,248.3-177.3" fill="none" stroke="#005f56" stroke-width="1.2"/>
      </g>
      <g mix-blend-mode="multiply">
        <path d="M565.7,282.69c124.2,0,124.2-133.1,248.3-133.1" fill="none" stroke="#f4a988" stroke-width="2.4"/>
      </g>
      <g mix-blend-mode="multiply">
        <path d="M565.7,277.59c124.2,0,124.2-195.8,248.3-195.8" fill="none" stroke="#399" stroke-width="2.7"/>
      </g>
      <g mix-blend-mode="multiply">
        <path d="M565.7,368.49c124.2,0,124.2,177.7,248.3,177.7" fill="none" stroke="#cb7729" stroke-width="8.2"/>
      </g>
      <g mix-blend-mode="multiply">
        <path d="M565.7,324.19c124.2,0,124.2,70.2,248.3,70.2" fill="none" stroke="#b5dba5" stroke-width="80.5"/>
      </g>
      <g mix-blend-mode="multiply">
        <path d="M565.7,413.79c124.2,0,124.2,38.6,248.3,38.6" fill="none" stroke="#b5dba5" stroke-width="35.8"/>
      </g>
      <g mix-blend-mode="multiply">
        <path d="M565.7,383.39c124.2,0,124.2-266.4,248.3-266.4" fill="none" stroke="#f4e1a1" stroke-width="6.8"/>
      </g>
      <g mix-blend-mode="multiply">
        <path d="M565.7,379.39c124.2,0,124.2-275.9,248.3-275.9" fill="none" stroke="#005f56" stroke-width="1.1"/>
      </g>
      <g mix-blend-mode="multiply">
        <path d="M565.7,378.19c124.2,0,124.2-294.4,248.3-294.4" fill="none" stroke="#399" stroke-width="1.4"/>
      </g>
      <g mix-blend-mode="multiply">
        <path d="M565.7,565.99c124.2,0,124.2-477.1,248.3-477.1" fill="none" stroke="#399" stroke-width="3.9"/>
      </g>
      <g mix-blend-mode="multiply">
        <path d="M565.7,572.19c124.2,0,124.2-371.5,248.3-371.5" fill="none" stroke="#f4a988" stroke-width="8.6"/>
      </g>
      <g mix-blend-mode="multiply">
        <path d="M565.7,586.99c124.2,0,124.2,2.5,248.3,2.5" fill="none" stroke="#cb7729" stroke-width="9.5"/>
      </g>
      <g mix-blend-mode="multiply">
        <path d="M565.7,579.39c124.2,0,124.2-65.5,248.3-65.5" fill="none" stroke="#b5dba5" stroke-width="5.7"/>
      </g>
      <g mix-blend-mode="multiply">
        <path d="M565.7,178.89c124.2,0,124.2-82.9,248.3-82.9" fill="none" stroke="#ffc3c2"/>
      </g>
      <g mix-blend-mode="multiply">
        <path d="M565.7,147.59c124.2,0,124.2-131.6,248.3-131.6" fill="none" stroke="#c04e3f" stroke-width="2.7"/>
      </g>
      <g mix-blend-mode="multiply">
        <path d="M565.7,268.79c124.2,0,124.2,270.8,248.3,270.8" fill="none" stroke="#cb7729" stroke-width="4.8"/>
      </g>
      <g mix-blend-mode="multiply">
        <path d="M565.7,258.29c124.2,0,124.2,87.7,248.3,87.7" fill="none" stroke="#b5dba5" stroke-width="16.2"/>
      </g>
      <g mix-blend-mode="multiply">
        <path d="M565.7,241.59c124.2,0,124.2-101.8,248.3-101.8" fill="none" stroke="#f4a988" stroke-width="17.4"/>
      </g>
      <g mix-blend-mode="multiply">
        <path d="M565.7,221.19c124.2,0,124.2-196.2,248.3-196.2" fill="none" stroke="#c04e3f" stroke-width="15.4"/>
      </g>
      <g mix-blend-mode="multiply">
        <path d="M565.7,230.79c124.2,0,124.2-152.3,248.3-152.3" fill="none" stroke="#399" stroke-width="3.8"/>
      </g>
      <g mix-blend-mode="multiply">
        <path d="M565.7,391.39c124.2,0,124.2-235.9,248.3-235.9" fill="none" stroke="#f4a988" stroke-width="9.2"/>
      </g>
      <g mix-blend-mode="multiply">
        <path d="M565.7,432.59c124.2,0,124.2,118.5,248.3,118.5" fill="none" stroke="#cb7729" stroke-width="1.8"/>
      </g>
      <g mix-blend-mode="multiply">
        <path d="M565.7,540.99c124.2,0,124.2,27.4,248.3,27.4" fill="none" stroke="#cb7729" stroke-width="32.8"/>
      </g>
      <g mix-blend-mode="multiply">
        <path d="M565.7,465.59c124.2,0,124.2-287.4,248.3-287.4" fill="none" stroke="#f4a988" stroke-width="36.4"/>
      </g>
      <g mix-blend-mode="multiply">
        <path d="M565.7,445.79c124.2,0,124.2-323.8,248.3-323.8" fill="none" stroke="#f4e1a1" stroke-width="3.3"/>
      </g>
      <g mix-blend-mode="multiply">
        <path d="M565.7,504.19c124.2,0,124.2-13.5,248.3-13.5" fill="none" stroke="#b5dba5" stroke-width="40.8"/>
      </g>
      <g mix-blend-mode="multiply">
        <path d="M565.7,443.19c124.2,0,124.2-338.3,248.3-338.3" fill="none" stroke="#005f56" stroke-width="1.8"/>
      </g>
      <g mix-blend-mode="multiply">
        <path d="M565.7,439.19c124.2,0,124.2-405.8,248.3-405.8" fill="none" stroke="#c04e3f" stroke-width="1.2"/>
      </g>
      <g mix-blend-mode="multiply">
        <path d="M565.7,440.99c124.2,0,124.2-355.2,248.3-355.2" fill="none" stroke="#399" stroke-width="2.4"/>
      </g>
      <g mix-blend-mode="multiply">
        <path d="M565.7,278.99c124.2,0,124.2-182.9,248.3-182.9" fill="none" stroke="#ffc3c2"/>
      </g>
      <g mix-blend-mode="multiply">
        <path d="M565.7,563.19c124.2,0,124.2-528.4,248.3-528.4" fill="none" stroke="#c04e3f" stroke-width="1.7"/>
      </g>
      <g mix-blend-mode="multiply">
        <path d="M565.7,232.79c124.2,0,124.2-120.5,248.3-120.5" fill="none" stroke="#f4e1a1"/>
      </g>
      <g mix-blend-mode="multiply">
        <path d="M565.7,442.19c124.2,0,124.2-346,248.3-346" fill="none" stroke="#ffc3c2"/>
      </g>
    </g>
  </g>
</svg>