<svg xmlns="http://www.w3.org/2000/svg" width="805" height="600"><rect width="805" height="600" x="0" y="0" fill="#FFFFFF" id="background"/><g transform="translate(10,10)" id="viz"><g><rect x="0" y="356.0619745040721" height="65.24165311861071" width="5" fill="black"><title>0: 493</title></rect><rect x="780" y="0" height="263.2163246509487" width="5" fill="black"><title>Regression‐based Measures: 1989</title></rect><rect x="780" y="361.91187367862835" height="32.81933057487964" width="5" fill="black"><title>Absolute Mobility Measures: 248</title></rect><rect x="780" y="409.3407760419211" height="36.260066844826554" width="5" fill="black"><title>Transition Matrix / Probability Measures: 274</title></rect><rect x="780" y="460.2104146751608" height="34.53969870985276" width="5" fill="black"><title>Decomposition / Structural Approaches: 261</title></rect><rect x="780" y="575.89758367814" height="4.102416321860005" width="5" fill="black"><title>Multigenerational Measures: 31</title></rect><rect x="780" y="277.8258964393618" height="69.47640545085346" width="5" fill="black"><title>Rank‐based Measures: 525</title></rect><rect x="780" y="509.3596851734266" height="25.14384197269004" width="5" fill="black"><title>Others: 190</title></rect><rect x="0" y="546.4663787268785" height="3.3084002595644506" width="5" fill="black"><title>1: 25</title></rect><rect x="780" y="549.1130989345298" height="12.174912955197101" width="5" fill="black"><title>Non‐parametric Approaches: 92</title></rect><rect x="0" y="435.913199411096" height="95.94360752736941" width="5" fill="black"><title>2: 725</title></rect><rect x="0" y="564.384350774856" height="15.615649225144011" width="5" fill="black"><title>3: 118</title></rect><rect x="0" y="14.609571788413763" height="133.92404250716936" width="5" fill="black"><title>4: 1012</title></rect><rect x="0" y="163.1431860839962" height="149.14268370116608" width="5" fill="black"><title>5: 1127</title></rect><rect x="0" y="326.8954415735754" height="14.55696114208365" width="5" fill="black"><title>6: 110</title></rect></g><g class="links" fill="none" stroke-opacity="1"><path d="M5,381.27198448195327C392.5,381.27198448195327,392.5,184.54256647850573,780,184.54256647850573" stroke="#b5dba5" style="stroke-width: 50.42; mix-blend-mode: multiply;"><title>0 → Regression‐based Measures: 381</title></path><path d="M5,407.6730185532775C392.5,407.6730185532775,392.5,376.20416279994686,780,376.20416279994686" stroke="#b5dba5" style="stroke-width: 2.11738; mix-blend-mode: multiply;"><title>0 → Absolute Mobility Measures: 16</title></path><path d="M5,411.9077708855202C392.5,411.9077708855202,392.5,431.57322578619437,780,431.57322578619437" stroke="#b5dba5" style="stroke-width: 6.35213; mix-blend-mode: multiply;"><title>0 → Transition Matrix / Probability Measures: 48</title></path><path d="M5,416.8042032696753C392.5,416.8042032696753,392.5,485.08958462708534,780,485.08958462708534" stroke="#b5dba5" style="stroke-width: 3.44074; mix-blend-mode: multiply;"><title>0 → Decomposition / Structural Approaches: 26</title></path><path d="M5,421.038955601918C392.5,421.038955601918,392.5,579.0736479273221,780,579.0736479273221" stroke="#b5dba5" style="stroke-width: 1; mix-blend-mode: multiply;"><title>0 → Multigenerational Measures: 4</title></path><path d="M5,406.54816246502577C392.5,406.54816246502577,392.5,326.0623722238117,780,326.0623722238117" stroke="#b5dba5" style="stroke-width: 1; mix-blend-mode: multiply;"><title>0 → Rank‐based Measures: 1</title></path><path d="M5,419.64942749290117C392.5,419.64942749290117,392.5,531.1289588813609,780,531.1289588813609" stroke="#b5dba5" style="stroke-width: 2.24971; mix-blend-mode: multiply;"><title>0 → Others: 17</title></path><path d="M5,547.1280587787912C392.5,547.1280587787912,392.5,250.77673967498643,780,250.77673967498643" stroke="#f4a988" style="stroke-width: 1.32336; mix-blend-mode: multiply;"><title>1 → Regression‐based Measures: 10</title></path><path d="M5,548.9145949189557C392.5,548.9145949189557,392.5,493.4929212863794,780,493.4929212863794" stroke="#f4a988" style="stroke-width: 1; mix-blend-mode: multiply;"><title>1 → Decomposition / Structural Approaches: 7</title></path><path d="M5,548.2529148670429C392.5,548.2529148670429,392.5,443.81430674658253,780,443.81430674658253" stroke="#f4a988" style="stroke-width: 1; mix-blend-mode: multiply;"><title>1 → Transition Matrix / Probability Measures: 3</title></path><path d="M5,549.5101069656771C392.5,549.5101069656771,392.5,533.8418470942033,780,533.8418470942033" stroke="#f4a988" style="stroke-width: 1; mix-blend-mode: multiply;"><title>1 → Others: 2</title></path><path d="M5,549.7086109812512C392.5,549.7086109812512,392.5,560.6924998430052,780,560.6924998430052" stroke="#f4a988" style="stroke-width: 1; mix-blend-mode: multiply;"><title>1 → Non‐parametric Approaches: 1</title></path><path d="M5,547.9882428462781C392.5,547.9882428462781,392.5,394.66503624831665,780,394.66503624831665" stroke="#f4a988" style="stroke-width: 1; mix-blend-mode: multiply;"><title>1 → Absolute Mobility Measures: 1</title></path><path d="M5,547.8559068358957C392.5,547.8559068358957,392.5,346.9714618642591,780,346.9714618642591" stroke="#f4a988" style="stroke-width: 1; mix-blend-mode: multiply;"><title>1 → Rank‐based Measures: 1</title></path><path d="M5,456.0944409944392C392.5,456.0944409944392,392.5,229.93381803973028,780,229.93381803973028" stroke="#cb7729" style="stroke-width: 40.3625; mix-blend-mode: multiply;"><title>2 → Regression‐based Measures: 305</title></path><path d="M5,486.6640593928148C392.5,486.6640593928148,392.5,336.51691704403555,780,336.51691704403555" stroke="#cb7729" style="stroke-width: 20.7768; mix-blend-mode: multiply;"><title>2 → Rank‐based Measures: 157</title></path><path d="M5,518.8217099157816C392.5,518.8217099157816,392.5,439.1825463831926,780,439.1825463831926" stroke="#cb7729" style="stroke-width: 8.86651; mix-blend-mode: multiply;"><title>2 → Transition Matrix / Probability Measures: 67</title></path><path d="M5,505.7204448879063C392.5,505.7204448879063,392.5,385.9308595630664,780,385.9308595630664" stroke="#cb7729" style="stroke-width: 17.336; mix-blend-mode: multiply;"><title>2 → Absolute Mobility Measures: 131</title></path><path d="M5,526.3648625075886C392.5,526.3648625075886,392.5,489.9198490060498,780,489.9198490060498" stroke="#cb7729" style="stroke-width: 6.21979; mix-blend-mode: multiply;"><title>2 → Decomposition / Structural Approaches: 47</title></path><path d="M5,530.2026068086833C392.5,530.2026068086833,392.5,532.9816630267168,780,532.9816630267168" stroke="#cb7729" style="stroke-width: 1.4557; mix-blend-mode: multiply;"><title>2 → Others: 11</title></path><path d="M5,531.1289588813612C392.5,531.1289588813612,392.5,560.42782782224,780,560.42782782224" stroke="#cb7729" style="stroke-width: 1; mix-blend-mode: multiply;"><title>2 → Non‐parametric Approaches: 3</title></path><path d="M5,531.5921349177002C392.5,531.5921349177002,392.5,579.6029919688524,780,579.6029919688524" stroke="#cb7729" style="stroke-width: 1; mix-blend-mode: multiply;"><title>2 → Multigenerational Measures: 4</title></path><path d="M5,570.2733032368808C392.5,570.2733032368808,392.5,257.32737218892413,780,257.32737218892413" stroke="#c04e3f" style="stroke-width: 11.7779; mix-blend-mode: multiply;"><title>3 → Regression‐based Measures: 89</title></path><path d="M5,579.0736479273224C392.5,579.0736479273224,392.5,534.2388551253512,780,534.2388551253512" stroke="#c04e3f" style="stroke-width: 1; mix-blend-mode: multiply;"><title>3 → Others: 4</title></path><path d="M5,579.6029919688527C392.5,579.6029919688527,392.5,561.0233398689614,780,561.0233398689614" stroke="#c04e3f" style="stroke-width: 1; mix-blend-mode: multiply;"><title>3 → Non‐parametric Approaches: 4</title></path><path d="M5,577.2209437819662C392.5,577.2209437819662,392.5,444.80682682445183,780,444.80682682445183" stroke="#c04e3f" style="stroke-width: 1.58803; mix-blend-mode: multiply;"><title>3 → Transition Matrix / Probability Measures: 12</title></path><path d="M5,578.4119678754093C392.5,578.4119678754093,392.5,494.35310535386594,780,494.35310535386594" stroke="#c04e3f" style="stroke-width: 1; mix-blend-mode: multiply;"><title>3 → Decomposition / Structural Approaches: 6</title></path><path d="M5,579.9338319948093C392.5,579.9338319948093,392.5,579.933831994809,780,579.933831994809" stroke="#c04e3f" style="stroke-width: 1; mix-blend-mode: multiply;"><title>3 → Multigenerational Measures: 1</title></path><path d="M5,576.2945917092879C392.5,576.2945917092879,392.5,347.16996587983306,780,347.16996587983306" stroke="#c04e3f" style="stroke-width: 1; mix-blend-mode: multiply;"><title>3 → Rank‐based Measures: 2</title></path><path d="M5,135.10150924175153C392.5,135.10150924175153,392.5,464.6436710229773,780,464.6436710229773" stroke="#f7a7a1" style="stroke-width: 8.86651; mix-blend-mode: multiply;"><title>4 → Decomposition / Structural Approaches: 67</title></path><path d="M5,113.00139550786088C392.5,113.00139550786088,392.5,285.6998890571252,780,285.6998890571252" stroke="#f7a7a1" style="stroke-width: 15.748; mix-blend-mode: multiply;"><title>4 → Rank‐based Measures: 119</title></path><path d="M5,127.22751662398815C392.5,127.22751662398815,392.5,412.78151231186837,780,412.78151231186837" stroke="#f7a7a1" style="stroke-width: 6.88147; mix-blend-mode: multiply;"><title>4 → Transition Matrix / Probability Measures: 52</title></path><path d="M5,59.86848733925555C392.5,59.86848733925555,392.5,45.25891555084179,780,45.25891555084179" stroke="#f7a7a1" style="stroke-width: 90.5178; mix-blend-mode: multiply;"><title>4 → Regression‐based Measures: 684</title></path><path d="M5,146.74707815541848C392.5,146.74707815541848,392.5,550.8996350746946,780,550.8996350746946" stroke="#f7a7a1" style="stroke-width: 3.57307; mix-blend-mode: multiply;"><title>4 → Non‐parametric Approaches: 27</title></path><path d="M5,122.33108423983285C392.5,122.33108423983285,392.5,363.36756979283683,780,363.36756979283683" stroke="#f7a7a1" style="stroke-width: 2.91139; mix-blend-mode: multiply;"><title>4 → Absolute Mobility Measures: 22</title></path><path d="M5,142.24765380241092C392.5,142.24765380241092,392.5,512.0725733862694,780,512.0725733862694" stroke="#f7a7a1" style="stroke-width: 5.42578; mix-blend-mode: multiply;"><title>4 → Others: 41</title></path><path d="M5,270.79853053022373C392.5,270.79853053022373,392.5,420.92017695039686,780,420.92017695039686" stroke="#339999" style="stroke-width: 9.39586; mix-blend-mode: multiply;"><title>5 → Transition Matrix / Probability Measures: 71</title></path><path d="M5,241.94928026682163C392.5,241.94928026682163,392.5,308.7263548636939,780,308.7263548636939" stroke="#339999" style="stroke-width: 30.3049; mix-blend-mode: multiply;"><title>5 → Rank‐based Measures: 229</title></path><path d="M5,194.9699965810064C392.5,194.9699965810064,392.5,122.34464159869394,780,122.34464159869394" stroke="#339999" style="stroke-width: 63.6536; mix-blend-mode: multiply;"><title>5 → Regression‐based Measures: 481</title></path><path d="M5,305.60290126084186C392.5,305.60290126084186,392.5,556.4577475107628,780,556.4577475107628" stroke="#339999" style="stroke-width: 7.54315; mix-blend-mode: multiply;"><title>5 → Non‐parametric Approaches: 57</title></path><path d="M5,294.35434037832266C392.5,294.35434037832266,392.5,522.2624461857282,780,522.2624461857282" stroke="#339999" style="stroke-width: 14.954; mix-blend-mode: multiply;"><title>5 → Others: 113</title></path><path d="M5,281.1869073452561C392.5,281.1869073452561,392.5,474.76737581724444,780,474.76737581724444" stroke="#339999" style="stroke-width: 11.3809; mix-blend-mode: multiply;"><title>5 → Decomposition / Structural Approaches: 86</title></path><path d="M5,261.6011778086347C392.5,261.6011778086347,392.5,369.3226902600528,780,369.3226902600528" stroke="#339999" style="stroke-width: 8.99885; mix-blend-mode: multiply;"><title>5 → Absolute Mobility Measures: 68</title></path><path d="M5,310.83017367095385C392.5,310.83017367095385,392.5,577.3532797923483,780,577.3532797923483" stroke="#339999" style="stroke-width: 2.91139; mix-blend-mode: multiply;"><title>5 → Multigenerational Measures: 22</title></path><path d="M5,333.1152340615567C392.5,333.1152340615567,392.5,324.93751613556,780,324.93751613556" stroke="#005f56" style="stroke-width: 2.11738; mix-blend-mode: multiply;"><title>6 → Rank‐based Measures: 16</title></path><path d="M5,329.4759937760357C392.5,329.4759937760357,392.5,156.75200429816428,780,156.75200429816428" stroke="#005f56" style="stroke-width: 5.1611; mix-blend-mode: multiply;"><title>6 → Regression‐based Measures: 39</title></path><path d="M5,339.7320345806856C392.5,339.7320345806856,392.5,481.91352037790335,780,481.91352037790335" stroke="#005f56" style="stroke-width: 2.91139; mix-blend-mode: multiply;"><title>6 → Decomposition / Structural Approaches: 22</title></path><path d="M5,334.83560219653015C392.5,334.83560219653015,392.5,374.48379466497323,780,374.48379466497323" stroke="#005f56" style="stroke-width: 1.32336; mix-blend-mode: multiply;"><title>6 → Absolute Mobility Measures: 10</title></path><path d="M5,336.8868103574601C392.5,336.8868103574601,392.5,427.0076334279955,780,427.0076334279955" stroke="#005f56" style="stroke-width: 2.77906; mix-blend-mode: multiply;"><title>6 → Transition Matrix / Probability Measures: 21</title></path><path d="M5,341.3200667052765C392.5,341.3200667052765,392.5,529.8717667827261,780,529.8717667827261" stroke="#005f56" style="stroke-width: 1; mix-blend-mode: multiply;"><title>6 → Others: 2</title></path></g><g><text x="9" y="388.6828010633775" text-anchor="start"><tspan alignment-baseline="middle" style="font-family: Arial, sans-serif; font-size: 10px; fill: black; font-weight: bold;">0</tspan></text><text x="776" y="131.60816232547435" text-anchor="end"><tspan alignment-baseline="middle" style="font-family: Arial, sans-serif; font-size: 10px; fill: black; font-weight: bold;">Regression‐based Measures</tspan></text><text x="776" y="378.32153896606815" text-anchor="end"><tspan alignment-baseline="middle" style="font-family: Arial, sans-serif; font-size: 10px; fill: black; font-weight: bold;">Absolute Mobility Measures</tspan></text><text x="776" y="427.47080946433437" text-anchor="end"><tspan alignment-baseline="middle" style="font-family: Arial, sans-serif; font-size: 10px; fill: black; font-weight: bold;">Transition Matrix / Probability Measures</tspan></text><text x="776" y="477.48026403008714" text-anchor="end"><tspan alignment-baseline="middle" style="font-family: Arial, sans-serif; font-size: 10px; fill: black; font-weight: bold;">Decomposition / Structural Approaches</tspan></text><text x="776" y="577.94879183907" text-anchor="end"><tspan alignment-baseline="middle" style="font-family: Arial, sans-serif; font-size: 10px; fill: black; font-weight: bold;">Multigenerational Measures</tspan></text><text x="776" y="312.56409916478856" text-anchor="end"><tspan alignment-baseline="middle" style="font-family: Arial, sans-serif; font-size: 10px; fill: black; font-weight: bold;">Rank‐based Measures</tspan></text><text x="776" y="521.9316061597716" text-anchor="end"><tspan alignment-baseline="middle" style="font-family: Arial, sans-serif; font-size: 10px; fill: black; font-weight: bold;">Others</tspan></text><text x="9" y="548.1205788566607" text-anchor="start"><tspan alignment-baseline="middle" style="font-family: Arial, sans-serif; font-size: 10px; fill: black; font-weight: bold;">1</tspan></text><text x="776" y="555.2005554121283" text-anchor="end"><tspan alignment-baseline="middle" style="font-family: Arial, sans-serif; font-size: 10px; fill: black; font-weight: bold;">Non‐parametric Approaches</tspan></text><text x="9" y="483.8850031747807" text-anchor="start"><tspan alignment-baseline="middle" style="font-family: Arial, sans-serif; font-size: 10px; fill: black; font-weight: bold;">2</tspan></text><text x="9" y="572.192175387428" text-anchor="start"><tspan alignment-baseline="middle" style="font-family: Arial, sans-serif; font-size: 10px; fill: black; font-weight: bold;">3</tspan></text><text x="9" y="81.57159304199844" text-anchor="start"><tspan alignment-baseline="middle" style="font-family: Arial, sans-serif; font-size: 10px; fill: black; font-weight: bold;">4</tspan></text><text x="9" y="237.71452793457922" text-anchor="start"><tspan alignment-baseline="middle" style="font-family: Arial, sans-serif; font-size: 10px; fill: black; font-weight: bold;">5</tspan></text><text x="9" y="334.1739221446172" text-anchor="start"><tspan alignment-baseline="middle" style="font-family: Arial, sans-serif; font-size: 10px; fill: black; font-weight: bold;">6</tspan></text></g></g></svg>