<svg xmlns="http://www.w3.org/2000/svg" width="805" height="600"><rect width="805" height="600" x="0" y="0" fill="#FFFFFF" id="background"/><g transform="translate(10,10)" id="viz"><g><rect x="0" y="404.2051675656064" height="65.24165311861134" width="5" fill="black"><title>0: 493</title></rect><rect x="780" y="0" height="268.9067730973995" width="5" fill="black"><title>Regression‐based Measures: 2032</title></rect><rect x="780" y="527.7543906166045" height="18.659377463943883" width="5" fill="black"><title>Absolute Mobility Measures: 141</title></rect><rect x="780" y="361.6472016578632" height="44.06789145739879" width="5" fill="black"><title>Decomposition / Structural Approaches: 333</title></rect><rect x="780" y="420.3246649036751" height="66.96202125358406" width="5" fill="black"><title>Rank‐based Measures: 506</title></rect><rect x="780" y="501.89625794567223" height="11.2485608825192" width="5" fill="black"><title>Others: 85</title></rect><rect x="780" y="283.5163448858126" height="63.52128498363754" width="5" fill="black"><title>Transition Matrix / Probability Measures: 480</title></rect><rect x="780" y="561.0233398689616" height="3.9700803114775454" width="5" fill="black"><title>Non‐parametric Approaches: 30</title></rect><rect x="0" y="14.609571788414241" height="3.3084002595644453" width="5" fill="black"><title>1: 25</title></rect><rect x="0" y="484.05639247263076" height="95.94360752736924" width="5" fill="black"><title>2: 725</title></rect><rect x="780" y="579.6029919688522" height="0.3970080311479478" width="5" fill="black"><title>Multigenerational Measures: 3</title></rect><rect x="0" y="344.8134136215526" height="15.615649225143954" width="5" fill="black"><title>3: 118</title></rect><rect x="0" y="196.2797993259707" height="133.92404250716885" width="5" fill="black"><title>4: 1012</title></rect><rect x="0" y="32.527543836391764" height="149.14268370116588" width="5" fill="black"><title>5: 1127</title></rect><rect x="0" y="375.0386346351097" height="14.55696114208365" width="5" fill="black"><title>6: 110</title></rect></g><g class="links" fill="none" stroke-opacity="1"><path d="M5,428.3564894604268C392.5,428.3564894604268,392.5,206.51034420201367,780,206.51034420201367" stroke="#b5dba5" style="stroke-width: 48.3026; mix-blend-mode: multiply;"><title>0 → Regression‐based Measures: 365</title></path><path d="M5,468.7851406323046C392.5,468.7851406323046,392.5,536.2238952810893,780,536.2238952810893" stroke="#b5dba5" style="stroke-width: 1; mix-blend-mode: multiply;"><title>0 → Absolute Mobility Measures: 2</title></path><path d="M5,462.49918013913225C392.5,462.49918013913225,392.5,393.209340134108,780,393.209340134108" stroke="#b5dba5" style="stroke-width: 6.74914; mix-blend-mode: multiply;"><title>0 → Decomposition / Structural Approaches: 51</title></path><path d="M5,466.53542845580085C392.5,466.53542845580085,392.5,466.5099325271949,780,466.5099325271949" stroke="#b5dba5" style="stroke-width: 1.32336; mix-blend-mode: multiply;"><title>0 → Rank‐based Measures: 10</title></path><path d="M5,467.92495656481805C392.5,467.92495656481805,392.5,509.37324253228803,780,509.37324253228803" stroke="#b5dba5" style="stroke-width: 1.4557; mix-blend-mode: multiply;"><title>0 → Others: 11</title></path><path d="M5,455.816211614812C392.5,455.816211614812,392.5,328.90759644703706,780,328.90759644703706" stroke="#b5dba5" style="stroke-width: 6.6168; mix-blend-mode: multiply;"><title>0 → Transition Matrix / Probability Measures: 50</title></path><path d="M5,469.18214866345255C392.5,469.18214866345255,392.5,564.3317401285259,780,564.3317401285259" stroke="#b5dba5" style="stroke-width: 1; mix-blend-mode: multiply;"><title>0 → Non‐parametric Approaches: 4</title></path><path d="M5,16.59461194415301C392.5,16.59461194415301,392.5,362.97056176168905,780,362.97056176168905" stroke="#f4a988" style="stroke-width: 2.64672; mix-blend-mode: multiply;"><title>1 → Decomposition / Structural Approaches: 20</title></path><path d="M5,14.87424380917941C392.5,14.87424380917941,392.5,0.26467202076516894,780,0.26467202076516894" stroke="#f4a988" style="stroke-width: 1; mix-blend-mode: multiply;"><title>1 → Regression‐based Measures: 4</title></path><path d="M5,15.205083835135788C392.5,15.205083835135788,392.5,283.5825128910038,780,283.5825128910038" stroke="#f4a988" style="stroke-width: 1; mix-blend-mode: multiply;"><title>1 → Transition Matrix / Probability Measures: 1</title></path><path d="M5,541.6887249942436C392.5,541.6887249942436,392.5,401.14950075706275,780,401.14950075706275" stroke="#cb7729" style="stroke-width: 9.13118; mix-blend-mode: multiply;"><title>2 → Decomposition / Structural Approaches: 69</title></path><path d="M5,529.7123160546203C392.5,529.7123160546203,392.5,339.6268132880259,780,339.6268132880259" stroke="#cb7729" style="stroke-width: 14.8216; mix-blend-mode: multiply;"><title>2 → Transition Matrix / Probability Measures: 112</title></path><path d="M5,503.1789459729133C392.5,503.1789459729133,392.5,249.78421959711665,780,249.78421959711665" stroke="#cb7729" style="stroke-width: 38.2451; mix-blend-mode: multiply;"><title>2 → Regression‐based Measures: 289</title></path><path d="M5,556.3118541415186C392.5,556.3118541415186,392.5,477.2291493681841,780,477.2291493681841" stroke="#cb7729" style="stroke-width: 20.1151; mix-blend-mode: multiply;"><title>2 → Rank‐based Measures: 152</title></path><path d="M5,567.891255049994C392.5,567.891255049994,392.5,511.6229547087918,780,511.6229547087918" stroke="#cb7729" style="stroke-width: 3.04373; mix-blend-mode: multiply;"><title>2 → Others: 23</title></path><path d="M5,579.9338319948087C392.5,579.9338319948087,392.5,579.9338319948083,780,579.9338319948083" stroke="#cb7729" style="stroke-width: 1; mix-blend-mode: multiply;"><title>2 → Multigenerational Measures: 1</title></path><path d="M5,574.4418875639315C392.5,574.4418875639315,392.5,541.3849996860099,780,541.3849996860099" stroke="#cb7729" style="stroke-width: 10.0575; mix-blend-mode: multiply;"><title>2 → Absolute Mobility Measures: 76</title></path><path d="M5,579.6691599740435C392.5,579.6691599740435,392.5,564.794916164865,780,564.794916164865" stroke="#cb7729" style="stroke-width: 1; mix-blend-mode: multiply;"><title>2 → Non‐parametric Approaches: 3</title></path><path d="M5,358.9071987272973C392.5,358.9071987272973,392.5,386.59253961497916,780,386.59253961497916" stroke="#c04e3f" style="stroke-width: 2.24971; mix-blend-mode: multiply;"><title>3 → Decomposition / Structural Approaches: 17</title></path><path d="M5,350.7023660835774C392.5,350.7023660835774,392.5,168.00056518068325,780,168.00056518068325" stroke="#c04e3f" style="stroke-width: 11.7779; mix-blend-mode: multiply;"><title>3 → Regression‐based Measures: 89</title></path><path d="M5,360.3628948415056C392.5,360.3628948415056,392.5,564.0009001025697,780,564.0009001025697" stroke="#c04e3f" style="stroke-width: 1; mix-blend-mode: multiply;"><title>3 → Non‐parametric Approaches: 1</title></path><path d="M5,360.1643908259318C392.5,360.1643908259318,392.5,508.248386444036,780,508.248386444036" stroke="#c04e3f" style="stroke-width: 1; mix-blend-mode: multiply;"><title>3 → Others: 2</title></path><path d="M5,357.1868305923237C392.5,357.1868305923237,392.5,323.6803240369251,780,323.6803240369251" stroke="#c04e3f" style="stroke-width: 1.19102; mix-blend-mode: multiply;"><title>3 → Transition Matrix / Probability Measures: 9</title></path><path d="M5,303.20729571509384C392.5,303.20729571509384,392.5,380.04190710104143,780,380.04190710104143" stroke="#ffc3c2" style="stroke-width: 10.8516; mix-blend-mode: multiply;"><title>4 → Decomposition / Structural Approaches: 82</title></path><path d="M5,287.98865452109743C392.5,287.98865452109743,392.5,313.2919472218926,780,313.2919472218926" stroke="#ffc3c2" style="stroke-width: 19.5857; mix-blend-mode: multiply;"><title>4 → Transition Matrix / Probability Measures: 148</title></path><path d="M5,237.2377945393787C392.5,237.2377945393787,392.5,121.15361750525051,780,121.15361750525051" stroke="#ffc3c2" style="stroke-width: 81.916; mix-blend-mode: multiply;"><title>4 → Regression‐based Measures: 619</title></path><path d="M5,316.44089675335175C392.5,316.44089675335175,392.5,456.05538770697126,780,456.05538770697126" stroke="#ffc3c2" style="stroke-width: 15.6156; mix-blend-mode: multiply;"><title>4 → Rank‐based Measures: 118</title></path><path d="M5,325.63824947494095C392.5,325.63824947494095,392.5,506.7265223246367,780,506.7265223246367" stroke="#ffc3c2" style="stroke-width: 2.77906; mix-blend-mode: multiply;"><title>4 → Others: 21</title></path><path d="M5,329.4098257708446C392.5,329.4098257708446,392.5,563.2730520454653,780,563.2730520454653" stroke="#ffc3c2" style="stroke-width: 1.32336; mix-blend-mode: multiply;"><title>4 → Non‐parametric Approaches: 10</title></path><path d="M5,327.88796165144475C392.5,327.88796165144475,392.5,534.8343671720727,780,534.8343671720727" stroke="#ffc3c2" style="stroke-width: 1.72037; mix-blend-mode: multiply;"><title>4 → Absolute Mobility Measures: 13</title></path><path d="M5,330.1376738279487C392.5,330.1376738279487,392.5,579.8014959844259,780,579.8014959844259" stroke="#ffc3c2" style="stroke-width: 1; mix-blend-mode: multiply;"><title>4 → Multigenerational Measures: 1</title></path><path d="M5,72.36068296154787C392.5,72.36068296154787,392.5,40.36248316668643,780,40.36248316668643" stroke="#339999" style="stroke-width: 79.6663; mix-blend-mode: multiply;"><title>5 → Regression‐based Measures: 602</title></path><path d="M5,137.20532804901126C392.5,137.20532804901126,392.5,369.4550262704354,780,369.4550262704354" stroke="#339999" style="stroke-width: 10.3222; mix-blend-mode: multiply;"><title>5 → Decomposition / Structural Approaches: 78</title></path><path d="M5,122.1190228653973C392.5,122.1190228653973,392.5,293.5738816748885,780,293.5738816748885" stroke="#339999" style="stroke-width: 19.8504; mix-blend-mode: multiply;"><title>5 → Transition Matrix / Probability Measures: 150</title></path><path d="M5,176.8399631585934C392.5,176.8399631585934,392.5,530.8642868605951,780,530.8642868605951" stroke="#339999" style="stroke-width: 6.21979; mix-blend-mode: multiply;"><title>5 → Absolute Mobility Measures: 47</title></path><path d="M5,156.3278815492938C392.5,156.3278815492938,392.5,434.286113999037,780,434.286113999037" stroke="#339999" style="stroke-width: 27.9229; mix-blend-mode: multiply;"><title>5 → Rank‐based Measures: 211</title></path><path d="M5,172.0096987796293C392.5,172.0096987796293,392.5,503.6166260806457,780,503.6166260806457" stroke="#339999" style="stroke-width: 3.44074; mix-blend-mode: multiply;"><title>5 → Others: 26</title></path><path d="M5,180.74387546487938C392.5,180.74387546487938,392.5,561.817355931257,780,561.817355931257" stroke="#339999" style="stroke-width: 1.58803; mix-blend-mode: multiply;"><title>5 → Non‐parametric Approaches: 12</title></path><path d="M5,181.6040595323661C392.5,181.6040595323661,392.5,579.6691599740435,780,579.6691599740435" stroke="#339999" style="stroke-width: 1; mix-blend-mode: multiply;"><title>5 → Multigenerational Measures: 1</title></path><path d="M5,379.2733869673522C392.5,379.2733869673522,392.5,178.12426997495055,780,178.12426997495055" stroke="#005f56" style="stroke-width: 8.4695; mix-blend-mode: multiply;"><title>6 → Regression‐based Measures: 64</title></path><path d="M5,385.8901874864813C392.5,385.8901874864813,392.5,388.7760837862915,780,388.7760837862915" stroke="#005f56" style="stroke-width: 2.11738; mix-blend-mode: multiply;"><title>6 → Decomposition / Structural Approaches: 16</title></path><path d="M5,387.94139564741124C392.5,387.94139564741124,392.5,464.85573239741285,780,464.85573239741285" stroke="#005f56" style="stroke-width: 1.98504; mix-blend-mode: multiply;"><title>6 → Rank‐based Measures: 15</title></path><path d="M5,389.06625173566295C392.5,389.06625173566295,392.5,508.51305846480113,780,508.51305846480113" stroke="#005f56" style="stroke-width: 1; mix-blend-mode: multiply;"><title>6 → Others: 2</title></path><path d="M5,389.3970917616195C392.5,389.3970917616195,392.5,535.893055255133,780,535.893055255133" stroke="#005f56" style="stroke-width: 1; mix-blend-mode: multiply;"><title>6 → Absolute Mobility Measures: 3</title></path><path d="M5,384.1698193515075C392.5,384.1698193515075,392.5,324.9375161355597,780,324.9375161355597" stroke="#005f56" style="stroke-width: 1.32336; mix-blend-mode: multiply;"><title>6 → Transition Matrix / Probability Measures: 10</title></path></g><g><text x="9" y="436.8259941249121" text-anchor="start"><tspan alignment-baseline="middle" style="font-family: Arial, sans-serif; font-size: 10px; fill: black; font-weight: bold;">0</tspan></text><text x="776" y="134.45338654869974" text-anchor="end"><tspan alignment-baseline="middle" style="font-family: Arial, sans-serif; font-size: 10px; fill: black; font-weight: bold;">Regression‐based Measures</tspan></text><text x="776" y="537.0840793485764" text-anchor="end"><tspan alignment-baseline="middle" style="font-family: Arial, sans-serif; font-size: 10px; fill: black; font-weight: bold;">Absolute Mobility Measures</tspan></text><text x="776" y="383.6811473865626" text-anchor="end"><tspan alignment-baseline="middle" style="font-family: Arial, sans-serif; font-size: 10px; fill: black; font-weight: bold;">Decomposition / Structural Approaches</tspan></text><text x="776" y="453.80567553046717" text-anchor="end"><tspan alignment-baseline="middle" style="font-family: Arial, sans-serif; font-size: 10px; fill: black; font-weight: bold;">Rank‐based Measures</tspan></text><text x="776" y="507.52053838693183" text-anchor="end"><tspan alignment-baseline="middle" style="font-family: Arial, sans-serif; font-size: 10px; fill: black; font-weight: bold;">Others</tspan></text><text x="776" y="315.2769873776314" text-anchor="end"><tspan alignment-baseline="middle" style="font-family: Arial, sans-serif; font-size: 10px; fill: black; font-weight: bold;">Transition Matrix / Probability Measures</tspan></text><text x="776" y="563.0083800247003" text-anchor="end"><tspan alignment-baseline="middle" style="font-family: Arial, sans-serif; font-size: 10px; fill: black; font-weight: bold;">Non‐parametric Approaches</tspan></text><text x="9" y="16.263771918196465" text-anchor="start"><tspan alignment-baseline="middle" style="font-family: Arial, sans-serif; font-size: 10px; fill: black; font-weight: bold;">1</tspan></text><text x="9" y="532.0281962363154" text-anchor="start"><tspan alignment-baseline="middle" style="font-family: Arial, sans-serif; font-size: 10px; fill: black; font-weight: bold;">2</tspan></text><text x="776" y="579.8014959844261" text-anchor="end"><tspan alignment-baseline="middle" style="font-family: Arial, sans-serif; font-size: 10px; fill: black; font-weight: bold;">Multigenerational Measures</tspan></text><text x="9" y="352.6212382341246" text-anchor="start"><tspan alignment-baseline="middle" style="font-family: Arial, sans-serif; font-size: 10px; fill: black; font-weight: bold;">3</tspan></text><text x="9" y="263.2418205795551" text-anchor="start"><tspan alignment-baseline="middle" style="font-family: Arial, sans-serif; font-size: 10px; fill: black; font-weight: bold;">4</tspan></text><text x="9" y="107.09888568697471" text-anchor="start"><tspan alignment-baseline="middle" style="font-family: Arial, sans-serif; font-size: 10px; fill: black; font-weight: bold;">5</tspan></text><text x="9" y="382.3171152061515" text-anchor="start"><tspan alignment-baseline="middle" style="font-family: Arial, sans-serif; font-size: 10px; fill: black; font-weight: bold;">6</tspan></text></g></g></svg>