<?xml version="1.0" encoding="UTF-8"?>
<svg id="Layer_1" xmlns="http://www.w3.org/2000/svg" version="1.1" viewBox="0 0 805 600">
  <!-- Generator: Adobe Illustrator 29.1.0, SVG Export Plug-In . SVG Version: 2.1.0 Build 142)  -->
  <defs>
    <style>
      .st0 {
        fill: #ff7f0e;
      }

      .st1 {
        fill: #9467bd;
      }

      .st2 {
        font-family: Helvetica, Helvetica;
      }

      .st2, .st3 {
        font-size: 10px;
      }

      .st2, .st3, .st4 {
        isolation: isolate;
      }

      .st5 {
        fill: #d62728;
      }

      .st3, .st4 {
        font-family: Arial-BoldMT, Arial;
        font-weight: 700;
      }

      .st4 {
        fill: #7b7b7b;
        font-size: 12px;
      }

      .st6 {
        fill: #bcbd22;
      }

      .st7 {
        fill: #e377c2;
      }

      .st8 {
        fill: #2ca02c;
      }

      .st9 {
        fill: #8c564b;
      }

      .st10 {
        fill: #7f7f7f;
      }

      .st11 {
        fill: none;
        stroke: #000;
      }

      .st12 {
        fill: #1f77b4;
      }
    </style>
  </defs>
  <g id="viz">
    <g>
      <g>
        <path class="st0" d="M10,337.3l8-.8c8-.8,24-2.3,34.7-.8,10.7,1.6,16,6.2,21.4,7.8,5.3,1.6,10.7,0,26.7,0s42.7,1.6,66.7,1.6,45.4-1.6,61.4-2.3,26.7-.8,40-2.3c13.3-1.6,29.4-4.7,40.1-5.4,10.7-.8,16,.8,21.4,1.6,5.3.8,10.7.8,16-2.6,5.3-3.4,10.7-10.3,16-12.1,5.3-1.9,10.7,1.2,16,1.5,5.3.3,10.7-2.3,16-5.2,5.3-2.9,10.7-6,16-9.1s10.7-6.2,16-6.4c5.3-.2,10.7,2.5,16,3.9,5.3,1.4,10.7,1.4,16-2.1s10.7-10.5,16-18.5c5.3-8,10.7-17.1,16-21.8,5.3-4.7,10.7-5.1,16-4.3,5.3.7,10.7,2.5,16,3.6,5.3,1.1,10.7,1.6,16,2.4,5.3.8,10.7,2.1,16-8.2,5.3-10.3,10.7-32.1,16-37.9,5.3-5.9,10.7,4.2,16,4.2s10.7-9.9,16-20.8,10.7-22.7,16-29.9c5.3-7.2,10.7-9.8,16-9.8,5.3,0,10.7,2.6,16,14.2,5.3,11.6,10.7,32.1,16,29,5.3-3,10.7-29.6,16-54.1,5.3-24.5,10.7-46.8,16-42.4,5.3,4.4,10.7,35.6,16,43.2,5.3,7.7,10.7-8.1,16-9.8s10.7,10.8,16,14.3c5.3,3.5,10.7-1.9,16-6.5s10.7-8.6,16,9c5.3,17.6,10.7,56.8,13.4,76.3l2.7,19.6h0l-2.7-14.9c-2.7-14.9-8-44.7-13.4-62.3s-10.7-23-16-23-10.7,5.4-16,1.9c-5.3-3.5-10.7-16-16-12.8-5.3,3.2-10.7,22.1-16,16s-10.7-37.3-16-38.6c-5.3-1.3-10.7,27.3-16,54.9s-10.7,54.2-16,55.6c-5.3,1.5-10.7-22.1-16-36.8-5.3-14.7-10.7-20.4-16-20.4s-10.7,5.7-16,11.3c-5.3,5.7-10.7,11.3-16,19.1-5.3,7.8-10.7,17.7-16,20.8s-10.7-.8-16,5.1c-5.3,5.9-10.7,21.4-16,28.6-5.3,7.2-10.7,5.9-16,6.7-5.3.7-10.7,3.4-16,2.3-5.3-1.1-10.7-6-16-6.7-5.3-.7-10.7,2.8-16,7.5-5.3,4.7-10.7,10.6-16,18.7-5.3,8-10.7,18.1-16,21.6s-10.7.4-16-2.5c-5.3-2.9-10.7-5.6-16-5.4-5.3.2-10.7,3.3-16,6.4s-10.7,6.2-16,9.1c-5.3,2.9-10.7,5.4-16,5.2-5.3-.3-10.7-3.4-16-1.5-5.3,1.9-10.7,8.7-16,12.1-5.3,3.4-10.7,3.4-16,2.6-5.3-.8-10.7-2.3-21.4-1.6-10.7.8-26.7,3.9-40.1,5.4-13.3,1.6-24,1.6-40,2.3s-37.4,2.3-61.4,2.3-50.7-1.6-66.7-1.6-21.4,1.6-26.7,0c-5.3-1.6-10.7-6.2-21.4-6.2s-26.7,4.7-34.7,7l-8,2.3v-9.3Z"/>
        <path class="st9" d="M10,346.7l8-2.3c8-2.3,24-7,34.7-7s16,4.7,21.4,6.2c5.3,1.6,10.7,0,26.7,0s42.7,1.6,66.7,1.6,45.4-1.6,61.4-2.3,26.7-.8,40-2.3c13.3-1.6,29.4-4.7,40.1-5.4,10.7-.8,16,.8,21.4,1.6,5.3.8,10.7.8,16-2.6,5.3-3.4,10.7-10.3,16-12.1,5.3-1.9,10.7,1.2,16,1.5,5.3.3,10.7-2.3,16-2.1,5.3.3,10.7,3.4,16,.3s10.7-12.4,16-15.8c5.3-3.3,10.7-.6,16,2.3,5.3,2.9,10.7,6,16,4.1,5.3-1.9,10.7-8.9,16-13.9s10.7-7.7,16-9.3c5.3-1.6,10.7-2,16-1.2,5.3.7,10.7,2.5,16,.5,5.3-2,10.7-7.8,16-8.5s10.7,3.6,16-2c5.3-5.6,10.7-21.2,16-22.4,5.3-1.2,10.7,11.9,16,15.1s10.7-3.6,16-11.4,10.7-16.5,16-22.2c5.3-5.7,10.7-8.2,16-11.3s10.7-6.7,16,1.7c5.3,8.4,10.7,29,16,30.6,5.3,1.6,10.7-15.6,16-32.3s10.7-32.8,16-31.5c5.3,1.3,10.7,20,16,23s10.7-9.7,16-17.6c5.3-7.9,10.7-11,16-13.7s10.7-5,16-.3c5.3,4.7,10.7,16.3,16,30.8s10.7,31.9,13.4,40.6l2.7,8.7v9.3l-2.7-.9c-2.7-.9-8-2.7-13.4-4.8s-10.7-4.4-16-4.4-10.7,2.3-16,5-10.7,5.8-16,7.4-10.7,1.9-16,3.6-10.7,4.7-16,6.6c-5.3,1.8-10.7,2.4-16,2s-10.7-1.8-16-5-10.7-8.1-16-11.9c-5.3-3.8-10.7-6.4-16-8-5.3-1.6-10.7-2.1-16-1.1-5.3,1-10.7,3.5-16,6.6-5.3,3.1-10.7,6.8-16,8.3s-10.7.8-16,2c-5.3,1.2-10.7,4.3-16,6.8s-10.7,4.4-16,6.7-10.7,4.9-16,6.9c-5.3,2-10.7,3.3-16,2.6-5.3-.7-10.7-3.5-16-3.4-5.3,0-10.7,2.9-16,6.2s-10.7,7.2-16,7.6c-5.3.4-10.7-2.7-16-5.6-5.3-2.9-10.7-5.6-16-2.3-5.3,3.3-10.7,12.6-16,17.3-5.3,4.7-10.7,4.7-16,4.4-5.3-.3-10.7-.8-16-1-5.3-.3-10.7-.3-16,1.6-5.3,1.9-10.7,5.6-16,7.5s-10.7,1.9-16,1.1c-5.3-.8-10.7-2.3-21.4-1.6-10.7.8-26.7,3.9-40.1,5.4-13.3,1.6-24,1.6-40,2.3s-37.4,2.3-61.4,3.9c-24,1.6-50.7,3.1-66.7,3.1s-21.4-1.6-26.7-3.1c-5.3-1.6-10.7-3.1-21.4-3.1s-26.7,1.6-34.7,2.3l-8,.8Z"/>
        <path class="st5" d="M10,346.7l8-.8c8-.8,24-2.3,34.7-2.3s16,1.6,21.4,3.1c5.3,1.6,10.7,3.1,26.7,3.1s42.7-1.6,66.7-3.1c24-1.6,45.4-3.1,61.4-3.9s26.7-.8,40-2.3c13.3-1.6,29.4-4.7,40.1-5.4,10.7-.8,16,.8,21.4,1.6,5.3.8,10.7.8,16,.5,5.3-.3,10.7-.9,16-1.2,5.3-.3,10.7-.3,16-1.6,5.3-1.3,10.7-3.9,16-5.2s10.7-1.3,16-4.4,10.7-9.3,16-11.1c5.3-1.8,10.7,1,16,2.3,5.3,1.4,10.7,1.4,16-.6s10.7-5.8,16-4.5c5.3,1.3,10.7,7.8,16,10.9,5.3,3.1,10.7,2.7,16,1.9,5.3-.8,10.7-2.2,16-5.7,5.3-3.5,10.7-9.3,16-13.2,5.3-3.8,10.7-5.7,16-3.6s10.7,8.4,16,8.7c5.3.4,10.7-5.2,16-9.8s10.7-8.3,16-6.8,10.7,8.4,16,12.1c5.3,3.7,10.7,4.2,16,2.7s10.7-5.2,16-6c5.3-.9,10.7,1,16,5.7,5.3,4.7,10.7,12.4,16,22.1,5.3,9.8,10.7,21.6,16,21.4,5.3-.3,10.7-12.7,16-11.2s10.7,16.8,16,16.7c5.3-.1,10.7-15.6,16-13.7,5.3,2,10.7,21.5,16,30.8s10.7,8.5,16-8.1,10.7-49,13.4-65.2l2.7-16.2v18.7l-2.7,17.8c-2.7,17.8-8,53.3-13.4,73s-10.7,23.6-16,28.3c-5.3,4.7-10.7,10.1-16,11.2-5.3,1.1-10.7-2-16-8.1s-10.7-15.2-16-13.5-10.7,14.1-16,14.3c-5.3.3-10.7-11.6-16-29.1-5.3-17.5-10.7-40.7-16-45.5s-10.7,9-16,16.1c-5.3,7.1-10.7,7.6-16,4.5s-10.7-9.9-16-13.6c-5.3-3.7-10.7-4.3-16-7.4-5.3-3.1-10.7-8.7-16-8.8-5.3,0-10.7,5.5-16,5.1-5.3-.4-10.7-6.6-16-10.3s-10.7-4.9-16-5.8-10.7-1.3-16,.7c-5.3,2-10.7,6.4-16,8.8-5.3,2.4-10.7,2.8-16,1.2-5.3-1.5-10.7-4.9-16-7.8-5.3-2.9-10.7-5.2-16-6.4-5.3-1.2-10.7-1.2-16-1-5.3.2-10.7.6-16,.8-5.3.2-10.7.2-16,3.3-5.3,3.1-10.7,9.3-16,10.6s-10.7-2.3-16,.5c-5.3,2.9-10.7,12.2-16,14.1-5.3,1.9-10.7-3.7-16-6.5-5.3-2.8-10.7-2.8-16-2-5.3.8-10.7,2.3-21.4,1.6-10.7-.8-26.7-3.9-40.1-5.4-13.3-1.6-24-1.6-40-.8s-37.4,2.3-61.4,3.9c-24,1.6-50.7,3.1-66.7,4.7-16,1.6-21.4,3.1-26.7,4.7s-10.7,3.1-21.4,1.6c-10.7-1.6-26.7-6.2-34.7-8.6l-8-2.3Z"/>
        <path class="st1" d="M10,337.3l8-.8c8-.8,24-2.3,34.7-.8,10.7,1.6,16,6.2,21.4,7.8,5.3,1.6,10.7,0,26.7-1.6s42.7-3.1,66.7-3.1,45.4,1.6,61.4,2.3,26.7.8,40-.8c13.3-1.6,29.4-4.7,40.1-5.4,10.7-.8,16,.8,21.4,1.6,5.3.8,10.7.8,16-2.6,5.3-3.4,10.7-10.3,16-12.1,5.3-1.9,10.7,1.2,16,1.5,5.3.3,10.7-2.3,16-5.2,5.3-2.9,10.7-6,16-9.1s10.7-6.2,16-6.4c5.3-.2,10.7,2.5,16,3.9,5.3,1.4,10.7,1.4,16-2.1s10.7-10.5,16-18.5c5.3-8,10.7-17.1,16-23.3,5.3-6.3,10.7-9.7,16-10.6,5.3-.8,10.7,1,16,3.6,5.3,2.7,10.7,6.2,16,7.1,5.3.8,10.7-1.1,16-11.3,5.3-10.3,10.7-28.9,16-34.8,5.3-5.9,10.7,1.1,16-2s10.7-16.1,16-25.4,10.7-15,16-19.1c5.3-4.1,10.7-6.7,16-9.8s10.7-6.7,16,4.8c5.3,11.6,10.7,38.3,16,38.4,5.3,0,10.7-26.5,16-52.5,5.3-26,10.7-51.5,16-51.7,5.3-.3,10.7,24.7,16,32.3s10.7-1.9,16-.5,10.7,13.9,16,15.9,10.7-6.5,16-14.3,10.7-14.8,16,5.9c5.3,20.7,10.7,69.2,13.4,93.4l2.7,24.2h0l-2.7-19.6c-2.7-19.6-8-58.7-13.4-76.3-5.3-17.6-10.7-13.7-16-9s-10.7,10.1-16,6.5c-5.3-3.5-10.7-16-16-14.3s-10.7,17.5-16,9.8c-5.3-7.7-10.7-38.8-16-43.2-5.3-4.4-10.7,17.9-16,42.4-5.3,24.5-10.7,51-16,54.1-5.3,3-10.7-17.5-16-29-5.3-11.6-10.7-14.2-16-14.2-5.3,0-10.7,2.6-16,9.8-5.3,7.2-10.7,19.1-16,29.9s-10.7,20.8-16,20.8-10.7-10.1-16-4.2c-5.3,5.9-10.7,27.6-16,37.9-5.3,10.3-10.7,9.1-16,8.2-5.3-.8-10.7-1.3-16-2.4-5.3-1.1-10.7-2.9-16-3.6-5.3-.7-10.7-.4-16,4.3-5.3,4.7-10.7,13.8-16,21.8-5.3,8-10.7,15-16,18.5s-10.7,3.5-16,2.1c-5.3-1.4-10.7-4.1-16-3.9-5.3.2-10.7,3.3-16,6.4s-10.7,6.2-16,9.1c-5.3,2.9-10.7,5.4-16,5.2-5.3-.3-10.7-3.4-16-1.5-5.3,1.9-10.7,8.7-16,12.1-5.3,3.4-10.7,3.4-16,2.6-5.3-.8-10.7-2.3-21.4-1.6-10.7.8-26.7,3.9-40.1,5.4-13.3,1.6-24,1.6-40,2.3s-37.4,2.3-61.4,2.3-50.7-1.6-66.7-1.6-21.4,1.6-26.7,0c-5.3-1.6-10.7-6.2-21.4-7.8-10.7-1.6-26.7,0-34.7.8l-8,.8Z"/>
        <path class="st12" d="M10,346.7l8,2.3c8,2.3,24,7,34.7,8.6,10.7,1.6,16,0,21.4-1.6s10.7-3.1,26.7-4.7c16-1.6,42.7-3.1,66.7-4.7,24-1.6,45.4-3.1,61.4-3.9s26.7-.8,40,.8c13.3,1.6,29.4,4.7,40.1,5.4,10.7.8,16-.8,21.4-1.6,5.3-.8,10.7-.8,16,2,5.3,2.8,10.7,8.4,16,6.5,5.3-1.9,10.7-11.2,16-14.1,5.3-2.9,10.7.8,16-.5s10.7-7.5,16-10.6c5.3-3.1,10.7-3.1,16-3.3,5.3-.2,10.7-.6,16-.8,5.3-.2,10.7-.2,16,1,5.3,1.2,10.7,3.5,16,6.4,5.3,2.9,10.7,6.3,16,7.8,5.3,1.5,10.7,1.2,16-1.2,5.3-2.4,10.7-6.8,16-8.8,5.3-2,10.7-1.5,16-.7s10.7,2.1,16,5.8,10.7,9.9,16,10.3c5.3.4,10.7-5.2,16-5.1,5.3,0,10.7,5.7,16,8.8,5.3,3.1,10.7,3.7,16,7.4,5.3,3.7,10.7,10.4,16,13.6s10.7,2.6,16-4.5c5.3-7.1,10.7-20.8,16-16.1s10.7,27.9,16,45.5c5.3,17.5,10.7,29.4,16,29.1,5.3-.3,10.7-12.7,16-14.3s10.7,7.4,16,13.5,10.7,9.3,16,8.1c5.3-1.1,10.7-6.5,16-11.2,5.3-4.7,10.7-8.6,16-28.3s10.7-55.2,13.4-73l2.7-17.8h0l-2.7,31.8c-2.7,31.8-8,95.3-13.4,132.1-5.3,36.8-10.7,47-16,57.9s-10.7,22.5-16,22.1c-5.3-.4-10.7-12.9-16-19-5.3-6.1-10.7-5.9-16-1.1-5.3,4.8-10.7,14.1-16,5-5.3-9.1-10.7-36.5-16-57.1s-10.7-34.5-16-34.6c-5.3,0-10.7,13.6-16,19.2-5.3,5.6-10.7,2.9-16,4.5s-10.7,7.2-16,6.7c-5.3-.6-10.7-7.4-16-15.2s-10.7-16.5-16-21.2-10.7-5.4-16-12c-5.3-6.6-10.7-19-16-24.3-5.3-5.3-10.7-3.4-16-5.8s-10.7-9.1-16-13.3c-5.3-4.2-10.7-6-16-8.3-5.3-2.3-10.7-5-16-6.5-5.3-1.5-10.7-1.8-16-6.2s-10.7-13-16-15.7c-5.3-2.7-10.7.4-16,3.7-5.3,3.3-10.7,6.8-16,3.9-5.3-2.9-10.7-12.2-16-13.8-5.3-1.6-10.7,4.7-16,6s-10.7-2.3-16,.5c-5.3,2.9-10.7,12.2-16,14.1-5.3,1.9-10.7-3.7-16-5s-10.7,1.9-16,2.6c-5.3.8-10.7-.8-21.4-1.6-10.7-.8-26.7-.8-40.1-.8s-24,0-40-.8c-16-.8-37.4-2.3-61.4-2.3s-50.7,1.6-66.7,3.1c-16,1.6-21.4,3.1-26.7,4.7s-10.7,3.1-21.4,1.6c-10.7-1.6-26.7-6.2-34.7-8.6l-8-2.3Z"/>
        <path class="st6" d="M10,346.7l8-.8c8-.8,24-2.3,34.7-2.3s16,1.6,21.4,3.1c5.3,1.6,10.7,3.1,26.7,3.1s42.7-1.6,66.7-3.1c24-1.6,45.4-3.1,61.4-3.9s26.7-.8,40-2.3c13.3-1.6,29.4-4.7,40.1-5.4,10.7-.8,16,.8,21.4,1.6,5.3.8,10.7.8,16-1.1s10.7-5.6,16-7.5c5.3-1.9,10.7-1.9,16-1.6,5.3.3,10.7.8,16,1,5.3.3,10.7.3,16-4.4,5.3-4.7,10.7-14,16-17.3,5.3-3.3,10.7-.6,16,2.3,5.3,2.9,10.7,6,16,5.6,5.3-.4,10.7-4.3,16-7.6s10.7-6.2,16-6.2c5.3,0,10.7,2.7,16,3.4,5.3.7,10.7-.6,16-2.6,5.3-2,10.7-4.7,16-6.9s10.7-4.2,16-6.7,10.7-5.6,16-6.8c5.3-1.2,10.7-.5,16-2s10.7-5.2,16-8.3c5.3-3.1,10.7-5.6,16-6.6,5.3-1,10.7-.5,16,1.1,5.3,1.6,10.7,4.2,16,8,5.3,3.8,10.7,8.7,16,11.9s10.7,4.6,16,5,10.7-.1,16-2c5.3-1.8,10.7-4.9,16-6.6s10.7-1.9,16-3.6,10.7-4.7,16-7.4,10.7-5,16-5,10.7,2.3,16,4.4,10.7,3.9,13.4,4.8l2.7.9v9.3l-2.7,16.2c-2.7,16.2-8,48.6-13.4,65.2s-10.7,17.4-16,8.1-10.7-28.8-16-30.8c-5.3-2-10.7,13.5-16,13.7-5.3.1-10.7-15.2-16-16.7s-10.7,11-16,11.2c-5.3.3-10.7-11.6-16-21.4-5.3-9.8-10.7-17.4-16-22.1-5.3-4.7-10.7-6.6-16-5.7-5.3.9-10.7,4.5-16,6s-10.7,1-16-2.7c-5.3-3.7-10.7-10.5-16-12.1s-10.7,2.1-16,6.8-10.7,10.1-16,9.8c-5.3-.4-10.7-6.6-16-8.7s-10.7-.3-16,3.6c-5.3,3.8-10.7,9.6-16,13.2-5.3,3.5-10.7,4.9-16,5.7-5.3.8-10.7,1.2-16-1.9-5.3-3.1-10.7-9.6-16-10.9-5.3-1.3-10.7,2.6-16,4.5s-10.7,1.9-16,.6c-5.3-1.4-10.7-4.1-16-2.3-5.3,1.8-10.7,8-16,11.1s-10.7,3.1-16,4.4-10.7,3.9-16,5.2c-5.3,1.3-10.7,1.3-16,1.6-5.3.3-10.7.9-16,1.2-5.3.3-10.7.3-16-.5-5.3-.8-10.7-2.3-21.4-1.6-10.7.8-26.7,3.9-40.1,5.4-13.3,1.6-24,1.6-40,2.3s-37.4,2.3-61.4,3.9c-24,1.6-50.7,3.1-66.7,3.1s-21.4-1.6-26.7-3.1c-5.3-1.6-10.7-3.1-21.4-3.1s-26.7,1.6-34.7,2.3l-8,.8Z"/>
        <path class="st7" d="M10,346.7l8-2.3c8-2.3,24-7,34.7-7s16,4.7,21.4,6.2c5.3,1.6,10.7,0,26.7,0s42.7,1.6,66.7,1.6,45.4-1.6,61.4-2.3,26.7-.8,40-2.3c13.3-1.6,29.4-4.7,40.1-5.4,10.7-.8,16,.8,21.4,1.6,5.3.8,10.7.8,16-2.6,5.3-3.4,10.7-10.3,16-12.1,5.3-1.9,10.7,1.2,16,1.5,5.3.3,10.7-2.3,16-5.2,5.3-2.9,10.7-6,16-9.1s10.7-6.2,16-6.4c5.3-.2,10.7,2.5,16,5.4,5.3,2.9,10.7,6,16,2.5s10.7-13.6,16-21.6c5.3-8,10.7-14,16-18.7,5.3-4.7,10.7-8.2,16-7.5,5.3.7,10.7,5.6,16,6.7,5.3,1.1,10.7-1.5,16-2.3,5.3-.7,10.7.5,16-6.7,5.3-7.2,10.7-22.7,16-28.6,5.3-5.9,10.7-2.1,16-5.1s10.7-13,16-20.8c5.3-7.8,10.7-13.4,16-19.1,5.3-5.7,10.7-11.3,16-11.3s10.7,5.7,16,20.4c5.3,14.7,10.7,38.3,16,36.8,5.3-1.5,10.7-28.1,16-55.6s10.7-56.1,16-54.9c5.3,1.3,10.7,32.4,16,38.6s10.7-12.8,16-16c5.3-3.2,10.7,9.3,16,12.8,5.3,3.5,10.7-1.9,16-1.9s10.7,5.4,16,23,10.7,47.4,13.4,62.3l2.7,14.9v9.3l-2.7-8.7c-2.7-8.7-8-26.1-13.4-40.6s-10.7-26.1-16-30.8c-5.3-4.7-10.7-2.4-16,.3s-10.7,5.8-16,13.7c-5.3,7.9-10.7,20.6-16,17.6s-10.7-21.7-16-23c-5.3-1.3-10.7,14.8-16,31.5s-10.7,33.9-16,32.3c-5.3-1.6-10.7-22.1-16-30.6-5.3-8.4-10.7-4.8-16-1.7s-10.7,5.7-16,11.3c-5.3,5.7-10.7,14.4-16,22.2s-10.7,14.6-16,11.4-10.7-16.3-16-15.1c-5.3,1.2-10.7,16.8-16,22.4-5.3,5.6-10.7,1.3-16,2s-10.7,6.5-16,8.5c-5.3,2-10.7.2-16-.5-5.3-.7-10.7-.4-16,1.2-5.3,1.6-10.7,4.4-16,9.3s-10.7,11.9-16,13.9c-5.3,1.9-10.7-1.2-16-4.1-5.3-2.9-10.7-5.6-16-2.3-5.3,3.3-10.7,12.6-16,15.8s-10.7,0-16-.3c-5.3-.3-10.7,2.3-16,2.1-5.3-.3-10.7-3.4-16-1.5-5.3,1.9-10.7,8.7-16,12.1-5.3,3.4-10.7,3.4-16,2.6-5.3-.8-10.7-2.3-21.4-1.6-10.7.8-26.7,3.9-40.1,5.4-13.3,1.6-24,1.6-40,2.3s-37.4,2.3-61.4,2.3-50.7-1.6-66.7-1.6-21.4,1.6-26.7,0c-5.3-1.6-10.7-6.2-21.4-6.2s-26.7,4.7-34.7,7l-8,2.3Z"/>
        <path class="st10" d="M10,337.3l8-.8c8-.8,24-2.3,34.7-.8,10.7,1.6,16,6.2,21.4,7.8,5.3,1.6,10.7,0,26.7-1.6s42.7-3.1,66.7-3.1,45.4,1.6,61.4,2.3,26.7.8,40-.8c13.3-1.6,29.4-4.7,40.1-5.4,10.7-.8,16,.8,21.4,1.6,5.3.8,10.7.8,16-2.6,5.3-3.4,10.7-10.3,16-12.1,5.3-1.9,10.7,1.2,16,1.5,5.3.3,10.7-2.3,16-5.2,5.3-2.9,10.7-6,16-9.1s10.7-6.2,16-6.4c5.3-.2,10.7,2.5,16,3.9,5.3,1.4,10.7,1.4,16-2.1s10.7-10.5,16-18.5c5.3-8,10.7-17.1,16-23.3,5.3-6.3,10.7-9.7,16-10.6,5.3-.8,10.7,1,16,3.6,5.3,2.7,10.7,6.2,16,7.1,5.3.8,10.7-1.1,16-11.3,5.3-10.3,10.7-28.9,16-34.8,5.3-5.9,10.7,1.1,16-2s10.7-16.1,16-27,10.7-19.6,16-23.7c5.3-4.1,10.7-3.6,16-5.1s10.7-5.2,16,4.8c5.3,10,10.7,33.6,16,32.1,5.3-1.5,10.7-28.1,16-54.1,5.3-26,10.7-51.5,16-50.2,5.3,1.3,10.7,29.3,16,37s10.7-5,16-8.2c5.3-3.2,10.7,3,16,6.6s10.7,4.3,16-.3c5.3-4.7,10.7-14.8,16,5.9s10.7,72.3,13.4,98.1l2.7,25.8h0l-2.7-24.2c-2.7-24.2-8-72.7-13.4-93.4-5.3-20.7-10.7-13.7-16-5.9s-10.7,16.3-16,14.3-10.7-14.5-16-15.9-10.7,8.1-16,.5-10.7-32.6-16-32.3c-5.3.3-10.7,25.7-16,51.7-5.3,26-10.7,52.6-16,52.5-5.3,0-10.7-26.8-16-38.4-5.3-11.6-10.7-7.9-16-4.8s-10.7,5.7-16,9.8c-5.3,4.1-10.7,9.7-16,19.1s-10.7,22.4-16,25.4-10.7-3.9-16,2c-5.3,5.9-10.7,24.5-16,34.8-5.3,10.3-10.7,12.2-16,11.3-5.3-.8-10.7-4.4-16-7.1-5.3-2.7-10.7-4.5-16-3.6-5.3.8-10.7,4.3-16,10.6-5.3,6.3-10.7,15.3-16,23.3-5.3,8-10.7,15-16,18.5s-10.7,3.5-16,2.1c-5.3-1.4-10.7-4.1-16-3.9-5.3.2-10.7,3.3-16,6.4s-10.7,6.2-16,9.1c-5.3,2.9-10.7,5.4-16,5.2-5.3-.3-10.7-3.4-16-1.5-5.3,1.9-10.7,8.7-16,12.1-5.3,3.4-10.7,3.4-16,2.6-5.3-.8-10.7-2.3-21.4-1.6-10.7.8-26.7,3.9-40.1,5.4-13.3,1.6-24,1.6-40,.8s-37.4-2.3-61.4-2.3-50.7,1.6-66.7,3.1-21.4,3.1-26.7,1.6c-5.3-1.6-10.7-6.2-21.4-7.8-10.7-1.6-26.7,0-34.7.8l-8,.8Z"/>
        <path class="st8" d="M10,337.3l8-.8c8-.8,24-2.3,34.7-.8,10.7,1.6,16,6.2,21.4,7.8,5.3,1.6,10.7,0,26.7-1.6s42.7-3.1,66.7-3.1,45.4,1.6,61.4,2.3,26.7.8,40-.8c13.3-1.6,29.4-4.7,40.1-5.4,10.7-.8,16,.8,21.4,1.6,5.3.8,10.7.8,16-2.6,5.3-3.4,10.7-10.3,16-12.1,5.3-1.9,10.7,1.2,16,1.5,5.3.3,10.7-2.3,16-5.2,5.3-2.9,10.7-6,16-9.1s10.7-6.2,16-6.4c5.3-.2,10.7,2.5,16,3.9,5.3,1.4,10.7,1.4,16-2.1s10.7-10.5,16-18.5c5.3-8,10.7-17.1,16-23.3,5.3-6.3,10.7-9.7,16-10.6,5.3-.8,10.7,1,16,3.6,5.3,2.7,10.7,6.2,16,7.1,5.3.8,10.7-1.1,16-11.3,5.3-10.3,10.7-28.9,16-34.8,5.3-5.9,10.7,1.1,16-2s10.7-16.1,16-27,10.7-19.6,16-23.7c5.3-4.1,10.7-3.6,16-5.1s10.7-5.2,16,4.8c5.3,10,10.7,33.6,16,32.1,5.3-1.5,10.7-28.1,16-54.1,5.3-26,10.7-51.5,16-50.2,5.3,1.3,10.7,29.3,16,37s10.7-5,16-11.3,10.7-6.3,16-2.8,10.7,10.6,16,9c5.3-1.6,10.7-11.7,16,7.5s10.7,67.6,13.4,91.9l2.7,24.2v9.3l-2.7-25.8c-2.7-25.8-8-77.4-13.4-98.1s-10.7-10.6-16-5.9c-5.3,4.7-10.7,3.9-16,.3s-10.7-9.8-16-6.6c-5.3,3.2-10.7,15.9-16,8.2s-10.7-35.7-16-37c-5.3-1.3-10.7,24.2-16,50.2-5.3,26-10.7,52.6-16,54.1-5.3,1.5-10.7-22.1-16-32.1-5.3-10-10.7-6.4-16-4.8s-10.7,1-16,5.1c-5.3,4.1-10.7,12.8-16,23.7s-10.7,23.9-16,27-10.7-3.9-16,2c-5.3,5.9-10.7,24.5-16,34.8-5.3,10.3-10.7,12.2-16,11.3-5.3-.8-10.7-4.4-16-7.1-5.3-2.7-10.7-4.5-16-3.6-5.3.8-10.7,4.3-16,10.6-5.3,6.3-10.7,15.3-16,23.3-5.3,8-10.7,15-16,18.5s-10.7,3.5-16,2.1c-5.3-1.4-10.7-4.1-16-3.9-5.3.2-10.7,3.3-16,6.4s-10.7,6.2-16,9.1c-5.3,2.9-10.7,5.4-16,5.2-5.3-.3-10.7-3.4-16-1.5-5.3,1.9-10.7,8.7-16,12.1-5.3,3.4-10.7,3.4-16,2.6-5.3-.8-10.7-2.3-21.4-1.6-10.7.8-26.7,3.9-40.1,5.4-13.3,1.6-24,1.6-40,.8s-37.4-2.3-61.4-2.3-50.7,1.6-66.7,3.1-21.4,3.1-26.7,1.6c-5.3-1.6-10.7-6.2-21.4-7.8-10.7-1.6-26.7,0-34.7.8l-8,.8Z"/>
      </g>
      <g id="xAxis">
        <path class="st11" d="M10,580h785"/>
        <g>
          <line class="st11" x1="74.1" y1="580" x2="74.1" y2="586"/>
          <text class="st2" transform="translate(63 596.1)"><tspan x="0" y="0">1980</tspan></text>
        </g>
        <g>
          <line class="st11" x1="154.2" y1="580" x2="154.2" y2="586"/>
          <text class="st2" transform="translate(143.1 596.1)"><tspan x="0" y="0">1985</tspan></text>
        </g>
        <g>
          <line class="st11" x1="234.3" y1="580" x2="234.3" y2="586"/>
          <text class="st2" transform="translate(223.2 596.1)"><tspan x="0" y="0">1990</tspan></text>
        </g>
        <g>
          <line class="st11" x1="314.4" y1="580" x2="314.4" y2="586"/>
          <text class="st2" transform="translate(303.3 596.1)"><tspan x="0" y="0">1995</tspan></text>
        </g>
        <g>
          <line class="st11" x1="394.5" y1="580" x2="394.5" y2="586"/>
          <text class="st2" transform="translate(383.4 596.1)"><tspan x="0" y="0">2000</tspan></text>
        </g>
        <g>
          <line class="st11" x1="474.6" y1="580" x2="474.6" y2="586"/>
          <text class="st2" transform="translate(463.5 596.1)"><tspan x="0" y="0">2005</tspan></text>
        </g>
        <g>
          <line class="st11" x1="554.7" y1="580" x2="554.7" y2="586"/>
          <text class="st2" transform="translate(543.6 596.1)"><tspan x="0" y="0">2010</tspan></text>
        </g>
        <g>
          <line class="st11" x1="634.8" y1="580" x2="634.8" y2="586"/>
          <text class="st2" transform="translate(623.7 596.1)"><tspan x="0" y="0">2015</tspan></text>
        </g>
        <g>
          <line class="st11" x1="714.9" y1="580" x2="714.9" y2="586"/>
          <text class="st2" transform="translate(703.7 596.1)"><tspan x="0" y="0">2020</tspan></text>
        </g>
        <g>
          <line class="st11" x1="795" y1="580" x2="795" y2="586"/>
          <text class="st2" transform="translate(783.9 596.1)"><tspan x="0" y="0">2025</tspan></text>
        </g>
      </g>
      <g id="yAxis">
        <path class="st11" d="M10,580V20"/>
        <g>
          <line class="st11" x1="10" y1="580" x2="4" y2="580"/>
          <text class="st2" transform="translate(-16 583.2)"><tspan x="0" y="0">−25</tspan></text>
        </g>
        <g>
          <line class="st11" x1="10" y1="533.3" x2="4" y2="533.3"/>
          <text class="st2" transform="translate(-16 536.5)"><tspan x="0" y="0">−20</tspan></text>
        </g>
        <g>
          <line class="st11" x1="10" y1="486.7" x2="4" y2="486.7"/>
          <text class="st2" transform="translate(-16 489.9)"><tspan x="0" y="0">−15</tspan></text>
        </g>
        <g>
          <line class="st11" x1="10" y1="440" x2="4" y2="440"/>
          <text class="st2" transform="translate(-16 443.2)"><tspan x="0" y="0">−10</tspan></text>
        </g>
        <g>
          <line class="st11" x1="10" y1="393.3" x2="4" y2="393.3"/>
          <text class="st2" transform="translate(-10.4 396.5)"><tspan x="0" y="0">−5</tspan></text>
        </g>
        <g>
          <line class="st11" x1="10" y1="346.7" x2="4" y2="346.7"/>
          <text class="st2" transform="translate(-4.6 349.9)"><tspan x="0" y="0">0</tspan></text>
        </g>
        <g>
          <line class="st11" x1="10" y1="300" x2="4" y2="300"/>
          <text class="st2" transform="translate(-4.6 303.2)"><tspan x="0" y="0">5</tspan></text>
        </g>
        <g>
          <line class="st11" x1="10" y1="253.3" x2="4" y2="253.3"/>
          <text class="st2" transform="translate(-10.1 256.5)"><tspan x="0" y="0">10</tspan></text>
        </g>
        <g>
          <line class="st11" x1="10" y1="206.7" x2="4" y2="206.7"/>
          <text class="st2" transform="translate(-10.1 209.9)"><tspan x="0" y="0">15</tspan></text>
        </g>
        <g>
          <line class="st11" x1="10" y1="160" x2="4" y2="160"/>
          <text class="st2" transform="translate(-10.1 163.2)"><tspan x="0" y="0">20</tspan></text>
        </g>
        <g>
          <line class="st11" x1="10" y1="113.3" x2="4" y2="113.3"/>
          <text class="st2" transform="translate(-10.1 116.5)"><tspan x="0" y="0">25</tspan></text>
        </g>
        <g>
          <line class="st11" x1="10" y1="66.7" x2="4" y2="66.7"/>
          <text class="st2" transform="translate(-10.1 69.9)"><tspan x="0" y="0">30</tspan></text>
        </g>
        <g>
          <line class="st11" x1="10" y1="20" x2="4" y2="20"/>
          <text class="st2" transform="translate(-10.1 23.2)"><tspan x="0" y="0">35</tspan></text>
        </g>
      </g>
      <text class="st4" transform="translate(770.3 576)"><tspan x="0" y="0">year</tspan></text>
      <text class="st4" transform="translate(14 30.3)"><tspan x="0" y="0">counts</tspan></text>
      <g id="labels">
        <text class="st3" transform="translate(661.6 244.1)"><tspan x="0" y="0">11</tspan></text>
        <text class="st3" transform="translate(696.1 232.7)"><tspan x="0" y="0">2</tspan></text>
        <text class="st3" transform="translate(741.4 381.5)"><tspan x="0" y="0">13</tspan></text>
        <text class="st3" transform="translate(709.3 162.8)"><tspan x="0" y="0">14</tspan></text>
        <text class="st3" transform="translate(616 415.8)"><tspan x="0" y="0">1</tspan></text>
        <text class="st3" transform="translate(760.2 323.2)"><tspan x="0" y="0">6</tspan></text>
        <text class="st3" transform="translate(696.1 134.7)"><tspan x="0" y="0">3</tspan></text>
        <text class="st3" transform="translate(744.1 143.5)"><tspan x="0" y="0">5</tspan></text>
        <text class="st3" transform="translate(741.4 120.1)"><tspan x="0" y="0">12</tspan></text>
      </g>
    </g>
  </g>
</svg>