<?xml version="1.0" encoding="UTF-8"?>
<svg id="Layer_1" xmlns="http://www.w3.org/2000/svg" version="1.1" viewBox="0 0 805 600">
  <!-- Generator: Adobe Illustrator 29.1.0, SVG Export Plug-In . SVG Version: 2.1.0 Build 142)  -->
  <defs>
    <style>
      .st0 {
        fill: #ff7f0e;
      }

      .st1 {
        fill: #9467bd;
      }

      .st2 {
        fill: #17becf;
      }

      .st3 {
        font-family: Helvetica, Helvetica;
      }

      .st3, .st4 {
        font-size: 10px;
      }

      .st3, .st4, .st5 {
        isolation: isolate;
      }

      .st6 {
        fill: #d62728;
      }

      .st7 {
        fill: #e6bc75;
      }

      .st4, .st5 {
        font-family: Arial-BoldMT, Arial;
        font-weight: 700;
      }

      .st5 {
        fill: #7b7b7b;
        font-size: 12px;
      }

      .st8 {
        fill: #b1d4fc;
      }

      .st9 {
        fill: #bcbd22;
      }

      .st10 {
        fill: #e377c2;
      }

      .st11 {
        fill: #2ca02c;
      }

      .st12 {
        fill: #8c564b;
      }

      .st13 {
        fill: #7f7f7f;
      }

      .st14 {
        fill: none;
        stroke: #000;
      }

      .st15 {
        fill: #da5565;
      }

      .st16 {
        fill: #1f77b4;
      }
    </style>
  </defs>
  <g>
    <path class="st6" d="M10,315.3l8-.8c8-.8,24-2.5,34.7-.8,10.7,1.7,16,6.8,21.4,8.5s10.7,0,26.7,0,42.7,1.7,66.7,1.7,45.4-1.7,61.4-2.5,26.7-.8,40-2.5c13.3-1.7,29.4-5.1,40.1-5.9,10.7-.8,16,.8,21.4,1.7,5.3.8,10.7.8,16-2.9s10.7-11.2,16-13.2c5.3-2,10.7,1.4,16,1.6,5.3.3,10.7-2.5,16-5.7s10.7-6.5,16-9.9,10.7-6.8,16-7c5.3-.2,10.7,2.8,16,4.2,5.3,1.5,10.7,1.5,16-2.3s10.7-11.5,16-20.2,10.7-18.6,16-23.8c5.3-5.1,10.7-5.5,16-4.7,5.3.8,10.7,2.7,16,4.8,5.3,2.1,10.7,4.3,16,5.3,5.3,1,10.7.9,16-10.1s10.7-32.9,16-38.8c5.3-5.9,10.7,4.3,16,6.1s10.7-4.8,16-12.9c5.3-8,10.7-17.5,16-24.6,5.3-7.1,10.7-12,16-14.2s10.7-2,16,8.8c5.3,10.8,10.7,32.3,16,29.4,5.3-2.9,10.7-30,16-52.8s10.7-41.2,16-35.7c5.3,5.5,10.7,35,16,43.5,5.3,8.5,10.7-3.9,16-5.6s10.7,7.3,16,8.8,10.7-4.5,16-9.5c5.3-5,10.7-9,16,9.1,5.3,18.1,10.7,58.2,13.4,78.3l2.7,20.1h0l-2.7-15c-2.7-15-8-45-13.4-63.1s-10.7-24.3-16-24.4c-5.3-.1-10.7,5.9-16,4.4s-10.7-10.5-16-7.1-10.7,19.2-16,12.4c-5.3-6.8-10.7-36.3-16-38.4-5.3-2.1-10.7,23.1-16,49.2-5.3,26.2-10.7,53.3-16,54.5s-10.7-23.7-16-37.9c-5.3-14.2-10.7-17.9-16-15.6s-10.7,10.5-16,15.9c-5.3,5.4-10.7,8.1-16,12.7-5.3,4.6-10.7,11.2-16,12.9s-10.7-1.8-16,4.1c-5.3,5.9-10.7,21-16,28.6s-10.7,7.7-16,8.4-10.7,1.9-16-.2c-5.3-2.1-10.7-7.4-16-8.2-5.3-.8-10.7,3-16,8.1-5.3,5.1-10.7,11.6-16,20.4s-10.7,19.8-16,23.6-10.7.4-16-2.8c-5.3-3.2-10.7-6.2-16-5.9-5.3.2-10.7,3.6-16,7s-10.7,6.8-16,9.9-10.7,5.9-16,5.7c-5.3-.3-10.7-3.7-16-1.6-5.3,2-10.7,9.5-16,13.2s-10.7,3.7-16,2.9c-5.3-.8-10.7-2.5-21.4-1.7-10.7.8-26.7,4.2-40.1,5.9-13.3,1.7-24,1.7-40,2.5s-37.4,2.5-61.4,2.5-50.7-1.7-66.7-1.7-21.4,1.7-26.7,0-10.7-6.8-21.4-6.8-26.7,5.1-34.7,7.6l-8,2.5v-10.2Z"/>
    <path class="st13" d="M10,325.5l8-2.5c8-2.5,24-7.6,34.7-7.6s16,5.1,21.4,6.8,10.7,0,26.7,0,42.7,1.7,66.7,1.7,45.4-1.7,61.4-2.5,26.7-.8,40-2.5c13.3-1.7,29.4-5.1,40.1-5.9,10.7-.8,16,.8,21.4,1.7,5.3.8,10.7.8,16-2.9s10.7-11.2,16-13.2c5.3-2,10.7,1.4,16,1.6,5.3.3,10.7-2.5,16-2.3,5.3.3,10.7,3.7,16,.3,5.3-3.4,10.7-13.6,16-17.2,5.3-3.6,10.7-.6,16,2.5,5.3,3.2,10.7,6.6,16,4.5,5.3-2.1,10.7-9.8,16-15.1,5.3-5.4,10.7-8.4,16-10.2,5.3-1.7,10.7-2.1,16-1.3,5.3.8,10.7,2.7,16,1.4,5.3-1.3,10.7-5.9,16-6.6s10.7,2.6,16-3.3c5.3-5.9,10.7-21.1,16-21.8,5.3-.8,10.7,12.8,16,18s10.7,2,16-4.4,10.7-15.8,16-22.9c5.3-7.1,10.7-12,16-15.9s10.7-7.1,16,2c5.3,9.1,10.7,30.6,16,32.8,5.3,2.2,10.7-14.7,16-29s10.7-25.9,16-23.8c5.3,2.1,10.7,18,16,21.4,5.3,3.4,10.7-5.6,16-14.1s10.7-16.4,16-21.7,10.7-7.9,16-2.7,10.7,18.2,16,32.8c5.3,14.7,10.7,31.1,13.4,39.3l2.7,8.2v10.2l-2.7.3c-2.7.3-8,.8-13.4-.3s-10.7-3.9-16-5.7c-5.3-1.8-10.7-2.6-16,2.7s-10.7,16.6-16,20c-5.3,3.4-10.7-1.2-16-2.9s-10.7-.6-16,.6c-5.3,1.3-10.7,2.7-16,1.7-5.3-1-10.7-4.4-16-8.3s-10.7-8.4-16-12.5c-5.3-4.1-10.7-7.7-16-8.8s-10.7.3-16,2.4c-5.3,2-10.7,4.7-16,5.9s-10.7,1.1-16,1-10.7,0-16,.7c-5.3.8-10.7,2.3-16,4.9s-10.7,6.1-16,8.4c-5.3,2.4-10.7,3.6-16,4.9-5.3,1.3-10.7,2.8-16,2-5.3-.8-10.7-3.8-16-3.7-5.3,0-10.7,3.1-16,6.8-5.3,3.7-10.7,7.9-16,8.3-5.3.4-10.7-3-16-6.2-5.3-3.2-10.7-6.2-16-2.5-5.3,3.6-10.7,13.8-16,18.9s-10.7,5.1-16,4.8-10.7-.8-16-1.1c-5.3-.3-10.7-.3-16,1.8-5.3,2-10.7,6.1-16,8.1-5.3,2-10.7,2-16,1.2-5.3-.8-10.7-2.5-21.4-1.7-10.7.8-26.7,4.2-40.1,5.9-13.3,1.7-24,1.7-40,2.5s-37.4,2.5-61.4,4.2c-24,1.7-50.7,3.4-66.7,3.4s-21.4-1.7-26.7-3.4c-5.3-1.7-10.7-3.4-21.4-3.4s-26.7,1.7-34.7,2.5l-8,.8Z"/>
    <path class="st12" d="M10,325.5l8-.8c8-.8,24-2.5,34.7-2.5s16,1.7,21.4,3.4c5.3,1.7,10.7,3.4,26.7,3.4s42.7-1.7,66.7-3.4c24-1.7,45.4-3.4,61.4-4.2s26.7-.8,40-2.5c13.3-1.7,29.4-5.1,40.1-5.9,10.7-.8,16,.8,21.4,1.7,5.3.8,10.7.8,16,.5,5.3-.3,10.7-1,16-1.4,5.3-.3,10.7-.3,16-1.8,5.3-1.4,10.7-4.2,16-5.7,5.3-1.4,10.7-1.4,16-4.8s10.7-10.2,16-12.1c5.3-1.9,10.7,1.1,16,2.5,5.3,1.5,10.7,1.5,16-.6s10.7-6.4,16-4.9c5.3,1.4,10.7,8.5,16,11.9,5.3,3.4,10.7,3,16,2,5.3-.9,10.7-2.3,16-5.4,5.3-3,10.7-7.6,16-11.7s10.7-7.6,16-5c5.3,2.6,10.7,11.2,16,12.1,5.3.9,10.7-5.9,16-9.2,5.3-3.3,10.7-3.1,16-1,5.3,2.2,10.7,6.3,16,9.4,5.3,3.1,10.7,5,16,4.4s10.7-3.7,16-4.8c5.3-1,10.7,0,16,5.7,5.3,5.6,10.7,15.8,16,27,5.3,11.2,10.7,23.3,16,22,5.3-1.3,10.7-15.9,16-15.9,5.3,0,10.7,14.8,16,14.8s10.7-14.7,16-11.5c5.3,3.2,10.7,24.4,16,34.7s10.7,9.7,16-7.9c5.3-17.6,10.7-52.1,13.4-69.3l2.7-17.3v20.4l-2.7,18.9c-2.7,18.9-8,56.8-13.4,77.8s-10.7,24.9-16,29.9-10.7,11-16,11.1-10.7-5.4-16-12.2c-5.3-6.8-10.7-14.7-16-11.4s-10.7,18-16,19.3c-5.3,1.3-10.7-10.9-16-30.5s-10.7-46.8-16-52.4-10.7,10.3-16,18.1c-5.3,7.8-10.7,7.6-16,3.1-5.3-4.5-10.7-13.2-16-16.3-5.3-3.1-10.7-.4-16-4.3-5.3-3.9-10.7-14.2-16-16-5.3-1.8-10.7,5-16,4.1-5.3-.9-10.7-9.5-16-13.8-5.3-4.3-10.7-4.1-16-5.2s-10.7-3.2-16-1.9c-5.3,1.3-10.7,6.2-16,8.8-5.3,2.6-10.7,3-16,1.3-5.3-1.7-10.7-5.4-16-8.5s-10.7-5.7-16-6.9c-5.3-1.3-10.7-1.3-16-1.1-5.3.2-10.7.6-16,.8-5.3.2-10.7.2-16,3.6-5.3,3.4-10.7,10.2-16,11.6-5.3,1.4-10.7-2.5-16,.6-5.3,3.1-10.7,13.3-16,15.3-5.3,2-10.7-4.1-16-7.1s-10.7-3.1-16-2.2-10.7,2.5-21.4,1.7c-10.7-.8-26.7-4.2-40.1-5.9-13.3-1.7-24-1.7-40-.8s-37.4,2.5-61.4,4.2c-24,1.7-50.7,3.4-66.7,5.1-16,1.7-21.4,3.4-26.7,5.1-5.3,1.7-10.7,3.4-21.4,1.7-10.7-1.7-26.7-6.8-34.7-9.3l-8-2.5Z"/>
    <path class="st10" d="M10,315.3l8-.8c8-.8,24-2.5,34.7-.8,10.7,1.7,16,6.8,21.4,8.5s10.7,0,26.7-1.7c16-1.7,42.7-3.4,66.7-3.4s45.4,1.7,61.4,2.5c16,.8,26.7.8,40-.8,13.3-1.7,29.4-5.1,40.1-5.9,10.7-.8,16,.8,21.4,1.7,5.3.8,10.7.8,16-2.9s10.7-11.2,16-13.2c5.3-2,10.7,1.4,16,1.6,5.3.3,10.7-2.5,16-5.7s10.7-6.5,16-9.9,10.7-6.8,16-7c5.3-.2,10.7,2.8,16,4.2,5.3,1.5,10.7,1.5,16-2.3s10.7-11.5,16-20.2,10.7-18.6,16-25.5c5.3-6.8,10.7-10.6,16-11.5,5.3-.9,10.7,1,16,4.8,5.3,3.8,10.7,9.3,16,10.4s10.7-2.5,16-13.5,10.7-29.5,16-35.4c5.3-5.9,10.7.9,16-.7s10.7-11.6,16-17.9,10.7-9,16-12.7c5.3-3.7,10.7-8.6,16-14.2,5.3-5.7,10.7-12.2,16-1.4,5.3,10.8,10.7,39.1,16,39.6,5.3.5,10.7-26.6,16-51.1s10.7-46.3,16-45.8c5.3.4,10.7,23.1,16,31.6,5.3,8.5,10.7,2.9,16,4.6,5.3,1.7,10.7,10.7,16,10.5s10.7-9.6,16-17.9c5.3-8.4,10.7-15.8,16,5.7s10.7,71.8,13.4,97l2.7,25.2h0l-2.7-20.1c-2.7-20.1-8-60.2-13.4-78.3-5.3-18.1-10.7-14.1-16-9.1-5.3,5-10.7,11-16,9.5s-10.7-10.5-16-8.8-10.7,14.1-16,5.6c-5.3-8.5-10.7-38-16-43.5-5.3-5.5-10.7,12.9-16,35.7s-10.7,49.9-16,52.8c-5.3,2.9-10.7-18.6-16-29.4-5.3-10.8-10.7-11.1-16-8.8s-10.7,7.1-16,14.2c-5.3,7.1-10.7,16.6-16,24.6-5.3,8-10.7,14.6-16,12.9s-10.7-12-16-6.1c-5.3,5.9-10.7,27.8-16,38.8s-10.7,11.1-16,10.1c-5.3-1-10.7-3.2-16-5.3-5.3-2.1-10.7-4-16-4.8-5.3-.8-10.7-.4-16,4.7-5.3,5.1-10.7,15-16,23.8s-10.7,16.4-16,20.2-10.7,3.8-16,2.3c-5.3-1.5-10.7-4.5-16-4.2-5.3.2-10.7,3.6-16,7s-10.7,6.8-16,9.9-10.7,5.9-16,5.7c-5.3-.3-10.7-3.7-16-1.6-5.3,2-10.7,9.5-16,13.2s-10.7,3.7-16,2.9c-5.3-.8-10.7-2.5-21.4-1.7-10.7.8-26.7,4.2-40.1,5.9-13.3,1.7-24,1.7-40,2.5s-37.4,2.5-61.4,2.5-50.7-1.7-66.7-1.7-21.4,1.7-26.7,0-10.7-6.8-21.4-8.5c-10.7-1.7-26.7,0-34.7.8l-8,.8Z"/>
    <path class="st0" d="M10,325.5l8,2.5c8,2.5,24,7.6,34.7,9.3,10.7,1.7,16,0,21.4-1.7,5.3-1.7,10.7-3.4,26.7-5.1,16-1.7,42.7-3.4,66.7-5.1,24-1.7,45.4-3.4,61.4-4.2s26.7-.8,40,.8c13.3,1.7,29.4,5.1,40.1,5.9,10.7.8,16-.8,21.4-1.7s10.7-.8,16,2.2,10.7,9.2,16,7.1c5.3-2,10.7-12.2,16-15.3,5.3-3.1,10.7.8,16-.6,5.3-1.4,10.7-8.2,16-11.6,5.3-3.4,10.7-3.4,16-3.6,5.3-.2,10.7-.6,16-.8,5.3-.2,10.7-.2,16,1.1,5.3,1.3,10.7,3.8,16,6.9s10.7,6.8,16,8.5c5.3,1.7,10.7,1.3,16-1.3,5.3-2.6,10.7-7.4,16-8.8,5.3-1.3,10.7.9,16,1.9s10.7.9,16,5.2c5.3,4.3,10.7,12.9,16,13.8,5.3.9,10.7-5.9,16-4.1,5.3,1.8,10.7,12.1,16,16,5.3,3.9,10.7,1.2,16,4.3,5.3,3.1,10.7,11.8,16,16.3,5.3,4.5,10.7,4.7,16-3.1,5.3-7.8,10.7-23.7,16-18.1s10.7,32.8,16,52.4,10.7,31.8,16,30.5c5.3-1.3,10.7-15.9,16-19.3s10.7,4.6,16,11.4c5.3,6.8,10.7,12.4,16,12.2s10.7-6.2,16-11.1,10.7-9,16-29.9,10.7-58.8,13.4-77.8l2.7-18.9h0l-2.7,32.5c-2.7,32.5-8,97.6-13.4,135.5s-10.7,48.7-16,62.2c-5.3,13.5-10.7,29.6-16,28.1-5.3-1.5-10.7-20.7-16-29.2-5.3-8.5-10.7-6.2-16,.5s-10.7,18-16,9.1c-5.3-8.9-10.7-38-16-59.4-5.3-21.3-10.7-34.9-16-35.5s-10.7,12-16,16.4c-5.3,4.4-10.7.8-16,1.4s-10.7,5.4-16,2.4c-5.3-3.1-10.7-14-16-21.2-5.3-7.2-10.7-10.8-16-14.3-5.3-3.5-10.7-6.9-16-14.6-5.3-7.7-10.7-19.7-16-27.4-5.3-7.6-10.7-10.9-16-13.6s-10.7-4.9-16-7c-5.3-2.1-10.7-4-16-6.5-5.3-2.5-10.7-5.5-16-7.1-5.3-1.7-10.7-2-16-6.8-5.3-4.8-10.7-14.2-16-17.1s-10.7.4-16,4c-5.3,3.6-10.7,7.4-16,4.2-5.3-3.2-10.7-13.4-16-15.1s-10.7,5.1-16,6.5c-5.3,1.4-10.7-2.5-16,.6-5.3,3.1-10.7,13.3-16,15.3-5.3,2-10.7-4.1-16-5.4s-10.7,2-16,2.9-10.7-.8-21.4-1.7c-10.7-.8-26.7-.8-40.1-.8s-24,0-40-.8-37.4-2.5-61.4-2.5-50.7,1.7-66.7,3.4c-16,1.7-21.4,3.4-26.7,5.1-5.3,1.7-10.7,3.4-21.4,1.7-10.7-1.7-26.7-6.8-34.7-9.3l-8-2.5Z"/>
    <path class="st7" d="M10,325.5l8-.8c8-.8,24-2.5,34.7-2.5s16,1.7,21.4,3.4c5.3,1.7,10.7,3.4,26.7,3.4s42.7-1.7,66.7-3.4c24-1.7,45.4-3.4,61.4-4.2s26.7-.8,40-2.5c13.3-1.7,29.4-5.1,40.1-5.9,10.7-.8,16,.8,21.4,1.7,5.3.8,10.7.8,16-1.2,5.3-2,10.7-6.1,16-8.1,5.3-2,10.7-2,16-1.8,5.3.3,10.7.8,16,1.1s10.7.3,16-4.8,10.7-15.3,16-18.9c5.3-3.6,10.7-.6,16,2.5,5.3,3.2,10.7,6.6,16,6.2,5.3-.4,10.7-4.7,16-8.3,5.3-3.7,10.7-6.7,16-6.8,5.3,0,10.7,3,16,3.7,5.3.8,10.7-.7,16-2,5.3-1.3,10.7-2.5,16-4.9,5.3-2.4,10.7-5.9,16-8.4s10.7-4.1,16-4.9c5.3-.8,10.7-.8,16-.7s10.7.3,16-1,10.7-3.9,16-5.9c5.3-2,10.7-3.5,16-2.4s10.7,4.7,16,8.8c5.3,4.1,10.7,8.5,16,12.5s10.7,7.3,16,8.3c5.3,1,10.7-.5,16-1.7,5.3-1.3,10.7-2.4,16-.6s10.7,6.3,16,2.9c5.3-3.4,10.7-14.7,16-20s10.7-4.5,16-2.7c5.3,1.8,10.7,4.6,16,5.7s10.7.5,13.4.3l2.7-.3v10.2l-2.7,17.3c-2.7,17.3-8,51.8-13.4,69.3-5.3,17.6-10.7,18.2-16,7.9s-10.7-31.5-16-34.7c-5.3-3.2-10.7,11.5-16,11.5s-10.7-14.7-16-14.8c-5.3,0-10.7,14.7-16,15.9-5.3,1.3-10.7-10.9-16-22-5.3-11.2-10.7-21.3-16-27-5.3-5.6-10.7-6.7-16-5.7-5.3,1-10.7,4.2-16,4.8s-10.7-1.4-16-4.4c-5.3-3.1-10.7-7.2-16-9.4-5.3-2.2-10.7-2.3-16,1-5.3,3.3-10.7,10.1-16,9.2-5.3-.9-10.7-9.5-16-12.1-5.3-2.6-10.7,1-16,5s-10.7,8.7-16,11.7c-5.3,3-10.7,4.5-16,5.4-5.3.9-10.7,1.3-16-2-5.3-3.4-10.7-10.4-16-11.9-5.3-1.4-10.7,2.8-16,4.9s-10.7,2.1-16,.6c-5.3-1.5-10.7-4.5-16-2.5-5.3,1.9-10.7,8.7-16,12.1s-10.7,3.4-16,4.8c-5.3,1.4-10.7,4.2-16,5.7-5.3,1.4-10.7,1.4-16,1.8-5.3.3-10.7,1-16,1.4-5.3.3-10.7.3-16-.5-5.3-.8-10.7-2.5-21.4-1.7-10.7.8-26.7,4.2-40.1,5.9-13.3,1.7-24,1.7-40,2.5s-37.4,2.5-61.4,4.2c-24,1.7-50.7,3.4-66.7,3.4s-21.4-1.7-26.7-3.4c-5.3-1.7-10.7-3.4-21.4-3.4s-26.7,1.7-34.7,2.5l-8,.8Z"/>
    <path class="st9" d="M10,325.5l8-2.5c8-2.5,24-7.6,34.7-7.6s16,5.1,21.4,6.8,10.7,0,26.7,0,42.7,1.7,66.7,1.7,45.4-1.7,61.4-2.5,26.7-.8,40-2.5c13.3-1.7,29.4-5.1,40.1-5.9,10.7-.8,16,.8,21.4,1.7,5.3.8,10.7.8,16-2.9s10.7-11.2,16-13.2c5.3-2,10.7,1.4,16,1.6,5.3.3,10.7-2.5,16-5.7s10.7-6.5,16-9.9,10.7-6.8,16-7c5.3-.2,10.7,2.8,16,5.9,5.3,3.2,10.7,6.6,16,2.8s10.7-14.8,16-23.6,10.7-15.2,16-20.4c5.3-5.1,10.7-8.9,16-8.1,5.3.8,10.7,6.1,16,8.2,5.3,2.1,10.7.9,16,.2s10.7-.8,16-8.4,10.7-22.8,16-28.6c5.3-5.9,10.7-2.5,16-4.1s10.7-8.2,16-12.9c5.3-4.6,10.7-7.3,16-12.7,5.3-5.4,10.7-13.7,16-15.9s10.7,1.4,16,15.6c5.3,14.2,10.7,39.1,16,37.9s10.7-28.3,16-54.5c5.3-26.2,10.7-51.4,16-49.2,5.3,2.1,10.7,31.6,16,38.4,5.3,6.8,10.7-9,16-12.4s10.7,5.6,16,7.1,10.7-4.5,16-4.4c5.3.1,10.7,6.3,16,24.4s10.7,48.1,13.4,63.1l2.7,15v10.2l-2.7-8.2c-2.7-8.2-8-24.6-13.4-39.3-5.3-14.7-10.7-27.7-16-32.8s-10.7-2.6-16,2.7-10.7,13.2-16,21.7-10.7,17.5-16,14.1c-5.3-3.4-10.7-19.3-16-21.4-5.3-2.1-10.7,9.5-16,23.8s-10.7,31.3-16,29c-5.3-2.2-10.7-23.7-16-32.8-5.3-9.1-10.7-6-16-2s-10.7,8.8-16,15.9c-5.3,7.1-10.7,16.6-16,22.9s-10.7,9.5-16,4.4-10.7-18.8-16-18c-5.3.8-10.7,15.9-16,21.8-5.3,5.9-10.7,2.7-16,3.3s-10.7,5.3-16,6.6c-5.3,1.3-10.7-.6-16-1.4-5.3-.8-10.7-.4-16,1.3-5.3,1.7-10.7,4.8-16,10.2-5.3,5.4-10.7,13-16,15.1-5.3,2.1-10.7-1.3-16-4.5-5.3-3.2-10.7-6.2-16-2.5-5.3,3.6-10.7,13.8-16,17.2-5.3,3.4-10.7,0-16-.3-5.3-.3-10.7,2.5-16,2.3-5.3-.3-10.7-3.7-16-1.6-5.3,2-10.7,9.5-16,13.2s-10.7,3.7-16,2.9c-5.3-.8-10.7-2.5-21.4-1.7-10.7.8-26.7,4.2-40.1,5.9-13.3,1.7-24,1.7-40,2.5s-37.4,2.5-61.4,2.5-50.7-1.7-66.7-1.7-21.4,1.7-26.7,0-10.7-6.8-21.4-6.8-26.7,5.1-34.7,7.6l-8,2.5Z"/>
    <path class="st8" d="M10,315.3l8-.8c8-.8,24-2.5,34.7-.8,10.7,1.7,16,6.8,21.4,8.5s10.7,0,26.7-1.7c16-1.7,42.7-3.4,66.7-3.4s45.4,1.7,61.4,2.5c16,.8,26.7.8,40-.8,13.3-1.7,29.4-5.1,40.1-5.9,10.7-.8,16,.8,21.4,1.7,5.3.8,10.7.8,16-2.9s10.7-11.2,16-13.2c5.3-2,10.7,1.4,16,1.6,5.3.3,10.7-2.5,16-5.7s10.7-6.5,16-9.9,10.7-6.8,16-7c5.3-.2,10.7,2.8,16,4.2,5.3,1.5,10.7,1.5,16-2.3s10.7-11.5,16-20.2,10.7-18.6,16-25.5c5.3-6.8,10.7-10.6,16-11.5,5.3-.9,10.7,1,16,1.4,5.3.4,10.7-.8,16,.2s10.7,4.3,16-5c5.3-9.3,10.7-31.2,16-37.1,5.3-5.9,10.7,4.3,16-.7,5.3-5,10.7-25.2,16-33.2,5.3-8,10.7-3.9,16-4.2,5.3-.3,10.7-5.2,16-10.8s10.7-12.2,16,.3c5.3,12.5,10.7,44.2,16,44.7,5.3.5,10.7-30,16-56.2,5.3-26.2,10.7-48,16-47.5,5.3.4,10.7,23.1,16,33.3,5.3,10.2,10.7,8,16,11.4s10.7,12.4,16,10.5c5.3-1.9,10.7-14.6,16-24.7s10.7-17.5,16,5.7,10.7,76.9,13.4,103.8l2.7,26.9h0l-2.7-25.2c-2.7-25.2-8-75.5-13.4-97s-10.7-14.1-16-5.7c-5.3,8.4-10.7,17.8-16,17.9s-10.7-8.8-16-10.5c-5.3-1.7-10.7,3.9-16-4.6-5.3-8.5-10.7-31.2-16-31.6-5.3-.4-10.7,21.4-16,45.8s-10.7,51.6-16,51.1c-5.3-.5-10.7-28.8-16-39.6-5.3-10.8-10.7-4.3-16,1.4-5.3,5.7-10.7,10.5-16,14.2-5.3,3.7-10.7,6.4-16,12.7s-10.7,16.3-16,17.9-10.7-5.2-16,.7c-5.3,5.9-10.7,24.4-16,35.4s-10.7,14.5-16,13.5-10.7-6.6-16-10.4c-5.3-3.8-10.7-5.7-16-4.8-5.3.9-10.7,4.7-16,11.5-5.3,6.8-10.7,16.7-16,25.5s-10.7,16.4-16,20.2-10.7,3.8-16,2.3c-5.3-1.5-10.7-4.5-16-4.2-5.3.2-10.7,3.6-16,7s-10.7,6.8-16,9.9-10.7,5.9-16,5.7c-5.3-.3-10.7-3.7-16-1.6-5.3,2-10.7,9.5-16,13.2s-10.7,3.7-16,2.9c-5.3-.8-10.7-2.5-21.4-1.7-10.7.8-26.7,4.2-40.1,5.9-13.3,1.7-24,1.7-40,.8-16-.8-37.4-2.5-61.4-2.5s-50.7,1.7-66.7,3.4c-16,1.7-21.4,3.4-26.7,1.7s-10.7-6.8-21.4-8.5c-10.7-1.7-26.7,0-34.7.8l-8,.8Z"/>
    <path class="st11" d="M10,315.3l8-.8c8-.8,24-2.5,34.7-.8,10.7,1.7,16,6.8,21.4,8.5s10.7,0,26.7-1.7c16-1.7,42.7-3.4,66.7-3.4s45.4,1.7,61.4,2.5c16,.8,26.7.8,40-.8,13.3-1.7,29.4-5.1,40.1-5.9,10.7-.8,16,.8,21.4,1.7,5.3.8,10.7.8,16-2.9s10.7-11.2,16-13.2c5.3-2,10.7,1.4,16,1.6,5.3.3,10.7-2.5,16-5.7s10.7-6.5,16-9.9,10.7-6.8,16-7c5.3-.2,10.7,2.8,16,4.2,5.3,1.5,10.7,1.5,16-2.3s10.7-11.5,16-20.2,10.7-18.6,16-25.5c5.3-6.8,10.7-10.6,16-11.5,5.3-.9,10.7,1,16,1.4,5.3.4,10.7-.8,16,.2s10.7,4.3,16-5c5.3-9.3,10.7-31.2,16-37.1,5.3-5.9,10.7,4.3,16-.7,5.3-5,10.7-25.2,16-38.3s10.7-19.2,16-21.2c5.3-2,10.7,0,16-.7,5.3-.6,10.7-3.7,16,8.8,5.3,12.5,10.7,40.8,16,39.6,5.3-1.2,10.7-31.7,16-61.3,5.3-29.6,10.7-58.2,16-57.7,5.3.4,10.7,29.9,16,38.4,5.3,8.5,10.7-3.9,16-9,5.3-5.1,10.7-2.9,16,.3,5.3,3.2,10.7,7.4,16,4.1,5.3-3.3,10.7-14.1,16,9.1,5.3,23.2,10.7,80.3,13.4,108.9l2.7,28.6h0l-2.7-28.6c-2.7-28.6-8-85.7-13.4-108.9-5.3-23.2-10.7-12.4-16-9.1-5.3,3.3-10.7-.9-16-4.1-5.3-3.2-10.7-5.4-16-.3-5.3,5.1-10.7,17.5-16,9-5.3-8.5-10.7-38-16-38.4-5.3-.4-10.7,28.2-16,57.7-5.3,29.6-10.7,60.1-16,61.3-5.3,1.2-10.7-27.1-16-37.9-5.3-10.8-10.7-4.3-16-2s-10.7.3-16,.7c-5.3.3-10.7,3-16,14.4-5.3,11.4-10.7,31.6-16,36.6-5.3,5-10.7-5.2-16,.7-5.3,5.9-10.7,27.8-16,37.1-5.3,9.3-10.7,6.1-16,5s-10.7.2-16-.2c-5.3-.4-10.7-2.3-16-1.4-5.3.9-10.7,4.7-16,11.5-5.3,6.8-10.7,16.7-16,25.5s-10.7,16.4-16,20.2-10.7,3.8-16,2.3c-5.3-1.5-10.7-4.5-16-4.2-5.3.2-10.7,3.6-16,7s-10.7,6.8-16,9.9-10.7,5.9-16,5.7c-5.3-.3-10.7-3.7-16-1.6-5.3,2-10.7,9.5-16,13.2s-10.7,3.7-16,2.9c-5.3-.8-10.7-2.5-21.4-1.7-10.7.8-26.7,4.2-40.1,5.9-13.3,1.7-24,1.7-40,.8-16-.8-37.4-2.5-61.4-2.5s-50.7,1.7-66.7,3.4c-16,1.7-21.4,3.4-26.7,1.7s-10.7-6.8-21.4-8.5c-10.7-1.7-26.7,0-34.7.8l-8,.8Z"/>
    <path class="st15" d="M10,315.3l8-.8c8-.8,24-2.5,34.7-.8,10.7,1.7,16,6.8,21.4,8.5s10.7,0,26.7-1.7c16-1.7,42.7-3.4,66.7-3.4s45.4,1.7,61.4,2.5c16,.8,26.7.8,40-.8,13.3-1.7,29.4-5.1,40.1-5.9,10.7-.8,16,.8,21.4,1.7,5.3.8,10.7.8,16-2.9s10.7-11.2,16-13.2c5.3-2,10.7,1.4,16,1.6,5.3.3,10.7-2.5,16-5.7s10.7-6.5,16-9.9,10.7-6.8,16-7c5.3-.2,10.7,2.8,16,4.2,5.3,1.5,10.7,1.5,16-2.3s10.7-11.5,16-20.2,10.7-18.6,16-25.5c5.3-6.8,10.7-10.6,16-11.5,5.3-.9,10.7,1,16,1.4,5.3.4,10.7-.8,16,.2s10.7,4.3,16-5c5.3-9.3,10.7-31.2,16-37.1,5.3-5.9,10.7,4.3,16-.7,5.3-5,10.7-25.2,16-34.9,5.3-9.7,10.7-9,16-9.3,5.3-.3,10.7-1.8,16-5.8s10.7-10.5,16,.3c5.3,10.8,10.7,39.1,16,37.9,5.3-1.2,10.7-31.7,16-57.9s10.7-48,16-45.8c5.3,2.1,10.7,28.2,16,38.4s10.7,4.6,16,2.9c5.3-1.7,10.7.5,16,.3s10.7-2.8,16-9.5,10.7-17.5,16,5.7c5.3,23.2,10.7,80.3,13.4,108.9l2.7,28.6h0l-2.7-26.9c-2.7-26.9-8-80.6-13.4-103.8s-10.7-15.8-16-5.7-10.7,22.8-16,24.7c-5.3,1.9-10.7-7.1-16-10.5s-10.7-1.2-16-11.4c-5.3-10.2-10.7-32.9-16-33.3-5.3-.4-10.7,21.4-16,47.5-5.3,26.2-10.7,56.7-16,56.2-5.3-.5-10.7-32.2-16-44.7-5.3-12.5-10.7-6-16-.3s-10.7,10.5-16,10.8c-5.3.3-10.7-3.8-16,4.2-5.3,8-10.7,28.2-16,33.2-5.3,5-10.7-5.2-16,.7-5.3,5.9-10.7,27.8-16,37.1-5.3,9.3-10.7,6.1-16,5s-10.7.2-16-.2c-5.3-.4-10.7-2.3-16-1.4-5.3.9-10.7,4.7-16,11.5-5.3,6.8-10.7,16.7-16,25.5s-10.7,16.4-16,20.2-10.7,3.8-16,2.3c-5.3-1.5-10.7-4.5-16-4.2-5.3.2-10.7,3.6-16,7s-10.7,6.8-16,9.9-10.7,5.9-16,5.7c-5.3-.3-10.7-3.7-16-1.6-5.3,2-10.7,9.5-16,13.2s-10.7,3.7-16,2.9c-5.3-.8-10.7-2.5-21.4-1.7-10.7.8-26.7,4.2-40.1,5.9-13.3,1.7-24,1.7-40,.8-16-.8-37.4-2.5-61.4-2.5s-50.7,1.7-66.7,3.4c-16,1.7-21.4,3.4-26.7,1.7s-10.7-6.8-21.4-8.5c-10.7-1.7-26.7,0-34.7.8l-8,.8Z"/>
    <path class="st2" d="M10,315.3l8-.8c8-.8,24-2.5,34.7-.8,10.7,1.7,16,6.8,21.4,8.5s10.7,0,26.7-1.7c16-1.7,42.7-3.4,66.7-3.4s45.4,1.7,61.4,2.5c16,.8,26.7.8,40-.8,13.3-1.7,29.4-5.1,40.1-5.9,10.7-.8,16,.8,21.4,1.7,5.3.8,10.7.8,16-2.9s10.7-11.2,16-13.2c5.3-2,10.7,1.4,16,1.6,5.3.3,10.7-2.5,16-5.7s10.7-6.5,16-9.9,10.7-6.8,16-7c5.3-.2,10.7,2.8,16,4.2,5.3,1.5,10.7,1.5,16-2.3s10.7-11.5,16-20.2,10.7-18.6,16-25.5c5.3-6.8,10.7-10.6,16-11.5,5.3-.9,10.7,1,16,1.4,5.3.4,10.7-.8,16,.2s10.7,4.3,16-5c5.3-9.3,10.7-31.2,16-37.1,5.3-5.9,10.7,4.3,16-.7,5.3-5,10.7-25.2,16-36.6,5.3-11.4,10.7-14.1,16-14.4,5.3-.3,10.7,1.6,16-.7s10.7-8.8,16,2c5.3,10.8,10.7,39.1,16,37.9,5.3-1.2,10.7-31.7,16-57.9s10.7-48,16-47.5c5.3.4,10.7,23.1,16,28.2,5.3,5.1,10.7-7.3,16-7.3s10.7,12.4,16,15.6c5.3,3.2,10.7-2.8,16-11.1,5.3-8.4,10.7-19.2,16,5.7,5.3,24.9,10.7,85.4,13.4,115.7l2.7,30.3h0l-2.7-28.6c-2.7-28.6-8-85.7-13.4-108.9-5.3-23.2-10.7-12.4-16-5.7s-10.7,9.3-16,9.5-10.7-2-16-.3c-5.3,1.7-10.7,7.3-16-2.9s-10.7-36.3-16-38.4c-5.3-2.1-10.7,19.7-16,45.8s-10.7,56.7-16,57.9c-5.3,1.2-10.7-27.1-16-37.9-5.3-10.8-10.7-4.3-16-.3s-10.7,5.4-16,5.8c-5.3.3-10.7-.4-16,9.3-5.3,9.7-10.7,29.9-16,34.9-5.3,5-10.7-5.2-16,.7-5.3,5.9-10.7,27.8-16,37.1-5.3,9.3-10.7,6.1-16,5s-10.7.2-16-.2c-5.3-.4-10.7-2.3-16-1.4-5.3.9-10.7,4.7-16,11.5-5.3,6.8-10.7,16.7-16,25.5s-10.7,16.4-16,20.2-10.7,3.8-16,2.3c-5.3-1.5-10.7-4.5-16-4.2-5.3.2-10.7,3.6-16,7s-10.7,6.8-16,9.9-10.7,5.9-16,5.7c-5.3-.3-10.7-3.7-16-1.6-5.3,2-10.7,9.5-16,13.2s-10.7,3.7-16,2.9c-5.3-.8-10.7-2.5-21.4-1.7-10.7.8-26.7,4.2-40.1,5.9-13.3,1.7-24,1.7-40,.8-16-.8-37.4-2.5-61.4-2.5s-50.7,1.7-66.7,3.4c-16,1.7-21.4,3.4-26.7,1.7s-10.7-6.8-21.4-8.5c-10.7-1.7-26.7,0-34.7.8l-8,.8Z"/>
    <path d="M10,315.3l8-.8c8-.8,24-2.5,34.7-.8,10.7,1.7,16,6.8,21.4,8.5s10.7,0,26.7-1.7c16-1.7,42.7-3.4,66.7-3.4s45.4,1.7,61.4,2.5c16,.8,26.7.8,40-.8,13.3-1.7,29.4-5.1,40.1-5.9,10.7-.8,16,.8,21.4,1.7,5.3.8,10.7.8,16-2.9s10.7-11.2,16-13.2c5.3-2,10.7,1.4,16,1.6,5.3.3,10.7-2.5,16-5.7s10.7-6.5,16-9.9,10.7-6.8,16-7c5.3-.2,10.7,2.8,16,4.2,5.3,1.5,10.7,1.5,16-2.3s10.7-11.5,16-20.2,10.7-18.6,16-25.5c5.3-6.8,10.7-10.6,16-11.5,5.3-.9,10.7,1,16,1.4,5.3.4,10.7-.8,16,.2s10.7,4.3,16-5c5.3-9.3,10.7-31.2,16-37.1,5.3-5.9,10.7,4.3,16-.7,5.3-5,10.7-25.2,16-36.6,5.3-11.4,10.7-14.1,16-14.4,5.3-.3,10.7,1.6,16-.7s10.7-8.8,16,2c5.3,10.8,10.7,39.1,16,37.9,5.3-1.2,10.7-31.7,16-61.3,5.3-29.6,10.7-58.2,16-57.7,5.3.4,10.7,29.9,16,38.4,5.3,8.5,10.7-3.9,16-9,5.3-5.1,10.7-2.9,16,.3,5.3,3.2,10.7,7.4,16,4.1,5.3-3.3,10.7-14.1,16,9.1,5.3,23.2,10.7,80.3,13.4,108.9l2.7,28.6h0l-2.7-28.6c-2.7-28.6-8-85.7-13.4-108.9-5.3-23.2-10.7-12.4-16-7.4-5.3,5-10.7,4.2-16,1-5.3-3.2-10.7-8.8-16-5.4s-10.7,15.8-16,10.7c-5.3-5.1-10.7-27.8-16-28.2-5.3-.4-10.7,21.4-16,47.5s-10.7,56.7-16,57.9c-5.3,1.2-10.7-27.1-16-37.9-5.3-10.8-10.7-4.3-16-2s-10.7.3-16,.7c-5.3.3-10.7,3-16,14.4-5.3,11.4-10.7,31.6-16,36.6-5.3,5-10.7-5.2-16,.7-5.3,5.9-10.7,27.8-16,37.1-5.3,9.3-10.7,6.1-16,5s-10.7.2-16-.2c-5.3-.4-10.7-2.3-16-1.4-5.3.9-10.7,4.7-16,11.5-5.3,6.8-10.7,16.7-16,25.5s-10.7,16.4-16,20.2-10.7,3.8-16,2.3c-5.3-1.5-10.7-4.5-16-4.2-5.3.2-10.7,3.6-16,7s-10.7,6.8-16,9.9-10.7,5.9-16,5.7c-5.3-.3-10.7-3.7-16-1.6-5.3,2-10.7,9.5-16,13.2s-10.7,3.7-16,2.9c-5.3-.8-10.7-2.5-21.4-1.7-10.7.8-26.7,4.2-40.1,5.9-13.3,1.7-24,1.7-40,.8-16-.8-37.4-2.5-61.4-2.5s-50.7,1.7-66.7,3.4c-16,1.7-21.4,3.4-26.7,1.7s-10.7-6.8-21.4-8.5c-10.7-1.7-26.7,0-34.7.8l-8,.8Z"/>
    <path class="st16" d="M10,315.3l8-.8c8-.8,24-2.5,34.7-.8,10.7,1.7,16,6.8,21.4,8.5s10.7,0,26.7-1.7c16-1.7,42.7-3.4,66.7-3.4s45.4,1.7,61.4,2.5c16,.8,26.7.8,40-.8,13.3-1.7,29.4-5.1,40.1-5.9,10.7-.8,16,.8,21.4,1.7,5.3.8,10.7.8,16-2.9s10.7-11.2,16-13.2c5.3-2,10.7,1.4,16,1.6,5.3.3,10.7-2.5,16-5.7s10.7-6.5,16-9.9,10.7-6.8,16-7c5.3-.2,10.7,2.8,16,4.2,5.3,1.5,10.7,1.5,16-2.3s10.7-11.5,16-20.2,10.7-18.6,16-25.5c5.3-6.8,10.7-10.6,16-11.5,5.3-.9,10.7,1,16,1.4,5.3.4,10.7-.8,16,.2s10.7,4.3,16-5c5.3-9.3,10.7-31.2,16-37.1,5.3-5.9,10.7,4.3,16-.7,5.3-5,10.7-25.2,16-38.3s10.7-19.2,16-21.2c5.3-2,10.7,0,16-.7,5.3-.6,10.7-3.7,16,8.8,5.3,12.5,10.7,40.8,16,39.6,5.3-1.2,10.7-31.7,16-61.3,5.3-29.6,10.7-58.2,16-57.7,5.3.4,10.7,29.9,16,36.7,5.3,6.8,10.7-9,16-14.1,5.3-5.1,10.7.5,16,5.4,5.3,4.9,10.7,9.1,16,5.8,5.3-3.3,10.7-14.1,16,9.1,5.3,23.2,10.7,80.3,13.4,108.9l2.7,28.6h0l-2.7-28.6c-2.7-28.6-8-85.7-13.4-108.9-5.3-23.2-10.7-12.4-16-9.1-5.3,3.3-10.7-.9-16-4.1-5.3-3.2-10.7-5.4-16-.3-5.3,5.1-10.7,17.5-16,9-5.3-8.5-10.7-38-16-38.4-5.3-.4-10.7,28.2-16,57.7-5.3,29.6-10.7,60.1-16,61.3-5.3,1.2-10.7-27.1-16-39.6-5.3-12.5-10.7-9.4-16-8.8-5.3.6-10.7-1.4-16,.7-5.3,2-10.7,8.1-16,21.2s-10.7,33.3-16,38.3c-5.3,5-10.7-5.2-16,.7-5.3,5.9-10.7,27.8-16,37.1-5.3,9.3-10.7,6.1-16,5s-10.7.2-16-.2c-5.3-.4-10.7-2.3-16-1.4-5.3.9-10.7,4.7-16,11.5-5.3,6.8-10.7,16.7-16,25.5s-10.7,16.4-16,20.2-10.7,3.8-16,2.3c-5.3-1.5-10.7-4.5-16-4.2-5.3.2-10.7,3.6-16,7s-10.7,6.8-16,9.9-10.7,5.9-16,5.7c-5.3-.3-10.7-3.7-16-1.6-5.3,2-10.7,9.5-16,13.2s-10.7,3.7-16,2.9c-5.3-.8-10.7-2.5-21.4-1.7-10.7.8-26.7,4.2-40.1,5.9-13.3,1.7-24,1.7-40,.8-16-.8-37.4-2.5-61.4-2.5s-50.7,1.7-66.7,3.4c-16,1.7-21.4,3.4-26.7,1.7s-10.7-6.8-21.4-8.5c-10.7-1.7-26.7,0-34.7.8l-8,.8Z"/>
    <path class="st1" d="M10,315.3l8-.8c8-.8,24-2.5,34.7-.8,10.7,1.7,16,6.8,21.4,8.5s10.7,0,26.7-1.7c16-1.7,42.7-3.4,66.7-3.4s45.4,1.7,61.4,2.5c16,.8,26.7.8,40-.8,13.3-1.7,29.4-5.1,40.1-5.9,10.7-.8,16,.8,21.4,1.7,5.3.8,10.7.8,16-2.9s10.7-11.2,16-13.2c5.3-2,10.7,1.4,16,1.6,5.3.3,10.7-2.5,16-5.7s10.7-6.5,16-9.9,10.7-6.8,16-7c5.3-.2,10.7,2.8,16,4.2,5.3,1.5,10.7,1.5,16-2.3s10.7-11.5,16-20.2,10.7-18.6,16-25.5c5.3-6.8,10.7-10.6,16-11.5,5.3-.9,10.7,1,16,1.4,5.3.4,10.7-.8,16,.2s10.7,4.3,16-5c5.3-9.3,10.7-31.2,16-37.1,5.3-5.9,10.7,4.3,16-.7,5.3-5,10.7-25.2,16-36.6,5.3-11.4,10.7-14.1,16-14.4,5.3-.3,10.7,1.6,16-.7s10.7-8.8,16,2c5.3,10.8,10.7,39.1,16,37.9,5.3-1.2,10.7-31.7,16-57.9s10.7-48,16-47.5c5.3.4,10.7,23.1,16,28.2,5.3,5.1,10.7-7.3,16-10.7s10.7,2.2,16,5.4c5.3,3.2,10.7,4,16-1,5.3-5,10.7-15.8,16,7.4,5.3,23.2,10.7,80.3,13.4,108.9l2.7,28.6v10.2l-2.7-30.3c-2.7-30.3-8-90.8-13.4-115.7-5.3-24.9-10.7-14.1-16-5.7-5.3,8.4-10.7,14.4-16,11.1-5.3-3.2-10.7-15.6-16-15.6s-10.7,12.4-16,7.3c-5.3-5.1-10.7-27.8-16-28.2-5.3-.4-10.7,21.4-16,47.5s-10.7,56.7-16,57.9c-5.3,1.2-10.7-27.1-16-37.9-5.3-10.8-10.7-4.3-16-2s-10.7.3-16,.7c-5.3.3-10.7,3-16,14.4-5.3,11.4-10.7,31.6-16,36.6-5.3,5-10.7-5.2-16,.7-5.3,5.9-10.7,27.8-16,37.1-5.3,9.3-10.7,6.1-16,5s-10.7.2-16-.2c-5.3-.4-10.7-2.3-16-1.4-5.3.9-10.7,4.7-16,11.5-5.3,6.8-10.7,16.7-16,25.5s-10.7,16.4-16,20.2-10.7,3.8-16,2.3c-5.3-1.5-10.7-4.5-16-4.2-5.3.2-10.7,3.6-16,7s-10.7,6.8-16,9.9-10.7,5.9-16,5.7c-5.3-.3-10.7-3.7-16-1.6-5.3,2-10.7,9.5-16,13.2s-10.7,3.7-16,2.9c-5.3-.8-10.7-2.5-21.4-1.7-10.7.8-26.7,4.2-40.1,5.9-13.3,1.7-24,1.7-40,.8-16-.8-37.4-2.5-61.4-2.5s-50.7,1.7-66.7,3.4c-16,1.7-21.4,3.4-26.7,1.7s-10.7-6.8-21.4-8.5c-10.7-1.7-26.7,0-34.7.8l-8,.8Z"/>
  </g>
  <g id="xAxis">
    <path class="st14" d="M10,580h785"/>
    <g>
      <line class="st14" x1="74.1" y1="580" x2="74.1" y2="586"/>
      <text class="st3" transform="translate(63 596.1)"><tspan x="0" y="0">1980</tspan></text>
    </g>
    <g>
      <line class="st14" x1="154.2" y1="580" x2="154.2" y2="586"/>
      <text class="st3" transform="translate(143.1 596.1)"><tspan x="0" y="0">1985</tspan></text>
    </g>
    <g>
      <line class="st14" x1="234.3" y1="580" x2="234.3" y2="586"/>
      <text class="st3" transform="translate(223.2 596.1)"><tspan x="0" y="0">1990</tspan></text>
    </g>
    <g>
      <line class="st14" x1="314.4" y1="580" x2="314.4" y2="586"/>
      <text class="st3" transform="translate(303.3 596.1)"><tspan x="0" y="0">1995</tspan></text>
    </g>
    <g>
      <line class="st14" x1="394.5" y1="580" x2="394.5" y2="586"/>
      <text class="st3" transform="translate(383.4 596.1)"><tspan x="0" y="0">2000</tspan></text>
    </g>
    <g>
      <line class="st14" x1="474.6" y1="580" x2="474.6" y2="586"/>
      <text class="st3" transform="translate(463.5 596.1)"><tspan x="0" y="0">2005</tspan></text>
    </g>
    <g>
      <line class="st14" x1="554.7" y1="580" x2="554.7" y2="586"/>
      <text class="st3" transform="translate(543.6 596.1)"><tspan x="0" y="0">2010</tspan></text>
    </g>
    <g>
      <line class="st14" x1="634.8" y1="580" x2="634.8" y2="586"/>
      <text class="st3" transform="translate(623.7 596.1)"><tspan x="0" y="0">2015</tspan></text>
    </g>
    <g>
      <line class="st14" x1="714.9" y1="580" x2="714.9" y2="586"/>
      <text class="st3" transform="translate(703.7 596.1)"><tspan x="0" y="0">2020</tspan></text>
    </g>
    <g>
      <line class="st14" x1="795" y1="580" x2="795" y2="586"/>
      <text class="st3" transform="translate(783.9 596.1)"><tspan x="0" y="0">2025</tspan></text>
    </g>
  </g>
  <g id="yAxis">
    <path class="st14" d="M10,580V20"/>
    <g>
      <line class="st14" x1="10" y1="580" x2="4" y2="580"/>
      <text class="st3" transform="translate(-16 583.2)"><tspan x="0" y="0">−25</tspan></text>
    </g>
    <g>
      <line class="st14" x1="10" y1="529.1" x2="4" y2="529.1"/>
      <text class="st3" transform="translate(-16 532.3)"><tspan x="0" y="0">−20</tspan></text>
    </g>
    <g>
      <line class="st14" x1="10" y1="478.2" x2="4" y2="478.2"/>
      <text class="st3" transform="translate(-16 481.4)"><tspan x="0" y="0">−15</tspan></text>
    </g>
    <g>
      <line class="st14" x1="10" y1="427.3" x2="4" y2="427.3"/>
      <text class="st3" transform="translate(-16 430.5)"><tspan x="0" y="0">−10</tspan></text>
    </g>
    <g>
      <line class="st14" x1="10" y1="376.4" x2="4" y2="376.4"/>
      <text class="st3" transform="translate(-10.4 379.6)"><tspan x="0" y="0">−5</tspan></text>
    </g>
    <g>
      <line class="st14" x1="10" y1="325.5" x2="4" y2="325.5"/>
      <text class="st3" transform="translate(-4.6 328.7)"><tspan x="0" y="0">0</tspan></text>
    </g>
    <g>
      <line class="st14" x1="10" y1="274.5" x2="4" y2="274.5"/>
      <text class="st3" transform="translate(-4.6 277.7)"><tspan x="0" y="0">5</tspan></text>
    </g>
    <g>
      <line class="st14" x1="10" y1="223.6" x2="4" y2="223.6"/>
      <text class="st3" transform="translate(-10.1 226.8)"><tspan x="0" y="0">10</tspan></text>
    </g>
    <g>
      <line class="st14" x1="10" y1="172.7" x2="4" y2="172.7"/>
      <text class="st3" transform="translate(-10.1 175.9)"><tspan x="0" y="0">15</tspan></text>
    </g>
    <g>
      <line class="st14" x1="10" y1="121.8" x2="4" y2="121.8"/>
      <text class="st3" transform="translate(-10.1 125)"><tspan x="0" y="0">20</tspan></text>
    </g>
    <g>
      <line class="st14" x1="10" y1="70.9" x2="4" y2="70.9"/>
      <text class="st3" transform="translate(-10.1 74.1)"><tspan x="0" y="0">25</tspan></text>
    </g>
    <g>
      <line class="st14" x1="10" y1="20" x2="4" y2="20"/>
      <text class="st3" transform="translate(-10.1 23.2)"><tspan x="0" y="0">30</tspan></text>
    </g>
  </g>
  <text class="st5" transform="translate(770.3 576)"><tspan x="0" y="0">year</tspan></text>
  <text class="st5" transform="translate(14 30.3)"><tspan x="0" y="0">counts</tspan></text>
  <g id="labels">
    <text class="st4" transform="translate(661.6 224)"><tspan x="0" y="0">11</tspan></text>
    <text class="st4" transform="translate(696.1 224.8)"><tspan x="0" y="0">2</tspan></text>
    <text class="st4" transform="translate(741.4 374.2)"><tspan x="0" y="0">13</tspan></text>
    <text class="st4" transform="translate(709.3 145.1)"><tspan x="0" y="0">14</tspan></text>
    <text class="st4" transform="translate(744.1 501.4)"><tspan x="0" y="0">1</tspan></text>
    <text class="st4" transform="translate(760.2 315.5)"><tspan x="0" y="0">6</tspan></text>
    <text class="st4" transform="translate(696.1 128)"><tspan x="0" y="0">3</tspan></text>
    <text class="st4" transform="translate(600 150.8)"><tspan x="0" y="0">7</tspan></text>
    <text class="st4" transform="translate(613.2 122.5)"><tspan x="0" y="0">10</tspan></text>
    <text class="st4" transform="translate(744.1 124.7)"><tspan x="0" y="0">5</tspan></text>
    <text class="st4" transform="translate(728.1 87.5)"><tspan x="0" y="0">4</tspan></text>
    <text class="st4" transform="translate(696.1 31.3)"><tspan x="0" y="0">9</tspan></text>
    <text class="st4" transform="translate(728.1 67.1)"><tspan x="0" y="0">0</tspan></text>
    <text class="st4" transform="translate(741.4 99.3)"><tspan x="0" y="0">12</tspan></text>
  </g>
</svg>