<?xml version="1.0" encoding="UTF-8"?>
<svg id="Layer_1" xmlns="http://www.w3.org/2000/svg" version="1.1" viewBox="0 0 805 600">
  <!-- Generator: Adobe Illustrator 29.1.0, SVG Export Plug-In . SVG Version: 2.1.0 Build 142)  -->
  <defs>
    <style>
      .st0 {
        fill: #cb7729;
      }

      .st1 {
        fill: #f4a988;
      }

      .st2 {
        fill: #c04e3f;
      }

      .st3 {
        fill: #b5dba5;
      }

      .st4 {
        fill: #f4e1a1;
      }

      .st5 {
        fill: #f7a7a1;
      }

      .st6 {
        font-family: TimesNewRomanPSMT, 'Times New Roman';
        font-size: 12px;
        isolation: isolate;
      }

      .st7 {
        fill: #005f56;
      }

      .st8 {
        fill: #399;
      }

      .st9 {
        fill: none;
        stroke: #000;
      }
    </style>
  </defs>
  <g>
    <path class="st2" d="M10,315.3l8-.8c8-.8,24-2.5,34.7,0,10.7,2.5,16,9.3,21.4,11.9,5.3,2.5,10.7.8,26.7-.8,16-1.7,42.7-3.4,66.8-3.4s45.4,1.7,61.4,2.5c16,.8,26.7.8,40.1-.8,13.4-1.7,29.4-5.1,40.1-6.4,10.7-1.3,16-.4,21.4,1.7,5.3,2.1,10.7,5.5,16,5.2,5.3-.3,10.7-4.4,16-3.1,5.3,1.4,10.7,8.1,16,9.3,5.3,1.1,10.7-3.4,16-5.7,5.3-2.3,10.7-2.3,16-1.4,5.3.8,10.7,2.5,16,1.3,5.3-1.3,10.7-5.5,16-5.9,5.3-.4,10.7,3,16,.1,5.3-2.9,10.7-12,16-18.4,5.3-6.4,10.7-10.1,16-10.9s10.7,1.3,16,.7c5.3-.6,10.7-3.9,16-6.6,5.3-2.8,10.7-5.1,16-5.9,5.3-.8,10.7,0,16-7.7,5.3-7.7,10.7-23.7,16-28.7,5.3-5,10.7,1,16-4.4,5.3-5.4,10.7-22.3,16-32,5.3-9.7,10.7-12.4,16-9.8s10.7,10.4,16,9.8c5.3-.6,10.7-9.7,16-3.1,5.3,6.6,10.7,28.8,16,25.9,5.3-2.9,10.7-30.9,16-52.2,5.3-21.3,10.7-36,16-43,5.3-7,10.7-6.3,16-7.3s10.7-3.7,16-12.5c5.3-8.8,10.7-23.6,16-26.6,5.3-2.9,10.7,6,16,18.3s10.7,27.9,16,50c5.3,22.1,10.7,50.7,13.4,64.9l2.7,14.3v10.2l-2.7-9.2c-2.7-9.2-8-27.6-13.4-48-5.3-20.4-10.7-42.8-16-50s-10.7.8-16,7.1-10.7,11-16,16.4c-5.3,5.4-10.7,11.5-16,9.1-5.3-2.4-10.7-13.2-16-9.6-5.3,3.6-10.7,21.7-16,43-5.3,21.3-10.7,45.9-16,45.4-5.3-.5-10.7-26.1-16-34.4-5.3-8.3-10.7.7-16,3.1-5.3,2.3-10.7-2.1-16-4.7s-10.7-3.3-16,4.7c-5.3,8.1-10.7,24.9-16,28.6s-10.7-5.7-16-2.4-10.7,19.4-16,27c-5.3,7.7-10.7,6.9-16,9.4-5.3,2.5-10.7,8.2-16,11-5.3,2.8-10.7,2.7-16,1.5-5.3-1.1-10.7-3.2-16-2.4s-10.7,4.5-16,10.9c-5.3,6.4-10.7,15.5-16,18.4-5.3,2.9-10.7-.5-16-.1-5.3.4-10.7,4.7-16,7.6-5.3,3-10.7,4.7-16,3.8-5.3-.8-10.7-4.2-16-3.7-5.3.6-10.7,5.1-16,4-5.3-1.1-10.7-7.9-16-9.3-5.3-1.4-10.7,2.7-16,3.1-5.3.3-10.7-3.1-16-5.2-5.3-2.1-10.7-3-21.4-1.7-10.7,1.3-26.7,4.7-40.1,6.4-13.4,1.7-24,1.7-40.1,2.5-16,.8-37.4,2.5-61.4,2.5s-50.7-1.7-66.8-1.7-21.4,1.7-26.7-.8c-5.3-2.5-10.7-9.3-21.4-10.2s-26.7,4.2-34.7,6.8l-8,2.5v-10.2Z"/>
    <path class="st8" d="M10,325.5l8-2.5c8-2.5,24-7.6,34.7-6.8s16,7.6,21.4,10.2c5.3,2.5,10.7.8,26.7.8s42.7,1.7,66.8,1.7,45.4-1.7,61.4-2.5c16-.8,26.7-.8,40.1-.8s29.4,0,40.1.4c10.7.4,16,1.3,21.4,1.7,5.3.4,10.7.4,16,0,5.3-.3,10.7-1,16,.3,5.3,1.4,10.7,4.8,16,4.2,5.3-.6,10.7-5.1,16-5.7,5.3-.6,10.7,2.8,16,3.7,5.3.8,10.7-.8,16-2.1,5.3-1.3,10.7-2.1,16-2.5,5.3-.4,10.7-.4,16-1.6,5.3-1.2,10.7-3.5,16-6.5,5.3-3,10.7-6.7,16-9.2,5.3-2.5,10.7-3.8,16-2.7,5.3,1.1,10.7,4.6,16,5.2s10.7-1.7,16-4.2c5.3-2.5,10.7-5.2,16-9.4,5.3-4.3,10.7-10.1,16-15.2,5.3-5,10.7-9.2,16-16.3s10.7-17.2,16-20.1c5.3-3,10.7,1.2,16,.4,5.3-.8,10.7-6.6,16-7.2,5.3-.6,10.7,3.9,16,10.5,5.3,6.6,10.7,15.2,16,14s10.7-12.2,16-19.9c5.3-7.8,10.7-12.3,16-12.5,5.3-.2,10.7,3.9,16,4.5,5.3.7,10.7-2,16-2.3,5.3-.3,10.7,1.8,16,7.4s10.7,14.5,16,14.9,10.7-7.7,16-7.7c5.3,0,10.7,8.2,13.4,12.3l2.7,4.1h0l-2.7,2.7c-2.7,2.7-8,8.1-13.4,13.1-5.3,5.1-10.7,9.8-16,14.4-5.3,4.7-10.7,9.3-16,5.4s-10.7-16.2-16-14.2c-5.3,2-10.7,18.3-16,19.3-5.3,1-10.7-13.2-16-19.8-5.3-6.6-10.7-5.5-16-2.8-5.3,2.7-10.7,6.9-16,6.4s-10.7-5.8-16-7.3c-5.3-1.5-10.7.7-16-.3-5.3-1.1-10.7-5.5-16-3-5.3,2.5-10.7,11.9-16,14.9-5.3,3-10.7-.5-16-1.9s-10.7-.6-16,6.1-10.7,19.4-16,23.6c-5.3,4.3-10.7.1-16-2.5-5.3-2.6-10.7-3.7-16-4.3s-10.7-.7-16-.2c-5.3.6-10.7,1.9-16,4.4-5.3,2.5-10.7,6.2-16,9.2-5.3,3-10.7,5.4-16,6.5-5.3,1.2-10.7,1.2-16-.1-5.3-1.3-10.7-3.8-16-4.2-5.3-.4-10.7,1.3-16,3.8-5.3,2.5-10.7,5.9-16,6.5-5.3.6-10.7-1.7-16-4.5-5.3-2.8-10.7-6.2-16-7.6-5.3-1.4-10.7-.7-16-.3-5.3.3-10.7.3-16,1.6-5.3,1.3-10.7,3.8-21.4,3.4-10.7-.4-26.7-3.8-40.1-5.5-13.4-1.7-24-1.7-40.1-.8-16,.8-37.4,2.5-61.4,4.2-24,1.7-50.7,3.4-66.8,3.4s-21.4-1.7-26.7-2.5c-5.3-.8-10.7-.8-21.4-1.7s-26.7-2.5-34.7-3.4l-8-.8Z"/>
    <path class="st3" d="M10,325.5l8,.8c8,.8,24,2.5,34.7,3.4s16,.8,21.4,1.7c5.3.8,10.7,2.5,26.7,2.5s42.7-1.7,66.8-3.4c24-1.7,45.4-3.4,61.4-4.2,16-.8,26.7-.8,40.1.8,13.4,1.7,29.4,5.1,40.1,5.5,10.7.4,16-2.1,21.4-3.4,5.3-1.3,10.7-1.3,16-1.6,5.3-.3,10.7-1,16,.3,5.3,1.4,10.7,4.8,16,7.6,5.3,2.8,10.7,5.1,16,4.5,5.3-.6,10.7-4,16-6.5,5.3-2.5,10.7-4.2,16-3.8,5.3.4,10.7,3,16,4.2,5.3,1.3,10.7,1.3,16,.1,5.3-1.2,10.7-3.5,16-6.5,5.3-3,10.7-6.7,16-9.2,5.3-2.5,10.7-3.8,16-4.4,5.3-.6,10.7-.5,16,.2s10.7,1.7,16,4.3c5.3,2.6,10.7,6.7,16,2.5,5.3-4.3,10.7-16.9,16-23.6s10.7-7.5,16-6.1,10.7,4.9,16,1.9c5.3-3,10.7-12.4,16-14.9,5.3-2.5,10.7,1.9,16,3,5.3,1.1,10.7-1.2,16,.3,5.3,1.5,10.7,6.7,16,7.3s10.7-3.7,16-6.4c5.3-2.7,10.7-3.8,16,2.8,5.3,6.6,10.7,20.8,16,19.8,5.3-1,10.7-17.3,16-19.3,5.3-2,10.7,10.3,16,14.2s10.7-.8,16-5.4c5.3-4.7,10.7-9.4,16-14.4,5.3-5.1,10.7-10.4,13.4-13.1l2.7-2.7v20.4l-2.7,38.3c-2.7,38.3-8,115-13.4,155.7-5.3,40.7-10.7,45.4-16,46.7-5.3,1.3-10.7-.9-16-1.4-5.3-.5-10.7.8-16-9.1-5.3-9.9-10.7-31-16-23.2s-10.7,44.5-16,51.5c-5.3,7-10.7-15.6-16-40.1-5.3-24.5-10.7-50.8-16-49.6s-10.7,29.9-16,42c-5.3,12.1-10.7,7.5-16,8.2-5.3.6-10.7,6.4-16,3.8-5.3-2.6-10.7-13.5-16-22.4-5.3-8.9-10.7-15.8-16-18.9s-10.7-2.3-16-12.6-10.7-31.5-16-40.8c-5.3-9.3-10.7-6.6-16-5.9-5.3.8-10.7-.3-16-.9s-10.7-.7-16-1.9c-5.3-1.1-10.7-3.2-16-7.5s-10.7-10.8-16-17.9c-5.3-7.2-10.7-15-16-18.9-5.3-3.9-10.7-3.9-16-3.5-5.3.4-10.7,1.3-16-2.5-5.3-3.8-10.7-12.3-16-13.2-5.3-.8-10.7,5.9-16,8.2-5.3,2.3-10.7,0-16,.6-5.3.6-10.7,4-16,2.6-5.3-1.4-10.7-7.5-16-10.5-5.3-3.1-10.7-3.1-16-3.5-5.3-.4-10.7-1.3-21.4-1.7-10.7-.4-26.7-.4-40.1-.4s-24,0-40.1-.8c-16-.8-37.4-2.5-61.4-2.5s-50.7,1.7-66.8,3.4c-16,1.7-21.4,3.4-26.7,4.2-5.3.8-10.7.8-21.4-1.7-10.7-2.5-26.7-7.6-34.7-10.2l-8-2.5Z"/>
    <path class="st0" d="M10,325.5l8-2.5c8-2.5,24-7.6,34.7-6.8s16,7.6,21.4,10.2c5.3,2.5,10.7.8,26.7.8s42.7,1.7,66.8,1.7,45.4-1.7,61.4-2.5c16-.8,26.7-.8,40.1-2.5,13.4-1.7,29.4-5.1,40.1-6.4,10.7-1.3,16-.4,21.4,1.7,5.3,2.1,10.7,5.5,16,5.2,5.3-.3,10.7-4.4,16-3.1,5.3,1.4,10.7,8.1,16,9.3,5.3,1.1,10.7-3.4,16-4,5.3-.6,10.7,2.8,16,3.7,5.3.8,10.7-.8,16-3.8,5.3-3,10.7-7.2,16-7.6,5.3-.4,10.7,3,16,.1,5.3-2.9,10.7-12,16-18.4,5.3-6.4,10.7-10.1,16-10.9s10.7,1.3,16,2.4c5.3,1.1,10.7,1.2,16-1.5,5.3-2.8,10.7-8.5,16-11,5.3-2.5,10.7-1.8,16-9.4,5.3-7.7,10.7-23.7,16-27s10.7,6.1,16,2.4,10.7-20.6,16-28.6c5.3-8.1,10.7-7.3,16-4.7s10.7,7,16,4.7c5.3-2.3,10.7-11.4,16-3.1,5.3,8.3,10.7,33.9,16,34.4,5.3.5,10.7-24.1,16-45.4,5.3-21.3,10.7-39.4,16-43,5.3-3.6,10.7,7.3,16,9.6,5.3,2.4,10.7-3.7,16-9.1,5.3-5.4,10.7-10,16-16.4s10.7-14.3,16-7.1,10.7,29.6,16,50c5.3,20.4,10.7,38.8,13.4,48l2.7,9.2h0l-2.7-7.5c-2.7-7.5-8-22.5-13.4-36.1-5.3-13.6-10.7-25.9-16-31.4s-10.7-4.3-16-1.4-10.7,7.6-16,13c-5.3,5.4-10.7,11.5-16,14.2-5.3,2.7-10.7,2-16,3.9s-10.7,6.4-16,19.3c-5.3,12.8-10.7,34-16,36.9-5.3,2.9-10.7-12.5-16-19.1-5.3-6.6-10.7-4.3-16-5.4-5.3-1.1-10.7-5.5-16-4.7s-10.7,6.9-16,14.9c-5.3,8.1-10.7,18.1-16,21.8s-10.7,1.1-16,4.4c-5.3,3.3-10.7,12.6-16,20.2-5.3,7.7-10.7,13.7-16,16.2-5.3,2.5-10.7,1.4-16,.8-5.3-.6-10.7-.7-16-.2-5.3.6-10.7,1.9-16,4.4-5.3,2.5-10.7,6.2-16,9.2-5.3,3-10.7,5.4-16,6.5-5.3,1.2-10.7,1.2-16,1.6-5.3.4-10.7,1.3-16,2.5-5.3,1.3-10.7,3-16,2.1-5.3-.8-10.7-4.2-16-3.7-5.3.6-10.7,5.1-16,5.7-5.3.6-10.7-2.8-16-4.2-5.3-1.4-10.7-.7-16-.3-5.3.3-10.7.3-16,0-5.3-.4-10.7-1.3-21.4-1.7-10.7-.4-26.7-.4-40.1-.4s-24,0-40.1.8c-16,.8-37.4,2.5-61.4,2.5s-50.7-1.7-66.8-1.7-21.4,1.7-26.7-.8c-5.3-2.5-10.7-9.3-21.4-10.2s-26.7,4.2-34.7,6.8l-8,2.5Z"/>
    <path class="st4" d="M10,315.3l8-.8c8-.8,24-2.5,34.7,0,10.7,2.5,16,9.3,21.4,11.9,5.3,2.5,10.7.8,26.7-.8,16-1.7,42.7-3.4,66.8-3.4s45.4,1.7,61.4,2.5c16,.8,26.7.8,40.1-.8,13.4-1.7,29.4-5.1,40.1-6.4,10.7-1.3,16-.4,21.4,1.7,5.3,2.1,10.7,5.5,16,3.5,5.3-2,10.7-9.5,16-8.1,5.3,1.4,10.7,11.5,16,14.4,5.3,2.8,10.7-1.7,16-4,5.3-2.3,10.7-2.3,16-4.8,5.3-2.5,10.7-7.6,16-8.9,5.3-1.3,10.7,1.3,16,4.2,5.3,3,10.7,6.4,16,3.5,5.3-2.9,10.7-12,16-18.4,5.3-6.4,10.7-10.1,16-14.3s10.7-8.9,16-11.2c5.3-2.3,10.7-2.2,16-3.2,5.3-1.1,10.7-3.4,16-4.2,5.3-.8,10.7,0,16-6,5.3-6,10.7-18.6,16-23.6,5.3-5,10.7-2.4,16-9.5s10.7-24,16-32c5.3-8.1,10.7-7.3,16-8.1s10.7-3.2,16-5.5c5.3-2.3,10.7-4.6,16,7.1,5.3,11.7,10.7,37.3,16,32.7,5.3-4.6,10.7-39.3,16-72.6,5.3-33.2,10.7-64.9,16-77,5.3-12.1,10.7-4.6,16,4.5,5.3,9.2,10.7,20,16,13,5.3-7.1,10.7-32.1,16-33.3s10.7,21.3,16,31.9c5.3,10.6,10.7,9.3,16,29.7,5.3,20.4,10.7,62.5,13.4,83.6l2.7,21.1v10.2l-2.7-14.3c-2.7-14.3-8-42.8-13.4-64.9-5.3-22.1-10.7-37.7-16-50s-10.7-21.3-16-18.3c-5.3,2.9-10.7,17.8-16,26.6-5.3,8.8-10.7,11.5-16,12.5s-10.7.3-16,7.3c-5.3,7-10.7,21.7-16,43-5.3,21.3-10.7,49.3-16,52.2-5.3,2.9-10.7-19.3-16-25.9-5.3-6.6-10.7,2.4-16,3.1-5.3.6-10.7-7.2-16-9.8s-10.7,0-16,9.8c-5.3,9.7-10.7,26.6-16,32-5.3,5.4-10.7-.6-16,4.4-5.3,5-10.7,21.1-16,28.7-5.3,7.7-10.7,6.9-16,7.7-5.3.8-10.7,3.1-16,5.9-5.3,2.8-10.7,6-16,6.6-5.3.6-10.7-1.5-16-.7s-10.7,4.5-16,10.9c-5.3,6.4-10.7,15.5-16,18.4-5.3,2.9-10.7-.5-16-.1-5.3.4-10.7,4.7-16,5.9-5.3,1.3-10.7-.4-16-1.3-5.3-.8-10.7-.8-16,1.4-5.3,2.3-10.7,6.8-16,5.7-5.3-1.1-10.7-7.9-16-9.3-5.3-1.4-10.7,2.7-16,3.1-5.3.3-10.7-3.1-16-5.2-5.3-2.1-10.7-3-21.4-1.7-10.7,1.3-26.7,4.7-40.1,6.4-13.4,1.7-24,1.7-40.1.8-16-.8-37.4-2.5-61.4-2.5s-50.7,1.7-66.8,3.4c-16,1.7-21.4,3.4-26.7.8-5.3-2.5-10.7-9.3-21.4-11.9-10.7-2.5-26.7-.8-34.7,0l-8,.8Z"/>
    <path class="st5" d="M10,315.3l8-.8c8-.8,24-2.5,34.7,0,10.7,2.5,16,9.3,21.4,11.9,5.3,2.5,10.7.8,26.7-.8,16-1.7,42.7-3.4,66.8-3.4s45.4,1.7,61.4,2.5c16,.8,26.7.8,40.1-.8,13.4-1.7,29.4-5.1,40.1-6.4,10.7-1.3,16-.4,21.4,1.7,5.3,2.1,10.7,5.5,16,3.5,5.3-2,10.7-9.5,16-8.1,5.3,1.4,10.7,11.5,16,14.4,5.3,2.8,10.7-1.7,16-5.7,5.3-4,10.7-7.4,16-11.6,5.3-4.2,10.7-9.3,16-8.9,5.3.4,10.7,6.4,16,11,5.3,4.7,10.7,8.1,16,5.2,5.3-2.9,10.7-12,16-18.4,5.3-6.4,10.7-10.1,16-14.3s10.7-8.9,16-11.2c5.3-2.3,10.7-2.2,16-3.2,5.3-1.1,10.7-3.4,16-5.9s10.7-5.2,16-12.8c5.3-7.7,10.7-20.3,16-23.6,5.3-3.3,10.7,2.7,16-2.7,5.3-5.4,10.7-22.3,16-33.7,5.3-11.4,10.7-17.5,16-20,5.3-2.5,10.7-1.5,16-2.1,5.3-.6,10.7-2.9,16,2,5.3,4.9,10.7,16.9,16,14,5.3-2.9,10.7-20.7,16-47.1,5.3-26.4,10.7-61.5,16-77,5.3-15.5,10.7-11.4,16-5.6,5.3,5.8,10.7,13.3,16,9.6,5.3-3.7,10.7-18.5,16-14.7,5.3,3.8,10.7,26.4,16,35.3,5.3,8.9,10.7,4.2,16,24.6,5.3,20.4,10.7,65.9,13.4,88.7l2.7,22.8h0l-2.7-21.1c-2.7-21.1-8-63.2-13.4-83.6-5.3-20.4-10.7-19.1-16-29.7-5.3-10.6-10.7-33.2-16-35.3s-10.7,16.1-16,21.5c-5.3,5.4-10.7-2.1-16-9.6s-10.7-14.9-16-1.1c-5.3,13.8-10.7,48.8-16,80.4-5.3,31.5-10.7,59.5-16,64.1-5.3,4.6-10.7-14.2-16-24.2-5.3-10-10.7-11.1-16-12.2-5.3-1.1-10.7-2.1-16,.4-5.3,2.5-10.7,8.6-16,20-5.3,11.4-10.7,28.3-16,35.4s-10.7,4.5-16,7.8c-5.3,3.3-10.7,12.6-16,18.5-5.3,6-10.7,8.6-16,11.1s-10.7,4.8-16,5.9c-5.3,1.1-10.7,1-16,3.2-5.3,2.3-10.7,7-16,11.2s-10.7,7.9-16,14.3c-5.3,6.4-10.7,15.5-16,18.4-5.3,2.9-10.7-.5-16-5.2-5.3-4.7-10.7-10.6-16-9.3-5.3,1.3-10.7,9.8-16,14-5.3,4.2-10.7,4.2-16,6.5-5.3,2.3-10.7,6.8-16,4-5.3-2.8-10.7-13-16-14.4-5.3-1.4-10.7,6.1-16,8.1-5.3,2-10.7-1.4-16-3.5-5.3-2.1-10.7-3-21.4-1.7-10.7,1.3-26.7,4.7-40.1,6.4-13.4,1.7-24,1.7-40.1.8-16-.8-37.4-2.5-61.4-2.5s-50.7,1.7-66.8,3.4c-16,1.7-21.4,3.4-26.7.8-5.3-2.5-10.7-9.3-21.4-11.9-10.7-2.5-26.7-.8-34.7,0l-8,.8Z"/>
    <path class="st7" d="M10,315.3l8-.8c8-.8,24-2.5,34.7,0,10.7,2.5,16,9.3,21.4,11.9,5.3,2.5,10.7.8,26.7-.8,16-1.7,42.7-3.4,66.8-3.4s45.4,1.7,61.4,2.5c16,.8,26.7.8,40.1-.8,13.4-1.7,29.4-5.1,40.1-6.4,10.7-1.3,16-.4,21.4,1.7,5.3,2.1,10.7,5.5,16,3.5,5.3-2,10.7-9.5,16-8.1,5.3,1.4,10.7,11.5,16,14.4,5.3,2.8,10.7-1.7,16-4,5.3-2.3,10.7-2.3,16-6.5,5.3-4.2,10.7-12.7,16-14,5.3-1.3,10.7,4.7,16,9.3,5.3,4.7,10.7,8.1,16,5.2,5.3-2.9,10.7-12,16-18.4,5.3-6.4,10.7-10.1,16-14.3s10.7-8.9,16-11.2c5.3-2.3,10.7-2.2,16-3.2,5.3-1.1,10.7-3.4,16-5.9s10.7-5.2,16-11.1c5.3-6,10.7-15.2,16-18.5,5.3-3.3,10.7-.7,16-7.8s10.7-24,16-35.4c5.3-11.4,10.7-17.5,16-20,5.3-2.5,10.7-1.5,16-.4,5.3,1.1,10.7,2.2,16,12.2,5.3,10,10.7,28.8,16,24.2,5.3-4.6,10.7-32.6,16-64.1,5.3-31.5,10.7-66.6,16-80.4,5.3-13.8,10.7-6.3,16,1.1s10.7,15,16,9.6c5.3-5.4,10.7-23.6,16-21.5s10.7,24.7,16,35.3c5.3,10.6,10.7,9.3,16,29.7,5.3,20.4,10.7,62.5,13.4,83.6l2.7,21.1h0l-2.7-21.1c-2.7-21.1-8-63.2-13.4-83.6-5.3-20.4-10.7-19.1-16-29.7-5.3-10.6-10.7-33.2-16-31.9s-10.7,26.3-16,33.3c-5.3,7.1-10.7-3.8-16-13-5.3-9.2-10.7-16.6-16-4.5-5.3,12.1-10.7,43.7-16,77-5.3,33.2-10.7,68-16,72.6-5.3,4.6-10.7-21-16-32.7-5.3-11.7-10.7-9.4-16-7.1-5.3,2.3-10.7,4.7-16,5.5s-10.7,0-16,8.1c-5.3,8.1-10.7,24.9-16,32s-10.7,4.5-16,9.5c-5.3,5-10.7,17.7-16,23.6-5.3,6-10.7,5.2-16,6-5.3.8-10.7,3.1-16,4.2-5.3,1.1-10.7,1-16,3.2-5.3,2.3-10.7,7-16,11.2s-10.7,7.9-16,14.3c-5.3,6.4-10.7,15.5-16,18.4-5.3,2.9-10.7-.5-16-3.5-5.3-3-10.7-5.5-16-4.2-5.3,1.3-10.7,6.4-16,8.9-5.3,2.5-10.7,2.5-16,4.8-5.3,2.3-10.7,6.8-16,4-5.3-2.8-10.7-13-16-14.4-5.3-1.4-10.7,6.1-16,8.1-5.3,2-10.7-1.4-16-3.5-5.3-2.1-10.7-3-21.4-1.7-10.7,1.3-26.7,4.7-40.1,6.4-13.4,1.7-24,1.7-40.1.8-16-.8-37.4-2.5-61.4-2.5s-50.7,1.7-66.8,3.4c-16,1.7-21.4,3.4-26.7.8-5.3-2.5-10.7-9.3-21.4-11.9-10.7-2.5-26.7-.8-34.7,0l-8,.8Z"/>
    <path class="st1" d="M10,325.5l8-2.5c8-2.5,24-7.6,34.7-6.8s16,7.6,21.4,10.2c5.3,2.5,10.7.8,26.7.8s42.7,1.7,66.8,1.7,45.4-1.7,61.4-2.5c16-.8,26.7-.8,40.1-.8s29.4,0,40.1.4c10.7.4,16,1.3,21.4,1.7,5.3.4,10.7.4,16,0,5.3-.3,10.7-1,16,.3,5.3,1.4,10.7,4.8,16,4.2,5.3-.6,10.7-5.1,16-5.7,5.3-.6,10.7,2.8,16,3.7,5.3.8,10.7-.8,16-2.1,5.3-1.3,10.7-2.1,16-2.5,5.3-.4,10.7-.4,16-1.6,5.3-1.2,10.7-3.5,16-6.5,5.3-3,10.7-6.7,16-9.2,5.3-2.5,10.7-3.8,16-4.4,5.3-.6,10.7-.5,16,.2,5.3.6,10.7,1.7,16-.8,5.3-2.5,10.7-8.5,16-16.2,5.3-7.7,10.7-16.9,16-20.2,5.3-3.3,10.7-.7,16-4.4s10.7-13.8,16-21.8c5.3-8.1,10.7-14.1,16-14.9s10.7,3.6,16,4.7c5.3,1.1,10.7-1.2,16,5.4,5.3,6.6,10.7,22,16,19.1,5.3-2.9,10.7-24.1,16-36.9,5.3-12.8,10.7-17.3,16-19.3s10.7-1.2,16-3.9c5.3-2.7,10.7-8.8,16-14.2,5.3-5.4,10.7-10,16-13s10.7-4.2,16,1.4,10.7,17.8,16,31.4c5.3,13.6,10.7,28.6,13.4,36.1l2.7,7.5v20.4l-2.7-4.1c-2.7-4.1-8-12.3-13.4-12.3-5.3,0-10.7,8.1-16,7.7s-10.7-9.4-16-14.9-10.7-7.7-16-7.4c-5.3.3-10.7,3-16,2.3-5.3-.7-10.7-4.8-16-4.5-5.3.2-10.7,4.7-16,12.5-5.3,7.8-10.7,18.8-16,19.9s-10.7-7.5-16-14c-5.3-6.6-10.7-11.1-16-10.5-5.3.6-10.7,6.4-16,7.2-5.3.8-10.7-3.3-16-.4-5.3,3-10.7,13-16,20.1s-10.7,11.3-16,16.3c-5.3,5-10.7,10.9-16,15.2-5.3,4.3-10.7,6.9-16,9.4-5.3,2.5-10.7,4.8-16,4.2s-10.7-4.1-16-5.2c-5.3-1.1-10.7.2-16,2.7-5.3,2.5-10.7,6.2-16,9.2-5.3,3-10.7,5.4-16,6.5-5.3,1.2-10.7,1.2-16,1.6-5.3.4-10.7,1.3-16,2.5-5.3,1.3-10.7,3-16,2.1-5.3-.8-10.7-4.2-16-3.7-5.3.6-10.7,5.1-16,5.7-5.3.6-10.7-2.8-16-4.2-5.3-1.4-10.7-.7-16-.3-5.3.3-10.7.3-16,0-5.3-.4-10.7-1.3-21.4-1.7-10.7-.4-26.7-.4-40.1-.4s-24,0-40.1.8c-16,.8-37.4,2.5-61.4,2.5s-50.7-1.7-66.8-1.7-21.4,1.7-26.7-.8c-5.3-2.5-10.7-9.3-21.4-10.2s-26.7,4.2-34.7,6.8l-8,2.5Z"/>
  </g>
  <path class="st9" d="M10,580h785"/>
  <g>
    <line class="st9" x1="74.1" y1="580" x2="74.1" y2="586"/>
    <text class="st6" transform="translate(61.6 596.1)"><tspan x="0" y="0">1980</tspan></text>
  </g>
  <g>
    <line class="st9" x1="154.2" y1="580" x2="154.2" y2="586"/>
    <text class="st6" transform="translate(141.7 596.1)"><tspan x="0" y="0">1985</tspan></text>
  </g>
  <g>
    <line class="st9" x1="234.3" y1="580" x2="234.3" y2="586"/>
    <text class="st6" transform="translate(221.8 596.1)"><tspan x="0" y="0">1990</tspan></text>
  </g>
  <g>
    <line class="st9" x1="314.4" y1="580" x2="314.4" y2="586"/>
    <text class="st6" transform="translate(301.9 596.1)"><tspan x="0" y="0">1995</tspan></text>
  </g>
  <g>
    <line class="st9" x1="394.5" y1="580" x2="394.5" y2="586"/>
    <text class="st6" transform="translate(382 596.1)"><tspan x="0" y="0">2000</tspan></text>
  </g>
  <g>
    <line class="st9" x1="474.6" y1="580" x2="474.6" y2="586"/>
    <text class="st6" transform="translate(462.1 596.1)"><tspan x="0" y="0">2005</tspan></text>
  </g>
  <g>
    <line class="st9" x1="554.7" y1="580" x2="554.7" y2="586"/>
    <text class="st6" transform="translate(542.2 596.1)"><tspan x="0" y="0">2010</tspan></text>
  </g>
  <g>
    <line class="st9" x1="634.8" y1="580" x2="634.8" y2="586"/>
    <text class="st6" transform="translate(622.3 596.1)"><tspan x="0" y="0">2015</tspan></text>
  </g>
  <g>
    <line class="st9" x1="714.9" y1="580" x2="714.9" y2="586"/>
    <text class="st6" transform="translate(702.4 596.1)"><tspan x="0" y="0">2020</tspan></text>
  </g>
  <g>
    <line class="st9" x1="795" y1="580" x2="795" y2="586"/>
    <text class="st6" transform="translate(782.5 596.1)"><tspan x="0" y="0">2025</tspan></text>
  </g>
  <g id="yAxis">
    <path class="st9" d="M10,580V20"/>
    <g>
      <line class="st9" x1="10" y1="580" x2="4" y2="580"/>
      <text class="st6" transform="translate(-16 583.2)"><tspan x="0" y="0">−25</tspan></text>
    </g>
    <g>
      <line class="st9" x1="10" y1="529.1" x2="4" y2="529.1"/>
      <text class="st6" transform="translate(-16 532.3)"><tspan x="0" y="0">−20</tspan></text>
    </g>
    <g>
      <line class="st9" x1="10" y1="478.2" x2="4" y2="478.2"/>
      <text class="st6" transform="translate(-16 481.4)"><tspan x="0" y="0">−15</tspan></text>
    </g>
    <g>
      <line class="st9" x1="10" y1="427.3" x2="4" y2="427.3"/>
      <text class="st6" transform="translate(-16 430.5)"><tspan x="0" y="0">−10</tspan></text>
    </g>
    <g>
      <line class="st9" x1="10" y1="376.4" x2="4" y2="376.4"/>
      <text class="st6" transform="translate(-10.4 379.6)"><tspan x="0" y="0">−5</tspan></text>
    </g>
    <g>
      <line class="st9" x1="10" y1="325.5" x2="4" y2="325.5"/>
      <text class="st6" transform="translate(-4.6 328.7)"><tspan x="0" y="0">0</tspan></text>
    </g>
    <g>
      <line class="st9" x1="10" y1="274.5" x2="4" y2="274.5"/>
      <text class="st6" transform="translate(-4.6 277.7)"><tspan x="0" y="0">5</tspan></text>
    </g>
    <g>
      <line class="st9" x1="10" y1="223.6" x2="4" y2="223.6"/>
      <text class="st6" transform="translate(-10.1 226.8)"><tspan x="0" y="0">10</tspan></text>
    </g>
    <g>
      <line class="st9" x1="10" y1="172.7" x2="4" y2="172.7"/>
      <text class="st6" transform="translate(-10.1 175.9)"><tspan x="0" y="0">15</tspan></text>
    </g>
    <g>
      <line class="st9" x1="10" y1="121.8" x2="4" y2="121.8"/>
      <text class="st6" transform="translate(-10.1 125)"><tspan x="0" y="0">20</tspan></text>
    </g>
    <g>
      <line class="st9" x1="10" y1="70.9" x2="4" y2="70.9"/>
      <text class="st6" transform="translate(-10.1 74.1)"><tspan x="0" y="0">25</tspan></text>
    </g>
    <g>
      <line class="st9" x1="10" y1="20" x2="4" y2="20"/>
      <text class="st6" transform="translate(-10.1 23.2)"><tspan x="0" y="0">30</tspan></text>
    </g>
  </g>
</svg>