<?xml version="1.0" encoding="UTF-8"?>
<svg id="Layer_1" xmlns="http://www.w3.org/2000/svg" version="1.1" viewBox="0 0 805 600">
  <!-- Generator: Adobe Illustrator 29.1.0, SVG Export Plug-In . SVG Version: 2.1.0 Build 142)  -->
  <defs>
    <style>
      .st0 {
        fill: #ff7f0e;
      }

      .st1 {
        fill: #9467bd;
      }

      .st2 {
        font-family: Helvetica, Helvetica;
        font-size: 10px;
        isolation: isolate;
      }

      .st3 {
        fill: #d62728;
      }

      .st4 {
        fill: #bcbd22;
      }

      .st5 {
        fill: #e377c2;
      }

      .st6 {
        fill: #2ca02c;
      }

      .st7 {
        fill: #8c564b;
      }

      .st8 {
        fill: #7f7f7f;
      }

      .st9 {
        fill: none;
        stroke: #000;
      }

      .st10 {
        fill: #1f77b4;
      }
    </style>
  </defs>
  <path class="st3" d="M10,315.3l8,1.1c8,1.1,24,3.4,34.7,5.4s16,3.7,21.4,3.7,10.7-1.7,26.7-2.5,42.7-.8,66.7,0c24,.8,45.4,2.5,61.4,3.4s26.7.8,40,0c13.3-.8,29.4-2.5,40.1-4.2,10.7-1.7,16-3.4,21.4-3.4s10.7,1.7,16,1.7,10.7-1.7,16-.8c5.3.8,10.7,4.2,16,7.1,5.3,2.8,10.7,5.1,16,5.4s10.7-1.4,16,0,10.7,5.9,16,7.6c5.3,1.6,10.7.4,16-2,5.3-2.3,10.7-5.7,16-2s10.7,14.5,16,18.8c5.3,4.3,10.7,1.9,16-3.1,5.3-5,10.7-12.7,16-14.1,5.3-1.4,10.7,3.6,16,6.7,5.3,3.1,10.7,4.3,16,2.1s10.7-7.8,16-10.5c5.3-2.8,10.7-2.8,16-2.2,5.3.5,10.7,1.6,16,7.5s10.7,16.4,16,19.7c5.3,3.2,10.7-.9,16,2.7,5.3,3.7,10.7,15.1,16,13.9,5.3-1.2,10.7-15,16-23.4,5.3-8.4,10.7-11.4,16-5.6s10.7,20.5,16,34.7,10.7,28.1,16,26c5.3-2.1,10.7-20.1,16-30.6,5.3-10.5,10.7-13.6,16-4.4s10.7,30.7,16,38.9c5.3,8.3,10.7,3.3,16-1.9,5.3-5.3,10.7-10.8,16-32.1s10.7-58.4,13.4-76.9l2.7-18.5h0l-2.7,45.7c-2.7,45.7-8,137-13.4,183.8s-10.7,48.9-16,42.3c-5.3-6.6-10.7-22.1-16-21.8-5.3.2-10.7,16.1-16,13.7s-10.7-23.1-16-21.1-10.7,26.8-16,25.5c-5.3-1.3-10.7-28.7-16-49.8-5.3-21-10.7-35.7-16-34.7s-10.7,17.6-16,20.9c-5.3,3.3-10.7-6.6-16-3.7s-10.7,18.6-16,18.3c-5.3-.3-10.7-16.5-16-29.9-5.3-13.4-10.7-24-16-26.4-5.3-2.4-10.7,3.3-16-2.4-5.3-5.6-10.7-22.6-16-30-5.3-7.4-10.7-5.2-16-3-5.3,2.2-10.7,4.4-16,6.4-5.3,2-10.7,3.8-16,.1-5.3-3.7-10.7-13-16-21.6-5.3-8.6-10.7-16.4-16-22.4s-10.7-10-16-13.7-10.7-7.1-16-6.5c-5.3.6-10.7,5.3-16,5.4-5.3,0-10.7-4.5-16-7.6s-10.7-4.8-16-6.8-10.7-4.2-16-3.7c-5.3.6-10.7,4-16,1.4-5.3-2.5-10.7-11-16-12.7s-10.7,3.4-16,5.1-10.7,0-21.4-1.7c-10.7-1.7-26.7-3.4-40.1-4.2-13.3-.8-24-.8-40,0s-37.4,2.5-61.4,3.4c-24,.8-50.7.8-66.7,0-16-.8-21.4-2.5-26.7-2.5s-10.7,1.7-21.4,1.4c-10.7-.3-26.7-2.5-34.7-3.7l-8-1.1v-10.2Z"/>
  <path class="st5" d="M10,315.3l8-2.3c8-2.3,24-6.8,34.7-6.5,10.7.3,16,5.4,21.4,8.8,5.3,3.4,10.7,5.1,26.7,5.9s42.7.8,66.7,0c24-.8,45.4-2.5,61.4-3.4s26.7-.8,40-1.7c13.3-.8,29.4-2.5,40.1-2.5s16,1.7,21.4,1.7,10.7-1.7,16-5.1c5.3-3.4,10.7-8.5,16-5.9,5.3,2.5,10.7,12.7,16,15.6,5.3,2.8,10.7-1.7,16-1.4,5.3.3,10.7,5.4,16,3.4s10.7-11,16-14.5c5.3-3.5,10.7-1.3,16,3.1,5.3,4.5,10.7,11.2,16,9.9s10.7-10.9,16-15.2,10.7-3.2,16-4.8c5.3-1.6,10.7-5.9,16-9,5.3-3.1,10.7-4.9,16-8.6,5.3-3.7,10.7-9.3,16-13.2,5.3-3.9,10.7-6.1,16-8.8,5.3-2.8,10.7-6.2,16-10.7,5.3-4.6,10.7-10.3,16-21.4,5.3-11.1,10.7-27.7,16-36.3s10.7-9.4,16-14.2c5.3-4.8,10.7-13.7,16-18.3,5.3-4.6,10.7-4.8,16,8.8,5.3,13.6,10.7,41.2,16,41.9s10.7-25.4,16-46.8c5.3-21.4,10.7-38.1,16-40.2,5.3-2.1,10.7,10.5,16,16.9,5.3,6.5,10.7,6.8,16-4.4,5.3-11.2,10.7-33.8,16-34,5.3-.2,10.7,22,16,33.7,5.3,11.7,10.7,12.9,16,25.6s10.7,36.7,13.4,48.7l2.7,12h0l-2.7-10.3c-2.7-10.3-8-31-13.4-43.6-5.3-12.6-10.7-17.2-16-17.1-5.3.2-10.7,5.1-16,7-5.3,1.9-10.7.8-16,3.5s-10.7,9.1-16,4.4-10.7-20.7-16-18.6c-5.3,2.1-10.7,22.2-16,40.2-5.3,18-10.7,33.9-16,28.1s-10.7-33.4-16-41.9c-5.3-8.6-10.7,1.9-16,6.5-5.3,4.6-10.7,3.3-16,9.8-5.3,6.5-10.7,20.9-16,34.6s-10.7,26.9-16,31.3-10.7-.1-16,2.7c-5.3,2.9-10.7,13-16,15.8-5.3,2.8-10.7-1.8-16-1.3s-10.7,6.1-16,11.5c-5.3,5.4-10.7,10.6-16,13.7-5.3,3.1-10.7,4-16,5.6-5.3,1.6-10.7,3.9-16,8.2s-10.7,10.4-16,10.1c-5.3-.3-10.7-7.1-16-11.6-5.3-4.5-10.7-6.6-16-3.1-5.3,3.5-10.7,12.5-16,16.2-5.3,3.7-10.7,2-16,1.7s-10.7.8-16-3.7c-5.3-4.5-10.7-14.7-16-15.6-5.3-.8-10.7,7.6-16,11s-10.7,1.7-16,1.7-10.7,1.7-21.4,1.7-26.7-1.7-40.1-2.5c-13.3-.8-24-.8-40,0s-37.4,2.5-61.4,3.4c-24,.8-50.7.8-66.7,0s-21.4-2.5-26.7-2.5-10.7,1.7-21.4,1.4-26.7-2.5-34.7-3.7l-8-1.1Z"/>
  <path class="st0" d="M10,315.3l8,1.1c8,1.1,24,3.4,34.7,3.7s16-1.4,21.4-1.4,10.7,1.7,26.7,2.5,42.7.8,66.7,0c24-.8,45.4-2.5,61.4-3.4s26.7-.8,40,0c13.3.8,29.4,2.5,40.1,2.5s16-1.7,21.4-1.7,10.7,1.7,16,0c5.3-1.7,10.7-6.8,16-5.9,5.3.8,10.7,7.6,16,12.2,5.3,4.5,10.7,6.8,16,7.1s10.7-1.4,16-5.1,10.7-9.3,16-11.1c5.3-1.8,10.7.4,16,3.1,5.3,2.8,10.7,6.2,16,4.8s10.7-7.5,16-11.8,10.7-6.5,16-6.5c5.3,0,10.7,2.6,16-.5,5.3-3.1,10.7-11.7,16-15.4,5.3-3.7,10.7-2.5,16,2.1,5.3,4.6,10.7,12.6,16,11.5s10.7-11.3,16-15.8c5.3-4.6,10.7-3.5,16-7.8s10.7-14.1,16-21.1c5.3-7,10.7-11.1,16-14.2,5.3-3.1,10.7-5.3,16,.3,5.3,5.6,10.7,18.9,16,25.8,5.3,6.9,10.7,7.2,16,2.9s10.7-13.5,16-24.7,10.7-24.5,16-19.8c5.3,4.7,10.7,27.5,16,30.5,5.3,3.1,10.7-13.6,16-23,5.3-9.5,10.7-11.8,16-13.7,5.3-1.9,10.7-3.5,16-1.9,5.3,1.5,10.7,6.1,16,12,5.3,5.8,10.7,12.9,13.4,16.4l2.7,3.5v30.5l-2.7,18.5c-2.7,18.5-8,55.6-13.4,76.9s-10.7,26.9-16,32.1c-5.3,5.3-10.7,10.2-16,1.9-5.3-8.3-10.7-29.7-16-38.9s-10.7-6.2-16,4.4c-5.3,10.5-10.7,28.5-16,30.6-5.3,2.1-10.7-11.8-16-26s-10.7-28.9-16-34.7-10.7-2.8-16,5.6c-5.3,8.4-10.7,22.2-16,23.4-5.3,1.2-10.7-10.3-16-13.9-5.3-3.7-10.7.5-16-2.7-5.3-3.2-10.7-13.8-16-19.7s-10.7-6.9-16-7.5c-5.3-.5-10.7-.5-16,2.2-5.3,2.8-10.7,8.4-16,10.5s-10.7,1-16-2.1c-5.3-3.1-10.7-8-16-6.7-5.3,1.4-10.7,9.1-16,14.1-5.3,5-10.7,7.3-16,3.1-5.3-4.3-10.7-15.1-16-18.8s-10.7-.3-16,2c-5.3,2.3-10.7,3.6-16,2-5.3-1.6-10.7-6.2-16-7.6s-10.7.3-16,0-10.7-2.5-16-5.4c-5.3-2.8-10.7-6.2-16-7.1-5.3-.8-10.7.8-16,.8s-10.7-1.7-16-1.7-10.7,1.7-21.4,3.4c-10.7,1.7-26.7,3.4-40.1,4.2-13.3.8-24,.8-40,0s-37.4-2.5-61.4-3.4c-24-.8-50.7-.8-66.7,0s-21.4,2.5-26.7,2.5-10.7-1.7-21.4-3.7-26.7-4.2-34.7-5.4l-8-1.1Z"/>
  <path class="st10" d="M10,315.3l8,1.1c8,1.1,24,3.4,34.7,3.7s16-1.4,21.4-1.4,10.7,1.7,26.7,2.5,42.7.8,66.7,0c24-.8,45.4-2.5,61.4-3.4s26.7-.8,40,0c13.3.8,29.4,2.5,40.1,2.5s16-1.7,21.4-1.7,10.7,1.7,16-1.7,10.7-11.9,16-11c5.3.8,10.7,11,16,17.3,5.3,6.2,10.7,8.5,16,8.8s10.7-1.4,16-6.8c5.3-5.4,10.7-14.4,16-17.9,5.3-3.5,10.7-1.3,16,3.1,5.3,4.5,10.7,11.2,16,11.6,5.3.3,10.7-5.8,16-10.1s10.7-6.5,16-8.2c5.3-1.6,10.7-2.5,16-5.6,5.3-3.1,10.7-8.3,16-13.7,5.3-5.4,10.7-11,16-9.8,5.3,1.2,10.7,9.2,16,6.4,5.3-2.8,10.7-16.4,16-19.2,5.3-2.9,10.7,5,16,4.1,5.3-1,10.7-10.7,16-17.7,5.3-7,10.7-11.1,16-19.3,5.3-8.2,10.7-20.5,16-26.8s10.7-6.5,16,5.4c5.3,11.9,10.7,36.1,16,41.9s10.7-6.7,16-21.3,10.7-31.3,16-35.1c5.3-3.8,10.7,5.4,16,8.4,5.3,3.1,10.7,0,16-2.7s10.7-5,16-12c5.3-7,10.7-18.7,16-17.2s10.7,16.3,16,30.6,10.7,28.2,13.4,35.1l2.7,6.9v10.2l-2.7-3.5c-2.7-3.5-8-10.6-13.4-16.4-5.3-5.8-10.7-10.4-16-12-5.3-1.5-10.7,0-16,1.9-5.3,1.9-10.7,4.2-16,13.7-5.3,9.5-10.7,26.1-16,23-5.3-3.1-10.7-25.8-16-30.5-5.3-4.7-10.7,8.6-16,19.8s-10.7,20.3-16,24.7-10.7,4-16-2.9c-5.3-6.9-10.7-20.2-16-25.8-5.3-5.6-10.7-3.5-16-.3-5.3,3.1-10.7,7.3-16,14.2-5.3,7-10.7,16.7-16,21.1s-10.7,3.3-16,7.8c-5.3,4.6-10.7,14.7-16,15.8s-10.7-6.9-16-11.5c-5.3-4.6-10.7-5.8-16-2.1-5.3,3.7-10.7,12.3-16,15.4-5.3,3.1-10.7.6-16,.5-5.3,0-10.7,2.2-16,6.5s-10.7,10.4-16,11.8-10.7-2-16-4.8c-5.3-2.8-10.7-4.9-16-3.1-5.3,1.8-10.7,7.4-16,11.1s-10.7,5.4-16,5.1-10.7-2.5-16-7.1c-5.3-4.5-10.7-11.3-16-12.2-5.3-.8-10.7,4.2-16,5.9-5.3,1.7-10.7,0-16,0s-10.7,1.7-21.4,1.7-26.7-1.7-40.1-2.5c-13.3-.8-24-.8-40,0s-37.4,2.5-61.4,3.4c-24,.8-50.7.8-66.7,0s-21.4-2.5-26.7-2.5-10.7,1.7-21.4,1.4-26.7-2.5-34.7-3.7l-8-1.1Z"/>
  <path class="st6" d="M10,315.3l8,1.1c8,1.1,24,3.4,34.7,3.7s16-1.4,21.4-1.4,10.7,1.7,26.7,2.5,42.7.8,66.7,0c24-.8,45.4-2.5,61.4-3.4s26.7-.8,40,0c13.3.8,29.4,2.5,40.1,2.5s16-1.7,21.4-1.7,10.7,1.7,16-1.7,10.7-11.9,16-11c5.3.8,10.7,11,16,15.6,5.3,4.5,10.7,3.4,16,3.7s10.7,2,16-1.7c5.3-3.7,10.7-12.7,16-16.2,5.3-3.5,10.7-1.3,16,3.1,5.3,4.5,10.7,11.2,16,11.6,5.3.3,10.7-5.8,16-10.1s10.7-6.5,16-8.2c5.3-1.6,10.7-2.5,16-5.6,5.3-3.1,10.7-8.3,16-13.7,5.3-5.4,10.7-11,16-11.5s10.7,4.1,16,1.3c5.3-2.8,10.7-13,16-15.8,5.3-2.9,10.7,1.6,16-2.7s10.7-17.5,16-31.3,10.7-28.1,16-34.6c5.3-6.5,10.7-5.3,16-9.8,5.3-4.6,10.7-15,16-6.5,5.3,8.6,10.7,36.1,16,41.9s10.7-10.1,16-28.1c5.3-18,10.7-38.1,16-40.2,5.3-2.1,10.7,13.9,16,18.6s10.7-1.7,16-4.4,10.7-1.6,16-3.5c5.3-1.9,10.7-6.8,16-7,5.3-.2,10.7,4.4,16,17.1,5.3,12.6,10.7,33.3,13.4,43.6l2.7,10.3v20.4l-2.7-6.9c-2.7-6.9-8-20.8-13.4-35.1s-10.7-29.1-16-30.6-10.7,10.2-16,17.2c-5.3,7-10.7,9.3-16,12s-10.7,5.7-16,2.7c-5.3-3.1-10.7-12.2-16-8.4-5.3,3.8-10.7,20.5-16,35.1s-10.7,27.1-16,21.3-10.7-30-16-41.9c-5.3-11.9-10.7-11.7-16-5.4s-10.7,18.6-16,26.8c-5.3,8.2-10.7,12.4-16,19.3-5.3,7-10.7,16.7-16,17.7-5.3,1-10.7-6.9-16-4.1-5.3,2.9-10.7,16.4-16,19.2-5.3,2.8-10.7-5.2-16-6.4-5.3-1.2-10.7,4.4-16,9.8-5.3,5.4-10.7,10.6-16,13.7-5.3,3.1-10.7,4-16,5.6-5.3,1.6-10.7,3.9-16,8.2s-10.7,10.4-16,10.1c-5.3-.3-10.7-7.1-16-11.6-5.3-4.5-10.7-6.6-16-3.1-5.3,3.5-10.7,12.5-16,17.9-5.3,5.4-10.7,7.1-16,6.8s-10.7-2.5-16-8.8c-5.3-6.2-10.7-16.4-16-17.3-5.3-.8-10.7,7.6-16,11s-10.7,1.7-16,1.7-10.7,1.7-21.4,1.7-26.7-1.7-40.1-2.5c-13.3-.8-24-.8-40,0s-37.4,2.5-61.4,3.4c-24,.8-50.7.8-66.7,0s-21.4-2.5-26.7-2.5-10.7,1.7-21.4,1.4-26.7-2.5-34.7-3.7l-8-1.1Z"/>
  <path class="st1" d="M10,315.3l8-2.3c8-2.3,24-6.8,34.7-6.5,10.7.3,16,5.4,21.4,8.8,5.3,3.4,10.7,5.1,26.7,5.9s42.7.8,66.7,0c24-.8,45.4-2.5,61.4-3.4s26.7-.8,40-1.7c13.3-.8,29.4-2.5,40.1-2.5s16,1.7,21.4,1.7,10.7-1.7,16-5.1c5.3-3.4,10.7-8.5,16-5.9,5.3,2.5,10.7,12.7,16,15.6,5.3,2.8,10.7-1.7,16-1.4,5.3.3,10.7,5.4,16,3.4s10.7-11,16-14.5c5.3-3.5,10.7-1.3,16,3.1,5.3,4.5,10.7,11.2,16,8.2s10.7-16,16-21.9,10.7-4.8,16-4.8c5.3,0,10.7-.8,16-2.2,5.3-1.4,10.7-3.2,16-6.9,5.3-3.7,10.7-9.3,16-13.2,5.3-3.9,10.7-6.1,16-15.6s10.7-26.5,16-31.1c5.3-4.6,10.7,3.3,16-2.7,5.3-6,10.7-26,16-36.3,5.3-10.4,10.7-11.1,16-14.2,5.3-3.1,10.7-8.6,16-11.5,5.3-2.9,10.7-3.1,16,10.5,5.3,13.6,10.7,41.2,16,40.2,5.3-1,10.7-30.4,16-55.2,5.3-24.8,10.7-44.9,16-48.7,5.3-3.8,10.7,8.8,16,15.2,5.3,6.5,10.7,6.8,16-4.4s10.7-33.8,16-30.6c5.3,3.2,10.7,32.2,16,45.6s10.7,11.2,16,23.9c5.3,12.6,10.7,40.1,13.4,53.8l2.7,13.7h0l-2.7-12c-2.7-12-8-36.1-13.4-48.7s-10.7-13.8-16-25.6c-5.3-11.7-10.7-33.9-16-33.7-5.3.2-10.7,22.9-16,34-5.3,11.2-10.7,10.8-16,4.4-5.3-6.5-10.7-19-16-16.9-5.3,2.1-10.7,18.8-16,40.2-5.3,21.4-10.7,47.5-16,46.8s-10.7-28.3-16-41.9c-5.3-13.6-10.7-13.4-16-8.8-5.3,4.6-10.7,13.5-16,18.3-5.3,4.8-10.7,5.6-16,14.2s-10.7,25.2-16,36.3c-5.3,11.1-10.7,16.8-16,21.4-5.3,4.6-10.7,7.9-16,10.7-5.3,2.8-10.7,5-16,8.8-5.3,3.9-10.7,9.5-16,13.2-5.3,3.7-10.7,5.5-16,8.6-5.3,3.1-10.7,7.4-16,9-5.3,1.6-10.7.5-16,4.8s-10.7,13.8-16,15.2-10.7-5.4-16-9.9c-5.3-4.5-10.7-6.6-16-3.1-5.3,3.5-10.7,12.5-16,14.5s-10.7-3.1-16-3.4c-5.3-.3-10.7,4.2-16,1.4-5.3-2.8-10.7-13-16-15.6-5.3-2.5-10.7,2.5-16,5.9-5.3,3.4-10.7,5.1-16,5.1s-10.7-1.7-21.4-1.7-26.7,1.7-40.1,2.5c-13.3.8-24,.8-40,1.7s-37.4,2.5-61.4,3.4c-24,.8-50.7.8-66.7,0s-21.4-2.5-26.7-5.9c-5.3-3.4-10.7-8.5-21.4-8.8-10.7-.3-26.7,4.2-34.7,6.5l-8,2.3Z"/>
  <path class="st7" d="M10,315.3l8-2.3c8-2.3,24-6.8,34.7-6.5,10.7.3,16,5.4,21.4,8.8,5.3,3.4,10.7,5.1,26.7,5.9s42.7.8,66.7,0c24-.8,45.4-2.5,61.4-3.4s26.7-.8,40-1.7c13.3-.8,29.4-2.5,40.1-2.5s16,1.7,21.4,1.7,10.7-1.7,16-5.1c5.3-3.4,10.7-8.5,16-5.9,5.3,2.5,10.7,12.7,16,15.6,5.3,2.8,10.7-1.7,16-1.4,5.3.3,10.7,5.4,16,3.4s10.7-11,16-14.5c5.3-3.5,10.7-1.3,16,3.1,5.3,4.5,10.7,11.2,16,8.2s10.7-16,16-23.6,10.7-9.9,16-9.9c5.3,0,10.7,2.6,16,2.9,5.3.3,10.7-1.5,16-5.2,5.3-3.7,10.7-9.3,16-13.2,5.3-3.9,10.7-6.1,16-15.6s10.7-26.5,16-31.1c5.3-4.6,10.7,3.3,16-2.7,5.3-6,10.7-26,16-36.3,5.3-10.4,10.7-11.1,16-14.2,5.3-3.1,10.7-8.6,16-11.5,5.3-2.9,10.7-3.1,16,8.8,5.3,11.9,10.7,36.1,16,35.1s10.7-27.1,16-53.5c5.3-26.5,10.7-53.4,16-60.5,5.3-7.2,10.7,5.4,16,13.5,5.3,8.1,10.7,11.9,16,.7,5.3-11.2,10.7-37.2,16-34,5.3,3.2,10.7,35.6,16,52.4,5.3,16.8,10.7,18,16,32.3s10.7,41.8,13.4,55.5l2.7,13.7h0l-2.7-13.7c-2.7-13.7-8-41.2-13.4-53.8-5.3-12.6-10.7-10.4-16-23.9s-10.7-42.4-16-45.6c-5.3-3.2-10.7,19.5-16,30.6s-10.7,10.8-16,4.4c-5.3-6.5-10.7-19-16-15.2-5.3,3.8-10.7,23.9-16,48.7-5.3,24.8-10.7,54.3-16,55.2-5.3,1-10.7-26.6-16-40.2-5.3-13.6-10.7-13.4-16-10.5-5.3,2.9-10.7,8.4-16,11.5-5.3,3.1-10.7,3.9-16,14.2-5.3,10.4-10.7,30.3-16,36.3-5.3,6-10.7-1.8-16,2.7-5.3,4.6-10.7,21.5-16,31.1s-10.7,11.8-16,15.6c-5.3,3.9-10.7,9.5-16,13.2-5.3,3.7-10.7,5.5-16,6.9-5.3,1.4-10.7,2.3-16,2.2-5.3,0-10.7-1.2-16,4.8s-10.7,18.9-16,21.9-10.7-3.7-16-8.2c-5.3-4.5-10.7-6.6-16-3.1-5.3,3.5-10.7,12.5-16,14.5s-10.7-3.1-16-3.4c-5.3-.3-10.7,4.2-16,1.4-5.3-2.8-10.7-13-16-15.6-5.3-2.5-10.7,2.5-16,5.9-5.3,3.4-10.7,5.1-16,5.1s-10.7-1.7-21.4-1.7-26.7,1.7-40.1,2.5c-13.3.8-24,.8-40,1.7s-37.4,2.5-61.4,3.4c-24,.8-50.7.8-66.7,0s-21.4-2.5-26.7-5.9c-5.3-3.4-10.7-8.5-21.4-8.8-10.7-.3-26.7,4.2-34.7,6.5l-8,2.3Z"/>
  <path class="st8" d="M10,315.3l8-2.3c8-2.3,24-6.8,34.7-6.5,10.7.3,16,5.4,21.4,8.8,5.3,3.4,10.7,5.1,26.7,5.9s42.7.8,66.7,0c24-.8,45.4-2.5,61.4-3.4s26.7-.8,40-1.7c13.3-.8,29.4-2.5,40.1-2.5s16,1.7,21.4,1.7,10.7-1.7,16-5.1c5.3-3.4,10.7-8.5,16-5.9,5.3,2.5,10.7,12.7,16,15.6,5.3,2.8,10.7-1.7,16-1.4,5.3.3,10.7,5.4,16,3.4s10.7-11,16-14.5c5.3-3.5,10.7-1.3,16,3.1,5.3,4.5,10.7,11.2,16,8.2s10.7-16,16-23.6,10.7-9.9,16-9.9c5.3,0,10.7,2.6,16,2.9,5.3.3,10.7-1.5,16-5.2,5.3-3.7,10.7-9.3,16-13.2,5.3-3.9,10.7-6.1,16-15.6s10.7-26.5,16-32.8c5.3-6.2,10.7-1.8,16-7.8s10.7-22.6,16-31.3,10.7-9.4,16-14.2c5.3-4.8,10.7-13.7,16-16.6s10.7.3,16,13.9c5.3,13.6,10.7,37.8,16,35.1s10.7-32.1,16-62c5.3-29.9,10.7-60.2,16-67.3,5.3-7.2,10.7,8.8,16,20.3,5.3,11.5,10.7,18.7,16,7.5s10.7-40.6,16-37.4c5.3,3.2,10.7,39,16,55.8s10.7,14.6,16,28.9c5.3,14.3,10.7,45.2,13.4,60.6l2.7,15.4h0l-2.7-13.7c-2.7-13.7-8-41.2-13.4-55.5s-10.7-15.5-16-32.3c-5.3-16.8-10.7-49.2-16-52.4-5.3-3.2-10.7,22.9-16,34-5.3,11.2-10.7,7.4-16-.7-5.3-8.1-10.7-20.7-16-13.5-5.3,7.2-10.7,34.1-16,60.5-5.3,26.5-10.7,52.6-16,53.5s-10.7-23.2-16-35.1c-5.3-11.9-10.7-11.7-16-8.8-5.3,2.9-10.7,8.4-16,11.5-5.3,3.1-10.7,3.9-16,14.2-5.3,10.4-10.7,30.3-16,36.3-5.3,6-10.7-1.8-16,2.7-5.3,4.6-10.7,21.5-16,31.1s-10.7,11.8-16,15.6c-5.3,3.9-10.7,9.5-16,13.2-5.3,3.7-10.7,5.5-16,5.2-5.3-.3-10.7-2.8-16-2.9-5.3,0-10.7,2.2-16,9.9s-10.7,20.6-16,23.6-10.7-3.7-16-8.2c-5.3-4.5-10.7-6.6-16-3.1-5.3,3.5-10.7,12.5-16,14.5s-10.7-3.1-16-3.4c-5.3-.3-10.7,4.2-16,1.4-5.3-2.8-10.7-13-16-15.6-5.3-2.5-10.7,2.5-16,5.9-5.3,3.4-10.7,5.1-16,5.1s-10.7-1.7-21.4-1.7-26.7,1.7-40.1,2.5c-13.3.8-24,.8-40,1.7s-37.4,2.5-61.4,3.4c-24,.8-50.7.8-66.7,0s-21.4-2.5-26.7-5.9c-5.3-3.4-10.7-8.5-21.4-8.8-10.7-.3-26.7,4.2-34.7,6.5l-8,2.3Z"/>
  <path class="st4" d="M10,315.3l8-2.3c8-2.3,24-6.8,34.7-6.5,10.7.3,16,5.4,21.4,8.8,5.3,3.4,10.7,5.1,26.7,5.9s42.7.8,66.7,0c24-.8,45.4-2.5,61.4-3.4s26.7-.8,40-1.7c13.3-.8,29.4-2.5,40.1-2.5s16,1.7,21.4,1.7,10.7-1.7,16-5.1c5.3-3.4,10.7-8.5,16-5.9,5.3,2.5,10.7,12.7,16,15.6,5.3,2.8,10.7-1.7,16-1.4,5.3.3,10.7,5.4,16,3.4s10.7-11,16-14.5c5.3-3.5,10.7-1.3,16,3.1,5.3,4.5,10.7,11.2,16,8.2s10.7-16,16-23.6,10.7-9.9,16-9.9c5.3,0,10.7,2.6,16,2.9,5.3.3,10.7-1.5,16-5.2,5.3-3.7,10.7-9.3,16-13.2,5.3-3.9,10.7-6.1,16-15.6s10.7-26.5,16-34.5c5.3-7.9,10.7-6.9,16-12.9,5.3-6,10.7-19.2,16-26.2,5.3-7,10.7-7.7,16-12.5,5.3-4.8,10.7-13.7,16-16.6s10.7.3,16,13.9c5.3,13.6,10.7,37.8,16,35.1s10.7-32.1,16-62c5.3-29.9,10.7-60.2,16-67.3,5.3-7.2,10.7,8.8,16,20.3,5.3,11.5,10.7,18.7,16,7.5s10.7-40.6,16-37.4c5.3,3.2,10.7,39,16,55.8s10.7,14.6,16,28.9c5.3,14.3,10.7,45.2,13.4,60.6l2.7,15.4h0l-2.7-15.4c-2.7-15.4-8-46.2-13.4-60.6-5.3-14.3-10.7-12.1-16-28.9s-10.7-52.6-16-55.8c-5.3-3.2-10.7,26.3-16,37.4s-10.7,4-16-7.5c-5.3-11.5-10.7-27.5-16-20.3-5.3,7.2-10.7,37.5-16,67.3-5.3,29.9-10.7,59.4-16,62s-10.7-21.5-16-35.1c-5.3-13.6-10.7-16.8-16-13.9s-10.7,11.8-16,16.6c-5.3,4.8-10.7,5.6-16,14.2s-10.7,25.2-16,31.3-10.7,1.6-16,7.8c-5.3,6.2-10.7,23.2-16,32.8s-10.7,11.8-16,15.6c-5.3,3.9-10.7,9.5-16,13.2-5.3,3.7-10.7,5.5-16,5.2-5.3-.3-10.7-2.8-16-2.9-5.3,0-10.7,2.2-16,9.9s-10.7,20.6-16,23.6-10.7-3.7-16-8.2c-5.3-4.5-10.7-6.6-16-3.1-5.3,3.5-10.7,12.5-16,14.5s-10.7-3.1-16-3.4c-5.3-.3-10.7,4.2-16,1.4-5.3-2.8-10.7-13-16-15.6-5.3-2.5-10.7,2.5-16,5.9-5.3,3.4-10.7,5.1-16,5.1s-10.7-1.7-21.4-1.7-26.7,1.7-40.1,2.5c-13.3.8-24,.8-40,1.7s-37.4,2.5-61.4,3.4c-24,.8-50.7.8-66.7,0s-21.4-2.5-26.7-5.9c-5.3-3.4-10.7-8.5-21.4-8.8-10.7-.3-26.7,4.2-34.7,6.5l-8,2.3Z"/>
  <g id="xAxis">
    <path class="st9" d="M10,580h785"/>
    <g>
      <line class="st9" x1="74.1" y1="580" x2="74.1" y2="586"/>
      <text class="st2" transform="translate(63 596.1)"><tspan x="0" y="0">1980</tspan></text>
    </g>
    <g>
      <line class="st9" x1="154.2" y1="580" x2="154.2" y2="586"/>
      <text class="st2" transform="translate(143.1 596.1)"><tspan x="0" y="0">1985</tspan></text>
    </g>
    <g>
      <line class="st9" x1="234.3" y1="580" x2="234.3" y2="586"/>
      <text class="st2" transform="translate(223.2 596.1)"><tspan x="0" y="0">1990</tspan></text>
    </g>
    <g>
      <line class="st9" x1="314.4" y1="580" x2="314.4" y2="586"/>
      <text class="st2" transform="translate(303.3 596.1)"><tspan x="0" y="0">1995</tspan></text>
    </g>
    <g>
      <line class="st9" x1="394.5" y1="580" x2="394.5" y2="586"/>
      <text class="st2" transform="translate(383.4 596.1)"><tspan x="0" y="0">2000</tspan></text>
    </g>
    <g>
      <line class="st9" x1="474.6" y1="580" x2="474.6" y2="586"/>
      <text class="st2" transform="translate(463.5 596.1)"><tspan x="0" y="0">2005</tspan></text>
    </g>
    <g>
      <line class="st9" x1="554.7" y1="580" x2="554.7" y2="586"/>
      <text class="st2" transform="translate(543.6 596.1)"><tspan x="0" y="0">2010</tspan></text>
    </g>
    <g>
      <line class="st9" x1="634.8" y1="580" x2="634.8" y2="586"/>
      <text class="st2" transform="translate(623.7 596.1)"><tspan x="0" y="0">2015</tspan></text>
    </g>
    <g>
      <line class="st9" x1="714.9" y1="580" x2="714.9" y2="586"/>
      <text class="st2" transform="translate(703.7 596.1)"><tspan x="0" y="0">2020</tspan></text>
    </g>
    <g>
      <line class="st9" x1="795" y1="580" x2="795" y2="586"/>
      <text class="st2" transform="translate(783.9 596.1)"><tspan x="0" y="0">2025</tspan></text>
    </g>
  </g>
  <g id="yAxis">
    <path class="st9" d="M10,580V20"/>
    <g>
      <line class="st9" x1="10" y1="580" x2="4" y2="580"/>
      <text class="st2" transform="translate(-16 583.2)"><tspan x="0" y="0">−25</tspan></text>
    </g>
    <g>
      <line class="st9" x1="10" y1="529.1" x2="4" y2="529.1"/>
      <text class="st2" transform="translate(-16 532.3)"><tspan x="0" y="0">−20</tspan></text>
    </g>
    <g>
      <line class="st9" x1="10" y1="478.2" x2="4" y2="478.2"/>
      <text class="st2" transform="translate(-16 481.4)"><tspan x="0" y="0">−15</tspan></text>
    </g>
    <g>
      <line class="st9" x1="10" y1="427.3" x2="4" y2="427.3"/>
      <text class="st2" transform="translate(-16 430.5)"><tspan x="0" y="0">−10</tspan></text>
    </g>
    <g>
      <line class="st9" x1="10" y1="376.4" x2="4" y2="376.4"/>
      <text class="st2" transform="translate(-10.4 379.6)"><tspan x="0" y="0">−5</tspan></text>
    </g>
    <g>
      <line class="st9" x1="10" y1="325.5" x2="4" y2="325.5"/>
      <text class="st2" transform="translate(-4.6 328.7)"><tspan x="0" y="0">0</tspan></text>
    </g>
    <g>
      <line class="st9" x1="10" y1="274.5" x2="4" y2="274.5"/>
      <text class="st2" transform="translate(-4.6 277.7)"><tspan x="0" y="0">5</tspan></text>
    </g>
    <g>
      <line class="st9" x1="10" y1="223.6" x2="4" y2="223.6"/>
      <text class="st2" transform="translate(-10.1 226.8)"><tspan x="0" y="0">10</tspan></text>
    </g>
    <g>
      <line class="st9" x1="10" y1="172.7" x2="4" y2="172.7"/>
      <text class="st2" transform="translate(-10.1 175.9)"><tspan x="0" y="0">15</tspan></text>
    </g>
    <g>
      <line class="st9" x1="10" y1="121.8" x2="4" y2="121.8"/>
      <text class="st2" transform="translate(-10.1 125)"><tspan x="0" y="0">20</tspan></text>
    </g>
    <g>
      <line class="st9" x1="10" y1="70.9" x2="4" y2="70.9"/>
      <text class="st2" transform="translate(-10.1 74.1)"><tspan x="0" y="0">25</tspan></text>
    </g>
    <g>
      <line class="st9" x1="10" y1="20" x2="4" y2="20"/>
      <text class="st2" transform="translate(-10.1 23.2)"><tspan x="0" y="0">30</tspan></text>
    </g>
  </g>
</svg>