<svg xmlns="http://www.w3.org/2000/svg" width="805" height="600"><rect width="805" height="600" x="0" y="0" fill="#FFFFFF" id="background"/><g transform="translate(402.5,300)" id="chord_diagram"><g><g><path fill="#b5dba5" d="M1.5308084989341916e-14,-250A250,250,0,0,1,107.5845005967245,225.6669564454517L94.67436052511755,198.5869216719975A220,220,0,0,0,1.3471114790620885e-14,-220Z"/></g><g><path fill="#f7a7a1" d="M-170.64044595066656,182.7069736100887A250,250,0,0,1,-234.8252365681451,85.77358725572041L-206.6462081799677,75.48075678503396A220,220,0,0,0,-150.16359243658655,160.78213677687805Z"/></g><g><path fill="#f4e1a1" d="M-95.01899254826314,-231.23881822720233A250,250,0,0,1,-11.359723669941138,-249.74178000114955L-9.9965568295482,-219.7727664010116A220,220,0,0,0,-83.61671344247156,-203.49016003993805Z"/></g><g><path fill="#005f56" d="M-238.48014727649658,75.01479424073965A250,250,0,0,1,-246.99871419671442,-38.621693193978444L-217.35886849310867,-33.98709001070103A220,220,0,0,0,-209.862529603317,66.0130189318509Z"/></g><g><path fill="#339999" d="M-244.98866711653534,-49.80515018011134A250,250,0,0,1,-199.01841420281636,-151.29993657697358L-175.13620449847838,-133.14394418773674A220,220,0,0,0,-215.5900270625511,-43.82853215849798Z"/></g><g><path fill="#f4a988" d="M97.21932165161529,230.32239035230546A250,250,0,0,1,-45.14253827689984,245.89052693814503L-39.72543368367186,216.38366370556764A220,220,0,0,0,85.55300305342145,202.6837035100288Z"/></g><g><path fill="#c04e3f" d="M-56.26890520846578,243.58532448947062A250,250,0,0,1,-162.1621919165106,190.27197248368657L-142.70272888652931,167.43933578564418A220,220,0,0,0,-49.51663658344989,214.35508555073415Z"/></g><g><path fill="#cb7729" d="M-191.9379501808937,-160.186838661473A250,250,0,0,1,-105.42808563897563,-226.68241828271735L-92.77671536229855,-199.48052808879126A220,220,0,0,0,-168.90539615918644,-140.96441802209623Z"/></g></g><g fill-opacity="0.8"><path fill="#339999" d="M-205.6465675752069,-75.30265097947Q0,0,-103.7682166626585,176.79693778640953L-108.83008089010526,185.42117865403927L-103.7682166626585,176.79693778640953Q0,0,-205.6465675752069,-75.30265097947Z"/><path fill="#339999" d="M-206.14082279699355,-73.93890164574059Q0,0,-27.468960277264244,-203.15131360955084L-28.80890955908201,-213.0611337856265L-27.468960277264244,-203.15131360955084Q0,0,-206.14082279699355,-73.93890164574059Z"/><path fill="#339999" d="M-205.85949724188123,-74.71858801743974Q0,0,-127.14928897521122,-160.8044101170681L-133.35169331546544,-168.64852768375434L-127.14928897521122,-160.8044101170681Q0,0,-205.85949724188123,-74.71858801743974Z"/><path fill="#f4e1a1" d="M-30.288843131995563,-216.8953341631059A219,219,0,0,1,-30.248577562709777,-216.9009533299306Q0,0,-26.62256546651838,-203.26396386959726L-27.901439481887397,-213.18186994873315L-26.584830525542902,-203.26890265342647Q0,0,-30.288843131995563,-216.8953341631059Z"/><path fill="#005f56" d="M-218.98663870018828,2.4191053704206436A219,219,0,0,1,-218.98923652037084,2.171241171561985Q0,0,-25.660609513462518,-203.3876424943207L-26.791624066028522,-213.32418728288783L-25.430386337766517,-203.41655648130498Q0,0,-218.98663870018828,2.4191053704206436Z"/><path fill="#339999" d="M-206.5295854326314,-72.84593565206922A219,219,0,0,1,-206.44700159430505,-73.07965197454763Q0,0,-176.71947876469702,103.90007615557265L-185.4015800518471,108.86346547064598L-176.83696611133658,103.69998754357688Q0,0,-206.5295854326314,-72.84593565206922Z"/><path fill="#cb7729" d="M-137.22574283014,-170.67540978335538A219,219,0,0,1,-136.54699269793903,-171.21892064006533Q0,0,-24.50550610028997,-203.53004734134134L-25.277075900780428,-213.50894462271643L-23.697194813716663,-203.62574237546872Q0,0,-137.22574283014,-170.67540978335538Z"/><path fill="#f4e1a1" d="M-32.544698159454775,-216.56833245354682A219,219,0,0,1,-31.27441471889451,-216.75541742708668Q0,0,-204.99704526931777,1.1006501938741668L-214.99936126174023,0.5240773260845978L-204.99997499558737,-0.10125121509533593Q0,0,-32.544698159454775,-216.56833245354682Z"/><path fill="#f7a7a1" d="M-187.5156679022075,113.13210990337372A219,219,0,0,1,-188.28165167642098,111.8526693557149Q0,0,-22.771381639381186,-203.73135295833495L-23.15458691333406,-213.7495382565138L-21.383621218957508,-203.88168319779035Q0,0,-187.5156679022075,113.13210990337372Z"/><path fill="#339999" d="M-207.3433930127985,-70.49622240900702A219,219,0,0,1,-206.85856861532312,-71.9064155025103Q0,0,-204.99739699968586,-1.0330650285387442L-214.99233525979952,-1.815428196861574L-204.98561040394264,-2.4288942593365155Q0,0,-207.3433930127985,-70.49622240900702Z"/><path fill="#f4a988" d="M37.877798280070394,215.699495589244A219,219,0,0,1,36.40819506164137,215.9524098785505Q0,0,-126.47841088899217,-161.33261164127748L-132.0712567688893,-169.65312592312029L-125.37694468102912,-162.19007905063174Q0,0,37.877798280070394,215.699495589244Z"/><path fill="#c04e3f" d="M-108.77545860824796,190.07603637640736A219,219,0,0,1,-110.24628802776361,189.2267316636299Q0,0,-20.456668581766436,-203.97677492924475L-20.62485160807323,-214.00844725417957L-18.874148085344988,-204.12928877075055Q0,0,-108.77545860824796,190.07603637640736Z"/><path fill="#cb7729" d="M-139.31476125897575,-168.97454629427057A219,219,0,0,1,-138.00011985699194,-170.04989538207855Q0,0,-204.97245239721292,-3.360618733548563L-214.9558252859073,-4.358116067120296L-204.94022559453066,-4.9501447719113045Q0,0,-139.31476125897575,-168.97454629427057Z"/><path fill="#f7a7a1" d="M-186.00058963233505,115.60614454441293A219,219,0,0,1,-186.9994956678023,113.98328219518679Q0,0,-204.8197161376575,-8.59557335431448L-214.76966681865025,-9.949382624362523L-204.73716745011924,-10.377488352286063Q0,0,-186.00058963233505,115.60614454441293Z"/><path fill="#f4a988" d="M43.57861023301851,214.62037352068572A219,219,0,0,1,41.709439481596725,214.9914478720747Q0,0,-17.946095896417035,-204.2129712875179L-17.889507329461004,-214.25444109168228L-16.16845565690546,-204.361398120268Q0,0,43.57861023301851,214.62037352068572Z"/><path fill="#f4a988" d="M40.73177811086226,215.17881459829516A219,219,0,0,1,38.857855857643955,215.52509607501992Q0,0,-204.9156078665124,-5.881636906313971L-214.8826190120365,-7.103523529063318L-204.85667088857517,-7.664489053420394Q0,0,40.73177811086226,215.17881459829516Z"/><path fill="#cb7729" d="M-141.54089020570453,-167.11426150923415A219,219,0,0,1,-140.08138553404086,-168.3395539582525Q0,0,-104.33677800230359,176.4619980508495L-110.23054247399504,184.59205699565942L-105.86831343623781,175.5474300870466Q0,0,-141.54089020570453,-167.11426150923415Z"/><path fill="#f4e1a1" d="M-35.61513451491639,-216.08461813253717A219,219,0,0,1,-33.52876007581764,-216.4181652444597Q0,0,-177.30650124291205,102.8951146410617L-186.47400347315056,107.0161017263077L-178.2909493251652,101.17972815110434Q0,0,-35.61513451491639,-216.08461813253717Z"/><path fill="#f4a988" d="M46.6202881974255,213.9802531272196A219,219,0,0,1,44.5537038345872,214.42007246202462Q0,0,-192.27231510565684,-71.10806454904393L-201.28935541334513,-75.54862935407913L-191.57733834903115,-72.95973842538665Q0,0,46.6202881974255,213.9802531272196Z"/><path fill="#cb7729" d="M-144.21061779789798,-164.81595103129A219,219,0,0,1,-142.29903567279527,-166.46916965790555Q0,0,-178.74901375121559,100.36827229243184L-188.07274310972565,104.18082020786336L-179.89536304992754,98.2988217281101Q0,0,-144.21061779789798,-164.81595103129Z"/><path fill="#f4e1a1" d="M-39.49397568098777,-215.40943778049638A219,219,0,0,1,-36.596966018062176,-215.92049943966137Q0,0,-106.66515987349473,175.06439863422204L-113.09895694514766,182.8486421549792L-109.00705629262873,173.61584512484936Q0,0,-39.49397568098777,-215.40943778049638Z"/><path fill="#cb7729" d="M-147.15024246598233,-162.19681298411078A219,219,0,0,1,-144.95828885537105,-164.15874783916576Q0,0,-191.24372521503605,-73.82978779514264L-200.04811158178546,-78.77660218974616L-190.23476698376106,-76.39197229181958Q0,0,-147.15024246598233,-162.19681298411078Z"/><path fill="#f7a7a1" d="M-183.77963910694675,119.10518145622554A219,219,0,0,1,-185.47318747625772,116.45040458236694Q0,0,-109.7950904034995,173.11856666252575L-116.45330520455482,180.730815598599L-112.27291510713624,171.5219884835346Q0,0,-183.77963910694675,119.10518145622554Z"/><path fill="#f7a7a1" d="M-181.37682171501888,122.73324140003086A219,219,0,0,1,-183.2363552360664,119.93931015226858Q0,0,-180.3403159173821,97.48010286627121L-189.91522957710717,100.7829627202668L-181.8129780616842,94.70502103025765Q0,0,-181.37682171501888,122.73324140003086Z"/><path fill="#f4a988" d="M50.86272276993289,213.0116978769686A219,219,0,0,1,47.59244074862256,213.7661329200415Q0,0,-113.05139798244024,171.00988689024942L-119.93690332013179,178.43805429890048L-115.65877288565946,169.2573432811216Q0,0,50.86272276993289,213.0116978769686Z"/><path fill="#f7a7a1" d="M-178.78279191711445,126.48206716496122A219,219,0,0,1,-180.81707154181456,123.5564107565541Q0,0,-124.63842437350029,-162.7582967768195L-129.32529353937045,-171.75554853033327L-121.97374106044425,-164.76470038123972Q0,0,-178.78279191711445,126.48206716496122Z"/><path fill="#f4a988" d="M55.28561038883913,211.9068221741185A219,219,0,0,1,51.83042898569738,212.77830394840205Q0,0,-182.24157571763445,93.87762289253872L-191.92608991131434,96.89879262072404L-183.74490179915608,90.9000058460861Q0,0,55.28561038883913,211.9068221741185Z"/><path fill="#f4e1a1" d="M-44.17221907290845,-214.49898615652006A219,219,0,0,1,-40.47269812249732,-215.22769502711586Q0,0,-121.223553125986,-165.3174224560474L-125.63959683770099,-174.4697443869852L-118.3593580084759,-167.379993941395Q0,0,-44.17221907290845,-214.49898615652006Z"/><path fill="#cb7729" d="M-150.6450147606483,-158.9562189024514A219,219,0,0,1,-147.88597802353826,-161.5262749648538Q0,0,33.16153056912939,202.3000565751594L32.9513858388564,212.45989308878703L29.673667440827586,202.8410053727085Q0,0,-150.6450147606483,-158.9562189024514Z"/><path fill="#005f56" d="M-218.87524285033624,7.391080246238018A219,219,0,0,1,-218.97338054978192,3.4144707643182612Q0,0,-188.08233209427556,-81.54775505174034L-196.47221941429572,-87.31361290440822L-186.5701698159194,-84.95040750260708Q0,0,-218.87524285033624,7.391080246238018Z"/><path fill="#c04e3f" d="M-100.03327736799804,194.8187450401454A219,219,0,0,1,-103.55523270678717,192.96972244122435Q0,0,-204.68788216120916,-11.308001430799129L-214.55609735468886,-13.80873230695975L-204.44873223473246,-15.023843969193212Q0,0,-100.03327736799804,194.8187450401454Z"/><path fill="#c04e3f" d="M-104.43129500473829,192.49702497346115A219,219,0,0,1,-107.91035588837966,190.56850498454156Q0,0,-189.88556670997434,-77.25588362857474L-198.4042178968027,-82.82974297170088L-188.45105943577795,-80.69199587030235Q0,0,-104.43129500473829,192.49702497346115Z"/><path fill="#005f56" d="M-218.6391830850179,12.566129870251682A219,219,0,0,1,-218.83938604273553,8.385887933818811Q0,0,-184.15618403324396,90.06386557501281L-194.033122496611,92.60749091847345L-185.84357734682283,86.52840434756365Q0,0,-218.6391830850179,12.566129870251682Z"/><path fill="#005f56" d="M-218.26390435404835,17.940681595938173A219,219,0,0,1,-218.5798058442123,13.559811101429705Q0,0,-116.42692697677201,168.7298748732583L-123.87470301838255,175.72722598421544L-119.78737312915733,166.3610087695312Q0,0,-218.26390435404835,17.940681595938173Z"/><path fill="#339999" d="M-209.0148019040866,-65.37440313299572A219,219,0,0,1,-207.661687310439,-69.55302742067708Q0,0,28.751359500271803,202.97378975347073L28.017647685863842,213.1666282938087L24.67495658743439,203.5095735276555Q0,0,-209.0148019040866,-65.37440313299572Z"/><path fill="#c04e3f" d="M-95.02396010614183,197.31053445203165A219,219,0,0,1,-99.14670726734523,195.27142760281995Q0,0,-186.2349670529391,85.68276983612681L-196.2524792201815,87.80640295520725L-187.99331167196488,81.75276610982333Q0,0,-95.02396010614183,197.31053445203165Z"/><path fill="#c04e3f" d="M-89.5745935711853,199.84341917250356A219,219,0,0,1,-94.12611547803903,197.74042172761457Q0,0,-112.94594356190807,-171.07955410542277L-116.39382684373633,-180.76912643665213L-108.99983424575399,-173.6203793752282Q0,0,-89.5745935711853,199.84341917250356Z"/><path fill="#cb7729" d="M-154.94957165407604,-154.76314239578608A219,219,0,0,1,-151.36598429287136,-158.26982908643777Q0,0,-117.5973197555561,-167.91626004145488L-121.30975706525543,-177.5075853048785L-113.7224084260207,-170.56439787301844Q0,0,-154.94957165407604,-154.76314239578608Z"/><path fill="#b5dba5" d="M204.3556960272111,-78.73848805529664A219,219,0,0,1,206.24443838589835,-73.64938312630578Q0,0,-120.54231945797798,165.81480398230667L-128.5679693621913,172.32317677573914L-124.61497848947913,162.77624868532465Q0,0,204.3556960272111,-78.73848805529664Z"/><path fill="#005f56" d="M-217.6438374766659,24.33433805203345A219,219,0,0,1,-218.1801012936357,18.932601498443727Q0,0,-108.20952739130402,-174.1140378652756L-111.21620619051714,-183.9998790232982L-103.8609030035665,-176.74250430296541Q0,0,-217.6438374766659,24.33433805203345Z"/><path fill="#f4e1a1" d="M-50.64579894370421,-213.06337801075503A219,219,0,0,1,-45.14675478331868,-214.2959881391504Q0,0,23.749661350670458,203.6196296670055L22.158464168546566,213.85509688967255L18.502516752996137,204.16330932321088Q0,0,-50.64579894370421,-213.06337801075503Z"/><path fill="#b5dba5" d="M201.79785026544906,-85.08012475451245A219,219,0,0,1,203.9956839322949,-79.66656097130867Q0,0,-15.2393763804327,-204.43277967961868L-13.12128194698744,-214.59923569311158L-9.780376814147253,-204.76656032998477Q0,0,201.79785026544906,-85.08012475451245Z"/><path fill="#f7a7a1" d="M-174.74684956176162,132.00204001544463A219,219,0,0,1,-178.20602848325714,127.29340679007905Q0,0,-183.41273301540784,-91.56838629034985L-191.06151985213342,-98.59257391808384L-180.90472399795053,-96.42863078580626Q0,0,-174.74684956176162,132.00204001544463Z"/><path fill="#f4e1a1" d="M-57.272985233974616,-211.37834601110143A219,219,0,0,1,-51.61374230930348,-212.83096956230037Q0,0,-186.18210555520525,-85.7975732234334L-194.0464601706563,-92.57954037063425L-183.82705676345222,-90.73374896744052Q0,0,-57.272985233974616,-211.37834601110143Z"/><path fill="#005f56" d="M-216.688816071932,31.732585607611966A219,219,0,0,1,-217.53097884716723,25.32337342838196Q0,0,17.574313764885822,204.24530226101493L15.268153818854492,214.45718332330068L11.538529313301224,204.67501640719635Q0,0,-216.688816071932,31.732585607611966Z"/><path fill="#f7a7a1" d="M-170.01930291031695,138.03780872605117A219,219,0,0,1,-174.14503712216862,132.79497748679546Q0,0,10.608072333804639,204.72534967941994L7.853811181194601,214.85650478849865L4.367225460034279,204.95347604220143Q0,0,-170.01930291031695,138.03780872605117Z"/><path fill="#005f56" d="M-215.44529628100753,39.29789193314182A219,219,0,0,1,-216.54233902616022,32.717203564478034Q0,0,-204.37833019998772,-15.952997983601271L-214.06829314439702,-19.994145899350297L-203.79756862121917,-22.170950003991035Q0,0,-215.44529628100753,39.29789193314182Z"/><path fill="#339999" d="M-211.66143580223724,-56.21776048665942A219,219,0,0,1,-209.30979801859553,-64.42366376895014Q0,0,193.37123602658428,-68.06294937446529L204.15665189996915,-67.41707116891702L195.87680728331634,-60.47541953963242Q0,0,-211.66143580223724,-56.21776048665942Z"/><path fill="#b5dba5" d="M197.81586362234694,-93.96746298238044A219,219,0,0,1,201.40903907241542,-85.99650562625344Q0,0,-203.69468657961613,-23.097070360371568L-213.1048869203479,-28.48345433169472L-202.61039928530906,-31.209391238017407Q0,0,197.81586362234694,-93.96746298238044Z"/><path fill="#c04e3f" d="M-80.21596048835676,203.7802730465596A219,219,0,0,1,-88.66529216537438,200.2485105193764Q0,0,3.4355768428725257,204.97120971433213L-0.8922374390280423,214.99814862540651L-5.136680948843143,204.93563503897948Q0,0,-80.21596048835676,203.7802730465596Z"/><path fill="#c04e3f" d="M-69.89988817135487,207.54518937723438A219,219,0,0,1,-79.2888610337577,204.14278462872366Q0,0,-125.35358063852036,162.2081373455166L-135.31298518307443,167.079011371402L-132.61805648805432,156.3248255822831Q0,0,-69.89988817135487,207.54518937723438Z"/><path fill="#f4a988" d="M66.62876904909528,208.6183288567961A219,219,0,0,1,56.248248768702744,211.65333569413485Q0,0,-6.068150290132672,204.91016946959067L-11.668674702861113,214.683120041327L-16.176956527858444,204.36072537915837Q0,0,66.62876904909528,208.6183288567961Z"/><path fill="#339999" d="M-214.5103606918681,-44.116948623455954A219,219,0,0,1,-211.9147836159193,-55.255085603210354Q0,0,-180.4645447019335,-97.24992599238232L-186.54001349764124,-106.9009979574551L-175.14163855169838,-106.5382862891376Q0,0,-214.5103606918681,-44.116948623455954Z"/><path fill="#b5dba5" d="M192.06570727419023,-105.22245050019065A219,219,0,0,1,197.38669671263122,-94.8656521659749Q0,0,-188.36297179833505,80.897409447396L-199.73706113827438,79.56196583698298L-192.39634604194498,70.77178837438099Q0,0,192.06570727419023,-105.22245050019065Z"/><path fill="#cb7729" d="M-167.81829296008073,-140.70543894236826A219,219,0,0,1,-155.65143734477763,-154.05722979628302Q0,0,196.14967109011468,-59.584448736560724L208.12015635851995,-53.953688634839565L200.39296151838312,-43.21644332764808Q0,0,-167.81829296008073,-140.70543894236826Z"/><path fill="#f4a988" d="M84.70535527220339,201.95544753288982A219,219,0,0,1,67.57634260234536,208.31331671424763Q0,0,200.5873290490472,-42.305122916371L212.03978011070276,-35.55462910233795L203.41564056658873,-25.437711628296636Q0,0,84.70535527220339,201.95544753288982Z"/><path fill="#b5dba5" d="M181.38124138845765,-122.72670969427175A219,219,0,0,1,191.5854409088093,-106.09438642914691Q0,0,-103.05645780908225,-177.21277184177455L-99.69627572103528,-190.48793297045174L-86.87326018579355,-185.68262348612865Q0,0,181.38124138845765,-122.72670969427175Z"/><path fill="#c04e3f" d="M-49.77638947953404,213.26816698790688A219,219,0,0,1,-68.95578209044868,207.86077098936815Q0,0,203.52916473274752,-24.51283547837998L214.406018030617,-15.970580210334699L204.91475851761277,-5.911154004798504Q0,0,-49.77638947953404,213.26816698790688Z"/><path fill="#b5dba5" d="M168.18089333371356,-140.27183294401644A219,219,0,0,1,180.82152085906506,-123.54989920762665Q0,0,-17.10569860018292,204.28508285090152L-28.17328409335967,213.14611435209147L-36.55853565267286,201.71384055372167Q0,0,168.18089333371356,-140.27183294401644Z"/><path fill="#b5dba5" d="M153.14200915176372,-156.55198827533656A219,219,0,0,1,167.54155888571486,-141.03483983095998Q0,0,-174.65556597026506,-107.33328130457203L-177.52068985728948,-121.29057948823575L-163.4766459924231,-123.69472994055961Q0,0,153.14200915176372,-156.55198827533656Z"/><path fill="#005f56" d="M-209.05741698498238,65.23799815726414A219,219,0,0,1,-215.2644444438823,40.27677939292951Q0,0,204.9395104225727,-4.979665426131244L214.8723203371398,7.4085054453367025L204.1098579037125,19.0831314654144Q0,0,-209.05741698498238,65.23799815726414Z"/><path fill="#f4e1a1" d="M-82.7760474326655,-202.7538556265333A219,219,0,0,1,-58.23320092703618,-211.11583149965668Q0,0,204.0210081264661,20.010703212542335L212.35565716822524,33.616586213522496L200.22612820903336,43.98292375933794Q0,0,-82.7760474326655,-202.7538556265333Z"/><path fill="#f7a7a1" d="M-149.84439725815395,159.71116620430942A219,219,0,0,1,-169.39010409108485,138.8091950701085Q0,0,200.02413806857,44.892585021645125L206.2570344484945,60.68801974453077L192.46283123242935,70.59078264191024Q0,0,-149.84439725815395,159.71116620430942Z"/><path fill="#b5dba5" d="M0.4977268442431594,-218.99943440106992A219,219,0,0,1,152.42882961264294,-157.24646865007767Q0,0,192.13997689455047,71.46488143809947L158.78935390280475,144.9515128832046L88.63962343438511,184.8459281602124Q0,0,0.4977268442431594,-218.99943440106992Z"/></g><g><g id="2" transform="rotate(-12.744506266341673) translate(250,0)"><text x="8" dy="0.35em" style="font-family: Arial, sans-serif; font-size: 10px; fill: black; font-weight: bold;">2 (2850)</text></g><g id="3" transform="rotate(146.48932229432162) translate(250,0)"><text x="8" dy="0.35em" transform="rotate(180) translate(-16)" text-anchor="end" style="font-family: Arial, sans-serif; font-size: 10px; fill: black; font-weight: bold;">3 (496)</text></g><g id="1" transform="rotate(257.52862894048764) translate(250,0)"><text x="8" dy="0.35em" transform="rotate(180) translate(-16)" text-anchor="end" style="font-family: Arial, sans-serif; font-size: 10px; fill: black; font-weight: bold;">1 (364)</text></g><g id="6" transform="rotate(175.71293725818504) translate(250,0)"><text x="8" dy="0.35em" transform="rotate(180) translate(-16)" text-anchor="end" style="font-family: Arial, sans-serif; font-size: 10px; fill: black; font-weight: bold;">6 (486)</text></g><g id="0" transform="rotate(204.36730121558998) translate(250,0)"><text x="8" dy="0.35em" transform="rotate(180) translate(-16)" text-anchor="end" style="font-family: Arial, sans-serif; font-size: 10px; fill: black; font-weight: bold;">0 (475)</text></g><g id="7" transform="rotate(83.75915622276389) translate(250,0)"><text x="8" dy="0.35em" style="font-family: Arial, sans-serif; font-size: 10px; fill: black; font-weight: bold;">7 (614)</text></g><g id="4" transform="rotate(116.72356351478345) translate(250,0)"><text x="8" dy="0.35em" transform="rotate(180) translate(-16)" text-anchor="end" style="font-family: Arial, sans-serif; font-size: 10px; fill: black; font-weight: bold;">4 (506)</text></g><g id="5" transform="rotate(232.45241416653636) translate(250,0)"><text x="8" dy="0.35em" transform="rotate(180) translate(-16)" text-anchor="end" style="font-family: Arial, sans-serif; font-size: 10px; fill: black; font-weight: bold;">5 (465)</text></g></g></g></svg>