<svg xmlns="http://www.w3.org/2000/svg" width="805" height="600"><rect width="805" height="600" x="0" y="0" fill="#FFFFFF" id="background"/><g id="viz"><g transform="translate(0,0)"><g transform="translate(10,20)"><g><path fill="#f4a988" d="M0,280L2.913244509338687,279.8833333333333C5.826489018677374,279.76666666666665,11.652978037354748,279.53333333333336,17.471507371580376,279.53333333333336C23.290036705806006,279.53333333333336,29.100606355579888,279.76666666666665,55.264089148465864,279.76666666666665C81.42757194135184,279.76666666666665,127.94396787734989,279.53333333333336,157.0127354951228,279.3777777777778C186.0815031128957,279.22222222222223,197.70264241244345,279.14444444444445,212.2370262213299,279.1055555555556C226.77141003021634,279.0666666666667,244.21903834844147,279.0666666666667,258.76138184177967,279.18333333333334C273.3037253351179,279.3,284.94078400356915,279.53333333333336,293.6645981626817,279.19393939393944C302.3884123217943,278.8545454545455,308.19898197156823,277.94242424242424,314.0095516213421,277.9530303030303C319.82012127111597,277.96363636363634,325.6306909208899,278.8969696969697,331.44126057066376,279.5386363636364C337.2518302204376,280.18030303030304,343.06239987021155,280.530303030303,348.8809292044372,280.58863636363634C354.6994585386628,280.6469696969697,360.5259475573401,280.41363636363633,366.34447689156576,279.7719696969696C372.1630062257914,279.13030303030297,377.9735758755653,278.080303030303,383.78414552533917,278.0219696969697C389.5947151751131,277.96363636363634,395.4052848248869,278.8969696969697,404.1290989839995,277.98696969696965C412.85291314311206,277.0769696969697,424.4899718115633,274.32363636363635,433.2137859706759,272.6004010695187C441.9376001297885,270.87716577540107,447.7481697795624,270.1840285204991,453.5587394293363,269.5118784976993C459.3693090791101,268.83972847489946,465.179878728884,268.1885656842018,470.9904483786579,267.8012195829706C476.8010180284318,267.4138734817394,482.6115876782057,267.2903440699747,488.4301170124313,268.43582574090397C494.2486463466569,269.58130741183317,500.0751353653343,271.9958001654564,505.89366469955985,273.04177203246405C511.71219403378547,274.0877438994717,517.5227636835594,273.7651948798639,523.3333333333333,268.580323010324C529.1439029831072,263.39545114078413,534.954472632881,253.34825642131216,540.7650422826549,251.12112370804084C546.5756119324288,248.8939909947695,552.3861815822028,254.4869202876988,558.2047109164283,254.5688634820182C564.023240250654,254.65080667633765,569.8497292693313,249.2217637720472,575.668258603557,243.22401651345035C581.4867879377827,237.22626925485352,587.2973575875566,230.6598176419503,593.1079272373304,225.945686758236C598.9184968871042,221.23155587452172,604.7290665368781,218.36974571999633,610.539636186652,216.9623207265911C616.350205836426,215.55489573318584,622.1607754861998,215.6018559009007,627.9793048204255,216.58140943108583C633.797834154651,217.56096296127097,639.6243231733284,219.47310985392633,645.4428525075541,213.66142629090825C651.2613818417798,207.84974272789012,657.0719514915536,194.31422870919855,662.8825211413275,182.67673336083115C668.6930907911014,171.03923801246376,674.5036604408753,161.2997613344205,680.3142300906492,159.62524263364176C686.1247997404231,157.95072393286304,691.935369390197,164.34116320934882,697.7538987244226,168.14705993092502C703.5724280586483,171.95295665250126,709.3989170773256,173.17431081916789,715.2174464115511,172.1743191126923C721.0359757457768,171.17432740621675,726.8465453955506,167.9529898265989,732.6571150453245,164.74763579427193C738.4676846950985,161.54228176194496,744.2782543448724,158.35291127690883,750.0888239946462,153.38579921663816C755.89939364442,148.4186871563675,761.7099632941939,141.6738335208623,767.5284926284197,155.18217593387894C773.3470219626452,168.69051834689557,779.1735109813226,202.45205680843404,782.0867554906613,219.3328260392033L785,236.21359526997253L785,243.2135952699725L782.0867554906613,242.19949270586994C779.1735109813226,241.18539014176739,773.3470219626452,239.15718501356227,767.5284926284197,234.5155092672123C761.7099632941939,229.87383352086235,755.89939364442,222.61868715636754,750.0888239946462,220.81913254997153C744.2782543448724,219.0195779435755,738.4676846950985,222.6756150952783,732.6571150453245,224.48096912760525C726.8465453955506,226.28632315993227,721.0359757457768,226.2409940728834,715.2174464115511,224.90765244602565C709.3989170773256,223.5743108191679,703.5724280586483,220.95295665250123,697.7538987244226,216.44705993092506C691.935369390197,211.94116320934882,686.1247997404231,205.55072393286306,680.3142300906492,208.15857596697512C674.5036604408753,210.7664280010872,668.6930907911014,222.37257134579704,662.8825211413275,230.51006669416446C657.0719514915536,238.64756204253186,651.2613818417798,243.31640939455679,645.4428525075541,244.46142629090824C639.6243231733284,245.6064431872597,633.797834154651,243.22762962793766,627.9793048204255,241.08140943108583C622.1607754861998,238.93518923423406,616.350205836426,237.0215623998525,610.539636186652,235.3956540599244C604.7290665368781,233.7697457199963,598.9184968871042,232.4315558745217,593.1079272373304,234.34568675823598C587.2973575875566,236.25981764195035,581.4867879377827,241.42626925485357,575.668258603557,246.25734984678374C569.8497292693313,251.08843043871389,564.023240250654,255.58414000967096,558.2047109164283,255.26886348201822C552.3861815822028,254.95358695436548,546.5756119324288,249.8273243281028,540.7650422826549,252.05445704137415C534.954472632881,254.28158975464544,529.1439029831072,263.8621178074507,523.3333333333333,268.8136563436573C517.5227636835594,273.7651948798639,511.71219403378547,274.0877438994717,505.8936646995599,273.04177203246405C500.0751353653343,271.9958001654564,494.2486463466569,269.58130741183317,488.4301170124313,268.4358257409039C482.6115876782057,267.2903440699747,476.8010180284318,267.4138734817394,470.9904483786579,267.80121958297065C465.179878728884,268.1885656842018,459.3693090791101,268.83972847489946,453.5587394293363,269.5118784976993C447.7481697795624,270.1840285204991,441.9376001297885,270.87716577540107,433.21378597067593,272.6004010695187C424.4899718115633,274.32363636363635,412.85291314311206,277.0769696969697,404.1290989839995,277.98696969696965C395.4052848248869,278.8969696969697,389.5947151751131,277.96363636363634,383.78414552533917,278.0219696969696C377.9735758755653,278.080303030303,372.1630062257914,279.13030303030297,366.34447689156576,279.7719696969696C360.5259475573401,280.41363636363633,354.6994585386628,280.6469696969697,348.8809292044371,280.58863636363634C343.06239987021155,280.530303030303,337.2518302204376,280.18030303030304,331.44126057066376,279.5386363636364C325.6306909208899,278.8969696969697,319.82012127111597,277.96363636363634,314.0095516213421,277.9530303030303C308.19898197156823,277.94242424242424,302.3884123217943,278.8545454545455,293.6645981626818,279.19393939393944C284.94078400356915,279.53333333333336,273.3037253351179,279.3,258.76138184177967,279.1833333333334C244.21903834844147,279.0666666666667,226.77141003021634,279.0666666666667,212.23702622132996,279.10555555555555C197.70264241244345,279.14444444444445,186.0815031128957,279.22222222222223,157.0127354951228,279.3777777777778C127.94396787734989,279.53333333333336,81.42757194135184,279.76666666666665,55.26408914846587,279.76666666666665C29.100606355579888,279.76666666666665,23.290036705806006,279.53333333333336,17.471507371580376,279.53333333333336C11.652978037354748,279.53333333333336,5.826489018677374,279.76666666666665,2.913244509338687,279.8833333333333L0,280Z"><title>Rank‐based Measures</title></path><path fill="#b5dba5" d="M0,280L2.913244509338687,279.8833333333333C5.826489018677374,279.76666666666665,11.652978037354748,279.53333333333336,17.471507371580376,279.53333333333336C23.290036705806006,279.53333333333336,29.100606355579888,279.76666666666665,55.264089148465864,279.76666666666665C81.42757194135184,279.76666666666665,127.94396787734989,279.53333333333336,157.0127354951228,279.3777777777778C186.0815031128957,279.22222222222223,197.70264241244345,279.14444444444445,212.2370262213299,279.1055555555556C226.77141003021634,279.0666666666667,244.21903834844147,279.0666666666667,258.76138184177967,279.18333333333334C273.3037253351179,279.3,284.94078400356915,279.53333333333336,293.6645981626817,279.19393939393944C302.3884123217943,278.8545454545455,308.19898197156823,277.94242424242424,314.0095516213421,277.9530303030303C319.82012127111597,277.96363636363634,325.6306909208899,278.8969696969697,331.44126057066376,279.5386363636364C337.2518302204376,280.18030303030304,343.06239987021155,280.530303030303,348.8809292044372,280.58863636363634C354.6994585386628,280.6469696969697,360.5259475573401,280.41363636363633,366.34447689156576,279.7719696969696C372.1630062257914,279.13030303030297,377.9735758755653,278.080303030303,383.78414552533917,278.0219696969697C389.5947151751131,277.96363636363634,395.4052848248869,278.8969696969697,404.1290989839995,277.98696969696965C412.85291314311206,277.0769696969697,424.4899718115633,274.32363636363635,433.2137859706759,272.6004010695187C441.9376001297885,270.87716577540107,447.7481697795624,270.1840285204991,453.5587394293363,269.5118784976993C459.3693090791101,268.83972847489946,465.179878728884,268.1885656842018,470.9904483786579,267.8012195829706C476.8010180284318,267.4138734817394,482.6115876782057,267.2903440699747,488.4301170124313,268.43582574090397C494.2486463466569,269.58130741183317,500.0751353653343,271.9958001654564,505.89366469955985,273.04177203246405C511.71219403378547,274.0877438994717,517.5227636835594,273.7651948798639,523.3333333333333,268.8136563436573C529.1439029831072,263.8621178074507,534.954472632881,254.28158975464544,540.7650422826549,252.05445704137415C546.5756119324288,249.8273243281028,552.3861815822028,254.95358695436548,558.2047109164283,255.26886348201822C564.023240250654,255.58414000967096,569.8497292693313,251.08843043871389,575.668258603557,246.25734984678374C581.4867879377827,241.42626925485357,587.2973575875566,236.25981764195035,593.1079272373304,234.34568675823598C598.9184968871042,232.4315558745217,604.7290665368781,233.7697457199963,610.539636186652,235.3956540599244C616.350205836426,237.0215623998525,622.1607754861998,238.93518923423406,627.9793048204255,241.08140943108586C633.797834154651,243.22762962793766,639.6243231733284,245.6064431872597,645.4428525075541,244.46142629090824C651.2613818417798,243.31640939455679,657.0719514915536,238.64756204253186,662.8825211413275,230.51006669416446C668.6930907911014,222.37257134579704,674.5036604408753,210.7664280010872,680.3142300906492,208.15857596697512C686.1247997404231,205.55072393286306,691.935369390197,211.94116320934882,697.7538987244226,216.447059930925C703.5724280586483,220.95295665250123,709.3989170773256,223.5743108191679,715.2174464115511,224.90765244602565C721.0359757457768,226.2409940728834,726.8465453955506,226.28632315993227,732.6571150453245,224.48096912760525C738.4676846950985,222.6756150952783,744.2782543448724,219.0195779435755,750.0888239946462,220.81913254997153C755.89939364442,222.61868715636754,761.7099632941939,229.87383352086235,767.5284926284197,234.5155092672123C773.3470219626452,239.15718501356227,779.1735109813226,241.18539014176739,782.0867554906613,242.19949270586994L785,243.2135952699725L785,261.4135952699726L782.0867554906613,300.53282603920337C779.1735109813226,339.6520568084341,773.3470219626452,417.8905183468957,767.5284926284197,456.6488426005457C761.7099632941939,495.40716685419574,755.89939364442,494.6853538230343,750.0888239946462,490.7857992166382C744.2782543448724,486.8862446102423,738.4676846950985,479.8089484286117,732.6571150453245,471.347635794272C726.8465453955506,462.88632315993226,721.0359757457768,453.04099407288345,715.2174464115511,449.14098577935897C709.3989170773256,445.24097748583455,703.5724280586483,447.2862899858346,697.7538987244226,455.147059930925C691.935369390197,463.0078298760155,686.1247997404231,476.68405726619636,680.3142300906492,472.7585759669751C674.5036604408753,468.8330946677538,668.6930907911014,447.3059046791304,662.8825211413275,426.2767333608311C657.0719514915536,405.2475620425318,651.2613818417798,384.7164093945567,645.4428525075541,377.6947596242415C639.6243231733284,370.6731098539263,633.797834154651,377.16096296127097,627.9793048204255,380.6147427644192C622.1607754861998,384.0685225675674,616.350205836426,384.4882290665192,610.539636186652,385.19565405992444C604.7290665368781,385.9030790533297,598.9184968871042,386.89822254118843,593.1079272373304,381.34568675823607C587.2973575875566,375.7931509752837,581.4867879377827,363.69293592152025,575.668258603557,353.12401651345044C569.8497292693313,342.5550971053806,564.023240250654,333.5174733430044,558.2047109164283,334.13553014868495C552.3861815822028,334.7535869543655,546.5756119324288,345.02732432810285,540.7650422826549,341.8877903747075C534.954472632881,338.74825642131213,529.1439029831072,322.1954511407841,523.3333333333333,312.91365634365724C517.5227636835594,303.6318615465305,511.71219403378547,301.621077232805,505.8936646995599,302.44177203246403C500.0751353653343,303.26246683212304,494.2486463466569,306.9146407451665,488.4301170124313,308.8024924075706C482.6115876782057,310.6903440699747,476.8010180284318,310.8138734817394,470.9904483786579,309.8012195829706C465.179878728884,308.7885656842018,459.3693090791101,306.63972847489947,453.5587394293363,304.7452118310326C447.7481697795624,302.8506951871658,441.9376001297885,301.21049910873444,433.21378597067593,298.0337344028521C424.4899718115633,294.85696969696977,412.85291314311206,290.1436363636364,404.1290989839995,288.2536363636364C395.4052848248869,286.36363636363643,389.5947151751131,287.2969696969697,383.78414552533917,286.42196969696965C377.9735758755653,285.54696969696965,372.1630062257914,282.8636363636363,366.34447689156576,282.105303030303C360.5259475573401,281.34696969696967,354.6994585386628,282.51363636363635,348.8809292044371,283.155303030303C343.06239987021155,283.7969696969697,337.2518302204376,283.9136363636364,331.44126057066376,284.43863636363636C325.6306909208899,284.9636363636364,319.82012127111597,285.89696969696973,314.0095516213421,285.18636363636364C308.19898197156823,284.4757575757576,302.3884123217943,282.1212121212122,293.6645981626818,280.8272727272727C284.94078400356915,279.53333333333336,273.3037253351179,279.3,258.76138184177967,279.65000000000003C244.21903834844147,280.00000000000006,226.77141003021634,280.9333333333334,212.23702622132996,281.20555555555563C197.70264241244345,281.4777777777778,186.0815031128957,281.0888888888889,157.0127354951228,280.77777777777777C127.94396787734989,280.46666666666664,81.42757194135184,280.23333333333335,55.26408914846587,280.23333333333335C29.100606355579888,280.23333333333335,23.290036705806006,280.46666666666664,17.471507371580376,280.46666666666664C11.652978037354748,280.46666666666664,5.826489018677374,280.23333333333335,2.913244509338687,280.1166666666667L0,280Z"><title>Regression‐based Measures</title></path><path fill="#339999" d="M0,277.2L2.913244509338687,277.55C5.826489018677374,277.90000000000003,11.652978037354748,278.59999999999997,17.471507371580376,279.06666666666666C23.290036705806006,279.53333333333336,29.100606355579888,279.76666666666665,55.264089148465864,279.76666666666665C81.42757194135184,279.76666666666665,127.94396787734989,279.53333333333336,157.0127354951228,279.14444444444445C186.0815031128957,278.75555555555553,197.70264241244345,278.21111111111117,212.2370262213299,277.9388888888889C226.77141003021634,277.6666666666667,244.21903834844147,277.6666666666667,258.76138184177967,277.55C273.3037253351179,277.43333333333334,284.94078400356915,277.20000000000005,293.6645981626817,276.39393939393943C302.3884123217943,275.58787878787876,308.19898197156823,274.2090909090909,314.0095516213421,274.68636363636364C319.82012127111597,275.1636363636364,325.6306909208899,277.4969696969697,331.44126057066376,278.37196969696964C337.2518302204376,279.2469696969697,343.06239987021155,278.6636363636364,348.8809292044372,278.4886363636363C354.6994585386628,278.31363636363636,360.5259475573401,278.54696969696965,366.34447689156576,277.67196969696965C372.1630062257914,276.79696969696965,377.9735758755653,274.81363636363636,383.78414552533917,274.9886363636363C389.5947151751131,275.1636363636364,395.4052848248869,277.4969696969697,404.1290989839995,276.3536363636363C412.85291314311206,275.210303030303,424.4899718115633,270.590303030303,433.2137859706759,267.7004010695187C441.9376001297885,264.8104991087344,447.7481697795624,263.6506951871658,453.5587394293363,261.8118784976993C459.3693090791101,259.9730618082328,465.179878728884,257.45523235086847,470.9904483786579,257.534552916304C476.8010180284318,257.6138734817394,482.6115876782057,260.2903440699747,488.4301170124313,262.835825740904C494.2486463466569,265.3813074118332,500.0751353653343,267.79580016545634,505.89366469955985,268.3751053657974C511.71219403378547,268.9544105661384,517.5227636835594,267.6985282131972,523.3333333333333,260.180323010324C529.1439029831072,252.66211780745073,534.954472632881,238.8815897546455,540.7650422826549,235.02112370804082C546.5756119324288,231.16065766143618,552.3861815822028,237.22025362103216,558.2047109164283,236.8355301486849C564.023240250654,236.4508066763377,569.8497292693313,229.62176377204722,575.668258603557,221.29068318011707C581.4867879377827,212.95960258818693,587.2973575875566,203.12648430861702,593.1079272373304,198.87902009156937C598.9184968871042,194.63155587452175,604.7290665368781,195.96974571999635,610.539636186652,195.02898739325778C616.350205836426,194.08822906651918,622.1607754861998,190.86852256756742,627.9793048204255,193.4814094310859C633.797834154651,196.09429629460433,639.6243231733284,204.53977652059302,645.4428525075541,199.19475962424158C651.2613818417798,193.84974272789012,657.0719514915536,174.71422870919852,662.8825211413275,158.6434000274978C668.6930907911014,142.57257134579706,674.5036604408753,129.56642800108716,680.3142300906492,127.65857596697509C686.1247997404231,125.75072393286304,691.935369390197,134.94116320934882,697.7538987244226,137.8137265975917C703.5724280586483,140.6862899858346,709.3989170773256,137.2409774858346,715.2174464115511,133.90765244602568C721.0359757457768,130.57432740621675,726.8465453955506,127.35298982659891,732.6571150453245,123.9143024609386C738.4676846950985,120.47561509527831,744.2782543448724,116.81957794357554,750.0888239946462,112.31913254997153C755.89939364442,107.81868715636752,761.7099632941939,102.47383352086233,767.5284926284197,122.51550926721228C773.3470219626452,142.55718501356225,779.1735109813226,187.9853901417674,782.0867554906613,210.69949270586997L785,233.41359526997255L785,236.21359526997253L782.0867554906613,219.3328260392033C779.1735109813226,202.45205680843404,773.3470219626452,168.69051834689557,767.5284926284197,155.18217593387894C761.7099632941939,141.6738335208623,755.89939364442,148.4186871563675,750.0888239946462,153.38579921663816C744.2782543448724,158.35291127690883,738.4676846950985,161.54228176194496,732.6571150453245,164.74763579427193C726.8465453955506,167.9529898265989,721.0359757457768,171.17432740621675,715.2174464115511,172.1743191126923C709.3989170773256,173.17431081916789,703.5724280586483,171.95295665250126,697.7538987244226,168.14705993092502C691.935369390197,164.34116320934882,686.1247997404231,157.95072393286304,680.3142300906492,159.62524263364176C674.5036604408753,161.2997613344205,668.6930907911014,171.03923801246376,662.8825211413275,182.67673336083112C657.0719514915536,194.31422870919855,651.2613818417798,207.84974272789012,645.4428525075541,213.66142629090825C639.6243231733284,219.47310985392633,633.797834154651,217.56096296127097,627.9793048204255,216.58140943108583C622.1607754861998,215.6018559009007,616.350205836426,215.55489573318584,610.539636186652,216.9623207265911C604.7290665368781,218.36974571999633,598.9184968871042,221.23155587452172,593.1079272373304,225.945686758236C587.2973575875566,230.6598176419503,581.4867879377827,237.22626925485352,575.668258603557,243.22401651345035C569.8497292693313,249.2217637720472,564.023240250654,254.65080667633765,558.2047109164283,254.5688634820182C552.3861815822028,254.4869202876988,546.5756119324288,248.8939909947695,540.7650422826549,251.12112370804084C534.954472632881,253.34825642131216,529.1439029831072,263.39545114078413,523.3333333333333,268.580323010324C517.5227636835594,273.7651948798639,511.71219403378547,274.0877438994717,505.8936646995599,273.04177203246405C500.0751353653343,271.9958001654564,494.2486463466569,269.58130741183317,488.4301170124313,268.4358257409039C482.6115876782057,267.2903440699747,476.8010180284318,267.4138734817394,470.9904483786579,267.80121958297065C465.179878728884,268.1885656842018,459.3693090791101,268.83972847489946,453.5587394293363,269.5118784976993C447.7481697795624,270.1840285204991,441.9376001297885,270.87716577540107,433.21378597067593,272.6004010695187C424.4899718115633,274.32363636363635,412.85291314311206,277.0769696969697,404.1290989839995,277.98696969696965C395.4052848248869,278.8969696969697,389.5947151751131,277.96363636363634,383.78414552533917,278.0219696969696C377.9735758755653,278.080303030303,372.1630062257914,279.13030303030297,366.34447689156576,279.7719696969696C360.5259475573401,280.41363636363633,354.6994585386628,280.6469696969697,348.8809292044371,280.58863636363634C343.06239987021155,280.530303030303,337.2518302204376,280.18030303030304,331.44126057066376,279.5386363636364C325.6306909208899,278.8969696969697,319.82012127111597,277.96363636363634,314.0095516213421,277.9530303030303C308.19898197156823,277.94242424242424,302.3884123217943,278.8545454545455,293.6645981626818,279.19393939393944C284.94078400356915,279.53333333333336,273.3037253351179,279.3,258.76138184177967,279.1833333333334C244.21903834844147,279.0666666666667,226.77141003021634,279.0666666666667,212.23702622132996,279.10555555555555C197.70264241244345,279.14444444444445,186.0815031128957,279.22222222222223,157.0127354951228,279.3777777777778C127.94396787734989,279.53333333333336,81.42757194135184,279.76666666666665,55.26408914846587,279.76666666666665C29.100606355579888,279.76666666666665,23.290036705806006,279.53333333333336,17.471507371580376,279.53333333333336C11.652978037354748,279.53333333333336,5.826489018677374,279.76666666666665,2.913244509338687,279.8833333333333L0,280Z"><title>Decomposition / Structural Approaches</title></path><path fill="#c04e3f" d="M0,277.2L2.913244509338687,277.55C5.826489018677374,277.90000000000003,11.652978037354748,278.59999999999997,17.471507371580376,279.06666666666666C23.290036705806006,279.53333333333336,29.100606355579888,279.76666666666665,55.264089148465864,279.76666666666665C81.42757194135184,279.76666666666665,127.94396787734989,279.53333333333336,157.0127354951228,279.14444444444445C186.0815031128957,278.75555555555553,197.70264241244345,278.21111111111117,212.2370262213299,277.9388888888889C226.77141003021634,277.6666666666667,244.21903834844147,277.6666666666667,258.76138184177967,277.55C273.3037253351179,277.43333333333334,284.94078400356915,277.20000000000005,293.6645981626817,276.39393939393943C302.3884123217943,275.58787878787876,308.19898197156823,274.2090909090909,314.0095516213421,274.68636363636364C319.82012127111597,275.1636363636364,325.6306909208899,277.4969696969697,331.44126057066376,278.37196969696964C337.2518302204376,279.2469696969697,343.06239987021155,278.6636363636364,348.8809292044372,278.4886363636363C354.6994585386628,278.31363636363636,360.5259475573401,278.54696969696965,366.34447689156576,277.67196969696965C372.1630062257914,276.79696969696965,377.9735758755653,274.81363636363636,383.78414552533917,274.9886363636363C389.5947151751131,275.1636363636364,395.4052848248869,277.4969696969697,404.1290989839995,276.3536363636363C412.85291314311206,275.210303030303,424.4899718115633,270.590303030303,433.2137859706759,267.7004010695187C441.9376001297885,264.8104991087344,447.7481697795624,263.6506951871658,453.5587394293363,261.57854516436595C459.3693090791101,259.50639514156614,465.179878728884,256.5218990175352,470.9904483786579,256.60121958297066C476.8010180284318,256.6805401484061,482.6115876782057,259.82367740330807,488.4301170124313,262.60249240757065C494.2486463466569,265.3813074118332,500.0751353653343,267.79580016545634,505.89366469955985,268.3751053657974C511.71219403378547,268.9544105661384,517.5227636835594,267.6985282131972,523.3333333333333,260.180323010324C529.1439029831072,252.66211780745073,534.954472632881,238.8815897546455,540.7650422826549,235.02112370804082C546.5756119324288,231.16065766143618,552.3861815822028,237.22025362103216,558.2047109164283,236.8355301486849C564.023240250654,236.4508066763377,569.8497292693313,229.62176377204722,575.668258603557,221.05734984678375C581.4867879377827,212.49293592152026,587.2973575875566,202.19315097528371,593.1079272373304,197.4790200915694C598.9184968871042,192.76488920785508,604.7290665368781,193.636412386663,610.539636186652,191.99565405992442C616.350205836426,190.35489573318583,622.1607754861998,186.20185590090077,627.9793048204255,188.58140943108583C633.797834154651,190.96096296127098,639.6243231733284,199.87310985392637,645.4428525075541,194.06142629090823C651.2613818417798,188.2497427278901,657.0719514915536,167.71422870919852,662.8825211413275,150.4767333608311C668.6930907911014,133.23923801246372,674.5036604408753,119.29976133442051,680.3142300906492,115.75857596697512C686.1247997404231,112.21739059952972,691.935369390197,119.07449654268214,697.7538987244226,120.54705993092502C703.5724280586483,122.0196233191679,709.3989170773256,118.10764415250124,715.2174464115511,111.74098577935901C721.0359757457768,105.37432740621676,726.8465453955506,96.55298982659893,732.6571150453245,90.78096912760527C738.4676846950985,85.00894842861165,744.2782543448724,82.28624461024218,750.0888239946462,77.31913254997151C755.89939364442,72.35202048970086,761.7099632941939,65.14050018752899,767.5284926284197,89.84884260054564C773.3470219626452,114.55718501356226,779.1735109813226,171.18539014176739,782.0867554906613,199.49949270586993L785,227.81359526997252L785,233.41359526997255L782.0867554906613,210.69949270586994C779.1735109813226,187.9853901417674,773.3470219626452,142.55718501356225,767.5284926284197,122.51550926721228C761.7099632941939,102.47383352086233,755.89939364442,107.81868715636752,750.0888239946462,112.31913254997153C744.2782543448724,116.81957794357554,738.4676846950985,120.47561509527831,732.6571150453245,123.9143024609386C726.8465453955506,127.35298982659891,721.0359757457768,130.57432740621675,715.2174464115511,133.90765244602568C709.3989170773256,137.2409774858346,703.5724280586483,140.6862899858346,697.7538987244226,137.8137265975917C691.935369390197,134.94116320934882,686.1247997404231,125.75072393286304,680.3142300906492,127.65857596697509C674.5036604408753,129.56642800108716,668.6930907911014,142.57257134579706,662.8825211413275,158.6434000274978C657.0719514915536,174.71422870919852,651.2613818417798,193.84974272789012,645.4428525075541,199.19475962424156C639.6243231733284,204.53977652059302,633.797834154651,196.09429629460433,627.9793048204255,193.4814094310859C622.1607754861998,190.86852256756742,616.350205836426,194.08822906651918,610.539636186652,195.02898739325778C604.7290665368781,195.96974571999635,598.9184968871042,194.63155587452175,593.1079272373304,198.87902009156937C587.2973575875566,203.12648430861702,581.4867879377827,212.95960258818693,575.668258603557,221.29068318011707C569.8497292693313,229.62176377204722,564.023240250654,236.4508066763377,558.2047109164283,236.83553014868494C552.3861815822028,237.22025362103216,546.5756119324288,231.16065766143618,540.7650422826549,235.02112370804085C534.954472632881,238.8815897546455,529.1439029831072,252.66211780745073,523.3333333333333,260.180323010324C517.5227636835594,267.6985282131972,511.71219403378547,268.9544105661384,505.8936646995599,268.37510536579737C500.0751353653343,267.79580016545634,494.2486463466569,265.3813074118332,488.4301170124313,262.835825740904C482.6115876782057,260.2903440699747,476.8010180284318,257.6138734817394,470.9904483786579,257.53455291630394C465.179878728884,257.45523235086847,459.3693090791101,259.9730618082328,453.5587394293363,261.8118784976993C447.7481697795624,263.6506951871658,441.9376001297885,264.8104991087344,433.21378597067593,267.7004010695187C424.4899718115633,270.590303030303,412.85291314311206,275.210303030303,404.1290989839995,276.3536363636363C395.4052848248869,277.4969696969697,389.5947151751131,275.1636363636364,383.78414552533917,274.9886363636363C377.9735758755653,274.81363636363636,372.1630062257914,276.79696969696965,366.34447689156576,277.67196969696965C360.5259475573401,278.54696969696965,354.6994585386628,278.31363636363636,348.8809292044371,278.4886363636363C343.06239987021155,278.6636363636364,337.2518302204376,279.2469696969697,331.44126057066376,278.37196969696964C325.6306909208899,277.4969696969697,319.82012127111597,275.1636363636364,314.0095516213421,274.68636363636364C308.19898197156823,274.2090909090909,302.3884123217943,275.58787878787876,293.6645981626818,276.39393939393943C284.94078400356915,277.20000000000005,273.3037253351179,277.43333333333334,258.76138184177967,277.55C244.21903834844147,277.6666666666667,226.77141003021634,277.6666666666667,212.23702622132996,277.9388888888889C197.70264241244345,278.21111111111117,186.0815031128957,278.75555555555553,157.0127354951228,279.14444444444445C127.94396787734989,279.53333333333336,81.42757194135184,279.76666666666665,55.26408914846587,279.76666666666665C29.100606355579888,279.76666666666665,23.290036705806006,279.53333333333336,17.471507371580376,279.06666666666666C11.652978037354748,278.59999999999997,5.826489018677374,277.90000000000003,2.913244509338687,277.55L0,277.2Z"><title>Absolute Mobility Measures</title></path><path fill="#cb7729" d="M0,277.2L2.913244509338687,277.55C5.826489018677374,277.90000000000003,11.652978037354748,278.59999999999997,17.471507371580376,279.06666666666666C23.290036705806006,279.53333333333336,29.100606355579888,279.76666666666665,55.264089148465864,279.76666666666665C81.42757194135184,279.76666666666665,127.94396787734989,279.53333333333336,157.0127354951228,279.14444444444445C186.0815031128957,278.75555555555553,197.70264241244345,278.21111111111117,212.2370262213299,277.9388888888889C226.77141003021634,277.6666666666667,244.21903834844147,277.6666666666667,258.76138184177967,277.55C273.3037253351179,277.43333333333334,284.94078400356915,277.20000000000005,293.6645981626817,276.1606060606061C302.3884123217943,275.1212121212122,308.19898197156823,273.2757575757576,314.0095516213421,273.7530303030303C319.82012127111597,274.23030303030305,325.6306909208899,277.030303030303,331.44126057066376,278.13863636363635C337.2518302204376,279.2469696969697,343.06239987021155,278.6636363636364,348.8809292044372,278.4886363636363C354.6994585386628,278.31363636363636,360.5259475573401,278.54696969696965,366.34447689156576,277.67196969696965C372.1630062257914,276.79696969696965,377.9735758755653,274.81363636363636,383.78414552533917,274.9886363636363C389.5947151751131,275.1636363636364,395.4052848248869,277.4969696969697,404.1290989839995,276.3536363636363C412.85291314311206,275.210303030303,424.4899718115633,270.590303030303,433.2137859706759,267.7004010695187C441.9376001297885,264.8104991087344,447.7481697795624,263.6506951871658,453.5587394293363,261.34521183103266C459.3693090791101,259.0397284748995,465.179878728884,255.58856568420182,470.9904483786579,255.6678862496373C476.8010180284318,255.7472068150728,482.6115876782057,259.35701073664137,488.4301170124313,262.3691590742373C494.2486463466569,265.3813074118332,500.0751353653343,267.79580016545634,505.89366469955985,267.44177203246403C511.71219403378547,267.0877438994717,517.5227636835594,263.9651948798639,523.3333333333333,255.74698967699067C529.1439029831072,247.5287844741174,534.954472632881,234.2149230879788,540.7650422826549,230.58779037470745C546.5756119324288,226.96065766143613,552.3861815822028,233.0202536210321,558.2047109164283,231.93553014868485C564.023240250654,230.8508066763376,569.8497292693313,222.62176377204722,575.668258603557,213.12401651345036C581.4867879377827,203.62626925485358,587.2973575875566,192.85981764195037,593.1079272373304,186.9790200915694C598.9184968871042,181.09822254118845,604.7290665368781,180.1030790533297,610.539636186652,178.46232072659112C616.350205836426,176.82156239985252,622.1607754861998,174.53518923423408,627.9793048204255,178.54807609775256C633.797834154651,182.560962961271,639.6243231733284,192.87310985392637,645.4428525075541,187.99475962424154C651.2613818417798,183.11640939455677,657.0719514915536,163.04756204253187,662.8825211413275,144.6434000274978C668.6930907911014,126.23923801246373,674.5036604408753,109.4997613344205,680.3142300906492,104.09190930030843C686.1247997404231,98.68405726619636,691.935369390197,104.60782987601546,697.7538987244226,106.78039326425835C703.5724280586483,108.95295665250124,709.3989170773256,107.37431081916792,715.2174464115511,99.60765244602565C721.0359757457768,91.8409940728834,726.8465453955506,77.88632315993223,732.6571150453245,70.48096912760525C738.4676846950985,63.07561509527827,744.2782543448724,62.21957794357551,750.0888239946462,56.085799216638186C755.89939364442,49.95202048970086,761.7099632941939,38.54050018752898,767.5284926284197,65.81550926721228C773.3470219626452,93.09051834689558,779.1735109813226,159.05205680843406,782.0867554906613,192.03282603920331L785,225.01359526997254L785,227.81359526997252L782.0867554906613,199.49949270586998C779.1735109813226,171.18539014176739,773.3470219626452,114.55718501356226,767.5284926284197,89.84884260054564C761.7099632941939,65.14050018752899,755.89939364442,72.35202048970086,750.0888239946462,77.31913254997153C744.2782543448724,82.28624461024218,738.4676846950985,85.00894842861165,732.6571150453245,90.78096912760527C726.8465453955506,96.55298982659893,721.0359757457768,105.37432740621676,715.2174464115511,111.74098577935901C709.3989170773256,118.10764415250124,703.5724280586483,122.0196233191679,697.7538987244226,120.54705993092502C691.935369390197,119.07449654268214,686.1247997404231,112.21739059952972,680.3142300906492,115.75857596697512C674.5036604408753,119.29976133442051,668.6930907911014,133.23923801246372,662.8825211413275,150.4767333608311C657.0719514915536,167.71422870919852,651.2613818417798,188.2497427278901,645.4428525075541,194.06142629090823C639.6243231733284,199.87310985392637,633.797834154651,190.96096296127098,627.9793048204255,188.58140943108586C622.1607754861998,186.20185590090077,616.350205836426,190.35489573318583,610.539636186652,191.99565405992448C604.7290665368781,193.636412386663,598.9184968871042,192.76488920785508,593.1079272373304,197.4790200915694C587.2973575875566,202.19315097528371,581.4867879377827,212.49293592152026,575.668258603557,221.05734984678372C569.8497292693313,229.62176377204722,564.023240250654,236.4508066763377,558.2047109164283,236.83553014868494C552.3861815822028,237.22025362103216,546.5756119324288,231.16065766143618,540.7650422826549,235.02112370804085C534.954472632881,238.8815897546455,529.1439029831072,252.66211780745073,523.3333333333333,260.180323010324C517.5227636835594,267.6985282131972,511.71219403378547,268.9544105661384,505.8936646995599,268.37510536579737C500.0751353653343,267.79580016545634,494.2486463466569,265.3813074118332,488.4301170124313,262.60249240757065C482.6115876782057,259.82367740330807,476.8010180284318,256.6805401484061,470.9904483786579,256.60121958297066C465.179878728884,256.5218990175352,459.3693090791101,259.50639514156614,453.5587394293363,261.57854516436595C447.7481697795624,263.6506951871658,441.9376001297885,264.8104991087344,433.21378597067593,267.7004010695187C424.4899718115633,270.590303030303,412.85291314311206,275.210303030303,404.1290989839995,276.3536363636363C395.4052848248869,277.4969696969697,389.5947151751131,275.1636363636364,383.78414552533917,274.9886363636363C377.9735758755653,274.81363636363636,372.1630062257914,276.79696969696965,366.34447689156576,277.67196969696965C360.5259475573401,278.54696969696965,354.6994585386628,278.31363636363636,348.8809292044371,278.4886363636363C343.06239987021155,278.6636363636364,337.2518302204376,279.2469696969697,331.44126057066376,278.37196969696964C325.6306909208899,277.4969696969697,319.82012127111597,275.1636363636364,314.0095516213421,274.68636363636364C308.19898197156823,274.2090909090909,302.3884123217943,275.58787878787876,293.6645981626818,276.39393939393943C284.94078400356915,277.20000000000005,273.3037253351179,277.43333333333334,258.76138184177967,277.55C244.21903834844147,277.6666666666667,226.77141003021634,277.6666666666667,212.23702622132996,277.9388888888889C197.70264241244345,278.21111111111117,186.0815031128957,278.75555555555553,157.0127354951228,279.14444444444445C127.94396787734989,279.53333333333336,81.42757194135184,279.76666666666665,55.26408914846587,279.76666666666665C29.100606355579888,279.76666666666665,23.290036705806006,279.53333333333336,17.471507371580376,279.06666666666666C11.652978037354748,278.59999999999997,5.826489018677374,277.90000000000003,2.913244509338687,277.55L0,277.2Z"><title>Transition Matrix / Probability Measures</title></path><path fill="#f4e1a1" d="M0,277.2L2.913244509338687,277.55C5.826489018677374,277.90000000000003,11.652978037354748,278.59999999999997,17.471507371580376,278.8333333333333C23.290036705806006,279.06666666666666,29.100606355579888,278.8333333333333,55.264089148465864,278.8333333333333C81.42757194135184,278.8333333333333,127.94396787734989,279.06666666666666,157.0127354951228,278.91111111111115C186.0815031128957,278.75555555555553,197.70264241244345,278.21111111111117,212.2370262213299,277.9388888888889C226.77141003021634,277.6666666666667,244.21903834844147,277.6666666666667,258.76138184177967,277.55C273.3037253351179,277.43333333333334,284.94078400356915,277.20000000000005,293.6645981626817,276.1606060606061C302.3884123217943,275.1212121212122,308.19898197156823,273.2757575757576,314.0095516213421,273.7530303030303C319.82012127111597,274.23030303030305,325.6306909208899,277.030303030303,331.44126057066376,278.13863636363635C337.2518302204376,279.2469696969697,343.06239987021155,278.6636363636364,348.8809292044372,278.25530303030297C354.6994585386628,277.84696969696967,360.5259475573401,277.6136363636363,366.34447689156576,276.505303030303C372.1630062257914,275.39696969696973,377.9735758755653,273.4136363636364,383.78414552533917,273.8219696969697C389.5947151751131,274.23030303030305,395.4052848248869,277.030303030303,404.1290989839995,275.8869696969697C412.85291314311206,274.74363636363637,424.4899718115633,269.6569696969697,433.2137859706759,266.0670677361854C441.9376001297885,262.4771657754011,447.7481697795624,260.38402852049916,453.5587394293363,258.07854516436595C459.3693090791101,255.77306180823282,465.179878728884,253.25523235086848,470.9904483786579,254.03455291630397C476.8010180284318,254.81387348173948,482.6115876782057,258.89034406997473,488.4301170124313,261.9024924075706C494.2486463466569,264.91464074516654,500.0751353653343,266.86246683212306,505.89366469955985,266.04177203246405C511.71219403378547,265.22107723280504,517.5227636835594,261.6318615465305,523.3333333333333,252.48032301032399C529.1439029831072,243.32878447411744,534.954472632881,228.6149230879788,540.7650422826549,224.2877903747075C546.5756119324288,219.96065766143616,552.3861815822028,226.02025362103214,558.2047109164283,225.40219681535157C564.023240250654,224.784140009671,569.8497292693313,217.4884304387139,575.668258603557,207.52401651345042C581.4867879377827,197.5596025881869,587.2973575875566,184.926484308617,593.1079272373304,179.04568675823603C598.9184968871042,173.16488920785505,604.7290665368781,174.036412386663,610.539636186652,172.8623207265911C616.350205836426,171.68822906651917,622.1607754861998,168.4685225675674,627.9793048204255,172.71474276441919C633.797834154651,176.96096296127098,639.6243231733284,188.67310985392632,645.4428525075541,182.86142629090818C651.2613818417798,177.04974272789005,657.0719514915536,153.7142287091985,662.8825211413275,134.61006669416443C668.6930907911014,115.50590467913037,674.5036604408753,100.63309466775384,680.3142300906492,94.52524263364177C686.1247997404231,88.41739059952971,691.935369390197,91.07449654268214,697.7538987244226,92.08039326425835C703.5724280586483,93.08628998583457,709.3989170773256,92.44097748583458,715.2174464115511,83.04098577935899C721.0359757457768,73.6409940728834,726.8465453955506,55.486323159932226,732.6571150453245,47.38096912760526C738.4676846950985,39.27561509527829,744.2782543448724,41.21957794357552,750.0888239946462,36.252465883304865C755.89939364442,31.285353823034214,761.7099632941939,19.40716685419568,767.5284926284197,49.715509267212305C773.3470219626452,80.02385168022894,779.1735109813226,152.51872347510076,782.0867554906613,188.76615937253663L785,225.01359526997254L785,225.01359526997254L782.0867554906613,192.0328260392033C779.1735109813226,159.05205680843406,773.3470219626452,93.09051834689558,767.5284926284197,65.81550926721228C761.7099632941939,38.54050018752898,755.89939364442,49.95202048970086,750.0888239946462,56.085799216638186C744.2782543448724,62.21957794357551,738.4676846950985,63.07561509527827,732.6571150453245,70.48096912760526C726.8465453955506,77.88632315993223,721.0359757457768,91.8409940728834,715.2174464115511,99.60765244602567C709.3989170773256,107.37431081916792,703.5724280586483,108.95295665250124,697.7538987244226,106.78039326425835C691.935369390197,104.60782987601546,686.1247997404231,98.68405726619636,680.3142300906492,104.09190930030843C674.5036604408753,109.4997613344205,668.6930907911014,126.23923801246373,662.8825211413275,144.6434000274978C657.0719514915536,163.04756204253187,651.2613818417798,183.11640939455677,645.4428525075541,187.99475962424154C639.6243231733284,192.87310985392637,633.797834154651,182.560962961271,627.9793048204255,178.54807609775256C622.1607754861998,174.53518923423408,616.350205836426,176.82156239985252,610.539636186652,178.46232072659117C604.7290665368781,180.1030790533297,598.9184968871042,181.09822254118845,593.1079272373304,186.97902009156942C587.2973575875566,192.85981764195037,581.4867879377827,203.62626925485358,575.668258603557,213.12401651345036C569.8497292693313,222.62176377204722,564.023240250654,230.8508066763376,558.2047109164283,231.93553014868488C552.3861815822028,233.0202536210321,546.5756119324288,226.96065766143613,540.7650422826549,230.58779037470745C534.954472632881,234.2149230879788,529.1439029831072,247.5287844741174,523.3333333333333,255.74698967699067C517.5227636835594,263.9651948798639,511.71219403378547,267.0877438994717,505.8936646995599,267.44177203246403C500.0751353653343,267.79580016545634,494.2486463466569,265.3813074118332,488.4301170124313,262.3691590742373C482.6115876782057,259.35701073664137,476.8010180284318,255.7472068150728,470.9904483786579,255.6678862496373C465.179878728884,255.58856568420182,459.3693090791101,259.0397284748995,453.5587394293363,261.34521183103266C447.7481697795624,263.6506951871658,441.9376001297885,264.8104991087344,433.21378597067593,267.7004010695187C424.4899718115633,270.590303030303,412.85291314311206,275.210303030303,404.1290989839995,276.3536363636363C395.4052848248869,277.4969696969697,389.5947151751131,275.1636363636364,383.78414552533917,274.9886363636363C377.9735758755653,274.81363636363636,372.1630062257914,276.79696969696965,366.34447689156576,277.67196969696965C360.5259475573401,278.54696969696965,354.6994585386628,278.31363636363636,348.8809292044371,278.4886363636363C343.06239987021155,278.6636363636364,337.2518302204376,279.2469696969697,331.44126057066376,278.13863636363635C325.6306909208899,277.030303030303,319.82012127111597,274.23030303030305,314.0095516213421,273.7530303030303C308.19898197156823,273.2757575757576,302.3884123217943,275.1212121212122,293.6645981626818,276.1606060606061C284.94078400356915,277.20000000000005,273.3037253351179,277.43333333333334,258.76138184177967,277.55C244.21903834844147,277.6666666666667,226.77141003021634,277.6666666666667,212.23702622132996,277.9388888888889C197.70264241244345,278.21111111111117,186.0815031128957,278.75555555555553,157.0127354951228,279.14444444444445C127.94396787734989,279.53333333333336,81.42757194135184,279.76666666666665,55.26408914846587,279.76666666666665C29.100606355579888,279.76666666666665,23.290036705806006,279.53333333333336,17.471507371580376,279.06666666666666C11.652978037354748,278.59999999999997,5.826489018677374,277.90000000000003,2.913244509338687,277.55L0,277.2Z"><title>Others</title></path><path fill="#005f56" d="M0,277.2L2.913244509338687,277.55C5.826489018677374,277.90000000000003,11.652978037354748,278.59999999999997,17.471507371580376,278.8333333333333C23.290036705806006,279.06666666666666,29.100606355579888,278.8333333333333,55.264089148465864,278.8333333333333C81.42757194135184,278.8333333333333,127.94396787734989,279.06666666666666,157.0127354951228,278.91111111111115C186.0815031128957,278.75555555555553,197.70264241244345,278.21111111111117,212.2370262213299,277.9388888888889C226.77141003021634,277.6666666666667,244.21903834844147,277.6666666666667,258.76138184177967,277.55C273.3037253351179,277.43333333333334,284.94078400356915,277.20000000000005,293.6645981626817,276.1606060606061C302.3884123217943,275.1212121212122,308.19898197156823,273.2757575757576,314.0095516213421,273.7530303030303C319.82012127111597,274.23030303030305,325.6306909208899,277.030303030303,331.44126057066376,278.13863636363635C337.2518302204376,279.2469696969697,343.06239987021155,278.6636363636364,348.8809292044372,278.25530303030297C354.6994585386628,277.84696969696967,360.5259475573401,277.6136363636363,366.34447689156576,276.505303030303C372.1630062257914,275.39696969696973,377.9735758755653,273.4136363636364,383.78414552533917,273.8219696969697C389.5947151751131,274.23030303030305,395.4052848248869,277.030303030303,404.1290989839995,275.8869696969697C412.85291314311206,274.74363636363637,424.4899718115633,269.6569696969697,433.2137859706759,265.83373440285203C441.9376001297885,262.0104991087344,447.7481697795624,259.45069518716576,453.5587394293363,257.1452118310326C459.3693090791101,254.8397284748995,465.179878728884,252.7885656842018,470.9904483786579,253.80121958297062C476.8010180284318,254.81387348173948,482.6115876782057,258.89034406997473,488.4301170124313,261.6691590742373C494.2486463466569,264.44797407849984,500.0751353653343,265.9291334987897,505.89366469955985,265.1084386991307C511.71219403378547,264.2877438994717,517.5227636835594,261.16519487986386,523.3333333333333,252.24698967699064C529.1439029831072,243.32878447411744,534.954472632881,228.6149230879788,540.7650422826549,224.2877903747075C546.5756119324288,219.96065766143616,552.3861815822028,226.02025362103214,558.2047109164283,225.40219681535157C564.023240250654,224.784140009671,569.8497292693313,217.4884304387139,575.668258603557,207.2906831801171C581.4867879377827,197.09293592152025,587.2973575875566,183.9931509752837,593.1079272373304,177.8790200915694C598.9184968871042,171.76488920785513,604.7290665368781,172.63641238666307,610.539636186652,170.99565405992448C616.350205836426,169.35489573318588,622.1607754861998,165.20185590090077,627.9793048204255,169.44807609775256C633.797834154651,173.69429629460433,639.6243231733284,186.339776520593,645.4428525075541,180.52809295757493C651.2613818417798,174.7164093945568,657.0719514915536,150.44756204253187,662.8825211413275,130.87673336083114C668.6930907911014,111.30590467913039,674.5036604408753,96.43309466775383,680.3142300906492,90.09190930030843C686.1247997404231,83.75072393286304,691.935369390197,85.94116320934882,697.7538987244226,86.48039326425838C703.5724280586483,87.01962331916793,709.3989170773256,85.90764415250128,715.2174464115511,76.97431911269234C721.0359757457768,68.04099407288342,726.8465453955506,51.28632315993224,732.6571150453245,44.114302460938596C738.4676846950985,36.94228176194494,744.2782543448724,39.35291127690883,750.0888239946462,34.6191325499715C755.89939364442,29.88535382303418,761.7099632941939,18.007166854195646,767.5284926284197,48.54884260054562C773.3470219626452,79.09051834689559,779.1735109813226,152.05205680843406,782.0867554906613,188.53282603920331L785,225.01359526997254L785,225.01359526997254L782.0867554906613,188.76615937253663C779.1735109813226,152.51872347510076,773.3470219626452,80.02385168022894,767.5284926284197,49.715509267212305C761.7099632941939,19.40716685419568,755.89939364442,31.285353823034214,750.0888239946462,36.25246588330487C744.2782543448724,41.21957794357552,738.4676846950985,39.27561509527829,732.6571150453245,47.38096912760526C726.8465453955506,55.486323159932226,721.0359757457768,73.6409940728834,715.2174464115511,83.04098577935899C709.3989170773256,92.44097748583458,703.5724280586483,93.08628998583457,697.7538987244226,92.08039326425835C691.935369390197,91.07449654268214,686.1247997404231,88.41739059952971,680.3142300906492,94.52524263364178C674.5036604408753,100.63309466775384,668.6930907911014,115.50590467913037,662.8825211413275,134.61006669416443C657.0719514915536,153.7142287091985,651.2613818417798,177.04974272789005,645.4428525075541,182.86142629090818C639.6243231733284,188.67310985392632,633.797834154651,176.96096296127098,627.9793048204255,172.71474276441919C622.1607754861998,168.4685225675674,616.350205836426,171.68822906651917,610.539636186652,172.8623207265911C604.7290665368781,174.036412386663,598.9184968871042,173.16488920785505,593.1079272373304,179.04568675823603C587.2973575875566,184.926484308617,581.4867879377827,197.5596025881869,575.668258603557,207.5240165134504C569.8497292693313,217.4884304387139,564.023240250654,224.784140009671,558.2047109164283,225.40219681535157C552.3861815822028,226.02025362103214,546.5756119324288,219.96065766143616,540.7650422826549,224.2877903747075C534.954472632881,228.6149230879788,529.1439029831072,243.32878447411744,523.3333333333333,252.48032301032399C517.5227636835594,261.6318615465305,511.71219403378547,265.22107723280504,505.8936646995599,266.04177203246405C500.0751353653343,266.86246683212306,494.2486463466569,264.91464074516654,488.4301170124313,261.9024924075706C482.6115876782057,258.89034406997473,476.8010180284318,254.81387348173948,470.9904483786579,254.03455291630397C465.179878728884,253.25523235086848,459.3693090791101,255.77306180823282,453.5587394293363,258.07854516436595C447.7481697795624,260.38402852049916,441.9376001297885,262.4771657754011,433.21378597067593,266.0670677361854C424.4899718115633,269.6569696969697,412.85291314311206,274.74363636363637,404.1290989839995,275.8869696969697C395.4052848248869,277.030303030303,389.5947151751131,274.23030303030305,383.78414552533917,273.8219696969697C377.9735758755653,273.4136363636364,372.1630062257914,275.39696969696973,366.34447689156576,276.505303030303C360.5259475573401,277.6136363636363,354.6994585386628,277.84696969696967,348.8809292044371,278.255303030303C343.06239987021155,278.6636363636364,337.2518302204376,279.2469696969697,331.44126057066376,278.13863636363635C325.6306909208899,277.030303030303,319.82012127111597,274.23030303030305,314.0095516213421,273.7530303030303C308.19898197156823,273.2757575757576,302.3884123217943,275.1212121212122,293.6645981626818,276.1606060606061C284.94078400356915,277.20000000000005,273.3037253351179,277.43333333333334,258.76138184177967,277.55C244.21903834844147,277.6666666666667,226.77141003021634,277.6666666666667,212.23702622132996,277.9388888888889C197.70264241244345,278.21111111111117,186.0815031128957,278.75555555555553,157.0127354951228,278.9111111111111C127.94396787734989,279.06666666666666,81.42757194135184,278.8333333333333,55.26408914846587,278.8333333333333C29.100606355579888,278.8333333333333,23.290036705806006,279.06666666666666,17.471507371580376,278.83333333333337C11.652978037354748,278.59999999999997,5.826489018677374,277.90000000000003,2.913244509338687,277.55L0,277.2Z"><title>Non‐parametric Approaches</title></path><path fill="#f7a7a1" d="M0,277.2L2.913244509338687,277.55C5.826489018677374,277.90000000000003,11.652978037354748,278.59999999999997,17.471507371580376,278.8333333333333C23.290036705806006,279.06666666666666,29.100606355579888,278.8333333333333,55.264089148465864,278.8333333333333C81.42757194135184,278.8333333333333,127.94396787734989,279.06666666666666,157.0127354951228,278.91111111111115C186.0815031128957,278.75555555555553,197.70264241244345,278.21111111111117,212.2370262213299,277.9388888888889C226.77141003021634,277.6666666666667,244.21903834844147,277.6666666666667,258.76138184177967,277.55C273.3037253351179,277.43333333333334,284.94078400356915,277.20000000000005,293.6645981626817,276.1606060606061C302.3884123217943,275.1212121212122,308.19898197156823,273.2757575757576,314.0095516213421,273.7530303030303C319.82012127111597,274.23030303030305,325.6306909208899,277.030303030303,331.44126057066376,278.13863636363635C337.2518302204376,279.2469696969697,343.06239987021155,278.6636363636364,348.8809292044372,278.25530303030297C354.6994585386628,277.84696969696967,360.5259475573401,277.6136363636363,366.34447689156576,276.505303030303C372.1630062257914,275.39696969696973,377.9735758755653,273.4136363636364,383.78414552533917,273.8219696969697C389.5947151751131,274.23030303030305,395.4052848248869,277.030303030303,404.1290989839995,275.8869696969697C412.85291314311206,274.74363636363637,424.4899718115633,269.6569696969697,433.2137859706759,265.83373440285203C441.9376001297885,262.0104991087344,447.7481697795624,259.45069518716576,453.5587394293363,257.1452118310326C459.3693090791101,254.8397284748995,465.179878728884,252.7885656842018,470.9904483786579,253.80121958297062C476.8010180284318,254.81387348173948,482.6115876782057,258.89034406997473,488.4301170124313,261.6691590742373C494.2486463466569,264.44797407849984,500.0751353653343,265.9291334987897,505.89366469955985,265.1084386991307C511.71219403378547,264.2877438994717,517.5227636835594,261.16519487986386,523.3333333333333,252.24698967699064C529.1439029831072,243.32878447411744,534.954472632881,228.6149230879788,540.7650422826549,224.2877903747075C546.5756119324288,219.96065766143616,552.3861815822028,226.02025362103214,558.2047109164283,225.40219681535157C564.023240250654,224.784140009671,569.8497292693313,217.4884304387139,575.668258603557,207.2906831801171C581.4867879377827,197.09293592152025,587.2973575875566,183.9931509752837,593.1079272373304,177.8790200915694C598.9184968871042,171.76488920785513,604.7290665368781,172.63641238666307,610.539636186652,170.99565405992448C616.350205836426,169.35489573318588,622.1607754861998,165.20185590090077,627.9793048204255,169.44807609775256C633.797834154651,173.69429629460433,639.6243231733284,186.339776520593,645.4428525075541,180.52809295757493C651.2613818417798,174.7164093945568,657.0719514915536,150.44756204253187,662.8825211413275,130.6434000274978C668.6930907911014,110.83923801246374,674.5036604408753,95.49976133442051,680.3142300906492,89.1585759669751C686.1247997404231,82.81739059952973,691.935369390197,85.47449654268216,697.7538987244226,86.24705993092505C703.5724280586483,87.01962331916793,709.3989170773256,85.90764415250128,715.2174464115511,76.74098577935902C721.0359757457768,67.57432740621677,726.8465453955506,50.35298982659893,732.6571150453245,43.18096912760527C738.4676846950985,36.00894842861163,744.2782543448724,38.88624461024217,750.0888239946462,33.68579921663818C755.89939364442,28.48535382303419,761.7099632941939,15.207166854195664,767.5284926284197,45.748842600545636C773.3470219626452,76.29051834689561,779.1735109813226,150.65205680843408,782.0867554906613,187.8328260392033L785,225.01359526997254L785,225.01359526997254L782.0867554906613,188.5328260392033C779.1735109813226,152.05205680843406,773.3470219626452,79.09051834689559,767.5284926284197,48.54884260054562C761.7099632941939,18.007166854195646,755.89939364442,29.88535382303418,750.0888239946462,34.6191325499715C744.2782543448724,39.35291127690883,738.4676846950985,36.94228176194494,732.6571150453245,44.114302460938596C726.8465453955506,51.28632315993224,721.0359757457768,68.04099407288342,715.2174464115511,76.97431911269234C709.3989170773256,85.90764415250128,703.5724280586483,87.01962331916793,697.7538987244226,86.48039326425838C691.935369390197,85.94116320934882,686.1247997404231,83.75072393286304,680.3142300906492,90.09190930030843C674.5036604408753,96.43309466775383,668.6930907911014,111.30590467913039,662.8825211413275,130.87673336083114C657.0719514915536,150.44756204253187,651.2613818417798,174.7164093945568,645.4428525075541,180.5280929575749C639.6243231733284,186.339776520593,633.797834154651,173.69429629460433,627.9793048204255,169.44807609775256C622.1607754861998,165.20185590090077,616.350205836426,169.35489573318588,610.539636186652,170.99565405992448C604.7290665368781,172.63641238666307,598.9184968871042,171.76488920785513,593.1079272373304,177.8790200915694C587.2973575875566,183.9931509752837,581.4867879377827,197.09293592152025,575.668258603557,207.2906831801171C569.8497292693313,217.4884304387139,564.023240250654,224.784140009671,558.2047109164283,225.40219681535157C552.3861815822028,226.02025362103214,546.5756119324288,219.96065766143616,540.7650422826549,224.2877903747075C534.954472632881,228.6149230879788,529.1439029831072,243.32878447411744,523.3333333333333,252.24698967699064C517.5227636835594,261.16519487986386,511.71219403378547,264.2877438994717,505.8936646995599,265.1084386991307C500.0751353653343,265.9291334987897,494.2486463466569,264.44797407849984,488.4301170124313,261.6691590742373C482.6115876782057,258.89034406997473,476.8010180284318,254.81387348173948,470.9904483786579,253.80121958297067C465.179878728884,252.7885656842018,459.3693090791101,254.8397284748995,453.5587394293363,257.1452118310326C447.7481697795624,259.45069518716576,441.9376001297885,262.0104991087344,433.21378597067593,265.83373440285203C424.4899718115633,269.6569696969697,412.85291314311206,274.74363636363637,404.1290989839995,275.8869696969697C395.4052848248869,277.030303030303,389.5947151751131,274.23030303030305,383.78414552533917,273.8219696969697C377.9735758755653,273.4136363636364,372.1630062257914,275.39696969696973,366.34447689156576,276.505303030303C360.5259475573401,277.6136363636363,354.6994585386628,277.84696969696967,348.8809292044371,278.255303030303C343.06239987021155,278.6636363636364,337.2518302204376,279.2469696969697,331.44126057066376,278.13863636363635C325.6306909208899,277.030303030303,319.82012127111597,274.23030303030305,314.0095516213421,273.7530303030303C308.19898197156823,273.2757575757576,302.3884123217943,275.1212121212122,293.6645981626818,276.1606060606061C284.94078400356915,277.20000000000005,273.3037253351179,277.43333333333334,258.76138184177967,277.55C244.21903834844147,277.6666666666667,226.77141003021634,277.6666666666667,212.23702622132996,277.9388888888889C197.70264241244345,278.21111111111117,186.0815031128957,278.75555555555553,157.0127354951228,278.9111111111111C127.94396787734989,279.06666666666666,81.42757194135184,278.8333333333333,55.26408914846587,278.8333333333333C29.100606355579888,278.8333333333333,23.290036705806006,279.06666666666666,17.471507371580376,278.83333333333337C11.652978037354748,278.59999999999997,5.826489018677374,277.90000000000003,2.913244509338687,277.55L0,277.2Z"><title>Multigenerational Measures</title></path></g><g id="xAxis" transform="translate(0,560)" fill="none" font-size="10" font-family="sans-serif" text-anchor="middle"><path class="domain" stroke="currentColor" d="M0,0H785"/><g class="tick" opacity="1" transform="translate(0,0)"><line stroke="currentColor" y2="6"/><text fill="currentColor" y="9" dy="0.71em">1980</text></g><g class="tick" opacity="1" transform="translate(87.25406096002921,0)"><line stroke="currentColor" y2="6"/><text fill="currentColor" y="9" dy="0.71em">1985</text></g><g class="tick" opacity="1" transform="translate(174.46036381334795,0)"><line stroke="currentColor" y2="6"/><text fill="currentColor" y="9" dy="0.71em">1990</text></g><g class="tick" opacity="1" transform="translate(261.66666666666663,0)"><line stroke="currentColor" y2="6"/><text fill="currentColor" y="9" dy="0.71em">1995</text></g><g class="tick" opacity="1" transform="translate(348.8729695199854,0)"><line stroke="currentColor" y2="6"/><text fill="currentColor" y="9" dy="0.71em">2000</text></g><g class="tick" opacity="1" transform="translate(436.12703048001464,0)"><line stroke="currentColor" y2="6"/><text fill="currentColor" y="9" dy="0.71em">2005</text></g><g class="tick" opacity="1" transform="translate(523.3333333333333,0)"><line stroke="currentColor" y2="6"/><text fill="currentColor" y="9" dy="0.71em">2010</text></g><g class="tick" opacity="1" transform="translate(610.539636186652,0)"><line stroke="currentColor" y2="6"/><text fill="currentColor" y="9" dy="0.71em">2015</text></g><g class="tick" opacity="1" transform="translate(697.7459390399708,0)"><line stroke="currentColor" y2="6"/><text fill="currentColor" y="9" dy="0.71em">2020</text></g><g class="tick" opacity="1" transform="translate(785,0)"><line stroke="currentColor" y2="6"/><text fill="currentColor" y="9" dy="0.71em">2025</text></g></g><g id="yAxis" fill="none" font-size="10" font-family="sans-serif" text-anchor="end"><path class="domain" stroke="currentColor" d="M0,560V0"/><g class="tick" opacity="1" transform="translate(0,560)"><line stroke="currentColor" x2="-6"/><text fill="currentColor" x="-9" dy="0.32em">−200</text></g><g class="tick" opacity="1" transform="translate(0,490)"><line stroke="currentColor" x2="-6"/><text fill="currentColor" x="-9" dy="0.32em">−150</text></g><g class="tick" opacity="1" transform="translate(0,420)"><line stroke="currentColor" x2="-6"/><text fill="currentColor" x="-9" dy="0.32em">−100</text></g><g class="tick" opacity="1" transform="translate(0,350)"><line stroke="currentColor" x2="-6"/><text fill="currentColor" x="-9" dy="0.32em">−50</text></g><g class="tick" opacity="1" transform="translate(0,280)"><line stroke="currentColor" x2="-6"/><text fill="currentColor" x="-9" dy="0.32em">0</text></g><g class="tick" opacity="1" transform="translate(0,210)"><line stroke="currentColor" x2="-6"/><text fill="currentColor" x="-9" dy="0.32em">50</text></g><g class="tick" opacity="1" transform="translate(0,140)"><line stroke="currentColor" x2="-6"/><text fill="currentColor" x="-9" dy="0.32em">100</text></g><g class="tick" opacity="1" transform="translate(0,70)"><line stroke="currentColor" x2="-6"/><text fill="currentColor" x="-9" dy="0.32em">150</text></g><g class="tick" opacity="1" transform="translate(0,0)"><line stroke="currentColor" x2="-6"/><text fill="currentColor" x="-9" dy="0.32em">200</text></g></g><text y="556" x="785" text-anchor="end" style="font-family: Arial, sans-serif; font-size: 12px; fill: rgb(123, 123, 123); font-weight: bold;">citing_year</text><text x="4" text-anchor="start" dominant-baseline="hanging" style="font-family: Arial, sans-serif; font-size: 12px; fill: rgb(123, 123, 123); font-weight: bold;">citation_count</text><g id="labels"><text x="767.5205329439679" y="186.02897988535713" text-anchor="middle" alignment-baseline="middle" style="font-family: Arial, sans-serif; font-size: 10px; fill: black; font-weight: bold;">Rank‐based Measures</text><text x="680.3142300906492" y="344.7602846563772" text-anchor="middle" alignment-baseline="middle" style="font-family: Arial, sans-serif; font-size: 10px; fill: black; font-weight: bold;">Regression‐based Measures</text><text x="750.0888239946462" y="134.16354079187275" text-anchor="middle" alignment-baseline="middle" style="font-family: Arial, sans-serif; font-size: 10px; fill: black; font-weight: bold;">Decomposition / Structural Approaches</text><text x="767.5205329439679" y="77.52897988535715" text-anchor="middle" alignment-baseline="middle" style="font-family: Arial, sans-serif; font-size: 10px; fill: black; font-weight: bold;">Absolute Mobility Measures</text><text x="767.5205329439679" y="42.528979885357145" text-anchor="middle" alignment-baseline="middle" style="font-family: Arial, sans-serif; font-size: 10px; fill: black; font-weight: bold;">Transition Matrix / Probability Measures</text><text x="732.6571150453245" y="50.63165224698109" text-anchor="middle" alignment-baseline="middle" style="font-family: Arial, sans-serif; font-size: 10px; fill: black; font-weight: bold;">Others</text><text x="715.2254060960029" y="88.29566498583459" text-anchor="middle" alignment-baseline="middle" style="font-family: Arial, sans-serif; font-size: 10px; fill: black; font-weight: bold;">Non‐parametric Approaches</text><text x="767.5205329439679" y="4.028979885357096" text-anchor="middle" alignment-baseline="middle" style="font-family: Arial, sans-serif; font-size: 10px; fill: black; font-weight: bold;">Multigenerational Measures</text></g></g><text x="4" y="4" style="font-family: Arial, sans-serif; font-size: 12px; fill: black; font-weight: bold; dominant-baseline: hanging;"/></g></g></svg>