<?xml version="1.0" encoding="UTF-8"?>
<svg id="Layer_1" xmlns="http://www.w3.org/2000/svg" version="1.1" viewBox="0 0 1005 600">
  <!-- Generator: Adobe Illustrator 29.1.0, SVG Export Plug-In . SVG Version: 2.1.0 Build 142)  -->
  <defs>
    <style>
      .st0 {
        fill: #cb7729;
      }

      .st1 {
        fill: #f4a988;
      }

      .st2 {
        fill: #c04e3f;
      }

      .st3 {
        fill: #b5dba5;
      }

      .st4 {
        font-family: MyriadPro-Regular, 'Myriad Pro';
      }

      .st5, .st6 {
        font-family: TimesNewRomanPSMT, 'Times New Roman';
      }

      .st7 {
        fill: #f4e1a1;
      }

      .st8, .st6 {
        font-size: 12px;
        isolation: isolate;
      }

      .st9 {
        fill: #ffc3c2;
      }

      .st10 {
        fill: #f9ed3a;
        stroke: #675e5d;
        stroke-linecap: square;
        stroke-miterlimit: 10;
      }

      .st11 {
        fill: #005f56;
      }

      .st12 {
        fill: #399;
      }

      .st13 {
        fill: none;
        stroke: #000;
      }
    </style>
  </defs>
  <path class="st1" d="M93.6,364.6l2.9.3c2.9.4,8.7,1.1,14.6,1.3,5.8.2,11.6,0,37.8,0s72.7.2,101.7,0c29.1-.2,40.7-.7,55.2-1,14.5-.3,32-.3,46.5-.4,14.5-.1,26.2-.3,34.9-1.2,8.7-.8,14.5-2.2,20.3-1.7,5.8.5,11.6,2.8,17.4,3.7s11.6.3,17.4.1c5.8-.2,11.6,0,17.5-.9,5.8-.9,11.6-3,17.4-2.6s11.6,3.2,20.3,2c8.7-1.1,20.4-6.2,29.1-10,8.7-3.7,14.5-6.1,20.3-8.1,5.8-2,11.6-3.5,17.4-2.8s11.6,3.9,17.4,6.2c5.8,2.4,11.6,4,17.5,4,5.8,0,11.6-1.4,17.4-9.7,5.8-8.3,11.6-23.5,17.4-27.9,5.8-4.5,11.6,1.7,17.4,1.7,5.8,0,11.6-6.4,17.5-15.6,5.8-9.2,11.6-21.2,17.4-26.2,5.8-5.1,11.6-3.1,17.4-4.5,5.8-1.3,11.6-5.9,17.4-3.6,5.8,2.3,11.6,11.6,17.5,4.9,5.8-6.7,11.6-29.4,17.4-46.3,5.8-16.9,11.6-28.2,17.4-30.7,5.8-2.5,11.6,3.6,17.4,5.3s11.6-1.2,17.5-5.8c5.8-4.6,11.6-10.9,17.4-14.7,5.8-3.8,11.6-5.1,17.4-9.6,5.8-4.5,11.6-12.3,17.4,8.4,5.8,20.7,11.6,69.8,14.6,94.4l2.9,24.6v7l-2.9-8.7c-2.9-8.7-8.7-26.1-14.6-37.9s-11.6-18-17.4-20.3c-5.8-2.2-11.6-.5-17.4,1.9-5.8,2.4-11.6,5.5-17.4,7.7-5.8,2.2-11.6,3.7-17.5,1.3-5.8-2.4-11.6-8.5-17.4-5-5.8,3.5-11.6,16.5-17.4,30-5.8,13.4-11.6,27.3-17.4,29.3-5.8,2-11.6-7.7-17.5-11.2-5.8-3.5-11.6-.8-17.4-2.5-5.8-1.7-11.6-7.8-17.4-5.6-5.8,2.3-11.6,12.9-17.4,20.9-5.8,8-11.6,13.4-17.5,13.2-5.8-.2-11.6-5.9-17.4-1.5-5.8,4.5-11.6,19.2-17.4,27.2-5.8,8.1-11.6,9.5-17.4,9.4-5.8,0-11.6-1.7-17.5-4-5.8-2.4-11.6-5.5-17.4-6.2s-11.6.8-17.4,2.8c-5.8,2-11.6,4.4-20.3,8.1-8.7,3.7-20.4,8.8-29.1,10-8.7,1.1-14.5-1.7-20.3-2s-11.6,1.7-17.4,2.6c-5.8.9-11.6.7-17.5.9-5.8.2-11.6.8-17.4-.1s-11.6-3.2-17.4-3.7c-5.8-.5-11.6.9-20.3,1.7-8.7.8-20.4,1-34.9,1.2-14.5.1-32,.1-46.5.4-14.5.3-26.2.8-55.2,1-29.1.2-75.6,0-101.7,0s-32,.2-37.8,0c-5.8-.2-11.6-.9-14.6-1.3l-2.9-.3Z"/>
  <path class="st3" d="M93.6,367.4h2.9c2.9-.2,8.7-.5,14.6-.5s11.6.2,37.8.2,72.7-.2,101.7-.4c29.1-.2,40.7-.2,55.2-.3,14.5,0,32,0,46.5,0,14.5.1,26.2.4,34.9,0,8.7-.3,14.5-1.3,20.3-1.2,5.8,0,11.6.9,17.4,1.6s11.6,1,17.4,1.3c5.8.3,11.6.5,17.5,0,5.8-.4,11.6-1.6,17.4-1.7,5.8,0,11.6.8,20.3,0s20.4-3.7,29.1-5.3c8.7-1.6,14.5-2.2,20.3-3s11.6-1.9,17.4-2.5c5.8-.6,11.6-.8,17.4.4,5.8,1.2,11.6,3.7,17.5,4.7,5.8,1,11.6.5,17.4-4.5,5.8-5,11.6-14.6,17.4-16.7,5.8-2.1,11.6,3.1,17.4,3.3,5.8.2,11.6-4.8,17.5-9.7s11.6-10,17.4-12.5c5.8-2.5,11.6-2.4,17.4-1.2,5.8,1.2,11.6,3.7,17.4,5.3s11.6,2.5,17.5.9c5.8-1.6,11.6-5.6,17.4-13.4,5.8-7.8,11.6-19.5,17.4-21.8,5.8-2.3,11.6,4.8,17.4,9.7,5.8,4.9,11.6,7.7,17.5,8.9,5.8,1.3,11.6,1,17.4-1.4,5.8-2.4,11.6-7,17.4-6.6,5.8.4,11.6,5.7,17.4,7.7,5.8,2,11.6.7,14.6.1l2.9-.6v18.2l-2.9,40.8c-2.9,40.8-8.7,122.3-14.6,163.7s-11.6,42.6-17.4,40.1c-5.8-2.5-11.6-8.7-17.4-16.5-5.8-7.9-11.6-17.4-17.4-21.2-5.8-3.8-11.6-1.9-17.5,5.5-5.8,7.4-11.6,20.4-17.4,16.2-5.8-4.2-11.6-25.7-17.4-47-5.8-21.3-11.6-42.5-17.4-49.1-5.8-6.6-11.6,1.4-17.5,5.4s-11.6,3.9-17.4,5c-5.8,1.1-11.6,3.4-17.4-1.6-5.8-5-11.6-17.2-17.4-27.7-5.8-10.4-11.6-19-17.5-18.3s-11.6,10.9-17.4,7.6c-5.8-3.2-11.6-19.8-17.4-29-5.8-9.2-11.6-11-17.4-10.2-5.8.9-11.6,4.4-17.5,6.2-5.8,1.8-11.6,2-17.4,1.2-5.8-.8-11.6-2.5-17.4-4.2-5.8-1.8-11.6-3.6-20.3-6.8-8.7-3.3-20.4-8-29.1-9.9-8.7-1.9-14.5-1-20.3-1.8-5.8-.8-11.6-3.4-17.4-4.4-5.8-1-11.6-.3-17.5.2-5.8.4-11.6.5-17.4,1s-11.6,1.5-17.4.7-11.6-3.1-20.3-4.4c-8.7-1.3-20.4-1.5-34.9-1.2-14.5.4-32,1.3-46.5,1.6-14.5.3-26.2-.1-55.2-.4-29.1-.3-75.6-.5-101.7-.5s-32,.2-37.8.2-11.6-.2-14.6-.4h-2.9Z"/>
  <path class="st12" d="M93.6,364.6l2.9.3c2.9.4,8.7,1.1,14.6,1.3,5.8.2,11.6,0,37.8,0s72.7.2,101.7,0c29.1-.2,40.7-.7,55.2-1,14.5-.3,32-.3,46.5-.4,14.5-.1,26.2-.3,34.9-1.2,8.7-.8,14.5-2.2,20.3-1.7,5.8.5,11.6,2.8,17.4,3.7s11.6.3,17.4.1c5.8-.2,11.6,0,17.5-.9,5.8-.9,11.6-3,17.4-2.6s11.6,3.2,20.3,2c8.7-1.1,20.4-6.2,29.1-10,8.7-3.7,14.5-6.1,20.3-8.1,5.8-2,11.6-3.5,17.4-2.8s11.6,3.9,17.4,6.2c5.8,2.4,11.6,4,17.5,4,5.8,0,11.6-1.4,17.4-9.4,5.8-8.1,11.6-22.8,17.4-27.2,5.8-4.5,11.6,1.3,17.4,1.5,5.8.2,11.6-5.2,17.5-13.2,5.8-8,11.6-18.6,17.4-20.9,5.8-2.3,11.6,3.9,17.4,5.6,5.8,1.7,11.6-1,17.4,2.5,5.8,3.5,11.6,13.2,17.5,11.2,5.8-2,11.6-15.9,17.4-29.3,5.8-13.4,11.6-26.5,17.4-30,5.8-3.5,11.6,2.7,17.4,5,5.8,2.4,11.6.9,17.5-1.3,5.8-2.2,11.6-5.3,17.4-7.7,5.8-2.4,11.6-4.2,17.4-1.9,5.8,2.2,11.6,8.5,17.4,20.3s11.6,29.2,14.6,37.9l2.9,8.7v2.8l-2.9-2.9c-2.9-2.9-8.7-8.6-14.6-13.9s-11.6-10.1-17.4-11.9c-5.8-1.8-11.6-.5-17.4,1.7-5.8,2.2-11.6,5.2-17.4,5.2-5.8,0-11.6-3.3-17.5-6.6s-11.6-6.6-17.4-3.4c-5.8,3.2-11.6,13-17.4,22-5.8,9-11.6,17.2-17.4,19.7-5.8,2.5-11.6-.7-17.5-2.6-5.8-1.9-11.6-2.4-17.4-3.7-5.8-1.2-11.6-3.1-17.4-.4-5.8,2.7-11.6,10.1-17.4,15.7s-11.6,9.7-17.5,9-11.6-5.9-17.4-3.1c-5.8,2.8-11.6,13.8-17.4,19.5-5.8,5.7-11.6,6.2-17.4,5.7-5.8-.5-11.6-2.1-17.5-3.1-5.8-1-11.6-1.3-17.4-1.6s-11.6-.6-17.4.2-11.6,2.7-20.3,5.3-20.4,5.8-29.1,6.7-14.5-.5-20.3-.6-11.6,1-17.4,1.7c-5.8.7-11.6.9-17.5.9-5.8,0-11.6-.4-17.4-1s-11.6-1.6-17.4-1.6c-5.8,0-11.6.9-20.3,1.2-8.7.3-20.4.1-34.9,0-14.5-.1-32-.1-46.5,0-14.5,0-26.2.1-55.2,0-29.1,0-75.6-.3-101.7-.3s-32,.2-37.8.5c-5.8.2-11.6.5-14.6.6h-2.9c0,.1,0-2.7,0-2.7Z"/>
  <path class="st2" d="M93.6,364.6l2.9.3c2.9.4,8.7,1.1,14.6,1.3,5.8.2,11.6,0,37.8,0s72.7.2,101.7,0c29.1-.2,40.7-.7,55.2-1,14.5-.3,32-.3,46.5-.4,14.5-.1,26.2-.3,34.9-1.2,8.7-.8,14.5-2.2,20.3-1.7,5.8.5,11.6,2.8,17.4,3.7s11.6.3,17.4.1c5.8-.2,11.6,0,17.5-.9,5.8-.9,11.6-3,17.4-2.6s11.6,3.2,20.3,2c8.7-1.1,20.4-6.2,29.1-10,8.7-3.7,14.5-6.1,20.3-8.3s11.6-4.2,17.4-3.5c5.8.8,11.6,4.3,17.4,6.9,5.8,2.6,11.6,4.2,17.5,4.3,5.8,0,11.6-1.4,17.4-9.7,5.8-8.3,11.6-23.5,17.4-27.9,5.8-4.5,11.6,1.7,17.4,1.7,5.8,0,11.6-6.4,17.5-15.8,5.8-9.4,11.6-21.9,17.4-27.4,5.8-5.5,11.6-4.1,17.4-6.1,5.8-2,11.6-7.5,17.4-5.4,5.8,2.1,11.6,11.8,17.5,4.7,5.8-7.2,11.6-31.3,17.4-49.4,5.8-18.1,11.6-30.3,17.4-34.4,5.8-4.2,11.6-.4,17.4,0,5.8.3,11.6-3,17.5-10.7,5.8-7.6,11.6-19.6,17.4-25.7,5.8-6.1,11.6-6.5,17.4-11.5,5.8-5,11.6-14.6,17.4,10.7s11.6,85.7,14.6,115.8l2.9,30.2v5.6l-2.9-24.6c-2.9-24.6-8.7-73.7-14.6-94.4-5.8-20.7-11.6-12.9-17.4-8.4-5.8,4.5-11.6,5.8-17.4,9.6-5.8,3.8-11.6,10.1-17.4,14.7-5.8,4.6-11.6,7.4-17.5,5.8s-11.6-7.8-17.4-5.3c-5.8,2.5-11.6,13.7-17.4,30.7-5.8,16.9-11.6,39.6-17.4,46.3-5.8,6.7-11.6-2.6-17.5-4.9-5.8-2.3-11.6,2.2-17.4,3.6-5.8,1.3-11.6-.6-17.4,4.5-5.8,5.1-11.6,17.1-17.4,26.2-5.8,9.2-11.6,15.5-17.5,15.6-5.8,0-11.6-6.2-17.4-1.7-5.8,4.5-11.6,19.6-17.4,27.9-5.8,8.3-11.6,9.7-17.4,9.7-5.8,0-11.6-1.7-17.5-4-5.8-2.4-11.6-5.5-17.4-6.2s-11.6.8-17.4,2.8c-5.8,2-11.6,4.4-20.3,8.1-8.7,3.7-20.4,8.8-29.1,10-8.7,1.1-14.5-1.7-20.3-2s-11.6,1.7-17.4,2.6c-5.8.9-11.6.7-17.5.9-5.8.2-11.6.8-17.4-.1s-11.6-3.2-17.4-3.7c-5.8-.5-11.6.9-20.3,1.7-8.7.8-20.4,1-34.9,1.2-14.5.1-32,.1-46.5.4-14.5.3-26.2.8-55.2,1-29.1.2-75.6,0-101.7,0s-32,.2-37.8,0c-5.8-.2-11.6-.9-14.6-1.3l-2.9-.3Z"/>
  <path class="st0" d="M93.6,364.6l2.9.3c2.9.4,8.7,1.1,14.6,1.3,5.8.2,11.6,0,37.8,0s72.7.2,101.7,0c29.1-.2,40.7-.7,55.2-1,14.5-.3,32-.3,46.5-.4,14.5-.1,26.2-.3,34.9-1.4,8.7-1,14.5-2.9,20.3-2.4,5.8.5,11.6,3.3,17.4,4.4s11.6.5,17.4.4c5.8-.2,11.6,0,17.5-.9,5.8-.9,11.6-3,17.4-2.6s11.6,3.2,20.3,2c8.7-1.1,20.4-6.2,29.1-10,8.7-3.7,14.5-6.1,20.3-8.6s11.6-4.9,17.4-4.2c5.8.8,11.6,4.8,17.4,7.6,5.8,2.8,11.6,4.4,17.5,3.6,5.8-.9,11.6-4.2,17.4-13.2,5.8-9,11.6-23.7,17.4-27.9,5.8-4.2,11.6,2,17.4,1.2,5.8-.8,11.6-8.5,17.5-18.8s11.6-23.3,17.4-30c5.8-6.7,11.6-7.1,17.4-9.1,5.8-2,11.6-5.7,17.4-1.9s11.6,14.9,17.5,8.6c5.8-6.2,11.6-29.9,17.4-49.1,5.8-19.3,11.6-34.2,17.4-40.2,5.8-6,11.6-3.2,17.4-2.2s11.6,0,17.5-9c5.8-9,11.6-26.1,17.4-33.9,5.8-7.8,11.6-6.3,17.4-12.4,5.8-6.2,11.6-20,17.4,7.9,5.8,27.9,11.6,97.6,14.6,132.4l2.9,34.8v2.8l-2.9-30.2c-2.9-30.2-8.7-90.5-14.6-115.8s-11.6-15.7-17.4-10.7c-5.8,5-11.6,5.3-17.4,11.5-5.8,6.1-11.6,18.1-17.4,25.7-5.8,7.6-11.6,10.9-17.5,10.7-5.8-.3-11.6-4.1-17.4,0-5.8,4.2-11.6,16.3-17.4,34.4-5.8,18.1-11.6,42.2-17.4,49.4-5.8,7.2-11.6-2.6-17.5-4.7-5.8-2.1-11.6,3.4-17.4,5.4-5.8,2-11.6.6-17.4,6.1-5.8,5.5-11.6,18-17.4,27.4-5.8,9.4-11.6,15.7-17.5,15.8-5.8,0-11.6-6.2-17.4-1.7-5.8,4.5-11.6,19.6-17.4,27.9-5.8,8.3-11.6,9.7-17.4,9.7-5.8,0-11.6-1.7-17.5-4.3-5.8-2.6-11.6-6.2-17.4-6.9-5.8-.8-11.6,1.2-17.4,3.5s-11.6,4.6-20.3,8.3c-8.7,3.7-20.4,8.8-29.1,10-8.7,1.1-14.5-1.7-20.3-2s-11.6,1.7-17.4,2.6c-5.8.9-11.6.7-17.5.9-5.8.2-11.6.8-17.4-.1s-11.6-3.2-17.4-3.7c-5.8-.5-11.6.9-20.3,1.7-8.7.8-20.4,1-34.9,1.2-14.5.1-32,.1-46.5.4-14.5.3-26.2.8-55.2,1-29.1.2-75.6,0-101.7,0s-32,.2-37.8,0c-5.8-.2-11.6-.9-14.6-1.3l-2.9-.3Z"/>
  <path class="st7" d="M93.6,367.4h2.9c2.9-.2,8.7-.5,14.6-.7,5.8-.2,11.6-.5,37.8-.5s72.7.2,101.7.3c29.1,0,40.7,0,55.2,0,14.5,0,32,0,46.5,0,14.5.1,26.2.4,34.9,0,8.7-.3,14.5-1.3,20.3-1.2,5.8,0,11.6.9,17.4,1.6s11.6,1,17.4,1c5.8,0,11.6-.2,17.5-.9,5.8-.7,11.6-1.8,17.4-1.7s11.6,1.5,20.3.6,20.4-4.1,29.1-6.7,14.5-4.5,20.3-5.3,11.6-.5,17.4-.2,11.6.6,17.4,1.6c5.8,1,11.6,2.6,17.5,3.1,5.8.5,11.6,0,17.4-5.7,5.8-5.7,11.6-16.7,17.4-19.5,5.8-2.8,11.6,2.4,17.4,3.1s11.6-3.4,17.5-9,11.6-13,17.4-15.7c5.8-2.7,11.6-.8,17.4.4,5.8,1.2,11.6,1.8,17.4,3.7,5.8,1.9,11.6,5.1,17.5,2.6,5.8-2.5,11.6-10.7,17.4-19.7,5.8-9,11.6-18.8,17.4-22,5.8-3.2,11.6.1,17.4,3.4s11.6,6.5,17.5,6.6c5.8,0,11.6-3,17.4-5.2,5.8-2.2,11.6-3.5,17.4-1.7,5.8,1.8,11.6,6.6,17.4,11.9s11.6,11,14.6,13.9l2.9,2.9h0l-2.9.4c-2.9.4-8.7,1.2-14.6-1s-11.6-7.5-17.4-8.2c-5.8-.6-11.6,3.5-17.4,5-5.8,1.5-11.6.3-17.4-1.4-5.8-1.7-11.6-4-17.5-8.5-5.8-4.5-11.6-11.1-17.4-8.5-5.8,2.5-11.6,14.2-17.4,22.5-5.8,8.3-11.6,13.3-17.4,14.8-5.8,1.6-11.6-.2-17.5-1.9s-11.6-3.1-17.4-3.9c-5.8-.8-11.6-.8-17.4,1.9-5.8,2.7-11.6,8.2-17.4,13.4s-11.6,10.1-17.5,10c-5.8-.2-11.6-5.5-17.4-3.3-5.8,2.1-11.6,11.7-17.4,16.5-5.8,4.8-11.6,4.8-17.4,3.8-5.8-1-11.6-3.1-17.5-4-5.8-1-11.6-.8-17.4-.4-5.8.4-11.6,1-17.4,1.8s-11.6,1.8-20.3,3.7-20.4,4.6-29.1,5.5-14.5,0-20.3,0c-5.8,0-11.6,1.2-17.4,1.7-5.8.4-11.6.2-17.5,0-5.8-.3-11.6-.6-17.4-1.3s-11.6-1.6-17.4-1.6c-5.8,0-11.6.9-20.3,1.2-8.7.3-20.4.1-34.9,0-14.5-.1-32-.1-46.5,0-14.5,0-26.2.1-55.2.3-29.1.2-75.6.4-101.7.4s-32-.2-37.8-.2-11.6.2-14.6.4h-2.9Z"/>
  <path class="st11" d="M93.6,367.4h2.9c2.9-.2,8.7-.5,14.6-.5s11.6.2,37.8.2,72.7-.2,101.7-.4c29.1-.2,40.7-.2,55.2-.3,14.5,0,32,0,46.5,0,14.5.1,26.2.4,34.9,0,8.7-.3,14.5-1.3,20.3-1.2,5.8,0,11.6.9,17.4,1.6s11.6,1,17.4,1.3c5.8.3,11.6.5,17.5,0,5.8-.4,11.6-1.6,17.4-1.7,5.8,0,11.6.8,20.3,0s20.4-3.7,29.1-5.5,14.5-2.9,20.3-3.7,11.6-1.4,17.4-1.8c5.8-.4,11.6-.6,17.4.4,5.8,1,11.6,3,17.5,4,5.8,1,11.6,1,17.4-3.8,5.8-4.8,11.6-14.4,17.4-16.5,5.8-2.1,11.6,3.1,17.4,3.3,5.8.2,11.6-4.8,17.5-10s11.6-10.7,17.4-13.4c5.8-2.7,11.6-2.7,17.4-1.9,5.8.8,11.6,2.3,17.4,3.9s11.6,3.4,17.5,1.9c5.8-1.6,11.6-6.5,17.4-14.8,5.8-8.3,11.6-20,17.4-22.5,5.8-2.5,11.6,4.1,17.4,8.5,5.8,4.5,11.6,6.8,17.5,8.5,5.8,1.7,11.6,2.8,17.4,1.4,5.8-1.5,11.6-5.6,17.4-5,5.8.6,11.6,5.9,17.4,8.2s11.6,1.4,14.6,1l2.9-.4h0l-2.9.6c-2.9.6-8.7,1.9-14.6-.1-5.8-2-11.6-7.3-17.4-7.7-5.8-.4-11.6,4.2-17.4,6.6-5.8,2.4-11.6,2.7-17.4,1.4-5.8-1.3-11.6-4-17.5-8.9-5.8-4.9-11.6-12-17.4-9.7-5.8,2.3-11.6,14-17.4,21.8-5.8,7.8-11.6,11.9-17.4,13.4-5.8,1.6-11.6.7-17.5-.9s-11.6-4.1-17.4-5.3c-5.8-1.2-11.6-1.3-17.4,1.2-5.8,2.5-11.6,7.5-17.4,12.5s-11.6,9.9-17.5,9.7c-5.8-.2-11.6-5.5-17.4-3.3-5.8,2.1-11.6,11.7-17.4,16.7-5.8,5-11.6,5.5-17.4,4.5-5.8-1-11.6-3.5-17.5-4.7-5.8-1.2-11.6-1-17.4-.4-5.8.6-11.6,1.7-17.4,2.5s-11.6,1.3-20.3,3c-8.7,1.6-20.4,4.4-29.1,5.3s-14.5,0-20.3,0c-5.8,0-11.6,1.2-17.4,1.7-5.8.4-11.6.2-17.5,0-5.8-.3-11.6-.6-17.4-1.3s-11.6-1.6-17.4-1.6c-5.8,0-11.6.9-20.3,1.2-8.7.3-20.4.1-34.9,0-14.5-.1-32-.1-46.5,0-14.5,0-26.2.1-55.2.3-29.1.2-75.6.4-101.7.4s-32-.2-37.8-.2-11.6.2-14.6.4h-2.9Z"/>
  <path class="st9" d="M93.6,364.6l2.9.3c2.9.4,8.7,1.1,14.6,1.3,5.8.2,11.6,0,37.8,0s72.7.2,101.7,0c29.1-.2,40.7-.7,55.2-1,14.5-.3,32-.3,46.5-.4,14.5-.1,26.2-.3,34.9-1.4,8.7-1,14.5-2.9,20.3-2.4,5.8.5,11.6,3.3,17.4,4.4s11.6.5,17.4.4c5.8-.2,11.6,0,17.5-.9,5.8-.9,11.6-3,17.4-2.6s11.6,3.2,20.3,2c8.7-1.1,20.4-6.2,29.1-10,8.7-3.7,14.5-6.1,20.3-8.6s11.6-4.9,17.4-4.2c5.8.8,11.6,4.8,17.4,7.6,5.8,2.8,11.6,4.4,17.5,3.6,5.8-.9,11.6-4.2,17.4-13.2,5.8-9,11.6-23.7,17.4-27.9,5.8-4.2,11.6,2,17.4,1.2,5.8-.8,11.6-8.5,17.5-18.8s11.6-23.3,17.4-30c5.8-6.7,11.6-7.1,17.4-9.1,5.8-2,11.6-5.7,17.4-1.9s11.6,14.9,17.5,8.6c5.8-6.2,11.6-29.9,17.4-49.4,5.8-19.5,11.6-34.9,17.4-40.9,5.8-6,11.6-2.7,17.4-1.5,5.8,1.2,11.6.2,17.5-9,5.8-9.2,11.6-26.8,17.4-34.6,5.8-7.8,11.6-5.8,17.4-12.4,5.8-6.6,11.6-21.9,17.4,6.1,5.8,27.9,11.6,99,14.6,134.5l2.9,35.5h0l-2.9-34.8c-2.9-34.8-8.7-104.5-14.6-132.4-5.8-27.9-11.6-14.1-17.4-7.9-5.8,6.2-11.6,4.6-17.4,12.4-5.8,7.8-11.6,24.8-17.4,33.9-5.8,9-11.6,10-17.5,9s-11.6-3.8-17.4,2.2c-5.8,6-11.6,21-17.4,40.2-5.8,19.3-11.6,42.9-17.4,49.1-5.8,6.2-11.6-4.9-17.5-8.6s-11.6-.1-17.4,1.9c-5.8,2-11.6,2.5-17.4,9.1-5.8,6.7-11.6,19.6-17.4,30s-11.6,18.1-17.5,18.8c-5.8.8-11.6-5.5-17.4-1.2-5.8,4.2-11.6,18.9-17.4,27.9-5.8,9-11.6,12.3-17.4,13.2-5.8.9-11.6-.7-17.5-3.6-5.8-2.8-11.6-6.9-17.4-7.6-5.8-.8-11.6,1.7-17.4,4.2s-11.6,4.8-20.3,8.6c-8.7,3.7-20.4,8.8-29.1,10-8.7,1.1-14.5-1.7-20.3-2s-11.6,1.7-17.4,2.6c-5.8.9-11.6.7-17.5.9-5.8.2-11.6.8-17.4-.4s-11.6-3.9-17.4-4.4c-5.8-.5-11.6,1.4-20.3,2.4-8.7,1-20.4,1.3-34.9,1.4-14.5.1-32,.1-46.5.4-14.5.3-26.2.8-55.2,1-29.1.2-75.6,0-101.7,0s-32,.2-37.8,0c-5.8-.2-11.6-.9-14.6-1.3l-2.9-.3Z"/>
  <g id="xAxis">
    <path class="st13" d="M93.6,577.4h785"/>
    <g>
      <line class="st13" x1="93.6" y1="577.4" x2="93.6" y2="583.4"/>
      <text class="st6" transform="translate(82.5 593.5)"><tspan x="0" y="0">1980</tspan></text>
    </g>
    <g>
      <line class="st13" x1="180.8" y1="577.4" x2="180.8" y2="583.4"/>
      <text class="st6" transform="translate(169.7 593.5)"><tspan x="0" y="0">1985</tspan></text>
    </g>
    <g>
      <line class="st13" x1="268" y1="577.4" x2="268" y2="583.4"/>
      <text class="st6" transform="translate(256.9 593.5)"><tspan x="0" y="0">1990</tspan></text>
    </g>
    <g>
      <line class="st13" x1="355.2" y1="577.4" x2="355.2" y2="583.4"/>
      <text class="st6" transform="translate(344.1 593.5)"><tspan x="0" y="0">1995</tspan></text>
    </g>
    <g>
      <line class="st13" x1="442.4" y1="577.4" x2="442.4" y2="583.4"/>
      <text class="st6" transform="translate(431.3 593.5)"><tspan x="0" y="0">2000</tspan></text>
    </g>
    <g>
      <line class="st13" x1="529.7" y1="577.4" x2="529.7" y2="583.4"/>
      <text class="st6" transform="translate(518.6 593.5)"><tspan x="0" y="0">2005</tspan></text>
    </g>
    <g>
      <line class="st13" x1="616.9" y1="577.4" x2="616.9" y2="583.4"/>
      <text class="st6" transform="translate(605.8 593.5)"><tspan x="0" y="0">2010</tspan></text>
    </g>
    <g>
      <line class="st13" x1="704.1" y1="577.4" x2="704.1" y2="583.4"/>
      <text class="st6" transform="translate(693 593.5)"><tspan x="0" y="0">2015</tspan></text>
    </g>
    <g>
      <line class="st13" x1="791.3" y1="577.4" x2="791.3" y2="583.4"/>
      <text class="st6" transform="translate(780.2 593.5)"><tspan x="0" y="0">2020</tspan></text>
    </g>
    <g>
      <line class="st13" x1="878.6" y1="577.4" x2="878.6" y2="583.4"/>
      <text class="st6" transform="translate(867.5 593.5)"><tspan x="0" y="0">2025</tspan></text>
    </g>
  </g>
  <g id="yAxis">
    <path class="st13" d="M93.6,577.4V17.4"/>
    <g>
      <line class="st13" x1="93.6" y1="577.4" x2="87.6" y2="577.4"/>
      <text class="st6" transform="translate(62.1 580.6)"><tspan x="0" y="0">−150</tspan></text>
    </g>
    <g>
      <line class="st13" x1="93.6" y1="507.4" x2="87.6" y2="507.4"/>
      <text class="st6" transform="translate(62.1 510.6)"><tspan x="0" y="0">−100</tspan></text>
    </g>
    <g>
      <line class="st13" x1="93.6" y1="437.4" x2="87.6" y2="437.4"/>
      <text class="st6" transform="translate(67.6 440.6)"><tspan x="0" y="0">−50</tspan></text>
    </g>
    <g>
      <line class="st13" x1="93.6" y1="367.4" x2="87.6" y2="367.4"/>
      <text class="st6" transform="translate(79 370.6)"><tspan x="0" y="0">0</tspan></text>
    </g>
    <g>
      <line class="st13" x1="93.6" y1="297.4" x2="87.6" y2="297.4"/>
      <text class="st6" transform="translate(73.5 300.6)"><tspan x="0" y="0">50</tspan></text>
    </g>
    <g>
      <line class="st13" x1="93.6" y1="227.4" x2="87.6" y2="227.4"/>
      <text class="st6" transform="translate(67.9 230.6)"><tspan x="0" y="0">100</tspan></text>
    </g>
    <g>
      <line class="st13" x1="93.6" y1="157.4" x2="87.6" y2="157.4"/>
      <text class="st6" transform="translate(67.9 160.6)"><tspan x="0" y="0">150</tspan></text>
    </g>
    <g>
      <line class="st13" x1="93.6" y1="87.4" x2="87.6" y2="87.4"/>
      <text class="st6" transform="translate(67.9 90.6)"><tspan x="0" y="0">200</tspan></text>
    </g>
    <g>
      <line class="st13" x1="93.6" y1="17.4" x2="87.6" y2="17.4"/>
      <text class="st6" transform="translate(67.9 20.6)"><tspan x="0" y="0">250</tspan></text>
    </g>
  </g>
  <text class="st8" transform="translate(761.1 227.5)"><tspan class="st5" x="0" y="0">Rank</tspan><tspan class="st4" x="25.3" y="0">‐</tspan><tspan class="st5" x="29" y="0">based Measures</tspan></text>
  <text class="st8" transform="translate(693.2 395.5)"><tspan class="st5" x="0" y="0">Regression</tspan><tspan class="st4" x="53.3" y="0">‐</tspan><tspan class="st5" x="57" y="0">based Measures</tspan></text>
  <text class="st6" transform="translate(654.1 230.8)"><tspan x="0" y="0">Decomposition/ </tspan><tspan x="-28" y="14.4">Structural Approaches</tspan></text>
  <text class="st6" transform="translate(606.3 194.4)"><tspan x="0" y="0">Absolute Mobility Measures</tspan></text>
  <text class="st6" transform="translate(597.2 138.8)"><tspan x="0" y="0">Transition Matrix / Probability Measures</tspan></text>
  <text class="st6" transform="translate(821.1 295.6)"><tspan x="0" y="0">Others</tspan></text>
  <text class="st8" transform="translate(764.6 330.1)"><tspan class="st5" x="0" y="0">Non</tspan><tspan class="st4" x="20.7" y="0">‐</tspan><tspan class="st5" x="24.4" y="0">parametric Approaches</tspan></text>
  <text class="st6" transform="translate(699.4 106)"><tspan x="0" y="0">Multigenerational Measures</tspan></text>
  <line class="st10" x1="759.4" y1="306.4" x2="763" y2="317.2"/>
  <circle class="st11" cx="763" cy="318.6" r="2.6"/>
  <line class="st10" x1="852.1" y1="104.2" x2="840.6" y2="104.2"/>
  <circle class="st9" cx="839.8" cy="104.2" r="2.6"/>
  <line class="st10" x1="826.1" y1="136.1" x2="801" y2="136.1"/>
  <circle class="st0" cx="798.3" cy="136.1" r="2.6"/>
  <line class="st10" x1="775.5" y1="191" x2="751.3" y2="191"/>
  <circle class="st2" cx="748.7" cy="191" r="2.6"/>
  <line class="st10" x1="765.6" y1="266.1" x2="738.8" y2="245.2"/>
  <circle class="st12" cx="738.3" cy="244.8" r="2.6"/>
</svg>