<svg xmlns="http://www.w3.org/2000/svg" width="805" height="600"><rect width="805" height="600" x="0" y="0" fill="#FFFFFF" id="background"/><g transform="translate(402.5,300)" id="chord_diagram"><g><g><path fill="#c98c32" d="M236.82826012870854,80.07730767457635A250,250,0,0,1,203.89877458707824,144.65576283677004L179.43092163662882,127.29707129635763A220,220,0,0,0,208.40886891326352,70.46803075362718Z"/></g><g><path fill="#bc4d36" d="M1.5308084989341916e-14,-250A250,250,0,0,1,211.041342856614,-134.02071334415848L185.7163817138203,-117.93822774285947A220,220,0,0,0,1.3471114790620885e-14,-220Z"/></g><g><path fill="#bd6233" d="M216.91311555392662,-124.29280067923838A250,250,0,0,1,248.8546151947928,-23.903566601065894L218.9920613714177,-21.035138608937984A220,220,0,0,0,190.88354168745542,-109.37766459772978Z"/></g><g><path fill="#e8a97e" d="M63.897826347658004,241.69623039684453A250,250,0,0,1,-1.4130930895729918,249.9960063039412L-1.2435219188242328,219.99648554746827A220,220,0,0,0,56.23008718593904,212.69268274922317Z"/></g><g><path fill="#e6a8a0" d="M-87.507259858345,234.1847122937022A250,250,0,0,1,-141.68005237124302,205.9775782945363L-124.67844608669385,181.26026889919194A220,220,0,0,0,-77.0063886753436,206.08254681845796Z"/></g><g><path fill="#aba979" d="M-238.53051379485814,-74.85448542846969A250,250,0,0,1,-227.16174643916884,-104.3912877337317L-199.90233686646857,-91.86433320568389A220,220,0,0,0,-209.90685213947518,-65.87194717705333Z"/></g><g><path fill="#dda469" d="M135.78402062346728,209.91117107797245A250,250,0,0,1,74.81423711857181,238.5431405938266L65.83652866434319,209.9179637225674A220,220,0,0,0,119.4899381486512,184.72183054861574Z"/></g><g><path fill="#9fbe99" d="M-246.92949716745048,39.06178988001029A250,250,0,0,1,-249.8899155745792,-7.418227155439122L-219.9031257056297,-6.528039896786427A220,220,0,0,0,-217.29795750735641,34.374375094409054Z"/></g><g><path fill="#2b6765" d="M-150.89310736591935,199.32704319649434A250,250,0,0,1,-191.30680528761056,160.94007036983754L-168.3499886530973,141.62726192545705A220,220,0,0,0,-132.78593448200903,175.40779801291504Z"/></g><g><path fill="#daca7e" d="M-222.18369088673336,-114.60544273265782A250,250,0,0,1,-211.31511087713696,-133.58863692314296L-185.9572975718805,-117.5580004923658A220,220,0,0,0,-195.52164798032535,-100.85278960473889Z"/></g><g><path fill="#eec498" d="M-12.771175734795289,249.67358104202972A250,250,0,0,1,-76.77578088266074,237.91906075356314L-67.56268717674145,209.36877346313557A220,220,0,0,0,-11.238634646619856,219.71275131698616Z"/></g><g><path fill="#588c89" d="M-198.42214722273354,152.0810688137082A250,250,0,0,1,-226.62240307415763,105.5570292538305L-199.42771470525872,92.89018574337085A220,220,0,0,0,-174.61148955600552,133.83134055606322Z"/></g><g><path fill="#8fa38b" d="M-231.18472406248597,95.15053000457864A250,250,0,0,1,-244.89952407319075,50.24164715377737L-215.51158118440785,44.21264949532409A220,220,0,0,0,-203.44255717498766,83.7324664040292Z"/></g><g><path fill="#be7830" d="M249.68372988625126,-12.571198434895752A250,250,0,0,1,240.22226930613985,69.23338305621374L211.39559698940306,60.925377089468086A220,220,0,0,0,219.72168229990112,-11.062654622708262Z"/></g><g><path fill="#d4a134" d="M197.11517364935955,153.77128573691135A250,250,0,0,1,145.18190361958779,203.52448221625014L127.76007518523727,179.10154435030012A220,220,0,0,0,173.4613528114364,135.31873144848197Z"/></g><g><path fill="#cccccc" d="M-249.294733237303,-18.765286572337214A250,250,0,0,1,-241.68544547855868,-63.9386068336701L-212.68319202113162,-56.26597401362969A220,220,0,0,0,-219.37936524882664,-16.51345218365675Z"/></g><g><path fill="#ea9689" d="M-191.21839579764435,-161.04510271528108A250,250,0,0,1,-184.50872859264615,-168.69063125474764L-162.3676811615286,-148.44775550417793A220,220,0,0,0,-168.27218830192703,-141.71969038944735Z"/></g><g><path fill="#e5aba2" d="M-205.026727722822,-143.05258095984084A250,250,0,0,1,-198.3386016028435,-152.19000990284653L-174.53796941050228,-133.92720871450496A220,220,0,0,0,-180.42352039608335,-125.88627124465994Z"/></g><g><path fill="#f9be75" d="M-176.6530373908585,-176.90026676233123A250,250,0,0,1,-169.7336526527145,-183.54968579969747L-149.36561433438877,-161.52372350373378A220,220,0,0,0,-155.45467290395547,-155.6722347508515Z"/></g><g><path fill="#7aa244" d="M-149.76956812583967,-200.17261666721416A250,250,0,0,1,-147.6093561943552,-201.77085509034245L-129.89623345103257,-177.55835247950137A220,220,0,0,0,-131.7972199507389,-176.15190266714848Z"/></g><g><path fill="#4ca96f" d="M-138.28864880931204,-208.2696560003275A250,250,0,0,1,-136.52481088950975,-209.4301220254231L-120.14183358276857,-184.29850738237232A220,220,0,0,0,-121.6940109521946,-183.27729728028822Z"/></g><g><path fill="#000000" d="M-92.1392245508545,-232.40129797220843A250,250,0,0,1,-91.06767111750364,-232.82327907070243L-80.13955058340319,-204.88448558221813A220,220,0,0,0,-81.08251760475196,-204.5131422155434Z"/></g><g><path fill="#4f8e91" d="M-126.86752388598273,-215.41734234513154A250,250,0,0,1,-125.37599501608157,-216.2888343713736L-110.33087561415178,-190.33417424680877A220,220,0,0,0,-111.64342101966481,-189.56726126371575Z"/></g><g><path fill="#94bc5f" d="M-161.21804331678695,-191.0726105675709A250,250,0,0,1,-158.71049658151674,-193.1604987435277L-139.66523699173473,-169.98123889430437A220,220,0,0,0,-141.8718781187725,-168.1438972994624Z"/></g><g><path fill="#000000" d="M-80.3943766850877,-236.72081487992605A250,250,0,0,1,-79.84892497767432,-236.9053591202819L-70.2670539803534,-208.47671602584808A220,220,0,0,0,-70.74705148287718,-208.3143170943349Z"/></g><g><path fill="#4a4a4a" d="M-103.82784476166367,-227.41982906542663A250,250,0,0,1,-102.6041138910236,-227.97455080038617L-90.29162022410077,-200.61760470433984A220,220,0,0,0,-91.36850339026402,-200.12944957757543Z"/></g><g><path fill="#5695c1" d="M-115.41857109351622,-221.76238059402894A250,250,0,0,1,-114.0543087188374,-222.46710917047523L-100.36779167257691,-195.77105607001818A220,220,0,0,0,-101.56834256229428,-195.15089492274547Z"/></g><g><path fill="#000000" d="M-69.00173295827251,-240.28891120639597A250,250,0,0,1,-68.63268020138632,-240.39458231909936L-60.39675857721997,-211.54723244080742A220,220,0,0,0,-60.72152500327981,-211.45424186162845Z"/></g><g><path fill="#000000" d="M-57.63852677139222,-243.26487669127965A250,250,0,0,1,-57.26491771951245,-243.35309572425305L-50.39312759317095,-214.1507242373427A220,220,0,0,0,-50.721903558825154,-214.0730914883261Z"/></g><g><path fill="#cccccc" d="M-46.1480742449529,-245.70379574496263A250,250,0,0,1,-45.77073370028981,-245.77436794046926L-40.27824565625504,-216.28144378761294A220,220,0,0,0,-40.61030533555856,-216.21934025556712Z"/></g><g><path fill="#000000" d="M-34.55574240524351,-247.600284060464A250,250,0,0,1,-34.365633035236705,-247.6267418234296L-30.241757071008298,-217.91153280461805A220,220,0,0,0,-30.409053316614283,-217.88824997320833Z"/></g><g><path fill="#000000" d="M-23.07825201873749,-248.93250949556517A250,250,0,0,1,-22.887123193560633,-248.95015483410083L-20.140668410333355,-219.07613625400873A220,220,0,0,0,-20.308861776488992,-219.06060835609736Z"/></g><g><path fill="#cccccc" d="M-11.55146367584419,-249.73298477963547A250,250,0,0,1,-11.35972366994025,-249.74178000114958L-9.99655682954742,-219.77276640101164A220,220,0,0,0,-10.165288034742886,-219.76502660607923Z"/></g></g><g fill-opacity="0.8"><path fill="#7aa244" d="M-129.37363834870797,-176.70161770741578Q0,0,-204.3795941266132,-15.936797188922627L-214.3493304254724,-16.714201929845682L-204.3795941266132,-15.936797188922627Q0,0,-129.37363834870797,-176.70161770741578Z"/><path fill="#4f8e91" d="M-111.06350182095643,-188.74824121900159Q0,0,-93.87450638301293,-182.24318108325937L-98.45375059681844,-191.13309235561348L-93.87450638301293,-182.24318108325937Q0,0,-111.06350182095643,-188.74824121900159Z"/><path fill="#94bc5f" d="M-141.1627413134017,-167.433809204968Q0,0,-94.01439891102659,-182.17105367592941L-98.60046715058886,-191.0574465381699L-94.01439891102659,-182.17105367592941Q0,0,-141.1627413134017,-167.433809204968Z"/><path fill="#000000" d="M-70.02732006802388,-207.50222756416505Q0,0,-94.15423602080756,-182.0988188850715L-98.74712558279816,-190.9816880989774L-94.15423602080756,-182.0988188850715Q0,0,-70.02732006802388,-207.50222756416505Z"/><path fill="#4a4a4a" d="M-90.87670817830893,-199.25467098834716Q0,0,-94.29401762992671,-182.0264767532654L-98.89372580699631,-190.90581708269298L-94.29401762992671,-182.0264767532654Q0,0,-90.87670817830893,-199.25467098834716Z"/><path fill="#5695c1" d="M-101.0320861933719,-194.30264424195332Q0,0,-204.39176962709442,-15.779876701190085L-214.36209985280635,-16.54962678417497L-204.39176962709442,-15.779876701190085Q0,0,-101.0320861933719,-194.30264424195332Z"/><path fill="#5695c1" d="M-100.88287736907947,-194.38015601839422Q0,0,-9.393587503920966,-204.7846686493063L-9.851811284600037,-214.7741646809798L-9.393587503920966,-204.7846686493063Q0,0,-100.88287736907947,-194.38015601839422Z"/><path fill="#000000" d="M-30.187564667245923,-216.90945331972242Q0,0,-204.40382464570501,-15.622946911766645L-214.37474292110525,-16.385041883072336L-204.40382464570501,-15.622946911766645Q0,0,-30.187564667245923,-216.90945331972242Z"/><path fill="#000000" d="M-20.13283582643783,-218.07262304467682Q0,0,-204.41575917533893,-15.466007913156982L-214.38725962291645,-16.220447323554883L-204.41575917533893,-15.466007913156982Q0,0,-20.13283582643783,-218.07262304467682Z"/><path fill="#4ca96f" d="M-119.73655412320001,-183.36891123279867Q0,0,-93.6645638622003,-182.35117075715144L-98.23356697742958,-191.24634981847592L-93.6645638622003,-182.35117075715144Q0,0,-119.73655412320001,-183.36891123279867Z"/><path fill="#000000" d="M-70.2662434657944,-207.4214430313455Q0,0,-204.36110498810314,-16.17216027751053L-214.32993937776672,-16.961046144706167L-204.36110498810314,-16.17216027751053Q0,0,-70.2662434657944,-207.4214430313455Z"/><path fill="#000000" d="M-60.28389073156362,-210.53943221701937Q0,0,167.92240250094756,117.58854849988481L176.11373920831088,123.32457525597675L167.92240250094756,117.58854849988481Q0,0,-60.28389073156362,-210.53943221701937Z"/><path fill="#000000" d="M-50.32772352024139,-213.13873473695517Q0,0,-37.686722365058436,-201.50610650146314L-39.52509906579299,-211.3356726722662L-37.686722365058436,-201.50610650146314Q0,0,-50.32772352024139,-213.13873473695517Z"/><path fill="#be7830" d="M218.88602770123128,-7.0644799649948204Q0,0,-204.25121423301346,-17.505470126210255L-214.2146880980385,-18.35939549822051L-204.25121423301346,-17.505470126210255Q0,0,218.88602770123128,-7.0644799649948204Z"/><path fill="#d4a134" d="M172.51764622237383,134.90241562659978Q0,0,-204.29099274268543,-17.034972386477584L-214.25640702281643,-17.865946649232587L-204.29099274268543,-17.034972386477584Q0,0,172.51764622237383,134.90241562659978Z"/><path fill="#4ca96f" d="M-120.08829461177811,-183.138749305642Q0,0,-204.32968745058793,-16.564384273043324L-214.2969892774459,-17.37240301806983L-204.32968745058793,-16.564384273043324Q0,0,-120.08829461177811,-183.138749305642Z"/><path fill="#daca7e" d="M-185.3846509120419,-116.5912998736199A219,219,0,0,1,-185.37752165269947,-116.60263490120167Q0,0,-204.01368333875484,-20.08524360206419L-213.9649262264515,-21.0715529781069L-204.0124548558881,-20.097717872291163Q0,0,-185.3846509120419,-116.5912998736199Z"/><path fill="#ea9689" d="M-161.9740889514755,-147.39536800164214A219,219,0,0,1,-161.96507623759135,-147.40527154532575Q0,0,-204.10404301653048,-19.145224582288684L-214.05972383370036,-20.085682269714702L-204.10287201045605,-19.157704379267123Q0,0,-161.9740889514755,-147.39536800164214Z"/><path fill="#e5aba2" d="M-174.05528969173827,-132.91258830646953A219,219,0,0,1,-174.04716249710458,-132.9232305757969Q0,0,-84.57143581005973,-186.7422615398693L-88.69088403978037,-195.85435172148266L-84.5600173960625,-186.74743226608928Q0,0,-174.05528969173827,-132.91258830646953Z"/><path fill="#4ca96f" d="M-120.72589789877955,-182.71906735897448A219,219,0,0,1,-120.71472541325873,-182.72644873800166Q0,0,-131.72180202356722,-157.08076544142557L-138.14221914745838,-164.74746519754282L-131.7121971577775,-157.08881920706753Q0,0,-120.72589789877955,-182.71906735897448Z"/><path fill="#000000" d="M-80.25106279261041,-203.76645190181944A219,219,0,0,1,-80.23860345165656,-203.77135842931364Q0,0,-204.19007146018535,-18.20479928712179L-214.14997894014402,-19.09938532874475L-204.18895795575284,-18.217284346021454Q0,0,-80.25106279261041,-203.76645190181944Z"/><path fill="#c98c32" d="M179.87500043819102,124.92391371295078A219,219,0,0,1,179.77138785231963,125.07297113945468Q0,0,167.5640996148016,118.0985712033844L175.68660880096763,123.93230203629625L167.4661488589195,118.23742633515931Q0,0,179.87500043819102,124.92391371295078Z"/><path fill="#e5aba2" d="M-174.76709340051028,-131.97523655723188A219,219,0,0,1,-174.65763765126655,-132.12005756159382Q0,0,-203.9189943443556,-21.024836398570784L-213.85710506812495,-22.139074323037203L-203.90149657316246,-21.193859847243928Q0,0,-174.76709340051028,-131.97523655723188Z"/><path fill="#588c89" d="M-198.16194387486567,93.23542245163361A219,219,0,0,1,-198.31055811517444,92.91890302865193Q0,0,-203.8030547615259,-22.120462695668504L-213.72607800917532,-23.37014289250075L-203.76747574656366,-22.445842106581598Q0,0,-198.16194387486567,93.23542245163361Z"/><path fill="#e5aba2" d="M-175.57440102684507,-130.89931132005466A219,219,0,0,1,-175.36517333160967,-131.17948003546326Q0,0,-103.49380997761197,-176.95771047433325L-108.39409041809954,-185.67638827388058L-103.21113378573206,-177.12273107273305Q0,0,-175.57440102684507,-130.89931132005466Z"/><path fill="#bc4d36" d="M37.968452844816625,-215.68355660219194A219,219,0,0,1,38.643831786058406,-215.56357360391578Q0,0,-130.9967988684349,-157.68588613513518L-137.12771907573344,-165.59284000549883L-130.5022517044587,-158.095421502541Q0,0,37.968452844816625,-215.68355660219194Z"/><path fill="#8fa38b" d="M-206.8667960860675,71.88274255400502A219,219,0,0,1,-207.14556321493285,71.07542219620127Q0,0,-203.4586985949044,-25.090993724199993L-213.33179366343722,-26.730989737393713L-203.3592972619589,-25.884285138327517Q0,0,-206.8667960860675,71.88274255400502Z"/><path fill="#f9be75" d="M-149.67634696205758,-159.86866847538877A219,219,0,0,1,-149.0517261425882,-160.45118551732452Q0,0,-203.66334451058236,-23.37182283784971L-213.5499377897844,-24.928378807680367L-203.57064633120342,-24.165925438437075Q0,0,-149.67634696205758,-159.86866847538877Z"/><path fill="#9fbe99" d="M-218.99431392272783,1.5781221479113294A219,219,0,0,1,-218.9996567189584,0.3877589178667834Q0,0,-203.23954101000209,-26.808374998191844L-213.07646518656745,-28.695295495908656L-203.0908222124547,-27.912684089301106Q0,0,-218.99431392272783,1.5781221479113294Z"/><path fill="#7aa244" d="M-130.79927770101497,-175.64893666883603A219,219,0,0,1,-129.8426086415963,-176.35729920007637Q0,0,161.05574964737627,126.83077507262053L168.54999495494351,133.4762121154497L160.36398392676108,127.70431730813769Q0,0,-130.79927770101497,-175.64893666883603Z"/><path fill="#e8a97e" d="M5.8300466310650165,218.92238477661348A219,219,0,0,1,4.4719070882808944,218.95433781269048Q0,0,-202.29510906935982,-33.19169845934101L-212.05417229631195,-35.46869058375348L-202.0853208973577,-34.44594428683826Q0,0,5.8300466310650165,218.92238477661348Z"/><path fill="#2b6765" d="M-155.44595121628223,154.26456576435567A219,219,0,0,1,-156.39990001159458,153.29732964524604Q0,0,-202.64018484626868,-31.01540722721638L-212.42315862551288,-33.18737229067994L-202.44389008455553,-32.2718355138409Q0,0,-155.44595121628223,154.26456576435567Z"/><path fill="#eec498" d="M-26.422021257516793,217.4002686122244A219,219,0,0,1,-27.77009821534928,217.23218372310734Q0,0,-202.96184877051326,-28.835532657735058L-212.76760283491663,-30.902219724207107L-202.77907009782896,-30.093998243167576Q0,0,-26.422021257516793,217.4002686122244Z"/><path fill="#bc4d36" d="M35.316140981060386,-216.13368591269122A219,219,0,0,1,36.98768418263167,-215.85391175238382Q0,0,-201.92666130780816,-35.36415491824633L-211.63164405126687,-37.9084058772969L-201.6469410018458,-36.92575232271Q0,0,35.316140981060386,-216.13368591269122Z"/><path fill="#aba979" d="M-202.03633029224923,-84.51225498140002A219,219,0,0,1,-201.31011922787098,-86.2278139376174Q0,0,-201.4770141251128,-37.84194470728355L-211.13444632401615,-40.58627323925101L-201.1478230499258,-39.55443441986932Q0,0,-202.03633029224923,-84.51225498140002Z"/><path fill="#e5aba2" d="M-177.26789950638312,-128.59662439035816A219,219,0,0,1,-176.16758206558484,-130.0998963457136Q0,0,159.7818551061804,128.43192274052262L167.00167322153516,135.4084234499744L158.68357135289986,129.78645608340315Q0,0,-177.26789950638312,-128.59662439035816Z"/><path fill="#bd6233" d="M208.50983272685656,-66.96752687846777A219,219,0,0,1,209.12193634479183,-65.03088296651703Q0,0,-200.96595281551913,-40.46833093853195L-210.57009195542142,-43.419308767936016L-200.58199821140178,-42.33039089733532Q0,0,208.50983272685656,-66.96752687846777Z"/><path fill="#dda469" d="M71.45247029951076,207.01580733870912A219,219,0,0,1,69.37002719486843,207.72289071496962Q0,0,-200.3875158817448,-43.2416868165833L-209.93215838626537,-46.40569873715938L-199.94318159837925,-45.25178595721425Q0,0,71.45247029951076,207.01580733870912Z"/><path fill="#c98c32" d="M181.8656943672475,122.00766046572208A219,219,0,0,1,180.4409762446425,124.10501235598971Q0,0,64.05091034573529,194.73695305175795L65.99193858693602,204.62175847533436L61.792073286450524,195.46544369520134Q0,0,181.8656943672475,122.00766046572208Z"/><path fill="#e5aba2" d="M-179.31814519487276,-125.72192650397358A219,219,0,0,1,-177.85059632760522,-127.78953551020999Q0,0,204.91475719030774,-5.9112000166814225L214.94288603118025,-4.955375322521692L204.96946000150723,-3.5384271492476675Q0,0,-179.31814519487276,-125.72192650397358Z"/><path fill="#c98c32" d="M183.90046842103663,118.91853394035478A219,219,0,0,1,182.41839395778243,121.17974065768291Q0,0,-198.92728747464042,-49.52710669907708L-208.3064558184003,-53.22988318958473L-198.30071166894643,-51.979108799491485Q0,0,183.90046842103663,118.91853394035478Z"/><path fill="#e6a8a0" d="M-108.58908393985344,190.18257241162624A219,219,0,0,1,-110.92863096831451,188.8275372701119Q0,0,-199.73542684532887,-46.160147994934775L-209.1757973933371,-49.70398157956354L-199.15035488126887,-48.62238322691175Q0,0,-108.58908393985344,190.18257241162624Z"/><path fill="#be7830" d="M218.74741058865558,-10.515244208202557A219,219,0,0,1,218.86055293891204,-7.813985364311626Q0,0,158.09199565735346,130.5064017934574L164.95577306723325,137.893411487973L156.46883456388937,132.44811742798848Q0,0,218.74741058865558,-10.515244208202557Z"/><path fill="#ea9689" d="M-164.5515005762481,-144.51229587168365A219,219,0,0,1,-162.642392306688,-146.6576020012512Q0,0,155.86518332881997,133.15796869084983L162.5492056617444,140.72226454522368L154.10570889020838,135.1903490913695Q0,0,-164.5515005762481,-144.51229587168365Z"/><path fill="#ea9689" d="M-167.18625622403493,-141.4558437456415A219,219,0,0,1,-165.20667247716221,-143.76284418800168Q0,0,204.9834262564383,-2.606714439926872L214.99641413220638,-1.2417368049652442L204.9998609038885,0.23880826278216813Q0,0,-167.18625622403493,-141.4558437456415Z"/><path fill="#c98c32" d="M189.35072307991788,110.03319348774829A219,219,0,0,1,187.1970296795483,113.65857679539324Q0,0,3.25436781851397,204.97416688476093L1.343306599649877,214.9958035110903L-0.6928320938211241,204.99882922516844Q0,0,189.35072307991788,110.03319348774829Z"/><path fill="#c98c32" d="M186.67846771376776,114.50829529793798A219,219,0,0,1,184.43910555536058,118.08139710360204Q0,0,-188.07214495925155,-81.57124671369364L-196.41361822142017,-87.4453576650596L-186.46669823669814,-85.1772883385246Q0,0,186.67846771376776,114.50829529793798Z"/><path fill="#8fa38b" d="M-205.09750379529936,76.78550603425862A219,219,0,0,1,-206.53792042232226,72.82230034558427Q0,0,153.48961742109566,135.8894305820938L159.59736078645898,144.06138424295682L150.84473285140527,138.81954679002584Q0,0,-205.09750379529936,76.78550603425862Z"/><path fill="#eec498" d="M-20.906013235287254,217.99985919859213A219,219,0,0,1,-25.433568666905895,217.51812242860544Q0,0,150.2121787736334,139.50376822178671L156.01017561904487,147.93858557967485L147.27952308020113,142.59643081532056Q0,0,-20.906013235287254,217.99985919859213Z"/><path fill="#c98c32" d="M192.47991926374624,104.4628196068904A219,219,0,0,1,189.8489161379836,109.17137464204103Q0,0,-204.99921076326618,-0.5688465856161483L-214.97552281304962,-3.2441626432701054L-204.9230264283463,-5.617227024723321Q0,0,192.47991926374624,104.4628196068904Z"/><path fill="#8fa38b" d="M-202.70673113951636,82.89138164327959A219,219,0,0,1,-204.74636119752884,77.71697096755032Q0,0,204.99665765201104,1.1706201365872337L214.9635698493222,3.957731374863068L204.9008191605587,6.376073033773834Q0,0,-202.70673113951636,82.89138164327959Z"/><path fill="#f9be75" d="M-154.39546904923068,-155.3159333007018A219,219,0,0,1,-150.40147398493892,-159.1866722535456Q0,0,146.6298382375021,143.26440778659565L151.86214579992264,152.1935894610645L142.94439255129285,146.94182739486362Q0,0,-154.39546904923068,-155.3159333007018Z"/><path fill="#588c89" d="M-194.59218649268882,100.47328478752253A219,219,0,0,1,-197.73610083544662,94.13519228425722Q0,0,142.2750007583045,147.59005440484282L146.6954662431937,157.17964303207975L137.43334418708383,152.1087634081434Q0,0,-194.59218649268882,100.47328478752253Z"/><path fill="#eec498" d="M-11.684598024559087,218.68806590439377A219,219,0,0,1,-19.914892225760994,218.09263414346742Q0,0,204.86972036985082,7.307371318000325L214.6808460323721,11.710437516375663L204.44900018290537,15.020197209436406Q0,0,-11.684598024559087,218.68806590439377Z"/><path fill="#bc4d36" d="M25.659780190474713,-217.49155312465936A219,219,0,0,1,34.33335368346935,-216.29198049129286Q0,0,204.37861472151621,15.949352479459524L213.9710674693711,21.00910007634422L203.57769120118533,24.10650628346693Q0,0,25.659780190474713,-217.49155312465936Z"/><path fill="#bd6233" d="M205.02805791199614,-76.97074423984188A219,219,0,0,1,208.20328190212098,-67.91460376963076Q0,0,203.46601347824688,25.03160720508899L212.7647588185329,30.921794981719966L202.17403367582742,33.92138126971539Q0,0,205.02805791199614,-76.97074423984188Z"/><path fill="#588c89" d="M-189.33790125043322,110.05525498621677A219,219,0,0,1,-194.1334810699009,101.35675373492595Q0,0,202.01775753896507,34.84000055866706L210.9891609008076,41.33490029470403L200.23019164750366,43.964421442843516Q0,0,-189.33790125043322,110.05525498621677Z"/><path fill="#9fbe99" d="M-218.59334736236153,13.339733465026864A219,219,0,0,1,-218.98487833088015,2.573531116892241Q0,0,136.74052333440247,152.73188690720002L139.42746370552862,163.6611816059126L129.06396593166963,159.2717573770969Q0,0,-218.59334736236153,13.339733465026864Z"/><path fill="#588c89" d="M-182.96801943633295,120.3482607416729A219,219,0,0,1,-188.83569584734462,110.91474191399969Q0,0,-26.91886541111548,203.22493617904829L-33.62897020647632,212.35369637200085L-37.19016679814958,201.59834199101394Q0,0,-182.96801943633295,120.3482607416729Z"/><path fill="#bc4d36" d="M13.436130347868678,-218.58744337512866A219,219,0,0,1,24.670920546068288,-217.60594127782812Q0,0,-194.20379413729984,65.64972461996526L-205.38242297752686,63.585063748338314L-197.3258623912924,55.56531320466698Q0,0,13.436130347868678,-218.58744337512866Z"/><path fill="#bc4d36" d="M0.4977268442431594,-218.99943440106992A219,219,0,0,1,12.442415678452212,-218.6462583537267Q0,0,-38.10613554733926,201.42721373649542L-45.71368658259791,210.08393289118519L-49.03635100211938,199.0488288847662Q0,0,0.4977268442431594,-218.99943440106992Z"/><path fill="#bd6233" d="M200.12217385713274,-88.95007324727472A219,219,0,0,1,204.67607404269643,-77.90189159750004Q0,0,128.3386725879812,159.85676438097627L129.97488673151145,171.26449958800794L119.42814880593824,166.6190783577519Q0,0,200.12217385713274,-88.95007324727472Z"/><path fill="#e6a8a0" d="M-96.55951009845766,196.56363094312707A219,219,0,0,1,-107.72349889230198,190.67419276451707Q0,0,200.02828556621174,44.87410136640126L208.34237903313016,53.08910527420415L197.11077783524107,56.323540914845175Q0,0,-96.55951009845766,196.56363094312707Z"/><path fill="#dda469" d="M84.95566490244197,201.85027867452646A219,219,0,0,1,72.39270985758682,206.68888591183426Q0,0,196.02808598190143,-59.98324354577922L207.42689886085662,-56.56042458263514L199.34329507857154,-47.82520995476708Q0,0,84.95566490244197,201.85027867452646Z"/><path fill="#e8a97e" d="M20.596646618622017,218.02930570927296A219,219,0,0,1,6.825084725743462,218.89362306491805Q0,0,199.55862231995457,-46.91861312700677L210.7395199710379,-42.58937335036193L202.1172635026012,-34.25801795521844Q0,0,20.596646618622017,218.02930570927296Z"/><path fill="#2b6765" d="M-144.55030704574878,164.51811065344677A219,219,0,0,1,-154.74314521539432,154.96954219732143Q0,0,-49.940608717552216,198.8238808617324L-58.99936012515511,206.74640384979435L-62.51258349900179,195.2362079745464Q0,0,-144.55030704574878,164.51811065344677Z"/><path fill="#e8a97e" d="M35.60111283186572,216.0869287234486A219,219,0,0,1,21.587472729715294,217.9334325456831Q0,0,-104.63966554473217,176.28255839613456L-115.65322675254201,181.24384442436963L-115.79347592444368,169.16521785915472Q0,0,35.60111283186572,216.0869287234486Z"/><path fill="#c98c32" d="M199.30286972645538,90.77095415825238A219,219,0,0,1,192.95276020137368,103.58683473623076Q0,0,202.27089324515038,-33.3389523801962L213.1664150470781,-28.019270082870488L204.01570992587997,-20.064648101554106Q0,0,199.30286972645538,90.77095415825238Z"/><path fill="#588c89" d="M-174.120131379497,132.82763209658867A219,219,0,0,1,-182.4190936090077,121.17868742839269Q0,0,-197.57639264023484,54.667806534300894L-208.97600568038996,50.53740248439388L-200.72345901972002,41.654447531551426Q0,0,-174.120131379497,132.82763209658867Z"/><path fill="#2b6765" d="M-132.57886235335508,174.30962468289042A219,219,0,0,1,-143.8010067412438,165.1734556767665Q0,0,37.09026960330843,-201.61674509016828L45.86436611778654,-210.05108883463L50.324262487028356,-198.7271209602169Q0,0,-132.57886235335508,174.30962468289042Z"/><path fill="#dda469" d="M99.5890339725468,195.04621071021842A219,219,0,0,1,85.87228537005272,201.4620326645302Q0,0,-147.0524795947373,142.83055781253316L-159.31255922058227,144.37627393234825L-156.5712416831707,132.32704288160505Q0,0,99.5890339725468,195.04621071021842Z"/><path fill="#daca7e" d="M-194.40424172796935,-100.83645570017451A219,219,0,0,1,-185.91269441368829,-115.74744081768097Q0,0,51.22704459390092,-198.49632213765193L61.84043499524013,-205.91444971055208L66.61069336879854,-193.87628923859643Q0,0,-194.40424172796935,-100.83645570017451Z"/><path fill="#aba979" d="M-208.8031620866431,-66.04725204441925A219,219,0,0,1,-202.41838843440465,-83.59303812889246Q0,0,67.49125806853665,-193.5715115514837L79.37339347226529,-199.81207273009545L83.73436583099186,-187.11909570880687Q0,0,-208.8031620866431,-66.04725204441925Z"/><path fill="#e8a97e" d="M55.49315651029599,211.85256566896658A219,219,0,0,1,36.58295498251324,215.9228737414066Q0,0,84.5840392233134,-186.73655322049024L97.27262790274919,-191.73689227922023L100.73161997211241,-178.54450632207624Q0,0,55.49315651029599,211.85256566896658Z"/><path fill="#9fbe99" d="M-216.38744927207884,33.7264258041599A219,219,0,0,1,-218.5304542271971,14.33319836096952Q0,0,101.54214250117722,-178.08479243402738L114.70969405943761,-181.84247603019L116.98942927684524,-168.3403499980858Q0,0,-216.38744927207884,33.7264258041599Z"/><path fill="#e6a8a0" d="M-77.12240173113973,204.97105930160163A219,219,0,0,1,-95.66504461152117,197.00050568329937Q0,0,117.7534014845977,-167.80684264596346L131.4760620415059,-170.11479979724893L132.70205991244583,-156.25352250427395Q0,0,-77.12240173113973,204.97105930160163Z"/><path fill="#c98c32" d="M207.30159357092907,70.61904348653653A219,219,0,0,1,199.7134046414497,89.86409742784143Q0,0,133.41092986412903,-155.64871921345335L147.47262433274244,-156.45071131961598L147.50208901534913,-142.36619590376088Q0,0,207.30159357092907,70.61904348653653Z"/><path fill="#bd6233" d="M190.2628539357123,-108.44835827359405A219,219,0,0,1,199.7157893603828,-89.85879745555923Q0,0,161.52935819514224,-126.2270432239678L175.52006168920528,-124.1680633038044L172.80368854603782,-110.29000509966423Q0,0,190.2628539357123,-108.44835827359405Z"/><path fill="#dda469" d="M118.52858116996208,184.15204437050303A219,219,0,0,1,100.47457579409362,194.59151990515142Q0,0,148.14768207998205,-141.69426344890806L162.2739209735362,-141.039620574768L160.95393219466985,-126.95996105494687Q0,0,118.52858116996208,184.15204437050303Z"/></g><g><g id="2024" transform="rotate(27.017690222814977) translate(250,0)"><text x="8" dy="0.35em" style="font-family: Arial, sans-serif; font-size: 10px; fill: black; font-weight: bold;">2024</text></g><g id="2014" transform="rotate(-61.20868885023573) translate(250,0)"><text x="8" dy="0.35em" style="font-family: Arial, sans-serif; font-size: 10px; fill: black; font-weight: bold;">2014</text></g><g id="2019" transform="rotate(-17.649849857195633) translate(250,0)"><text x="8" dy="0.35em" style="font-family: Arial, sans-serif; font-size: 10px; fill: black; font-weight: bold;">2019</text></g><g id="2022" transform="rotate(82.75761660816369) translate(250,0)"><text x="8" dy="0.35em" style="font-family: Arial, sans-serif; font-size: 10px; fill: black; font-weight: bold;">2022</text></g><g id="2018" transform="rotate(117.50546125002026) translate(250,0)"><text x="8" dy="0.35em" transform="rotate(180) translate(-16)" text-anchor="end" style="font-family: Arial, sans-serif; font-size: 10px; fill: black; font-weight: bold;">2018</text></g><g id="2021" transform="rotate(201.0518035851175) translate(250,0)"><text x="8" dy="0.35em" transform="rotate(180) translate(-16)" text-anchor="end" style="font-family: Arial, sans-serif; font-size: 10px; fill: black; font-weight: bold;">2021</text></g><g id="2023" transform="rotate(64.84481947961953) translate(250,0)"><text x="8" dy="0.35em" style="font-family: Arial, sans-serif; font-size: 10px; fill: black; font-weight: bold;">2023</text></g><g id="2020" transform="rotate(176.35562372205584) translate(250,0)"><text x="8" dy="0.35em" transform="rotate(180) translate(-16)" text-anchor="end" style="font-family: Arial, sans-serif; font-size: 10px; fill: black; font-weight: bold;">2020</text></g><g id="2016" transform="rotate(133.52669782938207) translate(250,0)"><text x="8" dy="0.35em" transform="rotate(180) translate(-16)" text-anchor="end" style="font-family: Arial, sans-serif; font-size: 10px; fill: black; font-weight: bold;">2016</text></g><g id="2017" transform="rotate(209.79273153913783) translate(250,0)"><text x="8" dy="0.35em" transform="rotate(180) translate(-16)" text-anchor="end" style="font-family: Arial, sans-serif; font-size: 10px; fill: black; font-weight: bold;">2017</text></g><g id="2013" transform="rotate(100.40647505542665) translate(250,0)"><text x="8" dy="0.35em" transform="rotate(180) translate(-16)" text-anchor="end" style="font-family: Arial, sans-serif; font-size: 10px; fill: black; font-weight: bold;">2013</text></g><g id="2015" transform="rotate(148.77811325500684) translate(250,0)"><text x="8" dy="0.35em" transform="rotate(180) translate(-16)" text-anchor="end" style="font-family: Arial, sans-serif; font-size: 10px; fill: black; font-weight: bold;">2015</text></g><g id="2011" transform="rotate(163.01776373572017) translate(250,0)"><text x="8" dy="0.35em" transform="rotate(180) translate(-16)" text-anchor="end" style="font-family: Arial, sans-serif; font-size: 10px; fill: black; font-weight: bold;">2011</text></g><g id="2005" transform="rotate(6.597475622098841) translate(250,0)"><text x="8" dy="0.35em" style="font-family: Arial, sans-serif; font-size: 10px; fill: black; font-weight: bold;">2005</text></g><g id="2002" transform="rotate(46.22818586765868) translate(250,0)"><text x="8" dy="0.35em" style="font-family: Arial, sans-serif; font-size: 10px; fill: black; font-weight: bold;">2002</text></g><g id="1979" transform="rotate(189.56151436775082) translate(250,0)"><text x="8" dy="0.35em" transform="rotate(180) translate(-16)" text-anchor="end" style="font-family: Arial, sans-serif; font-size: 10px; fill: black; font-weight: bold;">1979</text></g><g id="2007" transform="rotate(221.2699824480299) translate(250,0)"><text x="8" dy="0.35em" transform="rotate(180) translate(-16)" text-anchor="end" style="font-family: Arial, sans-serif; font-size: 10px; fill: black; font-weight: bold;">2007</text></g><g id="2006" transform="rotate(216.20220114184048) translate(250,0)"><text x="8" dy="0.35em" transform="rotate(180) translate(-16)" text-anchor="end" style="font-family: Arial, sans-serif; font-size: 10px; fill: black; font-weight: bold;">2006</text></g><g id="2012" transform="rotate(226.13980974325835) translate(250,0)"><text x="8" dy="0.35em" transform="rotate(180) translate(-16)" text-anchor="end" style="font-family: Arial, sans-serif; font-size: 10px; fill: black; font-weight: bold;">2012</text></g><g id="2008" transform="rotate(233.50401620218406) translate(250,0)"><text x="8" dy="0.35em" transform="rotate(180) translate(-16)" text-anchor="end" style="font-family: Arial, sans-serif; font-size: 10px; fill: black; font-weight: bold;">2008</text></g><g id="1998" transform="rotate(236.6582420690844) translate(250,0)"><text x="8" dy="0.35em" transform="rotate(180) translate(-16)" text-anchor="end" style="font-family: Arial, sans-serif; font-size: 10px; fill: black; font-weight: bold;">1998</text></g><g id="2010" transform="rotate(248.5053243829487) translate(250,0)"><text x="8" dy="0.35em" transform="rotate(180) translate(-16)" text-anchor="end" style="font-family: Arial, sans-serif; font-size: 10px; fill: black; font-weight: bold;">2010</text></g><g id="1999" transform="rotate(239.70249348545082) translate(250,0)"><text x="8" dy="0.35em" transform="rotate(180) translate(-16)" text-anchor="end" style="font-family: Arial, sans-serif; font-size: 10px; fill: black; font-weight: bold;">1999</text></g><g id="1990" transform="rotate(230.21782099464315) translate(250,0)"><text x="8" dy="0.35em" transform="rotate(180) translate(-16)" text-anchor="end" style="font-family: Arial, sans-serif; font-size: 10px; fill: black; font-weight: bold;">1990</text></g><g id="1992" transform="rotate(251.30763200814073) translate(250,0)"><text x="8" dy="0.35em" transform="rotate(180) translate(-16)" text-anchor="end" style="font-family: Arial, sans-serif; font-size: 10px; fill: black; font-weight: bold;">1992</text></g><g id="2000" transform="rotate(245.61503719732968) translate(250,0)"><text x="8" dy="0.35em" transform="rotate(180) translate(-16)" text-anchor="end" style="font-family: Arial, sans-serif; font-size: 10px; fill: black; font-weight: bold;">2000</text></g><g id="1980" transform="rotate(242.680760231497) translate(250,0)"><text x="8" dy="0.35em" transform="rotate(180) translate(-16)" text-anchor="end" style="font-family: Arial, sans-serif; font-size: 10px; fill: black; font-weight: bold;">1980</text></g><g id="2025" transform="rotate(254.02196007290559) translate(250,0)"><text x="8" dy="0.35em" transform="rotate(180) translate(-16)" text-anchor="end" style="font-family: Arial, sans-serif; font-size: 10px; fill: black; font-weight: bold;">2025</text></g><g id="1982" transform="rotate(256.7142932475637) translate(250,0)"><text x="8" dy="0.35em" transform="rotate(180) translate(-16)" text-anchor="end" style="font-family: Arial, sans-serif; font-size: 10px; fill: black; font-weight: bold;">1982</text></g><g id="1978" transform="rotate(259.40662642222185) translate(250,0)"><text x="8" dy="0.35em" transform="rotate(180) translate(-16)" text-anchor="end" style="font-family: Arial, sans-serif; font-size: 10px; fill: black; font-weight: bold;">1978</text></g><g id="1995" transform="rotate(262.07696470677314) translate(250,0)"><text x="8" dy="0.35em" transform="rotate(180) translate(-16)" text-anchor="end" style="font-family: Arial, sans-serif; font-size: 10px; fill: black; font-weight: bold;">1995</text></g><g id="1997" transform="rotate(264.72530810121776) translate(250,0)"><text x="8" dy="0.35em" transform="rotate(180) translate(-16)" text-anchor="end" style="font-family: Arial, sans-serif; font-size: 10px; fill: black; font-weight: bold;">1997</text></g><g id="1977" transform="rotate(267.37365149566233) translate(250,0)"><text x="8" dy="0.35em" transform="rotate(180) translate(-16)" text-anchor="end" style="font-family: Arial, sans-serif; font-size: 10px; fill: black; font-weight: bold;">1977</text></g></g></g></svg>