<svg xmlns="http://www.w3.org/2000/svg" width="805" height="600"><rect width="805" height="600" x="0" y="0" fill="#FFFFFF" id="background"/><g transform="translate(402.5,300)" id="chord_diagram"><g><g><path fill="rgb(223, 93, 65)" d="M236.82826012870854,80.07730767457635A250,250,0,0,1,203.89877458707824,144.65576283677004L179.43092163662882,127.29707129635763A220,220,0,0,0,208.40886891326352,70.46803075362718Z"/></g><g><path fill="rgb(86, 158, 126)" d="M1.5308084989341916e-14,-250A250,250,0,0,1,211.041342856614,-134.02071334415848L185.7163817138203,-117.93822774285947A220,220,0,0,0,1.3471114790620885e-14,-220Z"/></g><g><path fill="rgb(147, 130, 95)" d="M216.91311555392662,-124.29280067923838A250,250,0,0,1,248.8546151947928,-23.903566601065894L218.9920613714177,-21.035138608937984A220,220,0,0,0,190.88354168745542,-109.37766459772978Z"/></g><g><path fill="rgb(192, 109, 77)" d="M63.897826347658004,241.69623039684453A250,250,0,0,1,-1.4130930895729918,249.9960063039412L-1.2435219188242328,219.99648554746827A220,220,0,0,0,56.23008718593904,212.69268274922317Z"/></g><g><path fill="rgb(133, 137, 102)" d="M-87.507259858345,234.1847122937022A250,250,0,0,1,-141.68005237124302,205.9775782945363L-124.67844608669385,181.26026889919194A220,220,0,0,0,-77.0063886753436,206.08254681845796Z"/></g><g><path fill="rgb(176, 116, 83)" d="M-238.53051379485814,-74.85448542846969A250,250,0,0,1,-227.16174643916884,-104.3912877337317L-199.90233686646857,-91.86433320568389A220,220,0,0,0,-209.90685213947518,-65.87194717705333Z"/></g><g><path fill="rgb(207, 101, 71)" d="M135.78402062346728,209.91117107797245A250,250,0,0,1,74.81423711857181,238.5431405938266L65.83652866434319,209.9179637225674A220,220,0,0,0,119.4899381486512,184.72183054861574Z"/></g><g><path fill="rgb(161, 123, 89)" d="M-246.92949716745048,39.06178988001029A250,250,0,0,1,-249.8899155745792,-7.418227155439122L-219.9031257056297,-6.528039896786427A220,220,0,0,0,-217.29795750735641,34.374375094409054Z"/></g><g><path fill="rgb(108, 149, 114)" d="M-150.89310736591935,199.32704319649434A250,250,0,0,1,-191.30680528761056,160.94007036983754L-168.3499886530973,141.62726192545705A220,220,0,0,0,-132.78593448200903,175.40779801291504Z"/></g><g><path fill="rgb(120, 143, 108)" d="M-222.18369088673336,-114.60544273265782A250,250,0,0,1,-211.31511087713696,-133.58863692314296L-185.9572975718805,-117.5580004923658A220,220,0,0,0,-195.52164798032535,-100.85278960473889Z"/></g><g><path fill="rgb(77, 162, 133)" d="M-12.771175734795289,249.67358104202972A250,250,0,0,1,-76.77578088266074,237.91906075356314L-67.56268717674145,209.36877346313557A220,220,0,0,0,-11.238634646619856,219.71275131698616Z"/></g><g><path fill="rgb(96, 154, 120)" d="M-198.42214722273354,152.0810688137082A250,250,0,0,1,-226.62240307415763,105.5570292538305L-199.42771470525872,92.89018574337085A220,220,0,0,0,-174.61148955600552,133.83134055606322Z"/></g><g><path fill="rgb(62, 167, 145)" d="M-231.18472406248597,95.15053000457864A250,250,0,0,1,-244.89952407319075,50.24164715377737L-215.51158118440785,44.21264949532409A220,220,0,0,0,-203.44255717498766,83.7324664040292Z"/></g><g><path fill="rgb(49, 168, 166)" d="M249.68372988625126,-12.571198434895752A250,250,0,0,1,240.22226930613985,69.23338305621374L211.39559698940306,60.925377089468086A220,220,0,0,0,219.72168229990112,-11.062654622708262Z"/></g><g><path fill="rgb(48, 166, 175)" d="M197.11517364935955,153.77128573691135A250,250,0,0,1,145.18190361958779,203.52448221625014L127.76007518523727,179.10154435030012A220,220,0,0,0,173.4613528114364,135.31873144848197Z"/></g><g><path fill="rgb(93, 116, 244)" d="M-249.294733237303,-18.765286572337214A250,250,0,0,1,-241.68544547855868,-63.9386068336701L-212.68319202113162,-56.26597401362969A220,220,0,0,0,-219.37936524882664,-16.51345218365675Z"/></g><g><path fill="rgb(51, 169, 160)" d="M-191.21839579764435,-161.04510271528108A250,250,0,0,1,-184.50872859264615,-168.69063125474764L-162.3676811615286,-148.44775550417793A220,220,0,0,0,-168.27218830192703,-141.71969038944735Z"/></g><g><path fill="rgb(50, 169, 163)" d="M-205.026727722822,-143.05258095984084A250,250,0,0,1,-198.3386016028435,-152.19000990284653L-174.53796941050228,-133.92720871450496A220,220,0,0,0,-180.42352039608335,-125.88627124465994Z"/></g><g><path fill="rgb(69, 165, 139)" d="M-176.6530373908585,-176.90026676233123A250,250,0,0,1,-169.7336526527145,-183.54968579969747L-149.36561433438877,-161.52372350373378A220,220,0,0,0,-155.45467290395547,-155.6722347508515Z"/></g><g><path fill="rgb(53, 169, 157)" d="M-149.76956812583967,-200.17261666721416A250,250,0,0,1,-147.6093561943552,-201.77085509034245L-129.89623345103257,-177.55835247950137A220,220,0,0,0,-131.7972199507389,-176.15190266714848Z"/></g><g><path fill="rgb(51, 161, 187)" d="M-138.28864880931204,-208.2696560003275A250,250,0,0,1,-136.52481088950975,-209.4301220254231L-120.14183358276857,-184.29850738237232A220,220,0,0,0,-121.6940109521946,-183.27729728028822Z"/></g><g><path fill="rgb(56, 169, 152)" d="M-92.1392245508545,-232.40129797220843A250,250,0,0,1,-91.06767111750364,-232.82327907070243L-80.13955058340319,-204.88448558221813A220,220,0,0,0,-81.08251760475196,-204.5131422155434Z"/></g><g><path fill="rgb(50, 162, 184)" d="M-126.86752388598273,-215.41734234513154A250,250,0,0,1,-125.37599501608157,-216.2888343713736L-110.33087561415178,-190.33417424680877A220,220,0,0,0,-111.64342101966481,-189.56726126371575Z"/></g><g><path fill="rgb(63, 145, 211)" d="M-161.21804331678695,-191.0726105675709A250,250,0,0,1,-158.71049658151674,-193.1604987435277L-139.66523699173473,-169.98123889430437A220,220,0,0,0,-141.8718781187725,-168.1438972994624Z"/></g><g><path fill="rgb(59, 149, 205)" d="M-80.3943766850877,-236.72081487992605A250,250,0,0,1,-79.84892497767432,-236.9053591202819L-70.2670539803534,-208.47671602584808A220,220,0,0,0,-70.74705148287718,-208.3143170943349Z"/></g><g><path fill="rgb(49, 163, 181)" d="M-103.82784476166367,-227.41982906542663A250,250,0,0,1,-102.6041138910236,-227.97455080038617L-90.29162022410077,-200.61760470433984A220,220,0,0,0,-91.36850339026402,-200.12944957757543Z"/></g><g><path fill="rgb(90, 119, 241)" d="M-115.41857109351622,-221.76238059402894A250,250,0,0,1,-114.0543087188374,-222.46710917047523L-100.36779167257691,-195.77105607001818A220,220,0,0,0,-101.56834256229428,-195.15089492274547Z"/></g><g><path fill="rgb(239, 85, 59)" d="M-69.00173295827251,-240.28891120639597A250,250,0,0,1,-68.63268020138632,-240.39458231909936L-60.39675857721997,-211.54723244080742A220,220,0,0,0,-60.72152500327981,-211.45424186162845Z"/></g><g><path fill="rgb(84, 124, 235)" d="M-57.63852677139222,-243.26487669127965A250,250,0,0,1,-57.26491771951245,-243.35309572425305L-50.39312759317095,-214.1507242373427A220,220,0,0,0,-50.721903558825154,-214.0730914883261Z"/></g><g><path fill="rgb(96, 113, 247)" d="M-46.1480742449529,-245.70379574496263A250,250,0,0,1,-45.77073370028981,-245.77436794046926L-40.27824565625504,-216.28144378761294A220,220,0,0,0,-40.61030533555856,-216.21934025556712Z"/></g><g><path fill="rgb(54, 156, 196)" d="M-34.55574240524351,-247.600284060464A250,250,0,0,1,-34.365633035236705,-247.6267418234296L-30.241757071008298,-217.91153280461805A220,220,0,0,0,-30.409053316614283,-217.88824997320833Z"/></g><g><path fill="rgb(52, 159, 190)" d="M-23.07825201873749,-248.93250949556517A250,250,0,0,1,-22.887123193560633,-248.95015483410083L-20.140668410333355,-219.07613625400873A220,220,0,0,0,-20.308861776488992,-219.06060835609736Z"/></g><g><path fill="rgb(99, 110, 250)" d="M-11.55146367584419,-249.73298477963547A250,250,0,0,1,-11.35972366994025,-249.74178000114958L-9.99655682954742,-219.77276640101164A220,220,0,0,0,-10.165288034742886,-219.76502660607923Z"/></g></g><g fill-opacity="0.7"><path fill="rgb(53, 169, 157)" d="M-129.37363834870797,-176.70161770741578Q0,0,-194.40985782775402,-15.159392447999572L-214.3493304254724,-16.714201929845682L-194.40985782775402,-15.159392447999572Q0,0,-129.37363834870797,-176.70161770741578Z"/><path fill="rgb(50, 162, 184)" d="M-111.06350182095643,-188.74824121900159Q0,0,-89.29526216920742,-173.35326981090523L-98.45375059681844,-191.13309235561348L-89.29526216920742,-173.35326981090523Q0,0,-111.06350182095643,-188.74824121900159Z"/><path fill="rgb(63, 145, 211)" d="M-141.1627413134017,-167.433809204968Q0,0,-89.42833067146431,-173.28466081368896L-98.60046715058886,-191.0574465381699L-89.42833067146431,-173.28466081368896Q0,0,-141.1627413134017,-167.433809204968Z"/><path fill="rgb(59, 149, 205)" d="M-70.02732006802388,-207.50222756416505Q0,0,-89.56134645881694,-173.21594967116556L-98.74712558279816,-190.9816880989774L-89.56134645881694,-173.21594967116556Q0,0,-70.02732006802388,-207.50222756416505Z"/><path fill="rgb(49, 163, 181)" d="M-90.87670817830893,-199.25467098834716Q0,0,-89.69430945285711,-173.14713642383782L-98.89372580699631,-190.90581708269298L-89.69430945285711,-173.14713642383782Q0,0,-90.87670817830893,-199.25467098834716Z"/><path fill="rgb(90, 119, 241)" d="M-101.0320861933719,-194.30264424195332Q0,0,-194.4214394013825,-15.010126618205202L-214.36209985280635,-16.54962678417497L-194.4214394013825,-15.010126618205202Q0,0,-101.0320861933719,-194.30264424195332Z"/><path fill="rgb(90, 119, 241)" d="M-100.88287736907947,-194.38015601839422Q0,0,-8.935363723241894,-194.79517261763283L-9.851811284600037,-214.7741646809798L-8.935363723241894,-194.79517261763283Q0,0,-100.88287736907947,-194.38015601839422Z"/><path fill="rgb(54, 156, 196)" d="M-30.187564667245923,-216.90945331972242Q0,0,-194.43290637030478,-14.860851940460956L-214.37474292110525,-16.385041883072336L-194.43290637030478,-14.860851940460956Q0,0,-30.187564667245923,-216.90945331972242Z"/><path fill="rgb(52, 159, 190)" d="M-20.13283582643783,-218.07262304467682Q0,0,-194.44425872776142,-14.71156850275908L-214.38725962291645,-16.220447323554883L-194.44425872776142,-14.71156850275908Q0,0,-20.13283582643783,-218.07262304467682Z"/><path fill="rgb(51, 161, 187)" d="M-119.73655412320001,-183.36891123279867Q0,0,-89.09556074697102,-173.45599169582698L-98.23356697742958,-191.24634981847592L-89.09556074697102,-173.45599169582698Q0,0,-119.73655412320001,-183.36891123279867Z"/><path fill="rgb(59, 149, 205)" d="M-70.2662434657944,-207.4214430313455Q0,0,-194.39227059843958,-15.383274410314897L-214.32993937776672,-16.961046144706167L-194.39227059843958,-15.383274410314897Q0,0,-70.2662434657944,-207.4214430313455Z"/><path fill="rgb(239, 85, 59)" d="M-60.28389073156362,-210.53943221701937Q0,0,159.73106579358426,111.85252174379286L176.11373920831088,123.32457525597675L159.73106579358426,111.85252174379286Q0,0,-60.28389073156362,-210.53943221701937Z"/><path fill="rgb(84, 124, 235)" d="M-50.32772352024139,-213.13873473695517Q0,0,-35.84834566432388,-191.67654033066006L-39.52509906579299,-211.3356726722662L-35.84834566432388,-191.67654033066006Q0,0,-50.32772352024139,-213.13873473695517Z"/><path fill="rgb(49, 168, 166)" d="M218.88602770123128,-7.0644799649948204Q0,0,-194.28774036798842,-16.6515447542L-214.2146880980385,-18.35939549822051L-194.28774036798842,-16.6515447542Q0,0,218.88602770123128,-7.0644799649948204Z"/><path fill="rgb(48, 166, 175)" d="M172.51764622237383,134.90241562659978Q0,0,-194.32557846255443,-16.203998123722577L-214.25640702281643,-17.865946649232587L-194.32557846255443,-16.203998123722577Q0,0,172.51764622237383,134.90241562659978Z"/><path fill="rgb(51, 161, 187)" d="M-120.08829461177811,-183.138749305642Q0,0,-194.36238562373,-15.75636552801682L-214.2969892774459,-17.37240301806983L-194.36238562373,-15.75636552801682Q0,0,-120.08829461177811,-183.138749305642Z"/><path fill="rgb(120, 143, 108)" d="M-185.3846509120419,-116.5912998736199A219,219,0,0,1,-185.37752165269947,-116.60263490120167Q0,0,-194.06179634662047,-19.105475621475694L-213.9649262264515,-21.0715529781069L-194.06062778974723,-19.117341390715982Q0,0,-185.3846509120419,-116.5912998736199Z"/><path fill="rgb(51, 169, 160)" d="M-161.9740889514755,-147.39536800164214A219,219,0,0,1,-161.96507623759135,-147.40527154532575Q0,0,-194.14774823523632,-18.2113111880307L-214.05972383370036,-20.085682269714702L-194.14663435140943,-18.223182214424824Q0,0,-161.9740889514755,-147.39536800164214Z"/><path fill="rgb(50, 169, 163)" d="M-174.05528969173827,-132.91258830646953A219,219,0,0,1,-174.04716249710458,-132.9232305757969Q0,0,-80.44599991688608,-177.63288292816836L-88.69088403978037,-195.85435172148266L-80.4351384986936,-177.637801423841Q0,0,-174.05528969173827,-132.91258830646953Z"/><path fill="rgb(51, 161, 187)" d="M-120.72589789877955,-182.71906735897448A219,219,0,0,1,-120.71472541325873,-182.72644873800166Q0,0,-125.29634826632004,-149.4182890784292L-138.14221914745838,-164.74746519754282L-125.28721193056883,-149.42594997745448Q0,0,-120.72589789877955,-182.71906735897448Z"/><path fill="rgb(56, 169, 152)" d="M-80.25106279261041,-203.76645190181944A219,219,0,0,1,-80.23860345165656,-203.77135842931364Q0,0,-194.2295801694446,-17.316760297506093L-214.14997894014402,-19.09938532874475L-194.22852098230146,-17.32863632914236Q0,0,-80.25106279261041,-203.76645190181944Z"/><path fill="rgb(223, 93, 65)" d="M179.87500043819102,124.92391371295078A219,219,0,0,1,179.77138785231963,125.07297113945468Q0,0,159.3902410970064,112.33766529102418L175.68660880096763,123.93230203629625L159.29706842677706,112.4697470017369Q0,0,179.87500043819102,124.92391371295078Z"/><path fill="rgb(50, 169, 163)" d="M-174.76709340051028,-131.97523655723188A219,219,0,0,1,-174.65763765126655,-132.12005756159382Q0,0,-193.97172632755777,-19.999234623030745L-213.85710506812495,-22.139074323037203L-193.9550821061789,-20.16001302542715Q0,0,-174.76709340051028,-131.97523655723188Z"/><path fill="rgb(96, 154, 120)" d="M-198.16194387486567,93.23542245163361A219,219,0,0,1,-198.31055811517444,92.91890302865193Q0,0,-193.8614423341344,-21.041415734904188L-213.72607800917532,-23.37014289250075L-193.82759888087764,-21.350922979431274Q0,0,-198.16194387486567,93.23542245163361Z"/><path fill="rgb(50, 169, 163)" d="M-175.57440102684507,-130.89931132005466A219,219,0,0,1,-175.36517333160967,-131.17948003546326Q0,0,-98.44533144211871,-168.3256270365609L-108.39409041809954,-185.67638827388058L-98.17644433276952,-168.4825978496729Q0,0,-175.57440102684507,-130.89931132005466Z"/><path fill="rgb(86, 158, 126)" d="M37.968452844816625,-215.68355660219194A219,219,0,0,1,38.643831786058406,-215.56357360391578Q0,0,-124.60671111875513,-149.99389168951882L-137.12771907573344,-165.59284000549883L-124.13628820668022,-150.38344972192925Q0,0,37.968452844816625,-215.68355660219194Z"/><path fill="rgb(62, 167, 145)" d="M-206.8667960860675,71.88274255400502A219,219,0,0,1,-207.14556321493285,71.07542219620127Q0,0,-193.53388402929932,-23.867042810824383L-213.33179366343722,-26.730989737393713L-193.4393315418633,-24.621637082799346Q0,0,-206.8667960860675,71.88274255400502Z"/><path fill="rgb(69, 165, 139)" d="M-149.67634696205758,-159.86866847538877A219,219,0,0,1,-149.0517261425882,-160.45118551732452Q0,0,-193.72854721738324,-22.231733918930214L-213.5499377897844,-24.928378807680367L-193.64037090041302,-22.987099807293802Q0,0,-149.67634696205758,-159.86866847538877Z"/><path fill="rgb(161, 123, 89)" d="M-218.99431392272783,1.5781221479113294A219,219,0,0,1,-218.9996567189584,0.3877589178667834Q0,0,-193.32541705829468,-25.50064938852395L-213.07646518656745,-28.695295495908656L-193.18395283623738,-26.55108974348154Q0,0,-218.99431392272783,1.5781221479113294Z"/><path fill="rgb(53, 169, 157)" d="M-130.79927770101497,-175.64893666883603A219,219,0,0,1,-129.8426086415963,-176.35729920007637Q0,0,153.19937161579696,120.64390799590733L168.54999495494351,133.4762121154497L152.54135056448004,121.4748384150578Q0,0,-130.79927770101497,-175.64893666883603Z"/><path fill="rgb(192, 109, 77)" d="M5.8300466310650165,218.92238477661348A219,219,0,0,1,4.4719070882808944,218.95433781269048Q0,0,-192.42705496841543,-31.57259121742194L-212.05417229631195,-35.46869058375348L-192.22750036577926,-32.76565432162664Q0,0,5.8300466310650165,218.92238477661348Z"/><path fill="rgb(108, 149, 114)" d="M-155.44595121628223,154.26456576435567A219,219,0,0,1,-156.39990001159458,153.29732964524604Q0,0,-192.75529778059703,-29.502460533205827L-212.42315862551288,-33.18737229067994L-192.5685783731138,-30.697599635116955Q0,0,-155.44595121628223,154.26456576435567Z"/><path fill="rgb(77, 162, 133)" d="M-26.422021257516793,217.4002686122244A219,219,0,0,1,-27.77009821534928,217.23218372310734Q0,0,-193.06127078170772,-27.42892130857725L-212.76760283491663,-30.902219724207107L-192.8874081418373,-28.625998328866718Q0,0,-26.422021257516793,217.4002686122244Z"/><path fill="rgb(86, 158, 126)" d="M35.316140981060386,-216.13368591269122A219,219,0,0,1,36.98768418263167,-215.85391175238382Q0,0,-192.0765802684029,-33.639074190527L-211.63164405126687,-37.9084058772969L-191.81050485541428,-35.12449611184609Q0,0,35.316140981060386,-216.13368591269122Z"/><path fill="rgb(176, 116, 83)" d="M-202.03633029224923,-84.51225498140002A219,219,0,0,1,-201.31011922787098,-86.2278139376174Q0,0,-191.64886709461948,-35.99599618497704L-211.13444632401615,-40.58627323925101L-191.33573412066113,-37.62494981402203Q0,0,-202.03633029224923,-84.51225498140002Z"/><path fill="rgb(50, 169, 163)" d="M-177.26789950638312,-128.59662439035816A219,219,0,0,1,-176.16758206558484,-130.0998963457136Q0,0,151.98761827173257,122.16695089952152L167.00167322153516,135.4084234499744L150.94290933568524,123.45540944518837Q0,0,-177.26789950638312,-128.59662439035816Z"/><path fill="rgb(147, 130, 95)" d="M208.50983272685656,-66.96752687846777A219,219,0,0,1,209.12193634479183,-65.03088296651703Q0,0,-191.162735605006,-38.49426601470112L-210.57009195542142,-43.419308767936016L-190.79751049377242,-40.265493780392134Q0,0,208.50983272685656,-66.96752687846777Z"/><path fill="rgb(207, 101, 71)" d="M71.45247029951076,207.01580733870912A219,219,0,0,1,69.37002719486843,207.72289071496962Q0,0,-190.61251510702556,-41.1323362401646L-209.93215838626537,-46.40569873715938L-190.189855666751,-43.04438176417941Q0,0,71.45247029951076,207.01580733870912Z"/><path fill="rgb(223, 93, 65)" d="M181.8656943672475,122.00766046572208A219,219,0,0,1,180.4409762446425,124.10501235598971Q0,0,60.926475694723806,185.23758948825756L65.99193858693602,204.62175847533436L58.77782580906269,185.9305440027525Q0,0,181.8656943672475,122.00766046572208Z"/><path fill="rgb(50, 169, 163)" d="M-179.31814519487276,-125.72192650397358A219,219,0,0,1,-177.85059632760522,-127.78953551020999Q0,0,194.9189153761464,-5.622848796355499L214.94288603118025,-4.955375322521692L194.97094975753126,-3.3658209468453424Q0,0,-179.31814519487276,-125.72192650397358Z"/><path fill="rgb(223, 93, 65)" d="M183.90046842103663,118.91853394035478A219,219,0,0,1,182.41839395778243,121.17974065768291Q0,0,-189.22351735392624,-47.111150274731855L-208.3064558184003,-53.22988318958473L-188.62750622168073,-49.44354251658946Q0,0,183.90046842103663,118.91853394035478Z"/><path fill="rgb(133, 137, 102)" d="M-108.58908393985344,190.18257241162624A219,219,0,0,1,-110.92863096831451,188.8275372701119Q0,0,-189.9922352918982,-43.9084334585965L-209.1757973933371,-49.70398157956354L-189.435703423646,-46.25055965486728Q0,0,-108.58908393985344,190.18257241162624Z"/><path fill="rgb(49, 168, 166)" d="M218.74741058865558,-10.515244208202557A219,219,0,0,1,218.86055293891204,-7.813985364311626Q0,0,150.3801909911411,124.14023585231313L164.95577306723325,137.893411487973L148.83620848760208,125.98723365101341Q0,0,218.74741058865558,-10.515244208202557Z"/><path fill="rgb(51, 169, 160)" d="M-164.5515005762481,-144.51229587168365A219,219,0,0,1,-162.642392306688,-146.6576020012512Q0,0,148.2620036542434,126.66245802300351L162.5492056617444,140.72226454522368L146.58835723702748,128.59569791618077Q0,0,-164.5515005762481,-144.51229587168365Z"/><path fill="rgb(51, 169, 160)" d="M-167.18625622403493,-141.4558437456415A219,219,0,0,1,-165.20667247716221,-143.76284418800168Q0,0,194.984234731734,-2.4795576379792195L214.99641413220638,-1.2417368049652442L194.99986768906467,0.22715907923181847Q0,0,-167.18625622403493,-141.4558437456415Z"/><path fill="rgb(223, 93, 65)" d="M189.35072307991788,110.03319348774829A219,219,0,0,1,187.1970296795483,113.65857679539324Q0,0,3.095618168830362,194.9754270367238L1.343306599649877,214.9958035110903L-0.6590354063176547,194.99888633613583Q0,0,189.35072307991788,110.03319348774829Z"/><path fill="rgb(223, 93, 65)" d="M186.67846771376776,114.50829529793798A219,219,0,0,1,184.43910555536058,118.08139710360204Q0,0,-178.8978939856295,-77.59216150814761L-196.41361822142017,-87.4453576650596L-177.370761737347,-81.02229866347463Q0,0,186.67846771376776,114.50829529793798Z"/><path fill="rgb(62, 167, 145)" d="M-205.09750379529936,76.78550603425862A219,219,0,0,1,-206.53792042232226,72.82230034558427Q0,0,146.0023190103105,129.26067787077216L159.59736078645898,144.06138424295682L143.4864532001172,132.0478615807563Q0,0,-205.09750379529936,76.78550603425862Z"/><path fill="rgb(77, 162, 133)" d="M-20.906013235287254,217.99985919859213A219,219,0,0,1,-25.433568666905895,217.51812242860544Q0,0,142.88475541882204,132.6987063573093L156.01017561904487,147.93858557967485L140.09515610067913,135.64050736091468Q0,0,-20.906013235287254,217.99985919859213Z"/><path fill="rgb(223, 93, 65)" d="M192.47991926374624,104.4628196068904A219,219,0,0,1,189.8489161379836,109.17137464204103Q0,0,-194.99924926261906,-0.5410979716836533L-214.97552281304962,-3.2441626432701054L-194.92678123671965,-5.343215950346574Q0,0,192.47991926374624,104.4628196068904Z"/><path fill="rgb(62, 167, 145)" d="M-202.70673113951636,82.89138164327959A219,219,0,0,1,-204.74636119752884,77.71697096755032Q0,0,194.99682069337635,1.1135167152902954L214.9635698493222,3.957731374863068L194.90565725028756,6.065045080906818Q0,0,-202.70673113951636,82.89138164327959Z"/><path fill="rgb(69, 165, 139)" d="M-154.39546904923068,-155.3159333007018A219,219,0,0,1,-150.40147398493892,-159.1866722535456Q0,0,139.4771632015264,136.27590008968855L151.86214579992264,152.1935894610645L135.97149535366881,139.77393337560198Q0,0,-154.39546904923068,-155.3159333007018Z"/><path fill="rgb(96, 154, 120)" d="M-194.59218649268882,100.47328478752253A219,219,0,0,1,-197.73610083544662,94.13519228425722Q0,0,135.33475681887498,140.39053955582608L146.6954662431937,157.17964303207975L130.72927861698219,144.6888237296974Q0,0,-194.59218649268882,100.47328478752253Z"/><path fill="rgb(77, 162, 133)" d="M-11.684598024559087,218.68806590439377A219,219,0,0,1,-19.914892225760994,218.09263414346742Q0,0,194.87607547376052,6.950914180536894L214.6808460323721,11.710437516375663L194.47587822276364,14.28750466263463Q0,0,-11.684598024559087,218.68806590439377Z"/><path fill="rgb(86, 158, 126)" d="M25.659780190474713,-217.49155312465936A219,219,0,0,1,34.33335368346935,-216.29198049129286Q0,0,194.40892619851542,15.171335285339547L213.9710674693711,21.00910007634422L193.64707211820067,22.930579147688054Q0,0,25.659780190474713,-217.49155312465936Z"/><path fill="rgb(147, 130, 95)" d="M205.02805791199614,-76.97074423984188A219,219,0,0,1,208.20328190212098,-67.91460376963076Q0,0,193.54084208906409,23.810553195084648L212.7647588185329,30.921794981719966L192.31188569164073,32.26667974436342Q0,0,205.02805791199614,-76.97074423984188Z"/><path fill="rgb(96, 154, 120)" d="M-189.33790125043322,110.05525498621677A219,219,0,0,1,-194.1334810699009,101.35675373492595Q0,0,192.16323278096678,33.14048833629305L210.9891609008076,41.33490029470403L190.4628652256742,41.81981551880237Q0,0,-189.33790125043322,110.05525498621677Z"/><path fill="rgb(161, 123, 89)" d="M-218.59334736236153,13.339733465026864A219,219,0,0,1,-218.98487833088015,2.573531116892241Q0,0,130.070253903456,145.28155096050733L139.42746370552862,163.6611816059126L122.76816271549063,151.5024033587019Q0,0,-218.59334736236153,13.339733465026864Z"/><path fill="rgb(96, 154, 120)" d="M-182.96801943633295,120.3482607416729A219,219,0,0,1,-188.83569584734462,110.91474191399969Q0,0,-25.605750025207406,193.3115246581191L-33.62897020647632,212.35369637200085L-35.37601232019107,191.76427652803764Q0,0,-182.96801943633295,120.3482607416729Z"/><path fill="rgb(86, 158, 126)" d="M13.436130347868678,-218.58744337512866A219,219,0,0,1,24.670920546068288,-217.60594127782812Q0,0,-184.7304383257242,62.44729902874744L-205.38242297752686,63.585063748338314L-187.7002105673269,52.85481012151249Q0,0,13.436130347868678,-218.58744337512866Z"/><path fill="rgb(86, 158, 126)" d="M0.4977268442431594,-218.99943440106992A219,219,0,0,1,12.442415678452212,-218.6462583537267Q0,0,-36.24729966698125,191.60149599325175L-45.71368658259791,210.08393289118519L-46.64433388006478,189.33912991477763Q0,0,0.4977268442431594,-218.99943440106992Z"/><path fill="rgb(147, 130, 95)" d="M200.12217385713274,-88.95007324727472A219,219,0,0,1,204.67607404269643,-77.90189159750004Q0,0,122.07824953490892,152.05887343556282L129.97488673151145,171.26449958800794L113.60238544955101,158.49131843786157Q0,0,200.12217385713274,-88.95007324727472Z"/><path fill="rgb(133, 137, 102)" d="M-96.55951009845766,196.56363094312707A219,219,0,0,1,-107.72349889230198,190.67419276451707Q0,0,190.27080822151848,42.68512081194266L208.34237903313016,53.08910527420415L187.49561794083905,53.57605111412102Q0,0,-96.55951009845766,196.56363094312707Z"/><path fill="rgb(207, 101, 71)" d="M84.95566490244197,201.85027867452646A219,219,0,0,1,72.39270985758682,206.68888591183426Q0,0,186.4657403242477,-57.057231665497305L207.42689886085662,-56.56042458263514L189.61923190400708,-45.49227288380283Q0,0,84.95566490244197,201.85027867452646Z"/><path fill="rgb(192, 109, 77)" d="M20.596646618622017,218.02930570927296A219,219,0,0,1,6.825084725743462,218.89362306491805Q0,0,189.82405537751774,-44.629900291543024L210.7395199710379,-42.58937335036193L192.25788479515722,-32.58689512813462Q0,0,20.596646618622017,218.02930570927296Z"/><path fill="rgb(108, 149, 114)" d="M-144.55030704574878,164.51811065344677A219,219,0,0,1,-154.74314521539432,154.96954219732143Q0,0,-47.50448146303747,189.1251549660381L-58.99936012515511,206.74640384979435L-59.46318918197731,185.7124905123734Q0,0,-144.55030704574878,164.51811065344677Z"/><path fill="rgb(192, 109, 77)" d="M35.60111283186572,216.0869287234486A219,219,0,0,1,21.587472729715294,217.9334325456831Q0,0,-99.53529161572085,167.6834092060792L-115.65322675254201,181.24384442436963L-110.14501368422692,160.91325601236667Q0,0,35.60111283186572,216.0869287234486Z"/><path fill="rgb(223, 93, 65)" d="M199.30286972645538,90.77095415825238A219,219,0,0,1,192.95276020137368,103.58683473623076Q0,0,192.4040204039235,-31.712662020186627L213.1664150470781,-28.019270082870488L194.06372407583706,-19.085884779527074Q0,0,199.30286972645538,90.77095415825238Z"/><path fill="rgb(96, 154, 120)" d="M-174.120131379497,132.82763209658867A219,219,0,0,1,-182.4190936090077,121.17868742839269Q0,0,-187.93851982851606,52.00108426433499L-208.97600568038996,50.53740248439388L-190.93207077485565,39.62252326171965Q0,0,-174.120131379497,132.82763209658867Z"/><path fill="rgb(108, 149, 114)" d="M-132.57886235335508,174.30962468289042A219,219,0,0,1,-143.8010067412438,165.1734556767665Q0,0,35.2809881592446,-191.78178191503812L45.86436611778654,-210.05108883463L47.869420414490385,-189.0331150597185Q0,0,-132.57886235335508,174.30962468289042Z"/><path fill="rgb(207, 101, 71)" d="M99.5890339725468,195.04621071021842A219,219,0,0,1,85.87228537005272,201.4620326645302Q0,0,-139.87918790718913,135.86321352899495L-159.31255922058227,144.37627393234825L-148.9336201376502,125.87206518006334Q0,0,99.5890339725468,195.04621071021842Z"/><path fill="rgb(120, 143, 108)" d="M-194.40424172796935,-100.83645570017451A219,219,0,0,1,-185.91269441368829,-115.74744081768097Q0,0,48.7281643698082,-188.81357471630304L61.84043499524013,-205.91444971055208L63.36139125324739,-184.41890927573806Q0,0,-194.40424172796935,-100.83645570017451Z"/><path fill="rgb(176, 116, 83)" d="M-208.8031620866431,-66.04725204441925A219,219,0,0,1,-202.41838843440465,-83.59303812889246Q0,0,64.19900157738853,-184.12899879287474L79.37339347226529,-199.81207273009545L79.64976261972397,-177.9913349425236Q0,0,-208.8031620866431,-66.04725204441925Z"/><path fill="rgb(192, 109, 77)" d="M55.49315651029599,211.85256566896658A219,219,0,0,1,36.58295498251324,215.9228737414066Q0,0,80.45798852949324,-177.62745306339315L97.27262790274919,-191.73689227922023L95.81788241249717,-169.83501820880426Q0,0,55.49315651029599,211.85256566896658Z"/><path fill="rgb(161, 123, 89)" d="M-216.38744927207884,33.7264258041599A219,219,0,0,1,-218.5304542271971,14.33319836096952Q0,0,96.58886725721736,-169.39772938846505L114.70969405943761,-181.84247603019L111.28262784870645,-160.12862560793528Q0,0,-216.38744927207884,33.7264258041599Z"/><path fill="rgb(133, 137, 102)" d="M-77.12240173113973,204.97105930160163A219,219,0,0,1,-95.66504461152117,197.00050568329937Q0,0,112.00933311949538,-159.62114300469696L131.4760620415059,-170.11479979724893L126.22878869720456,-148.63139945528496Q0,0,-77.12240173113973,204.97105930160163Z"/><path fill="rgb(223, 93, 65)" d="M207.30159357092907,70.61904348653653A219,219,0,0,1,199.7134046414497,89.86409742784143Q0,0,126.90307962685445,-148.0560987640166L147.47262433274244,-156.45071131961598L140.30686516094184,-135.4215034206506Q0,0,207.30159357092907,70.61904348653653Z"/><path fill="rgb(147, 130, 95)" d="M190.2628539357123,-108.44835827359405A219,219,0,0,1,199.7157893603828,-89.85879745555923Q0,0,153.64987730757434,-120.06962648133522L175.52006168920528,-124.1680633038044L164.37424032427987,-104.91000485090012Q0,0,190.2628539357123,-108.44835827359405Z"/><path fill="rgb(207, 101, 71)" d="M118.52858116996208,184.15204437050303A219,219,0,0,1,100.47457579409362,194.59151990515142Q0,0,140.92096588095853,-134.7823481587174L162.2739209735362,-141.039620574768L153.10252086810058,-120.76679222299825Q0,0,118.52858116996208,184.15204437050303Z"/></g><g><g id="2024" transform="rotate(27.017690222814977) translate(250,0)"><text x="8" dy="0.35em" style="font-family: Arial, sans-serif; font-size: 10px; fill: black; font-weight: bold;">2024 (379)</text></g><g id="2014" transform="rotate(-61.20868885023573) translate(250,0)"><text x="8" dy="0.35em" style="font-family: Arial, sans-serif; font-size: 10px; fill: black; font-weight: bold;">2014 (1309)</text></g><g id="2019" transform="rotate(-17.649849857195633) translate(250,0)"><text x="8" dy="0.35em" style="font-family: Arial, sans-serif; font-size: 10px; fill: black; font-weight: bold;">2019 (553)</text></g><g id="2022" transform="rotate(82.75761660816369) translate(250,0)"><text x="8" dy="0.35em" style="font-family: Arial, sans-serif; font-size: 10px; fill: black; font-weight: bold;">2022 (344)</text></g><g id="2018" transform="rotate(117.50546125002026) translate(250,0)"><text x="8" dy="0.35em" transform="rotate(180) translate(-16)" text-anchor="end" style="font-family: Arial, sans-serif; font-size: 10px; fill: black; font-weight: bold;">2018 (319)</text></g><g id="2021" transform="rotate(201.0518035851175) translate(250,0)"><text x="8" dy="0.35em" transform="rotate(180) translate(-16)" text-anchor="end" style="font-family: Arial, sans-serif; font-size: 10px; fill: black; font-weight: bold;">2021 (165)</text></g><g id="2023" transform="rotate(64.84481947961953) translate(250,0)"><text x="8" dy="0.35em" style="font-family: Arial, sans-serif; font-size: 10px; fill: black; font-weight: bold;">2023 (352)</text></g><g id="2020" transform="rotate(176.35562372205584) translate(250,0)"><text x="8" dy="0.35em" transform="rotate(180) translate(-16)" text-anchor="end" style="font-family: Arial, sans-serif; font-size: 10px; fill: black; font-weight: bold;">2020 (243)</text></g><g id="2016" transform="rotate(133.52669782938207) translate(250,0)"><text x="8" dy="0.35em" transform="rotate(180) translate(-16)" text-anchor="end" style="font-family: Arial, sans-serif; font-size: 10px; fill: black; font-weight: bold;">2016 (291)</text></g><g id="2017" transform="rotate(209.79273153913783) translate(250,0)"><text x="8" dy="0.35em" transform="rotate(180) translate(-16)" text-anchor="end" style="font-family: Arial, sans-serif; font-size: 10px; fill: black; font-weight: bold;">2017 (114)</text></g><g id="2013" transform="rotate(100.40647505542665) translate(250,0)"><text x="8" dy="0.35em" transform="rotate(180) translate(-16)" text-anchor="end" style="font-family: Arial, sans-serif; font-size: 10px; fill: black; font-weight: bold;">2013 (340)</text></g><g id="2015" transform="rotate(148.77811325500684) translate(250,0)"><text x="8" dy="0.35em" transform="rotate(180) translate(-16)" text-anchor="end" style="font-family: Arial, sans-serif; font-size: 10px; fill: black; font-weight: bold;">2015 (284)</text></g><g id="2011" transform="rotate(163.01776373572017) translate(250,0)"><text x="8" dy="0.35em" transform="rotate(180) translate(-16)" text-anchor="end" style="font-family: Arial, sans-serif; font-size: 10px; fill: black; font-weight: bold;">2011 (245)</text></g><g id="2005" transform="rotate(6.597475622098841) translate(250,0)"><text x="8" dy="0.35em" style="font-family: Arial, sans-serif; font-size: 10px; fill: black; font-weight: bold;">2005 (431)</text></g><g id="2002" transform="rotate(46.22818586765868) translate(250,0)"><text x="8" dy="0.35em" style="font-family: Arial, sans-serif; font-size: 10px; fill: black; font-weight: bold;">2002 (376)</text></g><g id="1979" transform="rotate(189.56151436775082) translate(250,0)"><text x="8" dy="0.35em" transform="rotate(180) translate(-16)" text-anchor="end" style="font-family: Arial, sans-serif; font-size: 10px; fill: black; font-weight: bold;">1979 (239)</text></g><g id="2007" transform="rotate(221.2699824480299) translate(250,0)"><text x="8" dy="0.35em" transform="rotate(180) translate(-16)" text-anchor="end" style="font-family: Arial, sans-serif; font-size: 10px; fill: black; font-weight: bold;">2007 (53)</text></g><g id="2006" transform="rotate(216.20220114184048) translate(250,0)"><text x="8" dy="0.35em" transform="rotate(180) translate(-16)" text-anchor="end" style="font-family: Arial, sans-serif; font-size: 10px; fill: black; font-weight: bold;">2006 (59)</text></g><g id="2012" transform="rotate(226.13980974325835) translate(250,0)"><text x="8" dy="0.35em" transform="rotate(180) translate(-16)" text-anchor="end" style="font-family: Arial, sans-serif; font-size: 10px; fill: black; font-weight: bold;">2012 (50)</text></g><g id="2008" transform="rotate(233.50401620218406) translate(250,0)"><text x="8" dy="0.35em" transform="rotate(180) translate(-16)" text-anchor="end" style="font-family: Arial, sans-serif; font-size: 10px; fill: black; font-weight: bold;">2008 (14)</text></g><g id="1998" transform="rotate(236.6582420690844) translate(250,0)"><text x="8" dy="0.35em" transform="rotate(180) translate(-16)" text-anchor="end" style="font-family: Arial, sans-serif; font-size: 10px; fill: black; font-weight: bold;">1998 (11)</text></g><g id="2010" transform="rotate(248.5053243829487) translate(250,0)"><text x="8" dy="0.35em" transform="rotate(180) translate(-16)" text-anchor="end" style="font-family: Arial, sans-serif; font-size: 10px; fill: black; font-weight: bold;">2010 (6)</text></g><g id="1999" transform="rotate(239.70249348545082) translate(250,0)"><text x="8" dy="0.35em" transform="rotate(180) translate(-16)" text-anchor="end" style="font-family: Arial, sans-serif; font-size: 10px; fill: black; font-weight: bold;">1999 (9)</text></g><g id="1990" transform="rotate(230.21782099464315) translate(250,0)"><text x="8" dy="0.35em" transform="rotate(180) translate(-16)" text-anchor="end" style="font-family: Arial, sans-serif; font-size: 10px; fill: black; font-weight: bold;">1990 (17)</text></g><g id="1992" transform="rotate(251.30763200814073) translate(250,0)"><text x="8" dy="0.35em" transform="rotate(180) translate(-16)" text-anchor="end" style="font-family: Arial, sans-serif; font-size: 10px; fill: black; font-weight: bold;">1992 (3)</text></g><g id="2000" transform="rotate(245.61503719732968) translate(250,0)"><text x="8" dy="0.35em" transform="rotate(180) translate(-16)" text-anchor="end" style="font-family: Arial, sans-serif; font-size: 10px; fill: black; font-weight: bold;">2000 (7)</text></g><g id="1980" transform="rotate(242.680760231497) translate(250,0)"><text x="8" dy="0.35em" transform="rotate(180) translate(-16)" text-anchor="end" style="font-family: Arial, sans-serif; font-size: 10px; fill: black; font-weight: bold;">1980 (8)</text></g><g id="2025" transform="rotate(254.02196007290559) translate(250,0)"><text x="8" dy="0.35em" transform="rotate(180) translate(-16)" text-anchor="end" style="font-family: Arial, sans-serif; font-size: 10px; fill: black; font-weight: bold;">2025 (2)</text></g><g id="1982" transform="rotate(256.7142932475637) translate(250,0)"><text x="8" dy="0.35em" transform="rotate(180) translate(-16)" text-anchor="end" style="font-family: Arial, sans-serif; font-size: 10px; fill: black; font-weight: bold;">1982 (2)</text></g><g id="1978" transform="rotate(259.40662642222185) translate(250,0)"><text x="8" dy="0.35em" transform="rotate(180) translate(-16)" text-anchor="end" style="font-family: Arial, sans-serif; font-size: 10px; fill: black; font-weight: bold;">1978 (2)</text></g><g id="1995" transform="rotate(262.07696470677314) translate(250,0)"><text x="8" dy="0.35em" transform="rotate(180) translate(-16)" text-anchor="end" style="font-family: Arial, sans-serif; font-size: 10px; fill: black; font-weight: bold;">1995 (1)</text></g><g id="1997" transform="rotate(264.72530810121776) translate(250,0)"><text x="8" dy="0.35em" transform="rotate(180) translate(-16)" text-anchor="end" style="font-family: Arial, sans-serif; font-size: 10px; fill: black; font-weight: bold;">1997 (1)</text></g><g id="1977" transform="rotate(267.37365149566233) translate(250,0)"><text x="8" dy="0.35em" transform="rotate(180) translate(-16)" text-anchor="end" style="font-family: Arial, sans-serif; font-size: 10px; fill: black; font-weight: bold;">1977 (1)</text></g></g></g></svg>